<svg width="64" height="64" viewBox="0 0 64 64" fill="none" xmlns="http://www.w3.org/2000/svg">
<path fill-rule="evenodd" clip-rule="evenodd" d="M40.35 9.09L49.29 19.97C49.7379 20.499 49.9888 21.1669 50 21.86V53C50 53.7957 49.6839 54.5587 49.1213 55.1213C48.5587 55.6839 47.7957 56 47 56H17C16.2044 56 15.4413 55.6839 14.8787 55.1213C14.3161 54.5587 14 53.7957 14 53V11C14 10.2044 14.3161 9.44127 14.8787 8.87866C15.4413 8.31605 16.2044 8 17 8H38.04C38.4815 8.0005 38.9175 8.09845 39.3168 8.28687C39.7161 8.47528 40.0689 8.74952 40.35 9.09ZM47.6871 53.6771C47.8746 53.4896 47.98 53.2352 47.98 52.97V21.85C47.9781 21.6198 47.8969 21.3972 47.75 21.22L38.81 10.33C38.7149 10.2158 38.5956 10.1242 38.4606 10.062C38.3257 9.99968 38.1786 9.96825 38.03 9.96997H33.98V16.97C33.98 17.2352 33.8746 17.4896 33.6871 17.6771C33.4996 17.8646 33.2452 17.97 32.98 17.97C32.7148 17.97 32.4604 17.8646 32.2729 17.6771C32.0854 17.4896 31.98 17.2352 31.98 16.97V9.96997H27.98V16.97C27.98 17.2352 27.8746 17.4896 27.6871 17.6771C27.4996 17.8646 27.2452 17.97 26.98 17.97C26.7148 17.97 26.4604 17.8646 26.2729 17.6771C26.0854 17.4896 25.98 17.2352 25.98 16.97V9.96997H21.98V16.97C21.98 17.2352 21.8746 17.4896 21.6871 17.6771C21.4996 17.8646 21.2452 17.97 20.98 17.97C20.7148 17.97 20.4604 17.8646 20.2729 17.6771C20.0854 17.4896 19.98 17.2352 19.98 16.97V9.96997H16.98C16.7148 9.96997 16.4604 10.0753 16.2729 10.2629C16.0854 10.4504 15.98 10.7048 15.98 10.97V52.97C15.98 53.2352 16.0854 53.4896 16.2729 53.6771C16.4604 53.8646 16.7148 53.97 16.98 53.97H46.98C47.2452 53.97 47.4996 53.8646 47.6871 53.6771ZM25 30H39C40.3261 30 41.5979 30.5268 42.5356 31.4644C43.4732 32.4021 44 33.6739 44 35V45C44 46.3261 43.4732 47.5978 42.5356 48.5355C41.5979 49.4732 40.3261 50 39 50H25C23.6739 50 22.4022 49.4732 21.4645 48.5355C20.5268 47.5978 20 46.3261 20 45V35C20 33.6739 20.5268 32.4021 21.4645 31.4644C22.4022 30.5268 23.6739 30 25 30ZM26 38H22V42H26V38ZM36 32H28V48H36V32ZM42 38H38V42H42V38ZM42 36V35C42 34.2044 41.6839 33.4413 41.1213 32.8787C40.5587 32.3161 39.7956 32 39 32H38V36H42ZM26 32H25C24.2044 32 23.4413 32.3161 22.8787 32.8787C22.3161 33.4413 22 34.2044 22 35V36H26V32ZM22 44V45C22 45.7957 22.3161 46.5587 22.8787 47.1213C23.4413 47.6839 24.2044 48 25 48H26V44H22ZM38 48H39C39.7956 48 40.5587 47.6839 41.1213 47.1213C41.6839 46.5587 42 45.7957 42 45V44H38V48Z" fill="black"/>
</svg>
