<svg width="64" height="64" viewBox="0 0 64 64" fill="none" xmlns="http://www.w3.org/2000/svg">
<path fill-rule="evenodd" clip-rule="evenodd" d="M23.0331 35.1234C21.2568 35.1234 19.8748 34.3977 18.7997 33.2654L17.2331 34.0536C16.4123 34.4904 15.6608 35.0464 15.0031 35.7036C14.5884 36.1362 14.0219 36.3908 13.4231 36.4136L13.3431 36.3836C12.7599 36.3844 12.1984 36.1626 11.7731 35.7636C11.5518 35.5604 11.3733 35.3151 11.248 35.0421C11.1226 34.7691 11.053 34.4738 11.0431 34.1736C10.8685 32.473 11.2433 30.7611 12.1125 29.2891C12.9407 27.8864 14.1764 26.7716 15.6522 26.0913C15.049 23.0631 15.0331 20.3794 15.0331 20.1234C15.0331 12.5934 22.2731 8.88343 22.5831 8.73343C22.7227 8.66309 22.8768 8.62646 23.0331 8.62646C23.1894 8.62646 23.3435 8.66309 23.4831 8.73343C23.7831 8.88343 31.0331 12.5934 31.0331 20.1234C31.0331 21.794 30.8601 23.9433 30.4143 26.09C31.8954 26.7736 33.1343 27.8948 33.9619 29.3054C34.834 30.792 35.2027 32.5204 35.0131 34.2334C34.9771 34.8159 34.7152 35.3612 34.2831 35.7534C33.8594 36.1561 33.2977 36.3815 32.7131 36.3834H32.6331C32.0202 36.3574 31.4421 36.0916 31.0231 35.6434C30.3656 34.9959 29.6179 34.4469 28.8031 34.0134L27.2322 33.228C26.1386 34.3941 24.7591 35.1234 23.0331 35.1234ZM28.4342 31.599L29.7231 32.2434C30.7296 32.7721 31.6528 33.446 32.4631 34.2434C32.4911 34.2814 32.5271 34.3128 32.5686 34.3353C32.6101 34.3578 32.656 34.3708 32.7031 34.3734C32.7826 34.3681 32.8589 34.3404 32.9231 34.2934C32.9516 34.2664 32.9742 34.2338 32.9897 34.1977C33.0052 34.1616 33.0131 34.1227 33.0131 34.0835C33.1733 32.7895 32.9076 31.4785 32.2562 30.349C31.7004 29.3852 30.8897 28.5983 29.918 28.0716C29.5413 29.3379 29.054 30.5489 28.4342 31.599ZM16.1323 28.0849C16.491 29.3342 16.9667 30.566 17.5976 31.6413L16.3131 32.2836C15.3019 32.8095 14.375 33.4836 13.5631 34.2836C13.5377 34.3148 13.5057 34.3401 13.4694 34.3574C13.4331 34.3747 13.3933 34.3836 13.3531 34.3836C13.306 34.386 13.2589 34.3776 13.2155 34.3591C13.1721 34.3406 13.1335 34.3124 13.1027 34.2768C13.0718 34.2411 13.0495 34.1988 13.0374 34.1532C13.0254 34.1076 13.0239 34.0598 13.0331 34.0136C12.8919 32.7312 13.1677 31.4374 13.8198 30.3242C14.3741 29.3779 15.1751 28.605 16.1323 28.0849ZM23.0331 10.7734C21.5731 11.6634 17.0331 14.8334 17.0331 20.1234C17.0331 23.7434 18.1131 33.1234 23.0331 33.1234C27.9531 33.1234 29.0331 23.4934 29.0331 20.1234C29.0331 14.8334 24.4931 11.6634 23.0331 10.7734ZM0.0107675 44.1231C0.00666225 44.1523 0.00385861 44.1816 0.00235176 44.211C-0.00236303 44.2796 3.76933e-06 44.3487 0.00952022 44.4172C0.015038 44.4569 0.0229255 44.4961 0.0331116 44.5347V53.3734C0.0331116 53.6386 0.138468 53.893 0.326004 54.0805C0.51354 54.2681 0.767895 54.3734 1.03311 54.3734C1.29833 54.3734 1.55268 54.2681 1.74022 54.0805C1.92776 53.893 2.03311 53.6386 2.03311 53.3734V45.5971L22.0331 51.0516V54.3734C22.0331 54.6386 22.1385 54.893 22.326 55.0805C22.5135 55.2681 22.7679 55.3734 23.0331 55.3734C23.2983 55.3734 23.5527 55.2681 23.7402 55.0805C23.9277 54.893 24.0331 54.6386 24.0331 54.3734V51.0136L44.0331 45.5591V53.3734C44.0331 53.6386 44.1385 53.893 44.326 54.0805C44.5135 54.2681 44.7679 54.3734 45.0331 54.3734C45.2983 54.3734 45.5527 54.2681 45.7402 54.0805C45.9277 53.893 46.0331 53.6386 46.0331 53.3734V44.5034C46.0331 44.4871 46.0327 44.4708 46.0319 44.4546C46.0483 44.355 46.0495 44.2534 46.0355 44.1531C46.0171 44.0228 45.9733 43.8973 45.9064 43.784C45.8395 43.6707 45.7509 43.5716 45.6457 43.4926C45.6289 43.48 45.6118 43.468 45.5943 43.4565C45.5633 43.4336 45.5308 43.4123 45.497 43.3929C45.3616 43.3152 45.2113 43.271 45.0583 43.262L34.2931 40.4435C34.1636 40.4006 34.0266 40.3847 33.8906 40.3967C33.7547 40.4088 33.6226 40.4485 33.5026 40.5135C33.3826 40.5785 33.2772 40.6674 33.1928 40.7747C33.1085 40.882 33.047 41.0054 33.0121 41.1374C32.9772 41.2693 32.9697 41.407 32.9901 41.542C33.0104 41.6769 33.0582 41.8063 33.1304 41.9221C33.2027 42.0379 33.2978 42.1377 33.4101 42.2153C33.5223 42.2929 33.6493 42.3467 33.7831 42.3735L41.0963 44.2882L22.9634 49.2336L4.83279 44.2888L12.2631 42.3434C12.3969 42.3167 12.5239 42.2629 12.6361 42.1853C12.7484 42.1076 12.8436 42.0078 12.9158 41.892C12.988 41.7762 13.0358 41.6469 13.0561 41.5119C13.0765 41.377 13.069 41.2393 13.0341 41.1073C12.9993 40.9754 12.9378 40.852 12.8534 40.7447C12.769 40.6374 12.6636 40.5485 12.5436 40.4835C12.4236 40.4185 12.2915 40.3787 12.1556 40.3667C12.0196 40.3546 11.8827 40.3706 11.7531 40.4134L0.753108 43.2935C0.625609 43.3261 0.505801 43.3836 0.400561 43.4626C0.295321 43.5416 0.206717 43.6406 0.139826 43.754C0.0729362 43.8673 0.0290812 43.9927 0.0107675 44.1231ZM20.947 22.9964C21.565 23.4073 22.291 23.6255 23.0331 23.6235C24.0259 23.6209 24.9772 23.2246 25.6783 22.5216C26.3794 21.8187 26.7731 20.8663 26.7731 19.8735C26.7731 19.1314 26.5529 18.406 26.1404 17.7891C25.7279 17.1722 25.1416 16.6916 24.4558 16.408C23.77 16.1245 23.0155 16.0508 22.2878 16.1963C21.5601 16.3418 20.892 16.7 20.3679 17.2254C19.8439 17.7509 19.4875 18.42 19.3439 19.1481C19.2004 19.8762 19.2761 20.6305 19.5614 21.3155C19.8468 22.0006 20.329 22.5856 20.947 22.9964ZM22.0571 18.4243C22.3464 18.2328 22.6861 18.1315 23.0331 18.1335C23.4938 18.1361 23.9348 18.3203 24.2606 18.6461C24.5863 18.9718 24.7705 19.4128 24.7731 19.8735C24.7751 20.2205 24.6739 20.5602 24.4823 20.8495C24.2908 21.1388 24.0176 21.3647 23.6974 21.4984C23.3773 21.6321 23.0246 21.6676 22.6842 21.6003C22.3438 21.5331 22.031 21.3663 21.7857 21.1209C21.5404 20.8756 21.3735 20.5628 21.3063 20.2225C21.2391 19.8821 21.2746 19.5294 21.4083 19.2092C21.542 18.889 21.7678 18.6158 22.0571 18.4243ZM19.2331 40.0136C19.2331 41.6336 20.5431 46.3036 23.0331 46.3036C25.5231 46.3036 26.8331 41.6336 26.8331 40.0136C26.8331 39.0058 26.4328 38.0393 25.7201 37.3266C25.0075 36.614 24.0409 36.2136 23.0331 36.2136C22.0253 36.2136 21.0588 36.614 20.3461 37.3266C19.6335 38.0393 19.2331 39.0058 19.2331 40.0136ZM21.7632 38.7437C22.1002 38.4067 22.5565 38.2162 23.0331 38.2136C23.5097 38.2162 23.966 38.4067 24.303 38.7437C24.64 39.0807 24.8305 39.5371 24.8331 40.0136C24.8331 41.5536 23.6231 44.2136 23.0331 44.3036C22.4431 44.2136 21.2331 41.5536 21.2331 40.0136C21.2358 39.5371 21.4262 39.0807 21.7632 38.7437Z" fill="black"/>
</svg>
