<svg width="24" height="24" viewBox="0 0 24 24" fill="none" xmlns="http://www.w3.org/2000/svg">
<path d="M12.6929 9.96022C12.6612 9.89907 12.6133 9.84784 12.5544 9.81212C12.4956 9.7764 12.428 9.75758 12.3591 9.75773H6.83913L8.23787 3.46521C8.25691 3.38073 8.24611 3.29226 8.20732 3.21483C8.16852 3.1374 8.10413 3.07578 8.02506 3.04044C7.94599 3.00511 7.85713 2.99823 7.77356 3.02098C7.69 3.04372 7.61687 3.09468 7.56662 3.16522L0.06662 13.6652C0.0290321 13.7195 0.00646213 13.7828 0.00119409 13.8487C-0.00407396 13.9145 0.00815191 13.9806 0.036625 14.0402C0.0683008 14.1014 0.116204 14.1526 0.175076 14.1883C0.233947 14.224 0.30152 14.2429 0.37038 14.2427H5.90537L4.50663 20.539C4.48792 20.6234 4.49897 20.7117 4.53793 20.789C4.57688 20.8662 4.64134 20.9276 4.72037 20.9627C4.76816 20.9817 4.81898 20.9918 4.87038 20.9927C4.93051 20.993 4.98983 20.9789 5.04335 20.9515C5.09686 20.9241 5.143 20.8842 5.17787 20.8352L12.6779 10.3352C12.7131 10.2795 12.733 10.2156 12.7357 10.1497C12.7383 10.0839 12.7235 10.0185 12.6929 9.96022ZM5.62788 18.9152L6.72662 13.9652C6.73845 13.9104 6.73785 13.8537 6.72487 13.7992C6.71189 13.7447 6.68687 13.6938 6.65163 13.6502C6.61671 13.606 6.57227 13.5703 6.52164 13.5456C6.471 13.5209 6.41545 13.508 6.35912 13.5077H1.10162L7.10162 5.10022L6.00288 10.054C5.99053 10.1085 5.99053 10.165 6.00285 10.2195C6.01518 10.274 6.03953 10.3251 6.07413 10.369C6.10942 10.4125 6.15402 10.4475 6.20464 10.4715C6.25525 10.4956 6.3106 10.5079 6.36663 10.5077H11.6429L5.62788 18.9152Z" fill="black"/>
</svg>
