<svg width="24" height="24" viewBox="0 0 24 24" fill="none" xmlns="http://www.w3.org/2000/svg">
<path fill-rule="evenodd" clip-rule="evenodd" d="M14.4609 3.5625C14.6551 3.5625 14.8125 3.7199 14.8125 3.91406V4.61719H17.625V3.91406C17.625 3.7199 17.7824 3.5625 17.9766 3.5625C18.1707 3.5625 18.3281 3.7199 18.3281 3.91406V4.61719H19.3828C19.9653 4.61719 20.4375 5.08939 20.4375 5.67188V7.42969V10.9453C20.4375 11.5278 19.9653 12 19.3828 12H13.0547C12.4722 12 12 11.5278 12 10.9453V7.42969V5.67188C12 5.08939 12.4722 4.61719 13.0547 4.61719H14.1094V3.91406C14.1094 3.7199 14.2668 3.5625 14.4609 3.5625ZM17.625 5.32031V5.67188C17.625 5.86604 17.7824 6.02344 17.9766 6.02344C18.1707 6.02344 18.3281 5.86604 18.3281 5.67188V5.32031H19.3828C19.577 5.32031 19.7344 5.47771 19.7344 5.67188V7.07812H12.7031V5.67188C12.7031 5.47771 12.8605 5.32031 13.0547 5.32031H14.1094V5.67188C14.1094 5.86604 14.2668 6.02344 14.4609 6.02344C14.6551 6.02344 14.8125 5.86604 14.8125 5.67188V5.32031H17.625ZM19.7344 7.78125H12.7031V10.9453C12.7031 11.1395 12.8605 11.2969 13.0547 11.2969H19.3828C19.577 11.2969 19.7344 11.1395 19.7344 10.9453V7.78125ZM4.3686 12.4545C4.43453 12.3886 4.52395 12.3516 4.61719 12.3516H10.2422C10.4363 12.3516 10.5938 12.1942 10.5938 12C10.5938 11.8058 10.4363 11.6484 10.2422 11.6484H4.61719C4.33747 11.6484 4.0692 11.7596 3.87141 11.9573C3.67362 12.1551 3.5625 12.4234 3.5625 12.7031V19.3828C3.5625 19.6625 3.67362 19.9308 3.87141 20.1286C4.0692 20.3264 4.33747 20.4375 4.61719 20.4375H18.6797C18.9594 20.4375 19.2277 20.3264 19.4255 20.1286C19.6233 19.9308 19.7344 19.6625 19.7344 19.3828V13.7578C19.7344 13.5637 19.577 13.4062 19.3828 13.4062C19.1886 13.4062 19.0312 13.5637 19.0312 13.7578V19.3828C19.0312 19.4761 18.9942 19.5655 18.9283 19.6314C18.8623 19.6973 18.7729 19.7344 18.6797 19.7344H4.61719C4.52395 19.7344 4.43453 19.6973 4.3686 19.6314C4.30266 19.5655 4.26562 19.4761 4.26562 19.3828V12.7031C4.26562 12.6099 4.30266 12.5205 4.3686 12.4545ZM6.34306 14.3625C6.4814 14.3595 6.6189 14.3846 6.74729 14.4362C6.87568 14.4878 6.99231 14.5649 7.09015 14.6627C7.18799 14.7606 7.26503 14.8772 7.31663 15.0056C7.36823 15.134 7.39332 15.2715 7.39039 15.4098C7.39002 15.4273 7.39093 15.4445 7.39304 15.4614C7.39037 15.5063 7.38946 15.5514 7.39031 15.5965V16.644C7.38992 16.6643 7.3899 16.6847 7.39023 16.705C7.38689 16.8264 7.36202 16.9464 7.31663 17.0594C7.26503 17.1878 7.18799 17.3044 7.09015 17.4022C6.99231 17.5001 6.87568 17.5771 6.74729 17.6287C6.6189 17.6803 6.4814 17.7054 6.34306 17.7025C6.14894 17.6984 5.98825 17.8524 5.98414 18.0465C5.98003 18.2406 6.13407 18.4013 6.32819 18.4054C6.56134 18.4104 6.79309 18.3681 7.00948 18.2811C7.22587 18.1942 7.42243 18.0643 7.58734 17.8994C7.64295 17.8438 7.69458 17.7846 7.74192 17.7222C7.78923 17.7845 7.84083 17.8437 7.89641 17.8993C8.06131 18.0642 8.25787 18.194 8.47426 18.281C8.69065 18.368 8.9224 18.4103 9.15556 18.4053C9.34968 18.4012 9.50371 18.2405 9.49961 18.0464C9.4955 17.8523 9.3348 17.6982 9.14068 17.7024C9.00235 17.7053 8.86484 17.6802 8.73645 17.6286C8.60806 17.577 8.49144 17.5 8.39359 17.4021C8.29575 17.3043 8.21871 17.1876 8.16711 17.0593C8.12174 16.9463 8.09686 16.8264 8.09351 16.705C8.09384 16.6847 8.09382 16.6645 8.09344 16.6442V15.593L8.09336 15.5856C8.09043 15.4472 8.11552 15.3097 8.16712 15.1814C8.21871 15.053 8.29575 14.9363 8.39359 14.8385C8.49144 14.7406 8.60806 14.6636 8.73645 14.612C8.86484 14.5604 9.00235 14.5353 9.14069 14.5383C9.33481 14.5424 9.4955 14.3883 9.49961 14.1942C9.50371 14.0001 9.34968 13.8394 9.15556 13.8353C8.9224 13.8304 8.69066 13.8726 8.47427 13.9596C8.25788 14.0466 8.06131 14.1764 7.89641 14.3413C7.86579 14.3719 7.83638 14.4036 7.80822 14.4364C7.74409 14.3391 7.67014 14.2483 7.58734 14.1655C7.42243 14.0006 7.22587 13.8708 7.00948 13.7838C6.79309 13.6969 6.56134 13.6546 6.32819 13.6595C6.13407 13.6636 5.98003 13.8243 5.98414 14.0184C5.98825 14.2125 6.14894 14.3666 6.34306 14.3625Z" fill="black"/>
</svg>
