<svg width="24" height="24" viewBox="0 0 24 24" fill="none" xmlns="http://www.w3.org/2000/svg">
<g clip-path="url(#clip0_914_2610)">
<path fill-rule="evenodd" clip-rule="evenodd" d="M9.01127 15.75H19.4963C19.7946 15.75 20.0808 15.6315 20.2918 15.4205C20.5027 15.2095 20.6213 14.9234 20.6213 14.625C20.6213 14.3267 20.5027 14.0405 20.2918 13.8295C20.0808 13.6185 19.7946 13.5 19.4963 13.5H8.66627C8.50911 13.497 8.35686 13.4447 8.23103 13.3505C8.1052 13.2563 8.01215 13.125 7.96502 12.975L6.79502 9.22502C6.77283 9.15207 6.76146 9.07627 6.76127 9.00002C6.76111 8.80197 6.8393 8.61189 6.97877 8.47127C7.04854 8.40108 7.13151 8.3454 7.22291 8.30742C7.3143 8.26945 7.4123 8.24994 7.51127 8.25002H20.34C20.6158 8.25212 20.8828 8.15283 21.0902 7.971C21.2976 7.78917 21.431 7.53749 21.465 7.26377L21.7163 5.25002H23.625C23.7245 5.25002 23.8199 5.21051 23.8902 5.14018C23.9605 5.06985 24 4.97448 24 4.87502C24 4.77556 23.9605 4.68017 23.8902 4.60985C23.8199 4.53952 23.7245 4.50002 23.625 4.50002H21.7088C21.5245 4.49869 21.3462 4.56523 21.2079 4.68696C21.0696 4.80869 20.9809 4.97708 20.9588 5.16001L20.7075 7.17002C20.6965 7.26148 20.6521 7.34568 20.583 7.40654C20.5138 7.46741 20.4246 7.50069 20.3325 7.50002H7.49252C7.25762 7.50054 7.02612 7.55622 6.81668 7.66258C6.60723 7.76894 6.4257 7.923 6.28669 8.11236C6.14768 8.30172 6.05509 8.52108 6.01637 8.75277C5.97765 8.98446 5.99388 9.222 6.06377 9.44627L7.23377 13.1963C7.32895 13.5017 7.51931 13.7687 7.77703 13.9583C8.03475 14.1479 8.34633 14.2501 8.66627 14.25H19.5113C19.6107 14.25 19.7061 14.2895 19.7764 14.3598C19.8468 14.4302 19.8863 14.5256 19.8863 14.625C19.8863 14.7245 19.8468 14.8199 19.7764 14.8902C19.7061 14.9605 19.6107 15 19.5113 15H9.01127C8.91181 15 8.81643 15.0395 8.7461 15.1098C8.67578 15.1802 8.63627 15.2756 8.63627 15.375C8.63627 15.4745 8.67578 15.5699 8.7461 15.6402C8.81643 15.7105 8.91181 15.75 9.01127 15.75ZM20.25 12.735H20.2913C20.384 12.7366 20.4741 12.7038 20.5441 12.6428C20.614 12.5819 20.6589 12.4971 20.67 12.405L21 9.40501C21.011 9.30556 20.9819 9.20583 20.9194 9.12777C20.8568 9.04971 20.7657 8.99971 20.6663 8.98877C20.5668 8.97783 20.4671 9.00685 20.389 9.06944C20.311 9.13203 20.261 9.22306 20.25 9.32251L19.92 12.3225C19.9095 12.4209 19.9382 12.5195 20.0001 12.5967C20.0619 12.674 20.1517 12.7237 20.25 12.735ZM10.5113 19.5C10.2146 19.5 9.9246 19.412 9.67792 19.2472C9.43125 19.0824 9.23899 18.8481 9.12546 18.574C9.01193 18.3 8.98222 17.9984 9.0401 17.7074C9.09798 17.4164 9.24084 17.1491 9.45062 16.9394C9.6604 16.7296 9.92767 16.5867 10.2186 16.5288C10.5096 16.471 10.8112 16.5007 11.0853 16.6142C11.3594 16.7277 11.5937 16.92 11.7585 17.1667C11.9233 17.4133 12.0113 17.7033 12.0113 18C12.0113 18.3978 11.8532 18.7794 11.5719 19.0607C11.2906 19.342 10.9091 19.5 10.5113 19.5ZM10.5113 17.25C10.3629 17.25 10.2179 17.294 10.0946 17.3764C9.97126 17.4588 9.87513 17.576 9.81837 17.713C9.7616 17.85 9.74675 18.0008 9.77569 18.1463C9.80463 18.2918 9.87606 18.4255 9.98095 18.5303C10.0858 18.6352 10.2195 18.7067 10.365 18.7356C10.5104 18.7645 10.6612 18.7497 10.7983 18.6929C10.9353 18.6362 11.0525 18.54 11.1349 18.4167C11.2173 18.2934 11.2613 18.1484 11.2613 18C11.2613 17.8011 11.1823 17.6103 11.0416 17.4697C10.901 17.329 10.7102 17.25 10.5113 17.25ZM17.7006 19.0607C17.9819 19.342 18.3635 19.5 18.7613 19.5C19.1591 19.5 19.5406 19.342 19.8219 19.0607C20.1032 18.7794 20.2613 18.3978 20.2613 18C20.2613 17.6022 20.1032 17.2207 19.8219 16.9394C19.5406 16.6581 19.1591 16.5 18.7613 16.5C18.3635 16.5 17.9819 16.6581 17.7006 16.9394C17.4193 17.2207 17.2613 17.6022 17.2613 18C17.2613 18.3978 17.4193 18.7794 17.7006 19.0607ZM18.2309 17.4697C18.3716 17.329 18.5624 17.25 18.7613 17.25C18.9602 17.25 19.151 17.329 19.2916 17.4697C19.4323 17.6103 19.5113 17.8011 19.5113 18C19.5113 18.1989 19.4323 18.3897 19.2916 18.5304C19.151 18.671 18.9602 18.75 18.7613 18.75C18.5624 18.75 18.3716 18.671 18.2309 18.5304C18.0903 18.3897 18.0113 18.1989 18.0113 18C18.0113 17.8011 18.0903 17.6103 18.2309 17.4697Z" fill="black"/>
</g>
<defs>
<clipPath id="clip0_914_2610">
<rect width="24" height="24" fill="white"/>
</clipPath>
</defs>
</svg>
