<svg width="64" height="64" viewBox="0 0 64 64" fill="none" xmlns="http://www.w3.org/2000/svg">
<path fill-rule="evenodd" clip-rule="evenodd" d="M25.85 19.7H1.04001C0.774792 19.7 0.520437 19.5946 0.332901 19.4071C0.145365 19.2196 0.0400085 18.9652 0.0400085 18.7C0.0400085 18.4348 0.145365 18.1804 0.332901 17.9929C0.520437 17.8054 0.774792 17.7 1.04001 17.7H25.85C26.3804 17.7 26.8891 17.4893 27.2642 17.1142C27.6393 16.7392 27.85 16.2305 27.85 15.7C27.85 15.334 27.7046 14.983 27.4458 14.7242C27.187 14.4654 26.836 14.32 26.47 14.32C26.2801 14.3212 26.0952 14.3806 25.94 14.49C25.7247 14.6324 25.4627 14.6862 25.2088 14.6398C24.9548 14.5935 24.7286 14.4508 24.5775 14.2416C24.4264 14.0323 24.362 13.7727 24.3979 13.5171C24.4338 13.2614 24.5671 13.0296 24.77 12.87C25.2603 12.5112 25.8524 12.3185 26.46 12.32C27.3564 12.32 28.2162 12.6761 28.85 13.31C29.4839 13.9439 29.84 14.8036 29.84 15.7C29.84 16.7592 29.42 17.7751 28.672 18.5249C27.924 19.2748 26.9091 19.6974 25.85 19.7ZM41.04 28.71H1.04001C0.774792 28.71 0.520437 28.6047 0.332901 28.4171C0.145365 28.2296 0.0400085 27.9752 0.0400085 27.71C0.0400085 27.4448 0.145365 27.1904 0.332901 27.0029C0.520437 26.8154 0.774792 26.71 1.04001 26.71H41.04C42.1009 26.71 43.1183 26.2886 43.8684 25.5384C44.6186 24.7883 45.04 23.7709 45.04 22.71C45.04 21.9143 44.7239 21.1513 44.1613 20.5887C43.5987 20.0261 42.8357 19.71 42.04 19.71C41.4565 19.71 40.897 19.9418 40.4844 20.3544C40.0718 20.767 39.84 21.3265 39.84 21.91C39.84 22.1752 39.7347 22.4296 39.5471 22.6171C39.3596 22.8046 39.1052 22.91 38.84 22.91C38.5748 22.91 38.3204 22.8046 38.1329 22.6171C37.9454 22.4296 37.84 22.1752 37.84 21.91C37.8427 20.7969 38.286 19.7302 39.0731 18.9431C39.8602 18.156 40.9269 17.7126 42.04 17.71C43.3661 17.71 44.6379 18.2368 45.5755 19.1745C46.5132 20.1122 47.04 21.3839 47.04 22.71C47.04 24.3013 46.4079 25.8274 45.2827 26.9526C44.1574 28.0779 42.6313 28.71 41.04 28.71ZM22.3074 49.9226C23.4326 51.0479 24.9587 51.68 26.55 51.68C28.4605 51.68 30.2929 50.9218 31.6447 49.5718C32.9966 48.2218 33.7574 46.3905 33.76 44.48C33.76 42.1558 32.8374 39.9266 31.1949 38.2822C29.5523 36.6378 27.3242 35.7126 25 35.71H1C0.734784 35.71 0.480429 35.8154 0.292892 36.0029C0.105356 36.1904 0 36.4448 0 36.71C0 36.9752 0.105356 37.2296 0.292892 37.4171C0.480429 37.6047 0.734784 37.71 1 37.71H25C26.7938 37.7126 28.5132 38.4271 29.7807 39.6964C31.0481 40.9657 31.76 42.6862 31.76 44.48C31.7574 45.8601 31.2073 47.1827 30.2305 48.1576C29.2537 49.1325 27.93 49.68 26.55 49.68C25.4891 49.68 24.4717 49.2586 23.7216 48.5084C22.9714 47.7583 22.55 46.7409 22.55 45.68C22.55 45.4148 22.4446 45.1604 22.2571 44.9729C22.0696 44.7854 21.8152 44.68 21.55 44.68C21.2848 44.68 21.0304 44.7854 20.8429 44.9729C20.6554 45.1604 20.55 45.4148 20.55 45.68C20.55 47.2713 21.1821 48.7974 22.3074 49.9226Z" fill="black"/>
</svg>
