<svg width="24" height="24" viewBox="0 0 24 24" fill="none" xmlns="http://www.w3.org/2000/svg">
<path fill-rule="evenodd" clip-rule="evenodd" d="M10.8984 3.5625C11.0926 3.5625 11.25 3.7199 11.25 3.91406V4.61719H14.0625V3.91406C14.0625 3.7199 14.2199 3.5625 14.4141 3.5625C14.6082 3.5625 14.7656 3.7199 14.7656 3.91406V4.61719H15.8203C16.4028 4.61719 16.875 5.08939 16.875 5.67188V7.42969V10.9453C16.875 11.5278 16.4028 12 15.8203 12H9.49219C8.9097 12 8.4375 11.5278 8.4375 10.9453V7.42969V5.67188C8.4375 5.08939 8.9097 4.61719 9.49219 4.61719H10.5469V3.91406C10.5469 3.7199 10.7043 3.5625 10.8984 3.5625ZM14.0625 5.32031V5.67188C14.0625 5.86604 14.2199 6.02344 14.4141 6.02344C14.6082 6.02344 14.7656 5.86604 14.7656 5.67188V5.32031H15.8203C16.0145 5.32031 16.1719 5.47771 16.1719 5.67188V7.07812H9.14062V5.67188C9.14062 5.47771 9.29803 5.32031 9.49219 5.32031H10.5469V5.67188C10.5469 5.86604 10.7043 6.02344 10.8984 6.02344C11.0926 6.02344 11.25 5.86604 11.25 5.67188V5.32031H14.0625ZM16.1719 7.78125H9.14062V10.9453C9.14062 11.1395 9.29803 11.2969 9.49219 11.2969H15.8203C16.0145 11.2969 16.1719 11.1395 16.1719 10.9453V7.78125ZM0.806095 12.4545C0.872026 12.3886 0.961448 12.3516 1.05469 12.3516H6.67969C6.87385 12.3516 7.03125 12.1942 7.03125 12C7.03125 11.8058 6.87385 11.6484 6.67969 11.6484H1.05469C0.774967 11.6484 0.506703 11.7596 0.308911 11.9573C0.111119 12.1551 0 12.4234 0 12.7031V19.3828C0 19.6625 0.111118 19.9308 0.308911 20.1286C0.506704 20.3264 0.774968 20.4375 1.05469 20.4375H15.1172C15.3969 20.4375 15.6652 20.3264 15.863 20.1286C16.0608 19.9308 16.1719 19.6625 16.1719 19.3828V13.7578C16.1719 13.5637 16.0145 13.4062 15.8203 13.4062C15.6261 13.4062 15.4688 13.5637 15.4688 13.7578V19.3828C15.4688 19.4761 15.4317 19.5655 15.3658 19.6314C15.2998 19.6973 15.2104 19.7344 15.1172 19.7344H1.05469C0.961447 19.7344 0.872026 19.6973 0.806095 19.6314C0.740165 19.5655 0.703125 19.4761 0.703125 19.3828V12.7031C0.703125 12.6099 0.740164 12.5205 0.806095 12.4545ZM2.78056 14.3625C2.9189 14.3595 3.0564 14.3846 3.18479 14.4362C3.31318 14.4878 3.42981 14.5649 3.52765 14.6627C3.62549 14.7606 3.70253 14.8772 3.75413 15.0056C3.80573 15.134 3.83082 15.2715 3.82789 15.4098C3.82752 15.4273 3.82843 15.4445 3.83054 15.4614C3.82787 15.5063 3.82696 15.5514 3.82781 15.5965V16.644C3.82742 16.6643 3.8274 16.6847 3.82773 16.705C3.8244 16.8264 3.79952 16.9464 3.75413 17.0594C3.70253 17.1878 3.62549 17.3044 3.52765 17.4022C3.42981 17.5001 3.31318 17.5771 3.18479 17.6287C3.0564 17.6803 2.9189 17.7054 2.78056 17.7025C2.58644 17.6984 2.42575 17.8524 2.42164 18.0465C2.41753 18.2406 2.57157 18.4013 2.76569 18.4054C2.99884 18.4104 3.23059 18.3681 3.44698 18.2811C3.66337 18.1942 3.85993 18.0643 4.02484 17.8994C4.08045 17.8438 4.13208 17.7846 4.17942 17.7222C4.22673 17.7845 4.27833 17.8437 4.33391 17.8993C4.49881 18.0642 4.69537 18.194 4.91176 18.281C5.12815 18.368 5.3599 18.4103 5.59306 18.4053C5.78718 18.4012 5.94121 18.2405 5.9371 18.0464C5.933 17.8523 5.7723 17.6982 5.57818 17.7024C5.43984 17.7053 5.30234 17.6802 5.17395 17.6286C5.04556 17.577 4.92893 17.5 4.83109 17.4021C4.73325 17.3043 4.65621 17.1876 4.60461 17.0593C4.55924 16.9463 4.53436 16.8264 4.53101 16.705C4.53134 16.6847 4.53132 16.6645 4.53093 16.6442V15.593L4.53086 15.5856C4.52793 15.4472 4.55302 15.3097 4.60462 15.1814C4.65621 15.053 4.73325 14.9363 4.83109 14.8385C4.92894 14.7406 5.04556 14.6636 5.17395 14.612C5.30234 14.5604 5.43985 14.5353 5.57819 14.5383C5.77231 14.5424 5.933 14.3883 5.93711 14.1942C5.94121 14.0001 5.78718 13.8394 5.59306 13.8353C5.3599 13.8304 5.12815 13.8726 4.91177 13.9596C4.69538 14.0466 4.49881 14.1764 4.33391 14.3413C4.30329 14.3719 4.27388 14.4036 4.24572 14.4364C4.18159 14.3391 4.10764 14.2483 4.02484 14.1655C3.85993 14.0006 3.66337 13.8708 3.44698 13.7838C3.23059 13.6969 2.99884 13.6546 2.76569 13.6595C2.57157 13.6636 2.41753 13.8243 2.42164 14.0184C2.42575 14.2125 2.58644 14.3666 2.78056 14.3625Z" fill="black"/>
</svg>
