<svg width="64" height="64" viewBox="0 0 64 64" fill="none" xmlns="http://www.w3.org/2000/svg">
<g clip-path="url(#clip0_482_2073)">
<path fill-rule="evenodd" clip-rule="evenodd" d="M26.2929 19.7071C26.4804 19.8947 26.7348 20 27 20C27.2652 20 27.5196 19.8947 27.7071 19.7071C27.8946 19.5196 28 19.2652 28 19V14H52V19C52 19.2652 52.1054 19.5196 52.2929 19.7071C52.4804 19.8947 52.7348 20 53 20C53.2652 20 53.5196 19.8947 53.7071 19.7071C53.8946 19.5196 54 19.2652 54 19V14H61C61.2652 14 61.5196 14.1054 61.7071 14.2929C61.8946 14.4804 62 14.7348 62 15V22H18V15C18 14.7348 18.1054 14.4804 18.2929 14.2929C18.4804 14.1054 18.7348 14 19 14H26V19C26 19.2652 26.1054 19.5196 26.2929 19.7071ZM18 24H62V53C62 53.2652 61.8946 53.5196 61.7071 53.7071C61.5196 53.8947 61.2652 54 61 54H19C18.7348 54 18.4804 53.8947 18.2929 53.7071C18.1054 53.5196 18 53.2652 18 53V24ZM64 23V15C64 14.2044 63.6839 13.4413 63.1213 12.8787C62.5587 12.3161 61.7957 12 61 12H54V9C54 8.73478 53.8946 8.48044 53.7071 8.29291C53.5196 8.10537 53.2652 8 53 8C52.7348 8 52.4804 8.10537 52.2929 8.29291C52.1054 8.48044 52 8.73478 52 9V12H28V9C28 8.73478 27.8946 8.48044 27.7071 8.29291C27.5196 8.10537 27.2652 8 27 8C26.7348 8 26.4804 8.10537 26.2929 8.29291C26.1054 8.48044 26 8.73478 26 9V12H19C18.2044 12 17.4413 12.3161 16.8787 12.8787C16.3161 13.4413 16 14.2044 16 15V23V53C16 53.7957 16.3161 54.5587 16.8787 55.1213C17.4413 55.6839 18.2044 56 19 56H61C61.7957 56 62.5587 55.6839 63.1213 55.1213C63.6839 54.5587 64 53.7957 64 53V23Z" fill="black"/>
</g>
<defs>
<clipPath id="clip0_482_2073">
<rect width="64" height="64" fill="white"/>
</clipPath>
</defs>
</svg>
