<svg width="64" height="64" viewBox="0 0 64 64" fill="none" xmlns="http://www.w3.org/2000/svg">
<path fill-rule="evenodd" clip-rule="evenodd" d="M49.3941 39.2772C51.0102 38.6316 52.3339 37.4165 53.1151 35.8615C53.8963 34.3064 54.0809 32.5191 53.6341 30.8372C54.7162 30.2135 55.6148 29.3158 56.2397 28.2344C56.8646 27.153 57.1935 25.9261 57.1935 24.6772C57.1935 23.4283 56.8646 22.2014 56.2397 21.12C55.6148 20.0386 54.7162 19.1409 53.6341 18.5172C53.9545 17.3117 53.9526 16.0431 53.6285 14.8386C53.3045 13.634 52.6696 12.5357 51.7876 11.6537C50.9056 10.7717 49.8073 10.1368 48.6027 9.81275C47.3982 9.48869 46.1296 9.48678 44.9241 9.8072C44.062 8.33636 42.7001 7.22426 41.0867 6.67359C39.4732 6.12292 37.7155 6.17033 36.1341 6.8072C34.6596 7.38763 33.4209 8.44336 32.6141 9.8072C30.9698 9.3631 29.2208 9.52231 27.6837 10.256C26.1466 10.9897 24.9229 12.2494 24.2341 13.8072C23.6044 15.2792 23.4847 16.9194 23.8941 18.4672C22.4256 19.329 21.3151 20.6891 20.7645 22.3004C20.214 23.9116 20.26 25.667 20.8941 27.2472C21.4726 28.7254 22.5285 29.9678 23.8941 30.7772C23.5737 31.9827 23.5756 33.2513 23.8997 34.4558C24.2237 35.6604 24.8586 36.7587 25.7406 37.6407C26.6226 38.5227 27.7209 39.1576 28.9255 39.4816C30.13 39.8057 31.3986 39.8076 32.6041 39.4872C33.3579 40.8268 34.5316 41.881 35.9441 42.4872C36.7996 42.8629 37.7217 43.0636 38.656 43.0773C39.5903 43.0911 40.5179 42.9176 41.3841 42.5672C42.8683 41.9731 44.1109 40.8994 44.9141 39.5172C46.3939 39.9257 47.9664 39.8415 49.3941 39.2772ZM43.9541 37.1972C43.8202 37.2547 43.6992 37.3383 43.5979 37.443C43.4966 37.5477 43.4171 37.6715 43.3641 37.8072C42.9964 38.7251 42.3621 39.5119 41.5431 40.0661C40.7241 40.6202 39.7579 40.9164 38.7691 40.9164C37.7802 40.9164 36.8141 40.6202 35.9951 40.0661C35.1761 39.5119 34.5418 38.7251 34.1741 37.8072C34.121 37.6715 34.0416 37.5477 33.9403 37.443C33.839 37.3383 33.7179 37.2547 33.5841 37.1972C33.4497 37.1466 33.3077 37.1195 33.1641 37.1172C33.0162 37.1182 32.87 37.1488 32.7341 37.2072C31.8247 37.5971 30.8194 37.7055 29.8479 37.5184C28.8763 37.3314 27.983 36.8575 27.2834 36.1578C26.5838 35.4582 26.1099 34.565 25.9229 33.5935C25.7358 32.6219 25.8442 31.6165 26.2341 30.7072C26.291 30.5727 26.3204 30.4282 26.3204 30.2822C26.3204 30.1362 26.291 29.9916 26.2341 29.8572C26.1765 29.7233 26.093 29.6023 25.9883 29.501C25.8836 29.3997 25.7598 29.3202 25.6241 29.2672C24.9997 29.0157 24.4325 28.6408 23.9565 28.1648C23.4805 27.6888 23.1056 27.1216 22.8541 26.4972C22.3852 25.2774 22.4126 23.9224 22.9303 22.7225C23.448 21.5226 24.415 20.573 25.6241 20.0772C25.7598 20.0241 25.8836 19.9447 25.9883 19.8434C26.093 19.7421 26.1765 19.621 26.2341 19.4872C26.291 19.3527 26.3204 19.2082 26.3204 19.0622C26.3204 18.9162 26.291 18.7716 26.2341 18.6372C25.8425 17.7268 25.7333 16.7198 25.9204 15.7466C26.1076 14.7734 26.5826 13.8788 27.2839 13.1786C27.9852 12.4783 28.8805 12.0047 29.854 11.8191C30.8275 11.6334 31.8343 11.7442 32.7441 12.1372C32.8769 12.1938 33.0197 12.2231 33.1641 12.2231C33.3085 12.2231 33.4513 12.1938 33.5841 12.1372C33.7176 12.0817 33.8386 12.0001 33.9399 11.897C34.0413 11.7939 34.1209 11.6716 34.1741 11.5372C34.5402 10.6161 35.1743 9.82614 35.9945 9.26957C36.8146 8.71299 37.7829 8.41544 38.7741 8.41544C39.7653 8.41544 40.7336 8.71299 41.5537 9.26957C42.3739 9.82614 43.008 10.6161 43.3741 11.5372C43.4853 11.8063 43.6969 12.0215 43.9641 12.1372C44.0969 12.1938 44.2397 12.2231 44.3841 12.2231C44.5285 12.2231 44.6713 12.1938 44.8041 12.1372C45.4238 11.8731 46.0905 11.737 46.7641 11.737C47.4377 11.737 48.1044 11.8731 48.7241 12.1372C49.9202 12.6665 50.8613 13.6436 51.3455 14.8587C51.8297 16.0738 51.8184 17.4303 51.3141 18.6372C51.2554 18.7701 51.2242 18.9135 51.2223 19.0588C51.2203 19.2041 51.2477 19.3483 51.3028 19.4827C51.3579 19.6171 51.4395 19.7391 51.5429 19.8412C51.6462 19.9434 51.769 20.0236 51.9041 20.0772C52.828 20.4389 53.6207 21.072 54.1777 21.8932C54.7346 22.7143 55.0297 23.685 55.0241 24.6772C55.0263 25.6674 54.7297 26.6352 54.1731 27.4541C53.6164 28.273 52.8256 28.9049 51.9041 29.2672C51.7684 29.3202 51.6446 29.3997 51.5399 29.501C51.4352 29.6023 51.3517 29.7233 51.2941 29.8572C51.2372 29.9916 51.2078 30.1362 51.2078 30.2822C51.2078 30.4282 51.2372 30.5727 51.2941 30.7072C51.5568 31.3255 51.6922 31.9904 51.6922 32.6622C51.6922 33.334 51.5568 33.9989 51.2941 34.6172C50.7648 35.8133 49.7877 36.7544 48.5726 37.2386C47.3575 37.7228 46.001 37.7115 44.7941 37.2072C44.5256 37.0971 44.2252 37.0935 43.9541 37.1972ZM56.9642 37.4173L63.7442 49.1573L63.7142 49.1873C63.8992 49.4459 63.9991 49.7557 64 50.0736C64.0008 50.3916 63.9026 50.702 63.7189 50.9615C63.5352 51.2211 63.2753 51.417 62.9751 51.5219C62.675 51.6269 62.3496 51.6358 62.0442 51.5473L55.6741 50.4673L53.4642 56.5573C53.3807 56.8606 53.2085 57.1321 52.9698 57.3369C52.7311 57.5418 52.4366 57.6708 52.1242 57.7073H52.0642C51.7717 57.7011 51.4866 57.6148 51.2398 57.4579C50.993 57.301 50.7939 57.0794 50.6642 56.8173L44.1642 45.8173C44.0905 45.6955 44.0419 45.5603 44.0212 45.4196C44.0005 45.2788 44.008 45.1353 44.0434 44.9975C44.0788 44.8596 44.1413 44.7303 44.2272 44.6169C44.3132 44.5036 44.421 44.4085 44.5442 44.3373C44.7914 44.1939 45.0851 44.1534 45.3619 44.2245C45.6387 44.2956 45.8765 44.4726 46.0242 44.7173L51.9142 54.6673L54.0242 48.8673C54.1098 48.6307 54.276 48.4319 54.4936 48.3057C54.7112 48.1795 54.9663 48.134 55.2142 48.1773L61.2942 49.1773L55.1242 38.4973C55.0251 38.3767 54.9534 38.236 54.9139 38.085C54.8745 37.934 54.8682 37.7762 54.8956 37.6225C54.923 37.4689 54.9833 37.323 55.0725 37.1949C55.1617 37.0668 55.2775 36.9595 55.4122 36.8805C55.5468 36.8015 55.6969 36.7526 55.8522 36.7372C56.0075 36.7218 56.1643 36.7402 56.3118 36.7913C56.4594 36.8423 56.594 36.9246 56.7066 37.0327C56.8193 37.1408 56.9071 37.272 56.9642 37.4173ZM32.2264 44.2144C32.5032 44.1433 32.7969 44.1838 33.0442 44.3271C33.2835 44.4694 33.4593 44.6978 33.5355 44.9656C33.6117 45.2333 33.5826 45.5201 33.4541 45.7671L26.9541 56.7671C26.8219 57.0293 26.6208 57.2507 26.3724 57.4074C26.1241 57.5642 25.8378 57.6505 25.5442 57.6571H25.4142C25.1017 57.6206 24.8072 57.4917 24.5685 57.2868C24.3298 57.0819 24.1576 56.8104 24.0742 56.5071L21.8641 50.4171L15.4742 51.4971C15.171 51.5718 14.8527 51.5567 14.558 51.4537C14.2633 51.3508 14.0048 51.1643 13.8141 50.9171C13.6407 50.6508 13.5484 50.3399 13.5484 50.0221C13.5484 49.7043 13.6407 49.3934 13.8141 49.1271L20.5841 37.3971C20.6551 37.2737 20.7496 37.1654 20.8623 37.0785C20.9751 36.9916 21.1039 36.9277 21.2413 36.8906C21.3787 36.8534 21.5221 36.8437 21.6633 36.862C21.8045 36.8803 21.9407 36.9262 22.0641 36.9971C22.1876 37.068 22.2958 37.1625 22.3828 37.2753C22.4697 37.3881 22.5335 37.5168 22.5707 37.6543C22.6078 37.7917 22.6175 37.9351 22.5992 38.0763C22.581 38.2174 22.5351 38.3536 22.4641 38.4771L16.2942 49.1571L22.3741 48.1571C22.6218 48.1159 22.876 48.1622 23.0932 48.2881C23.3104 48.4141 23.4769 48.6117 23.5641 48.8471L25.6841 54.6471L31.5641 44.7071C31.7118 44.4624 31.9496 44.2854 32.2264 44.2144ZM47.4391 18.1733C47.7254 18.1733 48.0002 18.286 48.2041 18.4869C48.3063 18.5874 48.3875 18.7072 48.4429 18.8394C48.4983 18.9716 48.5268 19.1135 48.5268 19.2569C48.5268 19.4002 48.4983 19.5421 48.4429 19.6743C48.3875 19.8065 48.3063 19.9264 48.2041 20.0269L37.9841 30.2469C37.7329 30.5006 37.4338 30.7019 37.1042 30.8392C36.7747 30.9765 36.4211 31.0471 36.0641 31.0469C35.7088 31.0458 35.3571 30.9746 35.0294 30.8373C34.7016 30.7 34.4042 30.4994 34.1541 30.2469L30.4241 26.5269C30.2226 26.3213 30.1097 26.0448 30.1097 25.7569C30.1097 25.4689 30.2226 25.1925 30.4241 24.9869C30.628 24.786 30.9028 24.6733 31.1891 24.6733C31.4754 24.6733 31.7502 24.786 31.9541 24.9869L35.6841 28.7169C35.7344 28.768 35.7943 28.8086 35.8604 28.8363C35.9265 28.864 35.9975 28.8782 36.0691 28.8782C36.1408 28.8782 36.2117 28.864 36.2778 28.8363C36.3439 28.8086 36.4038 28.768 36.4541 28.7169L46.6741 18.4869C46.878 18.286 47.1528 18.1733 47.4391 18.1733Z" fill="black"/>
</svg>
