<svg width="24" height="24" viewBox="0 0 24 24" fill="none" xmlns="http://www.w3.org/2000/svg">
<path fill-rule="evenodd" clip-rule="evenodd" d="M19.17 6.10875L16.3912 3.33C16.1805 3.11896 15.8945 3.00026 15.5962 3H5.625C5.32663 3 5.04048 3.11853 4.8295 3.32951C4.61853 3.54049 4.5 3.82663 4.5 4.125V19.875C4.5 20.1734 4.61853 20.4595 4.8295 20.6705C5.04048 20.8815 5.32663 21 5.625 21H18.375C18.6734 21 18.9595 20.8815 19.1705 20.6705C19.3815 20.4595 19.5 20.1734 19.5 19.875V6.90375C19.4997 6.60548 19.381 6.31953 19.17 6.10875ZM18.75 19.875C18.75 19.9745 18.7105 20.0698 18.6402 20.1402C18.5698 20.2105 18.4745 20.25 18.375 20.25H5.625C5.52554 20.25 5.43016 20.2105 5.35983 20.1402C5.28951 20.0698 5.25 19.9745 5.25 19.875V4.125C5.25 4.02554 5.28951 3.93017 5.35983 3.85984C5.43016 3.78951 5.52554 3.75 5.625 3.75H15.5962C15.6946 3.75041 15.7889 3.78947 15.8587 3.85875L18.6413 6.64126C18.7105 6.71111 18.7496 6.80537 18.75 6.90375V19.875ZM10.1963 7.10998L8.57625 9.35998L7.76625 8.54622C7.69563 8.47561 7.59986 8.43594 7.5 8.43594C7.40014 8.43594 7.30436 8.47561 7.23375 8.54622C7.16313 8.61684 7.12347 8.71261 7.12347 8.81247C7.12347 8.91233 7.16313 9.00811 7.23375 9.07873L8.0475 9.88873C8.1875 10.0296 8.37766 10.1091 8.57625 10.11C8.67522 10.1101 8.77322 10.0905 8.86461 10.0526C8.956 10.0146 9.03898 9.95892 9.10875 9.88873C9.13789 9.86003 9.16426 9.82864 9.1875 9.79498L10.8037 7.54498C10.8516 7.46424 10.8674 7.36851 10.8481 7.27668C10.8287 7.18486 10.7757 7.10361 10.6994 7.04898C10.6231 6.99435 10.5291 6.97032 10.436 6.98161C10.3428 6.9929 10.2573 7.0387 10.1963 7.10998ZM13.125 8.25H16.125C16.2245 8.25 16.3198 8.28951 16.3902 8.35984C16.4605 8.43017 16.5 8.52554 16.5 8.625C16.5 8.72446 16.4605 8.81984 16.3902 8.89017C16.3198 8.9605 16.2245 9 16.125 9H13.125C13.0255 9 12.9302 8.9605 12.8598 8.89017C12.7895 8.81984 12.75 8.72446 12.75 8.625C12.75 8.52554 12.7895 8.43017 12.8598 8.35984C12.9302 8.28951 13.0255 8.25 13.125 8.25ZM10.1963 10.86L8.57625 13.11L7.76625 12.2962C7.69563 12.2256 7.59986 12.1859 7.5 12.1859C7.40014 12.1859 7.30436 12.2256 7.23375 12.2962C7.16313 12.3668 7.12347 12.4626 7.12347 12.5625C7.12347 12.6623 7.16313 12.7581 7.23375 12.8287L8.0475 13.6387C8.1875 13.7796 8.37766 13.8591 8.57625 13.86C8.67522 13.8601 8.77322 13.8405 8.86461 13.8026C8.956 13.7646 9.03898 13.7089 9.10875 13.6387C9.13789 13.61 9.16426 13.5786 9.1875 13.545L10.8037 11.295C10.8516 11.2142 10.8674 11.1185 10.8481 11.0267C10.8287 10.9349 10.7757 10.8536 10.6994 10.799C10.6231 10.7444 10.5291 10.7203 10.436 10.7316C10.3428 10.7429 10.2573 10.7887 10.1963 10.86ZM13.125 12H16.125C16.2245 12 16.3198 12.0395 16.3902 12.1098C16.4605 12.1802 16.5 12.2755 16.5 12.375C16.5 12.4745 16.4605 12.5698 16.3902 12.6402C16.3198 12.7105 16.2245 12.75 16.125 12.75H13.125C13.0255 12.75 12.9302 12.7105 12.8598 12.6402C12.7895 12.5698 12.75 12.4745 12.75 12.375C12.75 12.2755 12.7895 12.1802 12.8598 12.1098C12.9302 12.0395 13.0255 12 13.125 12ZM10.1963 14.61L8.57625 16.86L7.76625 16.0462C7.69563 15.9756 7.59986 15.9359 7.5 15.9359C7.40014 15.9359 7.30436 15.9756 7.23375 16.0462C7.16313 16.1168 7.12347 16.2126 7.12347 16.3125C7.12347 16.4123 7.16313 16.5081 7.23375 16.5787L8.0475 17.3887C8.1875 17.5296 8.37766 17.6091 8.57625 17.61C8.67522 17.6101 8.77322 17.5905 8.86461 17.5526C8.956 17.5146 9.03898 17.4589 9.10875 17.3887C9.13789 17.36 9.16426 17.3286 9.1875 17.295L10.8037 15.045C10.8516 14.9642 10.8674 14.8685 10.8481 14.7767C10.8287 14.6849 10.7757 14.6036 10.6994 14.549C10.6231 14.4944 10.5291 14.4703 10.436 14.4816C10.3428 14.4929 10.2573 14.5387 10.1963 14.61ZM13.125 15.75H16.125C16.2245 15.75 16.3198 15.7895 16.3902 15.8598C16.4605 15.9302 16.5 16.0255 16.5 16.125C16.5 16.2245 16.4605 16.3198 16.3902 16.3902C16.3198 16.4605 16.2245 16.5 16.125 16.5H13.125C13.0255 16.5 12.9302 16.4605 12.8598 16.3902C12.7895 16.3198 12.75 16.2245 12.75 16.125C12.75 16.0255 12.7895 15.9302 12.8598 15.8598C12.9302 15.7895 13.0255 15.75 13.125 15.75Z" fill="black"/>
</svg>
