<svg width="64" height="64" viewBox="0 0 64 64" fill="none" xmlns="http://www.w3.org/2000/svg">
<g clip-path="url(#clip0_904_1150)">
<path fill-rule="evenodd" clip-rule="evenodd" d="M47.9639 6.56478C48.1953 6.73426 48.391 6.94775 48.5398 7.19299C53.2298 14.813 64.0598 33.373 63.9998 40.933C63.8911 45.4584 62.017 49.7619 58.7779 52.9242C55.5388 56.0864 51.1915 57.8566 46.6648 57.8566C42.138 57.8566 37.7907 56.0864 34.5516 52.9242C31.3125 49.7619 29.4385 45.4584 29.3298 40.933C29.3298 33.373 40.1598 14.813 44.8098 7.19299C44.9895 6.89347 45.2403 6.64277 45.5398 6.46298C45.7846 6.3135 46.0564 6.21382 46.3398 6.16961C46.6232 6.1254 46.9126 6.13753 47.1913 6.20535C47.4699 6.27316 47.7325 6.39531 47.9639 6.56478ZM35.9753 51.6463C38.8131 54.4898 42.6625 56.0924 46.6798 56.103H46.7198C50.738 56.0898 54.5873 54.4849 57.4249 51.6398C60.2625 48.7947 61.8571 44.9412 61.8598 40.923C61.8598 33.713 50.2498 14.133 46.6998 8.31298C43.1498 14.153 31.5398 33.723 31.5398 40.933C31.5424 44.9503 33.1374 48.8028 35.9753 51.6463ZM40.6298 47.033C42.2485 48.6401 44.4387 49.5392 46.7198 49.533C46.8641 49.529 47.0078 49.5539 47.1423 49.6064C47.2768 49.6589 47.3994 49.7378 47.5029 49.8385C47.6064 49.9392 47.6886 50.0596 47.7448 50.1926C47.8009 50.3256 47.8298 50.4686 47.8298 50.613C47.822 50.903 47.702 51.1788 47.4949 51.3821C47.2879 51.5854 47.0099 51.7005 46.7198 51.703C43.8653 51.7106 41.1246 50.5849 39.0998 48.573C38.9829 48.4765 38.8875 48.3566 38.8196 48.2211C38.7516 48.0857 38.7127 47.9375 38.7052 47.7861C38.6978 47.6347 38.722 47.4835 38.7763 47.342C38.8306 47.2005 38.9138 47.0719 39.0207 46.9643C39.1275 46.8568 39.2556 46.7728 39.3967 46.7175C39.5378 46.6623 39.6889 46.6371 39.8404 46.6436C39.9918 46.65 40.1402 46.688 40.2761 46.755C40.4121 46.8221 40.5325 46.9167 40.6298 47.033Z" fill="black"/>
</g>
<defs>
<clipPath id="clip0_904_1150">
<rect width="64" height="64" fill="white"/>
</clipPath>
</defs>
</svg>
