<svg width="24" height="24" viewBox="0 0 24 24" fill="none" xmlns="http://www.w3.org/2000/svg">
<path fill-rule="evenodd" clip-rule="evenodd" d="M6.88873 2.85383C8.69767 1.64514 10.8244 1 13 1C15.9174 1 18.7153 2.15893 20.7782 4.22182C22.8411 6.28472 24 9.08262 24 12C24 14.1756 23.3549 16.3023 22.1462 18.1113C20.9375 19.9202 19.2195 21.3301 17.2095 22.1627C15.1995 22.9952 12.9878 23.2131 10.854 22.7886C8.72022 22.3642 6.76021 21.3165 5.22183 19.7782C3.68345 18.2398 2.6358 16.2798 2.21137 14.146C1.78693 12.0122 2.00477 9.80047 2.83733 7.79048C3.66989 5.78049 5.07979 4.06253 6.88873 2.85383ZM7.39719 20.3852C9.05563 21.4933 11.0054 22.0848 13 22.0848C15.6739 22.0825 18.2377 21.0192 20.1285 19.1285C22.0192 17.2377 23.0825 14.6739 23.0848 12C23.0848 10.0054 22.4933 8.05562 21.3852 6.39718C20.2771 4.73875 18.702 3.44615 16.8593 2.68286C15.0165 1.91956 12.9888 1.71985 11.0326 2.10898C9.0763 2.4981 7.27936 3.45858 5.86897 4.86897C4.45859 6.27935 3.49811 8.07629 3.10898 10.0326C2.71986 11.9888 2.91957 14.0165 3.68286 15.8593C4.44616 17.702 5.73875 19.2771 7.39719 20.3852ZM12.2828 15.08L18.1304 7.16004C18.2039 7.0591 18.3145 6.99149 18.4379 6.9721C18.5612 6.95271 18.6873 6.98312 18.7882 7.05664C18.8891 7.13016 18.9567 7.24076 18.9761 7.36412C18.9955 7.48748 18.9651 7.6135 18.8916 7.71444L13.044 15.6344C12.9329 15.7845 12.7926 15.9106 12.6316 16.0051C12.4705 16.0996 12.292 16.1606 12.1068 16.1844H11.9352C11.6163 16.1882 11.3057 16.0826 11.0552 15.8852L7.214 12.8052C7.16453 12.7691 7.12314 12.7231 7.09247 12.6701C7.0618 12.6171 7.04254 12.5583 7.03591 12.4974C7.02929 12.4365 7.03544 12.3749 7.05399 12.3165C7.07253 12.2582 7.10305 12.2043 7.1436 12.1584C7.1797 12.1096 7.2255 12.0688 7.27813 12.0386C7.33076 12.0084 7.38907 11.9893 7.44941 11.9827C7.50974 11.9761 7.57079 11.9821 7.62872 12.0002C7.68665 12.0183 7.7402 12.0482 7.786 12.088L11.6272 15.168C11.7249 15.2432 11.8478 15.2779 11.9704 15.2648C12.0321 15.2562 12.0915 15.2355 12.1451 15.2038C12.1988 15.172 12.2456 15.13 12.2828 15.08Z" fill="black"/>
</svg>
