<svg width="24" height="24" viewBox="0 0 24 24" fill="none" xmlns="http://www.w3.org/2000/svg">
<path fill-rule="evenodd" clip-rule="evenodd" d="M15.3705 13.1717C14.7044 13.1717 14.1861 12.8996 13.783 12.4749L13.1955 12.7705C12.8877 12.9343 12.6059 13.1428 12.3592 13.3893C12.2037 13.5515 11.9913 13.647 11.7667 13.6555L11.7367 13.6443C11.518 13.6446 11.3075 13.5614 11.148 13.4118C11.065 13.3356 10.9981 13.2436 10.9511 13.1412C10.9041 13.0388 10.8779 12.9281 10.8742 12.8155C10.8088 12.1778 10.9493 11.5359 11.2753 10.9838C11.5858 10.4578 12.0492 10.0398 12.6027 9.78468C12.3764 8.64908 12.3705 7.64272 12.3705 7.54671C12.3705 4.72296 15.0855 3.33171 15.2017 3.27546C15.2541 3.24909 15.3119 3.23535 15.3705 3.23535C15.4291 3.23535 15.4869 3.24909 15.5392 3.27546C15.6517 3.33171 18.3705 4.72296 18.3705 7.54671C18.3705 8.17318 18.3056 8.97915 18.1384 9.78417C18.6939 10.0405 19.1584 10.461 19.4688 10.99C19.7958 11.5474 19.9341 12.1956 19.863 12.838C19.8495 13.0564 19.7513 13.2609 19.5892 13.408C19.4303 13.559 19.2197 13.6435 19.0005 13.6442H18.9705C18.7406 13.6344 18.5238 13.5348 18.3667 13.3667C18.1202 13.1239 17.8398 12.918 17.5342 12.7555L16.9452 12.4609C16.535 12.8982 16.0177 13.1717 15.3705 13.1717ZM17.3959 11.85L17.8792 12.0917C18.2567 12.29 18.6029 12.5427 18.9067 12.8417C18.9172 12.856 18.9307 12.8677 18.9463 12.8762C18.9618 12.8846 18.9791 12.8895 18.9967 12.8905C19.0265 12.8885 19.0551 12.8781 19.0792 12.8605C19.0899 12.8503 19.0984 12.8381 19.1042 12.8246C19.11 12.811 19.113 12.7964 19.113 12.7817C19.1731 12.2965 19.0734 11.8049 18.8292 11.3813C18.6207 11.0199 18.3167 10.7248 17.9523 10.5273C17.811 11.0021 17.6283 11.4563 17.3959 11.85ZM12.7827 10.5322C12.9172 11.0007 13.0956 11.4627 13.3321 11.8659L12.8505 12.1068C12.4713 12.304 12.1237 12.5568 11.8192 12.8568C11.8097 12.8685 11.7977 12.8779 11.7841 12.8844C11.7705 12.8909 11.7556 12.8943 11.7405 12.8943C11.7228 12.8952 11.7052 12.892 11.6889 12.8851C11.6726 12.8782 11.6581 12.8676 11.6466 12.8542C11.635 12.8408 11.6266 12.825 11.6221 12.8079C11.6176 12.7908 11.617 12.7729 11.6205 12.7555C11.5675 12.2746 11.671 11.7895 11.9155 11.372C12.1234 11.0172 12.4237 10.7273 12.7827 10.5322ZM15.3705 4.04045C14.823 4.3742 13.1205 5.56296 13.1205 7.54671C13.1205 8.90421 13.5255 12.4217 15.3705 12.4217C17.2155 12.4217 17.6205 8.81046 17.6205 7.54671C17.6205 5.56296 15.918 4.3742 15.3705 4.04045ZM6.7371 16.5466C6.73556 16.5575 6.73451 16.5685 6.73395 16.5795C6.73218 16.6053 6.73306 16.6312 6.73663 16.6569C6.7387 16.6718 6.74166 16.6865 6.74548 16.701V20.0155C6.74548 20.1149 6.78499 20.2103 6.85531 20.2806C6.92564 20.351 7.02102 20.3905 7.12048 20.3905C7.21994 20.3905 7.31532 20.351 7.38565 20.2806C7.45597 20.2103 7.49548 20.1149 7.49548 20.0155V17.0993L14.9955 19.1448V20.3905C14.9955 20.4899 15.035 20.5853 15.1053 20.6556C15.1756 20.726 15.271 20.7655 15.3705 20.7655C15.4699 20.7655 15.5653 20.726 15.6356 20.6556C15.706 20.5853 15.7455 20.4899 15.7455 20.3905V19.1305L23.2455 17.0851V20.0155C23.2455 20.1149 23.285 20.2103 23.3553 20.2806C23.4256 20.351 23.521 20.3905 23.6205 20.3905C23.7199 20.3905 23.8153 20.351 23.8856 20.2806C23.956 20.2103 23.9955 20.1149 23.9955 20.0155V16.6892C23.9955 16.6831 23.9953 16.677 23.995 16.6709C24.0012 16.6336 24.0016 16.5954 23.9964 16.5578C23.9895 16.509 23.973 16.4619 23.948 16.4194C23.9229 16.3769 23.8896 16.3398 23.8502 16.3102C23.8439 16.3054 23.8375 16.3009 23.8309 16.2966C23.8193 16.288 23.8071 16.28 23.7944 16.2728C23.7437 16.2436 23.6873 16.2271 23.6299 16.2237L19.593 15.1667C19.5444 15.1507 19.493 15.1447 19.442 15.1492C19.3911 15.1537 19.3416 15.1686 19.2966 15.193C19.2515 15.2174 19.212 15.2507 19.1804 15.2909C19.1487 15.3312 19.1257 15.3775 19.1126 15.4269C19.0995 15.4764 19.0967 15.5281 19.1043 15.5787C19.112 15.6293 19.1299 15.6778 19.157 15.7212C19.1841 15.7646 19.2197 15.8021 19.2618 15.8312C19.3039 15.8603 19.3515 15.8805 19.4017 15.8905L22.1442 16.6085L15.3443 18.463L8.54536 16.6087L11.3317 15.8792C11.3819 15.8692 11.4295 15.849 11.4716 15.8199C11.5137 15.7908 11.5494 15.7534 11.5765 15.7099C11.6036 15.6665 11.6215 15.618 11.6291 15.5674C11.6367 15.5168 11.6339 15.4652 11.6209 15.4157C11.6078 15.3662 11.5847 15.3199 11.5531 15.2797C11.5214 15.2395 11.4819 15.2061 11.4369 15.1817C11.3919 15.1574 11.3424 15.1425 11.2914 15.1379C11.2404 15.1334 11.1891 15.1394 11.1405 15.1555L7.01548 16.2355C6.96767 16.2477 6.92274 16.2693 6.88327 16.2989C6.84381 16.3285 6.81058 16.3657 6.7855 16.4082C6.76041 16.4507 6.74397 16.4977 6.7371 16.5466ZM14.5882 8.62408C14.8199 8.77815 15.0922 8.85999 15.3705 8.85924C15.7428 8.85825 16.0995 8.70966 16.3624 8.44604C16.6253 8.18243 16.773 7.82531 16.773 7.45299C16.773 7.1747 16.6904 6.90268 16.5357 6.67134C16.381 6.44 16.1612 6.25976 15.904 6.15344C15.6468 6.04711 15.3639 6.01948 15.091 6.07405C14.8181 6.12862 14.5675 6.26292 14.371 6.45997C14.1745 6.65701 14.0409 6.90792 13.987 7.18096C13.9332 7.45399 13.9616 7.73686 14.0686 7.99375C14.1756 8.25064 14.3564 8.47001 14.5882 8.62408ZM15.0045 6.90954C15.113 6.83771 15.2404 6.79976 15.3705 6.8005C15.5432 6.80148 15.7086 6.87055 15.8308 6.9927C15.9529 7.11486 16.022 7.28024 16.023 7.45299C16.0237 7.5831 15.9858 7.71051 15.9139 7.819C15.8421 7.92749 15.7397 8.01218 15.6196 8.06231C15.4995 8.11245 15.3673 8.12576 15.2396 8.10056C15.112 8.07536 14.9947 8.01277 14.9027 7.92077C14.8107 7.82877 14.7481 7.71149 14.7229 7.58385C14.6977 7.4562 14.711 7.32395 14.7612 7.20388C14.8113 7.08381 14.896 6.98136 15.0045 6.90954ZM13.9455 15.0055C13.9455 15.613 14.4367 17.3643 15.3705 17.3643C16.3042 17.3643 16.7955 15.613 16.7955 15.0055C16.7955 14.6276 16.6454 14.2652 16.3781 13.9979C16.1109 13.7307 15.7484 13.5805 15.3705 13.5805C14.9926 13.5805 14.6301 13.7307 14.3629 13.9979C14.0956 14.2652 13.9455 14.6276 13.9455 15.0055ZM14.8943 14.5293C15.0207 14.403 15.1918 14.3315 15.3705 14.3305C15.5492 14.3315 15.7203 14.403 15.8467 14.5293C15.9731 14.6557 16.0445 14.8268 16.0455 15.0055C16.0455 15.583 15.5917 16.5805 15.3705 16.6143C15.1492 16.5805 14.6955 15.583 14.6955 15.0055C14.6965 14.8268 14.7679 14.6557 14.8943 14.5293Z" fill="black"/>
</svg>
