<svg width="64" height="64" viewBox="0 0 64 64" fill="none" xmlns="http://www.w3.org/2000/svg">
<g clip-path="url(#clip0_904_1138)">
<path fill-rule="evenodd" clip-rule="evenodd" d="M34.1137 10.0221C33.9112 10.2247 33.6365 10.3384 33.3501 10.3384C33.2035 10.3385 33.0584 10.3091 32.9235 10.2518C32.7886 10.1945 32.6666 10.1107 32.5648 10.0052C32.4631 9.8997 32.3836 9.77474 32.3313 9.63785C32.2789 9.50095 32.2547 9.35491 32.2601 9.20844V7.03845C32.286 6.76866 32.4115 6.51819 32.6121 6.33594C32.8127 6.15369 33.074 6.05273 33.3451 6.05273C33.6161 6.05273 33.8774 6.15369 34.078 6.33594C34.2786 6.51819 34.4042 6.76866 34.4301 7.03845V9.25845C34.4301 9.54489 34.3163 9.81959 34.1137 10.0221ZM20.9382 14.4421C20.7614 14.5614 20.5534 14.6262 20.3401 14.6284C20.0546 14.6254 19.7817 14.5105 19.58 14.3084L17.41 12.1384C17.2091 11.9344 17.0965 11.6597 17.0965 11.3734C17.0965 11.0871 17.2091 10.8123 17.41 10.6084C17.6157 10.4068 17.8921 10.2939 18.1801 10.2939C18.468 10.2939 18.7444 10.4068 18.95 10.6084L21.11 12.7784C21.2588 12.9313 21.3594 13.1245 21.3994 13.3341C21.4394 13.5436 21.4171 13.7603 21.3351 13.9573C21.2531 14.1542 21.1151 14.3228 20.9382 14.4421ZM46.35 14.618C46.4922 14.6218 46.6335 14.5952 46.7646 14.54C46.8956 14.4848 47.0134 14.4023 47.11 14.298L49.28 12.138C49.481 11.9341 49.5936 11.6593 49.5936 11.373C49.5936 11.0867 49.481 10.8119 49.28 10.608C49.1804 10.5061 49.0614 10.4251 48.93 10.3699C48.7987 10.3146 48.6576 10.2861 48.515 10.2861C48.3725 10.2861 48.2314 10.3146 48.1001 10.3699C47.9687 10.4251 47.8497 10.5061 47.75 10.608L45.58 12.768C45.3791 12.9719 45.2665 13.2467 45.2665 13.533C45.2665 13.8193 45.3791 14.0941 45.58 14.298C45.6797 14.4011 45.7995 14.4827 45.9319 14.5377C46.0643 14.5928 46.2066 14.6201 46.35 14.618ZM13.8501 25.458H16.0101C16.2965 25.458 16.5712 25.5718 16.7737 25.7743C16.9763 25.9769 17.0901 26.2516 17.0901 26.538C17.0901 26.8245 16.9763 27.0992 16.7737 27.3017C16.5712 27.5042 16.2965 27.618 16.0101 27.618H13.8501C13.5636 27.618 13.2889 27.5042 13.0864 27.3017C12.8839 27.0992 12.7701 26.8245 12.7701 26.538C12.7701 26.2516 12.8839 25.9769 13.0864 25.7743C13.2889 25.5718 13.5636 25.458 13.8501 25.458ZM20.05 31.1377C20.1218 31.3473 20.2562 31.5297 20.4351 31.6603C20.6139 31.7908 20.8286 31.8633 21.05 31.8677C21.1725 31.8674 21.2941 31.8471 21.41 31.8077C21.5453 31.7607 21.6698 31.6873 21.7764 31.5917C21.883 31.4961 21.9696 31.3802 22.031 31.2509C22.0924 31.1215 22.1275 30.9813 22.1342 30.8382C22.1409 30.6952 22.1191 30.5523 22.07 30.4177C21.6312 29.1713 21.408 27.8592 21.41 26.5378C21.4137 24.122 22.1514 21.7643 23.5252 19.7772C24.899 17.79 26.8442 16.2673 29.103 15.4106C31.3618 14.5539 33.8276 14.4038 36.1737 14.9801C38.5197 15.5564 40.6353 16.832 42.2401 18.6377C42.3343 18.7445 42.4488 18.8316 42.5769 18.894C42.705 18.9564 42.8441 18.9928 42.9863 19.0012C43.1285 19.0095 43.271 18.9897 43.4055 18.9428C43.54 18.8958 43.6639 18.8228 43.7701 18.7278C43.9811 18.5345 44.1086 18.2667 44.1254 17.981C44.1422 17.6953 44.047 17.4144 43.86 17.1977C41.9629 15.0639 39.4622 13.5567 36.6892 12.876C33.9163 12.1953 31.0019 12.3731 28.3323 13.3859C25.6627 14.3986 23.3637 16.1986 21.74 18.5472C20.1163 20.8959 19.2445 23.6825 19.2401 26.5378C19.2479 28.1059 19.5218 29.6613 20.05 31.1377ZM54.1001 26.568L63.7301 43.898C64.0069 44.4012 64.0739 44.9934 63.9167 45.5458C63.7594 46.0981 63.3905 46.5661 62.8901 46.848C62.5692 47.0271 62.2075 47.1201 61.8401 47.118H45.2601V56.868C45.2601 57.1545 45.1463 57.4292 44.9438 57.6317C44.7412 57.8342 44.4665 57.948 44.1801 57.948C43.8937 57.948 43.619 57.8342 43.4164 57.6317C43.2139 57.4292 43.1001 57.1545 43.1001 56.868V47.118H38.7601V56.868C38.7601 57.1545 38.6463 57.4292 38.4438 57.6317C38.2412 57.8342 37.9665 57.948 37.6801 57.948C37.3937 57.948 37.119 57.8342 36.9164 57.6317C36.7139 57.4292 36.6001 57.1545 36.6001 56.868V47.118H20.0201C19.4472 47.118 18.8978 46.8904 18.4927 46.4854C18.0877 46.0803 17.8601 45.5309 17.8601 44.958C17.858 44.5906 17.951 44.2289 18.1301 43.908L27.7601 26.568C27.9474 26.2312 28.2215 25.9507 28.5538 25.7555C28.8862 25.5603 29.2647 25.4576 29.6501 25.458H52.2101C52.5957 25.4565 52.9746 25.5588 53.3071 25.7541C53.6397 25.9494 53.9135 26.2305 54.1001 26.568ZM34.6101 40.618L33.6101 44.958H48.3101L47.3101 40.618H34.6101ZM36.0601 34.118L35.0601 38.458H46.8801L45.8801 34.118H36.0601ZM33.8201 34.118H26.0601L23.6101 38.458H32.8201L33.8201 34.118ZM45.4101 31.958L44.4101 27.618H37.5001L36.5001 31.958H45.4101ZM55.8401 34.118H48.0801L49.0401 38.458H58.2501L55.8401 34.118ZM47.6401 31.958H54.6401L52.2001 27.618H46.6401L47.6401 31.958ZM35.2401 27.618H29.6401L27.2401 31.958H34.2401L35.2401 27.618ZM32.3501 40.618H22.4201L20.0201 44.958H31.3501L32.3501 40.618ZM49.4201 40.618L50.4201 44.958H61.7601L59.3501 40.618H49.4201Z" fill="black"/>
</g>
<defs>
<clipPath id="clip0_904_1138">
<rect width="64" height="64" fill="white"/>
</clipPath>
</defs>
</svg>
