<svg width="64" height="64" viewBox="0 0 64 64" fill="none" xmlns="http://www.w3.org/2000/svg">
<path d="M47.4361 37.3048C47.8264 35.5685 48.0243 33.7945 48.0261 32.0148C48.0269 25.8148 45.6214 19.8564 41.3161 15.3948L41.1961 15.2648C38.6858 12.6864 35.6278 10.7055 32.2484 9.46877C28.8691 8.232 25.2548 7.77102 21.6732 8.1199C18.0916 8.46878 14.6343 9.61859 11.5571 11.4843C8.47997 13.35 5.86175 15.8838 3.89623 18.8981C1.9307 21.9125 0.668194 25.3303 0.202135 28.8985C-0.263924 32.4668 0.0783998 36.0942 1.20377 39.5123C2.32914 42.9303 4.20875 46.0516 6.70349 48.645C9.19823 51.2385 12.2442 53.2378 15.6161 54.4948H15.6761C18.8739 55.6809 22.2878 56.1717 25.6902 55.9346C29.0926 55.6975 32.4055 54.738 35.4079 53.1199C38.4103 51.5019 41.0334 49.2624 43.1023 46.5509C45.1712 43.8393 46.6384 40.718 47.4061 37.3948C47.4201 37.3663 47.4302 37.3361 47.4361 37.3048ZM45.6561 36.0748H44.2461C43.421 36.076 42.6084 35.873 41.8808 35.4839C41.1532 35.0948 40.5332 34.5317 40.0761 33.8448L35.6461 27.1848C35.0076 26.226 34.1423 25.4397 33.1271 24.8954C32.1119 24.3512 30.978 24.0658 29.8261 24.0648H28.9461C28.0178 24.0648 27.1276 23.6961 26.4712 23.0397C25.8148 22.3833 25.4461 21.4931 25.4461 20.5648C25.4461 19.6366 25.8148 18.7463 26.4712 18.09C27.1276 17.4336 28.0178 17.0648 28.9461 17.0648H40.1161C42.4677 19.5741 44.1962 22.6012 45.162 25.9017C46.1279 29.2023 46.304 32.6837 45.6761 36.0648L45.6561 36.0748ZM2.02609 32.0748C2.03057 31.0713 2.10071 30.0692 2.23609 29.0748H13.5461C14.2026 29.073 14.853 29.202 15.4591 29.4544C16.0652 29.7068 16.6149 30.0775 17.0761 30.5448L19.3161 32.7848C20.2184 33.6869 20.7417 34.8998 20.7789 36.1751C20.8161 37.4504 20.3643 38.6917 19.5161 39.6448L16.7961 42.7048C15.6565 43.9858 15.0267 45.6404 15.0261 47.3548V52.0748C11.1563 50.3399 7.87034 47.5234 5.56394 43.9645C3.25753 40.4055 2.02896 36.2558 2.02609 32.0148V32.0748ZM24.0261 54.0748C21.6458 54.0745 19.2814 53.686 17.0261 52.9248V47.3448C17.0257 46.1213 17.474 44.9401 18.2861 44.0248L21.0161 40.9648C22.2024 39.6307 22.8342 37.8937 22.7821 36.1092C22.7301 34.3247 21.9981 32.6275 20.7361 31.3648L18.4961 29.0748C17.846 28.4248 17.0743 27.9092 16.225 27.5575C15.3757 27.2057 14.4654 27.0248 13.5461 27.0248H2.6061C3.45768 23.3857 5.22234 20.0235 7.73358 17.2555C10.2448 14.4874 13.4199 12.4047 16.9592 11.2039C20.4985 10.0032 24.2853 9.72385 27.9625 10.3924C31.6397 11.0609 35.0859 12.6552 37.9761 15.0248H28.9761C27.5174 15.0248 26.1185 15.6043 25.087 16.6357C24.0556 17.6672 23.4761 19.0661 23.4761 20.5248C23.4761 21.9835 24.0556 23.3825 25.087 24.4139C26.1185 25.4454 27.5174 26.0248 28.9761 26.0248H29.8561C30.6778 26.0269 31.4864 26.2315 32.2102 26.6204C32.934 27.0094 33.5509 27.5707 34.0061 28.2548L38.4461 34.9148C39.0855 35.875 39.9524 36.6623 40.9695 37.2066C41.9866 37.7509 43.1225 38.0354 44.2761 38.0348H45.2161C43.9163 42.6533 41.1423 46.7203 37.3168 49.6161C33.4913 52.5118 28.824 54.0776 24.0261 54.0748Z" fill="black"/>
</svg>
