<svg width="64" height="64" viewBox="0 0 64 64" fill="none" xmlns="http://www.w3.org/2000/svg">
<path fill-rule="evenodd" clip-rule="evenodd" d="M22.3889 6.44442C22.3889 5.98418 22.0158 5.61108 21.5555 5.61108C21.0953 5.61108 20.7222 5.98418 20.7222 6.44442V10.0556H12.6667C10.9791 10.0556 9.61111 11.4236 9.61111 13.1111V22.0001V55.3334C9.61111 57.0209 10.9791 58.3889 12.6667 58.3889H59.3333C61.0209 58.3889 62.3889 57.0209 62.3889 55.3334V22.0001V13.1111C62.3889 11.4236 61.0209 10.0556 59.3333 10.0556H51.2778V6.44442C51.2778 5.98418 50.9047 5.61108 50.4444 5.61108C49.9842 5.61108 49.6111 5.98418 49.6111 6.44442V10.0556H22.3889V6.44442ZM60.7222 21.1667V13.1111C60.7222 12.3441 60.1004 11.7222 59.3333 11.7222H51.2778V17.5555C51.2778 18.0158 50.9047 18.3889 50.4444 18.3889C49.9842 18.3889 49.6111 18.0158 49.6111 17.5555V11.7222H22.3889V17.5555C22.3889 18.0158 22.0158 18.3889 21.5555 18.3889C21.0953 18.3889 20.7222 18.0158 20.7222 17.5555V11.7222H12.6667C11.8996 11.7222 11.2778 12.3441 11.2778 13.1111V21.1667H60.7222ZM11.2778 22.8334H60.7222V55.3334C60.7222 56.1004 60.1004 56.7222 59.3333 56.7222H12.6667C11.8996 56.7222 11.2778 56.1004 11.2778 55.3334V22.8334Z" fill="black"/>
</svg>
