<svg width="64" height="64" viewBox="0 0 64 64" fill="none" xmlns="http://www.w3.org/2000/svg">
<path fill-rule="evenodd" clip-rule="evenodd" d="M18.1108 11.2133C22.222 8.46622 27.0555 7 32 7C38.6304 7 44.9893 9.63392 49.6777 14.3223C54.3661 19.0107 57 25.3696 57 32C57 36.9445 55.5338 41.778 52.7868 45.8893C50.0397 50.0005 46.1353 53.2048 41.5671 55.097C36.9989 56.9892 31.9723 57.4843 27.1228 56.5196C22.2732 55.555 17.8187 53.174 14.3223 49.6777C10.826 46.1814 8.44501 41.7268 7.48038 36.8773C6.51575 32.0277 7.01083 27.0011 8.90302 22.4329C10.7952 17.8648 13.9995 13.9603 18.1108 11.2133ZM19.2663 51.0573C23.0355 53.5758 27.4669 54.92 32 54.92C38.0771 54.9147 43.9039 52.4982 48.201 48.201C52.4982 43.9039 54.9147 38.0771 54.92 32C54.92 27.4669 53.5758 23.0355 51.0573 19.2663C48.5388 15.4972 44.9592 12.5594 40.7711 10.8247C36.583 9.08992 31.9746 8.63603 27.5285 9.5204C23.0825 10.4048 18.9985 12.5877 15.7931 15.7931C12.5877 18.9985 10.4048 23.0825 9.52041 27.5285C8.63604 31.9746 9.08993 36.583 10.8247 40.7711C12.5595 44.9592 15.4972 48.5388 19.2663 51.0573ZM30.37 38.9997L43.66 20.9997C43.8271 20.7703 44.0785 20.6166 44.3588 20.5726C44.6392 20.5285 44.9256 20.5976 45.155 20.7647C45.3844 20.9318 45.5381 21.1831 45.5821 21.4635C45.6262 21.7439 45.5571 22.0303 45.39 22.2597L32.1 40.2597C31.8475 40.6008 31.5286 40.8873 31.1626 41.1021C30.7966 41.3169 30.3909 41.4556 29.97 41.5097H29.58C28.8552 41.5183 28.1493 41.2783 27.58 40.8297L18.85 33.8297C18.7376 33.7476 18.6435 33.643 18.5738 33.5226C18.5041 33.4021 18.4603 33.2684 18.4453 33.13C18.4302 32.9917 18.4442 32.8517 18.4863 32.719C18.5285 32.5864 18.5979 32.464 18.69 32.3597C18.7721 32.2488 18.8761 32.1561 18.9958 32.0873C19.1154 32.0186 19.2479 31.9754 19.385 31.9603C19.5221 31.9453 19.6609 31.9588 19.7925 32C19.9242 32.0412 20.0459 32.1092 20.15 32.1997L28.88 39.1997C29.1021 39.3705 29.3814 39.4493 29.66 39.4197C29.8003 39.4001 29.9352 39.353 30.0571 39.2809C30.179 39.2088 30.2853 39.1132 30.37 38.9997Z" fill="black"/>
</svg>
