<svg width="64" height="64" viewBox="0 0 64 64" fill="none" xmlns="http://www.w3.org/2000/svg">
<path fill-rule="evenodd" clip-rule="evenodd" d="M18.3889 6.44442C18.3889 5.98418 18.0158 5.61108 17.5555 5.61108C17.0953 5.61108 16.7222 5.98418 16.7222 6.44442V10.0556H8.66667C6.97913 10.0556 5.61111 11.4236 5.61111 13.1111V22.0001V55.3334C5.61111 57.0209 6.97913 58.3889 8.66667 58.3889H55.3333C57.0209 58.3889 58.3889 57.0209 58.3889 55.3334V22.0001V13.1111C58.3889 11.4236 57.0209 10.0556 55.3333 10.0556H47.2778V6.44442C47.2778 5.98418 46.9047 5.61108 46.4444 5.61108C45.9842 5.61108 45.6111 5.98418 45.6111 6.44442V10.0556H18.3889V6.44442ZM56.7222 21.1667V13.1111C56.7222 12.3441 56.1004 11.7222 55.3333 11.7222H47.2778V17.5555C47.2778 18.0158 46.9047 18.3889 46.4444 18.3889C45.9842 18.3889 45.6111 18.0158 45.6111 17.5555V11.7222H18.3889V17.5555C18.3889 18.0158 18.0158 18.3889 17.5555 18.3889C17.0953 18.3889 16.7222 18.0158 16.7222 17.5555V11.7222H8.66667C7.89961 11.7222 7.27778 12.3441 7.27778 13.1111V21.1667H56.7222ZM7.27778 22.8334H56.7222V55.3334C56.7222 56.1004 56.1004 56.7222 55.3333 56.7222H8.66667C7.89961 56.7222 7.27778 56.1004 7.27778 55.3334V22.8334Z" fill="black"/>
</svg>
