<svg width="64" height="64" viewBox="0 0 64 64" fill="none" xmlns="http://www.w3.org/2000/svg">
<path d="M55.784 54.3644L44.594 43.1744C48.296 39.1017 50.2583 33.7426 50.0616 28.2423C49.865 22.7421 47.525 17.5368 43.5416 13.7389C39.5582 9.94091 34.2474 7.85146 28.744 7.91702C23.2406 7.98259 17.9811 10.198 14.0893 14.0897C10.1975 17.9815 7.98216 23.241 7.9166 28.7444C7.85103 34.2478 9.94047 39.5586 13.7384 43.542C17.5364 47.5254 22.7416 49.8654 28.2419 50.0621C33.7422 50.2587 39.1013 48.2964 43.174 44.5944L54.364 55.7944C54.4574 55.8871 54.5682 55.9604 54.6901 56.0102C54.8119 56.06 54.9424 56.0852 55.074 56.0844C55.2056 56.0852 55.3361 56.06 55.4579 56.0102C55.5797 55.9604 55.6905 55.8871 55.784 55.7944C55.8792 55.7013 55.9549 55.5901 56.0066 55.4673C56.0582 55.3445 56.0849 55.2127 56.0849 55.0794C56.0849 54.9462 56.0582 54.8143 56.0066 54.6916C55.9549 54.5688 55.8792 54.4576 55.784 54.3644V54.3644ZM10.074 29.0744C10.074 25.3166 11.1883 21.6431 13.2761 18.5186C15.3638 15.3941 18.3312 12.9588 21.803 11.5207C25.2748 10.0827 29.0951 9.7064 32.7807 10.4395C36.4663 11.1726 39.8518 12.9822 42.509 15.6394C45.1662 18.2966 46.9758 21.6821 47.7089 25.3677C48.442 29.0533 48.0658 32.8736 46.6277 36.3454C45.1896 39.8172 42.7544 42.7846 39.6298 44.8723C36.5053 46.9601 32.8318 48.0744 29.074 48.0744C24.0349 48.0744 19.2022 46.0727 15.639 42.5095C12.0758 38.9463 10.074 34.1135 10.074 29.0744V29.0744Z" fill="black"/>
</svg>
