<svg width="24" height="24" viewBox="0 0 24 24" fill="none" xmlns="http://www.w3.org/2000/svg">
<path fill-rule="evenodd" clip-rule="evenodd" d="M17.25 20.25H17.625C17.7245 20.25 17.8198 20.2895 17.8902 20.3598C17.9605 20.4302 18 20.5255 18 20.625C18 20.7245 17.9605 20.8198 17.8902 20.8902C17.8198 20.9605 17.7245 21 17.625 21H0.375C0.275544 21 0.180155 20.9605 0.109829 20.8902C0.0395028 20.8198 0 20.7245 0 20.625C0 20.5255 0.0395028 20.4302 0.109829 20.3598C0.180155 20.2895 0.275544 20.25 0.375 20.25H0.75V13.5C0.75 13.3011 0.829017 13.1103 0.969669 12.9697C1.11032 12.829 1.30109 12.75 1.5 12.75H3V12.375C3 12.2755 3.0395 12.1802 3.10983 12.1098C3.18016 12.0395 3.27554 12 3.375 12C3.47446 12 3.56983 12.0395 3.64016 12.1098C3.71049 12.1802 3.75 12.2755 3.75 12.375V12.75C3.94891 12.75 4.13968 12.829 4.28033 12.9697C4.42098 13.1103 4.5 13.3011 4.5 13.5V20.25H5.25V7.125C5.25 6.82663 5.36852 6.54049 5.5795 6.32951C5.79048 6.11853 6.07663 6 6.375 6H7.5V5.25C7.5 5.05109 7.57902 4.86032 7.71967 4.71967C7.86032 4.57902 8.05109 4.5 8.25 4.5H9V3.375C9 3.27554 9.0395 3.18017 9.10983 3.10984C9.18015 3.03951 9.27554 3 9.375 3C9.47446 3 9.56983 3.03951 9.64016 3.10984C9.71049 3.18017 9.75 3.27554 9.75 3.375V4.5C9.94891 4.5 10.1397 4.57902 10.2803 4.71967C10.421 4.86032 10.5 5.05109 10.5 5.25V6H11.625C11.9234 6 12.2095 6.11853 12.4205 6.32951C12.6315 6.54049 12.75 6.82663 12.75 7.125V20.25H13.5V13.5C13.5 13.3011 13.579 13.1103 13.7197 12.9697C13.8603 12.829 14.0511 12.75 14.25 12.75V12.375C14.25 12.2755 14.2895 12.1802 14.3598 12.1098C14.4302 12.0395 14.5255 12 14.625 12C14.7245 12 14.8198 12.0395 14.8902 12.1098C14.9605 12.1802 15 12.2755 15 12.375V12.75H16.5C16.6989 12.75 16.8897 12.829 17.0303 12.9697C17.171 13.1103 17.25 13.3011 17.25 13.5V20.25ZM16.5 13.5H14.25V20.25H16.5V13.5ZM9.75 6V5.25H8.25V6H9.75ZM6.10983 6.85984C6.0395 6.93017 6 7.02554 6 7.125V20.25H12V7.125C12 7.02554 11.9605 6.93017 11.8902 6.85984C11.8198 6.78951 11.7245 6.75 11.625 6.75H6.375C6.27554 6.75 6.18016 6.78951 6.10983 6.85984ZM3.75 13.5H1.5V20.25H3.75V13.5ZM6.85983 8.35984C6.93016 8.28951 7.02554 8.25 7.125 8.25H10.875C10.9745 8.25 11.0698 8.28951 11.1402 8.35984C11.2105 8.43017 11.25 8.52554 11.25 8.625C11.25 8.72446 11.2105 8.81984 11.1402 8.89017C11.0698 8.9605 10.9745 9 10.875 9H7.125C7.02554 9 6.93016 8.9605 6.85983 8.89017C6.7895 8.81984 6.75 8.72446 6.75 8.625C6.75 8.52554 6.7895 8.43017 6.85983 8.35984ZM7.125 10.5C7.02554 10.5 6.93016 10.5395 6.85983 10.6098C6.7895 10.6802 6.75 10.7755 6.75 10.875C6.75 10.9745 6.7895 11.0698 6.85983 11.1402C6.93016 11.2105 7.02554 11.25 7.125 11.25H10.875C10.9745 11.25 11.0698 11.2105 11.1402 11.1402C11.2105 11.0698 11.25 10.9745 11.25 10.875C11.25 10.7755 11.2105 10.6802 11.1402 10.6098C11.0698 10.5395 10.9745 10.5 10.875 10.5H7.125ZM6.85983 12.8598C6.93016 12.7895 7.02554 12.75 7.125 12.75H10.875C10.9745 12.75 11.0698 12.7895 11.1402 12.8598C11.2105 12.9302 11.25 13.0255 11.25 13.125C11.25 13.2245 11.2105 13.3198 11.1402 13.3902C11.0698 13.4605 10.9745 13.5 10.875 13.5H7.125C7.02554 13.5 6.93016 13.4605 6.85983 13.3902C6.7895 13.3198 6.75 13.2245 6.75 13.125C6.75 13.0255 6.7895 12.9302 6.85983 12.8598ZM7.125 15C7.02554 15 6.93016 15.0395 6.85983 15.1098C6.7895 15.1802 6.75 15.2755 6.75 15.375C6.75 15.4745 6.7895 15.5698 6.85983 15.6402C6.93016 15.7105 7.02554 15.75 7.125 15.75H10.875C10.9745 15.75 11.0698 15.7105 11.1402 15.6402C11.2105 15.5698 11.25 15.4745 11.25 15.375C11.25 15.2755 11.2105 15.1802 11.1402 15.1098C11.0698 15.0395 10.9745 15 10.875 15H7.125ZM6.85983 17.3598C6.93016 17.2895 7.02554 17.25 7.125 17.25H10.875C10.9745 17.25 11.0698 17.2895 11.1402 17.3598C11.2105 17.4302 11.25 17.5255 11.25 17.625C11.25 17.7245 11.2105 17.8198 11.1402 17.8902C11.0698 17.9605 10.9745 18 10.875 18H7.125C7.02554 18 6.93016 17.9605 6.85983 17.8902C6.7895 17.8198 6.75 17.7245 6.75 17.625C6.75 17.5255 6.7895 17.4302 6.85983 17.3598Z" fill="black"/>
</svg>
