<svg width="64" height="64" viewBox="0 0 64 64" fill="none" xmlns="http://www.w3.org/2000/svg">
<path fill-rule="evenodd" clip-rule="evenodd" d="M3 54H21C21.2652 54 21.5196 54.1054 21.7071 54.2929C21.8946 54.4804 22 54.7348 22 55C22 55.2652 21.8946 55.5196 21.7071 55.7071C21.5196 55.8947 21.2652 56 21 56H3C2.20435 56 1.44129 55.6839 0.878677 55.1213C0.316068 54.5587 0 53.7957 0 53V11C0 10.2044 0.316068 9.4413 0.878677 8.87869C1.44129 8.31608 2.20435 8 3 8H29.59C30.3854 8.0007 31.1479 8.31723 31.71 8.88L39.12 16.29C39.6828 16.8521 39.9993 17.6146 40 18.41V25C40 25.2652 39.8946 25.5196 39.7071 25.7071C39.5196 25.8947 39.2652 26 39 26C38.7348 26 38.4804 25.8947 38.2929 25.7071C38.1053 25.5196 38 25.2652 38 25V18.41C37.9989 18.1477 37.8947 17.8963 37.71 17.71L30.29 10.29C30.1037 10.1053 29.8523 10.0011 29.59 10H3C2.73478 10 2.48043 10.1054 2.29289 10.2929C2.10536 10.4804 2 10.7348 2 11V53C2 53.2652 2.10536 53.5196 2.29289 53.7071C2.48043 53.8947 2.73478 54 3 54ZM9 20H23C23.2652 20 23.5196 19.8947 23.7071 19.7071C23.8946 19.5196 24 19.2652 24 19C24 18.7348 23.8946 18.4804 23.7071 18.2929C23.5196 18.1054 23.2652 18 23 18H9C8.73478 18 8.48043 18.1054 8.29289 18.2929C8.10536 18.4804 8 18.7348 8 19C8 19.2652 8.10536 19.5196 8.29289 19.7071C8.48043 19.8947 8.73478 20 9 20ZM28.7071 24.2929C28.8946 24.4804 29 24.7348 29 25C29 25.2652 28.8946 25.5196 28.7071 25.7071C28.5196 25.8947 28.2652 26 28 26H9C8.73478 26 8.48043 25.8947 8.29289 25.7071C8.10536 25.5196 8 25.2652 8 25C8 24.7348 8.10536 24.4804 8.29289 24.2929C8.48043 24.1054 8.73478 24 9 24H28C28.2652 24 28.5196 24.1054 28.7071 24.2929ZM21.7071 30.2929C21.8946 30.4804 22 30.7348 22 31C22 31.2652 21.8946 31.5196 21.7071 31.7071C21.5196 31.8947 21.2652 32 21 32H9C8.73478 32 8.48043 31.8947 8.29289 31.7071C8.10536 31.5196 8 31.2652 8 31C8 30.7348 8.10536 30.4804 8.29289 30.2929C8.48043 30.1054 8.73478 30 9 30H21C21.2652 30 21.5196 30.1054 21.7071 30.2929ZM9 36H17C17.2652 36 17.5196 36.1054 17.7071 36.2929C17.8946 36.4804 18 36.7348 18 37C18 37.2652 17.8946 37.5196 17.7071 37.7071C17.5196 37.8947 17.2652 38 17 38H9C8.73478 38 8.48043 37.8947 8.29289 37.7071C8.10536 37.5196 8 37.2652 8 37C8 36.7348 8.10536 36.4804 8.29289 36.2929C8.48043 36.1054 8.73478 36 9 36ZM17 42H9C8.73478 42 8.48043 42.1054 8.29289 42.2929C8.10536 42.4804 8 42.7348 8 43C8 43.2652 8.10536 43.5196 8.29289 43.7071C8.48043 43.8947 8.73478 44 9 44H17C17.2652 44 17.5196 43.8947 17.7071 43.7071C17.8946 43.5196 18 43.2652 18 43C18 42.7348 17.8946 42.4804 17.7071 42.2929C17.5196 42.1054 17.2652 42 17 42ZM35 30C32.4289 30 29.9154 30.7624 27.7776 32.1909C25.6398 33.6193 23.9735 35.6497 22.9896 38.0251C22.0056 40.4006 21.7482 43.0144 22.2498 45.5362C22.7514 48.0579 23.9895 50.3743 25.8076 52.1924C27.6257 54.0105 29.9421 55.2486 32.4638 55.7502C34.9856 56.2518 37.5995 55.9944 39.9749 55.0104C42.3503 54.0265 44.3807 52.3603 45.8091 50.2224C47.2376 48.0846 48 45.5712 48 43C48 39.5522 46.6304 36.2456 44.1924 33.8076C41.7544 31.3696 38.4478 30 35 30ZM35 54C32.8244 54 30.6977 53.3549 28.8887 52.1462C27.0798 50.9375 25.6699 49.2195 24.8373 47.2095C24.0048 45.1995 23.7869 42.9878 24.2114 40.854C24.6358 38.7202 25.6835 36.7602 27.2218 35.2218C28.7602 33.6835 30.7202 32.6358 32.854 32.2114C34.9878 31.7869 37.1995 32.0048 39.2095 32.8373C41.2195 33.6699 42.9375 35.0798 44.1462 36.8887C45.3549 38.6977 46 40.8244 46 43C46 45.9174 44.8411 48.7153 42.7782 50.7782C40.7153 52.8411 37.9174 54 35 54ZM35.38 36.0799C35.5036 36.1257 35.6161 36.1973 35.71 36.2899L40.21 40.7899C40.3037 40.8829 40.3781 40.9935 40.4289 41.1153C40.4797 41.2372 40.5058 41.3679 40.5058 41.4999C40.5058 41.6319 40.4797 41.7626 40.4289 41.8845C40.3781 42.0064 40.3037 42.1169 40.21 42.2099C40.1166 42.3026 40.0057 42.3759 39.8839 42.4257C39.7621 42.4755 39.6316 42.5007 39.5 42.4999C39.3684 42.5007 39.2379 42.4755 39.1161 42.4257C38.9943 42.3759 38.8834 42.3026 38.79 42.2099L36 39.4099V48.9999C36 49.2651 35.8946 49.5195 35.7071 49.707C35.5196 49.8946 35.2652 49.9999 35 49.9999C34.7348 49.9999 34.4804 49.8946 34.2929 49.707C34.1053 49.5195 34 49.2651 34 48.9999V39.4099L31.21 42.2099C31.1166 42.3026 31.0057 42.3759 30.8839 42.4257C30.7621 42.4755 30.6316 42.5007 30.5 42.4999C30.3684 42.5007 30.2379 42.4755 30.1161 42.4257C29.9943 42.3759 29.8834 42.3026 29.79 42.2099C29.6963 42.1169 29.6219 42.0064 29.5711 41.8845C29.5203 41.7626 29.4942 41.6319 29.4942 41.4999C29.4942 41.3679 29.5203 41.2372 29.5711 41.1153C29.6219 40.9935 29.6963 40.8829 29.79 40.7899L34.29 36.2899C34.3872 36.2016 34.4988 36.1305 34.62 36.0799C34.8635 35.9799 35.1365 35.9799 35.38 36.0799Z" fill="black"/>
</svg>
