<svg width="24" height="24" viewBox="0 0 24 24" fill="none" xmlns="http://www.w3.org/2000/svg">
<path fill-rule="evenodd" clip-rule="evenodd" d="M16.0537 7.38762H6.74999C6.65053 7.38762 6.55515 7.34811 6.48482 7.27778C6.4145 7.20746 6.37499 7.11208 6.37499 7.01262C6.37499 6.91317 6.4145 6.81778 6.48482 6.74745C6.55515 6.67713 6.65053 6.63762 6.74999 6.63762H16.0537C16.2527 6.63762 16.4434 6.55861 16.5841 6.41795C16.7247 6.2773 16.8037 6.08653 16.8037 5.88762C16.8037 5.75037 16.7492 5.61874 16.6522 5.52169C16.5551 5.42464 16.4235 5.37012 16.2862 5.37012C16.215 5.37058 16.1457 5.39282 16.0875 5.43386C16.0068 5.48728 15.9085 5.50742 15.8133 5.49005C15.7181 5.47269 15.6332 5.41917 15.5766 5.3407C15.5199 5.26222 15.4957 5.16487 15.5092 5.06902C15.5227 4.97316 15.5727 4.8862 15.6487 4.82637C15.8326 4.69182 16.0547 4.61956 16.2825 4.62012C16.6186 4.62012 16.941 4.75366 17.1787 4.99137C17.4164 5.22907 17.55 5.55146 17.55 5.88762C17.55 6.2848 17.3925 6.66576 17.112 6.94696C16.8315 7.22815 16.4509 7.38663 16.0537 7.38762ZM21.75 10.7664H6.74999C6.65053 10.7664 6.55515 10.7269 6.48482 10.6565C6.4145 10.5862 6.37499 10.4908 6.37499 10.3914C6.37499 10.2919 6.4145 10.1965 6.48482 10.1262C6.55515 10.0559 6.65053 10.0164 6.74999 10.0164H21.75C22.1478 10.0164 22.5293 9.85833 22.8106 9.57702C23.092 9.29572 23.25 8.91419 23.25 8.51636C23.25 8.21799 23.1315 7.93185 22.9205 7.72087C22.7095 7.50989 22.4234 7.39136 22.125 7.39136C21.9062 7.39136 21.6963 7.47829 21.5416 7.633C21.3869 7.78772 21.3 7.99756 21.3 8.21637C21.3 8.31582 21.2605 8.4112 21.1902 8.48153C21.1198 8.55185 21.0244 8.59137 20.925 8.59137C20.8255 8.59137 20.7302 8.55185 20.6598 8.48153C20.5895 8.4112 20.55 8.31582 20.55 8.21637C20.551 7.79895 20.7172 7.39893 21.0124 7.10377C21.3075 6.80862 21.7076 6.64235 22.125 6.64136C22.6223 6.64136 23.0992 6.83891 23.4508 7.19054C23.8024 7.54217 24 8.01908 24 8.51636C24 9.1131 23.7629 9.6854 23.341 10.1074C22.919 10.5293 22.3467 10.7664 21.75 10.7664ZM14.7252 18.7211C15.1472 19.1431 15.7195 19.3801 16.3162 19.3801C17.0327 19.3801 17.7198 19.0958 18.2267 18.5895C18.7337 18.0833 19.019 17.3965 19.02 16.6801C19.02 15.8085 18.674 14.9726 18.0581 14.3559C17.4421 13.7393 16.6066 13.3924 15.735 13.3914H6.73499C6.63553 13.3914 6.54015 13.4309 6.46982 13.5012C6.39949 13.5715 6.35999 13.6669 6.35999 13.7664C6.35999 13.8658 6.39949 13.9612 6.46982 14.0315C6.54015 14.1019 6.63553 14.1414 6.73499 14.1414H15.735C16.4077 14.1424 17.0524 14.4103 17.5277 14.8863C18.003 15.3623 18.27 16.0074 18.27 16.6801C18.269 17.1976 18.0627 17.6936 17.6964 18.0592C17.3301 18.4248 16.8338 18.6301 16.3162 18.6301C15.9184 18.6301 15.5369 18.4721 15.2556 18.1908C14.9743 17.9095 14.8162 17.5279 14.8162 17.1301C14.8162 17.0307 14.7767 16.9353 14.7064 16.865C14.6361 16.7946 14.5407 16.7551 14.4412 16.7551C14.3418 16.7551 14.2464 16.7946 14.1761 16.865C14.1057 16.9353 14.0662 17.0307 14.0662 17.1301C14.0662 17.7268 14.3033 18.2991 14.7252 18.7211Z" fill="black"/>
</svg>
