<svg width="24" height="24" viewBox="0 0 24 24" fill="none" xmlns="http://www.w3.org/2000/svg">
<path fill-rule="evenodd" clip-rule="evenodd" d="M1.875 3H8.625C9.12228 3 9.5992 3.19755 9.95083 3.54918C10.3025 3.90081 10.5 4.37772 10.5 4.875V19.125C10.5 19.6223 10.3025 20.0992 9.95083 20.4508C9.5992 20.8025 9.12228 21 8.625 21H1.875C1.37772 21 0.900804 20.8025 0.549173 20.4508C0.197543 20.0992 0 19.6223 0 19.125V4.875C0 4.37772 0.197543 3.90081 0.549173 3.54918C0.900804 3.19755 1.37772 3 1.875 3ZM8.625 3.75H1.875C1.57663 3.75 1.29048 3.86853 1.0795 4.07951C0.868526 4.29049 0.75 4.57663 0.75 4.875V17.25H9.75V4.875C9.75 4.57663 9.63147 4.29049 9.4205 4.07951C9.20952 3.86853 8.92337 3.75 8.625 3.75ZM1.0795 19.9205C1.29048 20.1315 1.57663 20.25 1.875 20.25H8.625C8.92337 20.25 9.20952 20.1315 9.4205 19.9205C9.63147 19.7095 9.75 19.4234 9.75 19.125V18H0.75V19.125C0.75 19.4234 0.868526 19.7095 1.0795 19.9205ZM5.8125 19.125C5.8125 19.4357 5.56066 19.6875 5.25 19.6875C4.93934 19.6875 4.6875 19.4357 4.6875 19.125C4.6875 18.8143 4.93934 18.5625 5.25 18.5625C5.56066 18.5625 5.8125 18.8143 5.8125 19.125Z" fill="black"/>
</svg>
