<svg width="64" height="64" viewBox="0 0 64 64" fill="none" xmlns="http://www.w3.org/2000/svg">
<path fill-rule="evenodd" clip-rule="evenodd" d="M39.12 16.29L31.71 8.88C31.1479 8.31723 30.3854 8.0007 29.59 8H3C2.20435 8 1.44129 8.31608 0.878677 8.87869C0.316068 9.4413 0 10.2044 0 11V53C0 53.7957 0.316068 54.5587 0.878677 55.1213C1.44129 55.6839 2.20435 56 3 56H37C37.7957 56 38.5587 55.6839 39.1213 55.1213C39.6839 54.5587 40 53.7957 40 53V18.41C39.9993 17.6146 39.6828 16.8521 39.12 16.29ZM38 53C38 53.2652 37.8946 53.5196 37.7071 53.7071C37.5196 53.8947 37.2652 54 37 54H3C2.73478 54 2.48043 53.8947 2.29289 53.7071C2.10536 53.5196 2 53.2652 2 53V11C2 10.7348 2.10536 10.4804 2.29289 10.2929C2.48043 10.1054 2.73478 10 3 10H29.59C29.8523 10.0011 30.1037 10.1053 30.29 10.29L37.71 17.71C37.8948 17.8963 37.9989 18.1477 38 18.41V53ZM15.19 18.9599L10.87 24.9599L8.70999 22.7899C8.52169 22.6016 8.2663 22.4958 8 22.4958C7.7337 22.4958 7.4783 22.6016 7.28999 22.7899C7.10169 22.9782 6.99591 23.2336 6.99591 23.4999C6.99591 23.7662 7.10169 24.0216 7.28999 24.2099L9.45999 26.3699C9.83334 26.7455 10.3404 26.9577 10.87 26.9599C11.1339 26.9601 11.3952 26.9081 11.639 26.8069C11.8827 26.7056 12.1039 26.5571 12.29 26.3699C12.3677 26.2934 12.438 26.2097 12.5 26.1199L16.81 20.1199C16.9375 19.9046 16.9797 19.6494 16.9282 19.4045C16.8767 19.1596 16.7352 18.943 16.5318 18.7973C16.3283 18.6516 16.0776 18.5875 15.8292 18.6176C15.5808 18.6477 15.3528 18.7699 15.19 18.9599ZM23 22H31C31.2652 22 31.5196 22.1054 31.7071 22.2929C31.8946 22.4804 32 22.7348 32 23C32 23.2652 31.8946 23.5196 31.7071 23.7071C31.5196 23.8947 31.2652 24 31 24H23C22.7348 24 22.4804 23.8947 22.2929 23.7071C22.1054 23.5196 22 23.2652 22 23C22 22.7348 22.1054 22.4804 22.2929 22.2929C22.4804 22.1054 22.7348 22 23 22ZM15.19 28.9599L10.87 34.9599L8.70999 32.7899C8.52169 32.6016 8.2663 32.4958 8 32.4958C7.7337 32.4958 7.4783 32.6016 7.28999 32.7899C7.10169 32.9782 6.99591 33.2336 6.99591 33.4999C6.99591 33.7662 7.10169 34.0216 7.28999 34.2099L9.45999 36.3699C9.83334 36.7455 10.3404 36.9577 10.87 36.9599C11.1339 36.9601 11.3952 36.9081 11.639 36.8069C11.8827 36.7056 12.1039 36.5571 12.29 36.3699C12.3677 36.2934 12.438 36.2097 12.5 36.1199L16.81 30.1199C16.9375 29.9046 16.9797 29.6494 16.9282 29.4045C16.8767 29.1596 16.7352 28.943 16.5318 28.7973C16.3283 28.6516 16.0776 28.5875 15.8292 28.6176C15.5808 28.6477 15.3528 28.7699 15.19 28.9599ZM23 32H31C31.2652 32 31.5196 32.1054 31.7071 32.2929C31.8946 32.4804 32 32.7348 32 33C32 33.2652 31.8946 33.5196 31.7071 33.7071C31.5196 33.8947 31.2652 34 31 34H23C22.7348 34 22.4804 33.8947 22.2929 33.7071C22.1054 33.5196 22 33.2652 22 33C22 32.7348 22.1054 32.4804 22.2929 32.2929C22.4804 32.1054 22.7348 32 23 32ZM15.19 38.9599L10.87 44.9599L8.70999 42.7899C8.52169 42.6016 8.2663 42.4958 8 42.4958C7.7337 42.4958 7.4783 42.6016 7.28999 42.7899C7.10169 42.9782 6.99591 43.2336 6.99591 43.4999C6.99591 43.7662 7.10169 44.0216 7.28999 44.2099L9.45999 46.3699C9.83334 46.7455 10.3404 46.9577 10.87 46.9599C11.1339 46.9601 11.3952 46.9081 11.639 46.8069C11.8827 46.7056 12.1039 46.5571 12.29 46.3699C12.3677 46.2934 12.438 46.2097 12.5 46.1199L16.81 40.1199C16.9375 39.9046 16.9797 39.6494 16.9282 39.4045C16.8767 39.1596 16.7352 38.943 16.5318 38.7973C16.3283 38.6516 16.0776 38.5875 15.8292 38.6176C15.5808 38.6477 15.3528 38.7699 15.19 38.9599ZM23 42H31C31.2652 42 31.5196 42.1054 31.7071 42.2929C31.8946 42.4804 32 42.7348 32 43C32 43.2652 31.8946 43.5196 31.7071 43.7071C31.5196 43.8947 31.2652 44 31 44H23C22.7348 44 22.4804 43.8947 22.2929 43.7071C22.1054 43.5196 22 43.2652 22 43C22 42.7348 22.1054 42.4804 22.2929 42.2929C22.4804 42.1054 22.7348 42 23 42Z" fill="black"/>
</svg>
