<svg width="64" height="64" viewBox="0 0 64 64" fill="none" xmlns="http://www.w3.org/2000/svg">
<path fill-rule="evenodd" clip-rule="evenodd" d="M14.3889 6.44442C14.3889 5.98418 14.0158 5.61108 13.5555 5.61108C13.0953 5.61108 12.7222 5.98418 12.7222 6.44442V10.0556H4.66667C2.97913 10.0556 1.61111 11.4236 1.61111 13.1111V22.0001V55.3334C1.61111 57.0209 2.97913 58.3889 4.66667 58.3889H51.3333C53.0209 58.3889 54.3889 57.0209 54.3889 55.3334V22.0001V13.1111C54.3889 11.4236 53.0209 10.0556 51.3333 10.0556H43.2778V6.44442C43.2778 5.98418 42.9047 5.61108 42.4444 5.61108C41.9842 5.61108 41.6111 5.98418 41.6111 6.44442V10.0556H14.3889V6.44442ZM52.7222 21.1667V13.1111C52.7222 12.3441 52.1004 11.7222 51.3333 11.7222H43.2778V17.5555C43.2778 18.0158 42.9047 18.3889 42.4444 18.3889C41.9842 18.3889 41.6111 18.0158 41.6111 17.5555V11.7222H14.3889V17.5555C14.3889 18.0158 14.0158 18.3889 13.5555 18.3889C13.0953 18.3889 12.7222 18.0158 12.7222 17.5555V11.7222H4.66667C3.89961 11.7222 3.27778 12.3441 3.27778 13.1111V21.1667H52.7222ZM3.27778 22.8334H52.7222V55.3334C52.7222 56.1004 52.1004 56.7222 51.3333 56.7222H4.66667C3.89961 56.7222 3.27778 56.1004 3.27778 55.3334V22.8334Z" fill="black"/>
</svg>
