<svg width="24" height="24" viewBox="0 0 24 24" fill="none" xmlns="http://www.w3.org/2000/svg">
<path d="M17.7885 13.9897C17.9349 13.3386 18.0091 12.6733 18.0098 12.0059C18.0101 9.6809 17.108 7.44651 15.4935 5.77343L15.4485 5.72468C14.5072 4.75778 13.3604 4.01495 12.0932 3.55116C10.8259 3.08737 9.47056 2.9145 8.12746 3.04533C6.78435 3.17616 5.48786 3.60734 4.33392 4.30697C3.17999 5.0066 2.19816 5.95678 1.46108 7.08716C0.724013 8.21755 0.250573 9.49921 0.0758005 10.8373C-0.0989716 12.1754 0.0293999 13.5357 0.451413 14.8175C0.873426 16.0992 1.57828 17.2697 2.51381 18.2423C3.44934 19.2148 4.59159 19.9645 5.85603 20.4359H5.87853C7.07771 20.8807 8.35792 21.0648 9.63383 20.9759C10.9097 20.8869 12.1521 20.5271 13.278 19.9203C14.4039 19.3136 15.3875 18.4738 16.1634 17.4569C16.9392 16.4401 17.4894 15.2696 17.7773 14.0234C17.7826 14.0127 17.7863 14.0014 17.7885 13.9897ZM17.121 13.5284H16.5923C16.2829 13.5289 15.9781 13.4528 15.7053 13.3068C15.4324 13.1609 15.1999 12.9498 15.0285 12.6922L13.3673 10.1947C13.1278 9.83513 12.8034 9.54024 12.4227 9.33615C12.0419 9.13205 11.6168 9.02506 11.1848 9.02467H10.8548C10.5067 9.02467 10.1729 8.88639 9.92671 8.64025C9.68057 8.39411 9.54228 8.06027 9.54228 7.71217C9.54228 7.36407 9.68057 7.03024 9.92671 6.7841C10.1729 6.53796 10.5067 6.39967 10.8548 6.39967H15.0435C15.9254 7.34064 16.5736 8.47581 16.9358 9.71351C17.298 10.9512 17.364 12.2567 17.1285 13.5247L17.121 13.5284ZM0.759785 12.0284C0.761465 11.6521 0.787768 11.2763 0.838532 10.9034H5.07978C5.32599 10.9027 5.56986 10.9511 5.79715 11.0458C6.02444 11.1404 6.23059 11.2794 6.40353 11.4547L7.24354 12.2947C7.5819 12.6329 7.77813 13.0878 7.79208 13.566C7.80602 14.0443 7.63661 14.5098 7.31853 14.8672L6.29853 16.0147C5.87121 16.495 5.63503 17.1155 5.63479 17.7584V19.5284C4.1836 18.8778 2.95138 17.8217 2.08648 16.487C1.22158 15.1524 0.76086 13.5963 0.759785 12.0059V12.0284ZM9.00979 20.2784C8.11716 20.2783 7.23053 20.1326 6.38479 19.8472V17.7547C6.38465 17.2958 6.55276 16.8529 6.85729 16.5097L7.88103 15.3622C8.3259 14.8619 8.56281 14.2105 8.54329 13.5413C8.52377 12.8721 8.2493 12.2357 7.77603 11.7622L6.93604 10.9034C6.69226 10.6597 6.40286 10.4663 6.08437 10.3344C5.76587 10.2025 5.42451 10.1347 5.07978 10.1347H0.977286C1.29663 8.77 1.95838 7.50918 2.90009 6.47116C3.84181 5.43314 5.03245 4.65214 6.35969 4.20184C7.68692 3.75155 9.107 3.64681 10.4859 3.8975C11.8649 4.14819 13.1572 4.74606 14.241 5.63468H10.866C10.319 5.63468 9.79442 5.85197 9.40763 6.23877C9.02083 6.62556 8.80353 7.15017 8.80353 7.69718C8.80353 8.24419 9.02083 8.76879 9.40763 9.15558C9.79442 9.54237 10.319 9.75968 10.866 9.75968H11.196C11.5042 9.76046 11.8074 9.83716 12.0788 9.98302C12.3503 10.1289 12.5816 10.3394 12.7523 10.5959L14.4173 13.0934C14.6571 13.4535 14.9821 13.7487 15.3636 13.9528C15.745 14.157 16.1709 14.2637 16.6035 14.2634H16.956C16.4686 15.9954 15.4284 17.5205 13.9938 18.6064C12.5592 19.6923 10.809 20.2795 9.00979 20.2784Z" fill="black"/>
</svg>
