<svg width="64" height="64" viewBox="0 0 64 64" fill="none" xmlns="http://www.w3.org/2000/svg">
<path fill-rule="evenodd" clip-rule="evenodd" d="M55.12 8.88C54.558 8.31723 53.7954 8.0007 53.0001 8H11.0001C10.2044 8 9.44133 8.31605 8.87872 8.87866C8.31611 9.44127 8.00005 10.2044 8.00005 11V17C7.99555 17.4883 8.16983 17.9613 8.49004 18.33C8.81337 18.7007 9.26196 18.9392 9.75005 19C11.2033 19.179 12.541 19.8833 13.5111 20.9801C14.4811 22.077 15.0166 23.4907 15.0166 24.955C15.0166 26.4193 14.4811 27.833 13.5111 28.9299C12.541 30.0267 11.2033 30.731 9.75005 30.91C9.26196 30.9708 8.81337 31.2093 8.49004 31.58C8.17211 31.946 7.99799 32.4151 8.00005 32.9V39.06C8.00005 39.8556 8.31611 40.6187 8.87872 41.1813C9.44133 41.7439 10.2044 42.06 11.0001 42.06H26.0001C26.2653 42.06 26.5196 41.9546 26.7071 41.7671C26.8947 41.5796 27.0001 41.3252 27.0001 41.06C27.0001 40.7948 26.8947 40.5404 26.7071 40.3529C26.5196 40.1654 26.2653 40.06 26.0001 40.06H11.0001C10.8677 40.0594 10.7369 40.0326 10.615 39.9811C10.4931 39.9296 10.3826 39.8545 10.29 39.76C10.1053 39.5737 10.0012 39.3223 10.0001 39.06V32.99C11.9461 32.7606 13.7404 31.8249 15.0424 30.3604C16.3444 28.896 17.0636 27.0045 17.0636 25.045C17.0636 23.0854 16.3444 21.194 15.0424 19.7295C13.7404 18.265 11.9461 17.3294 10.0001 17.1V11.05C10.0012 10.7876 10.1053 10.5363 10.29 10.35C10.3826 10.2555 10.4931 10.1803 10.615 10.1288C10.7369 10.0773 10.8677 10.0505 11.0001 10.05H53.0001C53.2653 10.05 53.5196 10.1554 53.7071 10.3429C53.8947 10.5304 54.0001 10.7848 54.0001 11.05V17.06C52.944 17.1925 51.9244 17.5323 51.0001 18.06C50.0714 18.5991 49.2608 19.3196 48.6166 20.1786C47.9723 21.0377 47.5076 22.0176 47.2501 23.06C46.9841 24.095 46.9263 25.1725 47.08 26.23C47.0996 26.3601 47.1446 26.485 47.2125 26.5977C47.2804 26.7103 47.3699 26.8085 47.4758 26.8865C47.5817 26.9646 47.7019 27.0209 47.8296 27.0524C47.9573 27.0839 48.09 27.0899 48.22 27.07C48.3501 27.0505 48.4751 27.0055 48.5877 26.9376C48.7004 26.8697 48.7985 26.7802 48.8766 26.6743C48.9546 26.5684 49.011 26.4482 49.0424 26.3204C49.0739 26.1927 49.0799 26.06 49.0601 25.93C48.9397 25.14 48.9805 24.3338 49.18 23.56C49.37 22.7881 49.7098 22.061 50.18 21.42C50.6658 20.7823 51.2745 20.2485 51.97 19.85C52.6593 19.4437 53.4255 19.1849 54.22 19.09C54.706 19.0288 55.1527 18.7913 55.4752 18.4227C55.7978 18.0541 55.9739 17.5798 55.97 17.09V11.02C55.9763 10.6249 55.9044 10.2325 55.7585 9.8652C55.6127 9.49796 55.3957 9.16315 55.12 8.88ZM35.7776 32.1909C37.9154 30.7624 40.4289 30 43 30C46.4479 30 49.7544 31.3696 52.1924 33.8076C54.6304 36.2456 56 39.5522 56 43C56 45.5712 55.2376 48.0846 53.8091 50.2224C52.3807 52.3603 50.3504 54.0265 47.9749 55.0104C45.5995 55.9944 42.9856 56.2518 40.4638 55.7502C37.9421 55.2486 35.6257 54.0105 33.8076 52.1924C31.9895 50.3743 30.7514 48.0579 30.2498 45.5362C29.7482 43.0144 30.0057 40.4006 30.9896 38.0251C31.9735 35.6497 33.6398 33.6193 35.7776 32.1909ZM36.8887 52.1461C38.6977 53.3548 40.8244 54 43 54V54.06C44.4496 54.06 45.885 53.7735 47.2235 53.217C48.562 52.6604 49.7772 51.8448 50.7995 50.817C51.8217 49.7892 52.6307 48.5695 53.18 47.2279C53.7292 45.8864 54.0079 44.4496 54 43C54 40.8244 53.3549 38.6977 52.1462 36.8887C50.9375 35.0798 49.2195 33.6699 47.2095 32.8373C45.1996 32.0047 42.9878 31.7869 40.854 32.2114C38.7203 32.6358 36.7602 33.6835 35.2218 35.2218C33.6835 36.7602 32.6358 38.7202 32.2114 40.854C31.7869 42.9878 32.0048 45.1995 32.8374 47.2095C33.6699 49.2195 35.0798 50.9375 36.8887 52.1461ZM44 42.0601H47C47.2652 42.0601 47.5196 42.1654 47.7071 42.353C47.8947 42.5405 48 42.7948 48 43.0601C48 43.3253 47.8947 43.5796 47.7071 43.7672C47.5196 43.9547 47.2652 44.0601 47 44.0601H43C42.7348 44.0601 42.4804 43.9547 42.2929 43.7672C42.1054 43.5796 42 43.3253 42 43.0601V37.0601C42 36.7948 42.1054 36.5405 42.2929 36.353C42.4804 36.1654 42.7348 36.0601 43 36.0601C43.2652 36.0601 43.5196 36.1654 43.7071 36.353C43.8947 36.5405 44 36.7948 44 37.0601V42.0601ZM41.5 14C41.5 14.8284 40.8285 15.5 40 15.5C39.1716 15.5 38.5 14.8284 38.5 14C38.5 13.1716 39.1716 12.5 40 12.5C40.8285 12.5 41.5 13.1716 41.5 14ZM40 21.5C40.8285 21.5 41.5 20.8284 41.5 20C41.5 19.1716 40.8285 18.5 40 18.5C39.1716 18.5 38.5 19.1716 38.5 20C38.5 20.8284 39.1716 21.5 40 21.5ZM41.5 26C41.5 26.8284 40.8285 27.5 40 27.5C39.1716 27.5 38.5 26.8284 38.5 26C38.5 25.1716 39.1716 24.5 40 24.5C40.8285 24.5 41.5 25.1716 41.5 26Z" fill="black"/>
</svg>
