<svg width="24" height="24" viewBox="0 0 24 24" fill="none" xmlns="http://www.w3.org/2000/svg">
<path d="M17.325 5.49602C17.3071 5.37722 17.2601 5.2647 17.1881 5.16851C17.1161 5.07232 17.0215 4.99545 16.9125 4.94477C16.8008 4.88237 16.6749 4.84961 16.5469 4.84961C16.4189 4.84961 16.293 4.88237 16.1813 4.94477C14.4677 5.99438 12.4769 6.50156 10.47 6.39977C6.07878 6.39977 4.12878 8.11352 3.88878 8.34227C2.81131 9.14657 2.03521 10.2895 1.685 11.5876C1.33479 12.8858 1.43076 14.2639 1.95752 15.501L0.131273 17.0573C0.0938439 17.0893 0.063091 17.1283 0.0407614 17.1722C0.0184318 17.2161 0.00496671 17.264 0.00113624 17.3131C-0.00269423 17.3622 0.00318207 17.4116 0.018434 17.4584C0.0336859 17.5052 0.0580162 17.5486 0.0900282 17.586C0.125236 17.6272 0.16894 17.6602 0.218139 17.6829C0.267338 17.7055 0.320861 17.7173 0.375026 17.7173C0.463932 17.7183 0.550318 17.6878 0.618774 17.631L2.30628 16.1873C2.56206 16.6245 2.872 17.0277 3.22878 17.3873C3.78385 17.9472 4.44458 18.3913 5.17265 18.6939C5.90071 18.9964 6.6816 19.1514 7.47003 19.1498C8.97909 19.1258 10.458 18.7235 11.7713 17.9798C18.3075 14.3798 17.6738 7.52477 17.325 5.49602ZM11.4038 17.3235C10.2028 18.0046 8.8505 18.3746 7.47003 18.3998C6.53358 18.3985 5.61451 18.1468 4.8081 17.6707C4.00168 17.1947 3.33728 16.5116 2.88377 15.6923L3.52128 15.1523C5.39758 13.7069 7.53741 12.6408 9.82127 12.0135C9.91725 11.9867 9.99863 11.9228 10.0475 11.8359C10.0964 11.7491 10.1088 11.6464 10.0819 11.5504C10.055 11.4544 9.99116 11.373 9.90431 11.3242C9.81746 11.2753 9.71476 11.2629 9.61878 11.2898C7.23766 11.9477 5.00654 13.0607 3.04877 14.5673L2.56128 14.9873C2.16282 13.9196 2.12258 12.7513 2.44662 11.6588C2.77066 10.5662 3.44139 9.60877 4.35753 8.93102L4.39877 8.89352C4.39877 8.89352 6.19503 7.14977 10.44 7.14977C12.5949 7.25817 14.7337 6.72578 16.5863 5.61977C16.9125 7.52477 17.5125 13.9635 11.4038 17.3235V17.3235Z" fill="black"/>
</svg>
