<svg width="64" height="64" viewBox="0 0 64 64" fill="none" xmlns="http://www.w3.org/2000/svg">
<g clip-path="url(#clip0_562_1548)">
<path fill-rule="evenodd" clip-rule="evenodd" d="M63.12 8.88C62.5579 8.31723 61.7954 8.0007 61 8H19C18.2044 8 17.4413 8.31605 16.8787 8.87866C16.3161 9.44127 16 10.2044 16 11V17C15.9955 17.4883 16.1698 17.9613 16.49 18.33C16.8133 18.7007 17.2619 18.9392 17.75 19C19.2033 19.179 20.541 19.8833 21.511 20.9801C22.4811 22.077 23.0165 23.4907 23.0165 24.955C23.0165 26.4193 22.4811 27.833 21.511 28.9299C20.541 30.0267 19.2033 30.731 17.75 30.91C17.2619 30.9708 16.8133 31.2093 16.49 31.58C16.1721 31.946 15.998 32.4151 16 32.9V39.06C16 39.8556 16.3161 40.6187 16.8787 41.1813C17.4413 41.7439 18.2044 42.06 19 42.06H34C34.2652 42.06 34.5196 41.9546 34.7071 41.7671C34.8947 41.5796 35 41.3252 35 41.06C35 40.7948 34.8947 40.5404 34.7071 40.3529C34.5196 40.1654 34.2652 40.06 34 40.06H19C18.8677 40.0594 18.7368 40.0326 18.615 39.9811C18.4931 39.9296 18.3826 39.8545 18.29 39.76C18.1053 39.5737 18.0011 39.3223 18 39.06V32.99C19.9461 32.7606 21.7403 31.8249 23.0423 30.3604C24.3443 28.896 25.0635 27.0045 25.0635 25.045C25.0635 23.0854 24.3443 21.194 23.0423 19.7295C21.7403 18.265 19.9461 17.3294 18 17.1V11.05C18.0011 10.7876 18.1053 10.5363 18.29 10.35C18.3826 10.2555 18.4931 10.1803 18.615 10.1288C18.7368 10.0773 18.8677 10.0505 19 10.05H61C61.2652 10.05 61.5196 10.1554 61.7071 10.3429C61.8947 10.5304 62 10.7848 62 11.05V17.06C60.9439 17.1925 59.9244 17.5323 59 18.06C58.0714 18.5991 57.2608 19.3196 56.6165 20.1786C55.9723 21.0377 55.5075 22.0176 55.25 23.06C54.984 24.095 54.9262 25.1725 55.08 26.23C55.0995 26.3601 55.1446 26.485 55.2125 26.5977C55.2804 26.7103 55.3698 26.8085 55.4757 26.8865C55.5816 26.9646 55.7019 27.0209 55.8296 27.0524C55.9573 27.0839 56.09 27.0899 56.22 27.07C56.3501 27.0505 56.475 27.0055 56.5877 26.9376C56.7004 26.8697 56.7985 26.7802 56.8765 26.6743C56.9546 26.5684 57.0109 26.4482 57.0424 26.3204C57.0739 26.1927 57.0799 26.06 57.06 25.93C56.9397 25.14 56.9805 24.3338 57.18 23.56C57.37 22.7881 57.7098 22.061 58.18 21.42C58.6658 20.7823 59.2744 20.2485 59.97 19.85C60.6593 19.4437 61.4255 19.1849 62.22 19.09C62.706 19.0288 63.1526 18.7913 63.4752 18.4227C63.7978 18.0541 63.9738 17.5798 63.97 17.09V11.02C63.9762 10.6249 63.9044 10.2325 63.7585 9.8652C63.6126 9.49796 63.3957 9.16315 63.12 8.88ZM43.7776 32.1909C45.9154 30.7624 48.4289 30 51 30C54.4478 30 57.7544 31.3696 60.1924 33.8076C62.6304 36.2456 64 39.5522 64 43C64 45.5712 63.2375 48.0846 61.8091 50.2224C60.3806 52.3603 58.3503 54.0265 55.9749 55.0104C53.5995 55.9944 50.9856 56.2518 48.4638 55.7502C45.9421 55.2486 43.6257 54.0105 41.8076 52.1924C39.9895 50.3743 38.7514 48.0579 38.2498 45.5362C37.7482 43.0144 38.0056 40.4006 38.9896 38.0251C39.9735 35.6497 41.6397 33.6193 43.7776 32.1909ZM44.8887 52.1461C46.6977 53.3548 48.8244 54 51 54V54.06C52.4496 54.06 53.8849 53.7735 55.2234 53.217C56.5619 52.6604 57.7772 51.8448 58.7994 50.817C59.8217 49.7892 60.6307 48.5695 61.1799 47.2279C61.7292 45.8864 62.0079 44.4496 62 43C62 40.8244 61.3549 38.6977 60.1462 36.8887C58.9375 35.0798 57.2195 33.6699 55.2095 32.8373C53.1995 32.0047 50.9878 31.7869 48.854 32.2114C46.7202 32.6358 44.7602 33.6835 43.2218 35.2218C41.6834 36.7602 40.6358 38.7202 40.2113 40.854C39.7869 42.9878 40.0048 45.1995 40.8373 47.2095C41.6699 49.2195 43.0798 50.9375 44.8887 52.1461ZM52 42.0601H55C55.2652 42.0601 55.5196 42.1654 55.7071 42.353C55.8946 42.5405 56 42.7948 56 43.0601C56 43.3253 55.8946 43.5796 55.7071 43.7672C55.5196 43.9547 55.2652 44.0601 55 44.0601H51C50.7348 44.0601 50.4804 43.9547 50.2929 43.7672C50.1053 43.5796 50 43.3253 50 43.0601V37.0601C50 36.7948 50.1053 36.5405 50.2929 36.353C50.4804 36.1654 50.7348 36.0601 51 36.0601C51.2652 36.0601 51.5196 36.1654 51.7071 36.353C51.8946 36.5405 52 36.7948 52 37.0601V42.0601ZM49.5 14C49.5 14.8284 48.8284 15.5 48 15.5C47.1716 15.5 46.5 14.8284 46.5 14C46.5 13.1716 47.1716 12.5 48 12.5C48.8284 12.5 49.5 13.1716 49.5 14ZM48 21.5C48.8284 21.5 49.5 20.8284 49.5 20C49.5 19.1716 48.8284 18.5 48 18.5C47.1716 18.5 46.5 19.1716 46.5 20C46.5 20.8284 47.1716 21.5 48 21.5ZM49.5 26C49.5 26.8284 48.8284 27.5 48 27.5C47.1716 27.5 46.5 26.8284 46.5 26C46.5 25.1716 47.1716 24.5 48 24.5C48.8284 24.5 49.5 25.1716 49.5 26Z" fill="black"/>
</g>
<defs>
<clipPath id="clip0_562_1548">
<rect width="64" height="64" fill="white"/>
</clipPath>
</defs>
</svg>
