<svg width="24" height="24" viewBox="0 0 24 24" fill="none" xmlns="http://www.w3.org/2000/svg">
<g clip-path="url(#clip0_914_2978)">
<path fill-rule="evenodd" clip-rule="evenodd" d="M7.125 20.25H13.875C13.9745 20.25 14.0698 20.2895 14.1402 20.3598C14.2105 20.4302 14.25 20.5255 14.25 20.625C14.25 20.7245 14.2105 20.8198 14.1402 20.8902C14.0698 20.9605 13.9745 21 13.875 21H7.125C6.82663 21 6.54048 20.8815 6.3295 20.6705C6.11853 20.4595 6 20.1734 6 19.875V4.125C6 3.82663 6.11853 3.54049 6.3295 3.32951C6.54048 3.11853 6.82663 3 7.125 3H17.0962C17.3945 3.00026 17.6805 3.11896 17.8912 3.33L20.67 6.10875C20.881 6.31953 20.9997 6.60548 21 6.90375V9.375C21 9.47446 20.9605 9.56984 20.8902 9.64017C20.8198 9.7105 20.7245 9.75 20.625 9.75C20.5255 9.75 20.4302 9.7105 20.3598 9.64017C20.2895 9.56984 20.25 9.47446 20.25 9.375V6.90375C20.2496 6.80537 20.2105 6.71109 20.1412 6.64125L17.3588 3.85875C17.2889 3.78947 17.1946 3.75041 17.0962 3.75H7.125C7.02554 3.75 6.93016 3.78951 6.85983 3.85984C6.78951 3.93017 6.75 4.02554 6.75 4.125V19.875C6.75 19.9745 6.78951 20.0698 6.85983 20.1402C6.93016 20.2105 7.02554 20.25 7.125 20.25ZM9.375 7.5H14.625C14.7245 7.5 14.8198 7.4605 14.8902 7.39017C14.9605 7.31984 15 7.22446 15 7.125C15 7.02554 14.9605 6.93017 14.8902 6.85984C14.8198 6.78951 14.7245 6.75 14.625 6.75H9.375C9.27554 6.75 9.18016 6.78951 9.10983 6.85984C9.03951 6.93017 9 7.02554 9 7.125C9 7.22446 9.03951 7.31984 9.10983 7.39017C9.18016 7.4605 9.27554 7.5 9.375 7.5ZM16.7652 9.10984C16.8355 9.18017 16.875 9.27554 16.875 9.375C16.875 9.47446 16.8355 9.56984 16.7652 9.64017C16.6948 9.7105 16.5995 9.75 16.5 9.75H9.375C9.27554 9.75 9.18016 9.7105 9.10983 9.64017C9.03951 9.56984 9 9.47446 9 9.375C9 9.27554 9.03951 9.18017 9.10983 9.10984C9.18016 9.03951 9.27554 9 9.375 9H16.5C16.5995 9 16.6948 9.03951 16.7652 9.10984ZM14.1402 11.3598C14.2105 11.4302 14.25 11.5255 14.25 11.625C14.25 11.7245 14.2105 11.8198 14.1402 11.8902C14.0698 11.9605 13.9745 12 13.875 12H9.375C9.27554 12 9.18016 11.9605 9.10983 11.8902C9.03951 11.8198 9 11.7245 9 11.625C9 11.5255 9.03951 11.4302 9.10983 11.3598C9.18016 11.2895 9.27554 11.25 9.375 11.25H13.875C13.9745 11.25 14.0698 11.2895 14.1402 11.3598ZM9.375 13.5H12.375C12.4745 13.5 12.5698 13.5395 12.6402 13.6098C12.7105 13.6802 12.75 13.7755 12.75 13.875C12.75 13.9745 12.7105 14.0698 12.6402 14.1402C12.5698 14.2105 12.4745 14.25 12.375 14.25H9.375C9.27554 14.25 9.18016 14.2105 9.10983 14.1402C9.03951 14.0698 9 13.9745 9 13.875C9 13.7755 9.03951 13.6802 9.10983 13.6098C9.18016 13.5395 9.27554 13.5 9.375 13.5ZM12.375 15.75H9.375C9.27554 15.75 9.18016 15.7895 9.10983 15.8598C9.03951 15.9302 9 16.0255 9 16.125C9 16.2245 9.03951 16.3198 9.10983 16.3902C9.18016 16.4605 9.27554 16.5 9.375 16.5H12.375C12.4745 16.5 12.5698 16.4605 12.6402 16.3902C12.7105 16.3198 12.75 16.2245 12.75 16.125C12.75 16.0255 12.7105 15.9302 12.6402 15.8598C12.5698 15.7895 12.4745 15.75 12.375 15.75ZM19.125 11.25C18.1608 11.25 17.2183 11.5359 16.4166 12.0716C15.6149 12.6073 14.9901 13.3686 14.6211 14.2594C14.2521 15.1502 14.1556 16.1304 14.3437 17.0761C14.5318 18.0217 14.9961 18.8904 15.6779 19.5721C16.3596 20.2539 17.2283 20.7182 18.1739 20.9063C19.1196 21.0944 20.0998 20.9979 20.9906 20.6289C21.8814 20.2599 22.6428 19.6351 23.1784 18.8334C23.7141 18.0317 24 17.0892 24 16.125C24 14.8321 23.4864 13.5921 22.5721 12.6779C21.6579 11.7636 20.4179 11.25 19.125 11.25ZM19.125 20.25C18.3092 20.25 17.5116 20.0081 16.8333 19.5548C16.1549 19.1016 15.6262 18.4573 15.314 17.7036C15.0018 16.9498 14.9201 16.1204 15.0793 15.3203C15.2384 14.5201 15.6313 13.7851 16.2082 13.2082C16.7851 12.6313 17.5201 12.2384 18.3203 12.0793C19.1204 11.9201 19.9498 12.0018 20.7036 12.314C21.4573 12.6262 22.1016 13.1549 22.5548 13.8333C23.0081 14.5116 23.25 15.3092 23.25 16.125C23.25 17.219 22.8154 18.2682 22.0418 19.0418C21.2682 19.8154 20.219 20.25 19.125 20.25ZM19.2675 13.53C19.3139 13.5471 19.356 13.574 19.3912 13.6087L21.0787 15.2962C21.1139 15.3311 21.1418 15.3726 21.1608 15.4182C21.1799 15.4639 21.1897 15.513 21.1897 15.5625C21.1897 15.612 21.1799 15.661 21.1608 15.7067C21.1418 15.7524 21.1139 15.7939 21.0787 15.8287C21.0437 15.8635 21.0022 15.891 20.9565 15.9096C20.9108 15.9283 20.8619 15.9378 20.8125 15.9375C20.7631 15.9378 20.7142 15.9283 20.6685 15.9096C20.6228 15.891 20.5813 15.8635 20.5463 15.8287L19.5 14.7787V18.375C19.5 18.4744 19.4605 18.5698 19.3902 18.6401C19.3198 18.7105 19.2245 18.75 19.125 18.75C19.0255 18.75 18.9302 18.7105 18.8598 18.6401C18.7895 18.5698 18.75 18.4744 18.75 18.375V14.7787L17.7037 15.8287C17.6687 15.8635 17.6272 15.891 17.5815 15.9096C17.5358 15.9283 17.4869 15.9378 17.4375 15.9375C17.3881 15.9378 17.3392 15.9283 17.2935 15.9096C17.2478 15.891 17.2063 15.8635 17.1713 15.8287C17.1361 15.7939 17.1082 15.7524 17.0892 15.7067C17.0701 15.661 17.0603 15.612 17.0603 15.5625C17.0603 15.513 17.0701 15.4639 17.0892 15.4182C17.1082 15.3726 17.1361 15.3311 17.1713 15.2962L18.8588 13.6087C18.8952 13.5756 18.9371 13.549 18.9825 13.53C19.0738 13.4925 19.1762 13.4925 19.2675 13.53Z" fill="black"/>
</g>
<defs>
<clipPath id="clip0_914_2978">
<rect width="24" height="24" fill="white"/>
</clipPath>
</defs>
</svg>
