<svg width="64" height="64" viewBox="0 0 64 64" fill="none" xmlns="http://www.w3.org/2000/svg">
<path fill-rule="evenodd" clip-rule="evenodd" d="M63.5 13.92C63.6375 14.1287 63.7483 14.3538 63.83 14.59C63.9413 14.9013 63.9989 15.2294 64 15.56V53.02C64 53.8156 63.6839 54.5787 63.1213 55.1413C62.5587 55.7039 61.7957 56.02 61 56.02H31C30.2044 56.02 29.4413 55.7039 28.8787 55.1413C28.3161 54.5787 28 53.8156 28 53.02V15.58C28.0019 14.9913 28.1719 14.4153 28.49 13.92L31.57 9.31998C31.8429 8.90915 32.2129 8.57196 32.6472 8.33823C33.0815 8.1045 33.5668 7.98144 34.06 7.97998H57.95C58.4432 7.98144 58.9284 8.1045 59.3628 8.33823C59.7971 8.57196 60.1671 8.90915 60.44 9.31998L63.5 13.92ZM33.5929 10.0785C33.4463 10.1571 33.3215 10.271 33.23 10.41L30.86 13.96H61.13L58.77 10.41C58.6785 10.271 58.5537 10.1571 58.407 10.0785C58.2604 9.99991 58.0964 9.95919 57.93 9.95999H34.07C33.9036 9.95919 33.7396 9.99991 33.5929 10.0785ZM44 48.02V54.02H48V48.02C48 47.4896 47.7893 46.9808 47.4142 46.6058C47.0391 46.2307 46.5304 46.02 46 46.02C45.4696 46.02 44.9609 46.2307 44.5858 46.6058C44.2107 46.9808 44 47.4896 44 48.02ZM50 54.02H61C61.2652 54.02 61.5196 53.9146 61.7071 53.7271C61.8946 53.5395 62 53.2852 62 53.02V16.02H30V53.02C30 53.2852 30.1054 53.5395 30.2929 53.7271C30.4804 53.9146 30.7348 54.02 31 54.02H42V48.02C42 46.9591 42.4214 45.9417 43.1716 45.1916C43.9217 44.4414 44.9391 44.02 46 44.02C47.0609 44.02 48.0783 44.4414 48.8284 45.1916C49.5786 45.9417 50 46.9591 50 48.02V54.02ZM36 17.96C34.9391 17.96 33.9217 18.3814 33.1716 19.1315C32.4214 19.8817 32 20.8991 32 21.96V27.96C32 28.2252 32.1054 28.4795 32.2929 28.6671C32.4804 28.8546 32.7348 28.96 33 28.96H39C39.2652 28.96 39.5196 28.8546 39.7071 28.6671C39.8946 28.4795 40 28.2252 40 27.96V21.96C40 20.8991 39.5786 19.8817 38.8284 19.1315C38.0783 18.3814 37.0609 17.96 36 17.96ZM34 26.96V21.96C34 21.4295 34.2107 20.9208 34.5858 20.5457C34.9609 20.1707 35.4696 19.96 36 19.96C36.5304 19.96 37.0391 20.1707 37.4142 20.5457C37.7893 20.9208 38 21.4295 38 21.96V26.96H34ZM36 30.96C34.9391 30.96 33.9217 31.3814 33.1716 32.1315C32.4214 32.8817 32 33.8991 32 34.96V40.96C32 41.2252 32.1054 41.4795 32.2929 41.6671C32.4804 41.8546 32.7348 41.96 33 41.96H39C39.2652 41.96 39.5196 41.8546 39.7071 41.6671C39.8946 41.4795 40 41.2252 40 40.96V34.96C40 33.8991 39.5786 32.8817 38.8284 32.1315C38.0783 31.3814 37.0609 30.96 36 30.96ZM34 39.96V34.96C34 34.4295 34.2107 33.9208 34.5858 33.5457C34.9609 33.1707 35.4696 32.96 36 32.96C36.5304 32.96 37.0391 33.1707 37.4142 33.5457C37.7893 33.9208 38 34.4295 38 34.96V39.96H34ZM43.1716 32.1315C43.9217 31.3814 44.9391 30.96 46 30.96C47.0609 30.96 48.0783 31.3814 48.8284 32.1315C49.5786 32.8817 50 33.8991 50 34.96V40.96C50 41.2252 49.8946 41.4795 49.7071 41.6671C49.5196 41.8546 49.2652 41.96 49 41.96H43C42.7348 41.96 42.4804 41.8546 42.2929 41.6671C42.1054 41.4795 42 41.2252 42 40.96V34.96C42 33.8991 42.4214 32.8817 43.1716 32.1315ZM44 34.96V39.96H48V34.96C48 34.4295 47.7893 33.9208 47.4142 33.5457C47.0391 33.1707 46.5304 32.96 46 32.96C45.4696 32.96 44.9609 33.1707 44.5858 33.5457C44.2107 33.9208 44 34.4295 44 34.96ZM46 17.96C44.9391 17.96 43.9217 18.3814 43.1716 19.1315C42.4214 19.8817 42 20.8991 42 21.96V27.96C42 28.2252 42.1054 28.4795 42.2929 28.6671C42.4804 28.8546 42.7348 28.96 43 28.96H49C49.2652 28.96 49.5196 28.8546 49.7071 28.6671C49.8946 28.4795 50 28.2252 50 27.96V21.96C50 20.8991 49.5786 19.8817 48.8284 19.1315C48.0783 18.3814 47.0609 17.96 46 17.96ZM48 26.96H44V21.96C44 21.4295 44.2107 20.9208 44.5858 20.5457C44.9609 20.1707 45.4696 19.96 46 19.96C46.5304 19.96 47.0391 20.1707 47.4142 20.5457C47.7893 20.9208 48 21.4295 48 21.96V26.96ZM53.1716 32.1315C53.9217 31.3814 54.9391 30.96 56 30.96C57.0609 30.96 58.0783 31.3814 58.8284 32.1315C59.5786 32.8817 60 33.8991 60 34.96V40.96C60 41.2252 59.8946 41.4795 59.7071 41.6671C59.5196 41.8546 59.2652 41.96 59 41.96H53C52.7348 41.96 52.4804 41.8546 52.2929 41.6671C52.1053 41.4795 52 41.2252 52 40.96V34.96C52 33.8991 52.4214 32.8817 53.1716 32.1315ZM54 34.96V39.96H58V34.96C58 34.4295 57.7893 33.9208 57.4142 33.5457C57.0391 33.1707 56.5304 32.96 56 32.96C55.4696 32.96 54.9609 33.1707 54.5858 33.5457C54.2107 33.9208 54 34.4295 54 34.96ZM56 17.96C54.9391 17.96 53.9217 18.3814 53.1716 19.1315C52.4214 19.8817 52 20.8991 52 21.96V27.96C52 28.2252 52.1053 28.4795 52.2929 28.6671C52.4804 28.8546 52.7348 28.96 53 28.96H59C59.2652 28.96 59.5196 28.8546 59.7071 28.6671C59.8946 28.4795 60 28.2252 60 27.96V21.96C60 20.8991 59.5786 19.8817 58.8284 19.1315C58.0783 18.3814 57.0609 17.96 56 17.96ZM58 26.96H54V21.96C54 21.4295 54.2107 20.9208 54.5858 20.5457C54.9609 20.1707 55.4696 19.96 56 19.96C56.5304 19.96 57.0391 20.1707 57.4142 20.5457C57.7893 20.9208 58 21.4295 58 21.96V26.96Z" fill="black"/>
</svg>
