<svg width="24" height="24" viewBox="0 0 24 24" fill="none" xmlns="http://www.w3.org/2000/svg">
<path fill-rule="evenodd" clip-rule="evenodd" d="M13.3125 5.21969C13.3641 5.29796 13.4056 5.38237 13.4362 5.47094C13.478 5.58769 13.4996 5.7107 13.5 5.83469V19.8822C13.5 20.1806 13.3815 20.4667 13.1705 20.6777C12.9595 20.8887 12.6734 21.0072 12.375 21.0072H1.125C0.826631 21.0072 0.540482 20.8887 0.329504 20.6777C0.118526 20.4667 0 20.1806 0 19.8822V5.84219C0.000699071 5.62142 0.0644466 5.40545 0.183746 5.21969L1.33875 3.49469C1.44109 3.34062 1.57984 3.21418 1.74271 3.12653C1.90558 3.03888 2.08754 2.99274 2.2725 2.99219H11.2312C11.4162 2.99274 11.5982 3.03888 11.761 3.12653C11.9239 3.21418 12.0627 3.34062 12.165 3.49469L13.3125 5.21969ZM2.09735 3.77913C2.04235 3.8086 1.99557 3.85133 1.96125 3.90345L1.0725 5.23469H12.4238L11.5387 3.90345C11.5044 3.85133 11.4576 3.8086 11.4026 3.77913C11.3476 3.74966 11.2861 3.73439 11.2237 3.73469H2.27625C2.21385 3.73439 2.15236 3.74966 2.09735 3.77913ZM6 18.0072V20.2572H7.5V18.0072C7.5 17.8083 7.42098 17.6175 7.28033 17.4769C7.13968 17.3362 6.94891 17.2572 6.75 17.2572C6.55109 17.2572 6.36032 17.3362 6.21967 17.4769C6.07902 17.6175 6 17.8083 6 18.0072ZM8.25 20.2572H12.375C12.4745 20.2572 12.5698 20.2177 12.6402 20.1474C12.7105 20.077 12.75 19.9816 12.75 19.8822V6.00719H0.75V19.8822C0.75 19.9816 0.789509 20.077 0.859835 20.1474C0.930161 20.2177 1.02554 20.2572 1.125 20.2572H5.25V18.0072C5.25 17.6094 5.40803 17.2278 5.68934 16.9465C5.97064 16.6652 6.35218 16.5072 6.75 16.5072C7.14782 16.5072 7.52936 16.6652 7.81066 16.9465C8.09197 17.2278 8.25 17.6094 8.25 18.0072V20.2572ZM3 6.73468C2.60218 6.73468 2.22064 6.89271 1.93934 7.17402C1.65803 7.45532 1.5 7.83686 1.5 8.23468V10.4847C1.5 10.5841 1.53951 10.6795 1.60983 10.7498C1.68016 10.8202 1.77554 10.8597 1.875 10.8597H4.125C4.22446 10.8597 4.31984 10.8202 4.39017 10.7498C4.46049 10.6795 4.5 10.5841 4.5 10.4847V8.23468C4.5 7.83686 4.34196 7.45532 4.06066 7.17402C3.77935 6.89271 3.39782 6.73468 3 6.73468ZM2.25 10.1097V8.23468C2.25 8.03577 2.32902 7.845 2.46967 7.70435C2.61032 7.5637 2.80109 7.48468 3 7.48468C3.19891 7.48468 3.38968 7.5637 3.53033 7.70435C3.67098 7.845 3.75 8.03577 3.75 8.23468V10.1097H2.25ZM3 11.6097C2.60218 11.6097 2.22064 11.7677 1.93934 12.049C1.65803 12.3303 1.5 12.7119 1.5 13.1097V15.3597C1.5 15.4591 1.53951 15.5545 1.60983 15.6248C1.68016 15.6952 1.77554 15.7347 1.875 15.7347H4.125C4.22446 15.7347 4.31984 15.6952 4.39017 15.6248C4.46049 15.5545 4.5 15.4591 4.5 15.3597V13.1097C4.5 12.7119 4.34196 12.3303 4.06066 12.049C3.77935 11.7677 3.39782 11.6097 3 11.6097ZM2.25 14.9847V13.1097C2.25 12.9108 2.32902 12.72 2.46967 12.5793C2.61032 12.4387 2.80109 12.3597 3 12.3597C3.19891 12.3597 3.38968 12.4387 3.53033 12.5793C3.67098 12.72 3.75 12.9108 3.75 13.1097V14.9847H2.25ZM5.68934 12.049C5.97064 11.7677 6.35218 11.6097 6.75 11.6097C7.14782 11.6097 7.52936 11.7677 7.81066 12.049C8.09197 12.3303 8.25 12.7119 8.25 13.1097V15.3597C8.25 15.4591 8.21049 15.5545 8.14016 15.6248C8.06983 15.6952 7.97446 15.7347 7.875 15.7347H5.625C5.52554 15.7347 5.43016 15.6952 5.35983 15.6248C5.28951 15.5545 5.25 15.4591 5.25 15.3597V13.1097C5.25 12.7119 5.40803 12.3303 5.68934 12.049ZM6 13.1097V14.9847H7.5V13.1097C7.5 12.9108 7.42098 12.72 7.28033 12.5793C7.13968 12.4387 6.94891 12.3597 6.75 12.3597C6.55109 12.3597 6.36032 12.4387 6.21967 12.5793C6.07902 12.72 6 12.9108 6 13.1097ZM6.75 6.73468C6.35218 6.73468 5.97064 6.89271 5.68934 7.17402C5.40803 7.45532 5.25 7.83686 5.25 8.23468V10.4847C5.25 10.5841 5.28951 10.6795 5.35983 10.7498C5.43016 10.8202 5.52554 10.8597 5.625 10.8597H7.875C7.97446 10.8597 8.06983 10.8202 8.14016 10.7498C8.21049 10.6795 8.25 10.5841 8.25 10.4847V8.23468C8.25 7.83686 8.09197 7.45532 7.81066 7.17402C7.52936 6.89271 7.14782 6.73468 6.75 6.73468ZM7.5 10.1097H6V8.23468C6 8.03577 6.07902 7.845 6.21967 7.70435C6.36032 7.5637 6.55109 7.48468 6.75 7.48468C6.94891 7.48468 7.13968 7.5637 7.28033 7.70435C7.42098 7.845 7.5 8.03577 7.5 8.23468V10.1097ZM9.43934 12.049C9.72064 11.7677 10.1022 11.6097 10.5 11.6097C10.8978 11.6097 11.2794 11.7677 11.5607 12.049C11.842 12.3303 12 12.7119 12 13.1097V15.3597C12 15.4591 11.9605 15.5545 11.8902 15.6248C11.8198 15.6952 11.7245 15.7347 11.625 15.7347H9.375C9.27554 15.7347 9.18015 15.6952 9.10983 15.6248C9.0395 15.5545 9 15.4591 9 15.3597V13.1097C9 12.7119 9.15803 12.3303 9.43934 12.049ZM9.75 13.1097V14.9847H11.25V13.1097C11.25 12.9108 11.171 12.72 11.0303 12.5793C10.8897 12.4387 10.6989 12.3597 10.5 12.3597C10.3011 12.3597 10.1103 12.4387 9.96967 12.5793C9.82902 12.72 9.75 12.9108 9.75 13.1097ZM10.5 6.73468C10.1022 6.73468 9.72064 6.89271 9.43934 7.17402C9.15803 7.45532 9 7.83686 9 8.23468V10.4847C9 10.5841 9.0395 10.6795 9.10983 10.7498C9.18015 10.8202 9.27554 10.8597 9.375 10.8597H11.625C11.7245 10.8597 11.8198 10.8202 11.8902 10.7498C11.9605 10.6795 12 10.5841 12 10.4847V8.23468C12 7.83686 11.842 7.45532 11.5607 7.17402C11.2794 6.89271 10.8978 6.73468 10.5 6.73468ZM11.25 10.1097H9.75V8.23468C9.75 8.03577 9.82902 7.845 9.96967 7.70435C10.1103 7.5637 10.3011 7.48468 10.5 7.48468C10.6989 7.48468 10.8897 7.5637 11.0303 7.70435C11.171 7.845 11.25 8.03577 11.25 8.23468V10.1097Z" fill="black"/>
</svg>
