<svg width="64" height="64" viewBox="0 0 64 64" fill="none" xmlns="http://www.w3.org/2000/svg">
<path d="M63.6991 54.3644L52.5091 43.1744C56.2111 39.1017 58.1734 33.7426 57.9768 28.2423C57.7801 22.7421 55.4401 17.5368 51.4567 13.7389C47.4733 9.94091 42.1625 7.85146 36.6591 7.91702C31.1557 7.98259 25.8962 10.198 22.0044 14.0897C18.1126 17.9815 15.8973 23.241 15.8317 28.7444C15.7662 34.2478 17.8556 39.5586 21.6536 43.542C25.4515 47.5254 30.6567 49.8654 36.157 50.0621C41.6573 50.2587 47.0164 48.2964 51.0891 44.5944L62.2791 55.7944C62.3726 55.8871 62.4834 55.9604 62.6052 56.0102C62.7271 56.06 62.8575 56.0852 62.9891 56.0844C63.1207 56.0852 63.2512 56.06 63.373 56.0102C63.4949 55.9604 63.6057 55.8871 63.6991 55.7944C63.7944 55.7013 63.87 55.5901 63.9217 55.4673C63.9734 55.3445 64 55.2127 64 55.0794C64 54.9462 63.9734 54.8143 63.9217 54.6916C63.87 54.5688 63.7944 54.4576 63.6991 54.3644V54.3644ZM17.9891 29.0744C17.9891 25.3166 19.1034 21.6431 21.1912 18.5186C23.2789 15.3941 26.2463 12.9588 29.7181 11.5207C33.1899 10.0827 37.0102 9.7064 40.6958 10.4395C44.3815 11.1726 47.767 12.9822 50.4242 15.6394C53.0814 18.2966 54.8909 21.6821 55.624 25.3677C56.3572 29.0533 55.9809 32.8736 54.5428 36.3454C53.1048 39.8172 50.6695 42.7846 47.545 44.8723C44.4204 46.9601 40.747 48.0744 36.9891 48.0744C31.95 48.0744 27.1173 46.0727 23.5541 42.5095C19.9909 38.9463 17.9891 34.1135 17.9891 29.0744V29.0744Z" fill="black"/>
</svg>
