<svg width="24" height="24" viewBox="0 0 24 24" fill="none" xmlns="http://www.w3.org/2000/svg">
<path fill-rule="evenodd" clip-rule="evenodd" d="M5.87033 12.3607C6.06947 12.3607 6.2309 12.5221 6.2309 12.7213V19.2115C6.2309 19.3072 6.26889 19.3989 6.33651 19.4665C6.40413 19.5341 6.49584 19.5721 6.59147 19.5721H9.8366V16.6875C9.8366 16.1138 10.0645 15.5635 10.4703 15.1578C10.876 14.7521 11.4262 14.5241 12 14.5241C12.5738 14.5241 13.1241 14.7521 13.5298 15.1578C13.9355 15.5635 14.1634 16.1138 14.1634 16.6875V19.5721H17.4086C17.5042 19.5721 17.5959 19.5341 17.6635 19.4665C17.7311 19.3989 17.7691 19.3072 17.7691 19.2115V13.0818C17.7691 12.8827 17.9306 12.7213 18.1297 12.7213C18.3288 12.7213 18.4903 12.8827 18.4903 13.0818V19.2115C18.4903 19.4984 18.3763 19.7736 18.1734 19.9764C17.9706 20.1793 17.6955 20.2932 17.4086 20.2932H14.1634C13.9722 20.2932 13.7888 20.2173 13.6535 20.082C13.5183 19.9468 13.4423 19.7634 13.4423 19.5721V16.6875C13.4423 16.305 13.2903 15.9382 13.0199 15.6677C12.7494 15.3972 12.3825 15.2453 12 15.2453C11.6175 15.2453 11.2507 15.3972 10.9802 15.6677C10.7097 15.9382 10.5577 16.305 10.5577 16.6875V19.5721C10.5577 19.7634 10.4818 19.9468 10.3465 20.082C10.2113 20.2173 10.0279 20.2932 9.8366 20.2932H6.59147C6.30459 20.2932 6.02945 20.1793 5.82659 19.9764C5.62373 19.7736 5.50976 19.4984 5.50976 19.2115V12.7213C5.50976 12.5221 5.67119 12.3607 5.87033 12.3607Z" fill="#000001"/>
<path fill-rule="evenodd" clip-rule="evenodd" d="M11.7451 3.81264C11.8859 3.67183 12.1142 3.67183 12.255 3.81264L20.5481 12.1057C20.6889 12.2466 20.6889 12.4749 20.5481 12.6157C20.4073 12.7565 20.179 12.7565 20.0382 12.6157L12 4.57752L3.96187 12.6157C3.82106 12.7565 3.59276 12.7565 3.45195 12.6157C3.31114 12.4749 3.31114 12.2466 3.45195 12.1057L11.7451 3.81264Z" fill="#000001"/>
<path fill-rule="evenodd" clip-rule="evenodd" d="M14.524 4.78874C14.524 4.5896 14.6854 4.42817 14.8846 4.42817H17.048C17.2393 4.42817 17.4227 4.50415 17.5579 4.63939C17.6932 4.77463 17.7691 4.95805 17.7691 5.14931V7.31273C17.7691 7.51187 17.6077 7.6733 17.4086 7.6733C17.2094 7.6733 17.048 7.51187 17.048 7.31273V5.14931L14.8846 5.14931C14.6854 5.14931 14.524 4.98788 14.524 4.78874Z" fill="#000001"/>
</svg>
