<svg width="24" height="24" viewBox="0 0 24 24" fill="none" xmlns="http://www.w3.org/2000/svg">
<path fill-rule="evenodd" clip-rule="evenodd" d="M18.75 11.0625V10.6875C18.75 8.89729 18.0388 7.18041 16.773 5.91454C15.5071 4.64866 13.7902 3.9375 12 3.9375C10.2098 3.9375 8.4929 4.64866 7.22703 5.91454C5.96116 7.18041 5.25 8.89729 5.25 10.6875V11.0625C5.57265 10.8205 5.96697 10.6875 6.375 10.6875H7.875C7.97446 10.6875 8.06984 10.727 8.14017 10.7973C8.21049 10.8677 8.25 10.963 8.25 11.0625V16.3125C8.25 16.412 8.21049 16.5073 8.14017 16.5777C8.06984 16.648 7.97446 16.6875 7.875 16.6875H6.375C5.87772 16.6875 5.40081 16.49 5.04918 16.1383C4.69755 15.7867 4.5 15.3098 4.5 14.8125V12.5625V10.6875C4.5 8.69838 5.29018 6.79073 6.6967 5.3842C8.10322 3.97768 10.0109 3.1875 12 3.1875C13.9891 3.1875 15.8968 3.97768 17.3033 5.3842C18.7098 6.79073 19.5 8.69838 19.5 10.6875V12.5625C19.5 12.5631 19.5 12.5636 19.5 12.5642V14.8125V17.0625C19.5 18.6337 18.2925 19.6875 16.5 19.6875H15.3274C15.2609 19.9448 15.1267 20.1821 14.9357 20.3732C14.6544 20.6545 14.2728 20.8125 13.875 20.8125C13.5783 20.8125 13.2883 20.7245 13.0416 20.5597C12.795 20.3949 12.6027 20.1606 12.4892 19.8865C12.3756 19.6124 12.3459 19.3108 12.4038 19.0199C12.4617 18.7289 12.6046 18.4616 12.8143 18.2518C13.0241 18.0421 13.2914 17.8992 13.5824 17.8413C13.8733 17.7834 14.1749 17.8131 14.449 17.9267C14.7231 18.0402 14.9574 18.2325 15.1222 18.4791C15.2164 18.6201 15.2854 18.7751 15.3274 18.9375H16.5C17.5387 18.9375 18.75 18.4462 18.75 17.0625V16.3125C18.4274 16.5545 18.033 16.6875 17.625 16.6875H16.125C16.0255 16.6875 15.9302 16.648 15.8598 16.5777C15.7895 16.5073 15.75 16.412 15.75 16.3125V11.0625C15.75 10.963 15.7895 10.8677 15.8598 10.7973C15.9302 10.727 16.0255 10.6875 16.125 10.6875H17.625C18.033 10.6875 18.4274 10.8205 18.75 11.0625ZM5.25 12.5627V14.8125C5.25 15.1109 5.36853 15.397 5.5795 15.608C5.79048 15.819 6.07663 15.9375 6.375 15.9375H7.5V11.4375H6.375C6.07663 11.4375 5.79048 11.556 5.5795 11.767C5.36853 11.978 5.25 12.2641 5.25 12.5625C5.25 12.5626 5.25 12.5626 5.25 12.5627ZM18.75 12.5625V14.8125C18.75 15.1109 18.6315 15.397 18.4205 15.608C18.2095 15.819 17.9234 15.9375 17.625 15.9375H16.5V11.4375H17.625C17.9234 11.4375 18.2095 11.556 18.4205 11.767C18.6315 11.978 18.75 12.2641 18.75 12.5625ZM14.4053 18.7822C14.5457 18.9226 14.6247 19.113 14.625 19.3115L14.625 19.3125C14.625 19.4608 14.581 19.6058 14.4986 19.7292C14.4162 19.8525 14.2991 19.9486 14.162 20.0054C14.025 20.0622 13.8742 20.077 13.7287 20.0481C13.5832 20.0191 13.4496 19.9477 13.3447 19.8428C13.2398 19.7379 13.1683 19.6043 13.1394 19.4588C13.1105 19.3133 13.1253 19.1625 13.1821 19.0255C13.2389 18.8884 13.335 18.7713 13.4583 18.6889C13.5817 18.6065 13.7267 18.5625 13.875 18.5625C14.0739 18.5625 14.2647 18.6415 14.4053 18.7822Z" fill="black"/>
</svg>
