<svg width="24" height="24" viewBox="0 0 24 24" fill="none" xmlns="http://www.w3.org/2000/svg">
<path fill-rule="evenodd" clip-rule="evenodd" d="M6.56625 15.5658H6.46875C6.41784 15.5491 6.37107 15.5218 6.33162 15.4856C6.29216 15.4493 6.26093 15.4051 6.24001 15.3558C5.94751 14.8533 5.82376 13.9795 6.90001 12.682C7.55327 11.9186 8.32728 11.2675 9.19125 10.7545C9.51087 10.5841 9.88248 10.5386 10.2338 10.627C10.2333 10.3532 10.2871 10.082 10.392 9.82902C10.4969 9.57607 10.6509 9.34641 10.845 9.15328C10.9762 9.02662 11.1237 8.91815 11.2837 8.83078C11.0292 8.57182 10.8819 8.22626 10.8713 7.86328V3.36328C10.8713 3.26383 10.9108 3.16844 10.9811 3.09811C11.0514 3.02778 11.1468 2.98828 11.2463 2.98828C11.4668 2.99134 11.6843 3.03949 11.8855 3.12978C12.0868 3.22006 12.2674 3.35057 12.4163 3.51328C13.4063 4.50328 13.7588 6.64828 13.7588 7.85203C13.749 8.21556 13.6031 8.56218 13.35 8.82328C13.5108 8.91421 13.6595 9.02509 13.7925 9.15328C14.1769 9.53753 14.395 10.0573 14.4 10.6008C14.7586 10.5182 15.1353 10.5788 15.45 10.7695L19.3275 13.0195C19.4122 13.0691 19.4742 13.1498 19.5 13.2445C19.527 13.3403 19.5148 13.4428 19.4663 13.5295C19.1063 14.152 18.4312 14.3808 17.6587 14.3808C16.3678 14.2959 15.1145 13.9107 13.9988 13.2558H13.965C13.6653 13.0737 13.4425 12.7883 13.3388 12.4533C13.0271 12.6278 12.6759 12.7195 12.3188 12.7195C11.9488 12.7181 11.5861 12.6171 11.2688 12.427C11.1775 12.7758 10.9561 13.0764 10.65 13.267L6.75375 15.517C6.6966 15.5494 6.63195 15.5662 6.56625 15.5658ZM15.0938 11.437C14.9809 11.3685 14.8508 11.3333 14.7188 11.3358H14.7113C14.6108 11.3398 14.5124 11.3657 14.4231 11.4117C14.3337 11.4577 14.2554 11.5226 14.1938 11.602C14.1601 11.6711 14.1212 11.7376 14.0775 11.8008C14.0257 11.9513 14.0272 12.1151 14.0819 12.2646C14.1365 12.4141 14.2409 12.5403 14.3775 12.622C15.675 13.372 17.7225 13.942 18.5663 13.4395L15.0938 11.437ZM11.8988 4.06453C11.8202 3.98459 11.7305 3.91638 11.6325 3.86203L11.6363 7.87078C11.6442 8.05175 11.7222 8.22255 11.8538 8.34703C11.9185 8.41143 11.996 8.46167 12.0812 8.49459C12.1664 8.52751 12.2575 8.54239 12.3488 8.53828C12.526 8.53265 12.6944 8.45973 12.8198 8.33434C12.9452 8.20896 13.0181 8.04052 13.0238 7.86328C13.0238 6.76078 12.675 4.84078 11.8988 4.06453ZM11.0967 10.1355C11.0296 10.2972 10.995 10.4706 10.995 10.6458L10.9988 10.6495C10.9988 10.8244 11.0332 10.9975 11.1001 11.159C11.167 11.3205 11.2651 11.4672 11.3887 11.5909C11.5123 11.7145 11.659 11.8125 11.8206 11.8794C11.9821 11.9463 12.1552 11.9808 12.33 11.9808C12.5453 11.9805 12.7572 11.9282 12.9479 11.8283C13.1386 11.7284 13.3023 11.5839 13.425 11.407C13.4415 11.366 13.4603 11.3259 13.4813 11.287C13.495 11.2662 13.5101 11.2461 13.5263 11.227C13.6132 11.0468 13.6593 10.8496 13.6613 10.6495C13.6618 10.4744 13.6277 10.3009 13.561 10.1389C13.4943 9.97698 13.3963 9.82978 13.2727 9.70577C13.149 9.58175 13.0021 9.48336 12.8403 9.41622C12.6786 9.34909 12.5051 9.31453 12.33 9.31453C12.1549 9.31404 11.9813 9.34811 11.8194 9.41479C11.6575 9.48147 11.5103 9.57945 11.3862 9.70311C11.2622 9.82678 11.1638 9.9737 11.0967 10.1355ZM9.56625 11.4445C8.78389 11.911 8.0823 12.5011 7.48875 13.192H7.48126C7.1925 13.5408 6.78376 14.1295 6.79126 14.6358L10.2637 12.637C10.3888 12.5556 10.4842 12.436 10.5359 12.296C10.5875 12.1561 10.5927 12.0032 10.5506 11.86C10.5085 11.7169 10.4214 11.5911 10.3021 11.5014C10.1829 11.4117 10.038 11.3628 9.88875 11.362C9.77605 11.3622 9.66518 11.3905 9.56625 11.4445ZM14.5725 20.2607H20.625C20.7245 20.2607 20.8198 20.3002 20.8902 20.3706C20.9605 20.4409 21 20.5363 21 20.6357C21 20.7352 20.9605 20.8305 20.8902 20.9009C20.8198 20.9712 20.7245 21.0107 20.625 21.0107H3.375C3.27554 21.0107 3.18017 20.9712 3.10984 20.9009C3.03951 20.8305 3 20.7352 3 20.6357C3 20.5363 3.03951 20.4409 3.10984 20.3706C3.18017 20.3002 3.27554 20.2607 3.375 20.2607H10.1775L11.1413 13.8332C11.1486 13.7844 11.1655 13.7376 11.1909 13.6953C11.2164 13.6531 11.2499 13.6163 11.2896 13.587C11.3294 13.5578 11.3745 13.5366 11.4223 13.5248C11.4702 13.513 11.52 13.5108 11.5688 13.5182C11.6175 13.5255 11.6644 13.5424 11.7066 13.5679C11.7489 13.5933 11.7857 13.6269 11.8149 13.6666C11.8442 13.7063 11.8654 13.7514 11.8772 13.7993C11.889 13.8472 11.8912 13.897 11.8838 13.9457L10.935 20.2607H13.815L12.8662 13.9382C12.8588 13.8895 12.861 13.8397 12.8729 13.7918C12.8847 13.7439 12.9058 13.6988 12.9351 13.6591C12.9643 13.6194 13.0011 13.5858 13.0434 13.5604C13.0856 13.5349 13.1325 13.518 13.1813 13.5107C13.23 13.5033 13.2798 13.5055 13.3277 13.5173C13.3756 13.5291 13.4206 13.5503 13.4604 13.5795C13.5001 13.6088 13.5336 13.6456 13.5591 13.6878C13.5845 13.7301 13.6014 13.7769 13.6088 13.8257L14.5725 20.2607Z" fill="black"/>
</svg>
