<svg width="64" height="64" viewBox="0 0 64 64" fill="none" xmlns="http://www.w3.org/2000/svg">
<g clip-path="url(#clip0_1181_1268)">
<path fill-rule="evenodd" clip-rule="evenodd" d="M25.1108 11.2133C29.222 8.46622 34.0555 7 39 7C45.6304 7 51.9893 9.63392 56.6777 14.3223C61.3661 19.0107 64 25.3696 64 32C64 36.9445 62.5338 41.778 59.7868 45.8893C57.0397 50.0005 53.1353 53.2048 48.5671 55.097C43.9989 56.9892 38.9723 57.4843 34.1228 56.5196C29.2732 55.555 24.8187 53.174 21.3223 49.6777C17.826 46.1814 15.445 41.7268 14.4804 36.8773C13.5157 32.0277 14.0108 27.0011 15.903 22.4329C17.7952 17.8648 20.9995 13.9603 25.1108 11.2133ZM26.2663 51.0573C30.0355 53.5758 34.4669 54.92 39 54.92C45.0771 54.9147 50.9039 52.4982 55.201 48.201C59.4982 43.9039 61.9147 38.0771 61.92 32C61.92 27.4669 60.5758 23.0355 58.0573 19.2663C55.5388 15.4972 51.9592 12.5594 47.7711 10.8247C43.583 9.08992 38.9746 8.63603 34.5285 9.5204C30.0825 10.4048 25.9985 12.5877 22.7931 15.7931C19.5877 18.9985 17.4048 23.0825 16.5204 27.5285C15.636 31.9746 16.0899 36.583 17.8247 40.7711C19.5595 44.9592 22.4972 48.5388 26.2663 51.0573ZM37.37 38.9997L50.66 20.9997C50.8271 20.7703 51.0785 20.6166 51.3588 20.5726C51.6392 20.5285 51.9256 20.5976 52.155 20.7647C52.3844 20.9318 52.5381 21.1831 52.5821 21.4635C52.6262 21.7439 52.5571 22.0303 52.39 22.2597L39.1 40.2597C38.8475 40.6008 38.5286 40.8873 38.1626 41.1021C37.7966 41.3169 37.3909 41.4556 36.97 41.5097H36.58C35.8552 41.5183 35.1493 41.2783 34.58 40.8297L25.85 33.8297C25.7376 33.7476 25.6435 33.643 25.5738 33.5226C25.5041 33.4021 25.4603 33.2684 25.4453 33.13C25.4302 32.9917 25.4442 32.8517 25.4863 32.719C25.5285 32.5864 25.5979 32.464 25.69 32.3597C25.7721 32.2488 25.8761 32.1561 25.9958 32.0873C26.1154 32.0186 26.2479 31.9754 26.385 31.9603C26.5221 31.9453 26.6609 31.9588 26.7925 32C26.9242 32.0412 27.0459 32.1092 27.15 32.1997L35.88 39.1997C36.1021 39.3705 36.3814 39.4493 36.66 39.4197C36.8003 39.4001 36.9352 39.353 37.0571 39.2809C37.179 39.2088 37.2853 39.1132 37.37 38.9997Z" fill="black"/>
</g>
<defs>
<clipPath id="clip0_1181_1268">
<rect width="64" height="64" fill="white"/>
</clipPath>
</defs>
</svg>
