<svg width="64" height="64" viewBox="0 0 64 64" fill="none" xmlns="http://www.w3.org/2000/svg">
<path fill-rule="evenodd" clip-rule="evenodd" d="M10.2929 19.7071C10.4804 19.8947 10.7348 20 11 20C11.2652 20 11.5196 19.8947 11.7071 19.7071C11.8946 19.5196 12 19.2652 12 19V14H36V19C36 19.2652 36.1054 19.5196 36.2929 19.7071C36.4804 19.8947 36.7348 20 37 20C37.2652 20 37.5196 19.8947 37.7071 19.7071C37.8946 19.5196 38 19.2652 38 19V14H45C45.2652 14 45.5196 14.1054 45.7071 14.2929C45.8946 14.4804 46 14.7348 46 15V22H2V15C2 14.7348 2.10536 14.4804 2.29289 14.2929C2.48043 14.1054 2.73478 14 3 14H10V19C10 19.2652 10.1054 19.5196 10.2929 19.7071ZM2 24H46V53C46 53.2652 45.8946 53.5196 45.7071 53.7071C45.5196 53.8947 45.2652 54 45 54H3C2.73478 54 2.48043 53.8947 2.29289 53.7071C2.10536 53.5196 2 53.2652 2 53V24ZM48 23V15C48 14.2044 47.6839 13.4413 47.1213 12.8787C46.5587 12.3161 45.7957 12 45 12H38V9C38 8.73478 37.8946 8.48044 37.7071 8.29291C37.5196 8.10537 37.2652 8 37 8C36.7348 8 36.4804 8.10537 36.2929 8.29291C36.1054 8.48044 36 8.73478 36 9V12H12V9C12 8.73478 11.8946 8.48044 11.7071 8.29291C11.5196 8.10537 11.2652 8 11 8C10.7348 8 10.4804 8.10537 10.2929 8.29291C10.1054 8.48044 10 8.73478 10 9V12H3C2.20435 12 1.44129 12.3161 0.878677 12.8787C0.316068 13.4413 0 14.2044 0 15V23V53C0 53.7957 0.316068 54.5587 0.878677 55.1213C1.44129 55.6839 2.20435 56 3 56H45C45.7957 56 46.5587 55.6839 47.1213 55.1213C47.6839 54.5587 48 53.7957 48 53V23Z" fill="black"/>
</svg>
