<svg width="64" height="64" viewBox="0 0 64 64" fill="none" xmlns="http://www.w3.org/2000/svg">
<path fill-rule="evenodd" clip-rule="evenodd" d="M26.35 9.09L35.29 19.97C35.7379 20.499 35.9888 21.1669 36 21.86V53C36 53.7957 35.6839 54.5587 35.1213 55.1213C34.5587 55.6839 33.7957 56 33 56H3C2.20435 56 1.4413 55.6839 0.878693 55.1213C0.316083 54.5587 0 53.7957 0 53V11C0 10.2044 0.316083 9.44127 0.878693 8.87866C1.4413 8.31605 2.20435 8 3 8H24.04C24.4815 8.0005 24.9175 8.09845 25.3168 8.28687C25.7161 8.47528 26.0689 8.74952 26.35 9.09ZM33.6871 53.6771C33.8746 53.4896 33.98 53.2352 33.98 52.97V21.85C33.9781 21.6198 33.8969 21.3972 33.75 21.22L24.81 10.33C24.7149 10.2158 24.5956 10.1242 24.4606 10.062C24.3257 9.99968 24.1786 9.96825 24.03 9.96997H19.98V16.97C19.98 17.2352 19.8746 17.4896 19.6871 17.6771C19.4996 17.8646 19.2452 17.97 18.98 17.97C18.7148 17.97 18.4604 17.8646 18.2729 17.6771C18.0854 17.4896 17.98 17.2352 17.98 16.97V9.96997H13.98V16.97C13.98 17.2352 13.8746 17.4896 13.6871 17.6771C13.4996 17.8646 13.2452 17.97 12.98 17.97C12.7148 17.97 12.4604 17.8646 12.2729 17.6771C12.0854 17.4896 11.98 17.2352 11.98 16.97V9.96997H7.98001V16.97C7.98001 17.2352 7.87464 17.4896 7.6871 17.6771C7.49957 17.8646 7.24523 17.97 6.98001 17.97C6.71479 17.97 6.46042 17.8646 6.27289 17.6771C6.08535 17.4896 5.98001 17.2352 5.98001 16.97V9.96997H2.98001C2.71479 9.96997 2.46042 10.0753 2.27289 10.2629C2.08535 10.4504 1.98001 10.7048 1.98001 10.97V52.97C1.98001 53.2352 2.08535 53.4896 2.27289 53.6771C2.46042 53.8646 2.71479 53.97 2.98001 53.97H32.98C33.2452 53.97 33.4996 53.8646 33.6871 53.6771ZM11 30H25C26.3261 30 27.5979 30.5268 28.5356 31.4644C29.4732 32.4021 30 33.6739 30 35V45C30 46.3261 29.4732 47.5978 28.5356 48.5355C27.5979 49.4732 26.3261 50 25 50H11C9.67392 50 8.40216 49.4732 7.46448 48.5355C6.5268 47.5978 6 46.3261 6 45V35C6 33.6739 6.5268 32.4021 7.46448 31.4644C8.40216 30.5268 9.67392 30 11 30ZM12 38H8V42H12V38ZM22 32H14V48H22V32ZM28 38H24V42H28V38ZM28 36V35C28 34.2044 27.6839 33.4413 27.1213 32.8787C26.5587 32.3161 25.7956 32 25 32H24V36H28ZM12 32H11C10.2044 32 9.4413 32.3161 8.87869 32.8787C8.31608 33.4413 8 34.2044 8 35V36H12V32ZM8 44V45C8 45.7957 8.31608 46.5587 8.87869 47.1213C9.4413 47.6839 10.2044 48 11 48H12V44H8ZM24 48H25C25.7956 48 26.5587 47.6839 27.1213 47.1213C27.6839 46.5587 28 45.7957 28 45V44H24V48Z" fill="black"/>
</svg>
