<svg width="64" height="64" viewBox="0 0 64 64" fill="none" xmlns="http://www.w3.org/2000/svg">
<path fill-rule="evenodd" clip-rule="evenodd" d="M61.75 2.35C62.2471 2.35 62.65 2.75294 62.65 3.25C62.65 3.74706 62.2471 4.15 61.75 4.15H60.805H60.805C59.8643 4.15006 58.9523 4.47358 58.2219 5.06629C57.4914 5.65901 56.987 6.48489 56.7932 7.4054L55.005 15.9002C55.0009 15.9245 54.9959 15.9485 54.9899 15.9721L48.4657 46.9654L47.7507 46.8149L48.4657 46.9654C48.1868 48.29 47.461 49.4785 46.4098 50.3314C45.3587 51.1844 44.0462 51.6499 42.6925 51.65H14.25C13.7529 51.65 13.35 51.2471 13.35 50.75C13.35 50.2529 13.7529 49.85 14.25 49.85H42.6925C43.6331 49.85 44.5452 49.5264 45.2756 48.9337C46.0061 48.341 46.5105 47.5151 46.7043 46.5946L47.2189 44.15H17.4775H17.4774C15.6347 44.1498 13.8432 43.5436 12.3789 42.4249C10.9146 41.3062 9.85887 39.7371 9.37422 37.9594L9.37418 37.9592L4.24172 19.1444L4.24168 19.1442C4.10418 18.6398 4.08485 18.1105 4.18521 17.5974C4.28557 17.0843 4.5029 16.6012 4.82032 16.1858C5.13773 15.7703 5.54668 15.4337 6.01537 15.202C6.484 14.9704 6.99974 14.8499 7.5225 14.85H7.52268H53.3866L55.0318 7.03461L55.0318 7.0346C55.3107 5.70997 56.0365 4.52151 57.0877 3.66857C58.1388 2.81562 59.4513 2.35007 60.805 2.35H60.805H61.75ZM53.0077 16.65L47.5978 42.35H17.4776H17.4775C16.0297 42.3498 14.6221 41.8735 13.4716 40.9946C12.3211 40.1156 11.4916 38.8827 11.1108 37.4858L11.1108 37.4856L5.97831 18.6708L5.97827 18.6706C5.9136 18.4333 5.90452 18.1843 5.95174 17.9429C5.99896 17.7014 6.10124 17.4741 6.25061 17.2786C6.39998 17.0831 6.59243 16.9247 6.81299 16.8157C7.03355 16.7066 7.27628 16.65 7.52231 16.65H7.5225H53.0077ZM47.538 53.712C46.666 52.8399 45.4833 52.35 44.25 52.35C43.0167 52.35 41.834 52.8399 40.962 53.712C40.0899 54.584 39.6 55.7667 39.6 57C39.6 58.2333 40.0899 59.416 40.962 60.288C41.834 61.1601 43.0167 61.65 44.25 61.65C45.4833 61.65 46.666 61.1601 47.538 60.288C48.4101 59.416 48.9 58.2333 48.9 57C48.9 55.7667 48.4101 54.584 47.538 53.712ZM44.25 54.15C45.0059 54.15 45.7308 54.4503 46.2653 54.9847C46.7997 55.5192 47.1 56.2441 47.1 57C47.1 57.7559 46.7997 58.4808 46.2653 59.0153C45.7308 59.5497 45.0059 59.85 44.25 59.85C43.4941 59.85 42.7692 59.5497 42.2347 59.0153C41.7003 58.4808 41.4 57.7559 41.4 57C41.4 56.2441 41.7003 55.5192 42.2347 54.9847C42.7692 54.4503 43.4941 54.15 44.25 54.15ZM19.25 52.35C20.4833 52.35 21.666 52.8399 22.538 53.712C23.4101 54.584 23.9 55.7667 23.9 57C23.9 58.2333 23.4101 59.416 22.538 60.288C21.666 61.1601 20.4833 61.65 19.25 61.65C18.0167 61.65 16.834 61.1601 15.962 60.288C15.0899 59.416 14.6 58.2333 14.6 57C14.6 55.7667 15.0899 54.584 15.962 53.712C16.834 52.8399 18.0167 52.35 19.25 52.35ZM21.2653 54.9847C20.7308 54.4503 20.0059 54.15 19.25 54.15C18.4941 54.15 17.7692 54.4503 17.2347 54.9847C16.7003 55.5192 16.4 56.2441 16.4 57C16.4 57.7559 16.7003 58.4808 17.2347 59.0153C17.7692 59.5497 18.4941 59.85 19.25 59.85C20.0059 59.85 20.7308 59.5497 21.2653 59.0153C21.7997 58.4808 22.1 57.7559 22.1 57C22.1 56.2441 21.7997 55.5192 21.2653 54.9847Z" fill="black"/>
</svg>
