<svg width="24" height="24" viewBox="0 0 24 24" fill="none" xmlns="http://www.w3.org/2000/svg">
<path fill-rule="evenodd" clip-rule="evenodd" d="M4.125 20.25H10.875C10.9745 20.25 11.0698 20.2895 11.1402 20.3598C11.2105 20.4302 11.25 20.5255 11.25 20.625C11.25 20.7245 11.2105 20.8198 11.1402 20.8902C11.0698 20.9605 10.9745 21 10.875 21H4.125C3.82663 21 3.54048 20.8815 3.3295 20.6705C3.11853 20.4595 3 20.1734 3 19.875V4.125C3 3.82663 3.11853 3.54049 3.3295 3.32951C3.54048 3.11853 3.82663 3 4.125 3H14.0962C14.3945 3.00026 14.6805 3.11896 14.8912 3.33L17.67 6.10875C17.881 6.31953 17.9997 6.60548 18 6.90375V9.375C18 9.47446 17.9605 9.56984 17.8902 9.64017C17.8198 9.7105 17.7245 9.75 17.625 9.75C17.5255 9.75 17.4302 9.7105 17.3598 9.64017C17.2895 9.56984 17.25 9.47446 17.25 9.375V6.90375C17.2496 6.80537 17.2105 6.71109 17.1412 6.64125L14.3588 3.85875C14.2889 3.78947 14.1946 3.75041 14.0962 3.75H4.125C4.02554 3.75 3.93016 3.78951 3.85983 3.85984C3.78951 3.93017 3.75 4.02554 3.75 4.125V19.875C3.75 19.9745 3.78951 20.0698 3.85983 20.1402C3.93016 20.2105 4.02554 20.25 4.125 20.25ZM6.375 7.5H11.625C11.7245 7.5 11.8198 7.4605 11.8902 7.39017C11.9605 7.31984 12 7.22446 12 7.125C12 7.02554 11.9605 6.93017 11.8902 6.85984C11.8198 6.78951 11.7245 6.75 11.625 6.75H6.375C6.27554 6.75 6.18016 6.78951 6.10983 6.85984C6.03951 6.93017 6 7.02554 6 7.125C6 7.22446 6.03951 7.31984 6.10983 7.39017C6.18016 7.4605 6.27554 7.5 6.375 7.5ZM13.7652 9.10984C13.8355 9.18017 13.875 9.27554 13.875 9.375C13.875 9.47446 13.8355 9.56984 13.7652 9.64017C13.6948 9.7105 13.5995 9.75 13.5 9.75H6.375C6.27554 9.75 6.18016 9.7105 6.10983 9.64017C6.03951 9.56984 6 9.47446 6 9.375C6 9.27554 6.03951 9.18017 6.10983 9.10984C6.18016 9.03951 6.27554 9 6.375 9H13.5C13.5995 9 13.6948 9.03951 13.7652 9.10984ZM11.1402 11.3598C11.2105 11.4302 11.25 11.5255 11.25 11.625C11.25 11.7245 11.2105 11.8198 11.1402 11.8902C11.0698 11.9605 10.9745 12 10.875 12H6.375C6.27554 12 6.18016 11.9605 6.10983 11.8902C6.03951 11.8198 6 11.7245 6 11.625C6 11.5255 6.03951 11.4302 6.10983 11.3598C6.18016 11.2895 6.27554 11.25 6.375 11.25H10.875C10.9745 11.25 11.0698 11.2895 11.1402 11.3598ZM6.375 13.5H9.375C9.47446 13.5 9.56984 13.5395 9.64017 13.6098C9.71049 13.6802 9.75 13.7755 9.75 13.875C9.75 13.9745 9.71049 14.0698 9.64017 14.1402C9.56984 14.2105 9.47446 14.25 9.375 14.25H6.375C6.27554 14.25 6.18016 14.2105 6.10983 14.1402C6.03951 14.0698 6 13.9745 6 13.875C6 13.7755 6.03951 13.6802 6.10983 13.6098C6.18016 13.5395 6.27554 13.5 6.375 13.5ZM9.375 15.75H6.375C6.27554 15.75 6.18016 15.7895 6.10983 15.8598C6.03951 15.9302 6 16.0255 6 16.125C6 16.2245 6.03951 16.3198 6.10983 16.3902C6.18016 16.4605 6.27554 16.5 6.375 16.5H9.375C9.47446 16.5 9.56984 16.4605 9.64017 16.3902C9.71049 16.3198 9.75 16.2245 9.75 16.125C9.75 16.0255 9.71049 15.9302 9.64017 15.8598C9.56984 15.7895 9.47446 15.75 9.375 15.75ZM16.125 11.25C15.1608 11.25 14.2183 11.5359 13.4166 12.0716C12.6149 12.6073 11.9901 13.3686 11.6211 14.2594C11.2521 15.1502 11.1556 16.1304 11.3437 17.0761C11.5318 18.0217 11.9961 18.8904 12.6779 19.5721C13.3596 20.2539 14.2283 20.7182 15.1739 20.9063C16.1196 21.0944 17.0998 20.9979 17.9906 20.6289C18.8814 20.2599 19.6427 19.6351 20.1784 18.8334C20.7141 18.0317 21 17.0892 21 16.125C21 14.8321 20.4864 13.5921 19.5721 12.6779C18.6579 11.7636 17.4179 11.25 16.125 11.25ZM16.125 20.25C15.3092 20.25 14.5116 20.0081 13.8333 19.5548C13.1549 19.1016 12.6262 18.4573 12.314 17.7036C12.0018 16.9498 11.9201 16.1204 12.0793 15.3203C12.2384 14.5201 12.6313 13.7851 13.2082 13.2082C13.7851 12.6313 14.5201 12.2384 15.3203 12.0793C16.1204 11.9201 16.9498 12.0018 17.7036 12.314C18.4573 12.6262 19.1016 13.1549 19.5548 13.8333C20.0081 14.5116 20.25 15.3092 20.25 16.125C20.25 17.219 19.8154 18.2682 19.0418 19.0418C18.2682 19.8154 17.219 20.25 16.125 20.25ZM16.2675 13.53C16.3139 13.5471 16.356 13.574 16.3912 13.6087L18.0787 15.2962C18.1139 15.3311 18.1418 15.3726 18.1608 15.4182C18.1799 15.4639 18.1897 15.513 18.1897 15.5625C18.1897 15.612 18.1799 15.661 18.1608 15.7067C18.1418 15.7524 18.1139 15.7939 18.0787 15.8287C18.0437 15.8635 18.0022 15.891 17.9565 15.9096C17.9108 15.9283 17.8619 15.9378 17.8125 15.9375C17.7631 15.9378 17.7142 15.9283 17.6685 15.9096C17.6228 15.891 17.5813 15.8635 17.5463 15.8287L16.5 14.7787V18.375C16.5 18.4744 16.4605 18.5698 16.3902 18.6401C16.3198 18.7105 16.2245 18.75 16.125 18.75C16.0255 18.75 15.9302 18.7105 15.8598 18.6401C15.7895 18.5698 15.75 18.4744 15.75 18.375V14.7787L14.7037 15.8287C14.6687 15.8635 14.6272 15.891 14.5815 15.9096C14.5358 15.9283 14.4869 15.9378 14.4375 15.9375C14.3881 15.9378 14.3392 15.9283 14.2935 15.9096C14.2478 15.891 14.2063 15.8635 14.1713 15.8287C14.1361 15.7939 14.1082 15.7524 14.0892 15.7067C14.0701 15.661 14.0603 15.612 14.0603 15.5625C14.0603 15.513 14.0701 15.4639 14.0892 15.4182C14.1082 15.3726 14.1361 15.3311 14.1713 15.2962L15.8588 13.6087C15.8952 13.5756 15.9371 13.549 15.9825 13.53C16.0738 13.4925 16.1762 13.4925 16.2675 13.53Z" fill="black"/>
</svg>
