<svg width="64" height="64" viewBox="0 0 64 64" fill="none" xmlns="http://www.w3.org/2000/svg">
<g clip-path="url(#clip0_492_1182)">
<path fill-rule="evenodd" clip-rule="evenodd" d="M19 54H37C37.2652 54 37.5196 54.1054 37.7071 54.2929C37.8946 54.4804 38 54.7348 38 55C38 55.2652 37.8946 55.5196 37.7071 55.7071C37.5196 55.8947 37.2652 56 37 56H19C18.2044 56 17.4413 55.6839 16.8787 55.1213C16.3161 54.5587 16 53.7957 16 53V11C16 10.2044 16.3161 9.4413 16.8787 8.87869C17.4413 8.31608 18.2044 8 19 8H45.59C46.3854 8.0007 47.1479 8.31723 47.71 8.88L55.12 16.29C55.6828 16.8521 55.9993 17.6146 56 18.41V25C56 25.2652 55.8946 25.5196 55.7071 25.7071C55.5196 25.8947 55.2652 26 55 26C54.7348 26 54.4804 25.8947 54.2929 25.7071C54.1053 25.5196 54 25.2652 54 25V18.41C53.9989 18.1477 53.8947 17.8963 53.71 17.71L46.29 10.29C46.1037 10.1053 45.8523 10.0011 45.59 10H19C18.7348 10 18.4804 10.1054 18.2929 10.2929C18.1054 10.4804 18 10.7348 18 11V53C18 53.2652 18.1054 53.5196 18.2929 53.7071C18.4804 53.8947 18.7348 54 19 54ZM25 20H39C39.2652 20 39.5196 19.8947 39.7071 19.7071C39.8946 19.5196 40 19.2652 40 19C40 18.7348 39.8946 18.4804 39.7071 18.2929C39.5196 18.1054 39.2652 18 39 18H25C24.7348 18 24.4804 18.1054 24.2929 18.2929C24.1054 18.4804 24 18.7348 24 19C24 19.2652 24.1054 19.5196 24.2929 19.7071C24.4804 19.8947 24.7348 20 25 20ZM44.7071 24.2929C44.8946 24.4804 45 24.7348 45 25C45 25.2652 44.8946 25.5196 44.7071 25.7071C44.5196 25.8947 44.2652 26 44 26H25C24.7348 26 24.4804 25.8947 24.2929 25.7071C24.1054 25.5196 24 25.2652 24 25C24 24.7348 24.1054 24.4804 24.2929 24.2929C24.4804 24.1054 24.7348 24 25 24H44C44.2652 24 44.5196 24.1054 44.7071 24.2929ZM37.7071 30.2929C37.8946 30.4804 38 30.7348 38 31C38 31.2652 37.8946 31.5196 37.7071 31.7071C37.5196 31.8947 37.2652 32 37 32H25C24.7348 32 24.4804 31.8947 24.2929 31.7071C24.1054 31.5196 24 31.2652 24 31C24 30.7348 24.1054 30.4804 24.2929 30.2929C24.4804 30.1054 24.7348 30 25 30H37C37.2652 30 37.5196 30.1054 37.7071 30.2929ZM25 36H33C33.2652 36 33.5196 36.1054 33.7071 36.2929C33.8946 36.4804 34 36.7348 34 37C34 37.2652 33.8946 37.5196 33.7071 37.7071C33.5196 37.8947 33.2652 38 33 38H25C24.7348 38 24.4804 37.8947 24.2929 37.7071C24.1054 37.5196 24 37.2652 24 37C24 36.7348 24.1054 36.4804 24.2929 36.2929C24.4804 36.1054 24.7348 36 25 36ZM33 42H25C24.7348 42 24.4804 42.1054 24.2929 42.2929C24.1054 42.4804 24 42.7348 24 43C24 43.2652 24.1054 43.5196 24.2929 43.7071C24.4804 43.8947 24.7348 44 25 44H33C33.2652 44 33.5196 43.8947 33.7071 43.7071C33.8946 43.5196 34 43.2652 34 43C34 42.7348 33.8946 42.4804 33.7071 42.2929C33.5196 42.1054 33.2652 42 33 42ZM51 30C48.4289 30 45.9154 30.7624 43.7776 32.1909C41.6398 33.6193 39.9735 35.6497 38.9896 38.0251C38.0056 40.4006 37.7482 43.0144 38.2498 45.5362C38.7514 48.0579 39.9895 50.3743 41.8076 52.1924C43.6257 54.0105 45.9421 55.2486 48.4638 55.7502C50.9856 56.2518 53.5995 55.9944 55.9749 55.0104C58.3503 54.0265 60.3807 52.3603 61.8091 50.2224C63.2376 48.0846 64 45.5712 64 43C64 39.5522 62.6304 36.2456 60.1924 33.8076C57.7544 31.3696 54.4478 30 51 30ZM51 54C48.8244 54 46.6977 53.3549 44.8887 52.1462C43.0798 50.9375 41.6699 49.2195 40.8373 47.2095C40.0048 45.1995 39.7869 42.9878 40.2114 40.854C40.6358 38.7202 41.6835 36.7602 43.2218 35.2218C44.7602 33.6835 46.7202 32.6358 48.854 32.2114C50.9878 31.7869 53.1995 32.0048 55.2095 32.8373C57.2195 33.6699 58.9375 35.0798 60.1462 36.8887C61.3549 38.6977 62 40.8244 62 43C62 45.9174 60.8411 48.7153 58.7782 50.7782C56.7153 52.8411 53.9174 54 51 54ZM51.38 36.0799C51.5036 36.1257 51.6161 36.1973 51.71 36.2899L56.21 40.7899C56.3037 40.8829 56.3781 40.9935 56.4289 41.1153C56.4797 41.2372 56.5058 41.3679 56.5058 41.4999C56.5058 41.6319 56.4797 41.7626 56.4289 41.8845C56.3781 42.0064 56.3037 42.1169 56.21 42.2099C56.1166 42.3026 56.0057 42.3759 55.8839 42.4257C55.7621 42.4755 55.6316 42.5007 55.5 42.4999C55.3684 42.5007 55.2379 42.4755 55.1161 42.4257C54.9943 42.3759 54.8834 42.3026 54.79 42.2099L52 39.4099V48.9999C52 49.2651 51.8946 49.5195 51.7071 49.707C51.5196 49.8946 51.2652 49.9999 51 49.9999C50.7348 49.9999 50.4804 49.8946 50.2929 49.707C50.1053 49.5195 50 49.2651 50 48.9999V39.4099L47.21 42.2099C47.1166 42.3026 47.0057 42.3759 46.8839 42.4257C46.7621 42.4755 46.6316 42.5007 46.5 42.4999C46.3684 42.5007 46.2379 42.4755 46.1161 42.4257C45.9943 42.3759 45.8834 42.3026 45.79 42.2099C45.6963 42.1169 45.6219 42.0064 45.5711 41.8845C45.5203 41.7626 45.4942 41.6319 45.4942 41.4999C45.4942 41.3679 45.5203 41.2372 45.5711 41.1153C45.6219 40.9935 45.6963 40.8829 45.79 40.7899L50.29 36.2899C50.3872 36.2016 50.4988 36.1305 50.62 36.0799C50.8635 35.9799 51.1365 35.9799 51.38 36.0799Z" fill="black"/>
</g>
<defs>
<clipPath id="clip0_492_1182">
<rect width="64" height="64" fill="white"/>
</clipPath>
</defs>
</svg>
