<svg width="24" height="24" viewBox="0 0 24 24" fill="none" xmlns="http://www.w3.org/2000/svg">
<path fill-rule="evenodd" clip-rule="evenodd" d="M9.69376 7.38762H0.390003C0.290547 7.38762 0.195164 7.34811 0.124838 7.27778C0.0545117 7.20746 0.0150032 7.11208 0.0150032 7.01262C0.0150032 6.91317 0.0545117 6.81778 0.124838 6.74745C0.195164 6.67713 0.290547 6.63762 0.390003 6.63762H9.69376C9.89267 6.63762 10.0834 6.55861 10.2241 6.41795C10.3647 6.2773 10.4438 6.08653 10.4438 5.88762C10.4438 5.75037 10.3892 5.61874 10.2922 5.52169C10.1951 5.42464 10.0635 5.37012 9.92625 5.37012C9.85505 5.37058 9.78569 5.39282 9.7275 5.43386C9.64678 5.48728 9.54852 5.50742 9.45329 5.49005C9.35807 5.47269 9.27324 5.41917 9.21657 5.3407C9.15989 5.26222 9.13576 5.16487 9.14921 5.06902C9.16267 4.97316 9.21267 4.8862 9.28875 4.82637C9.47262 4.69182 9.69467 4.61956 9.9225 4.62012C10.2587 4.62012 10.5811 4.75366 10.8188 4.99137C11.0565 5.22907 11.19 5.55146 11.19 5.88762C11.19 6.2848 11.0325 6.66576 10.752 6.94696C10.4715 7.22815 10.0909 7.38663 9.69376 7.38762ZM15.39 10.7664H0.390003C0.290547 10.7664 0.195164 10.7269 0.124838 10.6565C0.0545117 10.5862 0.0150032 10.4908 0.0150032 10.3914C0.0150032 10.2919 0.0545117 10.1965 0.124838 10.1262C0.195164 10.0559 0.290547 10.0164 0.390003 10.0164H15.39C15.7878 10.0164 16.1694 9.85833 16.4507 9.57702C16.732 9.29572 16.89 8.91419 16.89 8.51636C16.89 8.21799 16.7715 7.93185 16.5605 7.72087C16.3495 7.50989 16.0634 7.39136 15.765 7.39136C15.5462 7.39136 15.3364 7.47829 15.1816 7.633C15.0269 7.78772 14.94 7.99756 14.94 8.21637C14.94 8.31582 14.9005 8.4112 14.8302 8.48153C14.7598 8.55185 14.6645 8.59137 14.565 8.59137C14.4655 8.59137 14.3702 8.55185 14.2998 8.48153C14.2295 8.4112 14.19 8.31582 14.19 8.21637C14.191 7.79895 14.3573 7.39893 14.6524 7.10377C14.9476 6.80862 15.3476 6.64235 15.765 6.64136C16.2623 6.64136 16.7392 6.83891 17.0908 7.19054C17.4425 7.54217 17.64 8.01908 17.64 8.51636C17.64 9.1131 17.403 9.6854 16.981 10.1074C16.559 10.5293 15.9867 10.7664 15.39 10.7664ZM8.36526 18.7211C8.78722 19.1431 9.35951 19.3801 9.95625 19.3801C10.6727 19.3801 11.3598 19.0958 11.8668 18.5895C12.3737 18.0833 12.659 17.3965 12.66 16.6801C12.66 15.8085 12.314 14.9726 11.6981 14.3559C11.0821 13.7393 10.2466 13.3924 9.375 13.3914H0.375C0.275544 13.3914 0.180161 13.4309 0.109835 13.5012C0.0395085 13.5715 0 13.6669 0 13.7664C0 13.8658 0.0395085 13.9612 0.109835 14.0315C0.180161 14.1019 0.275544 14.1414 0.375 14.1414H9.375C10.0477 14.1424 10.6924 14.4103 11.1677 14.8863C11.643 15.3623 11.91 16.0074 11.91 16.6801C11.909 17.1976 11.7027 17.6936 11.3364 18.0592C10.9701 18.4248 10.4738 18.6301 9.95625 18.6301C9.55843 18.6301 9.17689 18.4721 8.89559 18.1908C8.61429 17.9095 8.45625 17.5279 8.45625 17.1301C8.45625 17.0307 8.41674 16.9353 8.34642 16.865C8.27609 16.7946 8.18071 16.7551 8.08125 16.7551C7.98179 16.7551 7.88641 16.7946 7.81609 16.865C7.74576 16.9353 7.70625 17.0307 7.70625 17.1301C7.70625 17.7268 7.94331 18.2991 8.36526 18.7211Z" fill="black"/>
</svg>
