<svg width="64" height="64" viewBox="0 0 64 64" fill="none" xmlns="http://www.w3.org/2000/svg">
<path fill-rule="evenodd" clip-rule="evenodd" d="M8.04112 42H36.0011C36.7968 42 37.5598 41.6839 38.1224 41.1213C38.6851 40.5587 39.0011 39.7957 39.0011 39C39.0011 38.2044 38.6851 37.4413 38.1224 36.8787C37.5598 36.3161 36.7968 36 36.0011 36H7.12112C6.70203 35.9921 6.29603 35.8526 5.96048 35.6014C5.62493 35.3502 5.37679 34.9999 5.25112 34.6L2.13112 24.6C2.07196 24.4055 2.04163 24.2033 2.04112 24C2.0407 23.4719 2.2492 22.965 2.62112 22.59C2.80718 22.4029 3.02844 22.2544 3.27215 22.1531C3.51586 22.0518 3.77721 21.9998 4.04112 22H38.2511C38.9866 22.0056 39.6986 21.7408 40.2517 21.256C40.8047 20.7711 41.1604 20.0999 41.2511 19.37L41.9211 14H47.0111C47.2763 14 47.5307 13.8947 47.7182 13.7071C47.9058 13.5196 48.0111 13.2652 48.0111 13C48.0111 12.7348 47.9058 12.4804 47.7182 12.2929C47.5307 12.1054 47.2763 12 47.0111 12H41.9011C41.4098 11.9965 40.9343 12.1739 40.5654 12.4985C40.1965 12.8231 39.9601 13.2722 39.9011 13.76L39.2311 19.12C39.2016 19.3639 39.0834 19.5884 38.899 19.7508C38.7145 19.9131 38.4768 20.0018 38.2311 20H3.99112C3.36472 20.0014 2.74739 20.1499 2.18888 20.4335C1.63036 20.7172 1.14626 21.128 0.775569 21.6329C0.404881 22.1379 0.157965 22.7229 0.0547131 23.3407C-0.0485385 23.9585 -0.00524077 24.592 0.181117 25.19L3.30112 35.19C3.55494 36.0046 4.06255 36.7166 4.7498 37.2222C5.43706 37.7277 6.26795 38.0003 7.12112 38H36.0411C36.3063 38 36.5607 38.1054 36.7482 38.2929C36.9358 38.4804 37.0411 38.7348 37.0411 39C37.0411 39.2652 36.9358 39.5196 36.7482 39.7071C36.5607 39.8946 36.3063 40 36.0411 40H8.04112C7.7759 40 7.52155 40.1054 7.33401 40.2929C7.14647 40.4804 7.04112 40.7348 7.04112 41C7.04112 41.2652 7.14647 41.5196 7.33401 41.7071C7.52155 41.8946 7.7759 42 8.04112 42ZM38.0111 33.96H38.1211C38.3685 33.9643 38.6087 33.8767 38.7952 33.7141C38.9818 33.5516 39.1015 33.3257 39.1311 33.08L40.0111 25.08C40.0403 24.8148 39.9629 24.5489 39.796 24.3407C39.6291 24.1325 39.3863 23.9992 39.1211 23.97C38.8559 23.9409 38.59 24.0182 38.3818 24.1851C38.1736 24.352 38.0403 24.5948 38.0111 24.86L37.1311 32.86C37.103 33.1224 37.1797 33.3852 37.3446 33.5913C37.5094 33.7973 37.749 33.9299 38.0111 33.96ZM12.0411 52C11.25 52 10.4767 51.7654 9.81886 51.3259C9.16106 50.8864 8.64837 50.2617 8.34562 49.5307C8.04287 48.7998 7.96366 47.9956 8.118 47.2197C8.27234 46.4437 8.65331 45.731 9.21272 45.1716C9.77213 44.6122 10.4849 44.2312 11.2608 44.0769C12.0367 43.9225 12.841 44.0017 13.5719 44.3045C14.3028 44.6072 14.9275 45.1199 15.367 45.7777C15.8065 46.4355 16.0411 47.2089 16.0411 48C16.0411 49.0609 15.6197 50.0783 14.8696 50.8284C14.1194 51.5786 13.102 52 12.0411 52ZM12.0411 46C11.6456 46 11.2589 46.1173 10.93 46.3371C10.6011 46.5568 10.3448 46.8692 10.1934 47.2346C10.042 47.6001 10.0024 48.0022 10.0796 48.3902C10.1567 48.7781 10.3472 49.1345 10.6269 49.4142C10.9066 49.6939 11.263 49.8844 11.651 49.9616C12.0389 50.0388 12.4411 49.9991 12.8065 49.8478C13.172 49.6964 13.4843 49.4401 13.7041 49.1112C13.9238 48.7823 14.0411 48.3956 14.0411 48C14.0411 47.4696 13.8304 46.9609 13.4554 46.5858C13.0803 46.2107 12.5716 46 12.0411 46ZM31.2127 50.8285C31.9629 51.5786 32.9803 52 34.0411 52C35.102 52 36.1194 51.5786 36.8696 50.8285C37.6197 50.0783 38.0411 49.0609 38.0411 48C38.0411 46.9392 37.6197 45.9217 36.8696 45.1716C36.1194 44.4215 35.102 44 34.0411 44C32.9803 44 31.9629 44.4215 31.2127 45.1716C30.4626 45.9217 30.0411 46.9392 30.0411 48C30.0411 49.0609 30.4626 50.0783 31.2127 50.8285ZM32.6269 46.5858C33.002 46.2107 33.5107 46 34.0411 46C34.5716 46 35.0803 46.2107 35.4554 46.5858C35.8304 46.9609 36.0411 47.4696 36.0411 48C36.0411 48.5305 35.8304 49.0392 35.4554 49.4142C35.0803 49.7893 34.5716 50 34.0411 50C33.5107 50 33.002 49.7893 32.6269 49.4142C32.2519 49.0392 32.0411 48.5305 32.0411 48C32.0411 47.4696 32.2519 46.9609 32.6269 46.5858Z" fill="black"/>
</svg>
