<svg width="24" height="24" viewBox="0 0 24 24" fill="none" xmlns="http://www.w3.org/2000/svg">
<path fill-rule="evenodd" clip-rule="evenodd" d="M13.125 5.24609H22.875C23.1734 5.24609 23.4595 5.36463 23.6705 5.5756C23.8815 5.78658 24 6.07273 24 6.37109V16.1211C24 16.2206 23.9605 16.3159 23.8902 16.3863C23.8198 16.4566 23.7245 16.4961 23.625 16.4961H22.5C22.5018 17.0598 22.292 17.6036 21.9121 18.02C21.5321 18.4363 21.0098 18.6949 20.4483 18.7446C19.8868 18.7943 19.3271 18.6314 18.88 18.2882C18.4329 17.945 18.1309 17.4464 18.0337 16.8912C17.9365 16.336 18.0513 15.7645 18.3553 15.2899C18.6593 14.8152 19.1304 14.4719 19.6754 14.328C20.2203 14.184 20.7995 14.2499 21.2983 14.5125C21.797 14.7751 22.179 15.2153 22.3688 15.7461H23.25V6.37109C23.25 6.27164 23.2105 6.17626 23.1402 6.10593C23.0698 6.03561 22.9745 5.99609 22.875 5.99609H13.125C13.0255 5.99609 12.9302 6.03561 12.8598 6.10593C12.7895 6.17626 12.75 6.27164 12.75 6.37109V13.1211C12.75 13.2206 12.7105 13.3159 12.6402 13.3863C12.5698 13.4566 12.4745 13.4961 12.375 13.4961C12.2755 13.4961 12.1802 13.4566 12.1098 13.3863C12.0395 13.3159 12 13.2206 12 13.1211V8.99609H10.5V11.2461C10.5 11.5445 10.3815 11.8306 10.1705 12.0416C9.95952 12.2526 9.67337 12.3711 9.375 12.3711H6.75V14.9961H9C9.09946 14.9961 9.19484 15.0356 9.26517 15.1059C9.33549 15.1763 9.375 15.2716 9.375 15.3711C9.375 15.4706 9.33549 15.5659 9.26517 15.6363C9.19484 15.7066 9.09946 15.7461 9 15.7461H6.75V16.1211C6.75 16.2206 6.78951 16.3159 6.85983 16.3863C6.93016 16.4566 7.02554 16.4961 7.125 16.4961H8.625C8.72446 16.4961 8.81984 16.5356 8.89017 16.6059C8.96049 16.6763 9 16.7716 9 16.8711C9 16.9706 8.96049 17.0659 8.89017 17.1363C8.81984 17.2066 8.72446 17.2461 8.625 17.2461H7.125C6.82663 17.2461 6.54048 17.1276 6.3295 16.9166C6.11853 16.7056 6 16.4195 6 16.1211V11.6211C6 10.726 6.35558 9.86755 6.98851 9.23461C7.62145 8.60168 8.47989 8.24609 9.375 8.24609H12V6.37109C12 6.07273 12.1185 5.78658 12.3295 5.5756C12.5405 5.36463 12.8266 5.24609 13.125 5.24609ZM9.64017 11.5113C9.71049 11.4409 9.75 11.3456 9.75 11.2461V8.99609H9.375C8.67881 8.99609 8.01113 9.27266 7.51884 9.76494C7.02656 10.2572 6.75 10.9249 6.75 11.6211H9.375C9.47446 11.6211 9.56984 11.5816 9.64017 11.5113ZM19.4166 17.7433C19.6633 17.9081 19.9533 17.9961 20.25 17.9961C20.6478 17.9961 21.0294 17.8381 21.3107 17.5568C21.592 17.2755 21.75 16.8939 21.75 16.4961C21.75 16.1994 21.662 15.9094 21.4972 15.6627C21.3324 15.4161 21.0981 15.2238 20.824 15.1103C20.5499 14.9968 20.2483 14.967 19.9574 15.0249C19.6664 15.0828 19.3991 15.2257 19.1893 15.4354C18.9796 15.6452 18.8367 15.9125 18.7788 16.2035C18.7209 16.4944 18.7506 16.796 18.8642 17.0701C18.9777 17.3442 19.17 17.5785 19.4166 17.7433ZM14.1187 15.7462H16.875C16.9745 15.7462 17.0698 15.7857 17.1402 15.856C17.2105 15.9263 17.25 16.0217 17.25 16.1212C17.25 16.2206 17.2105 16.316 17.1402 16.3863C17.0698 16.4567 16.9745 16.4962 16.875 16.4962H14.25C14.2518 17.0598 14.042 17.6036 13.6621 18.02C13.2821 18.4364 12.7598 18.695 12.1983 18.7447C11.6368 18.7943 11.0771 18.6315 10.63 18.2883C10.1829 17.945 9.88085 17.4465 9.78369 16.8913C9.68652 16.336 9.8013 15.7646 10.1053 15.2899C10.4093 14.8153 10.8804 14.472 11.4254 14.328C11.9703 14.1841 12.5495 14.2499 13.0483 14.5125C13.547 14.7751 13.929 15.2154 14.1187 15.7462ZM11.1666 17.7434C11.4133 17.9082 11.7033 17.9962 12 17.9962C12.3978 17.9962 12.7794 17.8381 13.0607 17.5568C13.342 17.2755 13.5 16.894 13.5 16.4962C13.5 16.1995 13.412 15.9095 13.2472 15.6628C13.0824 15.4161 12.8481 15.2239 12.574 15.1103C12.2999 14.9968 11.9983 14.9671 11.7074 15.025C11.4164 15.0829 11.1491 15.2257 10.9393 15.4355C10.7296 15.6453 10.5867 15.9126 10.5288 16.2035C10.4709 16.4945 10.5006 16.7961 10.6142 17.0702C10.7277 17.3443 10.92 17.5785 11.1666 17.7434Z" fill="black"/>
</svg>
