<svg width="64" height="64" viewBox="0 0 64 64" fill="none" xmlns="http://www.w3.org/2000/svg">
<path fill-rule="evenodd" clip-rule="evenodd" d="M27 13.9902H53C53.7956 13.9902 54.5587 14.3063 55.1213 14.8689C55.6839 15.4315 56 16.1946 56 16.9902V42.9902C56 43.2555 55.8946 43.5098 55.7071 43.6974C55.5196 43.8849 55.2652 43.9902 55 43.9902H52C52.0048 45.4933 51.4454 46.9435 50.4322 48.0539C49.419 49.1642 48.026 49.8538 46.5288 49.9863C45.0315 50.1187 43.5391 49.6844 42.3467 48.7692C41.1544 47.8539 40.3489 46.5245 40.0898 45.0439C39.8307 43.5633 40.1368 42.0393 40.9475 40.7736C41.7582 39.5078 43.0144 38.5925 44.4677 38.2086C45.9209 37.8247 47.4653 38.0003 48.7954 38.7006C50.1254 39.4008 51.1441 40.5748 51.65 41.9902H54V16.9902C54 16.725 53.8946 16.4707 53.7071 16.2831C53.5196 16.0956 53.2652 15.9902 53 15.9902H27C26.7348 15.9902 26.4804 16.0956 26.2929 16.2831C26.1054 16.4707 26 16.725 26 16.9902V34.9902C26 35.2555 25.8946 35.5098 25.7071 35.6974C25.5196 35.8849 25.2652 35.9902 25 35.9902C24.7348 35.9902 24.4804 35.8849 24.2929 35.6974C24.1054 35.5098 24 35.2555 24 34.9902V23.9902H20V29.9902C20 30.7859 19.6839 31.549 19.1213 32.1116C18.5587 32.6742 17.7956 32.9902 17 32.9902H10V39.9902H16C16.2652 39.9902 16.5196 40.0956 16.7071 40.2831C16.8946 40.4707 17 40.725 17 40.9902C17 41.2555 16.8946 41.5098 16.7071 41.6974C16.5196 41.8849 16.2652 41.9902 16 41.9902H10V42.9902C10 43.2555 10.1054 43.5098 10.2929 43.6974C10.4804 43.8849 10.7348 43.9902 11 43.9902H15C15.2652 43.9902 15.5196 44.0956 15.7071 44.2831C15.8946 44.4707 16 44.725 16 44.9902C16 45.2555 15.8946 45.5098 15.7071 45.6974C15.5196 45.8849 15.2652 45.9902 15 45.9902H11C10.2044 45.9902 9.44129 45.6742 8.87868 45.1116C8.31607 44.549 8 43.7859 8 42.9902V30.9902C8 28.6033 8.9482 26.3141 10.636 24.6263C12.3239 22.9385 14.6131 21.9902 17 21.9902H24V16.9902C24 16.1946 24.3161 15.4315 24.8787 14.8689C25.4413 14.3063 26.2044 13.9902 27 13.9902ZM17.7071 30.6974C17.8946 30.5098 18 30.2555 18 29.9902V23.9902H17C15.1435 23.9902 13.363 24.7277 12.0502 26.0405C10.7375 27.3533 10 29.1337 10 30.9902H17C17.2652 30.9902 17.5196 30.8849 17.7071 30.6974ZM43.7777 47.3161C44.4355 47.7557 45.2089 47.9902 46 47.9902C47.0609 47.9902 48.0783 47.5688 48.8284 46.8187C49.5786 46.0685 50 45.0511 50 43.9902C50 43.1991 49.7654 42.4258 49.3259 41.768C48.8864 41.1102 48.2616 40.5975 47.5307 40.2947C46.7998 39.992 45.9956 39.9128 45.2196 40.0671C44.4437 40.2214 43.731 40.6024 43.1716 41.1618C42.6122 41.7212 42.2312 42.434 42.0769 43.2099C41.9225 43.9858 42.0017 44.7901 42.3045 45.521C42.6072 46.2519 43.1199 46.8766 43.7777 47.3161ZM29.65 41.9904H37C37.2652 41.9904 37.5196 42.0958 37.7071 42.2833C37.8946 42.4708 38 42.7252 38 42.9904C38 43.2556 37.8946 43.51 37.7071 43.6975C37.5196 43.8851 37.2652 43.9904 37 43.9904H30C30.0048 45.4935 29.4453 46.9437 28.4322 48.054C27.419 49.1644 26.026 49.854 24.5288 49.9864C23.0315 50.1189 21.5391 49.6846 20.3467 48.7693C19.1543 47.8541 18.3489 46.5247 18.0898 45.044C17.8307 43.5634 18.1368 42.0395 18.9475 40.7738C19.7582 39.508 21.0144 38.5926 22.4677 38.2087C23.9209 37.8249 25.4653 38.0004 26.7954 38.7007C28.1254 39.401 29.1441 40.575 29.65 41.9904ZM21.7777 47.3163C22.4355 47.7558 23.2089 47.9904 24 47.9904C25.0609 47.9904 26.0783 47.569 26.8284 46.8188C27.5786 46.0687 28 45.0513 28 43.9904C28 43.1993 27.7654 42.4259 27.3259 41.7681C26.8863 41.1103 26.2616 40.5977 25.5307 40.2949C24.7998 39.9921 23.9956 39.9129 23.2196 40.0673C22.4437 40.2216 21.731 40.6026 21.1716 41.162C20.6122 41.7214 20.2312 42.4341 20.0768 43.2101C19.9225 43.986 20.0017 44.7902 20.3045 45.5211C20.6072 46.252 21.1199 46.8768 21.7777 47.3163Z" fill="black"/>
</svg>
