<svg width="24" height="24" viewBox="0 0 24 24" fill="none" xmlns="http://www.w3.org/2000/svg">
<g clip-path="url(#clip0_914_3226)">
<path fill-rule="evenodd" clip-rule="evenodd" d="M13.4421 14.7286C14.0482 14.4866 14.5445 14.0309 14.8375 13.4477C15.1305 12.8646 15.1997 12.1944 15.0321 11.5636C15.4379 11.3298 15.7749 10.9931 16.0092 10.5876C16.2436 10.1821 16.3669 9.72199 16.3669 9.25364C16.3669 8.78529 16.2436 8.3252 16.0092 7.91968C15.7749 7.51416 15.4379 7.17752 15.0321 6.94364C15.1523 6.49157 15.1516 6.01587 15.03 5.56416C14.9085 5.11245 14.6705 4.70059 14.3397 4.36983C14.0089 4.03907 13.5971 3.801 13.1454 3.67948C12.6937 3.55795 12.218 3.55724 11.7659 3.67739C11.4426 3.12583 10.9319 2.70879 10.3268 2.50229C9.72179 2.29579 9.06268 2.31357 8.46964 2.55239C7.91671 2.77006 7.45219 3.16595 7.14963 3.67739C6.53301 3.51086 5.87714 3.57056 5.30073 3.8457C4.72431 4.12084 4.26543 4.59324 4.00713 5.17739C3.77099 5.72939 3.72611 6.34447 3.87963 6.92489C3.32894 7.24806 2.91251 7.75812 2.70605 8.36234C2.4996 8.96656 2.51684 9.62481 2.75463 10.2174C2.97159 10.7717 3.36756 11.2376 3.87963 11.5411C3.75948 11.9932 3.7602 12.4689 3.88173 12.9206C4.00325 13.3723 4.24131 13.7842 4.57207 14.115C4.90283 14.4457 5.31469 14.6838 5.7664 14.8053C6.2181 14.9268 6.69382 14.9275 7.14589 14.8074C7.42855 15.3097 7.8687 15.7051 8.39839 15.9324C8.71921 16.0733 9.065 16.1485 9.41536 16.1537C9.76572 16.1588 10.1136 16.0938 10.4384 15.9624C10.995 15.7396 11.4609 15.337 11.7621 14.8186C12.3171 14.9718 12.9068 14.9402 13.4421 14.7286ZM11.4021 13.9486C11.3519 13.9702 11.3065 14.0016 11.2686 14.0408C11.2306 14.0801 11.2008 14.1265 11.1809 14.1774C11.043 14.5216 10.8051 14.8167 10.498 15.0245C10.1909 15.2323 9.82858 15.3434 9.45776 15.3434C9.08694 15.3434 8.72462 15.2323 8.4175 15.0245C8.11038 14.8167 7.87253 14.5216 7.73463 14.1774C7.71474 14.1265 7.68494 14.0801 7.64696 14.0408C7.60898 14.0016 7.56357 13.9702 7.51338 13.9486C7.463 13.9297 7.40972 13.9195 7.35589 13.9186C7.30043 13.919 7.2456 13.9305 7.19463 13.9524C6.85362 14.0986 6.47663 14.1392 6.1123 14.0691C5.74796 13.999 5.41299 13.8212 5.15064 13.5589C4.88828 13.2965 4.71057 12.9616 4.64042 12.5972C4.57028 12.2329 4.61093 11.8559 4.75713 11.5149C4.77848 11.4645 4.78948 11.4103 4.78948 11.3555C4.78948 11.3008 4.77848 11.2466 4.75713 11.1961C4.73555 11.1459 4.70423 11.1005 4.66496 11.0626C4.62569 11.0246 4.57927 10.9948 4.52839 10.9749C4.29424 10.8806 4.08154 10.74 3.90305 10.5615C3.72455 10.383 3.58395 10.1703 3.48964 9.93614C3.31382 9.4787 3.32407 8.97061 3.51822 8.52064C3.71236 8.07067 4.07497 7.71458 4.52839 7.52864C4.57927 7.50875 4.62569 7.47895 4.66496 7.44097C4.70423 7.40299 4.73555 7.35758 4.75713 7.30739C4.77848 7.25697 4.78948 7.20278 4.78948 7.14802C4.78948 7.09326 4.77848 7.03906 4.75713 6.98864C4.6103 6.64724 4.56932 6.26963 4.63951 5.90468C4.70969 5.53973 4.88781 5.20424 5.1508 4.94166C5.41379 4.67907 5.74955 4.50147 6.11461 4.43185C6.47967 4.36222 6.85721 4.40378 7.19839 4.55114C7.24818 4.57239 7.30176 4.58334 7.35589 4.58334C7.41003 4.58334 7.46359 4.57239 7.51338 4.55114C7.56344 4.53035 7.60882 4.49972 7.64682 4.46107C7.68483 4.42242 7.71469 4.37655 7.73463 4.32615C7.87191 3.98074 8.10972 3.6845 8.41727 3.47578C8.72482 3.26707 9.08795 3.15549 9.45963 3.15549C9.83132 3.15549 10.1944 3.26707 10.502 3.47578C10.8095 3.6845 11.0474 3.98074 11.1846 4.32615C11.2263 4.42706 11.3057 4.50775 11.4059 4.55114C11.4557 4.57239 11.5093 4.58334 11.5634 4.58334C11.6175 4.58334 11.6711 4.57239 11.7209 4.55114C11.9533 4.45212 12.2033 4.40107 12.4559 4.40107C12.7085 4.40107 12.9585 4.45212 13.1909 4.55114C13.6394 4.74964 13.9923 5.11603 14.1739 5.5717C14.3555 6.02737 14.3513 6.53605 14.1621 6.98864C14.1401 7.03849 14.1284 7.09226 14.1277 7.14674C14.127 7.20122 14.1372 7.25529 14.1579 7.30571C14.1786 7.35613 14.2092 7.40185 14.2479 7.44015C14.2867 7.47846 14.3327 7.50856 14.3834 7.52864C14.7299 7.66428 15.0271 7.90171 15.236 8.20964C15.4448 8.51758 15.5555 8.88157 15.5534 9.25364C15.5542 9.62496 15.443 9.98789 15.2343 10.295C15.0255 10.6021 14.729 10.839 14.3834 10.9749C14.3325 10.9948 14.2861 11.0246 14.2468 11.0626C14.2075 11.1005 14.1762 11.1459 14.1546 11.1961C14.1333 11.2466 14.1223 11.3008 14.1223 11.3555C14.1223 11.4103 14.1333 11.4645 14.1546 11.5149C14.2531 11.7468 14.3039 11.9961 14.3039 12.248C14.3039 12.4999 14.2531 12.7493 14.1546 12.9811C13.9561 13.4297 13.5898 13.7826 13.1341 13.9642C12.6784 14.1457 12.1697 14.1415 11.7171 13.9524C11.6164 13.9111 11.5038 13.9097 11.4021 13.9486ZM16.2809 14.0312L18.8234 18.4337L18.8122 18.4449C18.8816 18.5419 18.919 18.6581 18.9193 18.7773C18.9197 18.8965 18.8828 19.0129 18.8139 19.1103C18.7451 19.2076 18.6476 19.2811 18.535 19.3204C18.4225 19.3598 18.3004 19.3631 18.1859 19.3299L15.7972 18.9249L14.9684 21.2087C14.9371 21.3224 14.8725 21.4242 14.783 21.501C14.6935 21.5779 14.5831 21.6262 14.4659 21.6399H14.4434C14.3338 21.6376 14.2268 21.6052 14.1343 21.5464C14.0417 21.4876 13.9671 21.4045 13.9184 21.3062L11.4809 17.1812C11.4533 17.1355 11.4351 17.0848 11.4273 17.032C11.4195 16.9792 11.4223 16.9254 11.4356 16.8737C11.4489 16.8221 11.4723 16.7736 11.5046 16.731C11.5368 16.6885 11.5772 16.6529 11.6234 16.6262C11.7161 16.5724 11.8263 16.5572 11.9301 16.5839C12.0339 16.6105 12.123 16.6769 12.1784 16.7687L14.3872 20.4999L15.1784 18.3249C15.2105 18.2362 15.2728 18.1617 15.3544 18.1143C15.436 18.067 15.5317 18.05 15.6247 18.0662L17.9047 18.4412L15.5909 14.4362C15.5538 14.3909 15.5269 14.3382 15.5121 14.2816C15.4973 14.2249 15.4949 14.1658 15.5052 14.1081C15.5155 14.0505 15.5381 13.9958 15.5715 13.9478C15.605 13.8997 15.6484 13.8595 15.6989 13.8299C15.7494 13.8003 15.8057 13.7819 15.8639 13.7761C15.9222 13.7704 15.981 13.7773 16.0363 13.7964C16.0916 13.8155 16.1421 13.8464 16.1843 13.887C16.2266 13.9275 16.2595 13.9767 16.2809 14.0312ZM7.00425 16.5801C7.10806 16.5534 7.21819 16.5686 7.31091 16.6224C7.40065 16.6757 7.46657 16.7614 7.49516 16.8618C7.52375 16.9622 7.51283 17.0697 7.46465 17.1624L5.02715 21.2874C4.97755 21.3857 4.90215 21.4687 4.80901 21.5275C4.71588 21.5863 4.60852 21.6186 4.49841 21.6211H4.44966C4.33248 21.6074 4.22206 21.5591 4.13254 21.4822C4.04302 21.4054 3.97847 21.3036 3.94716 21.1899L3.1184 18.9061L0.722157 19.3111C0.60848 19.3391 0.489116 19.3335 0.378593 19.2948C0.26807 19.2562 0.171155 19.1863 0.0996552 19.0936C0.0346218 18.9937 0 18.8771 0 18.758C0 18.6388 0.0346218 18.5222 0.0996552 18.4224L2.6384 14.0236C2.66499 13.9773 2.70044 13.9367 2.74273 13.9041C2.78501 13.8715 2.8333 13.8476 2.88484 13.8337C2.93637 13.8197 2.99015 13.8161 3.0431 13.8229C3.09604 13.8298 3.14711 13.847 3.19341 13.8736C3.2397 13.9002 3.28029 13.9356 3.31288 13.9779C3.34547 14.0202 3.36943 14.0685 3.38335 14.12C3.39728 14.1716 3.40092 14.2254 3.39407 14.2783C3.38721 14.3312 3.37 14.3823 3.3434 14.4286L1.02966 18.4336L3.30965 18.0586C3.40252 18.0432 3.49786 18.0605 3.5793 18.1078C3.66074 18.155 3.72319 18.2291 3.75591 18.3174L4.5509 20.4924L6.75591 16.7649C6.81126 16.6731 6.90045 16.6067 7.00425 16.5801ZM12.709 6.8147C12.8164 6.8147 12.9194 6.85693 12.9959 6.93227C13.0342 6.96996 13.0646 7.01491 13.0854 7.06449C13.1062 7.11406 13.1169 7.16727 13.1169 7.22102C13.1169 7.27477 13.1062 7.32799 13.0854 7.37756C13.0646 7.42714 13.0342 7.47209 12.9959 7.50978L9.16339 11.3423C9.06917 11.4374 8.95703 11.5129 8.83344 11.5644C8.70986 11.6159 8.57728 11.6424 8.44339 11.6423C8.31014 11.6419 8.17827 11.6152 8.05536 11.5637C7.93245 11.5122 7.82091 11.437 7.72714 11.3423L6.32839 9.94728C6.25281 9.87017 6.21048 9.76649 6.21048 9.65852C6.21048 9.55055 6.25281 9.44688 6.32839 9.36977C6.40486 9.29443 6.50791 9.2522 6.61527 9.2522C6.72262 9.2522 6.82566 9.29443 6.90214 9.36977L8.30089 10.7685C8.31974 10.7877 8.34221 10.8029 8.36699 10.8133C8.39178 10.8237 8.41839 10.829 8.44527 10.829C8.47215 10.829 8.49875 10.8237 8.52354 10.8133C8.54832 10.8029 8.57079 10.7877 8.58964 10.7685L12.4221 6.93227C12.4986 6.85693 12.6017 6.8147 12.709 6.8147Z" fill="black"/>
</g>
<defs>
<clipPath id="clip0_914_3226">
<rect width="24" height="24" fill="white"/>
</clipPath>
</defs>
</svg>
