<svg width="64" height="64" viewBox="0 0 64 64" fill="none" xmlns="http://www.w3.org/2000/svg">
<path fill-rule="evenodd" clip-rule="evenodd" d="M24.8653 9.82794C25.3543 9.97677 25.6301 10.4938 25.4812 10.9828L12.524 53.5568C12.3751 54.0458 11.8581 54.3216 11.3691 54.1727C10.8801 54.0239 10.6043 53.5069 10.7531 53.0178L23.7104 10.4439C23.8592 9.95488 24.3763 9.67911 24.8653 9.82794Z" fill="#000001"/>
<path fill-rule="evenodd" clip-rule="evenodd" d="M47.4458 37.1382C47.9348 36.9894 48.4519 37.2651 48.6007 37.7541L53.2469 53.0178C53.3957 53.5068 53.12 54.0239 52.631 54.1727C52.142 54.3216 51.6249 54.0458 51.476 53.5568L46.8299 38.2931C46.6811 37.8041 46.9568 37.2871 47.4458 37.1382Z" fill="#000001"/>
<path fill-rule="evenodd" clip-rule="evenodd" d="M32 44.9576C32.5111 44.9576 32.9255 45.372 32.9255 45.8832V53.2873C32.9255 53.7985 32.5111 54.2128 32 54.2128C31.4888 54.2128 31.0745 53.7985 31.0745 53.2873V45.8832C31.0745 45.372 31.4888 44.9576 32 44.9576Z" fill="#000001"/>
<path fill-rule="evenodd" clip-rule="evenodd" d="M32 35.7024C32.5111 35.7024 32.9255 36.1168 32.9255 36.6279V40.33C32.9255 40.8412 32.5111 41.2555 32 41.2555C31.4888 41.2555 31.0745 40.8412 31.0745 40.33V36.6279C31.0745 36.1168 31.4888 35.7024 32 35.7024Z" fill="#000001"/>
<path fill-rule="evenodd" clip-rule="evenodd" d="M32 9.78784C32.5111 9.78784 32.9255 10.2022 32.9255 10.7134V14.4154C32.9255 14.9266 32.5111 15.341 32 15.341C31.4888 15.341 31.0745 14.9266 31.0745 14.4154V10.7134C31.0745 10.2022 31.4888 9.78784 32 9.78784Z" fill="#000001"/>
<path fill-rule="evenodd" clip-rule="evenodd" d="M39.5695 15.341C38.4532 15.3394 37.3476 15.558 36.3159 15.9841C35.2842 16.4102 34.3466 17.0355 33.5568 17.8243C32.7669 18.613 32.1403 19.5497 31.7128 20.5809C31.2853 21.612 31.0652 22.7173 31.0652 23.8335C31.0652 24.7158 31.4067 25.9128 32.0345 27.3258C32.6529 28.7174 33.5084 30.23 34.4451 31.7156C36.3178 34.6855 38.4686 37.4741 39.5642 38.8528L39.5658 38.851C40.6618 37.4787 42.8126 34.6902 44.6847 31.7193C45.6212 30.2332 46.4763 28.7198 47.0944 27.3274C47.722 25.9137 48.0633 24.716 48.0633 23.8335C48.0633 22.7183 47.8437 21.6139 47.4169 20.5836C46.9901 19.5532 46.3645 18.617 45.5759 17.8284C44.7873 17.0398 43.8511 16.4142 42.8207 15.9874C41.7904 15.5606 40.686 15.341 39.5708 15.341C39.5703 15.341 39.5699 15.341 39.5695 15.341ZM39.572 13.4899C38.2125 13.4881 36.8659 13.7542 35.6093 14.2732C34.3527 14.7922 33.2108 15.5538 32.2488 16.5145C31.2868 17.4751 30.5236 18.6161 30.0029 19.8719C29.4822 21.1278 29.2142 22.474 29.2142 23.8335C29.2142 25.1105 29.6844 26.5954 30.343 28.0775C31.0111 29.581 31.9169 31.1766 32.8793 32.7029C34.805 35.7568 37.004 38.6063 38.1149 40.0043M39.572 13.4899C40.9299 13.4901 42.2745 13.7576 43.5291 14.2773C44.784 14.7971 45.9243 15.559 46.8848 16.5195C47.8453 17.48 48.6072 18.6203 49.127 19.8752C49.6468 21.1302 49.9144 22.4752 49.9144 23.8335C49.9144 25.1104 49.4445 26.5957 48.7862 28.0785C48.1184 29.5827 47.213 31.1792 46.2507 32.7062C44.3254 35.7614 42.1263 38.6111 41.0121 40.0061C40.839 40.2235 40.6192 40.3991 40.369 40.5198C40.118 40.641 39.8429 40.7039 39.5643 40.7039C39.2856 40.7039 39.0105 40.641 38.7596 40.5198C38.5087 40.3987 38.2882 40.2224 38.1149 40.0043" fill="#000001"/>
<path fill-rule="evenodd" clip-rule="evenodd" d="M40.5694 21.4253C40.2529 21.2944 39.9137 21.2271 39.5712 21.2273C39.0554 21.2275 38.5512 21.3808 38.1225 21.6676C37.6937 21.9544 37.3596 22.3619 37.1625 22.8386C36.9653 23.3152 36.914 23.8397 37.0149 24.3456C37.1158 24.8514 37.3644 25.316 37.7293 25.6806C38.0943 26.0451 38.5591 26.2933 39.0651 26.3937C39.5711 26.494 40.0955 26.4421 40.5719 26.2445C41.0484 26.0468 41.4556 25.7123 41.7419 25.2833C42.0283 24.8542 42.181 24.3499 42.1807 23.834C42.1805 23.4915 42.1129 23.1524 41.9817 22.8361C41.8504 22.5197 41.6582 22.2323 41.4159 21.9902C41.1735 21.7482 40.8859 21.5562 40.5694 21.4253ZM39.5703 19.3762C40.1559 19.3759 40.7358 19.491 41.2769 19.7148C41.818 19.9386 42.3098 20.2668 42.7241 20.6806C43.1383 21.0945 43.4671 21.5859 43.6914 22.1268C43.9158 22.6677 44.0315 23.2475 44.0318 23.8331C44.0322 24.715 43.7711 25.5773 43.2816 26.3108C42.792 27.0444 42.0958 27.6163 41.2812 27.9542C40.4666 28.2922 39.57 28.3809 38.705 28.2093C37.8399 28.0377 37.0451 27.6134 36.4212 26.9901C35.7972 26.3668 35.3721 25.5725 35.1996 24.7076C35.0271 23.8427 35.1149 22.9461 35.452 22.1311C35.7891 21.3161 36.3602 20.6194 37.0933 20.129C37.8263 19.6387 38.6883 19.3767 39.5703 19.3762Z" fill="#000001"/>
</svg>
