<svg width="24" height="24" viewBox="0 0 24 24" fill="none" xmlns="http://www.w3.org/2000/svg">
<path d="M20.7837 13.9897C20.93 13.3386 21.0042 12.6733 21.0049 12.0059C21.0052 9.6809 20.1031 7.44651 18.4887 5.77343L18.4436 5.72468C17.5023 4.75778 16.3555 4.01495 15.0883 3.55116C13.821 3.08737 12.4657 2.9145 11.1226 3.04533C9.77947 3.17616 8.48298 3.60734 7.32904 4.30697C6.17511 5.0066 5.19327 5.95678 4.4562 7.08716C3.71913 8.21755 3.24569 9.49921 3.07092 10.8373C2.89615 12.1754 3.02452 13.5357 3.44653 14.8175C3.86854 16.0992 4.5734 17.2697 5.50893 18.2423C6.44445 19.2148 7.5867 19.9645 8.85115 20.4359H8.87365C10.0728 20.8807 11.353 21.0648 12.6289 20.9759C13.9049 20.8869 15.1472 20.5271 16.2731 19.9203C17.399 19.3136 18.3826 18.4738 19.1585 17.4569C19.9343 16.4401 20.4845 15.2696 20.7724 14.0234C20.7777 14.0127 20.7815 14.0014 20.7837 13.9897ZM20.1162 13.5284H19.5874C19.278 13.5289 18.9733 13.4528 18.7004 13.3068C18.4276 13.1609 18.1951 12.9498 18.0236 12.6922L16.3624 10.1947C16.123 9.83513 15.7985 9.54024 15.4178 9.33615C15.0371 9.13205 14.6119 9.02506 14.1799 9.02467H13.8499C13.5018 9.02467 13.168 8.88639 12.9218 8.64025C12.6757 8.39411 12.5374 8.06027 12.5374 7.71217C12.5374 7.36407 12.6757 7.03024 12.9218 6.7841C13.168 6.53796 13.5018 6.39967 13.8499 6.39967H18.0387C18.9205 7.34064 19.5687 8.47581 19.9309 9.71351C20.2931 10.9512 20.3591 12.2567 20.1236 13.5247L20.1162 13.5284ZM3.7549 12.0284C3.75658 11.6521 3.78288 11.2763 3.83365 10.9034H8.0749C8.32111 10.9027 8.56498 10.9511 8.79227 11.0458C9.01956 11.1404 9.2257 11.2794 9.39865 11.4547L10.2387 12.2947C10.577 12.6329 10.7733 13.0878 10.7872 13.566C10.8011 14.0443 10.6317 14.5098 10.3136 14.8672L9.29365 16.0147C8.86632 16.495 8.63015 17.1155 8.6299 17.7584V19.5284C7.17871 18.8778 5.94649 17.8217 5.08159 16.487C4.21669 15.1524 3.75598 13.5963 3.7549 12.0059V12.0284ZM12.0049 20.2784C11.1123 20.2783 10.2257 20.1326 9.3799 19.8472V17.7547C9.37976 17.2958 9.54788 16.8529 9.85241 16.5097L10.8761 15.3622C11.321 14.8619 11.5579 14.2105 11.5384 13.5413C11.5189 12.8721 11.2444 12.2357 10.7711 11.7622L9.93115 10.9034C9.68738 10.6597 9.39798 10.4663 9.07948 10.3344C8.76099 10.2025 8.41963 10.1347 8.0749 10.1347H3.9724C4.29175 8.77 4.95349 7.50918 5.89521 6.47116C6.83693 5.43314 8.02757 4.65214 9.35481 4.20184C10.682 3.75155 12.1021 3.64681 13.4811 3.8975C14.86 4.14819 16.1523 4.74606 17.2361 5.63468H13.8611C13.3141 5.63468 12.7895 5.85197 12.4027 6.23877C12.016 6.62556 11.7986 7.15017 11.7986 7.69718C11.7986 8.24419 12.016 8.76879 12.4027 9.15558C12.7895 9.54237 13.3141 9.75968 13.8611 9.75968H14.1911C14.4993 9.76046 14.8025 9.83716 15.0739 9.98302C15.3454 10.1289 15.5767 10.3394 15.7474 10.5959L17.4124 13.0934C17.6522 13.4535 17.9773 13.7487 18.3587 13.9528C18.7401 14.157 19.166 14.2637 19.5987 14.2634H19.9512C19.4637 15.9954 18.4235 17.5205 16.9889 18.6064C15.5544 19.6923 13.8041 20.2795 12.0049 20.2784Z" fill="black"/>
</svg>
