<svg width="64" height="64" viewBox="0 0 64 64" fill="none" xmlns="http://www.w3.org/2000/svg">
<path fill-rule="evenodd" clip-rule="evenodd" d="M36.0455 17.2508C35.9236 17.1993 35.8132 17.1242 35.7206 17.0297C31.2052 12.5297 25.0903 10.003 18.7156 10.003C12.3408 10.003 6.22592 12.5297 1.71056 17.0297C1.52358 17.218 1.26947 17.3243 1.0041 17.3252C0.738739 17.3262 0.483865 17.2216 0.295561 17.0347C0.107258 16.8477 0.000943937 16.5936 6.25523e-06 16.3282C-0.000931427 16.0629 0.103586 15.808 0.290564 15.6197C5.18147 10.7411 11.8075 8.00146 18.7156 8.00146C25.6236 8.00146 32.2497 10.7411 37.1406 15.6197C37.2816 15.7595 37.3778 15.9382 37.4168 16.133C37.4559 16.3277 37.4361 16.5297 37.3599 16.7132C37.2838 16.8966 37.1547 17.0532 36.9892 17.163C36.8237 17.2728 36.6292 17.3308 36.4306 17.3297C36.2983 17.3291 36.1674 17.3023 36.0455 17.2508ZM7.05062 23.6798C6.96769 23.7495 6.88527 23.8188 6.8106 23.8997C6.74755 23.9346 6.68036 23.9615 6.61061 23.9797L6.4906 24.0597C6.36662 24.11 6.23441 24.1372 6.10061 24.1397C5.98406 24.1363 5.869 24.1126 5.76061 24.0697L5.65061 24.0197C5.5986 23.997 5.54845 23.9702 5.50061 23.9397C5.50061 23.9147 5.51561 23.9022 5.52311 23.8959C5.52577 23.8937 5.52749 23.8923 5.52725 23.8913C5.52682 23.8897 5.51995 23.8897 5.50064 23.8897H5.50061C5.47061 23.8897 5.47561 23.8972 5.47811 23.9009C5.4787 23.9018 5.47915 23.9025 5.47897 23.9028C5.47838 23.9038 5.47118 23.9011 5.44063 23.8897L5.44061 23.8897C5.36061 23.8597 5.36061 23.7797 5.36061 23.7797C5.31797 23.729 5.28417 23.6716 5.26061 23.6097C5.23134 23.5556 5.20787 23.4986 5.19061 23.4397C5.18654 23.3764 5.18654 23.3129 5.19061 23.2497C5.18069 23.1867 5.18069 23.1226 5.19061 23.0597C5.18108 23 5.18108 22.9393 5.19061 22.8797C5.21026 22.8119 5.24065 22.7478 5.28061 22.6897C5.28233 22.653 5.28233 22.6163 5.28061 22.5797L5.37061 22.4797L5.50061 22.3597C5.90891 21.9495 6.33957 21.5623 6.79061 21.1997C6.84461 21.1517 6.89861 21.1145 6.9526 21.0773L6.95262 21.0773C6.98861 21.0525 7.02461 21.0277 7.0606 20.9997C7.46647 20.6665 7.89045 20.356 8.33061 20.0697L8.41061 20.0097C11.4745 18.0043 15.0588 16.9405 18.7206 16.9497C22.4318 16.9206 26.0684 17.9924 29.1706 20.0297C29.2892 20.1193 29.4072 20.2075 29.5242 20.2951L29.5242 20.2951C29.8512 20.5398 30.1713 20.7793 30.4806 21.0297L30.7006 21.1997C31.1974 21.5995 31.6715 22.0268 32.1206 22.4797C32.2138 22.5729 32.2878 22.6836 32.3383 22.8054C32.3887 22.9272 32.4147 23.0578 32.4147 23.1897C32.4147 23.3215 32.3887 23.4521 32.3383 23.5739C32.2878 23.6957 32.2138 23.8064 32.1206 23.8997C32.0274 23.9929 31.9167 24.0669 31.7949 24.1173C31.673 24.1678 31.5425 24.1938 31.4106 24.1938C31.2788 24.1938 31.1482 24.1678 31.0264 24.1173C30.9045 24.0669 30.7938 23.9929 30.7006 23.8997C30.2967 23.4954 29.8729 23.1116 29.4306 22.7497C29.3515 22.6841 29.2679 22.6239 29.1806 22.5697C28.8224 22.2732 28.4485 21.9961 28.0606 21.7396L27.9806 21.6897C25.2533 19.9284 22.0788 18.9849 18.8323 18.9708C15.5858 18.9566 12.4031 19.8723 9.66061 21.6097L9.46061 21.7297C9.12061 21.9597 8.79061 22.2097 8.46061 22.4697C8.41428 22.5044 8.36648 22.5376 8.31833 22.5711L8.31828 22.5712L8.31827 22.5712L8.31827 22.5712L8.31826 22.5712C8.2417 22.6244 8.16427 22.6783 8.09061 22.7396C7.78079 22.9895 7.49095 23.2693 7.20112 23.5492L7.20061 23.5497C7.1515 23.595 7.10097 23.6375 7.05062 23.6798ZM24.1906 29.5396C24.4107 29.6881 24.6808 29.7431 24.9415 29.6925C25.2022 29.6418 25.4321 29.4898 25.5806 29.2696C25.7291 29.0495 25.7841 28.7794 25.7335 28.5187C25.6828 28.258 25.5307 28.0281 25.3106 27.8796C23.0486 26.3661 20.3323 25.6824 17.6233 25.945C14.9144 26.2075 12.3799 27.3999 10.4506 29.3196C10.3569 29.4126 10.2825 29.5232 10.2317 29.645C10.1809 29.7669 10.1548 29.8976 10.1548 30.0296C10.1548 30.1616 10.1809 30.2923 10.2317 30.4142C10.2825 30.5361 10.3569 30.6466 10.4506 30.7396C10.544 30.8323 10.6548 30.9056 10.7767 30.9554C10.8985 31.0052 11.029 31.0304 11.1606 31.0296C11.2922 31.0304 11.4226 31.0052 11.5445 30.9554C11.6663 30.9056 11.7771 30.8323 11.8706 30.7396C13.4677 29.1443 15.5689 28.1526 17.8157 27.9338C20.0625 27.7149 22.3156 28.2825 24.1906 29.5396ZM19.4877 36.5367C19.3002 36.7242 19.0458 36.8296 18.7806 36.8296C18.0964 36.8296 17.4401 37.1014 16.9563 37.5852C16.4724 38.0691 16.2006 38.7253 16.2006 39.4096C16.2006 40.0938 16.4724 40.7501 16.9563 41.2339C17.4401 41.7178 18.0964 41.9896 18.7806 41.9896C19.0458 41.9896 19.3002 42.0949 19.4877 42.2825C19.6753 42.47 19.7806 42.7243 19.7806 42.9896C19.7806 43.2548 19.6753 43.5091 19.4877 43.6967C19.3002 43.8842 19.0458 43.9896 18.7806 43.9896C17.5659 43.9896 16.401 43.507 15.5421 42.6481C14.6832 41.7892 14.2006 40.6243 14.2006 39.4096C14.2006 38.1949 14.6832 37.0299 15.5421 36.171C16.401 35.3121 17.5659 34.8296 18.7806 34.8296C19.0458 34.8296 19.3002 34.9349 19.4877 35.1225C19.6753 35.31 19.7806 35.5644 19.7806 35.8296C19.7806 36.0948 19.6753 36.3491 19.4877 36.5367ZM46.2006 46.5096C45.9499 46.4236 45.6754 46.4406 45.4373 46.5569C45.1992 46.6731 45.0169 46.8791 44.9306 47.1296C44.2181 49.2302 42.8358 51.0387 40.996 52.2777C39.1562 53.5167 36.9606 54.1176 34.7463 53.9882C32.532 53.8587 30.4214 53.0061 28.7385 51.5612C27.0556 50.1162 25.8935 48.1589 25.4306 45.9896H30.0406C30.3058 45.9896 30.5602 45.8843 30.7477 45.6967C30.9352 45.5092 31.0406 45.2548 31.0406 44.9896C31.0406 44.7244 30.9352 44.4701 30.7477 44.2825C30.5602 44.095 30.3058 43.9896 30.0406 43.9896H23.0406C22.7754 43.9896 22.521 44.095 22.3335 44.2825C22.1459 44.4701 22.0406 44.7244 22.0406 44.9896V51.9896C22.0406 52.2548 22.1459 52.5092 22.3335 52.6967C22.521 52.8843 22.7754 52.9896 23.0406 52.9896C23.3058 52.9896 23.5602 52.8843 23.7477 52.6967C23.9352 52.5092 24.0406 52.2548 24.0406 51.9896V48.3196C24.9534 50.6299 26.553 52.6046 28.6234 53.9771C30.6939 55.3497 33.1355 56.0541 35.6189 55.9952C38.1023 55.9363 40.5079 55.1171 42.511 53.6479C44.5141 52.1788 46.0183 50.1306 46.8206 47.7796C46.9066 47.529 46.8896 47.2545 46.7734 47.0164C46.6571 46.7782 46.4511 46.596 46.2006 46.5096ZM46.3335 33.2825C46.521 33.0949 46.7754 32.9896 47.0406 32.9896C47.3058 32.9896 47.5601 33.0949 47.7477 33.2825C47.9352 33.47 48.0406 33.7243 48.0406 33.9896V40.9896C48.0406 41.2548 47.9352 41.5091 47.7477 41.6967C47.5601 41.8842 47.3058 41.9896 47.0406 41.9896H40.0406C39.7754 41.9896 39.521 41.8842 39.3335 41.6967C39.1459 41.5091 39.0406 41.2548 39.0406 40.9896C39.0406 40.7243 39.1459 40.47 39.3335 40.2825C39.521 40.0949 39.7754 39.9896 40.0406 39.9896H44.6506C44.1876 37.8203 43.0255 35.863 41.3427 34.4181C39.6598 32.9731 37.5492 32.1205 35.3349 31.991C33.1206 31.8616 30.925 32.4625 29.0852 33.7015C27.2454 34.9405 25.8631 36.7491 25.1506 38.8496C25.0575 39.0911 24.8743 39.2871 24.6396 39.3964C24.405 39.5056 24.1371 39.5197 23.8923 39.4355C23.6475 39.3513 23.4449 39.1755 23.3271 38.945C23.2093 38.7145 23.1854 38.4473 23.2606 38.1996C24.0629 35.8486 25.5671 33.8004 27.5702 32.3313C29.5733 30.8621 31.9788 30.0429 34.4622 29.984C36.9456 29.9251 39.3873 30.6295 41.4577 32.0021C43.5282 33.3746 45.1278 35.3493 46.0406 37.6596V33.9896C46.0406 33.7243 46.1459 33.47 46.3335 33.2825Z" fill="black"/>
</svg>
