<svg width="24" height="24" viewBox="0 0 24 24" fill="none" xmlns="http://www.w3.org/2000/svg">
<g clip-path="url(#clip0_914_2813)">
<path fill-rule="evenodd" clip-rule="evenodd" d="M16.3237 20.955C16.3779 20.9842 16.4384 20.9997 16.4999 21C16.5594 21.0037 16.6188 20.992 16.6724 20.9662C18.8882 19.8059 20.7431 18.0598 22.0352 15.9181C23.3272 13.7764 24.0068 11.3212 23.9999 8.82V4.125C23.9999 3.82663 23.8814 3.54049 23.6704 3.32951C23.4595 3.11853 23.1733 3 22.8749 3H10.1249C9.82657 3 9.54042 3.11853 9.32944 3.32951C9.11846 3.54049 8.99994 3.82663 8.99994 4.125V8.82C8.99479 11.3189 9.6748 13.7715 10.966 15.9109C12.2573 18.0504 14.1103 19.795 16.3237 20.955ZM9.85977 3.85984C9.9301 3.78951 10.0255 3.75 10.1249 3.75H22.8749C22.9744 3.75 23.0698 3.78951 23.1401 3.85984C23.2104 3.93017 23.2499 4.02554 23.2499 4.125V8.82C23.2543 11.1487 22.6294 13.4353 21.4412 15.438C20.2531 17.4407 18.5458 19.0852 16.4999 20.1975C14.4536 19.0858 12.7458 17.4415 11.5576 15.4386C10.3693 13.4357 9.74472 11.1488 9.74994 8.82V4.125C9.74994 4.02554 9.78945 3.93017 9.85977 3.85984ZM14.2275 13.275C14.4373 13.4792 14.7185 13.5935 15.0112 13.5937C15.3009 13.5926 15.5789 13.4797 15.7875 13.2787L20.88 8.53122C20.9449 8.46185 20.9811 8.37043 20.9812 8.27543C20.9813 8.18042 20.9453 8.08892 20.8806 8.0194C20.8158 7.94988 20.7271 7.90753 20.6323 7.90091C20.5375 7.89428 20.4438 7.92389 20.37 7.98373L15.27 12.7425C15.2005 12.8079 15.1086 12.8443 15.0131 12.8443C14.9177 12.8443 14.8258 12.8079 14.7562 12.7425L13.3912 11.3625C13.32 11.3005 13.2279 11.2677 13.1335 11.2707C13.039 11.2736 12.9492 11.3121 12.8819 11.3784C12.8147 11.4448 12.7749 11.534 12.7706 11.6284C12.7663 11.7228 12.7978 11.8153 12.8588 11.8875L14.2275 13.275Z" fill="black"/>
</g>
<defs>
<clipPath id="clip0_914_2813">
<rect width="24" height="24" fill="white"/>
</clipPath>
</defs>
</svg>
