<svg width="24" height="24" viewBox="0 0 24 24" fill="none" xmlns="http://www.w3.org/2000/svg">
<g clip-path="url(#clip0_937_1131)">
<path fill-rule="evenodd" clip-rule="evenodd" d="M15.607 2.95996H19.2248C19.5829 2.96389 19.932 3.07254 20.2291 3.27246C20.5256 3.47197 20.7574 3.75369 20.896 4.08303L21.693 5.91674L23.3194 6.86171C23.5286 6.98606 23.7016 7.16318 23.821 7.37533C23.9401 7.58697 24.0018 7.82608 23.9998 8.0689V9.00977C24.0065 9.36949 23.8707 9.71736 23.622 9.97745C23.3723 10.2385 23.0292 10.3898 22.6681 10.3981L22.6601 10.3982H22.151C22.0711 10.6874 21.9125 10.9514 21.69 11.1591C21.3867 11.4422 20.9873 11.5997 20.5723 11.5997C20.1574 11.5997 19.758 11.4422 19.4547 11.1591C19.1514 10.8759 18.9668 10.4882 18.9383 10.0743C18.9252 9.88268 19.0698 9.71667 19.2614 9.70349C19.453 9.69031 19.619 9.83494 19.6322 10.0265C19.6486 10.2647 19.7548 10.4878 19.9293 10.6507C20.1038 10.8136 20.3336 10.9042 20.5723 10.9042C20.8111 10.9042 21.0409 10.8136 21.2154 10.6507C21.3899 10.4878 21.4961 10.2647 21.5125 10.0265C21.5251 9.84419 21.6766 9.70267 21.8594 9.70267H22.6557C22.8313 9.69772 22.9979 9.62376 23.1194 9.49675C23.2417 9.36888 23.3082 9.1977 23.3044 9.02081L23.3043 9.01327V8.06413C23.3054 7.94241 23.2746 7.82252 23.2149 7.71644C23.1555 7.6108 23.0695 7.52255 22.9654 7.46041L21.2448 6.46073C21.1807 6.42347 21.1302 6.36668 21.1006 6.29865L20.2556 4.35419C20.1695 4.1491 20.0254 3.97365 19.8409 3.84949C19.6568 3.72566 19.4407 3.65823 19.2189 3.65544H15.6098C15.3551 3.65972 15.1089 3.74823 14.9098 3.9072C14.7101 4.06666 14.569 4.28797 14.5088 4.53634L14.5074 4.5422L14.0622 6.24786C14.0446 6.31533 14.0071 6.37595 13.9546 6.42184L12.8286 7.40636L12.8279 7.40694C12.7525 7.47387 12.6921 7.5561 12.6508 7.64816C12.6094 7.74049 12.5882 7.84058 12.5886 7.94176C12.5894 8.13381 12.4343 8.2901 12.2422 8.29084C12.0502 8.29158 11.8939 8.13649 11.8932 7.94444C11.8924 7.74432 11.9343 7.54633 12.0162 7.36371C12.098 7.18109 12.2179 7.01803 12.3678 6.88544L12.3693 6.88411L13.4163 5.9687L13.8337 4.36934C13.9307 3.97237 14.1565 3.61871 14.4759 3.3637C14.7961 3.10803 15.1922 2.96602 15.6019 2.96L15.607 2.95996Z" fill="#000001"/>
<path fill-rule="evenodd" clip-rule="evenodd" d="M6.62464 10.5166C6.44121 10.5154 6.25936 10.5505 6.08956 10.6199C5.91975 10.6892 5.76534 10.7915 5.63522 10.9208C5.5051 11.0501 5.40183 11.2038 5.33137 11.3731C5.2609 11.5425 5.22462 11.7241 5.22463 11.9075V17.6531C5.22463 17.7861 5.25082 17.9178 5.30172 18.0407C5.35262 18.1636 5.42722 18.2752 5.52127 18.3693C5.61532 18.4633 5.72697 18.5379 5.84984 18.5888C5.97272 18.6397 6.10442 18.6659 6.23743 18.6659H6.57908C6.77113 18.6659 6.92682 18.8216 6.92682 19.0137V19.0251C6.93575 19.3774 7.0817 19.7123 7.33372 19.9587C7.58663 20.206 7.92628 20.3444 8.27997 20.3444C8.63367 20.3444 8.97331 20.206 9.22622 19.9587C9.47825 19.7123 9.62419 19.3774 9.63312 19.0251V19.0137C9.63312 18.8216 9.78881 18.6659 9.98086 18.6659H15.0874C15.2795 18.6659 15.4352 18.8216 15.4352 19.0137V19.0251C15.4441 19.3774 15.5901 19.7123 15.8421 19.9587C16.095 20.206 16.4346 20.3444 16.7883 20.3444C17.142 20.3444 17.4817 20.206 17.7346 19.9587C17.9866 19.7123 18.1326 19.3774 18.1415 19.0251V19.0137C18.1415 18.8216 18.2972 18.6659 18.4892 18.6659H19.1708C19.4395 18.6659 19.6973 18.5592 19.8873 18.3692C20.0774 18.1793 20.1843 17.9216 20.1845 17.6529V16.4121C20.1847 16.2318 20.1369 16.0546 20.0458 15.899C19.9549 15.7435 19.8242 15.6151 19.6672 15.5269L19.6666 15.5266L17.3058 14.2145C17.2407 14.1784 17.189 14.1223 17.1582 14.0546L16.0011 11.5126L16.0008 11.5119C15.8666 11.2154 15.6498 10.9638 15.3763 10.7872C15.1028 10.6107 14.7843 10.5168 14.4589 10.5166L6.62464 10.5166ZM18.8036 19.3614C18.7276 19.7751 18.5253 20.1583 18.2208 20.456C17.8379 20.8303 17.3238 21.0399 16.7883 21.0399C16.2529 21.0399 15.7388 20.8303 15.3559 20.456C15.0513 20.1583 14.8491 19.7751 14.773 19.3614H10.2953C10.2192 19.7751 10.017 20.1583 9.71241 20.456C9.32956 20.8303 8.8154 21.0399 8.27997 21.0399C7.74455 21.0399 7.23039 20.8303 6.84753 20.456C6.54297 20.1583 6.34075 19.7751 6.26468 19.3614H6.23743C6.01309 19.3614 5.79095 19.3172 5.58369 19.2314C5.37644 19.1455 5.18812 19.0197 5.02949 18.8611C4.87086 18.7024 4.74503 18.5141 4.65918 18.3068C4.57333 18.0996 4.52914 17.8774 4.52914 17.6531V11.9076V11.9076C4.52914 11.6324 4.58355 11.36 4.68925 11.106C4.79495 10.8519 4.94985 10.6213 5.14504 10.4274C5.34022 10.2335 5.57184 10.0801 5.82654 9.97602C6.08088 9.87212 6.35324 9.81947 6.62797 9.8211H14.4589C14.9181 9.82133 15.3676 9.95389 15.7534 10.2029C16.1391 10.4518 16.4449 10.8066 16.6342 11.2248L16.6344 11.2252L17.7437 13.6622L20.0068 14.92C20.272 15.0687 20.4927 15.2854 20.6462 15.5479C20.7997 15.8103 20.8804 16.109 20.88 16.413L20.5322 16.4125H20.88V16.413V17.6531C20.8797 18.1062 20.6995 18.5409 20.379 18.8612C20.0585 19.1815 19.6239 19.3614 19.1708 19.3614H18.8036Z" fill="#000001"/>
</g>
<defs>
<clipPath id="clip0_937_1131">
<rect width="24" height="24" fill="white"/>
</clipPath>
</defs>
</svg>
