<svg width="64" height="64" viewBox="0 0 64 64" fill="none" xmlns="http://www.w3.org/2000/svg">
<g clip-path="url(#clip0_937_1133)">
<path fill-rule="evenodd" clip-rule="evenodd" d="M29.541 7.89355H39.1883C40.1432 7.90404 41.0743 8.19376 41.8666 8.7269C42.6573 9.25891 43.2753 10.0102 43.6451 10.8884L45.7702 15.7783L50.1072 18.2982C50.6653 18.6298 51.1266 19.1021 51.445 19.6679C51.7627 20.2322 51.927 20.8699 51.9217 21.5174V24.0264C51.9396 24.9856 51.5776 25.9133 50.9143 26.6069C50.2484 27.303 49.3335 27.7065 48.3704 27.7285L48.3492 27.7287H46.9917C46.7785 28.5002 46.3556 29.2041 45.7624 29.7579C44.9536 30.513 43.8883 30.9329 42.7819 30.9329C41.6754 30.9329 40.6102 30.513 39.8014 29.7579C38.9926 29.0028 38.5005 27.9689 38.4245 26.8651C38.3894 26.3541 38.7751 25.9115 39.286 25.8763C39.7969 25.8411 40.2396 26.2268 40.2748 26.7378C40.3185 27.3729 40.6016 27.9678 41.067 28.4022C41.5323 28.8367 42.1452 29.0783 42.7819 29.0783C43.4185 29.0783 44.0314 28.8367 44.4968 28.4022C44.9621 27.9678 45.2453 27.3729 45.289 26.7378C45.3224 26.2515 45.7266 25.8741 46.2141 25.8741H48.3375C48.8057 25.8609 49.25 25.6637 49.5739 25.325C49.9001 24.984 50.0775 24.5275 50.0673 24.0558L50.0671 24.0357V21.5047C50.0701 21.1801 49.988 20.8604 49.8288 20.5775C49.6703 20.2958 49.4409 20.0605 49.1634 19.8948L44.5752 17.2289C44.4042 17.1296 44.2694 16.9781 44.1906 16.7967L41.9371 11.6115C41.7077 11.0646 41.3233 10.5967 40.8312 10.2656C40.3405 9.93541 39.7641 9.7556 39.1727 9.74818H29.5483C28.8691 9.75957 28.2128 9.99561 27.6818 10.4195C27.1492 10.8448 26.7731 11.4349 26.6124 12.0972L26.6086 12.1129L25.4215 16.6613C25.3746 16.8412 25.2746 17.0028 25.1346 17.1252L22.1319 19.7506L22.1301 19.7522C21.9289 19.9307 21.7678 20.1499 21.6578 20.3954C21.5475 20.6416 21.4909 20.9085 21.492 21.1783C21.4939 21.6905 21.0804 22.1072 20.5682 22.1092C20.0561 22.1112 19.6393 21.6976 19.6374 21.1855C19.6353 20.6518 19.7471 20.1239 19.9654 19.6369C20.1837 19.1499 20.5034 18.7151 20.9031 18.3615L20.9071 18.3579L23.6991 15.9169L24.812 11.6519C25.0707 10.5933 25.6729 9.65022 26.5246 8.97019C27.3786 8.28841 28.4348 7.90972 29.5274 7.89365L29.541 7.89355Z" fill="#000001"/>
<path fill-rule="evenodd" clip-rule="evenodd" d="M5.58798 28.0445C5.09885 28.0414 4.61392 28.135 4.16111 28.3199C3.70829 28.5049 3.29653 28.7776 2.94954 29.1224C2.60255 29.4671 2.32717 29.8771 2.13926 30.3287C1.95135 30.7803 1.85461 31.2646 1.85462 31.7538V47.0753C1.85462 47.43 1.92448 47.7812 2.06021 48.1088C2.19594 48.4365 2.39488 48.7343 2.64567 48.985C2.89646 49.2358 3.19419 49.4348 3.52187 49.5705C3.84954 49.7062 4.20074 49.7761 4.55542 49.7761H5.4665C5.97864 49.7761 6.39381 50.1913 6.39381 50.7034V50.7341C6.41762 51.6734 6.80681 52.5666 7.47888 53.2236C8.1533 53.883 9.05902 54.2521 10.0022 54.2521C10.9454 54.2521 11.8511 53.883 12.5255 53.2236C13.1976 52.5666 13.5868 51.6734 13.6106 50.7341V50.7034C13.6106 50.1913 14.0258 49.7761 14.5379 49.7761H28.1555C28.6676 49.7761 29.0828 50.1913 29.0828 50.7034V50.734C29.1066 51.6734 29.4958 52.5666 30.1679 53.2236C30.8423 53.883 31.748 54.2521 32.6912 54.2521C33.6344 54.2521 34.5401 53.883 35.2145 53.2236C35.8866 52.5666 36.2758 51.6734 36.2996 50.734V50.7034C36.2996 50.1913 36.7148 49.7761 37.2269 49.7761H39.0444C39.761 49.7761 40.4483 49.4915 40.9552 48.985C41.4621 48.4784 41.7471 47.7913 41.7475 47.0747V43.7659C41.7482 43.285 41.6206 42.8127 41.3778 42.3976C41.1354 41.983 40.7868 41.6405 40.368 41.4053L40.3666 41.4045L34.071 37.9057C33.8976 37.8093 33.7597 37.6598 33.6775 37.4793L30.5919 30.7006L30.591 30.6988C30.2332 29.908 29.655 29.237 28.9257 28.7663C28.1965 28.2957 27.3472 28.0451 26.4794 28.0446L5.58798 28.0445ZM38.0653 51.6307C37.8624 52.734 37.3232 53.7558 36.511 54.5498C35.4901 55.5479 34.119 56.1068 32.6912 56.1068C31.2634 56.1068 29.8923 55.5479 28.8713 54.5498C28.0592 53.7558 27.5199 52.734 27.3171 51.6307H15.3763C15.1735 52.734 14.6342 53.7558 13.8221 54.5498C12.8011 55.5479 11.43 56.1068 10.0022 56.1068C8.57441 56.1068 7.20332 55.5479 6.18237 54.5498C5.37022 53.7558 4.83095 52.734 4.6281 51.6307H4.55542C3.95719 51.6307 3.36482 51.5129 2.81213 51.2839C2.25945 51.055 1.75726 50.7195 1.33425 50.2965C0.911239 49.8734 0.575692 49.3713 0.346762 48.8186C0.117832 48.2659 8.5962e-10 47.6735 8.5962e-10 47.0753V31.7538V31.7538C-1.2896e-05 31.0201 0.14509 30.2936 0.426957 29.6162C0.708824 28.9388 1.12189 28.3239 1.64238 27.8067C2.16287 27.2896 2.78051 26.8805 3.45973 26.6031C4.13797 26.326 4.86425 26.1856 5.59688 26.1899H26.4794C27.7038 26.1905 28.9027 26.544 29.9315 27.2081C30.9599 27.8719 31.7753 28.8179 32.2802 29.933L32.2807 29.9342L35.2389 36.4329L41.2738 39.7869C41.981 40.1835 42.5695 40.7615 42.9788 41.4614C43.3881 42.1612 43.6033 42.9576 43.6022 43.7684L42.6749 43.7671H43.6022V43.7684V47.0753C43.6014 48.2836 43.1209 49.4427 42.2662 50.2968C41.4115 51.1509 40.2527 51.6307 39.0444 51.6307H38.0653Z" fill="#000001"/>
</g>
<defs>
<clipPath id="clip0_937_1133">
<rect width="64" height="64" fill="white"/>
</clipPath>
</defs>
</svg>
