<svg width="24" height="24" viewBox="0 0 24 24" fill="none" xmlns="http://www.w3.org/2000/svg">
<path fill-rule="evenodd" clip-rule="evenodd" d="M10.3983 3.75805C10.3223 3.83401 10.2193 3.87667 10.1119 3.87667C10.0569 3.87671 10.0025 3.86565 9.95191 3.84418C9.90131 3.82271 9.85557 3.79126 9.81741 3.7517C9.77925 3.71214 9.74946 3.66529 9.72983 3.61395C9.71019 3.56261 9.70111 3.50785 9.70313 3.45292V2.63918C9.71285 2.538 9.75992 2.44408 9.83514 2.37573C9.91037 2.30739 10.0084 2.26953 10.11 2.26953C10.2116 2.26953 10.3096 2.30739 10.3849 2.37573C10.4601 2.44408 10.5072 2.538 10.5169 2.63918V3.47168C10.5169 3.57909 10.4742 3.6821 10.3983 3.75805ZM5.45744 5.41555C5.39111 5.46028 5.31312 5.48457 5.23312 5.4854C5.12607 5.48427 5.02374 5.44118 4.94812 5.3654L4.13436 4.55164C4.05902 4.47517 4.01678 4.37213 4.01678 4.26477C4.01678 4.15742 4.05902 4.05437 4.13436 3.97789C4.21147 3.90231 4.31515 3.85999 4.42312 3.85999C4.53109 3.85999 4.63476 3.90231 4.71186 3.97789L5.52187 4.79165C5.57765 4.84899 5.61538 4.92145 5.63038 5.00003C5.64538 5.07862 5.637 5.15987 5.60625 5.23373C5.57551 5.3076 5.52376 5.37081 5.45744 5.41555ZM14.9869 5.48151C15.0402 5.48292 15.0932 5.47295 15.1423 5.45226C15.1915 5.43157 15.2356 5.40062 15.2719 5.36151L16.0856 4.55151C16.161 4.47503 16.2032 4.37199 16.2032 4.26464C16.2032 4.15728 16.161 4.05423 16.0856 3.97776C16.0482 3.93954 16.0036 3.90919 15.9544 3.88846C15.9051 3.86773 15.8522 3.85706 15.7987 3.85706C15.7453 3.85706 15.6924 3.86773 15.6431 3.88846C15.5939 3.90919 15.5492 3.93954 15.5119 3.97776L14.6981 4.78776C14.6228 4.86423 14.5805 4.96728 14.5805 5.07464C14.5805 5.18199 14.6228 5.28503 14.6981 5.36151C14.7355 5.40017 14.7804 5.43076 14.8301 5.4514C14.8797 5.47204 14.9331 5.48229 14.9869 5.48151ZM2.79937 9.54651H3.60938C3.71679 9.54651 3.8198 9.58917 3.89575 9.66513C3.9717 9.74108 4.01438 9.8441 4.01438 9.95152C4.01438 10.0589 3.9717 10.1619 3.89575 10.2379C3.8198 10.3138 3.71679 10.3565 3.60938 10.3565H2.79937C2.69196 10.3565 2.58895 10.3138 2.513 10.2379C2.43704 10.1619 2.39438 10.0589 2.39438 9.95152C2.39438 9.8441 2.43704 9.74108 2.513 9.66513C2.58895 9.58917 2.69196 9.54651 2.79937 9.54651ZM5.12437 11.6764C5.15126 11.755 5.20167 11.8234 5.26875 11.8724C5.33582 11.9213 5.41633 11.9485 5.49937 11.9502C5.54529 11.95 5.59088 11.9424 5.63436 11.9277C5.68508 11.91 5.73178 11.8825 5.77176 11.8466C5.81173 11.8108 5.84418 11.7673 5.86721 11.7188C5.89025 11.6703 5.9034 11.6177 5.90592 11.5641C5.90843 11.5105 5.90025 11.4569 5.88186 11.4064C5.7173 10.939 5.6336 10.447 5.63436 9.95141C5.63575 9.04549 5.91236 8.16136 6.42755 7.41619C6.94274 6.67102 7.67218 6.09998 8.51923 5.77873C9.36628 5.45747 10.291 5.40118 11.1707 5.6173C12.0505 5.83341 12.8438 6.31174 13.4456 6.98891C13.481 7.02896 13.5239 7.06162 13.5719 7.08501C13.62 7.1084 13.6721 7.12206 13.7255 7.12519C13.7788 7.12833 13.8322 7.12089 13.8827 7.10329C13.9331 7.08569 13.9796 7.0583 14.0194 7.02267C14.0985 6.95021 14.1463 6.84975 14.1526 6.74263C14.1589 6.63551 14.1232 6.53014 14.0531 6.4489C13.3417 5.6487 12.4039 5.08353 11.3641 4.82826C10.3242 4.57299 9.23133 4.63967 8.23021 5.01946C7.2291 5.39925 6.36699 6.07422 5.75811 6.95497C5.14922 7.83572 4.82229 8.88068 4.82062 9.95141C4.82355 10.5395 4.92626 11.1227 5.12437 11.6764ZM17.8931 9.96277L21.5044 16.4615C21.6082 16.6502 21.6333 16.8723 21.5743 17.0794C21.5154 17.2866 21.377 17.4621 21.1894 17.5678C21.0691 17.6349 20.9334 17.6698 20.7956 17.669H14.5781V21.3253C14.5781 21.4327 14.5355 21.5357 14.4595 21.6116C14.3836 21.6876 14.2805 21.7303 14.1731 21.7303C14.0657 21.7303 13.9627 21.6876 13.8868 21.6116C13.8108 21.5357 13.7681 21.4327 13.7681 21.3253V17.669H12.1406V21.3253C12.1406 21.4327 12.098 21.5357 12.022 21.6116C11.9461 21.6876 11.843 21.7303 11.7356 21.7303C11.6282 21.7303 11.5252 21.6876 11.4493 21.6116C11.3733 21.5357 11.3306 21.4327 11.3306 21.3253V17.669H5.11313C4.8983 17.669 4.69228 17.5837 4.54038 17.4318C4.38847 17.2799 4.30313 17.0738 4.30313 16.859C4.30235 16.7212 4.33723 16.5856 4.40437 16.4653L8.01563 9.96277C8.08588 9.83647 8.18866 9.73125 8.31329 9.65806C8.43791 9.58487 8.57985 9.54636 8.72438 9.54651H17.1844C17.329 9.54596 17.4711 9.58431 17.5958 9.65755C17.7205 9.73078 17.8232 9.8362 17.8931 9.96277ZM10.5844 15.2315L10.2094 16.859H15.7219L15.3469 15.2315H10.5844ZM11.1281 12.794L10.7531 14.4215H15.1856L14.8106 12.794H11.1281ZM10.2881 12.794H7.37812L6.45938 14.4215H9.91313L10.2881 12.794ZM14.6344 11.984L14.2594 10.3565H11.6681L11.2931 11.984H14.6344ZM18.5456 12.794H15.6356L15.9956 14.4215H19.4494L18.5456 12.794ZM15.4706 11.984H18.0956L17.1806 10.3565H15.0956L15.4706 11.984ZM10.8206 10.3565H8.72063L7.82063 11.984H10.4456L10.8206 10.3565ZM9.73688 15.2315H6.01313L5.11313 16.859H9.36188L9.73688 15.2315ZM16.1381 15.2315L16.5131 16.859H20.7656L19.8619 15.2315H16.1381Z" fill="black"/>
</svg>
