<svg width="24" height="24" viewBox="0 0 24 24" fill="none" xmlns="http://www.w3.org/2000/svg">
<path fill-rule="evenodd" clip-rule="evenodd" d="M18.5228 14.7286C19.1288 14.4866 19.6252 14.0309 19.9182 13.4477C20.2111 12.8646 20.2804 12.1944 20.1128 11.5636C20.5186 11.3298 20.8556 10.9931 21.0899 10.5876C21.3242 10.1821 21.4476 9.72199 21.4476 9.25364C21.4476 8.78529 21.3242 8.3252 21.0899 7.91968C20.8556 7.51416 20.5186 7.17752 20.1128 6.94364C20.233 6.49157 20.2322 6.01587 20.1107 5.56416C19.9892 5.11245 19.7511 4.70059 19.4204 4.36983C19.0896 4.03907 18.6777 3.801 18.226 3.67948C17.7743 3.55795 17.2986 3.55724 16.8465 3.67739C16.5233 3.12583 16.0126 2.70879 15.4075 2.50229C14.8025 2.29579 14.1433 2.31357 13.5503 2.55239C12.9974 2.77006 12.5328 3.16595 12.2303 3.67739C11.6137 3.51086 10.9578 3.57056 10.3814 3.8457C9.80497 4.12084 9.34609 4.59324 9.08779 5.17739C8.85165 5.72939 8.80677 6.34447 8.96029 6.92489C8.4096 7.24806 7.99316 7.75812 7.78671 8.36234C7.58026 8.96656 7.5975 9.62481 7.83529 10.2174C8.05224 10.7717 8.44821 11.2376 8.96029 11.5411C8.84014 11.9932 8.84086 12.4689 8.96239 12.9206C9.08391 13.3723 9.32196 13.7842 9.65273 14.115C9.98349 14.4457 10.3953 14.6838 10.8471 14.8053C11.2988 14.9268 11.7745 14.9275 12.2265 14.8074C12.5092 15.3097 12.9494 15.7051 13.479 15.9324C13.7999 16.0733 14.1457 16.1485 14.496 16.1537C14.8464 16.1588 15.1942 16.0938 15.519 15.9624C16.0756 15.7396 16.5416 15.337 16.8428 14.8186C17.3977 14.9718 17.9874 14.9402 18.5228 14.7286ZM16.4828 13.9486C16.4326 13.9702 16.3872 14.0016 16.3492 14.0408C16.3112 14.0801 16.2814 14.1265 16.2615 14.1774C16.1236 14.5216 15.8858 14.8167 15.5787 15.0245C15.2716 15.2323 14.9092 15.3434 14.5384 15.3434C14.1676 15.3434 13.8053 15.2323 13.4982 15.0245C13.191 14.8167 12.9532 14.5216 12.8153 14.1774C12.7954 14.1265 12.7656 14.0801 12.7276 14.0408C12.6896 14.0016 12.6442 13.9702 12.594 13.9486C12.5437 13.9297 12.4904 13.9195 12.4365 13.9186C12.3811 13.919 12.3263 13.9305 12.2753 13.9524C11.9343 14.0986 11.5573 14.1392 11.193 14.0691C10.8286 13.999 10.4937 13.8212 10.2313 13.5589C9.96894 13.2965 9.79122 12.9616 9.72108 12.5972C9.65094 12.2329 9.69159 11.8559 9.83779 11.5149C9.85914 11.4645 9.87014 11.4103 9.87014 11.3555C9.87014 11.3008 9.85914 11.2466 9.83779 11.1961C9.81621 11.1459 9.78489 11.1005 9.74562 11.0626C9.70635 11.0246 9.65993 10.9948 9.60905 10.9749C9.3749 10.8806 9.1622 10.74 8.98371 10.5615C8.80521 10.383 8.6646 10.1703 8.5703 9.93614C8.39447 9.4787 8.40473 8.97061 8.59888 8.52064C8.79302 8.07067 9.15562 7.71458 9.60905 7.52864C9.65993 7.50875 9.70635 7.47895 9.74562 7.44097C9.78489 7.40299 9.81621 7.35758 9.83779 7.30739C9.85914 7.25697 9.87014 7.20278 9.87014 7.14802C9.87014 7.09326 9.85914 7.03906 9.83779 6.98864C9.69095 6.64724 9.64998 6.26963 9.72017 5.90468C9.79035 5.53973 9.96846 5.20424 10.2315 4.94166C10.4944 4.67907 10.8302 4.50147 11.1953 4.43185C11.5603 4.36222 11.9379 4.40378 12.279 4.55114C12.3288 4.57239 12.3824 4.58334 12.4365 4.58334C12.4907 4.58334 12.5443 4.57239 12.594 4.55114C12.6441 4.53035 12.6895 4.49972 12.7275 4.46107C12.7655 4.42242 12.7953 4.37655 12.8153 4.32615C12.9526 3.98074 13.1904 3.6845 13.4979 3.47578C13.8055 3.26707 14.1686 3.15549 14.5403 3.15549C14.912 3.15549 15.2751 3.26707 15.5827 3.47578C15.8902 3.6845 16.128 3.98074 16.2653 4.32615C16.307 4.42706 16.3864 4.50775 16.4865 4.55114C16.5363 4.57239 16.5899 4.58334 16.644 4.58334C16.6982 4.58334 16.7518 4.57239 16.8015 4.55114C17.0339 4.45212 17.2839 4.40107 17.5366 4.40107C17.7892 4.40107 18.0392 4.45212 18.2715 4.55114C18.7201 4.74964 19.073 5.11603 19.2546 5.5717C19.4361 6.02737 19.4319 6.53605 19.2428 6.98864C19.2208 7.03849 19.2091 7.09226 19.2084 7.14674C19.2076 7.20122 19.2179 7.25529 19.2386 7.30571C19.2592 7.35613 19.2898 7.40185 19.3286 7.44015C19.3673 7.47846 19.4134 7.50856 19.464 7.52864C19.8105 7.66428 20.1078 7.90171 20.3166 8.20964C20.5255 8.51758 20.6362 8.88157 20.634 9.25364C20.6349 9.62496 20.5237 9.98789 20.3149 10.295C20.1062 10.6021 19.8096 10.839 19.464 10.9749C19.4132 10.9948 19.3667 11.0246 19.3275 11.0626C19.2882 11.1005 19.2569 11.1459 19.2353 11.1961C19.214 11.2466 19.2029 11.3008 19.2029 11.3555C19.2029 11.4103 19.214 11.4645 19.2353 11.5149C19.3338 11.7468 19.3846 11.9961 19.3846 12.248C19.3846 12.4999 19.3338 12.7493 19.2353 12.9811C19.0368 13.4297 18.6704 13.7826 18.2147 13.9642C17.7591 14.1457 17.2504 14.1415 16.7978 13.9524C16.6971 13.9111 16.5844 13.9097 16.4828 13.9486ZM21.3616 14.0312L23.9041 18.4337L23.8928 18.4449C23.9622 18.5419 23.9997 18.6581 24 18.7773C24.0003 18.8965 23.9635 19.0129 23.8946 19.1103C23.8257 19.2076 23.7282 19.2811 23.6157 19.3204C23.5031 19.3598 23.3811 19.3631 23.2666 19.3299L20.8778 18.9249L20.0491 21.2087C20.0178 21.3224 19.9532 21.4242 19.8637 21.501C19.7742 21.5779 19.6637 21.6262 19.5466 21.6399H19.5241C19.4144 21.6376 19.3075 21.6052 19.2149 21.5464C19.1224 21.4876 19.0477 21.4045 18.9991 21.3062L16.5616 17.1812C16.534 17.1355 16.5157 17.0848 16.508 17.032C16.5002 16.9792 16.503 16.9254 16.5163 16.8737C16.5295 16.8221 16.553 16.7736 16.5852 16.731C16.6175 16.6885 16.6579 16.6529 16.7041 16.6262C16.7968 16.5724 16.9069 16.5572 17.0107 16.5839C17.1145 16.6105 17.2037 16.6769 17.2591 16.7687L19.4678 20.4999L20.2591 18.3249C20.2912 18.2362 20.3535 18.1617 20.4351 18.1143C20.5167 18.067 20.6124 18.05 20.7053 18.0662L22.9853 18.4412L20.6716 14.4362C20.6344 14.3909 20.6075 14.3382 20.5927 14.2816C20.5779 14.2249 20.5756 14.1658 20.5859 14.1081C20.5961 14.0505 20.6188 13.9958 20.6522 13.9478C20.6856 13.8997 20.7291 13.8595 20.7796 13.8299C20.83 13.8003 20.8863 13.7819 20.9446 13.7761C21.0028 13.7704 21.0616 13.7773 21.1169 13.7964C21.1723 13.8155 21.2228 13.8464 21.265 13.887C21.3072 13.9275 21.3402 13.9767 21.3616 14.0312ZM12.0849 16.5801C12.1887 16.5534 12.2988 16.5686 12.3916 16.6224C12.4813 16.6757 12.5472 16.7614 12.5758 16.8618C12.6044 16.9622 12.5935 17.0697 12.5453 17.1624L10.1078 21.2874C10.0582 21.3857 9.98281 21.4687 9.88967 21.5275C9.79654 21.5863 9.68918 21.6186 9.57907 21.6211H9.53032C9.41314 21.6074 9.30272 21.5591 9.2132 21.4822C9.12368 21.4054 9.05913 21.3036 9.02782 21.1899L8.19906 18.9061L5.80281 19.3111C5.68914 19.3391 5.56977 19.3335 5.45925 19.2948C5.34873 19.2562 5.25181 19.1863 5.18031 19.0936C5.11528 18.9937 5.08066 18.8771 5.08066 18.758C5.08066 18.6388 5.11528 18.5222 5.18031 18.4224L7.71906 14.0236C7.74565 13.9773 7.7811 13.9367 7.82338 13.9041C7.86567 13.8715 7.91396 13.8476 7.9655 13.8337C8.01703 13.8197 8.07081 13.8161 8.12376 13.8229C8.1767 13.8298 8.22777 13.847 8.27406 13.8736C8.32035 13.9002 8.36095 13.9356 8.39354 13.9779C8.42613 14.0202 8.45008 14.0685 8.46401 14.12C8.47794 14.1716 8.48158 14.2254 8.47472 14.2783C8.46787 14.3312 8.45065 14.3823 8.42406 14.4286L6.11032 18.4336L8.39031 18.0586C8.48317 18.0432 8.57852 18.0605 8.65996 18.1078C8.7414 18.155 8.80385 18.2291 8.83656 18.3174L9.63156 20.4924L11.8366 16.7649C11.8919 16.6731 11.9811 16.6067 12.0849 16.5801ZM17.7897 6.8147C17.897 6.8147 18.0001 6.85693 18.0765 6.93227C18.1149 6.96996 18.1453 7.01491 18.1661 7.06449C18.1869 7.11406 18.1976 7.16727 18.1976 7.22102C18.1976 7.27477 18.1869 7.32799 18.1661 7.37756C18.1453 7.42714 18.1149 7.47209 18.0765 7.50978L14.244 11.3423C14.1498 11.4374 14.0377 11.5129 13.9141 11.5644C13.7905 11.6159 13.6579 11.6424 13.5241 11.6423C13.3908 11.6419 13.2589 11.6152 13.136 11.5637C13.0131 11.5122 12.9016 11.437 12.8078 11.3423L11.409 9.94728C11.3335 9.87017 11.2911 9.76649 11.2911 9.65852C11.2911 9.55055 11.3335 9.44688 11.409 9.36977C11.4855 9.29443 11.5886 9.2522 11.6959 9.2522C11.8033 9.2522 11.9063 9.29443 11.9828 9.36977L13.3815 10.7685C13.4004 10.7877 13.4229 10.8029 13.4477 10.8133C13.4724 10.8237 13.4991 10.829 13.5259 10.829C13.5528 10.829 13.5794 10.8237 13.6042 10.8133C13.629 10.8029 13.6515 10.7877 13.6703 10.7685L17.5028 6.93227C17.5793 6.85693 17.6823 6.8147 17.7897 6.8147Z" fill="black"/>
</svg>
