<svg width="64" height="64" viewBox="0 0 64 64" fill="none" xmlns="http://www.w3.org/2000/svg">
<path d="M48.8664 26.5598C48.7819 26.3967 48.6542 26.2601 48.4972 26.1648C48.3402 26.0696 48.16 26.0194 47.9764 26.0198H33.2564L36.9864 9.23976C37.0371 9.01446 37.0083 8.77855 36.9049 8.57207C36.8014 8.36558 36.6297 8.20127 36.4189 8.10704C36.208 8.01281 35.971 7.99448 35.7482 8.05513C35.5254 8.11578 35.3304 8.25168 35.1964 8.43977L15.1964 36.4398C15.0961 36.5846 15.0359 36.7534 15.0219 36.929C15.0078 37.1046 15.0404 37.2808 15.1164 37.4398C15.2008 37.6028 15.3286 37.7395 15.4856 37.8347C15.6426 37.93 15.8228 37.9802 16.0064 37.9798H30.7664L27.0364 54.7698C26.9865 54.995 27.016 55.2305 27.1199 55.4364C27.2237 55.6424 27.3956 55.8061 27.6064 55.8998C27.7338 55.9503 27.8693 55.9774 28.0064 55.9798C28.1667 55.9806 28.3249 55.9429 28.4676 55.8698C28.6103 55.7967 28.7334 55.6904 28.8264 55.5598L48.8264 27.5598C48.9203 27.4113 48.9735 27.2407 48.9805 27.0651C48.9875 26.8896 48.9481 26.7153 48.8664 26.5598ZM30.0264 50.4398L32.9564 37.2398C32.9879 37.0937 32.9863 36.9424 32.9517 36.7971C32.9171 36.6517 32.8504 36.5159 32.7564 36.3998C32.6633 36.2819 32.5448 36.1866 32.4097 36.1208C32.2747 36.055 32.1266 36.0205 31.9764 36.0198H17.9564L33.9564 13.5998L31.0264 26.8098C30.9935 26.9551 30.9934 27.1059 31.0263 27.2513C31.0592 27.3966 31.1241 27.5327 31.2164 27.6498C31.3105 27.7658 31.4294 27.8593 31.5644 27.9233C31.6994 27.9873 31.847 28.0203 31.9964 28.0198H46.0664L30.0264 50.4398Z" fill="black"/>
</svg>
