<svg width="24" height="24" viewBox="0 0 24 24" fill="none" xmlns="http://www.w3.org/2000/svg">
<path fill-rule="evenodd" clip-rule="evenodd" d="M6.98781 2.46167C7.07458 2.52522 7.14797 2.60528 7.20375 2.69725C8.9625 5.55475 13.0237 12.5147 13.0012 15.3497C12.9605 17.0468 12.2577 18.6606 11.043 19.8464C9.82838 21.0323 8.19815 21.6961 6.50062 21.6961C4.80309 21.6961 3.17286 21.0323 1.9582 19.8464C0.743537 18.6606 0.0407626 17.0468 0 15.3497C0 12.5147 4.06124 5.55475 5.80499 2.69725C5.87241 2.58493 5.96643 2.49092 6.07875 2.42349C6.17055 2.36744 6.2725 2.33006 6.37878 2.31348C6.48505 2.2969 6.59355 2.30145 6.69806 2.32688C6.80256 2.35231 6.90103 2.39812 6.98781 2.46167ZM2.49205 19.3672C3.55626 20.4335 4.99976 21.0345 6.50625 21.0385H6.52124C8.02808 21.0335 9.47156 20.4317 10.5357 19.3648C11.5998 18.2979 12.1978 16.8528 12.1987 15.346C12.1987 12.6422 7.845 5.29975 6.51375 3.11725C5.1825 5.30725 0.828747 12.646 0.828747 15.3497C0.829734 16.8562 1.42785 18.3009 2.49205 19.3672ZM4.2375 17.6372C4.84451 18.2399 5.66586 18.5771 6.52125 18.5747C6.57537 18.5732 6.62925 18.5826 6.67969 18.6023C6.73013 18.622 6.77612 18.6516 6.81492 18.6893C6.85373 18.7271 6.88458 18.7722 6.90563 18.8221C6.92668 18.872 6.93752 18.9256 6.9375 18.9797C6.93459 19.0885 6.88957 19.1919 6.81193 19.2682C6.73428 19.3444 6.63006 19.3876 6.52125 19.3885C5.45084 19.3914 4.42307 18.9692 3.66375 18.2147C3.61993 18.1786 3.58414 18.1336 3.55867 18.0828C3.53319 18.032 3.51859 17.9764 3.5158 17.9197C3.51301 17.8629 3.52208 17.8062 3.54245 17.7531C3.56282 17.7001 3.59403 17.6518 3.63408 17.6115C3.67414 17.5712 3.72217 17.5397 3.7751 17.519C3.82803 17.4982 3.88469 17.4888 3.94147 17.4912C3.99826 17.4936 4.05391 17.5079 4.10488 17.533C4.15585 17.5582 4.20102 17.5937 4.2375 17.6372Z" fill="black"/>
</svg>
