<svg width="24" height="24" viewBox="0 0 24 24" fill="none" xmlns="http://www.w3.org/2000/svg">
<path fill-rule="evenodd" clip-rule="evenodd" d="M5.595 20.726C5.71504 20.8019 5.85419 20.8422 5.99625 20.8422C6.12237 20.8426 6.24657 20.8113 6.35734 20.7509C6.46812 20.6906 6.56189 20.6034 6.63 20.4972C8.25 17.9735 12 11.816 12 9.15723C12 7.56593 11.3679 6.0398 10.2426 4.91458C9.11742 3.78936 7.5913 3.15723 6 3.15723C4.4087 3.15723 2.88258 3.78936 1.75736 4.91458C0.632142 6.0398 0 7.56593 0 9.15723C0 11.8197 3.75375 17.9772 5.36625 20.4972C5.42673 20.5878 5.50446 20.6655 5.595 20.726ZM2.28394 5.44491C3.26851 4.46035 4.60386 3.90723 5.99625 3.90723H6C7.39174 3.90822 8.72613 4.46178 9.70989 5.44624C10.6936 6.4307 11.2462 7.76549 11.2462 9.15723C11.2462 11.6885 7.22625 18.1685 5.99625 20.0922C3.4575 16.1285 0.746249 11.171 0.746249 9.15723C0.746249 7.76484 1.29937 6.42948 2.28394 5.44491ZM4.54163 11.3398C4.97331 11.6283 5.48082 11.7822 6 11.7822C6.69619 11.7822 7.36387 11.5057 7.85615 11.0134C8.34844 10.5211 8.625 9.85342 8.625 9.15723C8.625 8.63806 8.47105 8.13053 8.18261 7.69885C7.89417 7.26717 7.4842 6.93073 7.00454 6.73205C6.52489 6.53337 5.99709 6.48138 5.48789 6.58267C4.97869 6.68395 4.51096 6.93396 4.14385 7.30107C3.77673 7.66818 3.52673 8.13591 3.42544 8.64511C3.32415 9.15431 3.37614 9.68211 3.57482 10.1618C3.7735 10.6414 4.10995 11.0514 4.54163 11.3398ZM4.9583 7.59823C5.26665 7.3922 5.62916 7.28223 6 7.28223C6.49728 7.28223 6.97419 7.47977 7.32582 7.8314C7.67745 8.18303 7.875 8.65995 7.875 9.15723C7.875 9.52807 7.76503 9.89058 7.55901 10.1989C7.35298 10.5073 7.06014 10.7476 6.71753 10.8895C6.37492 11.0314 5.99792 11.0685 5.63421 10.9962C5.27049 10.9238 4.9364 10.7453 4.67417 10.4831C4.41195 10.2208 4.23337 9.88673 4.16103 9.52302C4.08868 9.1593 4.12581 8.78231 4.26772 8.4397C4.40964 8.09709 4.64996 7.80425 4.9583 7.59823Z" fill="black"/>
</svg>
