<svg width="64" height="64" viewBox="0 0 64 64" fill="none" xmlns="http://www.w3.org/2000/svg">
<path fill-rule="evenodd" clip-rule="evenodd" d="M5.09688 12.0371C5.56603 12.0371 5.94636 12.4174 5.94636 12.8866V16.5205C6.87828 15.6869 8.08734 15.2227 9.34428 15.2227H41.1998C42.4567 15.2227 43.6658 15.6869 44.5977 16.5205V12.8866C44.5977 12.4174 44.978 12.0371 45.4472 12.0371C45.9163 12.0371 46.2967 12.4174 46.2967 12.8866V30.2125C46.7656 30.3523 47.1972 30.6071 47.5495 30.9594C48.1071 31.517 48.4204 32.2732 48.4204 33.0617V40.7071H49.6946C50.1637 40.7071 50.5441 41.0874 50.5441 41.5565V44.7421C50.5441 45.5306 50.2308 46.2869 49.6732 46.8444C49.3209 47.1967 48.8893 47.4515 48.4204 47.5913V51.1132C48.4204 51.5823 48.04 51.9627 47.5709 51.9627C47.1017 51.9627 46.7214 51.5823 46.7214 51.1132V47.7153H3.82266V51.1132C3.82266 51.5823 3.44233 51.9627 2.97318 51.9627C2.50402 51.9627 2.1237 51.5823 2.1237 51.1132V47.5913C1.65474 47.4515 1.22313 47.1967 0.870824 46.8444C0.313244 46.2869 0 45.5306 0 44.7421V41.5565C0 41.0874 0.380325 40.7071 0.84948 40.7071H2.1237V33.0617C2.1237 32.2732 2.43694 31.517 2.99452 30.9594C3.34683 30.6071 3.77844 30.3523 4.2474 30.2125V12.8866C4.2474 12.4174 4.62772 12.0371 5.09688 12.0371ZM5.94636 30.0886H8.78169C8.59456 29.694 8.4948 29.2593 8.4948 28.8143V27.0517C8.4948 25.9708 9.0947 25.1612 9.84182 24.5937C10.5774 24.0349 11.53 23.6466 12.4661 23.3722C14.3438 22.8217 16.4179 22.6556 17.3082 22.6556C17.8708 22.6556 19.9394 22.8299 21.8864 23.3775C22.8585 23.6509 23.8674 24.0353 24.6513 24.5825C24.8588 24.7273 25.0595 24.8904 25.2424 25.0726C25.4075 24.8961 25.5897 24.736 25.7811 24.5917C26.5213 24.0339 27.4793 23.646 28.4187 23.3719C30.3031 22.8219 32.3765 22.6556 33.2359 22.6556C33.7986 22.6556 35.8671 22.8299 37.8142 23.3775C38.7862 23.6509 39.7952 24.0353 40.579 24.5825C41.363 25.1297 42.0493 25.9373 42.0493 27.0517V28.8143C42.0493 29.2593 41.9495 29.694 41.7624 30.0886H44.5977V20.3195C44.5977 19.4184 44.2397 18.5541 43.6025 17.9168C42.9652 17.2796 42.101 16.9216 41.1998 16.9216H9.34428C8.44309 16.9216 7.57882 17.2796 6.94159 17.9168C6.30435 18.5541 5.94636 19.4184 5.94636 20.3195V30.0886ZM39.0761 30.0886C39.414 30.0886 39.7381 29.9543 39.9771 29.7153C40.216 29.4764 40.3503 29.1523 40.3503 28.8143V27.0517C40.3503 26.7219 40.1632 26.3641 39.6066 25.9756C39.0498 25.587 38.251 25.2653 37.3542 25.013C35.5635 24.5094 33.6501 24.3546 33.2359 24.3546C32.5025 24.3546 30.594 24.5068 28.8947 25.0028C28.0422 25.2516 27.3078 25.5685 26.8036 25.9485C26.3102 26.3204 26.1215 26.6813 26.1215 27.0517V28.8143C26.1215 29.1523 26.2558 29.4764 26.4947 29.7153C26.7337 29.9543 27.0578 30.0886 27.3957 30.0886H39.0761ZM5.09688 31.7875C4.75894 31.7875 4.43483 31.9218 4.19587 32.1607C3.95691 32.3997 3.82266 32.7238 3.82266 33.0617V40.7071H46.7214V33.0617C46.7214 32.7238 46.5871 32.3997 46.3482 32.1607C46.1092 31.9218 45.7851 31.7875 45.4472 31.7875H5.09688ZM23.1483 30.0886C23.4863 30.0886 23.8104 29.9543 24.0493 29.7153C24.2883 29.4764 24.4225 29.1523 24.4225 28.8143V27.0517C24.4225 26.7219 24.2354 26.3641 23.6788 25.9756C23.1221 25.587 22.3232 25.2653 21.4264 25.013C19.6358 24.5094 17.7224 24.3546 17.3082 24.3546C16.5419 24.3546 14.634 24.5071 12.944 25.0025C12.0961 25.2511 11.3684 25.5675 10.8696 25.9465C10.3823 26.3167 10.1938 26.6778 10.1938 27.0517V28.8143C10.1938 29.1523 10.328 29.4764 10.567 29.7153C10.8059 29.9543 11.13 30.0886 11.468 30.0886H23.1483ZM1.69896 42.406V44.7421C1.69896 45.08 1.83321 45.4041 2.07217 45.6431C2.31113 45.8821 2.63523 46.0163 2.97318 46.0163H47.5709C47.9088 46.0163 48.2329 45.8821 48.4719 45.6431C48.7108 45.4041 48.8451 45.08 48.8451 44.7421V42.406H1.69896Z" fill="#000001"/>
</svg>
