<svg width="64" height="64" viewBox="0 0 64 64" fill="none" xmlns="http://www.w3.org/2000/svg">
<path fill-rule="evenodd" clip-rule="evenodd" d="M30.92 55.2699C31.2401 55.4725 31.6112 55.58 31.99 55.5799C32.3263 55.581 32.6575 55.4973 32.9529 55.3365C33.2483 55.1757 33.4984 54.943 33.68 54.6599C38 47.9299 48 31.5099 48 24.4199C48 20.1765 46.3143 16.1068 43.3137 13.1062C40.3131 10.1056 36.2435 8.41992 32 8.41992C27.7565 8.41992 23.6869 10.1056 20.6863 13.1062C17.6857 16.1068 16 20.1765 16 24.4199C16 31.5199 26.01 47.9399 30.31 54.6599C30.4713 54.9013 30.6786 55.1086 30.92 55.2699ZM22.0905 14.5204C24.716 11.8949 28.277 10.4199 31.99 10.4199H32C35.7113 10.4226 39.2697 11.8987 41.893 14.524C44.5164 17.1492 45.99 20.7086 45.99 24.4199C45.99 31.1699 35.27 48.4499 31.99 53.5799C25.22 43.0099 17.99 29.7899 17.99 24.4199C17.99 20.7069 19.465 17.1459 22.0905 14.5204ZM28.111 30.2402C29.2622 31.0094 30.6155 31.4199 32 31.4199C33.8565 31.4199 35.637 30.6824 36.9497 29.3697C38.2625 28.0569 39 26.2765 39 24.4199C39 23.0355 38.5895 21.6821 37.8203 20.5309C37.0511 19.3798 35.9579 18.4826 34.6788 17.9528C33.3997 17.423 31.9922 17.2843 30.6344 17.5544C29.2765 17.8245 28.0292 18.4912 27.0503 19.4702C26.0713 20.4491 25.4046 21.6964 25.1345 23.0543C24.8644 24.4121 25.003 25.8196 25.5328 27.0987C26.0627 28.3778 26.9599 29.471 28.111 30.2402ZM29.2221 20.2626C30.0444 19.7132 31.0111 19.4199 32 19.4199C33.3261 19.4199 34.5978 19.9467 35.5355 20.8844C36.4732 21.8221 37 23.0939 37 24.4199C37 25.4088 36.7068 26.3755 36.1573 27.1978C35.6079 28.02 34.827 28.6609 33.9134 29.0393C32.9998 29.4178 31.9945 29.5168 31.0246 29.3238C30.0546 29.1309 29.1637 28.6547 28.4645 27.9555C27.7652 27.2562 27.289 26.3653 27.0961 25.3954C26.9031 24.4255 27.0022 23.4201 27.3806 22.5065C27.759 21.5929 28.3999 20.812 29.2221 20.2626Z" fill="black"/>
</svg>
