<svg width="24" height="24" viewBox="0 0 24 24" fill="none" xmlns="http://www.w3.org/2000/svg">
<path d="M17.9508 20.3871L13.7546 16.1908C15.1428 14.6636 15.8787 12.6539 15.805 10.5913C15.7312 8.5287 14.8537 6.57673 13.3599 5.1525C11.8662 3.72827 9.87461 2.94473 7.81083 2.96931C5.74706 2.9939 3.77473 3.82466 2.31532 5.28407C0.855903 6.74349 0.0251477 8.71581 0.000561593 10.7796C-0.0240246 12.8434 0.759513 14.8349 2.18375 16.3287C3.60798 17.8225 5.55994 18.7 7.62255 18.7737C9.68516 18.8475 11.6948 18.1116 13.2221 16.7233L17.4183 20.9233C17.4534 20.9581 17.4949 20.9856 17.5406 21.0043C17.5863 21.0229 17.6352 21.0324 17.6846 21.0321C17.7339 21.0324 17.7829 21.0229 17.8286 21.0043C17.8742 20.9856 17.9158 20.9581 17.9508 20.9233C17.9865 20.8884 18.0149 20.8467 18.0343 20.8007C18.0537 20.7546 18.0637 20.7052 18.0637 20.6552C18.0637 20.6053 18.0537 20.5558 18.0343 20.5098C18.0149 20.4637 17.9865 20.422 17.9508 20.3871V20.3871ZM0.809584 10.9033C0.809584 9.49415 1.22746 8.1166 2.01036 6.9449C2.79327 5.7732 3.90604 4.85997 5.20797 4.3207C6.50989 3.78142 7.94249 3.64033 9.3246 3.91525C10.7067 4.19017 11.9763 4.86876 12.9727 5.8652C13.9692 6.86165 14.6478 8.1312 14.9227 9.51332C15.1976 10.8954 15.0565 12.328 14.5172 13.63C13.978 14.9319 13.0647 16.0447 11.893 16.8276C10.7213 17.6105 9.34378 18.0283 7.93458 18.0283C6.04492 18.0283 4.23265 17.2777 2.89645 15.9415C1.56025 14.6053 0.809584 12.793 0.809584 10.9033V10.9033Z" fill="black"/>
</svg>
