<svg width="24" height="24" viewBox="0 0 24 24" fill="none" xmlns="http://www.w3.org/2000/svg">
<path fill-rule="evenodd" clip-rule="evenodd" d="M15.1313 3.40875L18.4838 7.48874C18.6517 7.68713 18.7458 7.93758 18.75 8.19749V19.875C18.75 20.1734 18.6315 20.4595 18.4205 20.6705C18.2095 20.8815 17.9234 21 17.625 21H6.375C6.07663 21 5.79049 20.8815 5.57951 20.6705C5.36853 20.4595 5.25 20.1734 5.25 19.875V4.125C5.25 3.82663 5.36853 3.54048 5.57951 3.3295C5.79049 3.11852 6.07663 3 6.375 3H14.265C14.4306 3.00019 14.5941 3.03692 14.7438 3.10757C14.8935 3.17823 15.0258 3.28107 15.1313 3.40875ZM17.8827 20.1289C17.953 20.0586 17.9925 19.9632 17.9925 19.8637V8.19374C17.9918 8.10741 17.9613 8.02396 17.9062 7.95749L14.5537 3.87374C14.5181 3.83092 14.4733 3.79658 14.4227 3.77323C14.3721 3.74988 14.317 3.73809 14.2612 3.73874H12.7425V6.36374C12.7425 6.4632 12.703 6.55858 12.6327 6.62891C12.5623 6.69924 12.467 6.73874 12.3675 6.73874C12.268 6.73874 12.1727 6.69924 12.1023 6.62891C12.032 6.55858 11.9925 6.4632 11.9925 6.36374V3.73874H10.4925V6.36374C10.4925 6.4632 10.453 6.55858 10.3827 6.62891C10.3123 6.69924 10.217 6.73874 10.1175 6.73874C10.018 6.73874 9.92266 6.69924 9.85233 6.62891C9.78201 6.55858 9.7425 6.4632 9.7425 6.36374V3.73874H8.2425V6.36374C8.2425 6.4632 8.20299 6.55858 8.13266 6.62891C8.06234 6.69924 7.96696 6.73874 7.8675 6.73874C7.76805 6.73874 7.67266 6.69924 7.60233 6.62891C7.53201 6.55858 7.4925 6.4632 7.4925 6.36374V3.73874H6.3675C6.26805 3.73874 6.17266 3.77825 6.10233 3.84858C6.03201 3.91891 5.9925 4.01428 5.9925 4.11374V19.8637C5.9925 19.9632 6.03201 20.0586 6.10233 20.1289C6.17266 20.1992 6.26805 20.2387 6.3675 20.2387H17.6175C17.717 20.2387 17.8123 20.1992 17.8827 20.1289ZM9.375 11.25H14.625C15.1223 11.25 15.5992 11.4475 15.9508 11.7992C16.3025 12.1508 16.5 12.6277 16.5 13.125V16.875C16.5 17.3723 16.3025 17.8492 15.9508 18.2008C15.5992 18.5525 15.1223 18.75 14.625 18.75H9.375C8.87772 18.75 8.40081 18.5525 8.04918 18.2008C7.69755 17.8492 7.5 17.3723 7.5 16.875V13.125C7.5 12.6277 7.69755 12.1508 8.04918 11.7992C8.40081 11.4475 8.87772 11.25 9.375 11.25ZM9.75 14.25H8.25V15.75H9.75V14.25ZM13.5 12H10.5V18H13.5V12ZM15.75 14.25H14.25V15.75H15.75V14.25ZM15.75 13.5V13.125C15.75 12.8266 15.6315 12.5405 15.4205 12.3295C15.2095 12.1185 14.9234 12 14.625 12H14.25V13.5H15.75ZM9.75 12H9.375C9.07663 12 8.79049 12.1185 8.57951 12.3295C8.36853 12.5405 8.25 12.8266 8.25 13.125V13.5H9.75V12ZM8.25 16.5V16.875C8.25 17.1734 8.36853 17.4595 8.57951 17.6705C8.79049 17.8815 9.07663 18 9.375 18H9.75V16.5H8.25ZM14.25 18H14.625C14.9234 18 15.2095 17.8815 15.4205 17.6705C15.6315 17.4595 15.75 17.1734 15.75 16.875V16.5H14.25V18Z" fill="black"/>
</svg>
