<svg width="24" height="24" viewBox="0 0 24 24" fill="none" xmlns="http://www.w3.org/2000/svg">
<path fill-rule="evenodd" clip-rule="evenodd" d="M20.25 20.25H20.625C20.7245 20.25 20.8198 20.2895 20.8902 20.3598C20.9605 20.4302 21 20.5255 21 20.625C21 20.7245 20.9605 20.8198 20.8902 20.8902C20.8198 20.9605 20.7245 21 20.625 21H3.375C3.27554 21 3.18016 20.9605 3.10983 20.8902C3.0395 20.8198 3 20.7245 3 20.625C3 20.5255 3.0395 20.4302 3.10983 20.3598C3.18016 20.2895 3.27554 20.25 3.375 20.25H3.75V13.5C3.75 13.3011 3.82902 13.1103 3.96967 12.9697C4.11032 12.829 4.30109 12.75 4.5 12.75H6V12.375C6 12.2755 6.0395 12.1802 6.10983 12.1098C6.18016 12.0395 6.27554 12 6.375 12C6.47446 12 6.56983 12.0395 6.64016 12.1098C6.71049 12.1802 6.75 12.2755 6.75 12.375V12.75C6.94891 12.75 7.13968 12.829 7.28033 12.9697C7.42098 13.1103 7.5 13.3011 7.5 13.5V20.25H8.25V7.125C8.25 6.82663 8.36852 6.54049 8.5795 6.32951C8.79048 6.11853 9.07663 6 9.375 6H10.5V5.25C10.5 5.05109 10.579 4.86032 10.7197 4.71967C10.8603 4.57902 11.0511 4.5 11.25 4.5H12V3.375C12 3.27554 12.0395 3.18017 12.1098 3.10984C12.1802 3.03951 12.2755 3 12.375 3C12.4745 3 12.5698 3.03951 12.6402 3.10984C12.7105 3.18017 12.75 3.27554 12.75 3.375V4.5C12.9489 4.5 13.1397 4.57902 13.2803 4.71967C13.421 4.86032 13.5 5.05109 13.5 5.25V6H14.625C14.9234 6 15.2095 6.11853 15.4205 6.32951C15.6315 6.54049 15.75 6.82663 15.75 7.125V20.25H16.5V13.5C16.5 13.3011 16.579 13.1103 16.7197 12.9697C16.8603 12.829 17.0511 12.75 17.25 12.75V12.375C17.25 12.2755 17.2895 12.1802 17.3598 12.1098C17.4302 12.0395 17.5255 12 17.625 12C17.7245 12 17.8198 12.0395 17.8902 12.1098C17.9605 12.1802 18 12.2755 18 12.375V12.75H19.5C19.6989 12.75 19.8897 12.829 20.0303 12.9697C20.171 13.1103 20.25 13.3011 20.25 13.5V20.25ZM19.5 13.5H17.25V20.25H19.5V13.5ZM12.75 6V5.25H11.25V6H12.75ZM9.10983 6.85984C9.0395 6.93017 9 7.02554 9 7.125V20.25H15V7.125C15 7.02554 14.9605 6.93017 14.8902 6.85984C14.8198 6.78951 14.7245 6.75 14.625 6.75H9.375C9.27554 6.75 9.18016 6.78951 9.10983 6.85984ZM6.75 13.5H4.5V20.25H6.75V13.5ZM9.85983 8.35984C9.93016 8.28951 10.0255 8.25 10.125 8.25H13.875C13.9745 8.25 14.0698 8.28951 14.1402 8.35984C14.2105 8.43017 14.25 8.52554 14.25 8.625C14.25 8.72446 14.2105 8.81984 14.1402 8.89017C14.0698 8.9605 13.9745 9 13.875 9H10.125C10.0255 9 9.93016 8.9605 9.85983 8.89017C9.7895 8.81984 9.75 8.72446 9.75 8.625C9.75 8.52554 9.7895 8.43017 9.85983 8.35984ZM10.125 10.5C10.0255 10.5 9.93016 10.5395 9.85983 10.6098C9.7895 10.6802 9.75 10.7755 9.75 10.875C9.75 10.9745 9.7895 11.0698 9.85983 11.1402C9.93016 11.2105 10.0255 11.25 10.125 11.25H13.875C13.9745 11.25 14.0698 11.2105 14.1402 11.1402C14.2105 11.0698 14.25 10.9745 14.25 10.875C14.25 10.7755 14.2105 10.6802 14.1402 10.6098C14.0698 10.5395 13.9745 10.5 13.875 10.5H10.125ZM9.85983 12.8598C9.93016 12.7895 10.0255 12.75 10.125 12.75H13.875C13.9745 12.75 14.0698 12.7895 14.1402 12.8598C14.2105 12.9302 14.25 13.0255 14.25 13.125C14.25 13.2245 14.2105 13.3198 14.1402 13.3902C14.0698 13.4605 13.9745 13.5 13.875 13.5H10.125C10.0255 13.5 9.93016 13.4605 9.85983 13.3902C9.7895 13.3198 9.75 13.2245 9.75 13.125C9.75 13.0255 9.7895 12.9302 9.85983 12.8598ZM10.125 15C10.0255 15 9.93016 15.0395 9.85983 15.1098C9.7895 15.1802 9.75 15.2755 9.75 15.375C9.75 15.4745 9.7895 15.5698 9.85983 15.6402C9.93016 15.7105 10.0255 15.75 10.125 15.75H13.875C13.9745 15.75 14.0698 15.7105 14.1402 15.6402C14.2105 15.5698 14.25 15.4745 14.25 15.375C14.25 15.2755 14.2105 15.1802 14.1402 15.1098C14.0698 15.0395 13.9745 15 13.875 15H10.125ZM9.85983 17.3598C9.93016 17.2895 10.0255 17.25 10.125 17.25H13.875C13.9745 17.25 14.0698 17.2895 14.1402 17.3598C14.2105 17.4302 14.25 17.5255 14.25 17.625C14.25 17.7245 14.2105 17.8198 14.1402 17.8902C14.0698 17.9605 13.9745 18 13.875 18H10.125C10.0255 18 9.93016 17.9605 9.85983 17.8902C9.7895 17.8198 9.75 17.7245 9.75 17.625C9.75 17.5255 9.7895 17.4302 9.85983 17.3598Z" fill="black"/>
</svg>
