<svg width="64" height="64" viewBox="0 0 64 64" fill="none" xmlns="http://www.w3.org/2000/svg">
<path fill-rule="evenodd" clip-rule="evenodd" d="M50 29.5V28.5C50 23.7261 48.1036 19.1477 44.7279 15.7721C41.3523 12.3964 36.7739 10.5 32 10.5C27.2261 10.5 22.6477 12.3964 19.2721 15.7721C15.8964 19.1477 14 23.7261 14 28.5V29.5C14.8604 28.8547 15.9119 28.5 17 28.5H21C21.2652 28.5 21.5196 28.6054 21.7071 28.7929C21.8946 28.9804 22 29.2348 22 29.5V43.5C22 43.7652 21.8946 44.0196 21.7071 44.2071C21.5196 44.3947 21.2652 44.5 21 44.5H17C15.6739 44.5 14.4022 43.9732 13.4645 43.0355C12.5268 42.0978 12 40.8261 12 39.5V33.5V28.5C12 23.1957 14.1071 18.1086 17.8579 14.3579C21.6086 10.6072 26.6957 8.5 32 8.5C37.3043 8.5 42.3914 10.6072 46.1421 14.3579C49.8929 18.1086 52 23.1957 52 28.5V33.5C52 33.5013 52 33.5026 52 33.5039V39.5V45.5C52 49.69 48.78 52.5 44 52.5H40.873C40.6958 53.186 40.338 53.8189 39.8284 54.3284C39.0783 55.0786 38.0609 55.5 37 55.5C36.2089 55.5 35.4355 55.2654 34.7777 54.8259C34.1199 54.3864 33.6072 53.7616 33.3045 53.0307C33.0017 52.2998 32.9225 51.4956 33.0769 50.7196C33.2312 49.9437 33.6122 49.231 34.1716 48.6716C34.731 48.1122 35.4437 47.7312 36.2196 47.5769C36.9956 47.4225 37.7998 47.5017 38.5307 47.8045C39.2616 48.1072 39.8863 48.6199 40.3259 49.2777C40.577 49.6535 40.7612 50.067 40.873 50.5H44C46.77 50.5 50 49.19 50 45.5V43.5C49.1396 44.1453 48.0881 44.5 47 44.5H43C42.7348 44.5 42.4804 44.3947 42.2929 44.2071C42.1054 44.0196 42 43.7652 42 43.5V29.5C42 29.2348 42.1054 28.9804 42.2929 28.7929C42.4804 28.6054 42.7348 28.5 43 28.5H47C48.0881 28.5 49.1396 28.8547 50 29.5ZM14 33.5V39.5C14 40.2956 14.3161 41.0587 14.8787 41.6213C15.4413 42.1839 16.2044 42.5 17 42.5H20V30.5H17C16.2044 30.5 15.4413 30.8161 14.8787 31.3787C14.3161 31.9413 14 32.7044 14 33.5ZM50 33.5V39.5C50 40.2956 49.6839 41.0587 49.1213 41.6213C48.5587 42.1839 47.7957 42.5 47 42.5H44V30.5H47C47.7957 30.5 48.5587 30.8161 49.1213 31.3787C49.6839 31.9413 50 32.7044 50 33.5ZM38.4142 50.0858C38.7887 50.4603 38.9994 50.9681 39 51.4977L39 51.5C39 51.8956 38.8827 52.2822 38.6629 52.6111C38.4432 52.94 38.1308 53.1964 37.7654 53.3477C37.3999 53.4991 36.9978 53.5387 36.6098 53.4616C36.2219 53.3844 35.8655 53.1939 35.5858 52.9142C35.3061 52.6345 35.1156 52.2782 35.0384 51.8902C34.9613 51.5022 35.0009 51.1001 35.1522 50.7346C35.3036 50.3692 35.56 50.0568 35.8889 49.8371C36.2178 49.6173 36.6044 49.5 37 49.5C37.5304 49.5 38.0391 49.7107 38.4142 50.0858Z" fill="black"/>
</svg>
