<svg width="64" height="64" viewBox="0 0 64 64" fill="none" xmlns="http://www.w3.org/2000/svg">
<path fill-rule="evenodd" clip-rule="evenodd" d="M46.92 55.2699C47.2401 55.4725 47.6112 55.58 47.99 55.5799C48.3263 55.581 48.6575 55.4973 48.9529 55.3365C49.2483 55.1757 49.4984 54.943 49.68 54.6599C54 47.9299 64 31.5099 64 24.4199C64 20.1765 62.3143 16.1068 59.3137 13.1062C56.3131 10.1056 52.2435 8.41992 48 8.41992C43.7565 8.41992 39.6869 10.1056 36.6863 13.1062C33.6857 16.1068 32 20.1765 32 24.4199C32 31.5199 42.01 47.9399 46.31 54.6599C46.4713 54.9013 46.6786 55.1086 46.92 55.2699ZM38.0905 14.5204C40.716 11.8949 44.277 10.4199 47.99 10.4199H48C51.7113 10.4226 55.2697 11.8987 57.893 14.524C60.5164 17.1492 61.99 20.7086 61.99 24.4199C61.99 31.1699 51.27 48.4499 47.99 53.5799C41.22 43.0099 33.99 29.7899 33.99 24.4199C33.99 20.7069 35.465 17.1459 38.0905 14.5204ZM44.111 30.2402C45.2622 31.0094 46.6155 31.4199 48 31.4199C49.8565 31.4199 51.637 30.6824 52.9497 29.3697C54.2625 28.0569 55 26.2765 55 24.4199C55 23.0355 54.5895 21.6821 53.8203 20.5309C53.0511 19.3798 51.9579 18.4826 50.6788 17.9528C49.3997 17.423 47.9922 17.2843 46.6344 17.5544C45.2765 17.8245 44.0292 18.4912 43.0503 19.4702C42.0713 20.4491 41.4046 21.6964 41.1345 23.0543C40.8644 24.4121 41.003 25.8196 41.5328 27.0987C42.0627 28.3778 42.9599 29.471 44.111 30.2402ZM45.2221 20.2626C46.0444 19.7132 47.0111 19.4199 48 19.4199C49.3261 19.4199 50.5978 19.9467 51.5355 20.8844C52.4732 21.8221 53 23.0939 53 24.4199C53 25.4088 52.7068 26.3755 52.1573 27.1978C51.6079 28.02 50.827 28.6609 49.9134 29.0393C48.9998 29.4178 47.9945 29.5168 47.0246 29.3238C46.0546 29.1309 45.1637 28.6547 44.4645 27.9555C43.7652 27.2562 43.289 26.3653 43.0961 25.3954C42.9031 24.4255 43.0022 23.4201 43.3806 22.5065C43.759 21.5929 44.3999 20.812 45.2221 20.2626Z" fill="black"/>
</svg>
