<svg width="24" height="24" viewBox="0 0 24 24" fill="none" xmlns="http://www.w3.org/2000/svg">
<path fill-rule="evenodd" clip-rule="evenodd" d="M4.43431 4.51367C4.61024 4.51367 4.75286 4.65629 4.75286 4.83223V6.19496C5.10233 5.88236 5.55573 5.70825 6.02708 5.70825H17.9729C18.4442 5.70825 18.8976 5.88236 19.2471 6.19496V4.83223C19.2471 4.65629 19.3897 4.51367 19.5657 4.51367C19.7416 4.51367 19.8842 4.65629 19.8842 4.83223V11.3294C20.0601 11.3819 20.2219 11.4774 20.3541 11.6095C20.5631 11.8186 20.6806 12.1022 20.6806 12.3979V15.2649H21.1584C21.3344 15.2649 21.477 15.4075 21.477 15.5835V16.778C21.477 17.0737 21.3595 17.3573 21.1504 17.5664C21.0183 17.6985 20.8565 17.7941 20.6806 17.8465V19.1672C20.6806 19.3431 20.538 19.4858 20.3621 19.4858C20.1861 19.4858 20.0435 19.3431 20.0435 19.1672V17.893H3.95648V19.1672C3.95648 19.3431 3.81386 19.4858 3.63792 19.4858C3.46199 19.4858 3.31937 19.3431 3.31937 19.1672V17.8465C3.14351 17.7941 2.98165 17.6985 2.84954 17.5664C2.64045 17.3573 2.52298 17.0737 2.52298 16.778V15.5835C2.52298 15.4075 2.6656 15.2649 2.84153 15.2649H3.31937V12.3979C3.31937 12.1022 3.43683 11.8186 3.64593 11.6095C3.77804 11.4774 3.93989 11.3819 4.11575 11.3294V4.83223C4.11575 4.65629 4.25838 4.51367 4.43431 4.51367ZM4.75286 11.283H5.81611C5.74594 11.135 5.70853 10.972 5.70853 10.8051V10.1441C5.70853 9.73882 5.93349 9.43522 6.21366 9.22238C6.4895 9.01283 6.84674 8.86722 7.19775 8.76431C7.90192 8.55788 8.6797 8.49561 9.01354 8.49561C9.22454 8.49561 10.0003 8.56098 10.7304 8.76633C11.0949 8.86886 11.4733 9.01301 11.7672 9.21818C11.845 9.2725 11.9203 9.33367 11.9889 9.40199C12.0508 9.3358 12.1191 9.27574 12.1909 9.22163C12.4685 9.01246 12.8277 8.86702 13.18 8.76421C13.8866 8.55797 14.6642 8.49561 14.9864 8.49561C15.1974 8.49561 15.9732 8.56098 16.7033 8.76633C17.0678 8.86886 17.4462 9.01301 17.7401 9.21818C18.0341 9.4234 18.2914 9.72624 18.2914 10.1441V10.8051C18.2914 10.972 18.254 11.135 18.1839 11.283H19.2471V7.61958C19.2471 7.28164 19.1129 6.95754 18.8739 6.71857C18.6349 6.47961 18.3108 6.34536 17.9729 6.34536H6.02708C5.68914 6.34536 5.36504 6.47961 5.12607 6.71857C4.88711 6.95754 4.75286 7.28164 4.75286 7.61958V11.283ZM17.1765 11.283C17.3032 11.283 17.4248 11.2326 17.5144 11.143C17.604 11.0534 17.6543 10.9319 17.6543 10.8051V10.1441C17.6543 10.0205 17.5842 9.8863 17.3754 9.74061C17.1667 9.59488 16.8671 9.47423 16.5308 9.37965C15.8593 9.19079 15.1418 9.13272 14.9864 9.13272C14.7114 9.13272 13.9957 9.18982 13.3585 9.3758C13.0388 9.4691 12.7634 9.58795 12.5743 9.73044C12.3893 9.86989 12.3185 10.0052 12.3185 10.1441V10.8051C12.3185 10.9319 12.3689 11.0534 12.4585 11.143C12.5481 11.2326 12.6696 11.283 12.7964 11.283H17.1765ZM4.43431 11.9201C4.30758 11.9201 4.18604 11.9704 4.09643 12.06C4.00682 12.1496 3.95648 12.2712 3.95648 12.3979V15.2649H20.0435V12.3979C20.0435 12.2712 19.9932 12.1496 19.9035 12.06C19.8139 11.9704 19.6924 11.9201 19.5657 11.9201H4.43431ZM11.2036 11.283C11.3303 11.283 11.4519 11.2326 11.5415 11.143C11.6311 11.0534 11.6814 10.9319 11.6814 10.8051V10.1441C11.6814 10.0205 11.6113 9.8863 11.4025 9.74061C11.1938 9.59488 10.8942 9.47423 10.5579 9.37965C9.88639 9.19079 9.16887 9.13272 9.01354 9.13272C8.7262 9.13272 8.01075 9.1899 7.37698 9.37569C7.05903 9.4689 6.78613 9.58759 6.59906 9.7297C6.41633 9.86851 6.34564 10.0039 6.34564 10.1441V10.8051C6.34564 10.9319 6.39598 11.0534 6.48559 11.143C6.5752 11.2326 6.69674 11.283 6.82347 11.283H11.2036ZM3.16009 15.902V16.778C3.16009 16.9048 3.21043 17.0263 3.30004 17.1159C3.38965 17.2055 3.51119 17.2559 3.63792 17.2559H20.3621C20.4888 17.2559 20.6103 17.2055 20.6999 17.1159C20.7895 17.0263 20.8399 16.9048 20.8399 16.778V15.902H3.16009Z" fill="#000001"/>
</svg>
