<svg width="64" height="64" viewBox="0 0 64 64" fill="none" xmlns="http://www.w3.org/2000/svg">
<path fill-rule="evenodd" clip-rule="evenodd" d="M5 8H23C24.3261 8 25.5979 8.5268 26.5355 9.46448C27.4732 10.4022 28 11.6739 28 13V51C28 52.3261 27.4732 53.5979 26.5355 54.5356C25.5979 55.4732 24.3261 56 23 56H5C3.67392 56 2.40214 55.4732 1.46446 54.5356C0.52678 53.5979 0 52.3261 0 51V13C0 11.6739 0.52678 10.4022 1.46446 9.46448C2.40214 8.5268 3.67392 8 5 8ZM23 10H5C4.20435 10 3.44129 10.3161 2.87868 10.8787C2.31607 11.4413 2 12.2044 2 13V46H26V13C26 12.2044 25.6839 11.4413 25.1213 10.8787C24.5587 10.3161 23.7956 10 23 10ZM2.87868 53.1213C3.44129 53.6839 4.20435 54 5 54H23C23.7956 54 24.5587 53.6839 25.1213 53.1213C25.6839 52.5587 26 51.7957 26 51V48H2V51C2 51.7957 2.31607 52.5587 2.87868 53.1213ZM15.5 51C15.5 51.8284 14.8284 52.5 14 52.5C13.1716 52.5 12.5 51.8284 12.5 51C12.5 50.1716 13.1716 49.5 14 49.5C14.8284 49.5 15.5 50.1716 15.5 51Z" fill="black"/>
</svg>
