<svg width="64" height="64" viewBox="0 0 64 64" fill="none" xmlns="http://www.w3.org/2000/svg">
<path fill-rule="evenodd" clip-rule="evenodd" d="M19 13.9902H45C45.7956 13.9902 46.5587 14.3063 47.1213 14.8689C47.6839 15.4315 48 16.1946 48 16.9902V42.9902C48 43.2555 47.8946 43.5098 47.7071 43.6974C47.5196 43.8849 47.2652 43.9902 47 43.9902H44C44.0048 45.4933 43.4454 46.9435 42.4322 48.0539C41.419 49.1642 40.026 49.8538 38.5288 49.9863C37.0315 50.1187 35.5391 49.6844 34.3467 48.7692C33.1544 47.8539 32.3489 46.5245 32.0898 45.0439C31.8307 43.5633 32.1368 42.0393 32.9475 40.7736C33.7582 39.5078 35.0144 38.5925 36.4677 38.2086C37.9209 37.8247 39.4653 38.0003 40.7954 38.7006C42.1254 39.4008 43.1441 40.5748 43.65 41.9902H46V16.9902C46 16.725 45.8946 16.4707 45.7071 16.2831C45.5196 16.0956 45.2652 15.9902 45 15.9902H19C18.7348 15.9902 18.4804 16.0956 18.2929 16.2831C18.1054 16.4707 18 16.725 18 16.9902V34.9902C18 35.2555 17.8946 35.5098 17.7071 35.6974C17.5196 35.8849 17.2652 35.9902 17 35.9902C16.7348 35.9902 16.4804 35.8849 16.2929 35.6974C16.1054 35.5098 16 35.2555 16 34.9902V23.9902H12V29.9902C12 30.7859 11.6839 31.549 11.1213 32.1116C10.5587 32.6742 9.79565 32.9902 9 32.9902H2V39.9902H8C8.26522 39.9902 8.51957 40.0956 8.70711 40.2831C8.89464 40.4707 9 40.725 9 40.9902C9 41.2555 8.89464 41.5098 8.70711 41.6974C8.51957 41.8849 8.26522 41.9902 8 41.9902H2V42.9902C2 43.2555 2.10536 43.5098 2.29289 43.6974C2.48043 43.8849 2.73478 43.9902 3 43.9902H7C7.26522 43.9902 7.51957 44.0956 7.70711 44.2831C7.89464 44.4707 8 44.725 8 44.9902C8 45.2555 7.89464 45.5098 7.70711 45.6974C7.51957 45.8849 7.26522 45.9902 7 45.9902H3C2.20435 45.9902 1.44129 45.6742 0.878677 45.1116C0.316068 44.549 0 43.7859 0 42.9902V30.9902C0 28.6033 0.948205 26.3141 2.63603 24.6263C4.32386 22.9385 6.61305 21.9902 9 21.9902H16V16.9902C16 16.1946 16.3161 15.4315 16.8787 14.8689C17.4413 14.3063 18.2044 13.9902 19 13.9902ZM9.70711 30.6974C9.89464 30.5098 10 30.2555 10 29.9902V23.9902H9C7.14348 23.9902 5.363 24.7277 4.05025 26.0405C2.73749 27.3533 2 29.1337 2 30.9902H9C9.26522 30.9902 9.51957 30.8849 9.70711 30.6974ZM35.7777 47.3161C36.4355 47.7557 37.2089 47.9902 38 47.9902C39.0609 47.9902 40.0783 47.5688 40.8284 46.8187C41.5786 46.0685 42 45.0511 42 43.9902C42 43.1991 41.7654 42.4258 41.3259 41.768C40.8864 41.1102 40.2616 40.5975 39.5307 40.2947C38.7998 39.992 37.9956 39.9128 37.2196 40.0671C36.4437 40.2214 35.731 40.6024 35.1716 41.1618C34.6122 41.7212 34.2312 42.434 34.0769 43.2099C33.9225 43.9858 34.0017 44.7901 34.3045 45.521C34.6072 46.2519 35.1199 46.8766 35.7777 47.3161ZM21.65 41.9904H29C29.2652 41.9904 29.5196 42.0958 29.7071 42.2833C29.8946 42.4708 30 42.7252 30 42.9904C30 43.2556 29.8946 43.51 29.7071 43.6975C29.5196 43.8851 29.2652 43.9904 29 43.9904H22C22.0048 45.4935 21.4453 46.9437 20.4322 48.054C19.419 49.1644 18.026 49.854 16.5288 49.9864C15.0315 50.1189 13.5391 49.6846 12.3467 48.7693C11.1543 47.8541 10.3489 46.5247 10.0898 45.044C9.83073 43.5634 10.1368 42.0395 10.9475 40.7738C11.7582 39.508 13.0144 38.5926 14.4677 38.2087C15.9209 37.8249 17.4653 38.0004 18.7954 38.7007C20.1254 39.401 21.1441 40.575 21.65 41.9904ZM13.7777 47.3163C14.4355 47.7558 15.2089 47.9904 16 47.9904C17.0609 47.9904 18.0783 47.569 18.8284 46.8188C19.5786 46.0687 20 45.0513 20 43.9904C20 43.1993 19.7654 42.4259 19.3259 41.7681C18.8863 41.1103 18.2616 40.5977 17.5307 40.2949C16.7998 39.9921 15.9956 39.9129 15.2196 40.0673C14.4437 40.2216 13.731 40.6026 13.1716 41.162C12.6122 41.7214 12.2312 42.4341 12.0768 43.2101C11.9225 43.986 12.0017 44.7902 12.3045 45.5211C12.6072 46.252 13.1199 46.8768 13.7777 47.3163Z" fill="black"/>
</svg>
