<svg width="64" height="64" viewBox="0 0 64 64" fill="none" xmlns="http://www.w3.org/2000/svg">
<path fill-rule="evenodd" clip-rule="evenodd" d="M5 16H3C2.73478 16 2.48043 16.1053 2.29289 16.2929C2.10536 16.4804 2 16.7348 2 17V23C2 25.9174 3.15892 28.7153 5.22182 30.7782C6.33292 31.8893 7.65725 32.7381 9.09862 33.2849C9.26043 33.3009 9.41541 33.3562 9.55034 33.4451C10.6532 33.8094 11.8168 34 13 34C14.1832 34 15.3468 33.8094 16.4497 33.4451C16.5846 33.3562 16.7396 33.3009 16.9014 33.2849C18.3428 32.7381 19.6671 31.8893 20.7782 30.7782C22.8411 28.7153 24 25.9174 24 23V17C24 16.7348 23.8946 16.4804 23.7071 16.2929C23.5196 16.1053 23.2652 16 23 16H21H5ZM22 14V9C22 8.73478 21.8946 8.48041 21.7071 8.29288C21.5196 8.10534 21.2652 8 21 8C20.7348 8 20.4804 8.10534 20.2929 8.29288C20.1054 8.48041 20 8.73478 20 9V14H6V9C6 8.73478 5.89464 8.48041 5.70711 8.29288C5.51957 8.10534 5.26522 8 5 8C4.73478 8 4.48043 8.10534 4.29289 8.29288C4.10536 8.48041 4 8.73478 4 9V14H3C2.20435 14 1.44129 14.3161 0.878677 14.8787C0.316068 15.4413 0 16.2044 0 17V23C0 26.4478 1.36964 29.7544 3.80761 32.1924C5.02006 33.4048 6.44735 34.3531 8 35V39C8 39.7957 8.31607 40.5587 8.87868 41.1213C9.44129 41.6839 10.2044 42 11 42H12V47C12 49.3869 12.9482 51.6761 14.636 53.364C16.3239 55.0518 18.6131 56 21 56C23.3869 56 25.6761 55.0518 27.364 53.364C29.0518 51.6761 30 49.3869 30 47V45.5C30.0053 42.9821 31.0079 40.5688 32.7883 38.7883C34.5688 37.0079 36.9821 36.0053 39.5 36H47C47.2652 36 47.5196 35.8946 47.7071 35.7071C47.8946 35.5196 48 35.2652 48 35C48 34.7348 47.8946 34.4804 47.7071 34.2929C47.5196 34.1053 47.2652 34 47 34H39.5C36.4516 34.0053 33.5296 35.2186 31.3741 37.3741C29.2186 39.5296 28.0053 42.4516 28 45.5V47C28 48.8565 27.2625 50.637 25.9497 51.9497C24.637 53.2625 22.8565 54 21 54C19.1435 54 17.363 53.2625 16.0503 51.9497C14.7375 50.637 14 48.8565 14 47V42H15C15.3974 42.0001 15.7908 41.9212 16.1574 41.7679C16.524 41.6147 16.8565 41.3901 17.1356 41.1073C17.4147 40.8244 17.6348 40.489 17.7832 40.1204C17.9316 39.7518 18.0053 39.3573 18 38.96V35C19.5673 34.3469 20.9916 33.3931 22.1924 32.1924C23.3996 30.9852 24.3571 29.5521 25.0104 27.9749C25.6637 26.3977 26 24.7072 26 23V17C26 16.2044 25.6839 15.4413 25.1213 14.8787C24.5587 14.3161 23.7956 14 23 14H22ZM16 35.6491C15.0193 35.8817 14.0126 36 13 36C11.9814 36 10.9752 35.8805 10 35.6492V38.96C10 39.2252 10.1054 39.4796 10.2929 39.6671C10.4804 39.8547 10.7348 39.96 11 39.96H15C15.2652 39.96 15.5196 39.8547 15.7071 39.6671C15.8946 39.4796 16 39.2252 16 38.96V35.6491ZM17 22H9C8.73478 22 8.48043 21.8946 8.29289 21.7071C8.10536 21.5196 8 21.2652 8 21C8 20.7348 8.10536 20.4804 8.29289 20.2929C8.48043 20.1053 8.73478 20 9 20H17C17.2652 20 17.5196 20.1053 17.7071 20.2929C17.8946 20.4804 18 20.7348 18 21C18 21.2652 17.8946 21.5196 17.7071 21.7071C17.5196 21.8946 17.2652 22 17 22Z" fill="black"/>
</svg>
