<svg width="64" height="64" viewBox="0 0 64 64" fill="none" xmlns="http://www.w3.org/2000/svg">
<path fill-rule="evenodd" clip-rule="evenodd" d="M41 8H59C60.3261 8 61.5979 8.5268 62.5355 9.46448C63.4732 10.4022 64 11.6739 64 13V51C64 52.3261 63.4732 53.5979 62.5355 54.5356C61.5979 55.4732 60.3261 56 59 56H41C39.6739 56 38.4021 55.4732 37.4645 54.5356C36.5268 53.5979 36 52.3261 36 51V13C36 11.6739 36.5268 10.4022 37.4645 9.46448C38.4021 8.5268 39.6739 8 41 8ZM59 10H41C40.2044 10 39.4413 10.3161 38.8787 10.8787C38.3161 11.4413 38 12.2044 38 13V46H62V13C62 12.2044 61.6839 11.4413 61.1213 10.8787C60.5587 10.3161 59.7956 10 59 10ZM38.8787 53.1213C39.4413 53.6839 40.2044 54 41 54H59C59.7956 54 60.5587 53.6839 61.1213 53.1213C61.6839 52.5587 62 51.7957 62 51V48H38V51C38 51.7957 38.3161 52.5587 38.8787 53.1213ZM51.5 51C51.5 51.8284 50.8284 52.5 50 52.5C49.1716 52.5 48.5 51.8284 48.5 51C48.5 50.1716 49.1716 49.5 50 49.5C50.8284 49.5 51.5 50.1716 51.5 51Z" fill="black"/>
</svg>
