<svg width="64" height="64" viewBox="0 0 64 64" fill="none" xmlns="http://www.w3.org/2000/svg">
<path fill-rule="evenodd" clip-rule="evenodd" d="M49.5 13.92C49.6375 14.1287 49.7483 14.3538 49.83 14.59C49.9413 14.9013 49.9989 15.2294 50 15.56V53.02C50 53.8156 49.6839 54.5787 49.1213 55.1413C48.5587 55.7039 47.7957 56.02 47 56.02H17C16.2044 56.02 15.4413 55.7039 14.8787 55.1413C14.3161 54.5787 14 53.8156 14 53.02V15.58C14.0019 14.9913 14.1719 14.4153 14.49 13.92L17.57 9.31998C17.8429 8.90915 18.2129 8.57196 18.6472 8.33823C19.0815 8.1045 19.5668 7.98144 20.06 7.97998H43.95C44.4432 7.98144 44.9284 8.1045 45.3628 8.33823C45.7971 8.57196 46.1671 8.90915 46.44 9.31998L49.5 13.92ZM19.5929 10.0785C19.4463 10.1571 19.3215 10.271 19.23 10.41L16.86 13.96H47.13L44.77 10.41C44.6785 10.271 44.5537 10.1571 44.407 10.0785C44.2604 9.99991 44.0964 9.95919 43.93 9.95999H20.07C19.9036 9.95919 19.7396 9.99991 19.5929 10.0785ZM30 48.02V54.02H34V48.02C34 47.4896 33.7893 46.9808 33.4142 46.6058C33.0391 46.2307 32.5304 46.02 32 46.02C31.4696 46.02 30.9609 46.2307 30.5858 46.6058C30.2107 46.9808 30 47.4896 30 48.02ZM36 54.02H47C47.2652 54.02 47.5196 53.9146 47.7071 53.7271C47.8946 53.5395 48 53.2852 48 53.02V16.02H16V53.02C16 53.2852 16.1054 53.5395 16.2929 53.7271C16.4804 53.9146 16.7348 54.02 17 54.02H28V48.02C28 46.9591 28.4214 45.9417 29.1716 45.1916C29.9217 44.4414 30.9391 44.02 32 44.02C33.0609 44.02 34.0783 44.4414 34.8284 45.1916C35.5786 45.9417 36 46.9591 36 48.02V54.02ZM22 17.96C20.9391 17.96 19.9217 18.3814 19.1716 19.1315C18.4214 19.8817 18 20.8991 18 21.96V27.96C18 28.2252 18.1054 28.4795 18.2929 28.6671C18.4804 28.8546 18.7348 28.96 19 28.96H25C25.2652 28.96 25.5196 28.8546 25.7071 28.6671C25.8946 28.4795 26 28.2252 26 27.96V21.96C26 20.8991 25.5786 19.8817 24.8284 19.1315C24.0783 18.3814 23.0609 17.96 22 17.96ZM20 26.96V21.96C20 21.4295 20.2107 20.9208 20.5858 20.5457C20.9609 20.1707 21.4696 19.96 22 19.96C22.5304 19.96 23.0391 20.1707 23.4142 20.5457C23.7893 20.9208 24 21.4295 24 21.96V26.96H20ZM22 30.96C20.9391 30.96 19.9217 31.3814 19.1716 32.1315C18.4214 32.8817 18 33.8991 18 34.96V40.96C18 41.2252 18.1054 41.4795 18.2929 41.6671C18.4804 41.8546 18.7348 41.96 19 41.96H25C25.2652 41.96 25.5196 41.8546 25.7071 41.6671C25.8946 41.4795 26 41.2252 26 40.96V34.96C26 33.8991 25.5786 32.8817 24.8284 32.1315C24.0783 31.3814 23.0609 30.96 22 30.96ZM20 39.96V34.96C20 34.4295 20.2107 33.9208 20.5858 33.5457C20.9609 33.1707 21.4696 32.96 22 32.96C22.5304 32.96 23.0391 33.1707 23.4142 33.5457C23.7893 33.9208 24 34.4295 24 34.96V39.96H20ZM29.1716 32.1315C29.9217 31.3814 30.9391 30.96 32 30.96C33.0609 30.96 34.0783 31.3814 34.8284 32.1315C35.5786 32.8817 36 33.8991 36 34.96V40.96C36 41.2252 35.8946 41.4795 35.7071 41.6671C35.5196 41.8546 35.2652 41.96 35 41.96H29C28.7348 41.96 28.4804 41.8546 28.2929 41.6671C28.1054 41.4795 28 41.2252 28 40.96V34.96C28 33.8991 28.4214 32.8817 29.1716 32.1315ZM30 34.96V39.96H34V34.96C34 34.4295 33.7893 33.9208 33.4142 33.5457C33.0391 33.1707 32.5304 32.96 32 32.96C31.4696 32.96 30.9609 33.1707 30.5858 33.5457C30.2107 33.9208 30 34.4295 30 34.96ZM32 17.96C30.9391 17.96 29.9217 18.3814 29.1716 19.1315C28.4214 19.8817 28 20.8991 28 21.96V27.96C28 28.2252 28.1054 28.4795 28.2929 28.6671C28.4804 28.8546 28.7348 28.96 29 28.96H35C35.2652 28.96 35.5196 28.8546 35.7071 28.6671C35.8946 28.4795 36 28.2252 36 27.96V21.96C36 20.8991 35.5786 19.8817 34.8284 19.1315C34.0783 18.3814 33.0609 17.96 32 17.96ZM34 26.96H30V21.96C30 21.4295 30.2107 20.9208 30.5858 20.5457C30.9609 20.1707 31.4696 19.96 32 19.96C32.5304 19.96 33.0391 20.1707 33.4142 20.5457C33.7893 20.9208 34 21.4295 34 21.96V26.96ZM39.1716 32.1315C39.9217 31.3814 40.9391 30.96 42 30.96C43.0609 30.96 44.0783 31.3814 44.8284 32.1315C45.5786 32.8817 46 33.8991 46 34.96V40.96C46 41.2252 45.8946 41.4795 45.7071 41.6671C45.5196 41.8546 45.2652 41.96 45 41.96H39C38.7348 41.96 38.4804 41.8546 38.2929 41.6671C38.1053 41.4795 38 41.2252 38 40.96V34.96C38 33.8991 38.4214 32.8817 39.1716 32.1315ZM40 34.96V39.96H44V34.96C44 34.4295 43.7893 33.9208 43.4142 33.5457C43.0391 33.1707 42.5304 32.96 42 32.96C41.4696 32.96 40.9609 33.1707 40.5858 33.5457C40.2107 33.9208 40 34.4295 40 34.96ZM42 17.96C40.9391 17.96 39.9217 18.3814 39.1716 19.1315C38.4214 19.8817 38 20.8991 38 21.96V27.96C38 28.2252 38.1053 28.4795 38.2929 28.6671C38.4804 28.8546 38.7348 28.96 39 28.96H45C45.2652 28.96 45.5196 28.8546 45.7071 28.6671C45.8946 28.4795 46 28.2252 46 27.96V21.96C46 20.8991 45.5786 19.8817 44.8284 19.1315C44.0783 18.3814 43.0609 17.96 42 17.96ZM44 26.96H40V21.96C40 21.4295 40.2107 20.9208 40.5858 20.5457C40.9609 20.1707 41.4696 19.96 42 19.96C42.5304 19.96 43.0391 20.1707 43.4142 20.5457C43.7893 20.9208 44 21.4295 44 21.96V26.96Z" fill="black"/>
</svg>
