<svg width="24" height="24" viewBox="0 0 24 24" fill="none" xmlns="http://www.w3.org/2000/svg">
<path fill-rule="evenodd" clip-rule="evenodd" d="M18.5625 5.21969C18.6141 5.29796 18.6556 5.38237 18.6862 5.47094C18.728 5.58769 18.7496 5.7107 18.75 5.83469V19.8822C18.75 20.1806 18.6315 20.4667 18.4205 20.6777C18.2095 20.8887 17.9234 21.0072 17.625 21.0072H6.375C6.07663 21.0072 5.79048 20.8887 5.5795 20.6777C5.36853 20.4667 5.25 20.1806 5.25 19.8822V5.84219C5.2507 5.62142 5.31445 5.40545 5.43375 5.21969L6.58875 3.49469C6.69109 3.34062 6.82984 3.21418 6.99271 3.12653C7.15558 3.03888 7.33754 2.99274 7.5225 2.99219H16.4812C16.6662 2.99274 16.8482 3.03888 17.011 3.12653C17.1739 3.21418 17.3127 3.34062 17.415 3.49469L18.5625 5.21969ZM7.34735 3.77913C7.29235 3.8086 7.24557 3.85133 7.21125 3.90345L6.3225 5.23469H17.6738L16.7887 3.90345C16.7544 3.85133 16.7076 3.8086 16.6526 3.77913C16.5976 3.74966 16.5361 3.73439 16.4737 3.73469H7.52625C7.46385 3.73439 7.40236 3.74966 7.34735 3.77913ZM11.25 18.0072V20.2572H12.75V18.0072C12.75 17.8083 12.671 17.6175 12.5303 17.4769C12.3897 17.3362 12.1989 17.2572 12 17.2572C11.8011 17.2572 11.6103 17.3362 11.4697 17.4769C11.329 17.6175 11.25 17.8083 11.25 18.0072ZM13.5 20.2572H17.625C17.7245 20.2572 17.8198 20.2177 17.8902 20.1474C17.9605 20.077 18 19.9816 18 19.8822V6.00719H6V19.8822C6 19.9816 6.03951 20.077 6.10983 20.1474C6.18016 20.2177 6.27554 20.2572 6.375 20.2572H10.5V18.0072C10.5 17.6094 10.658 17.2278 10.9393 16.9465C11.2206 16.6652 11.6022 16.5072 12 16.5072C12.3978 16.5072 12.7794 16.6652 13.0607 16.9465C13.342 17.2278 13.5 17.6094 13.5 18.0072V20.2572ZM8.25 6.73468C7.85218 6.73468 7.47064 6.89271 7.18934 7.17402C6.90803 7.45532 6.75 7.83686 6.75 8.23468V10.4847C6.75 10.5841 6.78951 10.6795 6.85983 10.7498C6.93016 10.8202 7.02554 10.8597 7.125 10.8597H9.375C9.47446 10.8597 9.56984 10.8202 9.64017 10.7498C9.71049 10.6795 9.75 10.5841 9.75 10.4847V8.23468C9.75 7.83686 9.59196 7.45532 9.31066 7.17402C9.02935 6.89271 8.64782 6.73468 8.25 6.73468ZM7.5 10.1097V8.23468C7.5 8.03577 7.57902 7.845 7.71967 7.70435C7.86032 7.5637 8.05109 7.48468 8.25 7.48468C8.44891 7.48468 8.63968 7.5637 8.78033 7.70435C8.92098 7.845 9 8.03577 9 8.23468V10.1097H7.5ZM8.25 11.6097C7.85218 11.6097 7.47064 11.7677 7.18934 12.049C6.90803 12.3303 6.75 12.7119 6.75 13.1097V15.3597C6.75 15.4591 6.78951 15.5545 6.85983 15.6248C6.93016 15.6952 7.02554 15.7347 7.125 15.7347H9.375C9.47446 15.7347 9.56984 15.6952 9.64017 15.6248C9.71049 15.5545 9.75 15.4591 9.75 15.3597V13.1097C9.75 12.7119 9.59196 12.3303 9.31066 12.049C9.02935 11.7677 8.64782 11.6097 8.25 11.6097ZM7.5 14.9847V13.1097C7.5 12.9108 7.57902 12.72 7.71967 12.5793C7.86032 12.4387 8.05109 12.3597 8.25 12.3597C8.44891 12.3597 8.63968 12.4387 8.78033 12.5793C8.92098 12.72 9 12.9108 9 13.1097V14.9847H7.5ZM10.9393 12.049C11.2206 11.7677 11.6022 11.6097 12 11.6097C12.3978 11.6097 12.7794 11.7677 13.0607 12.049C13.342 12.3303 13.5 12.7119 13.5 13.1097V15.3597C13.5 15.4591 13.4605 15.5545 13.3902 15.6248C13.3198 15.6952 13.2245 15.7347 13.125 15.7347H10.875C10.7755 15.7347 10.6802 15.6952 10.6098 15.6248C10.5395 15.5545 10.5 15.4591 10.5 15.3597V13.1097C10.5 12.7119 10.658 12.3303 10.9393 12.049ZM11.25 13.1097V14.9847H12.75V13.1097C12.75 12.9108 12.671 12.72 12.5303 12.5793C12.3897 12.4387 12.1989 12.3597 12 12.3597C11.8011 12.3597 11.6103 12.4387 11.4697 12.5793C11.329 12.72 11.25 12.9108 11.25 13.1097ZM12 6.73468C11.6022 6.73468 11.2206 6.89271 10.9393 7.17402C10.658 7.45532 10.5 7.83686 10.5 8.23468V10.4847C10.5 10.5841 10.5395 10.6795 10.6098 10.7498C10.6802 10.8202 10.7755 10.8597 10.875 10.8597H13.125C13.2245 10.8597 13.3198 10.8202 13.3902 10.7498C13.4605 10.6795 13.5 10.5841 13.5 10.4847V8.23468C13.5 7.83686 13.342 7.45532 13.0607 7.17402C12.7794 6.89271 12.3978 6.73468 12 6.73468ZM12.75 10.1097H11.25V8.23468C11.25 8.03577 11.329 7.845 11.4697 7.70435C11.6103 7.5637 11.8011 7.48468 12 7.48468C12.1989 7.48468 12.3897 7.5637 12.5303 7.70435C12.671 7.845 12.75 8.03577 12.75 8.23468V10.1097ZM14.6893 12.049C14.9706 11.7677 15.3522 11.6097 15.75 11.6097C16.1478 11.6097 16.5294 11.7677 16.8107 12.049C17.092 12.3303 17.25 12.7119 17.25 13.1097V15.3597C17.25 15.4591 17.2105 15.5545 17.1402 15.6248C17.0698 15.6952 16.9745 15.7347 16.875 15.7347H14.625C14.5255 15.7347 14.4302 15.6952 14.3598 15.6248C14.2895 15.5545 14.25 15.4591 14.25 15.3597V13.1097C14.25 12.7119 14.408 12.3303 14.6893 12.049ZM15 13.1097V14.9847H16.5V13.1097C16.5 12.9108 16.421 12.72 16.2803 12.5793C16.1397 12.4387 15.9489 12.3597 15.75 12.3597C15.5511 12.3597 15.3603 12.4387 15.2197 12.5793C15.079 12.72 15 12.9108 15 13.1097ZM15.75 6.73468C15.3522 6.73468 14.9706 6.89271 14.6893 7.17402C14.408 7.45532 14.25 7.83686 14.25 8.23468V10.4847C14.25 10.5841 14.2895 10.6795 14.3598 10.7498C14.4302 10.8202 14.5255 10.8597 14.625 10.8597H16.875C16.9745 10.8597 17.0698 10.8202 17.1402 10.7498C17.2105 10.6795 17.25 10.5841 17.25 10.4847V8.23468C17.25 7.83686 17.092 7.45532 16.8107 7.17402C16.5294 6.89271 16.1478 6.73468 15.75 6.73468ZM16.5 10.1097H15V8.23468C15 8.03577 15.079 7.845 15.2197 7.70435C15.3603 7.5637 15.5511 7.48468 15.75 7.48468C15.9489 7.48468 16.1397 7.5637 16.2803 7.70435C16.421 7.845 16.5 8.03577 16.5 8.23468V10.1097Z" fill="black"/>
</svg>
