<svg width="64" height="64" viewBox="0 0 64 64" fill="none" xmlns="http://www.w3.org/2000/svg">
<path fill-rule="evenodd" clip-rule="evenodd" d="M54.1478 8.22733C54.5134 8.37836 54.8455 8.60016 55.125 8.88001C55.6757 9.42978 55.9912 10.172 56.005 10.95V17.01C56.0095 17.4983 55.8352 17.9714 55.515 18.34C55.1941 18.7086 54.7495 18.9469 54.265 19.01C53.0699 19.1587 51.9472 19.6637 51.043 20.4591C50.1388 21.2545 49.4948 22.3037 49.195 23.47C48.9962 24.2474 48.9554 25.0567 49.075 25.85C49.1134 26.1153 49.0449 26.3849 48.8846 26.5996C48.7243 26.8143 48.4852 26.9565 48.22 26.995C47.9547 27.0335 47.6851 26.965 47.4704 26.8046C47.2556 26.6443 47.1134 26.4052 47.075 26.14C46.9199 25.0878 46.9762 24.0152 47.2407 22.9849C47.5051 21.9547 47.9723 20.9875 48.615 20.14C49.259 19.289 50.0667 18.5754 50.9906 18.0413C51.9146 17.5072 52.9361 17.1634 53.995 17.03V10.96C53.995 10.6948 53.8896 10.4404 53.7021 10.2529C53.5145 10.0654 53.2602 9.96003 52.995 9.96003H10.995C10.7298 9.96003 10.4754 10.0654 10.2879 10.2529C10.1003 10.4404 9.99498 10.6948 9.99498 10.96V17.01C11.9327 17.2487 13.7163 18.1877 15.0097 19.6502C16.3031 21.1127 17.017 22.9977 17.017 24.95C17.017 26.9024 16.3031 28.7873 15.0097 30.2498C13.7163 31.7123 11.9327 32.6514 9.99498 32.89V38.96C9.99498 39.2252 10.1003 39.4796 10.2879 39.6671C10.4754 39.8547 10.7298 39.96 10.995 39.96H25.995C26.2602 39.96 26.5145 40.0654 26.7021 40.2529C26.8896 40.4405 26.995 40.6948 26.995 40.96C26.995 41.2252 26.8896 41.4796 26.7021 41.6671C26.5145 41.8547 26.2602 41.96 25.995 41.96H10.995C10.1993 41.96 9.43625 41.6439 8.87364 41.0813C8.31103 40.5187 7.99498 39.7557 7.99498 38.96V32.9C7.99776 32.4113 8.17509 31.9396 8.49498 31.57C8.81742 31.2052 9.26186 30.9706 9.74498 30.91C11.1983 30.731 12.5359 30.0267 13.506 28.9299C14.476 27.833 15.0115 26.4193 15.0115 24.955C15.0115 23.4908 14.476 22.077 13.506 20.9802C12.5359 19.8833 11.1983 19.179 9.74498 19C9.26046 18.9369 8.81581 18.6986 8.49498 18.33C8.17114 17.9628 7.99324 17.4896 7.99498 17V11C7.99568 10.2046 8.31221 9.44208 8.87498 8.88001C9.43705 8.31724 10.1996 8.00071 10.995 8.00001H52.995C53.3905 7.99904 53.7823 8.07631 54.1478 8.22733ZM35.7726 32.1909C37.9104 30.7625 40.4238 30 42.995 30C46.4428 30 49.7494 31.3696 52.1874 33.8076C54.6253 36.2456 55.995 39.5522 55.995 43C55.995 45.5712 55.2325 48.0846 53.8041 50.2224C52.3756 52.3603 50.3453 54.0265 47.9699 55.0104C45.5944 55.9944 42.9805 56.2519 40.4588 55.7502C37.937 55.2486 35.6207 54.0105 33.8026 52.1924C31.9845 50.3743 30.7464 48.0579 30.2448 45.5362C29.7432 43.0144 30.0006 40.4006 30.9845 38.0251C31.9685 35.6497 33.6347 33.6194 35.7726 32.1909ZM36.8837 52.1462C38.6926 53.3549 40.8194 54 42.995 54C45.9124 54 48.7102 52.8411 50.7731 50.7782C52.836 48.7153 53.995 45.9174 53.995 43C53.995 40.8244 53.3498 38.6977 52.1411 36.8887C50.9324 35.0798 49.2145 33.6699 47.2045 32.8373C45.1945 32.0048 42.9828 31.7869 40.849 32.2114C38.7152 32.6358 36.7552 33.6835 35.2168 35.2219C33.6784 36.7602 32.6308 38.7202 32.2063 40.854C31.7819 42.9878 31.9997 45.1995 32.8323 47.2095C33.6649 49.2195 35.0748 50.9375 36.8837 52.1462ZM47.545 38.9098L41.735 46.6598C41.6911 46.7163 41.6368 46.7638 41.575 46.7998C41.5089 46.8315 41.4379 46.8518 41.365 46.8598C41.2987 46.8695 41.2313 46.8695 41.165 46.8598C41.0979 46.8316 41.0368 46.7909 40.985 46.7398L37.985 43.7398C37.7967 43.5515 37.5413 43.4457 37.275 43.4457C37.0087 43.4457 36.7533 43.5515 36.565 43.7398C36.3767 43.9281 36.2709 44.1835 36.2709 44.4498C36.2709 44.7161 36.3767 44.9715 36.565 45.1598L39.565 48.1598C39.8207 48.412 40.1277 48.6064 40.465 48.7298C40.7425 48.8368 41.0376 48.8911 41.335 48.8898H41.515C41.8668 48.8671 42.2088 48.7645 42.515 48.5898C42.8276 48.4192 43.1003 48.184 43.315 47.8998L49.125 40.1498C49.2038 40.0448 49.2611 39.9252 49.2937 39.798C49.3263 39.6708 49.3335 39.5384 49.3149 39.4084C49.2964 39.2784 49.2524 39.1533 49.1855 39.0403C49.1185 38.9273 49.03 38.8286 48.925 38.7498C48.8199 38.671 48.7004 38.6137 48.5732 38.5811C48.446 38.5485 48.3136 38.5413 48.1836 38.5599C48.0536 38.5784 47.9285 38.6224 47.8155 38.6893C47.7025 38.7562 47.6038 38.8447 47.525 38.9498L47.545 38.9098ZM41.495 14C41.495 14.8284 40.8234 15.5 39.995 15.5C39.1665 15.5 38.495 14.8284 38.495 14C38.495 13.1716 39.1665 12.5 39.995 12.5C40.8234 12.5 41.495 13.1716 41.495 14ZM39.995 21.5C40.8234 21.5 41.495 20.8284 41.495 20C41.495 19.1716 40.8234 18.5 39.995 18.5C39.1665 18.5 38.495 19.1716 38.495 20C38.495 20.8284 39.1665 21.5 39.995 21.5ZM41.495 26C41.495 26.8284 40.8234 27.5 39.995 27.5C39.1665 27.5 38.495 26.8284 38.495 26C38.495 25.1716 39.1665 24.5 39.995 24.5C40.8234 24.5 41.495 25.1716 41.495 26Z" fill="black"/>
</svg>
