<svg width="64" height="64" viewBox="0 0 64 64" fill="none" xmlns="http://www.w3.org/2000/svg">
<path fill-rule="evenodd" clip-rule="evenodd" d="M16.0356 42H43.9956C44.7912 42 45.5543 41.6839 46.1169 41.1213C46.6795 40.5587 46.9956 39.7957 46.9956 39C46.9956 38.2044 46.6795 37.4413 46.1169 36.8787C45.5543 36.3161 44.7912 36 43.9956 36H15.1156C14.6965 35.9921 14.2905 35.8526 13.9549 35.6014C13.6194 35.3502 13.3712 34.9999 13.2456 34.6L10.1256 24.6C10.0664 24.4055 10.0361 24.2033 10.0356 24C10.0351 23.4719 10.2436 22.965 10.6156 22.59C10.8016 22.4029 11.0229 22.2544 11.2666 22.1531C11.5103 22.0518 11.7717 21.9998 12.0356 22H46.2456C46.9811 22.0056 47.693 21.7408 48.2461 21.256C48.7992 20.7711 49.1549 20.0999 49.2456 19.37L49.9156 14H55.0056C55.2708 14 55.5251 13.8947 55.7127 13.7071C55.9002 13.5196 56.0056 13.2652 56.0056 13C56.0056 12.7348 55.9002 12.4804 55.7127 12.2929C55.5251 12.1054 55.2708 12 55.0056 12H49.8956C49.4042 11.9965 48.9287 12.1739 48.5599 12.4985C48.191 12.8231 47.9545 13.2722 47.8956 13.76L47.2256 19.12C47.1961 19.3639 47.0779 19.5884 46.8934 19.7508C46.709 19.9131 46.4712 20.0018 46.2256 20H11.9856C11.3592 20.0014 10.7418 20.1499 10.1833 20.4335C9.6248 20.7172 9.1407 21.128 8.77001 21.6329C8.39933 22.1379 8.15241 22.7229 8.04916 23.3407C7.94591 23.9585 7.98921 24.592 8.17556 25.19L11.2956 35.19C11.5494 36.0046 12.057 36.7166 12.7443 37.2222C13.4315 37.7277 14.2624 38.0003 15.1156 38H44.0356C44.3008 38 44.5551 38.1054 44.7427 38.2929C44.9302 38.4804 45.0356 38.7348 45.0356 39C45.0356 39.2652 44.9302 39.5196 44.7427 39.7071C44.5551 39.8946 44.3008 40 44.0356 40H16.0356C15.7703 40 15.516 40.1054 15.3285 40.2929C15.1409 40.4804 15.0356 40.7348 15.0356 41C15.0356 41.2652 15.1409 41.5196 15.3285 41.7071C15.516 41.8946 15.7703 42 16.0356 42ZM46.0056 33.96H46.1156C46.363 33.9643 46.6031 33.8767 46.7897 33.7141C46.9762 33.5516 47.0959 33.3257 47.1256 33.08L48.0056 25.08C48.0347 24.8148 47.9574 24.5489 47.7905 24.3407C47.6236 24.1325 47.3808 23.9992 47.1156 23.97C46.8503 23.9409 46.5844 24.0182 46.3762 24.1851C46.1681 24.352 46.0347 24.5948 46.0056 24.86L45.1256 32.86C45.0975 33.1224 45.1742 33.3852 45.339 33.5913C45.5038 33.7973 45.7434 33.9299 46.0056 33.96ZM20.0356 52C19.2445 52 18.4711 51.7654 17.8133 51.3259C17.1555 50.8864 16.6428 50.2617 16.3401 49.5307C16.0373 48.7998 15.9581 47.9956 16.1124 47.2197C16.2668 46.4437 16.6478 45.731 17.2072 45.1716C17.7666 44.6122 18.4793 44.2312 19.2552 44.0769C20.0312 43.9225 20.8354 44.0017 21.5663 44.3045C22.2972 44.6072 22.9219 45.1199 23.3615 45.7777C23.801 46.4355 24.0356 47.2089 24.0356 48C24.0356 49.0609 23.6142 50.0783 22.864 50.8284C22.1139 51.5786 21.0965 52 20.0356 52ZM20.0356 46C19.64 46 19.2533 46.1173 18.9244 46.3371C18.5955 46.5568 18.3392 46.8692 18.1878 47.2346C18.0365 47.6001 17.9968 48.0022 18.074 48.3902C18.1512 48.7781 18.3417 49.1345 18.6214 49.4142C18.9011 49.6939 19.2574 49.8844 19.6454 49.9616C20.0334 50.0388 20.4355 49.9991 20.801 49.8478C21.1664 49.6964 21.4788 49.4401 21.6985 49.1112C21.9183 48.7823 22.0356 48.3956 22.0356 48C22.0356 47.4696 21.8249 46.9609 21.4498 46.5858C21.0747 46.2107 20.566 46 20.0356 46ZM39.2072 50.8285C39.9573 51.5786 40.9747 52 42.0356 52C43.0965 52 44.1139 51.5786 44.864 50.8285C45.6142 50.0783 46.0356 49.0609 46.0356 48C46.0356 46.9392 45.6142 45.9217 44.864 45.1716C44.1139 44.4215 43.0965 44 42.0356 44C40.9747 44 39.9573 44.4215 39.2072 45.1716C38.457 45.9217 38.0356 46.9392 38.0356 48C38.0356 49.0609 38.457 50.0783 39.2072 50.8285ZM40.6214 46.5858C40.9964 46.2107 41.5051 46 42.0356 46C42.566 46 43.0747 46.2107 43.4498 46.5858C43.8249 46.9609 44.0356 47.4696 44.0356 48C44.0356 48.5305 43.8249 49.0392 43.4498 49.4142C43.0747 49.7893 42.566 50 42.0356 50C41.5051 50 40.9964 49.7893 40.6214 49.4142C40.2463 49.0392 40.0356 48.5305 40.0356 48C40.0356 47.4696 40.2463 46.9609 40.6214 46.5858Z" fill="black"/>
</svg>
