<svg width="24" height="24" viewBox="0 0 24 24" fill="none" xmlns="http://www.w3.org/2000/svg">
<path fill-rule="evenodd" clip-rule="evenodd" d="M1.9275 6.30058C3.2626 6.61749 4.63168 6.76863 6.00376 6.75058C8.02505 6.75058 10.1526 6.46466 11.25 5.85182V7.12558C11.25 7.46308 9.46125 8.25058 6 8.25058C2.53875 8.25058 0.75 7.46308 0.75 7.12558V5.85421C1.05195 6.02234 1.44485 6.1714 1.9275 6.30058ZM6 9.00058C8.0236 9.00058 10.1537 8.71401 11.25 8.09972V9.37558C11.25 9.71308 9.46125 10.5006 6 10.5006C2.53875 10.5006 0.75 9.71308 0.75 9.37558V8.09932C1.84691 8.71388 3.97859 9.00058 6 9.00058ZM6 11.2506C8.0236 11.2506 10.1537 10.964 11.25 10.3497V11.6256C11.25 11.9631 9.46125 12.7506 6 12.7506C2.53875 12.7506 0.75 11.9631 0.75 11.6256V10.3493C1.84691 10.9639 3.97859 11.2506 6 11.2506ZM0 11.6256V9.37558V7.12558V4.87558C0 4.85105 0.00240357 4.82677 0.00708021 4.80305C0.121568 3.56363 3.17094 3.00058 6.00376 3.00058C7.37609 2.98171 8.74541 3.13414 10.08 3.45433C11.355 3.79183 12.0038 4.27183 12.0038 4.87558C12.0038 4.90157 12.0025 4.92726 12 4.95268V7.12558V9.37558V11.5726C12.0025 11.5901 12.0038 11.6078 12.0038 11.6256V12.7506C14.895 12.7506 18.0038 13.3393 18.0038 14.6256C18.0038 14.6515 18.0025 14.6771 18 14.7024V16.8756V19.1256C18 20.4156 14.8912 21.0006 12 21.0006C9.1125 21.0006 6 20.4156 6 19.1256V18.0006C3.1125 18.0006 0 17.4156 0 16.1256V13.8756V11.6256ZM11.2538 12.7637V12.5976C11.1391 12.6621 11.013 12.7229 10.8769 12.7803C11.0022 12.7736 11.1279 12.7681 11.2538 12.7637ZM6 16.8756V17.2506C2.53875 17.2506 0.75 16.4631 0.75 16.1256V14.8493C1.84691 15.4639 3.97859 15.7506 6 15.7506V16.8756ZM6 15.0006C2.53875 15.0006 0.75 14.2131 0.75 13.8756V12.5993C1.84691 13.2139 3.97859 13.5006 6 13.5006C6.37436 13.5006 6.75237 13.4908 7.1268 13.4709C6.4706 13.7472 6.04828 14.1062 6.00707 14.5531C6.0024 14.5768 6 14.6011 6 14.6256V15.0006ZM11.2504 4.85793C11.2185 4.76115 10.945 4.46145 9.885 4.17808C8.6142 3.87398 7.31029 3.73036 6.00376 3.75058C2.54251 3.75058 0.753754 4.53808 0.753754 4.87558C0.753754 4.94683 0.986254 5.26933 2.1225 5.57308C3.39335 5.87695 4.69724 6.02057 6.00376 6.00058C9.37696 6.00058 11.158 5.25426 11.25 4.90333V4.87558C11.25 4.86968 11.2501 4.8638 11.2504 4.85793ZM6.75 17.8493V19.1256C6.75 19.4631 8.53875 20.2506 12 20.2506C15.4613 20.2506 17.25 19.4631 17.25 19.1256V17.8497C16.1537 18.464 14.0236 18.7506 12 18.7506C9.97859 18.7506 7.84691 18.4639 6.75 17.8493ZM17.25 16.8756C17.25 17.2131 15.4613 18.0006 12 18.0006C8.53875 18.0006 6.75 17.2131 6.75 16.8756V15.5976C7.84514 16.2134 9.97784 16.5006 12.0038 16.5006C14.025 16.5006 16.1526 16.2128 17.25 15.6002V16.8756ZM17.2502 14.6133L17.2508 14.6011C17.169 14.2515 15.3874 13.5006 12.0038 13.5006C8.53875 13.5006 6.75375 14.2881 6.75375 14.6256C6.75375 14.9631 8.53875 15.7506 12.0038 15.7506C15.377 15.7506 17.158 15.0042 17.25 14.6533V14.6256L17.2502 14.6133Z" fill="black"/>
</svg>
