<svg width="64" height="64" viewBox="0 0 64 64" fill="none" xmlns="http://www.w3.org/2000/svg">
<path fill-rule="evenodd" clip-rule="evenodd" d="M42.81 19.7H18C17.7348 19.7 17.4804 19.5946 17.2929 19.4071C17.1054 19.2196 17 18.9652 17 18.7C17 18.4348 17.1054 18.1804 17.2929 17.9929C17.4804 17.8054 17.7348 17.7 18 17.7H42.81C43.3404 17.7 43.8491 17.4893 44.2242 17.1142C44.5993 16.7392 44.81 16.2305 44.81 15.7C44.81 15.334 44.6646 14.983 44.4058 14.7242C44.147 14.4654 43.796 14.32 43.43 14.32C43.2401 14.3212 43.0552 14.3806 42.9 14.49C42.6847 14.6324 42.4227 14.6862 42.1688 14.6398C41.9148 14.5935 41.6886 14.4508 41.5375 14.2416C41.3864 14.0323 41.322 13.7727 41.3579 13.5171C41.3938 13.2614 41.5271 13.0296 41.73 12.87C42.2203 12.5112 42.8124 12.3185 43.42 12.32C44.3164 12.32 45.1761 12.6761 45.81 13.31C46.4439 13.9439 46.8 14.8036 46.8 15.7C46.8 16.7592 46.3799 17.7751 45.632 18.5249C44.884 19.2748 43.8691 19.6974 42.81 19.7ZM58 28.71H18C17.7348 28.71 17.4804 28.6047 17.2929 28.4171C17.1054 28.2296 17 27.9752 17 27.71C17 27.4448 17.1054 27.1904 17.2929 27.0029C17.4804 26.8154 17.7348 26.71 18 26.71H58C59.0609 26.71 60.0783 26.2886 60.8284 25.5384C61.5786 24.7883 62 23.7709 62 22.71C62 21.9143 61.6839 21.1513 61.1213 20.5887C60.5587 20.0261 59.7957 19.71 59 19.71C58.4165 19.71 57.8569 19.9418 57.4444 20.3544C57.0318 20.767 56.8 21.3265 56.8 21.91C56.8 22.1752 56.6946 22.4296 56.5071 22.6171C56.3196 22.8046 56.0652 22.91 55.8 22.91C55.5348 22.91 55.2804 22.8046 55.0929 22.6171C54.9054 22.4296 54.8 22.1752 54.8 21.91C54.8026 20.7969 55.246 19.7302 56.0331 18.9431C56.8202 18.156 57.8869 17.7126 59 17.71C60.3261 17.71 61.5979 18.2368 62.5355 19.1745C63.4732 20.1122 64 21.3839 64 22.71C64 24.3013 63.3679 25.8274 62.2426 26.9526C61.1174 28.0779 59.5913 28.71 58 28.71ZM39.2674 49.9226C40.3926 51.0479 41.9187 51.68 43.51 51.68C45.4205 51.68 47.2528 50.9218 48.6047 49.5718C49.9565 48.2218 50.7173 46.3905 50.72 44.48C50.72 42.1558 49.7974 39.9266 48.1549 38.2822C46.5123 36.6378 44.2842 35.7126 41.96 35.71H17.96C17.6948 35.71 17.4404 35.8154 17.2529 36.0029C17.0653 36.1904 16.96 36.4448 16.96 36.71C16.96 36.9752 17.0653 37.2296 17.2529 37.4171C17.4404 37.6047 17.6948 37.71 17.96 37.71H41.96C43.7538 37.7126 45.4732 38.4271 46.7406 39.6964C48.0081 40.9657 48.72 42.6862 48.72 44.48C48.7173 45.8601 48.1673 47.1827 47.1905 48.1576C46.2137 49.1325 44.89 49.68 43.51 49.68C42.4491 49.68 41.4317 49.2586 40.6816 48.5084C39.9314 47.7583 39.51 46.7409 39.51 45.68C39.51 45.4148 39.4046 45.1604 39.2171 44.9729C39.0296 44.7854 38.7752 44.68 38.51 44.68C38.2448 44.68 37.9904 44.7854 37.8029 44.9729C37.6154 45.1604 37.51 45.4148 37.51 45.68C37.51 47.2713 38.1421 48.7974 39.2674 49.9226Z" fill="black"/>
</svg>
