<svg width="24" height="24" viewBox="0 0 24 24" fill="none" xmlns="http://www.w3.org/2000/svg">
<path fill-rule="evenodd" clip-rule="evenodd" d="M8.63742 13.1717C7.9713 13.1717 7.45306 12.8996 7.04989 12.4749L6.4624 12.7705C6.15462 12.9343 5.87281 13.1428 5.62616 13.3893C5.47067 13.5515 5.25821 13.647 5.03366 13.6555L5.00365 13.6443C4.78496 13.6446 4.57439 13.5614 4.4149 13.4118C4.33194 13.3356 4.265 13.2436 4.21799 13.1412C4.17099 13.0388 4.14487 12.9281 4.14116 12.8155C4.07569 12.1778 4.21623 11.5359 4.54219 10.9838C4.85277 10.4578 5.31614 10.0398 5.86959 9.78468C5.64336 8.64908 5.63742 7.64272 5.63742 7.54671C5.63742 4.72296 8.35242 3.33171 8.46867 3.27546C8.52101 3.24909 8.57881 3.23535 8.63742 3.23535C8.69603 3.23535 8.75382 3.24909 8.80617 3.27546C8.91867 3.33171 11.6374 4.72296 11.6374 7.54671C11.6374 8.17318 11.5725 8.97915 11.4054 9.78417C11.9608 10.0405 12.4254 10.461 12.7357 10.99C13.0627 11.5474 13.201 12.1956 13.1299 12.838C13.1164 13.0564 13.0182 13.2609 12.8562 13.408C12.6973 13.559 12.4866 13.6435 12.2674 13.6442H12.2374C12.0076 13.6344 11.7908 13.5348 11.6337 13.3667C11.3871 13.1239 11.1067 12.918 10.8012 12.7555L10.2121 12.4609C9.80196 12.8982 9.28465 13.1717 8.63742 13.1717ZM10.6628 11.85L11.1462 12.0917C11.5236 12.29 11.8698 12.5427 12.1737 12.8417C12.1842 12.856 12.1977 12.8677 12.2132 12.8762C12.2288 12.8846 12.246 12.8895 12.2637 12.8905C12.2935 12.8885 12.3221 12.8781 12.3462 12.8605C12.3568 12.8503 12.3653 12.8381 12.3711 12.8246C12.3769 12.811 12.3799 12.7964 12.3799 12.7817C12.44 12.2965 12.3404 11.8049 12.0961 11.3813C11.8877 11.0199 11.5836 10.7248 11.2193 10.5273C11.078 11.0021 10.8952 11.4563 10.6628 11.85ZM6.04961 10.5322C6.18412 11.0007 6.36251 11.4627 6.59908 11.8659L6.11741 12.1068C5.73821 12.304 5.39062 12.5568 5.08616 12.8568C5.07665 12.8685 5.06465 12.8779 5.05102 12.8844C5.0374 12.8909 5.0225 12.8943 5.00741 12.8943C4.98974 12.8952 4.97209 12.892 4.95582 12.8851C4.93955 12.8782 4.92507 12.8676 4.9135 12.8542C4.90193 12.8408 4.89356 12.825 4.88904 12.8079C4.88452 12.7908 4.88396 12.7729 4.88741 12.7555C4.83445 12.2746 4.93791 11.7895 5.18244 11.372C5.39029 11.0172 5.69066 10.7273 6.04961 10.5322ZM8.63742 4.04045C8.08992 4.3742 6.38742 5.56296 6.38742 7.54671C6.38742 8.90421 6.79242 12.4217 8.63742 12.4217C10.4824 12.4217 10.8874 8.81046 10.8874 7.54671C10.8874 5.56296 9.18492 4.3742 8.63742 4.04045ZM0.00403811 16.5466C0.00249875 16.5575 0.00144742 16.5685 0.000882325 16.5795C-0.000885879 16.6053 2.90694e-07 16.6312 0.00357037 16.6569C0.00563954 16.6718 0.00859737 16.6865 0.0124171 16.701V20.0155C0.0124171 20.1149 0.0519257 20.2103 0.122252 20.2806C0.192578 20.351 0.287961 20.3905 0.387417 20.3905C0.486873 20.3905 0.582256 20.351 0.652582 20.2806C0.722909 20.2103 0.762417 20.1149 0.762417 20.0155V17.0993L8.26242 19.1448V20.3905C8.26242 20.4899 8.30193 20.5853 8.37225 20.6556C8.44258 20.726 8.53796 20.7655 8.63742 20.7655C8.73687 20.7655 8.83225 20.726 8.90258 20.6556C8.97291 20.5853 9.01242 20.4899 9.01242 20.3905V19.1305L16.5124 17.0851V20.0155C16.5124 20.1149 16.5519 20.2103 16.6223 20.2806C16.6926 20.351 16.788 20.3905 16.8874 20.3905C16.9869 20.3905 17.0823 20.351 17.1526 20.2806C17.2229 20.2103 17.2624 20.1149 17.2624 20.0155V16.6892C17.2624 16.6831 17.2623 16.677 17.262 16.6709C17.2681 16.6336 17.2686 16.5954 17.2633 16.5578C17.2564 16.509 17.24 16.4619 17.2149 16.4194C17.1898 16.3769 17.1566 16.3398 17.1171 16.3102C17.1108 16.3054 17.1044 16.3009 17.0979 16.2966C17.0862 16.288 17.074 16.28 17.0614 16.2728C17.0106 16.2436 16.9542 16.2271 16.8968 16.2237L12.8599 15.1667C12.8113 15.1507 12.76 15.1447 12.709 15.1492C12.658 15.1537 12.6085 15.1686 12.5635 15.193C12.5185 15.2174 12.4789 15.2507 12.4473 15.2909C12.4157 15.3312 12.3926 15.3775 12.3795 15.4269C12.3665 15.4764 12.3637 15.5281 12.3713 15.5787C12.3789 15.6293 12.3968 15.6778 12.4239 15.7212C12.451 15.7646 12.4867 15.8021 12.5288 15.8312C12.5709 15.8603 12.6185 15.8805 12.6687 15.8905L15.4111 16.6085L8.61128 18.463L1.8123 16.6087L4.59867 15.8792C4.64886 15.8692 4.69646 15.849 4.73855 15.8199C4.78065 15.7908 4.81634 15.7534 4.84342 15.7099C4.87051 15.6665 4.88842 15.618 4.89605 15.5674C4.90368 15.5168 4.90087 15.4652 4.8878 15.4157C4.87472 15.3662 4.85166 15.3199 4.82002 15.2797C4.78839 15.2395 4.74885 15.2061 4.70385 15.1817C4.65884 15.1574 4.60933 15.1425 4.55835 15.1379C4.50737 15.1334 4.456 15.1394 4.40742 15.1555L0.282416 16.2355C0.234604 16.2477 0.189676 16.2693 0.150211 16.2989C0.110746 16.3285 0.077519 16.3657 0.0524352 16.4082C0.0273513 16.4507 0.0109058 16.4977 0.00403811 16.5466ZM7.85513 8.62408C8.08688 8.77815 8.35913 8.85999 8.63742 8.85924C9.00973 8.85825 9.36645 8.70966 9.62936 8.44604C9.89228 8.18243 10.0399 7.82531 10.0399 7.45299C10.0399 7.1747 9.95734 6.90268 9.80266 6.67134C9.64797 6.44 9.42812 6.25976 9.17094 6.15344C8.91377 6.04711 8.63082 6.01948 8.35794 6.07405C8.08505 6.12862 7.83449 6.26292 7.63797 6.45997C7.44145 6.65701 7.30782 6.90792 7.25398 7.18096C7.20014 7.45399 7.22853 7.73686 7.33554 7.99375C7.44255 8.25064 7.62338 8.47001 7.85513 8.62408ZM8.27142 6.90954C8.37991 6.83771 8.50731 6.79976 8.63742 6.8005C8.81017 6.80148 8.97556 6.87055 9.09772 6.9927C9.21987 7.11486 9.28893 7.28024 9.28992 7.45299C9.29066 7.5831 9.2527 7.71051 9.18088 7.819C9.10906 7.92749 9.00661 8.01218 8.88654 8.06231C8.76647 8.11245 8.63422 8.12576 8.50657 8.10056C8.37892 8.07536 8.26164 8.01277 8.16964 7.92077C8.07764 7.82877 8.01506 7.71149 7.98985 7.58385C7.96465 7.4562 7.97796 7.32395 8.0281 7.20388C8.07823 7.08381 8.16293 6.98136 8.27142 6.90954ZM7.21242 15.0055C7.21242 15.613 7.70367 17.3643 8.63742 17.3643C9.57117 17.3643 10.0624 15.613 10.0624 15.0055C10.0624 14.6276 9.91229 14.2652 9.64505 13.9979C9.37781 13.7307 9.01536 13.5805 8.63742 13.5805C8.25949 13.5805 7.89704 13.7307 7.6298 13.9979C7.36256 14.2652 7.21242 14.6276 7.21242 15.0055ZM8.16121 14.5293C8.28759 14.403 8.45871 14.3315 8.63742 14.3305C8.81614 14.3315 8.98726 14.403 9.11363 14.5293C9.24001 14.6557 9.31144 14.8268 9.31242 15.0055C9.31242 15.583 8.85867 16.5805 8.63742 16.6143C8.41617 16.5805 7.96242 15.583 7.96242 15.0055C7.96341 14.8268 8.03484 14.6557 8.16121 14.5293Z" fill="black"/>
</svg>
