<svg width="24" height="24" viewBox="0 0 24 24" fill="none" xmlns="http://www.w3.org/2000/svg">
<path fill-rule="evenodd" clip-rule="evenodd" d="M20.67 3.33C20.4593 3.11896 20.1733 3.00026 19.875 3H4.12503C3.82666 3 3.54051 3.11852 3.32953 3.3295C3.11855 3.54048 3.00003 3.82663 3.00003 4.125V6.375C2.99834 6.55811 3.0637 6.7355 3.18378 6.87374C3.30502 7.01275 3.47324 7.1022 3.65628 7.125C4.20127 7.19212 4.70289 7.45623 5.06666 7.86755C5.43043 8.27887 5.63122 8.80902 5.63122 9.35812C5.63122 9.90722 5.43043 10.4374 5.06666 10.8487C4.70289 11.26 4.20127 11.5241 3.65628 11.5913C3.47324 11.614 3.30502 11.7035 3.18378 11.8425C3.06455 11.9798 2.99926 12.1557 3.00003 12.3375V14.6475C3.00003 14.9459 3.11855 15.232 3.32953 15.443C3.54051 15.654 3.82666 15.7725 4.12503 15.7725H9.75003C9.84949 15.7725 9.94487 15.733 10.0152 15.6627C10.0855 15.5923 10.125 15.497 10.125 15.3975C10.125 15.298 10.0855 15.2027 10.0152 15.1323C9.94487 15.062 9.84949 15.0225 9.75003 15.0225H4.12503C4.07542 15.0223 4.02633 15.0122 3.98063 14.9929C3.93493 14.9736 3.8935 14.9454 3.85877 14.91C3.78949 14.8402 3.75045 14.7459 3.75003 14.6475V12.3712C4.47982 12.2852 5.15264 11.9343 5.64089 11.3852C6.12914 10.836 6.39885 10.1267 6.39885 9.39187C6.39885 8.65703 6.12914 7.94775 5.64089 7.39857C5.15264 6.84939 4.47982 6.49852 3.75003 6.4125V4.14375C3.75045 4.04537 3.78949 3.9511 3.85877 3.88125C3.8935 3.84582 3.93493 3.81763 3.98063 3.79832C4.02633 3.77901 4.07542 3.76895 4.12503 3.76875H19.875C19.9745 3.76875 20.0699 3.80826 20.1402 3.87859C20.2105 3.94891 20.25 4.04429 20.25 4.14375V6.3975C19.854 6.44718 19.4717 6.57462 19.125 6.7725C18.7768 6.97466 18.4728 7.24486 18.2312 7.56699C17.9896 7.88912 17.8154 8.25659 17.7188 8.6475C17.619 9.03562 17.5974 9.43969 17.655 9.83625C17.6624 9.88503 17.6792 9.93189 17.7047 9.97413C17.7302 10.0164 17.7637 10.0532 17.8034 10.0825C17.8431 10.1117 17.8882 10.1329 17.9361 10.1447C17.984 10.1565 18.0338 10.1587 18.0825 10.1513C18.1313 10.1439 18.1782 10.127 18.2204 10.1016C18.2627 10.0761 18.2995 10.0426 18.3287 10.0029C18.358 9.96315 18.3791 9.91806 18.3909 9.87016C18.4027 9.82227 18.405 9.77251 18.3975 9.72375C18.3524 9.4275 18.3677 9.12518 18.4425 8.835C18.5138 8.54552 18.6412 8.27286 18.8175 8.03249C18.9997 7.79337 19.2279 7.59319 19.4888 7.44375C19.7473 7.29137 20.0346 7.19432 20.3325 7.15875C20.5148 7.13579 20.6823 7.04675 20.8032 6.90851C20.9242 6.77027 20.9902 6.59244 20.9888 6.40875V4.1325C20.9911 3.98433 20.9642 3.83717 20.9095 3.69945C20.8548 3.56173 20.7734 3.43618 20.67 3.33ZM13.4166 12.0716C14.2183 11.5359 15.1609 11.25 16.1251 11.25C17.418 11.25 18.658 11.7636 19.5722 12.6779C20.4864 13.5921 21.0001 14.8321 21.0001 16.125C21.0001 17.0892 20.7141 18.0317 20.1785 18.8334C19.6428 19.6351 18.8814 20.2599 17.9906 20.6289C17.0999 20.9979 16.1196 21.0944 15.174 20.9063C14.2283 20.7182 13.3597 20.2539 12.6779 19.5721C11.9961 18.8904 11.5318 18.0217 11.3437 17.0761C11.1556 16.1304 11.2522 15.1502 11.6212 14.2594C11.9901 13.3686 12.615 12.6073 13.4166 12.0716ZM13.8333 19.5548C14.5117 20.0081 15.3092 20.25 16.1251 20.25V20.2725C16.6687 20.2725 17.2069 20.1651 17.7088 19.9564C18.2108 19.7477 18.6665 19.4418 19.0499 19.0564C19.4332 18.6709 19.7366 18.2135 19.9425 17.7105C20.1485 17.2074 20.253 16.6686 20.2501 16.125C20.2501 15.3092 20.0081 14.5116 19.5549 13.8333C19.1016 13.1549 18.4574 12.6262 17.7036 12.314C16.9499 12.0018 16.1205 11.9201 15.3203 12.0793C14.5201 12.2384 13.7851 12.6313 13.2082 13.2082C12.6313 13.7851 12.2385 14.5201 12.0793 15.3203C11.9202 16.1204 12.0018 16.9498 12.3141 17.7036C12.6263 18.4573 13.155 19.1015 13.8333 19.5548ZM16.5001 15.7725H17.6251C17.7245 15.7725 17.8199 15.812 17.8902 15.8824C17.9605 15.9527 18.0001 16.0481 18.0001 16.1475C18.0001 16.247 17.9605 16.3424 17.8902 16.4127C17.8199 16.483 17.7245 16.5225 17.6251 16.5225H16.1251C16.0256 16.5225 15.9302 16.483 15.8599 16.4127C15.7896 16.3424 15.7501 16.247 15.7501 16.1475V13.8975C15.7501 13.7981 15.7896 13.7027 15.8599 13.6324C15.9302 13.562 16.0256 13.5225 16.1251 13.5225C16.2245 13.5225 16.3199 13.562 16.3902 13.6324C16.4605 13.7027 16.5001 13.7981 16.5001 13.8975V15.7725ZM15.5626 5.25C15.5626 5.56066 15.3107 5.8125 15.0001 5.8125C14.6894 5.8125 14.4376 5.56066 14.4376 5.25C14.4376 4.93934 14.6894 4.6875 15.0001 4.6875C15.3107 4.6875 15.5626 4.93934 15.5626 5.25ZM15.0001 8.0625C15.3107 8.0625 15.5626 7.81066 15.5626 7.5C15.5626 7.18934 15.3107 6.9375 15.0001 6.9375C14.6894 6.9375 14.4376 7.18934 14.4376 7.5C14.4376 7.81066 14.6894 8.0625 15.0001 8.0625ZM15.5626 9.75C15.5626 10.0607 15.3107 10.3125 15.0001 10.3125C14.6894 10.3125 14.4376 10.0607 14.4376 9.75C14.4376 9.43934 14.6894 9.1875 15.0001 9.1875C15.3107 9.1875 15.5626 9.43934 15.5626 9.75Z" fill="black"/>
</svg>
