<svg width="64" height="64" viewBox="0 0 64 64" fill="none" xmlns="http://www.w3.org/2000/svg">
<path d="M47.8689 54.3644L36.6789 43.1744C40.3809 39.1017 42.3432 33.7426 42.1465 28.2423C41.9499 22.7421 39.6099 17.5368 35.6265 13.7389C31.6431 9.94091 26.3323 7.85146 20.8289 7.91702C15.3255 7.98259 10.066 10.198 6.17418 14.0897C2.28241 17.9815 0.0670606 23.241 0.00149758 28.7444C-0.0640655 34.2478 2.02537 39.5586 5.82332 43.542C9.62127 47.5254 14.8265 49.8654 20.3268 50.0621C25.8271 50.2587 31.1862 48.2964 35.2589 44.5944L46.4489 55.7944C46.5423 55.8871 46.6531 55.9604 46.775 56.0102C46.8968 56.06 47.0273 56.0852 47.1589 56.0844C47.2905 56.0852 47.421 56.06 47.5428 56.0102C47.6646 55.9604 47.7754 55.8871 47.8689 55.7944C47.9641 55.7013 48.0398 55.5901 48.0915 55.4673C48.1431 55.3445 48.1698 55.2127 48.1698 55.0794C48.1698 54.9462 48.1431 54.8143 48.0915 54.6916C48.0398 54.5688 47.9641 54.4576 47.8689 54.3644V54.3644ZM2.15889 29.0744C2.15889 25.3166 3.27322 21.6431 5.36096 18.5186C7.44871 15.3941 10.4161 12.9588 13.8879 11.5207C17.3597 10.0827 21.18 9.7064 24.8656 10.4395C28.5512 11.1726 31.9367 12.9822 34.5939 15.6394C37.2511 18.2966 39.0607 21.6821 39.7938 25.3677C40.5269 29.0533 40.1507 32.8736 38.7126 36.3454C37.2745 39.8172 34.8393 42.7846 31.7147 44.8723C28.5902 46.9601 24.9167 48.0744 21.1589 48.0744C16.1198 48.0744 11.2871 46.0727 7.72386 42.5095C4.16067 38.9463 2.15889 34.1135 2.15889 29.0744V29.0744Z" fill="black"/>
</svg>
