<svg width="64" height="64" viewBox="0 0 64 64" fill="none" xmlns="http://www.w3.org/2000/svg">
<path fill-rule="evenodd" clip-rule="evenodd" d="M44.0252 17.2508C43.9033 17.1993 43.7929 17.1242 43.7003 17.0297C39.1849 12.5297 33.07 10.003 26.6953 10.003C20.3205 10.003 14.2056 12.5297 9.69027 17.0297C9.50329 17.218 9.24917 17.3243 8.98381 17.3252C8.71845 17.3262 8.46357 17.2216 8.27527 17.0347C8.08696 16.8477 7.98065 16.5936 7.97971 16.3282C7.97877 16.0629 8.08329 15.808 8.27027 15.6197C13.1612 10.7411 19.7872 8.00146 26.6953 8.00146C33.6033 8.00146 40.2294 10.7411 45.1203 15.6197C45.2613 15.7595 45.3575 15.9382 45.3965 16.133C45.4356 16.3277 45.4158 16.5297 45.3396 16.7132C45.2635 16.8966 45.1344 17.0532 44.9689 17.163C44.8034 17.2728 44.6089 17.3308 44.4103 17.3297C44.278 17.3291 44.1471 17.3023 44.0252 17.2508ZM15.0303 23.6798C14.9474 23.7495 14.865 23.8188 14.7903 23.8997C14.7273 23.9346 14.6601 23.9615 14.5903 23.9797L14.4703 24.0597C14.3463 24.11 14.2141 24.1372 14.0803 24.1397C13.9638 24.1363 13.8487 24.1126 13.7403 24.0697L13.6303 24.0197C13.5783 23.997 13.5282 23.9702 13.4803 23.9397C13.4803 23.9147 13.4953 23.9022 13.5028 23.8959C13.5055 23.8937 13.5072 23.8923 13.507 23.8913C13.5065 23.8897 13.4997 23.8897 13.4803 23.8897H13.4803C13.4503 23.8897 13.4553 23.8972 13.4578 23.9009C13.4584 23.9018 13.4589 23.9025 13.4587 23.9028C13.4581 23.9038 13.4509 23.9011 13.4203 23.8897L13.4203 23.8897C13.3403 23.8597 13.3403 23.7797 13.3403 23.7797C13.2977 23.729 13.2639 23.6716 13.2403 23.6097C13.211 23.5556 13.1876 23.4986 13.1703 23.4397C13.1662 23.3764 13.1662 23.3129 13.1703 23.2497C13.1604 23.1867 13.1604 23.1226 13.1703 23.0597C13.1608 23 13.1608 22.9393 13.1703 22.8797C13.19 22.8119 13.2204 22.7478 13.2603 22.6897C13.262 22.653 13.262 22.6163 13.2603 22.5797L13.3503 22.4797L13.4803 22.3597C13.8886 21.9495 14.3193 21.5623 14.7703 21.1997C14.8243 21.1517 14.8783 21.1145 14.9323 21.0773L14.9323 21.0773C14.9683 21.0525 15.0043 21.0277 15.0403 20.9997C15.4462 20.6665 15.8702 20.356 16.3103 20.0697L16.3903 20.0097C19.4542 18.0043 23.0385 16.9405 26.7003 16.9497C30.4115 16.9206 34.0481 17.9924 37.1503 20.0297C37.2689 20.1193 37.3869 20.2075 37.5039 20.2951L37.5039 20.2951C37.8309 20.5398 38.151 20.7793 38.4603 21.0297L38.6803 21.1997C39.1772 21.5995 39.6512 22.0268 40.1003 22.4797C40.1935 22.5729 40.2675 22.6836 40.318 22.8054C40.3684 22.9272 40.3944 23.0578 40.3944 23.1897C40.3944 23.3215 40.3684 23.4521 40.318 23.5739C40.2675 23.6957 40.1935 23.8064 40.1003 23.8997C40.0071 23.9929 39.8964 24.0669 39.7746 24.1173C39.6527 24.1678 39.5222 24.1938 39.3903 24.1938C39.2585 24.1938 39.1279 24.1678 39.0061 24.1173C38.8842 24.0669 38.7735 23.9929 38.6803 23.8997C38.2764 23.4954 37.8526 23.1116 37.4103 22.7497C37.3312 22.6841 37.2476 22.6239 37.1603 22.5697C36.8021 22.2732 36.4282 21.9961 36.0403 21.7396L35.9603 21.6897C33.233 19.9284 30.0585 18.9849 26.812 18.9708C23.5655 18.9566 20.3829 19.8723 17.6403 21.6097L17.4403 21.7297C17.1003 21.9597 16.7703 22.2097 16.4403 22.4697C16.394 22.5044 16.3462 22.5376 16.298 22.5711L16.298 22.5712L16.298 22.5712L16.298 22.5712L16.298 22.5712C16.2214 22.6244 16.144 22.6783 16.0703 22.7396C15.7605 22.9895 15.4707 23.2693 15.1808 23.5492L15.1803 23.5497C15.1312 23.595 15.0807 23.6375 15.0303 23.6798ZM32.1703 29.5396C32.3904 29.6881 32.6605 29.7431 32.9212 29.6925C33.1819 29.6418 33.4118 29.4898 33.5603 29.2696C33.7088 29.0495 33.7638 28.7794 33.7132 28.5187C33.6625 28.258 33.5104 28.0281 33.2903 27.8796C31.0283 26.3661 28.312 25.6824 25.603 25.945C22.8941 26.2075 20.3596 27.3999 18.4303 29.3196C18.3366 29.4126 18.2622 29.5232 18.2114 29.645C18.1606 29.7669 18.1345 29.8976 18.1345 30.0296C18.1345 30.1616 18.1606 30.2923 18.2114 30.4142C18.2622 30.5361 18.3366 30.6466 18.4303 30.7396C18.5237 30.8323 18.6345 30.9056 18.7564 30.9554C18.8782 31.0052 19.0087 31.0304 19.1403 31.0296C19.2719 31.0304 19.4024 31.0052 19.5242 30.9554C19.646 30.9056 19.7568 30.8323 19.8503 30.7396C21.4474 29.1443 23.5487 28.1526 25.7954 27.9338C28.0422 27.7149 30.2953 28.2825 32.1703 29.5396ZM27.4674 36.5367C27.2799 36.7242 27.0255 36.8296 26.7603 36.8296C26.0761 36.8296 25.4198 37.1014 24.936 37.5852C24.4521 38.0691 24.1803 38.7253 24.1803 39.4096C24.1803 40.0938 24.4521 40.7501 24.936 41.2339C25.4198 41.7178 26.0761 41.9896 26.7603 41.9896C27.0255 41.9896 27.2799 42.0949 27.4674 42.2825C27.655 42.47 27.7603 42.7243 27.7603 42.9896C27.7603 43.2548 27.655 43.5091 27.4674 43.6967C27.2799 43.8842 27.0255 43.9896 26.7603 43.9896C25.5456 43.9896 24.3807 43.507 23.5218 42.6481C22.6629 41.7892 22.1803 40.6243 22.1803 39.4096C22.1803 38.1949 22.6629 37.0299 23.5218 36.171C24.3807 35.3121 25.5456 34.8296 26.7603 34.8296C27.0255 34.8296 27.2799 34.9349 27.4674 35.1225C27.655 35.31 27.7603 35.5644 27.7603 35.8296C27.7603 36.0948 27.655 36.3491 27.4674 36.5367ZM54.1803 46.5096C53.9297 46.4236 53.6551 46.4406 53.417 46.5569C53.1789 46.6731 52.9966 46.8791 52.9103 47.1296C52.1978 49.2302 50.8155 51.0387 48.9757 52.2777C47.1359 53.5167 44.9403 54.1176 42.726 53.9882C40.5117 53.8587 38.4011 53.0061 36.7182 51.5612C35.0353 50.1162 33.8732 48.1589 33.4103 45.9896H38.0203C38.2855 45.9896 38.5399 45.8843 38.7274 45.6967C38.9149 45.5092 39.0203 45.2548 39.0203 44.9896C39.0203 44.7244 38.9149 44.4701 38.7274 44.2825C38.5399 44.095 38.2855 43.9896 38.0203 43.9896H31.0203C30.7551 43.9896 30.5007 44.095 30.3132 44.2825C30.1257 44.4701 30.0203 44.7244 30.0203 44.9896V51.9896C30.0203 52.2548 30.1257 52.5092 30.3132 52.6967C30.5007 52.8843 30.7551 52.9896 31.0203 52.9896C31.2855 52.9896 31.5399 52.8843 31.7274 52.6967C31.9149 52.5092 32.0203 52.2548 32.0203 51.9896V48.3196C32.9331 50.6299 34.5327 52.6046 36.6031 53.9771C38.6736 55.3497 41.1153 56.0541 43.5986 55.9952C46.082 55.9363 48.4876 55.1171 50.4907 53.6479C52.4938 52.1788 53.998 50.1306 54.8003 47.7796C54.8863 47.529 54.8693 47.2545 54.7531 47.0164C54.6368 46.7782 54.4308 46.596 54.1803 46.5096ZM54.3132 33.2825C54.5007 33.0949 54.7551 32.9896 55.0203 32.9896C55.2855 32.9896 55.5398 33.0949 55.7274 33.2825C55.9149 33.47 56.0203 33.7243 56.0203 33.9896V40.9896C56.0203 41.2548 55.9149 41.5091 55.7274 41.6967C55.5398 41.8842 55.2855 41.9896 55.0203 41.9896H48.0203C47.7551 41.9896 47.5007 41.8842 47.3132 41.6967C47.1256 41.5091 47.0203 41.2548 47.0203 40.9896C47.0203 40.7243 47.1256 40.47 47.3132 40.2825C47.5007 40.0949 47.7551 39.9896 48.0203 39.9896H52.6303C52.1674 37.8203 51.0052 35.863 49.3224 34.4181C47.6395 32.9731 45.5289 32.1205 43.3146 31.991C41.1003 31.8616 38.9047 32.4625 37.0649 33.7015C35.2251 34.9405 33.8428 36.7491 33.1303 38.8496C33.0372 39.0911 32.854 39.2871 32.6194 39.3964C32.3847 39.5056 32.1168 39.5197 31.872 39.4355C31.6272 39.3513 31.4246 39.1755 31.3068 38.945C31.189 38.7145 31.1652 38.4473 31.2403 38.1996C32.0426 35.8486 33.5468 33.8004 35.5499 32.3313C37.553 30.8621 39.9586 30.0429 42.4419 29.984C44.9253 29.9251 47.367 30.6295 49.4375 32.0021C51.5079 33.3746 53.1075 35.3493 54.0203 37.6596V33.9896C54.0203 33.7243 54.1256 33.47 54.3132 33.2825Z" fill="black"/>
</svg>
