<svg width="24" height="24" viewBox="0 0 24 24" fill="none" xmlns="http://www.w3.org/2000/svg">
<path fill-rule="evenodd" clip-rule="evenodd" d="M4.92561 6.30058C6.26071 6.61749 7.62979 6.76863 9.00186 6.75058C11.0232 6.75058 13.1508 6.46466 14.2481 5.85182V7.12558C14.2481 7.46308 12.4594 8.25058 8.99811 8.25058C5.53686 8.25058 3.74811 7.46308 3.74811 7.12558V5.85421C4.05005 6.02234 4.44296 6.1714 4.92561 6.30058ZM8.99811 9.00058C11.0217 9.00058 13.1519 8.71401 14.2481 8.09972V9.37558C14.2481 9.71308 12.4594 10.5006 8.99811 10.5006C5.53686 10.5006 3.74811 9.71308 3.74811 9.37558V8.09932C4.84502 8.71388 6.9767 9.00058 8.99811 9.00058ZM8.99811 11.2506C11.0217 11.2506 13.1519 10.964 14.2481 10.3497V11.6256C14.2481 11.9631 12.4594 12.7506 8.99811 12.7506C5.53686 12.7506 3.74811 11.9631 3.74811 11.6256V10.3493C4.84502 10.9639 6.9767 11.2506 8.99811 11.2506ZM2.99811 11.6256V9.37558V7.12558V4.87558C2.99811 4.85105 3.00051 4.82677 3.00519 4.80305C3.11968 3.56363 6.16905 3.00058 9.00186 3.00058C10.3742 2.98171 11.7435 3.13414 13.0781 3.45433C14.3531 3.79183 15.0019 4.27183 15.0019 4.87558C15.0019 4.90157 15.0006 4.92726 14.9981 4.95268V7.12558V9.37558V11.5726C15.0006 11.5901 15.0019 11.6078 15.0019 11.6256V12.7506C17.8931 12.7506 21.0019 13.3393 21.0019 14.6256C21.0019 14.6515 21.0006 14.6771 20.9981 14.7024V16.8756V19.1256C20.9981 20.4156 17.8894 21.0006 14.9981 21.0006C12.1106 21.0006 8.99811 20.4156 8.99811 19.1256V18.0006C6.11061 18.0006 2.99811 17.4156 2.99811 16.1256V13.8756V11.6256ZM14.2519 12.7637V12.5976C14.1372 12.6621 14.0112 12.7229 13.8751 12.7803C14.0003 12.7736 14.126 12.7681 14.2519 12.7637ZM8.99811 16.8756V17.2506C5.53686 17.2506 3.74811 16.4631 3.74811 16.1256V14.8493C4.84502 15.4639 6.9767 15.7506 8.99811 15.7506V16.8756ZM8.99811 15.0006C5.53686 15.0006 3.74811 14.2131 3.74811 13.8756V12.5993C4.84502 13.2139 6.9767 13.5006 8.99811 13.5006C9.37247 13.5006 9.75047 13.4908 10.1249 13.4709C9.46871 13.7472 9.04639 14.1062 9.00518 14.5531C9.00051 14.5768 8.99811 14.6011 8.99811 14.6256V15.0006ZM14.2485 4.85793C14.2166 4.76115 13.9431 4.46145 12.8831 4.17808C11.6123 3.87398 10.3084 3.73036 9.00186 3.75058C5.54061 3.75058 3.75186 4.53808 3.75186 4.87558C3.75186 4.94683 3.98436 5.26933 5.12061 5.57308C6.39146 5.87695 7.69535 6.02057 9.00186 6.00058C12.3751 6.00058 14.1561 5.25426 14.2481 4.90333V4.87558C14.2481 4.86968 14.2482 4.8638 14.2485 4.85793ZM9.74811 17.8493V19.1256C9.74811 19.4631 11.5369 20.2506 14.9981 20.2506C18.4594 20.2506 20.2481 19.4631 20.2481 19.1256V17.8497C19.1519 18.464 17.0217 18.7506 14.9981 18.7506C12.9767 18.7506 10.845 18.4639 9.74811 17.8493ZM20.2481 16.8756C20.2481 17.2131 18.4594 18.0006 14.9981 18.0006C11.5369 18.0006 9.74811 17.2131 9.74811 16.8756V15.5976C10.8432 16.2134 12.9759 16.5006 15.0019 16.5006C17.0232 16.5006 19.1508 16.2128 20.2481 15.6002V16.8756ZM20.2483 14.6133L20.2489 14.6011C20.1671 14.2515 18.3855 13.5006 15.0019 13.5006C11.5369 13.5006 9.75186 14.2881 9.75186 14.6256C9.75186 14.9631 11.5369 15.7506 15.0019 15.7506C18.3751 15.7506 20.1561 15.0042 20.2481 14.6533V14.6256L20.2483 14.6133Z" fill="black"/>
</svg>
