<svg width="64" height="64" viewBox="0 0 64 64" fill="none" xmlns="http://www.w3.org/2000/svg">
<path fill-rule="evenodd" clip-rule="evenodd" d="M21.13 16.8022C24.6903 17.6473 28.3411 18.0503 32 18.0022C37.3901 18.0022 43.0637 17.2398 45.99 15.6055V19.0022C45.99 19.9022 41.22 22.0022 31.99 22.0022C22.76 22.0022 17.99 19.9022 17.99 19.0022V15.6119C18.7952 16.0602 19.8429 16.4577 21.13 16.8022ZM31.99 24.0022C37.3863 24.0022 43.0666 23.238 45.99 21.5999V25.0022C45.99 25.9022 41.22 28.0022 31.99 28.0022C22.76 28.0022 17.99 25.9022 17.99 25.0022V21.5988C20.9151 23.2377 26.5996 24.0022 31.99 24.0022ZM31.99 30.0022C37.3863 30.0022 43.0666 29.238 45.99 27.5999V31.0022C45.99 31.9022 41.22 34.0022 31.99 34.0022C22.76 34.0022 17.99 31.9022 17.99 31.0022V27.5988C20.9151 29.2377 26.5996 30.0022 31.99 30.0022ZM15.99 31.0022V25.0022V19.0022V13.0022C15.99 12.9368 15.9964 12.872 16.0089 12.8088C16.3142 9.50368 24.4458 8.00221 32 8.00221C35.6596 7.95189 39.3111 8.35835 42.87 9.2122C46.27 10.1122 48 11.3922 48 13.0022C48 13.0715 47.9966 13.14 47.99 13.2078V19.0022V25.0022V30.861C47.9966 30.9075 48 30.9547 48 31.0022V34.0022C55.71 34.0022 64 35.5722 64 39.0022C64 39.0713 63.9966 39.1396 63.99 39.2071V45.0022V51.0022C63.99 54.4422 55.7 56.0022 47.99 56.0022C40.29 56.0022 31.99 54.4422 31.99 51.0022V48.0022C24.29 48.0022 15.99 46.4422 15.99 43.0022V37.0022V31.0022ZM46 34.0371V33.5943C45.6942 33.7662 45.3581 33.9285 44.9952 34.0814C45.3293 34.0636 45.6645 34.0489 46 34.0371ZM31.99 45.0022V46.0022C22.76 46.0022 17.99 43.9022 17.99 43.0022V39.5988C20.9151 41.2377 26.5996 42.0022 31.99 42.0022V45.0022ZM31.99 40.0022C22.76 40.0022 17.99 37.9022 17.99 37.0022V33.5988C20.9151 35.2377 26.5996 36.0022 31.99 36.0022C32.9883 36.0022 33.9963 35.976 34.9948 35.923C33.2449 36.6599 32.1187 37.6172 32.0089 38.8089C31.9964 38.8721 31.99 38.9368 31.99 39.0022V40.0022ZM45.9911 12.9552C45.906 12.6971 45.1768 11.8979 42.35 11.1422C38.9612 10.3313 35.4841 9.94828 32 10.0022C22.77 10.0022 18 12.1022 18 13.0022C18 13.1922 18.62 14.0522 21.65 14.8622C25.0389 15.6725 28.516 16.0555 32 16.0022C40.9952 16.0022 45.7447 14.012 45.99 13.0762V13.0022C45.99 12.9865 45.9904 12.9708 45.9911 12.9552ZM33.99 47.5988V51.0022C33.99 51.9022 38.76 54.0022 47.99 54.0022C57.22 54.0022 61.99 51.9022 61.99 51.0022V47.5999C59.0666 49.238 53.3863 50.0022 47.99 50.0022C42.5996 50.0022 36.9151 49.2377 33.99 47.5988ZM61.99 45.0022C61.99 45.9022 57.22 48.0022 47.99 48.0022C38.76 48.0022 33.99 45.9022 33.99 45.0022V41.5943C36.9104 43.2363 42.5976 44.0022 48 44.0022C53.3901 44.0022 59.0637 43.2349 61.99 41.6011V45.0022ZM61.99 39.0022C61.99 38.9803 61.9907 38.9585 61.9921 38.9369C61.774 38.0047 57.023 36.0022 48 36.0022C38.76 36.0022 34 38.1022 34 39.0022C34 39.9022 38.76 42.0022 48 42.0022C56.9953 42.0022 61.7447 40.012 61.99 39.0762V39.0022Z" fill="black"/>
</svg>
