<svg width="24" height="24" viewBox="0 0 24 24" fill="none" xmlns="http://www.w3.org/2000/svg">
<path fill-rule="evenodd" clip-rule="evenodd" d="M11.8237 20.955C11.8779 20.9842 11.9384 20.9997 12 21C12.0594 21.0037 12.1188 20.992 12.1725 20.9662C14.3883 19.8059 16.2432 18.0598 17.5352 15.9181C18.8272 13.7764 19.5068 11.3212 19.5 8.82V4.125C19.5 3.82663 19.3815 3.54049 19.1705 3.32951C18.9595 3.11853 18.6734 3 18.375 3H5.625C5.32663 3 5.04048 3.11853 4.8295 3.32951C4.61852 3.54049 4.5 3.82663 4.5 4.125V8.82C4.49485 11.3189 5.17486 13.7715 6.46609 15.9109C7.75732 18.0504 9.61036 19.795 11.8237 20.955ZM5.35983 3.85984C5.43016 3.78951 5.52554 3.75 5.625 3.75H18.375C18.4745 3.75 18.5698 3.78951 18.6402 3.85984C18.7105 3.93017 18.75 4.02554 18.75 4.125V8.82C18.7544 11.1487 18.1295 13.4353 16.9413 15.438C15.7531 17.4407 14.0459 19.0852 12 20.1975C9.95361 19.0858 8.24589 17.4415 7.05763 15.4386C5.86937 13.4357 5.24478 11.1488 5.25 8.82V4.125C5.25 4.02554 5.28951 3.93017 5.35983 3.85984ZM9.72756 13.275C9.93738 13.4792 10.2185 13.5935 10.5113 13.5937C10.801 13.5926 11.079 13.4797 11.2876 13.2787L16.3801 8.53122C16.445 8.46185 16.4811 8.37043 16.4812 8.27543C16.4814 8.18042 16.4454 8.08892 16.3806 8.0194C16.3159 7.94988 16.2272 7.90753 16.1324 7.90091C16.0376 7.89428 15.9439 7.92389 15.8701 7.98373L10.7701 12.7425C10.7005 12.8079 10.6086 12.8443 10.5132 12.8443C10.4177 12.8443 10.3259 12.8079 10.2563 12.7425L8.89131 11.3625C8.82001 11.3005 8.72795 11.2677 8.63353 11.2707C8.53911 11.2736 8.44928 11.3121 8.38201 11.3784C8.31473 11.4448 8.27497 11.534 8.27067 11.6284C8.26637 11.7228 8.29785 11.8153 8.35881 11.8875L9.72756 13.275Z" fill="black"/>
</svg>
