<svg width="64" height="64" viewBox="0 0 64 64" fill="none" xmlns="http://www.w3.org/2000/svg">
<path fill-rule="evenodd" clip-rule="evenodd" d="M52.0049 17.2508C51.883 17.1993 51.7726 17.1242 51.68 17.0297C47.1646 12.5297 41.0497 10.003 34.675 10.003C28.3002 10.003 22.1853 12.5297 17.67 17.0297C17.483 17.218 17.2289 17.3243 16.9635 17.3252C16.6982 17.3262 16.4433 17.2216 16.255 17.0347C16.0667 16.8477 15.9604 16.5936 15.9594 16.3282C15.9585 16.0629 16.063 15.808 16.25 15.6197C21.1409 10.7411 27.7669 8.00146 34.675 8.00146C41.583 8.00146 48.2091 10.7411 53.1 15.6197C53.241 15.7595 53.3372 15.9382 53.3763 16.133C53.4153 16.3277 53.3955 16.5297 53.3194 16.7132C53.2432 16.8966 53.1141 17.0532 52.9486 17.163C52.7831 17.2728 52.5886 17.3308 52.39 17.3297C52.2577 17.3291 52.1268 17.3023 52.0049 17.2508ZM23.01 23.6798C22.9271 23.7495 22.8447 23.8188 22.77 23.8997C22.707 23.9346 22.6398 23.9615 22.57 23.9797L22.45 24.0597C22.326 24.11 22.1938 24.1372 22.06 24.1397C21.9435 24.1363 21.8284 24.1126 21.72 24.0697L21.61 24.0197C21.558 23.997 21.5079 23.9702 21.46 23.9397C21.46 23.9147 21.475 23.9022 21.4825 23.8959C21.4852 23.8937 21.4869 23.8923 21.4867 23.8913C21.4862 23.8897 21.4794 23.8897 21.4601 23.8897H21.46C21.43 23.8897 21.435 23.8972 21.4375 23.9009C21.4381 23.9018 21.4386 23.9025 21.4384 23.9028C21.4378 23.9038 21.4306 23.9011 21.4 23.8897L21.4 23.8897C21.32 23.8597 21.32 23.7797 21.32 23.7797C21.2774 23.729 21.2436 23.6716 21.22 23.6097C21.1907 23.5556 21.1673 23.4986 21.15 23.4397C21.146 23.3764 21.146 23.3129 21.15 23.2497C21.1401 23.1867 21.1401 23.1226 21.15 23.0597C21.1405 23 21.1405 22.9393 21.15 22.8797C21.1697 22.8119 21.2001 22.7478 21.24 22.6897C21.2417 22.653 21.2417 22.6163 21.24 22.5797L21.33 22.4797L21.46 22.3597C21.8683 21.9495 22.299 21.5623 22.75 21.1997C22.804 21.1517 22.858 21.1145 22.912 21.0773L22.912 21.0773C22.948 21.0525 22.984 21.0277 23.02 20.9997C23.4259 20.6665 23.8499 20.356 24.29 20.0697L24.37 20.0097C27.4339 18.0043 31.0182 16.9405 34.68 16.9497C38.3912 16.9206 42.0278 17.9924 45.13 20.0297C45.2486 20.1193 45.3666 20.2075 45.4836 20.2951L45.4836 20.2951C45.8106 20.5398 46.1307 20.7793 46.44 21.0297L46.66 21.1997C47.1569 21.5995 47.6309 22.0268 48.08 22.4797C48.1733 22.5729 48.2472 22.6836 48.2977 22.8054C48.3481 22.9272 48.3741 23.0578 48.3741 23.1897C48.3741 23.3215 48.3481 23.4521 48.2977 23.5739C48.2472 23.6957 48.1733 23.8064 48.08 23.8997C47.9868 23.9929 47.8761 24.0669 47.7543 24.1173C47.6324 24.1678 47.5019 24.1938 47.37 24.1938C47.2382 24.1938 47.1076 24.1678 46.9858 24.1173C46.864 24.0669 46.7533 23.9929 46.66 23.8997C46.2561 23.4954 45.8323 23.1116 45.39 22.7497C45.3109 22.6841 45.2273 22.6239 45.14 22.5697C44.7818 22.2732 44.4079 21.9961 44.02 21.7396L43.94 21.6897C41.2128 19.9284 38.0382 18.9849 34.7917 18.9708C31.5452 18.9566 28.3626 19.8723 25.62 21.6097L25.42 21.7297C25.08 21.9597 24.75 22.2097 24.42 22.4697C24.3737 22.5044 24.3259 22.5376 24.2777 22.5711L24.2777 22.5712L24.2777 22.5712L24.2777 22.5712L24.2777 22.5712C24.2011 22.6244 24.1237 22.6783 24.05 22.7396C23.7402 22.9895 23.4504 23.2693 23.1605 23.5492L23.16 23.5497C23.1109 23.595 23.0604 23.6375 23.01 23.6798ZM40.15 29.5396C40.3701 29.6881 40.6402 29.7431 40.9009 29.6925C41.1616 29.6418 41.3915 29.4898 41.54 29.2696C41.6885 29.0495 41.7435 28.7794 41.6929 28.5187C41.6422 28.258 41.4901 28.0281 41.27 27.8796C39.008 26.3661 36.2917 25.6824 33.5827 25.945C30.8738 26.2075 28.3393 27.3999 26.41 29.3196C26.3163 29.4126 26.2419 29.5232 26.1911 29.645C26.1403 29.7669 26.1142 29.8976 26.1142 30.0296C26.1142 30.1616 26.1403 30.2923 26.1911 30.4142C26.2419 30.5361 26.3163 30.6466 26.41 30.7396C26.5034 30.8323 26.6142 30.9056 26.7361 30.9554C26.8579 31.0052 26.9884 31.0304 27.12 31.0296C27.2516 31.0304 27.3821 31.0052 27.5039 30.9554C27.6257 30.9056 27.7366 30.8323 27.83 30.7396C29.4271 29.1443 31.5284 28.1526 33.7751 27.9338C36.0219 27.7149 38.275 28.2825 40.15 29.5396ZM35.4471 36.5367C35.2596 36.7242 35.0052 36.8296 34.74 36.8296C34.0558 36.8296 33.3995 37.1014 32.9157 37.5852C32.4319 38.0691 32.16 38.7253 32.16 39.4096C32.16 40.0938 32.4319 40.7501 32.9157 41.2339C33.3995 41.7178 34.0558 41.9896 34.74 41.9896C35.0052 41.9896 35.2596 42.0949 35.4471 42.2825C35.6347 42.47 35.74 42.7243 35.74 42.9896C35.74 43.2548 35.6347 43.5091 35.4471 43.6967C35.2596 43.8842 35.0052 43.9896 34.74 43.9896C33.5253 43.9896 32.3604 43.507 31.5015 42.6481C30.6426 41.7892 30.16 40.6243 30.16 39.4096C30.16 38.1949 30.6426 37.0299 31.5015 36.171C32.3604 35.3121 33.5253 34.8296 34.74 34.8296C35.0052 34.8296 35.2596 34.9349 35.4471 35.1225C35.6347 35.31 35.74 35.5644 35.74 35.8296C35.74 36.0948 35.6347 36.3491 35.4471 36.5367ZM62.16 46.5096C61.9094 46.4236 61.6348 46.4406 61.3967 46.5569C61.1586 46.6731 60.9764 46.8791 60.89 47.1296C60.1775 49.2302 58.7952 51.0387 56.9554 52.2777C55.1156 53.5167 52.92 54.1176 50.7057 53.9882C48.4914 53.8587 46.3808 53.0061 44.6979 51.5612C43.015 50.1162 41.8529 48.1589 41.39 45.9896H46C46.2652 45.9896 46.5196 45.8843 46.7071 45.6967C46.8946 45.5092 47 45.2548 47 44.9896C47 44.7244 46.8946 44.4701 46.7071 44.2825C46.5196 44.095 46.2652 43.9896 46 43.9896H39C38.7348 43.9896 38.4804 44.095 38.2929 44.2825C38.1054 44.4701 38 44.7244 38 44.9896V51.9896C38 52.2548 38.1054 52.5092 38.2929 52.6967C38.4804 52.8843 38.7348 52.9896 39 52.9896C39.2652 52.9896 39.5196 52.8843 39.7071 52.6967C39.8946 52.5092 40 52.2548 40 51.9896V48.3196C40.9128 50.6299 42.5124 52.6046 44.5828 53.9771C46.6533 55.3497 49.095 56.0541 51.5783 55.9952C54.0617 55.9363 56.4673 55.1171 58.4704 53.6479C60.4735 52.1788 61.9777 50.1306 62.78 47.7796C62.866 47.529 62.849 47.2545 62.7328 47.0164C62.6165 46.7782 62.4105 46.596 62.16 46.5096ZM62.2929 33.2825C62.4804 33.0949 62.7348 32.9896 63 32.9896C63.2652 32.9896 63.5196 33.0949 63.7071 33.2825C63.8946 33.47 64 33.7243 64 33.9896V40.9896C64 41.2548 63.8946 41.5091 63.7071 41.6967C63.5196 41.8842 63.2652 41.9896 63 41.9896H56C55.7348 41.9896 55.4804 41.8842 55.2929 41.6967C55.1054 41.5091 55 41.2548 55 40.9896C55 40.7243 55.1054 40.47 55.2929 40.2825C55.4804 40.0949 55.7348 39.9896 56 39.9896H60.61C60.1471 37.8203 58.985 35.863 57.3021 34.4181C55.6192 32.9731 53.5086 32.1205 51.2943 31.991C49.08 31.8616 46.8844 32.4625 45.0446 33.7015C43.2048 34.9405 41.8225 36.7491 41.11 38.8496C41.0169 39.0911 40.8337 39.2871 40.5991 39.3964C40.3644 39.5056 40.0965 39.5197 39.8517 39.4355C39.6069 39.3513 39.4043 39.1755 39.2865 38.945C39.1687 38.7145 39.1449 38.4473 39.22 38.1996C40.0223 35.8486 41.5265 33.8004 43.5296 32.3313C45.5327 30.8621 47.9383 30.0429 50.4216 29.984C52.905 29.9251 55.3467 30.6295 57.4172 32.0021C59.4876 33.3746 61.0872 35.3493 62 37.6596V33.9896C62 33.7243 62.1054 33.47 62.2929 33.2825Z" fill="black"/>
</svg>
