<svg width="24" height="24" viewBox="0 0 24 24" fill="none" xmlns="http://www.w3.org/2000/svg">
<path fill-rule="evenodd" clip-rule="evenodd" d="M1.07812 5.32031C1.07812 5.12615 1.23552 4.96875 1.42969 4.96875H16.1953C16.3895 4.96875 16.5469 5.12615 16.5469 5.32031V14.1094H1.07812V5.32031ZM0.375 14.4609V5.32031C0.375 4.73782 0.8472 4.26562 1.42969 4.26562H16.1953C16.7778 4.26562 17.25 4.73782 17.25 5.32031V14.4609V15.8672C17.25 16.4497 16.7778 16.9219 16.1953 16.9219H10.251C10.3497 17.684 10.6399 18.4099 11.0958 19.0312H11.9759C12.17 19.0312 12.3274 19.1887 12.3274 19.3828C12.3274 19.577 12.17 19.7344 11.9759 19.7344H10.926H10.9182H6.70675H6.69904H5.64774C5.45358 19.7344 5.29618 19.577 5.29618 19.3828C5.29618 19.1887 5.45358 19.0312 5.64774 19.0312H6.52917C6.98507 18.4099 7.27526 17.684 7.37404 16.9219H1.42969C0.8472 16.9219 0.375 16.4497 0.375 15.8672V14.4609ZM7.75707 16.2188H1.42969C1.23552 16.2188 1.07812 16.0613 1.07812 15.8672V14.8125H16.5469V15.8672C16.5469 16.0613 16.3895 16.2188 16.1953 16.2188H9.86792C9.86762 16.2188 9.86731 16.2188 9.867 16.2188H7.75799C7.75769 16.2188 7.75738 16.2188 7.75707 16.2188ZM8.08226 16.9219C7.99855 17.6689 7.75576 18.3881 7.37189 19.0312H10.2531C9.86924 18.3881 9.62645 17.6689 9.54274 16.9219H8.08226Z" fill="black"/>
</svg>
