<svg width="24" height="24" viewBox="0 0 24 24" fill="none" xmlns="http://www.w3.org/2000/svg">
<path fill-rule="evenodd" clip-rule="evenodd" d="M9.97125 16.8425C10.0202 16.8634 10.0723 16.8744 10.125 16.875C10.2174 16.8759 10.3069 16.8397 10.3762 16.7734L13.6462 13.625H16.875C17.7701 13.625 18.6285 13.2398 19.2615 12.5541C19.8944 11.8684 20.25 10.9384 20.25 9.96875V5.90625C20.25 4.93655 19.8944 4.00657 19.2615 3.32089C18.6285 2.63521 17.7701 2.25 16.875 2.25H9.375C8.47989 2.25 7.62145 2.63521 6.98851 3.32089C6.35558 4.00657 6 4.93655 6 5.90625V9.96875C6 10.9384 6.35558 11.8684 6.98851 12.5541C7.62145 13.2398 8.47989 13.625 9.375 13.625H9.75V16.4688C9.74943 16.5476 9.77004 16.6249 9.80932 16.6913C9.84861 16.7576 9.90487 16.8102 9.97125 16.8425ZM7.51885 3.89542C8.01113 3.36211 8.67881 3.0625 9.375 3.0625H16.875C17.5712 3.0625 18.2389 3.36211 18.7312 3.89542C19.2234 4.42873 19.5 5.15204 19.5 5.90625V9.96875C19.5 10.723 19.2234 11.4463 18.7312 11.9796C18.2389 12.5129 17.5712 12.8125 16.875 12.8125H13.5C13.4071 12.8128 13.3175 12.8504 13.2488 12.9181L10.5 15.5669V13.2188C10.5 13.111 10.4605 13.0077 10.3902 12.9315C10.3198 12.8553 10.2245 12.8125 10.125 12.8125H9.375C8.67881 12.8125 8.01113 12.5129 7.51885 11.9796C7.02656 11.4463 6.75 10.723 6.75 9.96875V5.90625C6.75 5.15204 7.02656 4.42873 7.51885 3.89542ZM20.481 21.7198C20.5267 21.7401 20.5756 21.7503 20.625 21.75C20.6737 21.7501 20.722 21.7404 20.7675 21.7216C20.8366 21.6908 20.8956 21.6384 20.937 21.5711C20.9784 21.5038 21.0004 21.4246 21 21.3438V19.3125H21.75C22.3467 19.3125 22.919 19.0557 23.341 18.5986C23.7629 18.1415 24 17.5215 24 16.875V14.4375C24 13.791 23.7629 13.171 23.341 12.7139C22.919 12.2568 22.3467 12 21.75 12H21.375C21.2755 12 21.1802 12.0428 21.1098 12.119C21.0395 12.1952 21 12.2985 21 12.4062C21 12.514 21.0395 12.6173 21.1098 12.6935C21.1802 12.7697 21.2755 12.8125 21.375 12.8125H21.75C22.1478 12.8125 22.5294 12.9837 22.8107 13.2885C23.092 13.5932 23.25 14.0065 23.25 14.4375V16.875C23.25 17.306 23.092 17.7193 22.8107 18.024C22.5294 18.3288 22.1478 18.5 21.75 18.5H20.625C20.5255 18.5 20.4302 18.5428 20.3598 18.619C20.2895 18.6952 20.25 18.7985 20.25 18.9063V20.3647L18.6375 18.6219C18.5683 18.5453 18.4739 18.5015 18.375 18.5H16.5C16.1022 18.5 15.7206 18.3288 15.4393 18.024C15.158 17.7193 15 17.306 15 16.875V15.6562C15 15.5485 14.9605 15.4452 14.8902 15.369C14.8198 15.2928 14.7245 15.25 14.625 15.25C14.5255 15.25 14.4302 15.2928 14.3598 15.369C14.2895 15.4452 14.25 15.5485 14.25 15.6562V16.875C14.25 17.5215 14.4871 18.1415 14.909 18.5986C15.331 19.0557 15.9033 19.3125 16.5 19.3125H18.2175L20.3588 21.6322C20.3938 21.6698 20.4353 21.6996 20.481 21.7198Z" fill="black"/>
</svg>
