<svg width="24" height="24" viewBox="0 0 24 24" fill="none" xmlns="http://www.w3.org/2000/svg">
<path fill-rule="evenodd" clip-rule="evenodd" d="M3.97125 16.8425C4.02024 16.8634 4.07235 16.8744 4.125 16.875C4.21744 16.8759 4.30692 16.8397 4.37625 16.7734L7.64625 13.625H10.875C11.7701 13.625 12.6285 13.2398 13.2615 12.5541C13.8944 11.8684 14.25 10.9384 14.25 9.96875V5.90625C14.25 4.93655 13.8944 4.00657 13.2615 3.32089C12.6285 2.63521 11.7701 2.25 10.875 2.25H3.375C2.47989 2.25 1.62145 2.63521 0.988515 3.32089C0.35558 4.00657 0 4.93655 0 5.90625V9.96875C0 10.9384 0.35558 11.8684 0.988515 12.5541C1.62145 13.2398 2.47989 13.625 3.375 13.625H3.75V16.4688C3.74942 16.5476 3.77004 16.6249 3.80932 16.6913C3.84861 16.7576 3.90487 16.8102 3.97125 16.8425ZM1.51885 3.89542C2.01113 3.36211 2.67881 3.0625 3.375 3.0625H10.875C11.5712 3.0625 12.2389 3.36211 12.7312 3.89542C13.2234 4.42873 13.5 5.15204 13.5 5.90625V9.96875C13.5 10.723 13.2234 11.4463 12.7312 11.9796C12.2389 12.5129 11.5712 12.8125 10.875 12.8125H7.5C7.40706 12.8128 7.31752 12.8504 7.24875 12.9181L4.5 15.5669V13.2188C4.5 13.111 4.46049 13.0077 4.39017 12.9315C4.31984 12.8553 4.22446 12.8125 4.125 12.8125H3.375C2.67881 12.8125 2.01113 12.5129 1.51885 11.9796C1.02656 11.4463 0.75 10.723 0.75 9.96875V5.90625C0.75 5.15204 1.02656 4.42873 1.51885 3.89542ZM14.481 21.7198C14.5267 21.7401 14.5756 21.7503 14.625 21.75C14.6737 21.7501 14.722 21.7404 14.7675 21.7216C14.8366 21.6908 14.8956 21.6384 14.937 21.5711C14.9784 21.5038 15.0004 21.4246 15 21.3438V19.3125H15.75C16.3467 19.3125 16.919 19.0557 17.341 18.5986C17.7629 18.1415 18 17.5215 18 16.875V14.4375C18 13.791 17.7629 13.171 17.341 12.7139C16.919 12.2568 16.3467 12 15.75 12H15.375C15.2755 12 15.1802 12.0428 15.1098 12.119C15.0395 12.1952 15 12.2985 15 12.4062C15 12.514 15.0395 12.6173 15.1098 12.6935C15.1802 12.7697 15.2755 12.8125 15.375 12.8125H15.75C16.1478 12.8125 16.5294 12.9837 16.8107 13.2885C17.092 13.5932 17.25 14.0065 17.25 14.4375V16.875C17.25 17.306 17.092 17.7193 16.8107 18.024C16.5294 18.3288 16.1478 18.5 15.75 18.5H14.625C14.5255 18.5 14.4302 18.5428 14.3598 18.619C14.2895 18.6952 14.25 18.7985 14.25 18.9063V20.3647L12.6375 18.6219C12.5683 18.5453 12.4739 18.5015 12.375 18.5H10.5C10.1022 18.5 9.72064 18.3288 9.43934 18.024C9.15803 17.7193 9 17.306 9 16.875V15.6562C9 15.5485 8.96049 15.4452 8.89017 15.369C8.81984 15.2928 8.72446 15.25 8.625 15.25C8.52554 15.25 8.43016 15.2928 8.35983 15.369C8.28951 15.4452 8.25 15.5485 8.25 15.6562V16.875C8.25 17.5215 8.48705 18.1415 8.90901 18.5986C9.33097 19.0557 9.90326 19.3125 10.5 19.3125H12.2175L14.3588 21.6322C14.3938 21.6698 14.4353 21.6996 14.481 21.7198Z" fill="black"/>
</svg>
