<svg width="24" height="24" viewBox="0 0 24 24" fill="none" xmlns="http://www.w3.org/2000/svg">
<path fill-rule="evenodd" clip-rule="evenodd" d="M15.375 3H22.125C22.6223 3 23.0992 3.19755 23.4508 3.54918C23.8025 3.90081 24 4.37772 24 4.875V19.125C24 19.6223 23.8025 20.0992 23.4508 20.4508C23.0992 20.8025 22.6223 21 22.125 21H15.375C14.8777 21 14.4008 20.8025 14.0492 20.4508C13.6975 20.0992 13.5 19.6223 13.5 19.125V4.875C13.5 4.37772 13.6975 3.90081 14.0492 3.54918C14.4008 3.19755 14.8777 3 15.375 3ZM22.125 3.75H15.375C15.0766 3.75 14.7905 3.86853 14.5795 4.07951C14.3685 4.29049 14.25 4.57663 14.25 4.875V17.25H23.25V4.875C23.25 4.57663 23.1315 4.29049 22.9205 4.07951C22.7095 3.86853 22.4234 3.75 22.125 3.75ZM14.5795 19.9205C14.7905 20.1315 15.0766 20.25 15.375 20.25H22.125C22.4234 20.25 22.7095 20.1315 22.9205 19.9205C23.1315 19.7095 23.25 19.4234 23.25 19.125V18H14.25V19.125C14.25 19.4234 14.3685 19.7095 14.5795 19.9205ZM19.3125 19.125C19.3125 19.4357 19.0607 19.6875 18.75 19.6875C18.4393 19.6875 18.1875 19.4357 18.1875 19.125C18.1875 18.8143 18.4393 18.5625 18.75 18.5625C19.0607 18.5625 19.3125 18.8143 19.3125 19.125Z" fill="black"/>
</svg>
