<svg width="24" height="24" viewBox="0 0 24 24" fill="none" xmlns="http://www.w3.org/2000/svg">
<path fill-rule="evenodd" clip-rule="evenodd" d="M9.56625 15.5658H9.46875C9.41784 15.5491 9.37107 15.5218 9.33162 15.4856C9.29216 15.4493 9.26093 15.4051 9.24001 15.3558C8.94751 14.8533 8.82376 13.9795 9.90001 12.682C10.5533 11.9186 11.3273 11.2675 12.1913 10.7545C12.5109 10.5841 12.8825 10.5386 13.2338 10.627C13.2333 10.3532 13.2871 10.082 13.392 9.82902C13.4969 9.57607 13.6509 9.34641 13.845 9.15328C13.9762 9.02662 14.1237 8.91815 14.2837 8.83078C14.0292 8.57182 13.8819 8.22626 13.8713 7.86328V3.36328C13.8713 3.26383 13.9108 3.16844 13.9811 3.09811C14.0514 3.02778 14.1468 2.98828 14.2463 2.98828C14.4668 2.99134 14.6843 3.03949 14.8855 3.12978C15.0868 3.22006 15.2674 3.35057 15.4163 3.51328C16.4063 4.50328 16.7588 6.64828 16.7588 7.85203C16.749 8.21556 16.6031 8.56218 16.35 8.82328C16.5108 8.91421 16.6595 9.02509 16.7925 9.15328C17.1769 9.53753 17.395 10.0573 17.4 10.6008C17.7586 10.5182 18.1353 10.5788 18.45 10.7695L22.3275 13.0195C22.4122 13.0691 22.4742 13.1498 22.5 13.2445C22.527 13.3403 22.5148 13.4428 22.4663 13.5295C22.1063 14.152 21.4312 14.3808 20.6587 14.3808C19.3678 14.2959 18.1145 13.9107 16.9988 13.2558H16.965C16.6653 13.0737 16.4425 12.7883 16.3388 12.4533C16.0271 12.6278 15.6759 12.7195 15.3188 12.7195C14.9488 12.7181 14.5861 12.6171 14.2688 12.427C14.1775 12.7758 13.9561 13.0764 13.65 13.267L9.75375 15.517C9.6966 15.5494 9.63195 15.5662 9.56625 15.5658ZM18.0938 11.437C17.9809 11.3685 17.8508 11.3333 17.7188 11.3358H17.7113C17.6108 11.3398 17.5124 11.3657 17.4231 11.4117C17.3337 11.4577 17.2554 11.5226 17.1938 11.602C17.1601 11.6711 17.1212 11.7376 17.0775 11.8008C17.0257 11.9513 17.0272 12.1151 17.0819 12.2646C17.1365 12.4141 17.2409 12.5403 17.3775 12.622C18.675 13.372 20.7225 13.942 21.5663 13.4395L18.0938 11.437ZM14.8988 4.06453C14.8202 3.98459 14.7305 3.91638 14.6325 3.86203L14.6363 7.87078C14.6442 8.05175 14.7222 8.22255 14.8538 8.34703C14.9185 8.41143 14.996 8.46167 15.0812 8.49459C15.1664 8.52751 15.2575 8.54239 15.3488 8.53828C15.526 8.53265 15.6944 8.45973 15.8198 8.33434C15.9452 8.20896 16.0181 8.04052 16.0238 7.86328C16.0238 6.76078 15.675 4.84078 14.8988 4.06453ZM14.0967 10.1355C14.0296 10.2972 13.995 10.4706 13.995 10.6458L13.9988 10.6495C13.9988 10.8244 14.0332 10.9975 14.1001 11.159C14.167 11.3205 14.2651 11.4672 14.3887 11.5909C14.5123 11.7145 14.659 11.8125 14.8206 11.8794C14.9821 11.9463 15.1552 11.9808 15.33 11.9808C15.5453 11.9805 15.7572 11.9282 15.9479 11.8283C16.1386 11.7284 16.3023 11.5839 16.425 11.407C16.4415 11.366 16.4603 11.3259 16.4813 11.287C16.495 11.2662 16.5101 11.2461 16.5263 11.227C16.6132 11.0468 16.6593 10.8496 16.6613 10.6495C16.6618 10.4744 16.6277 10.3009 16.561 10.1389C16.4943 9.97698 16.3963 9.82978 16.2727 9.70577C16.149 9.58175 16.0021 9.48336 15.8403 9.41622C15.6786 9.34909 15.5051 9.31453 15.33 9.31453C15.1549 9.31404 14.9813 9.34811 14.8194 9.41479C14.6575 9.48147 14.5103 9.57945 14.3862 9.70311C14.2622 9.82678 14.1638 9.9737 14.0967 10.1355ZM12.5663 11.4445C11.7839 11.911 11.0823 12.5011 10.4888 13.192H10.4813C10.1925 13.5408 9.78376 14.1295 9.79126 14.6358L13.2637 12.637C13.3888 12.5556 13.4842 12.436 13.5359 12.296C13.5875 12.1561 13.5927 12.0032 13.5506 11.86C13.5085 11.7169 13.4214 11.5911 13.3021 11.5014C13.1829 11.4117 13.038 11.3628 12.8887 11.362C12.776 11.3622 12.6652 11.3905 12.5663 11.4445ZM17.5725 20.2607H23.625C23.7245 20.2607 23.8198 20.3002 23.8902 20.3706C23.9605 20.4409 24 20.5363 24 20.6357C24 20.7352 23.9605 20.8305 23.8902 20.9009C23.8198 20.9712 23.7245 21.0107 23.625 21.0107H6.375C6.27554 21.0107 6.18017 20.9712 6.10984 20.9009C6.03951 20.8305 6 20.7352 6 20.6357C6 20.5363 6.03951 20.4409 6.10984 20.3706C6.18017 20.3002 6.27554 20.2607 6.375 20.2607H13.1775L14.1413 13.8332C14.1486 13.7844 14.1655 13.7376 14.1909 13.6953C14.2164 13.6531 14.2499 13.6163 14.2896 13.587C14.3294 13.5578 14.3745 13.5366 14.4223 13.5248C14.4702 13.513 14.52 13.5108 14.5688 13.5182C14.6175 13.5255 14.6644 13.5424 14.7066 13.5679C14.7489 13.5933 14.7857 13.6269 14.8149 13.6666C14.8442 13.7063 14.8654 13.7514 14.8772 13.7993C14.889 13.8472 14.8912 13.897 14.8838 13.9457L13.935 20.2607H16.815L15.8662 13.9382C15.8588 13.8895 15.861 13.8397 15.8729 13.7918C15.8847 13.7439 15.9058 13.6988 15.9351 13.6591C15.9643 13.6194 16.0011 13.5858 16.0434 13.5604C16.0856 13.5349 16.1325 13.518 16.1813 13.5107C16.23 13.5033 16.2798 13.5055 16.3277 13.5173C16.3756 13.5291 16.4206 13.5503 16.4604 13.5795C16.5001 13.6088 16.5336 13.6456 16.5591 13.6878C16.5845 13.7301 16.6014 13.7769 16.6088 13.8257L17.5725 20.2607Z" fill="black"/>
</svg>
