<svg width="64" height="64" viewBox="0 0 64 64" fill="none" xmlns="http://www.w3.org/2000/svg">
<path d="M46.2001 14.6569C46.1523 14.3401 46.0269 14.04 45.835 13.7835C45.643 13.527 45.3905 13.322 45.1001 13.1869C44.802 13.0205 44.4664 12.9331 44.1251 12.9331C43.7837 12.9331 43.4481 13.0205 43.1501 13.1869C38.5806 15.9858 33.2718 17.3383 27.9201 17.0669C16.2101 17.0669 11.0101 21.6369 10.3701 22.2469C7.49682 24.3917 5.42723 27.4394 4.49334 30.9012C3.55945 34.3629 3.81537 38.038 5.22006 41.3369L0.350061 45.4869C0.25025 45.5722 0.168243 45.6764 0.108697 45.7935C0.0491514 45.9105 0.0132446 46.0381 0.00302996 46.1691C-0.00718462 46.3 0.00848553 46.4317 0.0491573 46.5565C0.089829 46.6814 0.15471 46.797 0.240075 46.8969C0.333962 47.0066 0.450507 47.0948 0.581704 47.1552C0.712901 47.2156 0.855629 47.2469 1.00007 47.2469C1.23715 47.2497 1.46751 47.1682 1.65006 47.0169L6.15008 43.1669C6.83215 44.3328 7.65868 45.408 8.61007 46.3669C10.0903 47.86 11.8522 49.0443 13.7937 49.8511C15.7352 50.6579 17.8176 51.0712 19.9201 51.0669C23.9442 51.003 27.888 49.9302 31.3901 47.9469C48.8201 38.3469 47.1301 20.0669 46.2001 14.6569ZM30.4101 46.1969C27.2074 48.0132 23.6013 48.9998 19.9201 49.0669C17.4229 49.0635 14.972 48.3923 12.8216 47.1228C10.6712 45.8533 8.89941 44.0317 7.69006 41.8469L9.39007 40.4069C14.3935 36.5526 20.0998 33.7097 26.1901 32.0369C26.446 31.9653 26.663 31.7949 26.7934 31.5633C26.9237 31.3317 26.9567 31.0578 26.8851 30.8018C26.8135 30.5459 26.6431 30.3289 26.4115 30.1986C26.1799 30.0682 25.906 30.0353 25.6501 30.1069C19.3004 31.8613 13.3508 34.8294 8.13006 38.8469L6.83007 39.9669C5.76752 37.1198 5.6602 34.0043 6.52432 31.0908C7.38843 28.1774 9.17705 25.6242 11.6201 23.8169L11.7301 23.7169C11.7301 23.7169 16.5201 19.0669 27.8401 19.0669C33.5865 19.3559 39.2898 17.9362 44.2301 14.9869C45.1001 20.0669 46.7001 37.2369 30.4101 46.1969V46.1969Z" fill="black"/>
</svg>
