<svg width="24" height="24" viewBox="0 0 24 24" fill="none" xmlns="http://www.w3.org/2000/svg">
<path fill-rule="evenodd" clip-rule="evenodd" d="M20.3813 3.40875L23.7338 7.48874C23.9017 7.68713 23.9958 7.93758 24 8.19749V19.875C24 20.1734 23.8815 20.4595 23.6705 20.6705C23.4595 20.8815 23.1734 21 22.875 21H11.625C11.3266 21 11.0405 20.8815 10.8295 20.6705C10.6185 20.4595 10.5 20.1734 10.5 19.875V4.125C10.5 3.82663 10.6185 3.54048 10.8295 3.3295C11.0405 3.11852 11.3266 3 11.625 3H19.515C19.6806 3.00019 19.8441 3.03692 19.9938 3.10757C20.1435 3.17823 20.2758 3.28107 20.3813 3.40875ZM23.1327 20.1289C23.203 20.0586 23.2425 19.9632 23.2425 19.8637V8.19374C23.2418 8.10741 23.2113 8.02396 23.1562 7.95749L19.8037 3.87374C19.7681 3.83092 19.7233 3.79658 19.6727 3.77323C19.6221 3.74988 19.567 3.73809 19.5112 3.73874H17.9925V6.36374C17.9925 6.4632 17.953 6.55858 17.8827 6.62891C17.8123 6.69924 17.717 6.73874 17.6175 6.73874C17.518 6.73874 17.4227 6.69924 17.3523 6.62891C17.282 6.55858 17.2425 6.4632 17.2425 6.36374V3.73874H15.7425V6.36374C15.7425 6.4632 15.703 6.55858 15.6327 6.62891C15.5623 6.69924 15.467 6.73874 15.3675 6.73874C15.268 6.73874 15.1727 6.69924 15.1023 6.62891C15.032 6.55858 14.9925 6.4632 14.9925 6.36374V3.73874H13.4925V6.36374C13.4925 6.4632 13.453 6.55858 13.3827 6.62891C13.3123 6.69924 13.217 6.73874 13.1175 6.73874C13.018 6.73874 12.9227 6.69924 12.8523 6.62891C12.782 6.55858 12.7425 6.4632 12.7425 6.36374V3.73874H11.6175C11.518 3.73874 11.4227 3.77825 11.3523 3.84858C11.282 3.91891 11.2425 4.01428 11.2425 4.11374V19.8637C11.2425 19.9632 11.282 20.0586 11.3523 20.1289C11.4227 20.1992 11.518 20.2387 11.6175 20.2387H22.8675C22.967 20.2387 23.0623 20.1992 23.1327 20.1289ZM14.625 11.25H19.875C20.3723 11.25 20.8492 11.4475 21.2008 11.7992C21.5525 12.1508 21.75 12.6277 21.75 13.125V16.875C21.75 17.3723 21.5525 17.8492 21.2008 18.2008C20.8492 18.5525 20.3723 18.75 19.875 18.75H14.625C14.1277 18.75 13.6508 18.5525 13.2992 18.2008C12.9475 17.8492 12.75 17.3723 12.75 16.875V13.125C12.75 12.6277 12.9475 12.1508 13.2992 11.7992C13.6508 11.4475 14.1277 11.25 14.625 11.25ZM15 14.25H13.5V15.75H15V14.25ZM18.75 12H15.75V18H18.75V12ZM21 14.25H19.5V15.75H21V14.25ZM21 13.5V13.125C21 12.8266 20.8815 12.5405 20.6705 12.3295C20.4595 12.1185 20.1734 12 19.875 12H19.5V13.5H21ZM15 12H14.625C14.3266 12 14.0405 12.1185 13.8295 12.3295C13.6185 12.5405 13.5 12.8266 13.5 13.125V13.5H15V12ZM13.5 16.5V16.875C13.5 17.1734 13.6185 17.4595 13.8295 17.6705C14.0405 17.8815 14.3266 18 14.625 18H15V16.5H13.5ZM19.5 18H19.875C20.1734 18 20.4595 17.8815 20.6705 17.6705C20.8815 17.4595 21 17.1734 21 16.875V16.5H19.5V18Z" fill="black"/>
</svg>
