<svg width="24" height="24" viewBox="0 0 24 24" fill="none" xmlns="http://www.w3.org/2000/svg">
<path fill-rule="evenodd" clip-rule="evenodd" d="M3.01542 15.75H13.5004C13.7988 15.75 14.0849 15.6315 14.2959 15.4205C14.5069 15.2095 14.6254 14.9234 14.6254 14.625C14.6254 14.3267 14.5069 14.0405 14.2959 13.8295C14.0849 13.6185 13.7988 13.5 13.5004 13.5H2.67042C2.51326 13.497 2.36101 13.4447 2.23518 13.3505C2.10935 13.2563 2.0163 13.125 1.96917 12.975L0.799171 9.22502C0.776984 9.15207 0.765611 9.07627 0.765419 9.00002C0.765261 8.80197 0.843449 8.61189 0.98292 8.47127C1.05269 8.40108 1.13566 8.3454 1.22706 8.30742C1.31845 8.26945 1.41645 8.24994 1.51542 8.25002H14.3442C14.62 8.25212 14.887 8.15283 15.0944 7.971C15.3018 7.78917 15.4352 7.53749 15.4692 7.26377L15.7204 5.25002H17.6292C17.7286 5.25002 17.824 5.21051 17.8943 5.14018C17.9647 5.06985 18.0042 4.97448 18.0042 4.87502C18.0042 4.77556 17.9647 4.68017 17.8943 4.60985C17.824 4.53952 17.7286 4.50002 17.6292 4.50002H15.7129C15.5287 4.49869 15.3504 4.56523 15.212 4.68696C15.0737 4.80869 14.985 4.97708 14.9629 5.16001L14.7117 7.17002C14.7006 7.26148 14.6563 7.34568 14.5871 7.40654C14.5179 7.46741 14.4288 7.50069 14.3367 7.50002H1.49667C1.26177 7.50054 1.03027 7.55622 0.820828 7.66258C0.611384 7.76894 0.429846 7.923 0.290838 8.11236C0.151831 8.30172 0.0592367 8.52108 0.0205174 8.75277C-0.0182019 8.98446 -0.00196529 9.222 0.0679188 9.44627L1.23792 13.1963C1.3331 13.5017 1.52346 13.7687 1.78118 13.9583C2.0389 14.1479 2.35048 14.2501 2.67042 14.25H13.5154C13.6149 14.25 13.7103 14.2895 13.7806 14.3598C13.8509 14.4302 13.8904 14.5256 13.8904 14.625C13.8904 14.7245 13.8509 14.8199 13.7806 14.8902C13.7103 14.9605 13.6149 15 13.5154 15H3.01542C2.91596 15 2.82058 15.0395 2.75025 15.1098C2.67993 15.1802 2.64042 15.2756 2.64042 15.375C2.64042 15.4745 2.67993 15.5699 2.75025 15.6402C2.82058 15.7105 2.91596 15.75 3.01542 15.75ZM14.2542 12.735H14.2954C14.3882 12.7366 14.4783 12.7038 14.5482 12.6428C14.6182 12.5819 14.6631 12.4971 14.6742 12.405L15.0042 9.40501C15.0151 9.30556 14.9861 9.20583 14.9235 9.12777C14.8609 9.04971 14.7699 8.99971 14.6704 8.98877C14.571 8.97783 14.4712 9.00685 14.3932 9.06944C14.3151 9.13203 14.2651 9.22306 14.2542 9.32251L13.9242 12.3225C13.9136 12.4209 13.9424 12.5195 14.0042 12.5967C14.066 12.674 14.1559 12.7237 14.2542 12.735ZM4.51543 19.5C4.21876 19.5 3.92875 19.412 3.68207 19.2472C3.4354 19.0824 3.24314 18.8481 3.12961 18.574C3.01608 18.3 2.98637 17.9984 3.04425 17.7074C3.10213 17.4164 3.24499 17.1491 3.45477 16.9394C3.66455 16.7296 3.93182 16.5867 4.22279 16.5288C4.51376 16.471 4.81537 16.5007 5.08945 16.6142C5.36354 16.7277 5.59781 16.92 5.76263 17.1667C5.92746 17.4133 6.01543 17.7033 6.01543 18C6.01543 18.3978 5.85739 18.7794 5.57609 19.0607C5.29478 19.342 4.91325 19.5 4.51543 19.5ZM4.51543 17.25C4.36709 17.25 4.22209 17.294 4.09875 17.3764C3.97541 17.4588 3.87928 17.576 3.82252 17.713C3.76575 17.85 3.7509 18.0008 3.77984 18.1463C3.80878 18.2918 3.88021 18.4255 3.9851 18.5303C4.08999 18.6352 4.22362 18.7067 4.36911 18.7356C4.5146 18.7645 4.6654 18.7497 4.80244 18.6929C4.93948 18.6362 5.05662 18.54 5.13903 18.4167C5.22144 18.2934 5.26543 18.1484 5.26543 18C5.26543 17.8011 5.18641 17.6103 5.04576 17.4697C4.90511 17.329 4.71434 17.25 4.51543 17.25ZM11.7048 19.0607C11.9861 19.342 12.3676 19.5 12.7654 19.5C13.1633 19.5 13.5448 19.342 13.8261 19.0607C14.1074 18.7794 14.2654 18.3978 14.2654 18C14.2654 17.6022 14.1074 17.2207 13.8261 16.9394C13.5448 16.6581 13.1633 16.5 12.7654 16.5C12.3676 16.5 11.9861 16.6581 11.7048 16.9394C11.4235 17.2207 11.2654 17.6022 11.2654 18C11.2654 18.3978 11.4235 18.7794 11.7048 19.0607ZM12.2351 17.4697C12.3757 17.329 12.5665 17.25 12.7654 17.25C12.9643 17.25 13.1551 17.329 13.2958 17.4697C13.4364 17.6103 13.5154 17.8011 13.5154 18C13.5154 18.1989 13.4364 18.3897 13.2958 18.5304C13.1551 18.671 12.9643 18.75 12.7654 18.75C12.5665 18.75 12.3757 18.671 12.2351 18.5304C12.0944 18.3897 12.0154 18.1989 12.0154 18C12.0154 17.8011 12.0944 17.6103 12.2351 17.4697Z" fill="black"/>
</svg>
