<svg width="24" height="24" viewBox="0 0 24 24" fill="none" xmlns="http://www.w3.org/2000/svg">
<g clip-path="url(#clip0_914_2831)">
<path fill-rule="evenodd" clip-rule="evenodd" d="M23.25 11.0625V10.6875C23.25 8.89729 22.5388 7.18041 21.273 5.91454C20.0071 4.64866 18.2902 3.9375 16.5 3.9375C14.7098 3.9375 12.9929 4.64866 11.727 5.91454C10.4612 7.18041 9.75 8.89729 9.75 10.6875V11.0625C10.0726 10.8205 10.467 10.6875 10.875 10.6875H12.375C12.4745 10.6875 12.5698 10.727 12.6402 10.7973C12.7105 10.8677 12.75 10.963 12.75 11.0625V16.3125C12.75 16.412 12.7105 16.5073 12.6402 16.5777C12.5698 16.648 12.4745 16.6875 12.375 16.6875H10.875C10.3777 16.6875 9.90081 16.49 9.54918 16.1383C9.19755 15.7867 9 15.3098 9 14.8125V12.5625V10.6875C9 8.69838 9.79018 6.79073 11.1967 5.3842C12.6032 3.97768 14.5109 3.1875 16.5 3.1875C18.4891 3.1875 20.3968 3.97768 21.8033 5.3842C23.2098 6.79073 24 8.69838 24 10.6875V12.5625C24 12.5631 24 12.5636 24 12.5642V14.8125V17.0625C24 18.6337 22.7925 19.6875 21 19.6875H19.8274C19.7609 19.9448 19.6267 20.1821 19.4357 20.3732C19.1544 20.6545 18.7728 20.8125 18.375 20.8125C18.0783 20.8125 17.7883 20.7245 17.5416 20.5597C17.295 20.3949 17.1027 20.1606 16.9892 19.8865C16.8756 19.6124 16.8459 19.3108 16.9038 19.0199C16.9617 18.7289 17.1046 18.4616 17.3143 18.2518C17.5241 18.0421 17.7914 17.8992 18.0824 17.8413C18.3733 17.7834 18.6749 17.8131 18.949 17.9267C19.2231 18.0402 19.4574 18.2325 19.6222 18.4791C19.7164 18.6201 19.7854 18.7751 19.8274 18.9375H21C22.0387 18.9375 23.25 18.4462 23.25 17.0625V16.3125C22.9274 16.5545 22.533 16.6875 22.125 16.6875H20.625C20.5255 16.6875 20.4302 16.648 20.3598 16.5777C20.2895 16.5073 20.25 16.412 20.25 16.3125V11.0625C20.25 10.963 20.2895 10.8677 20.3598 10.7973C20.4302 10.727 20.5255 10.6875 20.625 10.6875H22.125C22.533 10.6875 22.9274 10.8205 23.25 11.0625ZM9.75 12.5627V14.8125C9.75 15.1109 9.86853 15.397 10.0795 15.608C10.2905 15.819 10.5766 15.9375 10.875 15.9375H12V11.4375H10.875C10.5766 11.4375 10.2905 11.556 10.0795 11.767C9.86853 11.978 9.75 12.2641 9.75 12.5625C9.75 12.5626 9.75 12.5626 9.75 12.5627ZM23.25 12.5625V14.8125C23.25 15.1109 23.1315 15.397 22.9205 15.608C22.7095 15.819 22.4234 15.9375 22.125 15.9375H21V11.4375H22.125C22.4234 11.4375 22.7095 11.556 22.9205 11.767C23.1315 11.978 23.25 12.2641 23.25 12.5625ZM18.9053 18.7822C19.0457 18.9226 19.1247 19.113 19.125 19.3115L19.125 19.3125C19.125 19.4608 19.081 19.6058 18.9986 19.7292C18.9162 19.8525 18.7991 19.9486 18.662 20.0054C18.525 20.0622 18.3742 20.077 18.2287 20.0481C18.0832 20.0191 17.9496 19.9477 17.8447 19.8428C17.7398 19.7379 17.6683 19.6043 17.6394 19.4588C17.6105 19.3133 17.6253 19.1625 17.6821 19.0255C17.7389 18.8884 17.835 18.7713 17.9583 18.6889C18.0817 18.6065 18.2267 18.5625 18.375 18.5625C18.5739 18.5625 18.7647 18.6415 18.9053 18.7822Z" fill="black"/>
</g>
<defs>
<clipPath id="clip0_914_2831">
<rect width="24" height="24" fill="white"/>
</clipPath>
</defs>
</svg>
