<svg width="64" height="64" viewBox="0 0 64 64" fill="none" xmlns="http://www.w3.org/2000/svg">
<path fill-rule="evenodd" clip-rule="evenodd" d="M34.33 19.7H9.51999C9.25477 19.7 9.00042 19.5946 8.81288 19.4071C8.62535 19.2196 8.51999 18.9652 8.51999 18.7C8.51999 18.4348 8.62535 18.1804 8.81288 17.9929C9.00042 17.8054 9.25477 17.7 9.51999 17.7H34.33C34.8604 17.7 35.3691 17.4893 35.7442 17.1142C36.1193 16.7392 36.33 16.2305 36.33 15.7C36.33 15.334 36.1846 14.983 35.9258 14.7242C35.667 14.4654 35.316 14.32 34.95 14.32C34.7601 14.3212 34.5752 14.3806 34.42 14.49C34.2047 14.6324 33.9427 14.6862 33.6888 14.6398C33.4348 14.5935 33.2086 14.4508 33.0575 14.2416C32.9064 14.0323 32.842 13.7727 32.8779 13.5171C32.9138 13.2614 33.0471 13.0296 33.25 12.87C33.7403 12.5112 34.3324 12.3185 34.94 12.32C35.8364 12.32 36.6961 12.6761 37.33 13.31C37.9639 13.9439 38.32 14.8036 38.32 15.7C38.32 16.7592 37.8999 17.7751 37.152 18.5249C36.404 19.2748 35.3891 19.6974 34.33 19.7ZM49.52 28.71H9.51999C9.25477 28.71 9.00042 28.6047 8.81288 28.4171C8.62535 28.2296 8.51999 27.9752 8.51999 27.71C8.51999 27.4448 8.62535 27.1904 8.81288 27.0029C9.00042 26.8154 9.25477 26.71 9.51999 26.71H49.52C50.5809 26.71 51.5983 26.2886 52.3484 25.5384C53.0986 24.7883 53.52 23.7709 53.52 22.71C53.52 21.9143 53.2039 21.1513 52.6413 20.5887C52.0787 20.0261 51.3156 19.71 50.52 19.71C49.9365 19.71 49.3769 19.9418 48.9644 20.3544C48.5518 20.767 48.32 21.3265 48.32 21.91C48.32 22.1752 48.2146 22.4296 48.0271 22.6171C47.8396 22.8046 47.5852 22.91 47.32 22.91C47.0548 22.91 46.8004 22.8046 46.6129 22.6171C46.4253 22.4296 46.32 22.1752 46.32 21.91C46.3226 20.7969 46.766 19.7302 47.5531 18.9431C48.3401 18.156 49.4069 17.7126 50.52 17.71C51.8461 17.71 53.1178 18.2368 54.0555 19.1745C54.9932 20.1122 55.52 21.3839 55.52 22.71C55.52 24.3013 54.8879 25.8274 53.7626 26.9526C52.6374 28.0779 51.1113 28.71 49.52 28.71ZM30.7873 49.9226C31.9126 51.0479 33.4387 51.68 35.03 51.68C36.9405 51.68 38.7728 50.9218 40.1247 49.5718C41.4765 48.2218 42.2373 46.3905 42.24 44.48C42.24 42.1558 41.3174 39.9266 39.6748 38.2822C38.0323 36.6378 35.8042 35.7126 33.48 35.71H9.47998C9.21476 35.71 8.96041 35.8154 8.77287 36.0029C8.58534 36.1904 8.47998 36.4448 8.47998 36.71C8.47998 36.9752 8.58534 37.2296 8.77287 37.4171C8.96041 37.6047 9.21476 37.71 9.47998 37.71H33.48C35.2738 37.7126 36.9932 38.4271 38.2606 39.6964C39.5281 40.9657 40.24 42.6862 40.24 44.48C40.2373 45.8601 39.6873 47.1827 38.7105 48.1576C37.7337 49.1325 36.41 49.68 35.03 49.68C33.9691 49.68 32.9517 49.2586 32.2016 48.5084C31.4514 47.7583 31.03 46.7409 31.03 45.68C31.03 45.4148 30.9246 45.1604 30.7371 44.9729C30.5496 44.7854 30.2952 44.68 30.03 44.68C29.7648 44.68 29.5104 44.7854 29.3229 44.9729C29.1353 45.1604 29.03 45.4148 29.03 45.68C29.03 47.2713 29.6621 48.7974 30.7873 49.9226Z" fill="black"/>
</svg>
