<svg width="24" height="24" viewBox="0 0 24 24" fill="none" xmlns="http://www.w3.org/2000/svg">
<g clip-path="url(#clip0_914_3182)">
<path fill-rule="evenodd" clip-rule="evenodd" d="M11.0779 2.95996H14.6956C15.0537 2.96389 15.4028 3.07254 15.7 3.27246C15.9965 3.47197 16.2283 3.75369 16.3669 4.08303L17.1638 5.91674L18.7902 6.86171C18.9995 6.98606 19.1725 7.16318 19.2919 7.37533C19.411 7.58697 19.4726 7.82608 19.4706 8.0689V9.00977C19.4774 9.36949 19.3416 9.71736 19.0928 9.97745C18.8432 10.2385 18.5001 10.3898 18.1389 10.3981L18.131 10.3982H17.6219C17.5419 10.6874 17.3834 10.9514 17.1609 11.1591C16.8576 11.4422 16.4581 11.5997 16.0432 11.5997C15.6283 11.5997 15.2288 11.4422 14.9255 11.1591C14.6222 10.8759 14.4377 10.4882 14.4092 10.0743C14.396 9.88268 14.5407 9.71667 14.7323 9.70349C14.9239 9.69031 15.0899 9.83494 15.103 10.0265C15.1194 10.2647 15.2256 10.4878 15.4001 10.6507C15.5746 10.8136 15.8045 10.9042 16.0432 10.9042C16.2819 10.9042 16.5118 10.8136 16.6863 10.6507C16.8608 10.4878 16.967 10.2647 16.9834 10.0265C16.9959 9.84419 17.1475 9.70267 17.3303 9.70267H18.1266C18.3021 9.69772 18.4688 9.62376 18.5902 9.49675C18.7125 9.36888 18.7791 9.1977 18.7752 9.02081L18.7751 9.01327V8.06413C18.7763 7.94241 18.7455 7.82252 18.6858 7.71644C18.6263 7.6108 18.5403 7.52255 18.4363 7.46041L16.7157 6.46073C16.6516 6.42347 16.601 6.36668 16.5715 6.29865L15.7264 4.35419C15.6404 4.1491 15.4962 3.97365 15.3117 3.84949C15.1277 3.72566 14.9115 3.65823 14.6898 3.65544H11.0806C10.8259 3.65972 10.5798 3.74823 10.3807 3.9072C10.181 4.06666 10.0399 4.28797 9.97966 4.53634L9.97824 4.5422L9.53308 6.24786C9.51547 6.31533 9.47799 6.37595 9.42549 6.42184L8.29945 7.40636L8.2988 7.40694C8.22332 7.47387 8.16294 7.5561 8.12168 7.64816C8.0803 7.74049 8.0591 7.84058 8.05949 7.94176C8.06023 8.13381 7.90514 8.2901 7.71309 8.29084C7.52104 8.29158 7.36475 8.13649 7.36401 7.94444C7.36324 7.74432 7.40518 7.54633 7.48703 7.36371C7.56888 7.18109 7.68876 7.01803 7.83865 6.88544L7.84016 6.88411L8.88715 5.9687L9.30452 4.36934C9.40152 3.97237 9.62735 3.61871 9.94674 3.3637C10.267 3.10803 10.6631 2.96602 11.0728 2.96L11.0779 2.95996Z" fill="#000001"/>
<path fill-rule="evenodd" clip-rule="evenodd" d="M2.09549 10.5166C1.91207 10.5154 1.73022 10.5505 1.56041 10.6199C1.39061 10.6892 1.2362 10.7915 1.10608 10.9208C0.975957 11.0501 0.87269 11.2038 0.802222 11.3731C0.731755 11.5425 0.695479 11.7241 0.695483 11.9075V17.6531C0.695483 17.7861 0.72168 17.9178 0.772578 18.0407C0.823477 18.1636 0.898079 18.2752 0.992125 18.3693C1.08617 18.4633 1.19782 18.5379 1.3207 18.5888C1.44358 18.6397 1.57528 18.6659 1.70828 18.6659H2.04994C2.24199 18.6659 2.39768 18.8216 2.39768 19.0137V19.0251C2.40661 19.3774 2.55255 19.7123 2.80458 19.9587C3.05749 20.206 3.39713 20.3444 3.75083 20.3444C4.10452 20.3444 4.44417 20.206 4.69708 19.9587C4.9491 19.7123 5.09505 19.3774 5.10398 19.0251V19.0137C5.10398 18.8216 5.25967 18.6659 5.45172 18.6659H10.5583C10.7504 18.6659 10.906 18.8216 10.906 19.0137V19.0251C10.915 19.3774 11.0609 19.7123 11.3129 19.9587C11.5659 20.206 11.9055 20.3444 12.2592 20.3444C12.6129 20.3444 12.9525 20.206 13.2054 19.9587C13.4575 19.7123 13.6034 19.3774 13.6123 19.0251V19.0137C13.6123 18.8216 13.768 18.6659 13.9601 18.6659H14.6417C14.9104 18.6659 15.1681 18.5592 15.3582 18.3692C15.5483 18.1793 15.6552 17.9216 15.6553 17.6529V16.4121C15.6556 16.2318 15.6077 16.0546 15.5167 15.899C15.4258 15.7435 15.2951 15.6151 15.138 15.5269L15.1375 15.5266L12.7766 14.2145C12.7116 14.1784 12.6599 14.1223 12.6291 14.0546L11.4719 11.5126L11.4716 11.5119C11.3374 11.2154 11.1206 10.9638 10.8471 10.7872C10.5737 10.6107 10.2552 10.5168 9.92976 10.5166L2.09549 10.5166ZM14.2745 19.3614C14.1984 19.7751 13.9962 20.1583 13.6916 20.456C13.3088 20.8303 12.7946 21.0399 12.2592 21.0399C11.7238 21.0399 11.2096 20.8303 10.8268 20.456C10.5222 20.1583 10.32 19.7751 10.2439 19.3614H5.76612C5.69005 19.7751 5.48783 20.1583 5.18327 20.456C4.80041 20.8303 4.28625 21.0399 3.75083 21.0399C3.2154 21.0399 2.70125 20.8303 2.31839 20.456C2.01383 20.1583 1.81161 19.7751 1.73554 19.3614H1.70828C1.48395 19.3614 1.26181 19.3172 1.05455 19.2314C0.847292 19.1455 0.658972 19.0197 0.500344 18.8611C0.341715 18.7024 0.215884 18.5141 0.130036 18.3068C0.0441868 18.0996 3.22357e-10 17.8774 3.22357e-10 17.6531V11.9076V11.9076C-4.83598e-06 11.6324 0.0544087 11.36 0.160109 11.106C0.265809 10.8519 0.420708 10.6213 0.615893 10.4274C0.811078 10.2335 1.04269 10.0801 1.2974 9.97602C1.55174 9.87212 1.82409 9.81947 2.09883 9.8211H9.92976C10.3889 9.82133 10.8385 9.95389 11.2243 10.2029C11.61 10.4518 11.9157 10.8066 12.1051 11.2248L12.1053 11.2252L13.2146 13.6622L15.4777 14.92C15.7429 15.0687 15.9636 15.2854 16.1171 15.5479C16.2705 15.8103 16.3512 16.109 16.3508 16.413L16.0031 16.4125H16.3508V16.413V17.6531C16.3505 18.1062 16.1703 18.5409 15.8498 18.8612C15.5293 19.1815 15.0948 19.3614 14.6417 19.3614H14.2745Z" fill="#000001"/>
</g>
<defs>
<clipPath id="clip0_914_3182">
<rect width="24" height="24" fill="white"/>
</clipPath>
</defs>
</svg>
