<svg width="24" height="24" viewBox="0 0 24 24" fill="none" xmlns="http://www.w3.org/2000/svg">
<path fill-rule="evenodd" clip-rule="evenodd" d="M6.85983 7.39017C6.93016 7.4605 7.02554 7.5 7.125 7.5C7.22446 7.5 7.31984 7.4605 7.39017 7.39017C7.46049 7.31984 7.5 7.22446 7.5 7.125V5.25H16.5V7.125C16.5 7.22446 16.5395 7.31984 16.6098 7.39017C16.6802 7.4605 16.7755 7.5 16.875 7.5C16.9745 7.5 17.0698 7.4605 17.1402 7.39017C17.2105 7.31984 17.25 7.22446 17.25 7.125V5.25H19.875C19.9745 5.25 20.0698 5.28951 20.1402 5.35984C20.2105 5.43017 20.25 5.52554 20.25 5.625V8.25H3.75V5.625C3.75 5.52554 3.78951 5.43017 3.85983 5.35984C3.93016 5.28951 4.02554 5.25 4.125 5.25H6.75V7.125C6.75 7.22446 6.78951 7.31984 6.85983 7.39017ZM3.75 9H20.25V19.875C20.25 19.9745 20.2105 20.0698 20.1402 20.1402C20.0698 20.2105 19.9745 20.25 19.875 20.25H4.125C4.02554 20.25 3.93016 20.2105 3.85983 20.1402C3.78951 20.0698 3.75 19.9745 3.75 19.875V9ZM21 8.625V5.625C21 5.32663 20.8815 5.04049 20.6705 4.82951C20.4595 4.61853 20.1734 4.5 19.875 4.5H17.25V3.375C17.25 3.27554 17.2105 3.18017 17.1402 3.10984C17.0698 3.03951 16.9745 3 16.875 3C16.7755 3 16.6802 3.03951 16.6098 3.10984C16.5395 3.18017 16.5 3.27554 16.5 3.375V4.5H7.5V3.375C7.5 3.27554 7.46049 3.18017 7.39017 3.10984C7.31984 3.03951 7.22446 3 7.125 3C7.02554 3 6.93016 3.03951 6.85983 3.10984C6.78951 3.18017 6.75 3.27554 6.75 3.375V4.5H4.125C3.82663 4.5 3.54048 4.61853 3.3295 4.82951C3.11853 5.04049 3 5.32663 3 5.625V8.625V19.875C3 20.1734 3.11853 20.4595 3.3295 20.6705C3.54048 20.8815 3.82663 21 4.125 21H19.875C20.1734 21 20.4595 20.8815 20.6705 20.6705C20.8815 20.4595 21 20.1734 21 19.875V8.625Z" fill="black"/>
</svg>
