<svg width="64" height="64" viewBox="0 0 64 64" fill="none" xmlns="http://www.w3.org/2000/svg">
<path fill-rule="evenodd" clip-rule="evenodd" d="M19.875 14.1875C19.875 13.6697 20.2947 13.25 20.8125 13.25H60.1875C60.7053 13.25 61.125 13.6697 61.125 14.1875V37.625H19.875V14.1875ZM18 38.5625V14.1875C18 12.6342 19.2592 11.375 20.8125 11.375H60.1875C61.7408 11.375 63 12.6342 63 14.1875V38.5625V42.3125C63 43.8658 61.7408 45.125 60.1875 45.125H44.3359C44.5993 47.1572 45.3732 49.0932 46.5889 50.75H48.9356C49.4534 50.75 49.8731 51.1697 49.8731 51.6875C49.8731 52.2053 49.4534 52.625 48.9356 52.625H46.136H46.1152H34.8848H34.864H32.0606C31.5429 52.625 31.1231 52.2053 31.1231 51.6875C31.1231 51.1697 31.5429 50.75 32.0606 50.75H34.4111C35.6268 49.0932 36.4007 47.1572 36.6641 45.125H20.8125C19.2592 45.125 18 43.8658 18 42.3125V38.5625ZM38.5527 45.125C38.3295 47.1171 37.682 49.0348 36.6584 50.75H44.3416C43.318 49.0348 42.6705 47.1171 42.4473 45.125H38.5527ZM61.125 39.5V42.3125C61.125 42.8303 60.7053 43.25 60.1875 43.25H20.8125C20.2947 43.25 19.875 42.8303 19.875 42.3125V39.5H61.125Z" fill="black"/>
</svg>
