<svg width="64" height="64" viewBox="0 0 64 64" fill="none" xmlns="http://www.w3.org/2000/svg">
<path fill-rule="evenodd" clip-rule="evenodd" d="M58.978 2.35C59.4751 2.35 59.878 2.75294 59.878 3.25C59.878 3.74706 59.4751 4.15 58.978 4.15H58.0331H58.033C57.0924 4.15006 56.1803 4.47358 55.4499 5.06629C54.7194 5.65901 54.215 6.48489 54.0212 7.4054L52.233 15.9002C52.229 15.9245 52.2239 15.9485 52.2179 15.9721L45.6937 46.9654L44.9787 46.8149L45.6937 46.9654C45.4149 48.29 44.689 49.4785 43.6379 50.3314C42.5867 51.1844 41.2742 51.6499 39.9206 51.65H11.478C10.981 51.65 10.578 51.2471 10.578 50.75C10.578 50.2529 10.981 49.85 11.478 49.85H39.9205C40.8612 49.85 41.7732 49.5264 42.5037 48.9337C43.2341 48.341 43.7385 47.5151 43.9323 46.5946L44.4469 44.15H14.7055H14.7054C12.8627 44.1498 11.0712 43.5436 9.6069 42.4249C8.14267 41.3062 7.0869 39.7371 6.60225 37.9594L6.60221 37.9592L1.46975 19.1444L1.46971 19.1442C1.33221 18.6398 1.31288 18.1105 1.41324 17.5974C1.5136 17.0843 1.73093 16.6012 2.04834 16.1858C2.36576 15.7703 2.77471 15.4337 3.2434 15.202C3.71203 14.9704 4.22776 14.8499 4.75052 14.85H4.75071H50.6147L52.2598 7.03461L52.2598 7.0346C52.5387 5.70997 53.2646 4.52151 54.3157 3.66857C55.3668 2.81562 56.6793 2.35007 58.033 2.35H58.033H58.978ZM50.2358 16.65L44.8258 42.35H14.7056H14.7055C13.2577 42.3498 11.8501 41.8735 10.6997 40.9946C9.54917 40.1156 8.71962 38.8827 8.33884 37.4858L8.33879 37.4856L3.20634 18.6708L3.2063 18.6706C3.14163 18.4333 3.13255 18.1843 3.17976 17.9429C3.22699 17.7014 3.32927 17.4741 3.47864 17.2786C3.62801 17.0831 3.82045 16.9247 4.04102 16.8157C4.26157 16.7066 4.50431 16.65 4.75034 16.65H4.75052H50.2358ZM44.7661 53.712C43.894 52.8399 42.7113 52.35 41.478 52.35C40.2448 52.35 39.062 52.8399 38.19 53.712C37.3179 54.584 36.828 55.7667 36.828 57C36.828 58.2333 37.3179 59.416 38.19 60.288C39.062 61.1601 40.2448 61.65 41.478 61.65C42.7113 61.65 43.894 61.1601 44.7661 60.288C45.6381 59.416 46.128 58.2333 46.128 57C46.128 55.7667 45.6381 54.584 44.7661 53.712ZM41.478 54.15C42.2339 54.15 42.9588 54.4503 43.4933 54.9847C44.0278 55.5192 44.328 56.2441 44.328 57C44.328 57.7559 44.0278 58.4808 43.4933 59.0153C42.9588 59.5497 42.2339 59.85 41.478 59.85C40.7222 59.85 39.9972 59.5497 39.4628 59.0153C38.9283 58.4808 38.628 57.7559 38.628 57C38.628 56.2441 38.9283 55.5192 39.4628 54.9847C39.9972 54.4503 40.7222 54.15 41.478 54.15ZM16.478 52.35C17.7113 52.35 18.894 52.8399 19.7661 53.712C20.6381 54.584 21.128 55.7667 21.128 57C21.128 58.2333 20.6381 59.416 19.7661 60.288C18.894 61.1601 17.7113 61.65 16.478 61.65C15.2448 61.65 14.062 61.1601 13.19 60.288C12.3179 59.416 11.828 58.2333 11.828 57C11.828 55.7667 12.3179 54.584 13.19 53.712C14.062 52.8399 15.2448 52.35 16.478 52.35ZM18.4933 54.9847C17.9588 54.4503 17.2339 54.15 16.478 54.15C15.7222 54.15 14.9972 54.4503 14.4628 54.9847C13.9283 55.5192 13.628 56.2441 13.628 57C13.628 57.7559 13.9283 58.4808 14.4628 59.0153C14.9972 59.5497 15.7222 59.85 16.478 59.85C17.2339 59.85 17.9588 59.5497 18.4933 59.0153C19.0278 58.4808 19.328 57.7559 19.328 57C19.328 56.2441 19.0278 55.5192 18.4933 54.9847Z" fill="black"/>
</svg>
