<svg width="24" height="24" viewBox="0 0 24 24" fill="none" xmlns="http://www.w3.org/2000/svg">
<path fill-rule="evenodd" clip-rule="evenodd" d="M17.6024 13.6333C17.4392 13.6351 17.2774 13.6027 17.1276 13.5381C16.9777 13.4735 16.8431 13.3782 16.7324 13.2583L16.3574 12.8345C16.3203 12.7932 16.2755 12.7595 16.2254 12.7356C16.1753 12.7117 16.1209 12.6979 16.0655 12.6952C16.01 12.6924 15.9546 12.7006 15.9023 12.7194C15.8501 12.7381 15.8021 12.7671 15.7611 12.8045L15.7311 12.8345L15.3561 13.2583C15.1472 13.489 14.8553 13.6272 14.5444 13.6427C14.2336 13.6582 13.9294 13.5496 13.6986 13.3408C13.571 13.2242 13.471 13.0804 13.4061 12.9202C13.3412 12.7599 13.313 12.5871 13.3236 12.4145L13.3499 11.8408C13.3533 11.7854 13.3454 11.7299 13.3267 11.6777C13.308 11.6255 13.2789 11.5776 13.2411 11.537C13.1667 11.4548 13.0631 11.405 12.9524 11.3983H12.9111L12.3374 11.4283C12.0954 11.4414 11.8553 11.3791 11.6503 11.2499C11.4453 11.1207 11.2854 10.9311 11.1928 10.7072C11.1002 10.4833 11.0794 10.2361 11.1333 9.99985C11.1872 9.7636 11.3131 9.5499 11.4936 9.38828L11.9174 9.01328C11.9587 8.97626 11.9923 8.9314 12.0163 8.88131C12.0402 8.83121 12.0539 8.77687 12.0567 8.72142C12.0595 8.66597 12.0513 8.61052 12.0325 8.55827C12.0137 8.50603 11.9848 8.45802 11.9474 8.41703C11.9383 8.40611 11.9283 8.39607 11.9174 8.38704L11.4936 8.01204C11.3131 7.85041 11.1872 7.63671 11.1333 7.40046C11.0794 7.16421 11.1002 6.91706 11.1928 6.69314C11.2854 6.46922 11.4453 6.27958 11.6503 6.15041C11.8553 6.02124 12.0954 5.95891 12.3374 5.97203L12.9074 6.00203C12.9631 6.00611 13.019 5.99883 13.0718 5.98064C13.1246 5.96245 13.1732 5.93372 13.2146 5.89621C13.2559 5.85869 13.2893 5.81316 13.3125 5.76238C13.3358 5.7116 13.3485 5.65661 13.3499 5.60078V5.55578L13.3236 4.98954C13.3119 4.74816 13.3749 4.50905 13.5042 4.30485C13.6334 4.10065 13.8225 3.94132 14.0457 3.84861C14.2688 3.75589 14.5152 3.73433 14.751 3.78684C14.9869 3.83936 15.2009 3.9634 15.3636 4.14203L15.7386 4.56578C15.7743 4.60786 15.8185 4.64195 15.8682 4.66585C15.918 4.68975 15.9722 4.70293 16.0274 4.70453C16.1385 4.71119 16.2478 4.67342 16.3311 4.59953L16.3649 4.56578L16.7399 4.14203C16.9026 3.9634 17.1165 3.83936 17.3524 3.78684C17.5883 3.73433 17.8346 3.75589 18.0578 3.84861C18.281 3.94132 18.4701 4.10065 18.5993 4.30485C18.7285 4.50905 18.7916 4.74816 18.7799 4.98954L18.7499 5.55953C18.7448 5.67133 18.7841 5.7806 18.8593 5.8635C18.9344 5.9464 19.0393 5.9962 19.1511 6.00203H19.1924L19.7624 5.97203C20.0043 5.95891 20.2444 6.02124 20.4494 6.15041C20.6544 6.27958 20.8143 6.46922 20.9069 6.69314C20.9995 6.91706 21.0203 7.16421 20.9664 7.40046C20.9125 7.63671 20.7866 7.85041 20.6061 8.01204L20.1861 8.38704C20.1441 8.42386 20.1098 8.46869 20.0854 8.51892C20.0609 8.56914 20.0467 8.62375 20.0436 8.67953C20.0396 8.79098 20.0785 8.89972 20.1524 8.98328L20.1824 9.01328L20.6061 9.38828C20.7866 9.5499 20.9125 9.7636 20.9664 9.99985C21.0203 10.2361 20.9995 10.4833 20.9069 10.7072C20.8143 10.9311 20.6544 11.1207 20.4494 11.2499C20.2444 11.3791 20.0043 11.4414 19.7624 11.4283L19.1924 11.3983C19.0808 11.3935 18.9718 11.4325 18.8886 11.507C18.8068 11.5833 18.7571 11.6879 18.7499 11.7995V11.8445L18.7799 12.4108C18.7879 12.5659 18.7651 12.721 18.7128 12.8672C18.6605 13.0135 18.5796 13.1478 18.475 13.2626C18.3704 13.3774 18.244 13.4702 18.1032 13.5358C17.9624 13.6013 17.81 13.6383 17.6549 13.6445L17.6024 13.6333ZM16.9049 12.3208L17.2799 12.7445C17.3372 12.8144 17.4153 12.8642 17.5029 12.8865C17.5904 12.9088 17.6829 12.9026 17.7666 12.8686C17.8504 12.8347 17.9211 12.7749 17.9685 12.6979C18.0158 12.6209 18.0373 12.5308 18.0299 12.4408L17.9999 11.8708V11.7583C18.0137 11.4495 18.1484 11.1586 18.3749 10.9483C18.4883 10.8444 18.6214 10.7644 18.7664 10.7129C18.9113 10.6614 19.0651 10.6394 19.2186 10.6483L19.7886 10.6745C19.851 10.6802 19.9138 10.6709 19.9718 10.6474C20.0299 10.6239 20.0815 10.5869 20.1224 10.5395C20.1598 10.4985 20.1887 10.4505 20.2075 10.3983C20.2263 10.346 20.2345 10.2906 20.2317 10.2352C20.229 10.1797 20.2152 10.1254 20.1913 10.0753C20.1673 10.0252 20.1337 9.98031 20.0924 9.94328L19.6724 9.56828C19.6418 9.54144 19.613 9.51262 19.5861 9.48203C19.3778 9.25078 19.2698 8.94625 19.286 8.63542C19.3022 8.32459 19.4412 8.03292 19.6724 7.82454L20.0924 7.44954C20.1387 7.40758 20.1751 7.35589 20.1991 7.29819C20.2231 7.24049 20.234 7.1782 20.2311 7.11578C20.2253 7.00402 20.1755 6.89911 20.0926 6.82393C20.0097 6.74876 19.9004 6.70942 19.7886 6.71453L19.2186 6.74078H19.0986C18.9441 6.73452 18.7923 6.69778 18.6521 6.63269C18.5118 6.5676 18.3858 6.47544 18.2812 6.36149C18.1767 6.24754 18.0957 6.11405 18.0429 5.9687C17.9901 5.82336 17.9666 5.66901 17.9736 5.51453L18.0036 4.94078C18.0068 4.87889 17.9959 4.81708 17.9719 4.75994C17.9479 4.70281 17.9113 4.65183 17.8649 4.61078C17.8241 4.57311 17.7763 4.54388 17.7242 4.52479C17.6721 4.5057 17.6167 4.49714 17.5613 4.49958C17.5058 4.50202 17.4514 4.51542 17.4012 4.53902C17.3509 4.56261 17.3059 4.59593 17.2686 4.63703L16.8936 5.06079L16.8074 5.14703C16.6932 5.25007 16.5598 5.32959 16.4148 5.38103C16.2699 5.43247 16.1162 5.45482 15.9626 5.44681C15.809 5.4388 15.6585 5.40059 15.5197 5.33435C15.3809 5.26811 15.2565 5.17515 15.1536 5.06079L14.7786 4.63703C14.7357 4.59191 14.6839 4.55625 14.6264 4.53236C14.5689 4.50846 14.5071 4.49686 14.4449 4.49829C14.3328 4.50506 14.2278 4.55566 14.1528 4.63916C14.0777 4.72266 14.0385 4.83235 14.0436 4.94453L14.0736 5.51078C14.0774 5.55069 14.0774 5.59087 14.0736 5.63078C14.0669 5.78546 14.0297 5.9373 13.9642 6.07759C13.8987 6.21789 13.8062 6.34389 13.6919 6.44838C13.5777 6.55288 13.4439 6.63381 13.2984 6.68656C13.1528 6.73931 12.9983 6.76283 12.8436 6.75578L12.2736 6.72953C12.2111 6.72581 12.1486 6.73637 12.0907 6.76041C12.0329 6.78445 11.9813 6.82133 11.9399 6.86828C11.9024 6.90927 11.8735 6.95728 11.8547 7.00952C11.8359 7.06177 11.8277 7.11722 11.8305 7.17267C11.8333 7.22812 11.847 7.28246 11.8709 7.33255C11.8949 7.38265 11.9285 7.4275 11.9699 7.46453L12.3936 7.83953L12.4799 7.92203C12.6882 8.15328 12.7961 8.45781 12.78 8.76864C12.7638 9.07947 12.6248 9.37115 12.3936 9.57953L11.9699 9.95453C11.8972 10.0105 11.8449 10.0888 11.8209 10.1773C11.7968 10.2659 11.8025 10.3598 11.8369 10.4449C11.8714 10.5299 11.9327 10.6013 12.0116 10.6482C12.0904 10.6951 12.1825 10.7149 12.2736 10.7045L12.8436 10.6783H12.9636C13.1188 10.6835 13.2713 10.7197 13.4123 10.7847C13.5533 10.8497 13.6799 10.9422 13.7847 11.0567C13.8895 11.1713 13.9704 11.3056 14.0225 11.4519C14.0747 11.5981 14.0972 11.7533 14.0886 11.9083L14.0586 12.4783C14.0562 12.5406 14.0674 12.6028 14.0913 12.6604C14.1153 12.718 14.1515 12.7698 14.1974 12.812C14.2383 12.8495 14.2863 12.8784 14.3386 12.8972C14.3908 12.916 14.4463 12.9242 14.5017 12.9214C14.5572 12.9186 14.6115 12.9049 14.6616 12.8809C14.7117 12.857 14.7566 12.8234 14.7936 12.782L15.1686 12.3583L15.2549 12.272C15.4859 12.0649 15.7896 11.9576 16.0995 11.9738C16.4094 11.99 16.7003 12.1282 16.9086 12.3583L16.9049 12.3208ZM9.02931 20.138C9.17856 20.2026 9.33974 20.2351 9.50236 20.2333H9.5361C9.69079 20.2265 9.84262 20.1894 9.98291 20.1239C10.1232 20.0584 10.2492 19.9658 10.3537 19.8516C10.4582 19.7373 10.5391 19.6036 10.5919 19.4581C10.6446 19.3125 10.6682 19.1579 10.6611 19.0033L10.6311 18.4295V18.3883C10.6379 18.2772 10.6881 18.1732 10.7709 18.0988C10.8537 18.0245 10.9624 17.9856 11.0736 17.9908L11.6436 18.017C11.889 18.0342 12.1335 17.9736 12.3425 17.8439C12.5515 17.7141 12.7143 17.5218 12.8077 17.2943C12.9011 17.0667 12.9205 16.8155 12.863 16.5764C12.8054 16.3372 12.674 16.1222 12.4874 15.962L12.0636 15.587L12.0336 15.557C11.9589 15.4738 11.9202 15.3644 11.9258 15.2527C11.9314 15.141 11.9809 15.0361 12.0636 14.9608L12.4874 14.5858C12.6094 14.4761 12.7069 14.3419 12.7737 14.192C12.8405 14.0421 12.875 13.8799 12.875 13.7158C12.875 13.5517 12.8405 13.3894 12.7737 13.2395C12.7069 13.0897 12.6094 12.9555 12.4874 12.8458C12.3739 12.7419 12.2408 12.6619 12.0958 12.6104C11.9509 12.5589 11.7972 12.5369 11.6436 12.5458L11.0886 12.5758H11.0474C10.9355 12.5693 10.8306 12.5195 10.7549 12.437C10.7172 12.3963 10.6882 12.3484 10.6696 12.2962C10.6509 12.244 10.6429 12.1886 10.6461 12.1333L10.6649 11.5633C10.6741 11.3903 10.6454 11.2173 10.5806 11.0567C10.5158 10.896 10.4165 10.7515 10.2899 10.6333C10.0588 10.4261 9.75509 10.3189 9.44518 10.335C9.13526 10.3512 8.84436 10.4895 8.63611 10.7195L8.26111 11.1395L8.22735 11.1733C8.14364 11.2475 8.03398 11.2856 7.92228 11.2793C7.81057 11.273 7.70591 11.2227 7.63111 11.1395L7.25611 10.7158C7.1385 10.5894 6.99462 10.4903 6.83459 10.4255C6.67456 10.3607 6.50227 10.3318 6.32986 10.3408C6.17675 10.3466 6.02633 10.3828 5.8873 10.4472C5.74826 10.5115 5.62337 10.6028 5.51985 10.7158C5.41594 10.8301 5.33562 10.9638 5.28349 11.1093C5.23137 11.2547 5.20847 11.409 5.21611 11.5633L5.24611 12.1333V12.2158C5.24371 12.2713 5.23032 12.3258 5.20672 12.3761C5.18313 12.4263 5.14978 12.4715 5.10863 12.5088C5.06747 12.5461 5.01932 12.5749 4.96696 12.5935C4.9146 12.612 4.85908 12.6201 4.80361 12.617L4.2336 12.587C4.06076 12.5739 3.88723 12.601 3.72656 12.666C3.56589 12.7311 3.42242 12.8324 3.30735 12.962C3.20408 13.076 3.12429 13.2092 3.07254 13.354C3.02079 13.4988 2.99809 13.6524 3.00576 13.806C3.01342 13.9596 3.05129 14.1102 3.1172 14.2491C3.1831 14.3881 3.27575 14.5127 3.38985 14.6158L3.81361 14.9908L3.8436 15.0208C3.88082 15.062 3.90949 15.1102 3.92796 15.1626C3.94642 15.215 3.95431 15.2705 3.95117 15.326C3.94803 15.3814 3.93393 15.4357 3.90967 15.4856C3.88541 15.5356 3.85149 15.5803 3.80986 15.617L3.38611 15.992C3.20893 16.1551 3.08618 16.3687 3.03452 16.6039C2.98285 16.839 3.00476 17.0844 3.09729 17.3067C3.18981 17.529 3.34847 17.7175 3.55174 17.8466C3.75501 17.9756 3.99306 18.0391 4.2336 18.0283L4.80361 18.002H4.84486C4.95662 18.0079 5.06153 18.0577 5.13671 18.1406C5.21188 18.2235 5.25121 18.3327 5.24611 18.4445L5.21611 19.0145C5.2052 19.2556 5.26885 19.4941 5.3984 19.6977C5.52794 19.9013 5.71707 20.06 5.94005 20.1522C6.16302 20.2444 6.409 20.2657 6.6445 20.2131C6.87999 20.1605 7.09355 20.0366 7.25611 19.8583L7.63111 19.4345L7.66485 19.4045C7.74801 19.33 7.85704 19.291 7.9686 19.2958C8.08023 19.3031 8.18486 19.3527 8.26111 19.4345L8.63611 19.8583C8.7461 19.9781 8.88007 20.0734 9.02931 20.138ZM7.9986 18.5345H7.93861C7.65818 18.5399 7.38915 18.6464 7.1811 18.8345L7.09486 18.9208L6.71986 19.3445C6.66256 19.4144 6.58442 19.4642 6.49684 19.4865C6.40927 19.5088 6.31685 19.5026 6.23308 19.4686C6.14931 19.4347 6.07859 19.3749 6.03123 19.2979C5.98387 19.2209 5.96237 19.1308 5.96986 19.0408L5.99985 18.4708C6.0069 18.3161 5.98338 18.1616 5.93063 18.016C5.87789 17.8704 5.79695 17.7367 5.69245 17.6225C5.58796 17.5082 5.46196 17.4157 5.32167 17.3502C5.18137 17.2847 5.02954 17.2475 4.87485 17.2408H4.7586L4.18861 17.2708C4.07681 17.2759 3.96754 17.2366 3.88463 17.1614C3.80173 17.0862 3.75193 16.9813 3.74611 16.8695C3.74371 16.8072 3.75487 16.745 3.77883 16.6874C3.80278 16.6298 3.83896 16.5781 3.88485 16.5358L4.30861 16.1608C4.53815 15.952 4.6757 15.6608 4.69116 15.3509C4.70662 15.041 4.59874 14.7376 4.39111 14.507C4.36555 14.4765 4.33799 14.4477 4.30861 14.4208L3.88485 14.0458C3.84336 14.0088 3.80971 13.9638 3.78588 13.9136C3.76205 13.8633 3.74852 13.8088 3.74611 13.7533C3.74289 13.6979 3.75087 13.6425 3.76955 13.5903C3.78824 13.5381 3.81725 13.4903 3.85486 13.4495C3.89665 13.403 3.9483 13.3664 4.00604 13.3424C4.06378 13.3184 4.12616 13.3076 4.18861 13.3108L4.7586 13.3408C4.91231 13.3481 5.06595 13.3251 5.21074 13.273C5.35552 13.2208 5.4886 13.1407 5.60235 13.037C5.71547 12.9336 5.80688 12.8088 5.87126 12.6697C5.93564 12.5307 5.97171 12.3802 5.97735 12.227V12.1108L5.94735 11.5408C5.94254 11.4292 5.98157 11.3202 6.0561 11.237C6.09255 11.1948 6.13738 11.1607 6.18774 11.1368C6.2381 11.113 6.29289 11.0998 6.3486 11.0983C6.41105 11.0951 6.47343 11.1059 6.53117 11.1299C6.58891 11.1539 6.64056 11.1905 6.68235 11.237L7.05735 11.657C7.16021 11.7714 7.2846 11.8644 7.42342 11.9306C7.56223 11.9968 7.71274 12.035 7.86634 12.0431C8.01995 12.0511 8.17362 12.0287 8.31857 11.9773C8.46353 11.9258 8.59691 11.8463 8.7111 11.7433C8.7417 11.7164 8.77051 11.6876 8.79736 11.657L9.17236 11.237C9.20938 11.1957 9.25423 11.162 9.30433 11.1381C9.35443 11.1142 9.40877 11.1004 9.46422 11.0976C9.51967 11.0949 9.57512 11.1031 9.62737 11.1219C9.67961 11.1406 9.72762 11.1696 9.76861 11.207C9.81555 11.2485 9.85244 11.3001 9.87648 11.3579C9.90052 11.4157 9.91108 11.4783 9.90736 11.5408L9.87736 12.1108C9.8693 12.2642 9.89166 12.4178 9.94314 12.5626C9.99463 12.7074 10.0742 12.8406 10.1774 12.9545C10.3888 13.1815 10.6811 13.3162 10.9911 13.3295H11.1074L11.6774 13.2995C11.7327 13.2963 11.7881 13.3043 11.8403 13.323C11.8925 13.3417 11.9404 13.3707 11.9811 13.4083C12.0233 13.4447 12.0574 13.4896 12.0813 13.5399C12.1052 13.5903 12.1183 13.6451 12.1199 13.7008C12.1228 13.7632 12.1118 13.8255 12.0879 13.8832C12.0639 13.9409 12.0274 13.9926 11.9811 14.0345L11.5574 14.4095C11.3273 14.6178 11.189 14.9087 11.1729 15.2186C11.1567 15.5285 11.2639 15.8322 11.4711 16.0633L11.5574 16.1495L11.9811 16.5245C12.0233 16.561 12.0574 16.6058 12.0813 16.6562C12.1052 16.7065 12.1183 16.7613 12.1199 16.817C12.1229 16.8723 12.1148 16.9277 12.0961 16.9799C12.0774 17.032 12.0485 17.0799 12.0111 17.1208C11.9687 17.1665 11.9169 17.2025 11.8593 17.2265C11.8017 17.2504 11.7397 17.2617 11.6774 17.2595L11.1074 17.2295C10.9538 17.2206 10.8 17.2426 10.6551 17.2941C10.5102 17.3457 10.3771 17.4257 10.2636 17.5295C10.1508 17.6332 10.0596 17.7581 9.99527 17.8971C9.93091 18.0361 9.89466 18.1865 9.88861 18.3395V18.4595L9.91861 19.0295C9.92371 19.1413 9.88438 19.2506 9.80921 19.3335C9.73403 19.4164 9.62912 19.4662 9.51736 19.472C9.45506 19.4739 9.39308 19.4625 9.33553 19.4386C9.27798 19.4147 9.22619 19.3788 9.18361 19.3333L8.80861 18.9095C8.59852 18.6827 8.30745 18.548 7.9986 18.5345ZM6.71357 17.1167C7.07618 17.359 7.5025 17.4883 7.93861 17.4883C8.5231 17.4873 9.08338 17.2547 9.49668 16.8414C9.90998 16.4281 10.1426 15.8678 10.1436 15.2833C10.1436 14.8472 10.0143 14.4209 9.772 14.0582C9.52971 13.6956 9.18533 13.413 8.78242 13.2461C8.37951 13.0792 7.93616 13.0356 7.50843 13.1207C7.0807 13.2057 6.68781 13.4157 6.37943 13.7241C6.07106 14.0325 5.86105 14.4254 5.77597 14.8531C5.69089 15.2808 5.73456 15.7242 5.90145 16.1271C6.06834 16.53 6.35096 16.8744 6.71357 17.1167ZM7.13025 14.0735C7.36952 13.9136 7.65083 13.8283 7.93861 13.8283C8.3245 13.8283 8.69458 13.9816 8.96744 14.2544C9.24031 14.5273 9.39361 14.8974 9.39361 15.2833C9.39361 15.571 9.30827 15.8524 9.14839 16.0916C8.98852 16.3309 8.76128 16.5174 8.49541 16.6275C8.22954 16.7376 7.93699 16.7665 7.65475 16.7103C7.37251 16.6542 7.11325 16.5156 6.90977 16.3121C6.70628 16.1086 6.5677 15.8494 6.51156 15.5671C6.45542 15.2849 6.48424 14.9923 6.59436 14.7265C6.70449 14.4606 6.89098 14.2334 7.13025 14.0735ZM14.8063 10.5214C15.1701 10.7638 15.5977 10.8928 16.0349 10.892C16.6194 10.891 17.1796 10.6584 17.5929 10.2451C18.0062 9.8318 18.2389 9.27152 18.2399 8.68703C18.2406 8.24986 18.1116 7.8223 17.8692 7.4585C17.6268 7.0947 17.2818 6.81101 16.8781 6.64337C16.4743 6.47573 16.0299 6.43168 15.6011 6.51679C15.1723 6.6019 14.7784 6.81234 14.4693 7.12146C14.1602 7.43059 13.9497 7.82449 13.8646 8.25329C13.7795 8.6821 13.8236 9.12651 13.9912 9.53026C14.1588 9.93401 14.4425 10.2789 14.8063 10.5214ZM15.2234 7.47229C15.4638 7.31245 15.7462 7.22754 16.0349 7.22828C16.4211 7.22927 16.7912 7.3834 17.0639 7.65686C17.3367 7.93032 17.4899 8.30079 17.4899 8.68703C17.4899 8.9757 17.4042 9.25788 17.2437 9.49785C17.0833 9.73782 16.8552 9.92479 16.5885 10.0351C16.3217 10.1454 16.0282 10.1741 15.7451 10.1175C15.4621 10.0609 15.2021 9.92157 14.9983 9.71719C14.7944 9.5128 14.6558 9.25252 14.5999 8.96931C14.5441 8.68609 14.5735 8.39267 14.6845 8.12618C14.7955 7.8597 14.983 7.63213 15.2234 7.47229Z" fill="black"/>
</svg>
