<svg width="64" height="64" viewBox="0 0 64 64" fill="none" xmlns="http://www.w3.org/2000/svg">
<path fill-rule="evenodd" clip-rule="evenodd" d="M11 54H29C29.2652 54 29.5196 54.1054 29.7071 54.2929C29.8946 54.4804 30 54.7348 30 55C30 55.2652 29.8946 55.5196 29.7071 55.7071C29.5196 55.8947 29.2652 56 29 56H11C10.2044 56 9.44129 55.6839 8.87868 55.1213C8.31607 54.5587 8 53.7957 8 53V11C8 10.2044 8.31607 9.4413 8.87868 8.87869C9.44129 8.31608 10.2044 8 11 8H37.59C38.3854 8.0007 39.1479 8.31723 39.71 8.88L47.12 16.29C47.6828 16.8521 47.9993 17.6146 48 18.41V25C48 25.2652 47.8946 25.5196 47.7071 25.7071C47.5196 25.8947 47.2652 26 47 26C46.7348 26 46.4804 25.8947 46.2929 25.7071C46.1053 25.5196 46 25.2652 46 25V18.41C45.9989 18.1477 45.8947 17.8963 45.71 17.71L38.29 10.29C38.1037 10.1053 37.8523 10.0011 37.59 10H11C10.7348 10 10.4804 10.1054 10.2929 10.2929C10.1054 10.4804 10 10.7348 10 11V53C10 53.2652 10.1054 53.5196 10.2929 53.7071C10.4804 53.8947 10.7348 54 11 54ZM17 20H31C31.2652 20 31.5196 19.8947 31.7071 19.7071C31.8946 19.5196 32 19.2652 32 19C32 18.7348 31.8946 18.4804 31.7071 18.2929C31.5196 18.1054 31.2652 18 31 18H17C16.7348 18 16.4804 18.1054 16.2929 18.2929C16.1054 18.4804 16 18.7348 16 19C16 19.2652 16.1054 19.5196 16.2929 19.7071C16.4804 19.8947 16.7348 20 17 20ZM36.7071 24.2929C36.8946 24.4804 37 24.7348 37 25C37 25.2652 36.8946 25.5196 36.7071 25.7071C36.5196 25.8947 36.2652 26 36 26H17C16.7348 26 16.4804 25.8947 16.2929 25.7071C16.1054 25.5196 16 25.2652 16 25C16 24.7348 16.1054 24.4804 16.2929 24.2929C16.4804 24.1054 16.7348 24 17 24H36C36.2652 24 36.5196 24.1054 36.7071 24.2929ZM29.7071 30.2929C29.8946 30.4804 30 30.7348 30 31C30 31.2652 29.8946 31.5196 29.7071 31.7071C29.5196 31.8947 29.2652 32 29 32H17C16.7348 32 16.4804 31.8947 16.2929 31.7071C16.1054 31.5196 16 31.2652 16 31C16 30.7348 16.1054 30.4804 16.2929 30.2929C16.4804 30.1054 16.7348 30 17 30H29C29.2652 30 29.5196 30.1054 29.7071 30.2929ZM17 36H25C25.2652 36 25.5196 36.1054 25.7071 36.2929C25.8946 36.4804 26 36.7348 26 37C26 37.2652 25.8946 37.5196 25.7071 37.7071C25.5196 37.8947 25.2652 38 25 38H17C16.7348 38 16.4804 37.8947 16.2929 37.7071C16.1054 37.5196 16 37.2652 16 37C16 36.7348 16.1054 36.4804 16.2929 36.2929C16.4804 36.1054 16.7348 36 17 36ZM25 42H17C16.7348 42 16.4804 42.1054 16.2929 42.2929C16.1054 42.4804 16 42.7348 16 43C16 43.2652 16.1054 43.5196 16.2929 43.7071C16.4804 43.8947 16.7348 44 17 44H25C25.2652 44 25.5196 43.8947 25.7071 43.7071C25.8946 43.5196 26 43.2652 26 43C26 42.7348 25.8946 42.4804 25.7071 42.2929C25.5196 42.1054 25.2652 42 25 42ZM43 30C40.4289 30 37.9154 30.7624 35.7776 32.1909C33.6398 33.6193 31.9735 35.6497 30.9896 38.0251C30.0056 40.4006 29.7482 43.0144 30.2498 45.5362C30.7514 48.0579 31.9895 50.3743 33.8076 52.1924C35.6257 54.0105 37.9421 55.2486 40.4638 55.7502C42.9856 56.2518 45.5995 55.9944 47.9749 55.0104C50.3503 54.0265 52.3807 52.3603 53.8091 50.2224C55.2376 48.0846 56 45.5712 56 43C56 39.5522 54.6304 36.2456 52.1924 33.8076C49.7544 31.3696 46.4478 30 43 30ZM43 54C40.8244 54 38.6977 53.3549 36.8887 52.1462C35.0798 50.9375 33.6699 49.2195 32.8373 47.2095C32.0048 45.1995 31.7869 42.9878 32.2114 40.854C32.6358 38.7202 33.6835 36.7602 35.2218 35.2218C36.7602 33.6835 38.7202 32.6358 40.854 32.2114C42.9878 31.7869 45.1995 32.0048 47.2095 32.8373C49.2195 33.6699 50.9375 35.0798 52.1462 36.8887C53.3549 38.6977 54 40.8244 54 43C54 45.9174 52.8411 48.7153 50.7782 50.7782C48.7153 52.8411 45.9174 54 43 54ZM43.38 36.0799C43.5036 36.1257 43.6161 36.1973 43.71 36.2899L48.21 40.7899C48.3037 40.8829 48.3781 40.9935 48.4289 41.1153C48.4797 41.2372 48.5058 41.3679 48.5058 41.4999C48.5058 41.6319 48.4797 41.7626 48.4289 41.8845C48.3781 42.0064 48.3037 42.1169 48.21 42.2099C48.1166 42.3026 48.0057 42.3759 47.8839 42.4257C47.7621 42.4755 47.6316 42.5007 47.5 42.4999C47.3684 42.5007 47.2379 42.4755 47.1161 42.4257C46.9943 42.3759 46.8834 42.3026 46.79 42.2099L44 39.4099V48.9999C44 49.2651 43.8946 49.5195 43.7071 49.707C43.5196 49.8946 43.2652 49.9999 43 49.9999C42.7348 49.9999 42.4804 49.8946 42.2929 49.707C42.1053 49.5195 42 49.2651 42 48.9999V39.4099L39.21 42.2099C39.1166 42.3026 39.0057 42.3759 38.8839 42.4257C38.7621 42.4755 38.6316 42.5007 38.5 42.4999C38.3684 42.5007 38.2379 42.4755 38.1161 42.4257C37.9943 42.3759 37.8834 42.3026 37.79 42.2099C37.6963 42.1169 37.6219 42.0064 37.5711 41.8845C37.5203 41.7626 37.4942 41.6319 37.4942 41.4999C37.4942 41.3679 37.5203 41.2372 37.5711 41.1153C37.6219 40.9935 37.6963 40.8829 37.79 40.7899L42.29 36.2899C42.3872 36.2016 42.4988 36.1305 42.62 36.0799C42.8635 35.9799 43.1365 35.9799 43.38 36.0799Z" fill="black"/>
</svg>
