<svg width="24" height="24" viewBox="0 0 24 24" fill="none" xmlns="http://www.w3.org/2000/svg">
<path fill-rule="evenodd" clip-rule="evenodd" d="M13.5171 6.46949C13.4714 6.45018 13.4299 6.42198 13.3952 6.38655C11.702 4.69908 9.40888 3.75156 7.01834 3.75156C4.6278 3.75156 2.33472 4.69908 0.641461 6.38655C0.571344 6.45717 0.47605 6.49704 0.376539 6.49739C0.277027 6.49774 0.181449 6.45854 0.110836 6.38843C0.0402216 6.31831 0.000353976 6.22302 2.34571e-06 6.12351C-0.000349285 6.024 0.0388449 5.92841 0.108962 5.8578C1.94305 4.02836 4.42783 3.00098 7.01834 3.00098C9.60885 3.00098 12.0936 4.02836 13.9277 5.8578C13.9806 5.91025 14.0167 5.97727 14.0313 6.0503C14.046 6.12333 14.0385 6.19907 14.01 6.26786C13.9814 6.33666 13.933 6.39538 13.8709 6.43655C13.8089 6.47773 13.7359 6.49949 13.6615 6.49906C13.6118 6.49885 13.5628 6.4888 13.5171 6.46949ZM2.64398 8.88035C2.61288 8.90649 2.58198 8.93246 2.55398 8.9628C2.53033 8.9759 2.50514 8.98599 2.47898 8.9928L2.43398 9.0228C2.38748 9.04169 2.33791 9.05187 2.28773 9.0528C2.24402 9.05155 2.20087 9.04267 2.16023 9.02655L2.11898 9.00781C2.09948 8.99929 2.08067 8.98925 2.06273 8.9778C2.06273 8.96842 2.06835 8.96374 2.07117 8.9614C2.07217 8.96056 2.07281 8.96003 2.07272 8.95968C2.07256 8.95905 2.06998 8.95905 2.06274 8.95905H2.06273C2.05148 8.95905 2.05335 8.96187 2.05429 8.96327C2.05451 8.96361 2.05468 8.96386 2.05461 8.96398C2.05439 8.96437 2.05169 8.96335 2.04023 8.95905C2.01023 8.9478 2.01023 8.9178 2.01023 8.9178C1.99424 8.8988 1.98156 8.87726 1.97273 8.85406C1.96175 8.83379 1.95295 8.81242 1.94648 8.7903C1.94495 8.76657 1.94495 8.74277 1.94648 8.71905C1.94276 8.69545 1.94276 8.6714 1.94648 8.6478C1.9429 8.62544 1.9429 8.60266 1.94648 8.5803C1.95385 8.5549 1.96524 8.53084 1.98023 8.50905C1.98087 8.49531 1.98087 8.48155 1.98023 8.46781L2.01398 8.4303L2.06273 8.38531C2.21584 8.23151 2.37734 8.08628 2.54648 7.9503C2.56673 7.9323 2.58698 7.91835 2.60723 7.9044L2.60723 7.9044L2.60724 7.90439L2.60725 7.90439L2.60725 7.90438L2.60726 7.90438C2.62075 7.89509 2.63424 7.88579 2.64773 7.8753C2.79993 7.75036 2.95892 7.63393 3.12398 7.52655L3.15398 7.50405C4.30294 6.75203 5.64704 6.3531 7.02023 6.35655C8.41194 6.34567 9.77564 6.74759 10.939 7.51155C10.9834 7.54515 11.0277 7.57823 11.0715 7.61106L11.0716 7.6111C11.1942 7.70284 11.3142 7.79266 11.4302 7.88655L11.5127 7.9503C11.699 8.10024 11.8768 8.26049 12.0452 8.4303C12.0802 8.46527 12.1079 8.50677 12.1269 8.55246C12.1458 8.59814 12.1555 8.6471 12.1555 8.69655C12.1555 8.746 12.1458 8.79496 12.1269 8.84064C12.1079 8.88633 12.0802 8.92783 12.0452 8.9628C12.0103 8.99776 11.9688 9.02551 11.9231 9.04443C11.8774 9.06335 11.8284 9.07308 11.779 9.07308C11.7295 9.07308 11.6806 9.06335 11.6349 9.04443C11.5892 9.02551 11.5477 8.99776 11.5127 8.9628C11.3613 8.81119 11.2023 8.66726 11.0365 8.53155C11.0068 8.50695 10.9755 8.4844 10.9427 8.46405C10.8084 8.35287 10.6682 8.24896 10.5227 8.1528L10.4927 8.13405C9.47 7.47358 8.27955 7.11978 7.06212 7.11446C5.84468 7.10915 4.65118 7.45254 3.62273 8.10406L3.54773 8.14905C3.42023 8.2353 3.29648 8.32905 3.17273 8.42655C3.15535 8.43958 3.13741 8.45206 3.11935 8.46462L3.11934 8.46463L3.11933 8.46463L3.11933 8.46464C3.09062 8.4846 3.06159 8.50478 3.03398 8.5278C2.9178 8.62149 2.80911 8.72643 2.70042 8.83137L2.70023 8.83156C2.68183 8.84854 2.66289 8.86446 2.64403 8.88031L2.64402 8.88032L2.64401 8.88033L2.64399 8.88034L2.64398 8.88035ZM9.07147 11.0778C9.15402 11.1335 9.25531 11.1541 9.35306 11.1351C9.45082 11.1161 9.53702 11.0591 9.59272 10.9765C9.64841 10.894 9.66904 10.7927 9.65005 10.6949C9.63106 10.5972 9.57402 10.511 9.49147 10.4553C8.64322 9.8877 7.62461 9.63134 6.60875 9.72979C5.59289 9.82823 4.64245 10.2754 3.91897 10.9953C3.88382 11.0301 3.85592 11.0716 3.83688 11.1173C3.81785 11.163 3.80804 11.212 3.80804 11.2615C3.80804 11.311 3.81785 11.3601 3.83688 11.4057C3.85592 11.4514 3.88382 11.4929 3.91897 11.5278C3.95401 11.5625 3.99556 11.59 4.04125 11.6087C4.08694 11.6274 4.13587 11.6368 4.18522 11.6365C4.23457 11.6368 4.28349 11.6274 4.32918 11.6087C4.37487 11.59 4.41643 11.5625 4.45147 11.5278C5.0504 10.9295 5.83836 10.5577 6.6809 10.4756C7.52344 10.3935 8.36835 10.6064 9.07147 11.0778ZM7.3079 13.7017C7.23757 13.772 7.14219 13.8115 7.04273 13.8115C6.78613 13.8115 6.54005 13.9134 6.35861 14.0949C6.17717 14.2763 6.07523 14.5224 6.07523 14.779C6.07523 15.0356 6.17717 15.2817 6.35861 15.4631C6.54005 15.6446 6.78613 15.7465 7.04273 15.7465C7.14219 15.7465 7.23757 15.786 7.3079 15.8564C7.37822 15.9267 7.41773 16.0221 7.41773 16.1215C7.41773 16.221 7.37822 16.3164 7.3079 16.3867C7.23757 16.457 7.14219 16.4965 7.04273 16.4965C6.58722 16.4965 6.15037 16.3156 5.82828 15.9935C5.50618 15.6714 5.32523 15.2345 5.32523 14.779C5.32523 14.3235 5.50618 13.8867 5.82828 13.5646C6.15037 13.2425 6.58722 13.0615 7.04273 13.0615C7.14219 13.0615 7.23757 13.101 7.3079 13.1714C7.37822 13.2417 7.41773 13.3371 7.41773 13.4365C7.41773 13.536 7.37822 13.6314 7.3079 13.7017ZM17.3252 17.4415C17.2312 17.4093 17.1283 17.4157 17.039 17.4592C16.9497 17.5028 16.8814 17.5801 16.849 17.674C16.5818 18.4617 16.0634 19.14 15.3735 19.6046C14.6836 20.0692 13.8602 20.2945 13.0299 20.246C12.1995 20.1975 11.408 19.8777 10.7769 19.3359C10.1459 18.794 9.71007 18.06 9.53647 17.2465H11.2652C11.3647 17.2465 11.4601 17.207 11.5304 17.1367C11.6007 17.0664 11.6402 16.971 11.6402 16.8715C11.6402 16.7721 11.6007 16.6767 11.5304 16.6064C11.4601 16.5361 11.3647 16.4965 11.2652 16.4965H8.64022C8.54076 16.4965 8.44538 16.5361 8.37506 16.6064C8.30473 16.6767 8.26522 16.7721 8.26522 16.8715V19.4965C8.26522 19.596 8.30473 19.6914 8.37506 19.7617C8.44538 19.832 8.54076 19.8715 8.64022 19.8715C8.73968 19.8715 8.83506 19.832 8.90539 19.7617C8.97571 19.6914 9.01522 19.596 9.01522 19.4965V18.1203C9.35753 18.9867 9.95736 19.7271 10.7338 20.2419C11.5102 20.7566 12.4258 21.0207 13.3571 20.9986C14.2884 20.9766 15.1905 20.6693 15.9416 20.1184C16.6928 19.5675 17.2569 18.7994 17.5577 17.9178C17.59 17.8238 17.5836 17.7209 17.54 17.6316C17.4964 17.5423 17.4192 17.4739 17.3252 17.4415ZM17.3751 12.4814C17.4454 12.411 17.5408 12.3715 17.6402 12.3715C17.7397 12.3715 17.8351 12.411 17.9054 12.4814C17.9757 12.5517 18.0152 12.6471 18.0152 12.7465V15.3715C18.0152 15.471 17.9757 15.5664 17.9054 15.6367C17.8351 15.707 17.7397 15.7465 17.6402 15.7465H15.0152C14.9158 15.7465 14.8204 15.707 14.7501 15.6367C14.6797 15.5664 14.6402 15.471 14.6402 15.3715C14.6402 15.2721 14.6797 15.1767 14.7501 15.1064C14.8204 15.036 14.9158 14.9965 15.0152 14.9965H16.744C16.5704 14.183 16.1346 13.449 15.5035 12.9072C14.8724 12.3653 14.0809 12.0456 13.2506 11.9971C12.4202 11.9485 11.5969 12.1739 10.9069 12.6385C10.217 13.1031 9.69867 13.7813 9.43147 14.569C9.39654 14.6596 9.32787 14.7331 9.23987 14.7741C9.15187 14.815 9.05141 14.8203 8.95962 14.7887C8.86782 14.7572 8.79185 14.6912 8.74767 14.6048C8.70349 14.5184 8.69454 14.4182 8.72272 14.3253C9.02359 13.4437 9.58766 12.6756 10.3388 12.1247C11.09 11.5737 11.9921 11.2665 12.9233 11.2444C13.8546 11.2224 14.7702 11.4865 15.5467 12.0012C16.3231 12.5159 16.9229 13.2564 17.2652 14.1228V12.7465C17.2652 12.6471 17.3047 12.5517 17.3751 12.4814Z" fill="black"/>
</svg>
