<svg width="64" height="64" viewBox="0 0 64 64" fill="none" xmlns="http://www.w3.org/2000/svg">
<path d="M33.8477 26.5598C33.7632 26.3967 33.6355 26.2601 33.4785 26.1648C33.3215 26.0696 33.1413 26.0194 32.9577 26.0198H18.2377L21.9677 9.23976C22.0184 9.01446 21.9896 8.77855 21.8862 8.57207C21.7827 8.36558 21.611 8.20127 21.4002 8.10704C21.1893 8.01281 20.9523 7.99448 20.7295 8.05513C20.5067 8.11578 20.3117 8.25168 20.1777 8.43977L0.177653 36.4398C0.0774189 36.5846 0.0172324 36.7534 0.00318424 36.929C-0.0108639 37.1046 0.0217384 37.2808 0.0976667 37.4398C0.182135 37.6028 0.309877 37.7395 0.466868 37.8347C0.62386 37.93 0.804053 37.9802 0.987681 37.9798H15.7477L12.0177 54.7698C11.9678 54.995 11.9973 55.2305 12.1011 55.4364C12.205 55.6424 12.3769 55.8061 12.5877 55.8998C12.7151 55.9503 12.8506 55.9774 12.9877 55.9798C13.148 55.9806 13.3062 55.9429 13.4489 55.8698C13.5916 55.7967 13.7147 55.6904 13.8077 55.5598L33.8077 27.5598C33.9016 27.4113 33.9548 27.2407 33.9618 27.0651C33.9688 26.8896 33.9294 26.7153 33.8477 26.5598ZM15.0077 50.4398L17.9377 37.2398C17.9692 37.0937 17.9676 36.9424 17.933 36.7971C17.8984 36.6517 17.8317 36.5159 17.7377 36.3998C17.6446 36.2819 17.5261 36.1866 17.391 36.1208C17.256 36.055 17.1079 36.0205 16.9577 36.0198H2.93766L18.9377 13.5998L16.0077 26.8098C15.9748 26.9551 15.9747 27.1059 16.0076 27.2513C16.0405 27.3966 16.1054 27.5327 16.1977 27.6498C16.2918 27.7658 16.4107 27.8593 16.5457 27.9233C16.6807 27.9873 16.8283 28.0203 16.9777 28.0198H31.0477L15.0077 50.4398Z" fill="black"/>
</svg>
