<svg width="64" height="64" viewBox="0 0 64 64" fill="none" xmlns="http://www.w3.org/2000/svg">
<path fill-rule="evenodd" clip-rule="evenodd" d="M25.51 41.5097H25.25C25.1142 41.4654 24.9895 41.3924 24.8843 41.2958C24.7791 41.1992 24.6958 41.0812 24.64 40.9497C23.86 39.6097 23.53 37.2797 26.4 33.8197C28.1421 31.784 30.2061 30.0476 32.51 28.6797C33.3623 28.2252 34.3533 28.104 35.29 28.3397C35.2888 27.6095 35.4322 26.8862 35.7119 26.2117C35.9917 25.5372 36.4023 24.9247 36.92 24.4097C37.2698 24.072 37.6633 23.7827 38.09 23.5497C37.4111 22.8592 37.0183 21.9377 36.99 20.9697V8.96973C36.99 8.70451 37.0954 8.45014 37.2829 8.2626C37.4704 8.07507 37.7248 7.96973 37.99 7.96973C38.5781 7.97787 39.1582 8.10628 39.6948 8.34705C40.2314 8.58781 40.713 8.93584 41.11 9.36972C43.75 12.0097 44.69 17.7297 44.69 20.9397C44.664 21.9091 44.275 22.8335 43.6 23.5297C44.0288 23.7722 44.4253 24.0679 44.78 24.4097C45.805 25.4344 46.3867 26.8205 46.4 28.2697C47.3564 28.0496 48.3608 28.211 49.2 28.7197L59.54 34.7197C59.7659 34.8518 59.9311 35.0672 60 35.3197C60.072 35.575 60.0396 35.8483 59.91 36.0797C58.95 37.7397 57.15 38.3497 55.09 38.3497C51.6474 38.1235 48.3053 37.0962 45.33 35.3497H45.24C44.4408 34.8642 43.8467 34.103 43.57 33.2097C42.739 33.675 41.8025 33.9195 40.85 33.9197C39.8635 33.916 38.8963 33.6465 38.05 33.1397C37.8066 34.0699 37.2162 34.8715 36.4 35.3797L26.01 41.3797C25.8576 41.4661 25.6852 41.5109 25.51 41.5097ZM48.25 30.4997C47.949 30.3169 47.6022 30.2232 47.25 30.2297H47.23C46.9622 30.2404 46.6999 30.3095 46.4615 30.4321C46.2231 30.5547 46.0144 30.728 45.85 30.9397C45.7602 31.1239 45.6565 31.3011 45.54 31.4697C45.4018 31.8711 45.4059 32.3078 45.5516 32.7066C45.6973 33.1054 45.9756 33.4419 46.34 33.6597C49.8 35.6597 55.26 37.1797 57.51 35.8397L48.25 30.4997ZM39.73 10.8397C39.5205 10.6265 39.2814 10.4447 39.02 10.2997L39.03 20.9897C39.0511 21.4723 39.2591 21.9278 39.61 22.2597C39.7828 22.4315 39.9893 22.5654 40.2165 22.6532C40.4437 22.741 40.6867 22.7807 40.93 22.7697C41.4027 22.7547 41.8518 22.5603 42.1862 22.2259C42.5205 21.8915 42.715 21.4424 42.73 20.9697C42.73 18.0297 41.8 12.9097 39.73 10.8397ZM37.5912 27.0289C37.4122 27.4602 37.32 27.9227 37.32 28.3897L37.33 28.3997C37.33 28.8659 37.4218 29.3275 37.6003 29.7582C37.7787 30.1889 38.0401 30.5803 38.3698 30.9099C38.6994 31.2396 39.0908 31.5011 39.5215 31.6795C39.9522 31.8579 40.4138 31.9497 40.88 31.9497C41.454 31.949 42.0193 31.8095 42.5278 31.5431C43.0362 31.2767 43.4727 30.8913 43.8 30.4197C43.844 30.3103 43.894 30.2035 43.95 30.0997C43.9868 30.044 44.0268 29.9906 44.07 29.9397C44.3017 29.4591 44.4247 28.9333 44.43 28.3997C44.4313 27.9327 44.3405 27.47 44.1627 27.0381C43.9848 26.6063 43.7235 26.2137 43.3938 25.883C43.064 25.5523 42.6722 25.2899 42.2408 25.1109C41.8095 24.9319 41.347 24.8397 40.88 24.8397C40.413 24.8384 39.9503 24.9293 39.5184 25.1071C39.0865 25.2849 38.694 25.5462 38.3633 25.8759C38.0326 26.2057 37.7702 26.5975 37.5912 27.0289ZM33.51 30.5197C31.4237 31.7636 29.5528 33.3373 27.97 35.1797H27.95C27.18 36.1097 26.09 37.6797 26.11 39.0297L35.37 33.6997C35.7034 33.4825 35.9578 33.1636 36.0956 32.7904C36.2334 32.4171 36.2472 32.0094 36.1349 31.6277C36.0227 31.246 35.7903 30.9106 35.4724 30.6714C35.1545 30.4322 34.7679 30.3018 34.37 30.2997C34.0695 30.3001 33.7738 30.3757 33.51 30.5197ZM46.86 54.0295H63C63.2652 54.0295 63.5196 54.1349 63.7071 54.3225C63.8947 54.51 64 54.7643 64 55.0295C64 55.2948 63.8947 55.5491 63.7071 55.7366C63.5196 55.9242 63.2652 56.0295 63 56.0295H17C16.7348 56.0295 16.4804 55.9242 16.2929 55.7366C16.1054 55.5491 16 55.2948 16 55.0295C16 54.7643 16.1054 54.51 16.2929 54.3225C16.4804 54.1349 16.7348 54.0295 17 54.0295H35.14L37.71 36.8895C37.7296 36.7595 37.7746 36.6345 37.8425 36.5219C37.9104 36.4092 37.9998 36.311 38.1057 36.233C38.2116 36.155 38.3319 36.0986 38.4596 36.0671C38.5873 36.0356 38.72 36.0297 38.85 36.0495C38.9801 36.0691 39.1051 36.1141 39.2177 36.182C39.3304 36.2499 39.4285 36.3394 39.5065 36.4453C39.5846 36.5512 39.6409 36.6714 39.6724 36.7991C39.7039 36.9269 39.7099 37.0595 39.69 37.1896L37.16 54.0295H44.84L42.31 37.1696C42.2901 37.0395 42.2961 36.9068 42.3276 36.7791C42.3591 36.6514 42.4154 36.5312 42.4935 36.4253C42.5715 36.3194 42.6697 36.2299 42.7823 36.162C42.895 36.0941 43.0199 36.0491 43.15 36.0295C43.2801 36.0097 43.4127 36.0156 43.5404 36.0471C43.6682 36.0786 43.7884 36.135 43.8943 36.213C44.0002 36.291 44.0897 36.3892 44.1576 36.5019C44.2255 36.6145 44.2705 36.7395 44.29 36.8695L46.86 54.0295Z" fill="black"/>
</svg>
