<svg width="24" height="24" viewBox="0 0 24 24" fill="none" xmlns="http://www.w3.org/2000/svg">
<path d="M23.8872 20.3871L19.6909 16.1908C21.0792 14.6636 21.815 12.6539 21.7413 10.5913C21.6675 8.5287 20.79 6.57673 19.2963 5.1525C17.8025 3.72827 15.811 2.94473 13.7472 2.96931C11.6834 2.9939 9.71107 3.82466 8.25166 5.28407C6.79224 6.74349 5.96149 8.71581 5.9369 10.7796C5.91232 12.8434 6.69585 14.8349 8.12009 16.3287C9.54432 17.8225 11.4963 18.7 13.5589 18.7737C15.6215 18.8475 17.6312 18.1116 19.1584 16.7233L23.3547 20.9233C23.3897 20.9581 23.4313 20.9856 23.477 21.0043C23.5226 21.0229 23.5716 21.0324 23.6209 21.0321C23.6703 21.0324 23.7192 21.0229 23.7649 21.0043C23.8106 20.9856 23.8521 20.9581 23.8872 20.9233C23.9229 20.8884 23.9513 20.8467 23.9706 20.8007C23.99 20.7546 24 20.7052 24 20.6552C24 20.6053 23.99 20.5558 23.9706 20.5098C23.9513 20.4637 23.9229 20.422 23.8872 20.3871V20.3871ZM6.74592 10.9033C6.74592 9.49415 7.1638 8.1166 7.9467 6.9449C8.72961 5.7732 9.84238 4.85997 11.1443 4.3207C12.4462 3.78142 13.8788 3.64033 15.2609 3.91525C16.6431 4.19017 17.9126 4.86876 18.9091 5.8652C19.9055 6.86165 20.5841 8.1312 20.859 9.51332C21.1339 10.8954 20.9928 12.328 20.4536 13.63C19.9143 14.9319 19.0011 16.0447 17.8294 16.8276C16.6577 17.6105 15.2801 18.0283 13.8709 18.0283C11.9813 18.0283 10.169 17.2777 8.83279 15.9415C7.49659 14.6053 6.74592 12.793 6.74592 10.9033V10.9033Z" fill="black"/>
</svg>
