<svg width="24" height="24" viewBox="0 0 24 24" fill="none" xmlns="http://www.w3.org/2000/svg">
<path fill-rule="evenodd" clip-rule="evenodd" d="M1.875 6H1.125C1.02554 6 0.930161 6.0395 0.859835 6.10983C0.789509 6.18016 0.75 6.27554 0.75 6.375V8.625C0.75 9.71902 1.1846 10.7682 1.95818 11.5418C2.37485 11.9585 2.87147 12.2768 3.41199 12.4818C3.47266 12.4879 3.53078 12.5086 3.58138 12.5419C3.99495 12.6785 4.43129 12.75 4.875 12.75C5.31871 12.75 5.75505 12.6785 6.16862 12.5419C6.21922 12.5086 6.27734 12.4879 6.33801 12.4818C6.87853 12.2768 7.37515 11.9585 7.79182 11.5418C8.5654 10.7682 9 9.71902 9 8.625V6.375C9 6.27554 8.96049 6.18016 8.89017 6.10983C8.81984 6.0395 8.72446 6 8.625 6H7.875H1.875ZM8.25 5.25V3.375C8.25 3.27554 8.21049 3.18016 8.14017 3.10983C8.06984 3.0395 7.97446 3 7.875 3C7.77554 3 7.68016 3.0395 7.60983 3.10983C7.53951 3.18016 7.5 3.27554 7.5 3.375V5.25H2.25V3.375C2.25 3.27554 2.21049 3.18016 2.14017 3.10983C2.06984 3.0395 1.97446 3 1.875 3C1.77554 3 1.68016 3.0395 1.60983 3.10983C1.53951 3.18016 1.5 3.27554 1.5 3.375V5.25H1.125C0.826631 5.25 0.540482 5.36853 0.329504 5.57951C0.118526 5.79049 0 6.07663 0 6.375V8.625C0 9.91793 0.513614 11.1579 1.42785 12.0721C1.88252 12.5268 2.41776 12.8824 3 13.125V14.625C3 14.9234 3.11853 15.2095 3.3295 15.4205C3.54048 15.6315 3.82663 15.75 4.125 15.75H4.5V17.625C4.5 18.5201 4.85558 19.3785 5.48851 20.0115C6.12145 20.6444 6.97989 21 7.875 21C8.77011 21 9.62855 20.6444 10.2615 20.0115C10.8944 19.3785 11.25 18.5201 11.25 17.625V17.0625C11.252 16.1183 11.628 15.2133 12.2956 14.5456C12.9633 13.878 13.8683 13.502 14.8125 13.5H17.625C17.7245 13.5 17.8198 13.4605 17.8902 13.3902C17.9605 13.3198 18 13.2245 18 13.125C18 13.0255 17.9605 12.9302 17.8902 12.8598C17.8198 12.7895 17.7245 12.75 17.625 12.75H14.8125C13.6694 12.752 12.5736 13.207 11.7653 14.0153C10.957 14.8236 10.502 15.9194 10.5 17.0625V17.625C10.5 18.3212 10.2234 18.9889 9.73115 19.4812C9.23887 19.9734 8.57119 20.25 7.875 20.25C7.17881 20.25 6.51113 19.9734 6.01885 19.4812C5.52656 18.9889 5.25 18.3212 5.25 17.625V15.75H5.625C5.77401 15.75 5.92153 15.7204 6.05901 15.663C6.19649 15.6055 6.32118 15.5213 6.42585 15.4152C6.53051 15.3092 6.61306 15.1834 6.66871 15.0451C6.72435 14.9069 6.75199 14.759 6.75 14.61V13.125C7.33775 12.8801 7.87186 12.5224 8.32215 12.0721C8.77483 11.6195 9.13392 11.082 9.37891 10.4906C9.62391 9.89912 9.75 9.26519 9.75 8.625V6.375C9.75 6.07663 9.63147 5.79049 9.4205 5.57951C9.20952 5.36853 8.92337 5.25 8.625 5.25H8.25ZM6 13.3684C5.63224 13.4556 5.25472 13.5 4.875 13.5C4.49303 13.5 4.11569 13.4552 3.75 13.3684V14.61C3.75 14.7095 3.78951 14.8049 3.85983 14.8752C3.93016 14.9455 4.02554 14.985 4.125 14.985H5.625C5.72446 14.985 5.81984 14.9455 5.89017 14.8752C5.96049 14.8049 6 14.7095 6 14.61V13.3684ZM6.375 8.25H3.375C3.27554 8.25 3.18016 8.21049 3.10983 8.14016C3.03951 8.06983 3 7.97446 3 7.875C3 7.77554 3.03951 7.68016 3.10983 7.60983C3.18016 7.5395 3.27554 7.5 3.375 7.5H6.375C6.47446 7.5 6.56984 7.5395 6.64017 7.60983C6.71049 7.68016 6.75 7.77554 6.75 7.875C6.75 7.97446 6.71049 8.06983 6.64017 8.14016C6.56984 8.21049 6.47446 8.25 6.375 8.25Z" fill="black"/>
</svg>
