<svg width="24" height="24" viewBox="0 0 24 24" fill="none" xmlns="http://www.w3.org/2000/svg">
<path fill-rule="evenodd" clip-rule="evenodd" d="M3.85983 7.39017C3.93016 7.4605 4.02554 7.5 4.125 7.5C4.22446 7.5 4.31984 7.4605 4.39017 7.39017C4.46049 7.31984 4.5 7.22446 4.5 7.125V5.25H13.5V7.125C13.5 7.22446 13.5395 7.31984 13.6098 7.39017C13.6802 7.4605 13.7755 7.5 13.875 7.5C13.9745 7.5 14.0698 7.4605 14.1402 7.39017C14.2105 7.31984 14.25 7.22446 14.25 7.125V5.25H16.875C16.9745 5.25 17.0698 5.28951 17.1402 5.35984C17.2105 5.43017 17.25 5.52554 17.25 5.625V8.25H0.75V5.625C0.75 5.52554 0.789509 5.43017 0.859835 5.35984C0.930161 5.28951 1.02554 5.25 1.125 5.25H3.75V7.125C3.75 7.22446 3.78951 7.31984 3.85983 7.39017ZM0.75 9H17.25V19.875C17.25 19.9745 17.2105 20.0698 17.1402 20.1402C17.0698 20.2105 16.9745 20.25 16.875 20.25H1.125C1.02554 20.25 0.930161 20.2105 0.859835 20.1402C0.789509 20.0698 0.75 19.9745 0.75 19.875V9ZM18 8.625V5.625C18 5.32663 17.8815 5.04049 17.6705 4.82951C17.4595 4.61853 17.1734 4.5 16.875 4.5H14.25V3.375C14.25 3.27554 14.2105 3.18017 14.1402 3.10984C14.0698 3.03951 13.9745 3 13.875 3C13.7755 3 13.6802 3.03951 13.6098 3.10984C13.5395 3.18017 13.5 3.27554 13.5 3.375V4.5H4.5V3.375C4.5 3.27554 4.46049 3.18017 4.39017 3.10984C4.31984 3.03951 4.22446 3 4.125 3C4.02554 3 3.93016 3.03951 3.85983 3.10984C3.78951 3.18017 3.75 3.27554 3.75 3.375V4.5H1.125C0.826631 4.5 0.540482 4.61853 0.329504 4.82951C0.118526 5.04049 0 5.32663 0 5.625V8.625V19.875C0 20.1734 0.118526 20.4595 0.329504 20.6705C0.540482 20.8815 0.826631 21 1.125 21H16.875C17.1734 21 17.4595 20.8815 17.6705 20.6705C17.8815 20.4595 18 20.1734 18 19.875V8.625Z" fill="black"/>
</svg>
