<svg width="64" height="64" viewBox="0 0 64 64" fill="none" xmlns="http://www.w3.org/2000/svg">
<path fill-rule="evenodd" clip-rule="evenodd" d="M29.0625 9.5C29.5803 9.5 30 9.91973 30 10.4375V12.3125H37.5V10.4375C37.5 9.91973 37.9197 9.5 38.4375 9.5C38.9553 9.5 39.375 9.91973 39.375 10.4375V12.3125H42.1875C43.7408 12.3125 45 13.5717 45 15.125V19.8125V29.1875C45 30.7408 43.7408 32 42.1875 32H25.3125C23.7592 32 22.5 30.7408 22.5 29.1875V19.8125V15.125C22.5 13.5717 23.7592 12.3125 25.3125 12.3125H28.125V10.4375C28.125 9.91973 28.5447 9.5 29.0625 9.5ZM37.5 14.1875V15.125C37.5 15.6428 37.9197 16.0625 38.4375 16.0625C38.9553 16.0625 39.375 15.6428 39.375 15.125V14.1875H42.1875C42.7053 14.1875 43.125 14.6072 43.125 15.125V18.875H24.375V15.125C24.375 14.6072 24.7947 14.1875 25.3125 14.1875H28.125V15.125C28.125 15.6428 28.5447 16.0625 29.0625 16.0625C29.5803 16.0625 30 15.6428 30 15.125V14.1875H37.5ZM43.125 20.75H24.375V29.1875C24.375 29.7053 24.7947 30.125 25.3125 30.125H42.1875C42.7053 30.125 43.125 29.7053 43.125 29.1875V20.75ZM2.14959 33.2121C2.3254 33.0363 2.56386 32.9375 2.8125 32.9375H17.8125C18.3303 32.9375 18.75 32.5178 18.75 32C18.75 31.4822 18.3303 31.0625 17.8125 31.0625H2.8125C2.06658 31.0625 1.35121 31.3588 0.823762 31.8863C0.296316 32.4137 0 33.1291 0 33.875V51.6875C0 52.4334 0.296316 53.1488 0.823762 53.6762C1.35121 54.2037 2.06658 54.5 2.8125 54.5H40.3125C41.0584 54.5 41.7738 54.2037 42.3012 53.6762C42.8287 53.1488 43.125 52.4334 43.125 51.6875V36.6875C43.125 36.1697 42.7053 35.75 42.1875 35.75C41.6697 35.75 41.25 36.1697 41.25 36.6875V51.6875C41.25 51.9361 41.1512 52.1746 40.9754 52.3504C40.7996 52.5262 40.5611 52.625 40.3125 52.625H2.8125C2.56386 52.625 2.3254 52.5262 2.14959 52.3504C1.97377 52.1746 1.875 51.9361 1.875 51.6875V33.875C1.875 33.6264 1.97377 33.3879 2.14959 33.2121ZM7.41482 38.2999C7.78373 38.2921 8.1504 38.359 8.49278 38.4966C8.83515 38.6342 9.14615 38.8396 9.40707 39.1006C9.66798 39.3615 9.87342 39.6725 10.011 40.0149C10.1486 40.3572 10.2155 40.7239 10.2077 41.0928C10.2067 41.1395 10.2092 41.1854 10.2148 41.2303C10.2077 41.3501 10.2052 41.4704 10.2075 41.5907V44.3839C10.2065 44.4382 10.2064 44.4925 10.2073 44.5467C10.1984 44.8705 10.1321 45.1905 10.011 45.4917C9.87342 45.834 9.66798 46.1451 9.40707 46.406C9.14615 46.6669 8.83515 46.8723 8.49278 47.0099C8.1504 47.1475 7.78373 47.2144 7.41482 47.2066C6.89717 47.1956 6.46866 47.6064 6.4577 48.1241C6.44675 48.6417 6.85751 49.0702 7.37516 49.0812C7.99692 49.0943 8.61491 48.9816 9.19195 48.7497C9.76899 48.5178 10.2931 48.1715 10.7329 47.7318C10.8812 47.5835 11.0189 47.4256 11.1451 47.2593C11.2713 47.4254 11.4089 47.5832 11.5571 47.7315C11.9968 48.1712 12.521 48.5174 13.098 48.7493C13.6751 48.9812 14.2931 49.094 14.9148 49.0808C15.4325 49.0699 15.8432 48.6414 15.8323 48.1237C15.8213 47.6061 15.3928 47.1953 14.8752 47.2063C14.5063 47.2141 14.1396 47.1472 13.7972 47.0096C13.4548 46.872 13.1438 46.6665 12.8829 46.4056C12.622 46.1447 12.4166 45.8337 12.279 45.4913C12.158 45.1902 12.0916 44.8703 12.0827 44.5466C12.0836 44.4926 12.0835 44.4386 12.0825 44.3845V41.5814L12.0823 41.5616C12.0745 41.1927 12.1414 40.826 12.279 40.4836C12.4166 40.1412 12.622 39.8302 12.8829 39.5693C13.1438 39.3084 13.4548 39.103 13.7972 38.9654C14.1396 38.8278 14.5063 38.7609 14.8752 38.7687C15.3928 38.7796 15.8213 38.3689 15.8323 37.8512C15.8432 37.3336 15.4325 36.9051 14.9148 36.8941C14.2931 36.8809 13.6751 36.9937 13.098 37.2256C12.521 37.4575 11.9968 37.8037 11.5571 38.2435C11.4754 38.3251 11.397 38.4097 11.3219 38.497C11.1509 38.2376 10.9537 37.9955 10.7329 37.7747C10.2931 37.335 9.76899 36.9888 9.19195 36.7569C8.61491 36.525 7.99692 36.4122 7.37516 36.4253C6.85751 36.4363 6.44675 36.8648 6.4577 37.3825C6.46866 37.9001 6.89717 38.3109 7.41482 38.2999Z" fill="black"/>
</svg>
