<svg width="24" height="24" viewBox="0 0 24 24" fill="none" xmlns="http://www.w3.org/2000/svg">
<path fill-rule="evenodd" clip-rule="evenodd" d="M20.7194 4.77477L19.2007 3.27477C19.1737 3.24659 19.1449 3.22028 19.1144 3.19602C18.9147 3.04321 18.6626 2.97558 18.4132 3.0079C18.1639 3.04022 17.9374 3.16985 17.7832 3.36852L15.9644 5.68227C15.7626 5.94264 15.6508 6.26159 15.6461 6.59101C15.6414 6.92043 15.7439 7.24246 15.9382 7.50852L11.1832 12.2635L10.6282 11.7085C10.3548 11.4362 9.98465 11.2834 9.5988 11.2834C9.21295 11.2834 8.84282 11.4362 8.56943 11.7085L3.74317 16.5573C3.26732 17.034 3.00006 17.68 3.00006 18.3535C3.00006 19.0271 3.26732 19.6731 3.74317 20.1498L3.84818 20.2548C4.08371 20.4913 4.36363 20.679 4.67188 20.807C4.98013 20.9351 5.31063 21.001 5.64442 21.001C5.97821 21.001 6.30872 20.9351 6.61697 20.807C6.92522 20.679 7.20514 20.4913 7.44067 20.2548L12.2669 15.4285C12.4026 15.2936 12.5103 15.1333 12.5838 14.9566C12.6573 14.7799 12.6952 14.5905 12.6952 14.3991C12.6952 14.2078 12.6573 14.0184 12.5838 13.8417C12.5103 13.665 12.4026 13.5046 12.2669 13.3698L11.7119 12.8073L16.4669 8.05227C16.7318 8.24954 17.0543 8.35389 17.3845 8.34914C17.7147 8.3444 18.0341 8.23082 18.2932 8.02602L20.6257 6.20727L20.7157 6.12852C20.8054 6.0402 20.8767 5.93497 20.9255 5.81892C20.9743 5.70288 20.9996 5.57831 20.9999 5.45243C21.0003 5.32654 20.9756 5.20183 20.9275 5.08552C20.8794 4.9692 20.8086 4.86358 20.7194 4.77477ZM11.9444 14.3785C11.9445 14.472 11.926 14.5646 11.8899 14.6509C11.8539 14.7371 11.801 14.8154 11.7344 14.881L6.91567 19.7073C6.74954 19.8736 6.55225 20.0056 6.33509 20.0956C6.11792 20.1856 5.88514 20.232 5.65005 20.232C5.41496 20.232 5.18218 20.1856 4.96501 20.0956C4.74785 20.0056 4.55055 19.8736 4.38442 19.7073L4.27942 19.5985C3.94463 19.2631 3.7566 18.8086 3.7566 18.3348C3.7566 17.8609 3.94463 17.4064 4.27942 17.071L9.10567 12.2448C9.23902 12.1131 9.41889 12.0393 9.6063 12.0393C9.79371 12.0393 9.97357 12.1131 10.1069 12.2448L10.9244 13.0623L11.7419 13.8798C11.8069 13.9455 11.8582 14.0234 11.8929 14.1089C11.9277 14.1945 11.9452 14.2861 11.9444 14.3785ZM20.1644 5.60352L17.8319 7.42228C17.683 7.53693 17.4975 7.59366 17.31 7.58193C17.1224 7.57021 16.9454 7.49083 16.8119 7.35852L16.6207 7.16727C16.4876 7.03418 16.4078 6.85713 16.396 6.66932C16.3843 6.48152 16.4415 6.29588 16.5569 6.14727L18.3757 3.81102C18.3937 3.78745 18.417 3.76839 18.4437 3.75537C18.4704 3.74235 18.4997 3.73573 18.5294 3.73602C18.5821 3.7372 18.6326 3.75715 18.6719 3.79227L20.1719 5.29227C20.1943 5.31182 20.2121 5.33606 20.2241 5.36325C20.236 5.39045 20.2419 5.41995 20.2411 5.44966C20.2404 5.47936 20.2332 5.50854 20.2199 5.53513C20.2067 5.56173 20.1877 5.58508 20.1644 5.60352ZM9.31192 13.5085C9.24166 13.4387 9.14662 13.3995 9.04755 13.3995C8.94848 13.3995 8.85343 13.4387 8.78317 13.5085L5.07067 17.221C5.03553 17.2559 5.00763 17.2974 4.98859 17.3431C4.96955 17.3888 4.95975 17.4378 4.95975 17.4873C4.95975 17.5368 4.96955 17.5858 4.98859 17.6315C5.00763 17.6772 5.03553 17.7187 5.07067 17.7535C5.10572 17.7883 5.14727 17.8158 5.19296 17.8344C5.23865 17.8531 5.28757 17.8626 5.33692 17.8623C5.4353 17.8619 5.52958 17.8228 5.59943 17.7535L9.31192 14.041C9.34707 14.0062 9.37497 13.9647 9.39401 13.919C9.41304 13.8733 9.42285 13.8243 9.42285 13.7748C9.42285 13.7253 9.41304 13.6763 9.39401 13.6306C9.37497 13.5849 9.34707 13.5434 9.31192 13.5085ZM6.13193 18.2824L9.84443 14.5699C9.87805 14.5306 9.91942 14.4987 9.96595 14.4762C10.0125 14.4537 10.0631 14.4411 10.1148 14.4391C10.1664 14.4371 10.2179 14.4458 10.2661 14.4646C10.3142 14.4835 10.3579 14.5121 10.3944 14.5486C10.431 14.5852 10.4596 14.6289 10.4784 14.677C10.4973 14.7251 10.506 14.7766 10.504 14.8283C10.502 14.8799 10.4893 14.9306 10.4668 14.9771C10.4443 15.0236 10.4124 15.065 10.3732 15.0986L6.66069 18.8111C6.59145 18.8818 6.49709 18.9222 6.39818 18.9236C6.3237 18.924 6.25077 18.9023 6.1887 18.8611C6.12663 18.8199 6.07823 18.7612 6.04967 18.6924C6.02111 18.6236 6.01368 18.5479 6.02833 18.4749C6.04298 18.4018 6.07905 18.3348 6.13193 18.2824Z" fill="black"/>
</svg>
