<svg width="24" height="24" viewBox="0 0 24 24" fill="none" xmlns="http://www.w3.org/2000/svg">
<path fill-rule="evenodd" clip-rule="evenodd" d="M4.875 6H4.125C4.02554 6 3.93016 6.0395 3.85983 6.10983C3.78951 6.18016 3.75 6.27554 3.75 6.375V8.625C3.75 9.71902 4.1846 10.7682 4.95818 11.5418C5.37485 11.9585 5.87147 12.2768 6.41199 12.4818C6.47266 12.4879 6.53078 12.5086 6.58138 12.5419C6.99495 12.6785 7.43129 12.75 7.875 12.75C8.31871 12.75 8.75505 12.6785 9.16862 12.5419C9.21922 12.5086 9.27734 12.4879 9.33801 12.4818C9.87853 12.2768 10.3752 11.9585 10.7918 11.5418C11.5654 10.7682 12 9.71902 12 8.625V6.375C12 6.27554 11.9605 6.18016 11.8902 6.10983C11.8198 6.0395 11.7245 6 11.625 6H10.875H4.875ZM11.25 5.25V3.375C11.25 3.27554 11.2105 3.18016 11.1402 3.10983C11.0698 3.0395 10.9745 3 10.875 3C10.7755 3 10.6802 3.0395 10.6098 3.10983C10.5395 3.18016 10.5 3.27554 10.5 3.375V5.25H5.25V3.375C5.25 3.27554 5.21049 3.18016 5.14017 3.10983C5.06984 3.0395 4.97446 3 4.875 3C4.77554 3 4.68016 3.0395 4.60983 3.10983C4.53951 3.18016 4.5 3.27554 4.5 3.375V5.25H4.125C3.82663 5.25 3.54048 5.36853 3.3295 5.57951C3.11853 5.79049 3 6.07663 3 6.375V8.625C3 9.91793 3.51361 11.1579 4.42785 12.0721C4.88252 12.5268 5.41776 12.8824 6 13.125V14.625C6 14.9234 6.11853 15.2095 6.3295 15.4205C6.54048 15.6315 6.82663 15.75 7.125 15.75H7.5V17.625C7.5 18.5201 7.85558 19.3785 8.48851 20.0115C9.12145 20.6444 9.97989 21 10.875 21C11.7701 21 12.6285 20.6444 13.2615 20.0115C13.8944 19.3785 14.25 18.5201 14.25 17.625V17.0625C14.252 16.1183 14.628 15.2133 15.2956 14.5456C15.9633 13.878 16.8683 13.502 17.8125 13.5H20.625C20.7245 13.5 20.8198 13.4605 20.8902 13.3902C20.9605 13.3198 21 13.2245 21 13.125C21 13.0255 20.9605 12.9302 20.8902 12.8598C20.8198 12.7895 20.7245 12.75 20.625 12.75H17.8125C16.6694 12.752 15.5736 13.207 14.7653 14.0153C13.957 14.8236 13.502 15.9194 13.5 17.0625V17.625C13.5 18.3212 13.2234 18.9889 12.7312 19.4812C12.2389 19.9734 11.5712 20.25 10.875 20.25C10.1788 20.25 9.51113 19.9734 9.01885 19.4812C8.52656 18.9889 8.25 18.3212 8.25 17.625V15.75H8.625C8.77401 15.75 8.92153 15.7204 9.05901 15.663C9.19649 15.6055 9.32118 15.5213 9.42585 15.4152C9.53051 15.3092 9.61306 15.1834 9.66871 15.0451C9.72435 14.9069 9.75199 14.759 9.75 14.61V13.125C10.3377 12.8801 10.8719 12.5224 11.3221 12.0721C11.7748 11.6195 12.1339 11.082 12.3789 10.4906C12.6239 9.89912 12.75 9.26519 12.75 8.625V6.375C12.75 6.07663 12.6315 5.79049 12.4205 5.57951C12.2095 5.36853 11.9234 5.25 11.625 5.25H11.25ZM9 13.3684C8.63224 13.4556 8.25472 13.5 7.875 13.5C7.49303 13.5 7.11569 13.4552 6.75 13.3684V14.61C6.75 14.7095 6.78951 14.8049 6.85983 14.8752C6.93016 14.9455 7.02554 14.985 7.125 14.985H8.625C8.72446 14.985 8.81984 14.9455 8.89017 14.8752C8.96049 14.8049 9 14.7095 9 14.61V13.3684ZM9.375 8.25H6.375C6.27554 8.25 6.18016 8.21049 6.10983 8.14016C6.03951 8.06983 6 7.97446 6 7.875C6 7.77554 6.03951 7.68016 6.10983 7.60983C6.18016 7.5395 6.27554 7.5 6.375 7.5H9.375C9.47446 7.5 9.56984 7.5395 9.64017 7.60983C9.71049 7.68016 9.75 7.77554 9.75 7.875C9.75 7.97446 9.71049 8.06983 9.64017 8.14016C9.56984 8.21049 9.47446 8.25 9.375 8.25Z" fill="black"/>
</svg>
