<svg width="24" height="24" viewBox="0 0 24 24" fill="none" xmlns="http://www.w3.org/2000/svg">
<path fill-rule="evenodd" clip-rule="evenodd" d="M19.5018 6.46949C19.4561 6.45018 19.4147 6.42198 19.38 6.38655C17.6867 4.69908 15.3936 3.75156 13.0031 3.75156C10.6126 3.75156 8.31949 4.69908 6.62623 6.38655C6.55612 6.45717 6.46082 6.49704 6.36131 6.49739C6.2618 6.49774 6.16622 6.45854 6.09561 6.38843C6.02499 6.31831 5.98513 6.22302 5.98477 6.12351C5.98442 6.024 6.02362 5.92841 6.09373 5.8578C7.92782 4.02836 10.4126 3.00098 13.0031 3.00098C15.5936 3.00098 18.0784 4.02836 19.9125 5.8578C19.9654 5.91025 20.0014 5.97727 20.0161 6.0503C20.0307 6.12333 20.0233 6.19907 19.9948 6.26786C19.9662 6.33666 19.9178 6.39538 19.8557 6.43655C19.7936 6.47773 19.7207 6.49949 19.6462 6.49906C19.5966 6.49885 19.5475 6.4888 19.5018 6.46949ZM8.62875 8.88035C8.59766 8.90649 8.56675 8.93246 8.53875 8.9628C8.5151 8.9759 8.48991 8.98599 8.46375 8.9928L8.41875 9.0228C8.37225 9.04169 8.32268 9.05187 8.2725 9.0528C8.22879 9.05155 8.18564 9.04267 8.145 9.02655L8.10375 9.00781C8.08425 8.99929 8.06544 8.98925 8.0475 8.9778C8.0475 8.96842 8.05313 8.96374 8.05594 8.9614C8.05694 8.96056 8.05758 8.96003 8.05749 8.95968C8.05733 8.95905 8.05475 8.95905 8.04752 8.95905H8.0475C8.03625 8.95905 8.03812 8.96187 8.03906 8.96327C8.03928 8.96361 8.03945 8.96386 8.03938 8.96398C8.03917 8.96437 8.03646 8.96335 8.025 8.95905C7.995 8.9478 7.995 8.9178 7.995 8.9178C7.97901 8.8988 7.96633 8.87726 7.9575 8.85406C7.94652 8.83379 7.93772 8.81242 7.93125 8.7903C7.92972 8.76657 7.92972 8.74277 7.93125 8.71905C7.92753 8.69545 7.92753 8.6714 7.93125 8.6478C7.92768 8.62544 7.92768 8.60266 7.93125 8.5803C7.93862 8.5549 7.95001 8.53084 7.965 8.50905C7.96565 8.49531 7.96565 8.48155 7.965 8.46781L7.99875 8.4303L8.0475 8.38531C8.20061 8.23151 8.36211 8.08628 8.53125 7.9503C8.5515 7.9323 8.57175 7.91835 8.592 7.9044L8.59201 7.9044L8.59201 7.90439L8.59202 7.90439L8.59202 7.90438L8.59203 7.90438C8.60552 7.89509 8.61901 7.88579 8.6325 7.8753C8.7847 7.75036 8.94369 7.63393 9.10875 7.52655L9.13875 7.50405C10.2877 6.75203 11.6318 6.3531 13.005 6.35655C14.3967 6.34567 15.7604 6.74759 16.9237 7.51155C16.9682 7.54515 17.0124 7.57823 17.0563 7.61106L17.0564 7.6111C17.179 7.70284 17.299 7.79266 17.415 7.88655L17.4975 7.9503C17.6838 8.10024 17.8616 8.26049 18.03 8.4303C18.065 8.46527 18.0927 8.50677 18.1116 8.55246C18.1305 8.59814 18.1403 8.6471 18.1403 8.69655C18.1403 8.746 18.1305 8.79496 18.1116 8.84064C18.0927 8.88633 18.065 8.92783 18.03 8.9628C17.995 8.99776 17.9535 9.02551 17.9078 9.04443C17.8622 9.06335 17.8132 9.07308 17.7638 9.07308C17.7143 9.07308 17.6653 9.06335 17.6197 9.04443C17.574 9.02551 17.5325 8.99776 17.4975 8.9628C17.346 8.81119 17.1871 8.66726 17.0213 8.53155C16.9916 8.50695 16.9602 8.4844 16.9275 8.46405C16.7932 8.35287 16.653 8.24896 16.5075 8.1528L16.4775 8.13405C15.4548 7.47358 14.2643 7.11978 13.0469 7.11446C11.8295 7.10915 10.636 7.45254 9.6075 8.10406L9.5325 8.14905C9.405 8.2353 9.28125 8.32905 9.1575 8.42655C9.14012 8.43958 9.12218 8.45206 9.10412 8.46462L9.10411 8.46463L9.1041 8.46463L9.1041 8.46464C9.07539 8.4846 9.04637 8.50478 9.01875 8.5278C8.90257 8.62149 8.79388 8.72643 8.68519 8.83137L8.685 8.83156C8.6666 8.84854 8.64767 8.86446 8.6288 8.88031L8.62879 8.88032L8.62878 8.88033L8.62877 8.88034L8.62875 8.88035ZM15.0562 11.0778C15.1388 11.1335 15.2401 11.1541 15.3378 11.1351C15.4356 11.1161 15.5218 11.0591 15.5775 10.9765C15.6332 10.894 15.6538 10.7927 15.6348 10.6949C15.6158 10.5972 15.5588 10.511 15.4762 10.4553C14.628 9.8877 13.6094 9.63134 12.5935 9.72979C11.5777 9.82823 10.6272 10.2754 9.90374 10.9953C9.86859 11.0301 9.84069 11.0716 9.82166 11.1173C9.80262 11.163 9.79282 11.212 9.79282 11.2615C9.79282 11.311 9.80262 11.3601 9.82166 11.4057C9.84069 11.4514 9.86859 11.4929 9.90374 11.5278C9.93878 11.5625 9.98033 11.59 10.026 11.6087C10.0717 11.6274 10.1206 11.6368 10.17 11.6365C10.2193 11.6368 10.2683 11.6274 10.314 11.6087C10.3596 11.59 10.4012 11.5625 10.4362 11.5278C11.0352 10.9295 11.8231 10.5577 12.6657 10.4756C13.5082 10.3935 14.3531 10.6064 15.0562 11.0778ZM13.2927 13.7017C13.2223 13.772 13.127 13.8115 13.0275 13.8115C12.7709 13.8115 12.5248 13.9134 12.3434 14.0949C12.1619 14.2763 12.06 14.5224 12.06 14.779C12.06 15.0356 12.1619 15.2817 12.3434 15.4631C12.5248 15.6446 12.7709 15.7465 13.0275 15.7465C13.127 15.7465 13.2223 15.786 13.2927 15.8564C13.363 15.9267 13.4025 16.0221 13.4025 16.1215C13.4025 16.221 13.363 16.3164 13.2927 16.3867C13.2223 16.457 13.127 16.4965 13.0275 16.4965C12.572 16.4965 12.1351 16.3156 11.813 15.9935C11.491 15.6714 11.31 15.2345 11.31 14.779C11.31 14.3235 11.491 13.8867 11.813 13.5646C12.1351 13.2425 12.572 13.0615 13.0275 13.0615C13.127 13.0615 13.2223 13.101 13.2927 13.1714C13.363 13.2417 13.4025 13.3371 13.4025 13.4365C13.4025 13.536 13.363 13.6314 13.2927 13.7017ZM23.31 17.4415C23.216 17.4093 23.1131 17.4157 23.0238 17.4592C22.9345 17.5028 22.8661 17.5801 22.8337 17.674C22.5665 18.4617 22.0482 19.14 21.3583 19.6046C20.6683 20.0692 19.845 20.2945 19.0146 20.246C18.1843 20.1975 17.3928 19.8777 16.7617 19.3359C16.1306 18.794 15.6948 18.06 15.5212 17.2465H17.25C17.3495 17.2465 17.4448 17.207 17.5152 17.1367C17.5855 17.0664 17.625 16.971 17.625 16.8715C17.625 16.7721 17.5855 16.6767 17.5152 16.6064C17.4448 16.5361 17.3495 16.4965 17.25 16.4965H14.625C14.5255 16.4965 14.4302 16.5361 14.3598 16.6064C14.2895 16.6767 14.25 16.7721 14.25 16.8715V19.4965C14.25 19.596 14.2895 19.6914 14.3598 19.7617C14.4302 19.832 14.5255 19.8715 14.625 19.8715C14.7244 19.8715 14.8198 19.832 14.8902 19.7617C14.9605 19.6914 15 19.596 15 19.4965V18.1203C15.3423 18.9867 15.9421 19.7271 16.7186 20.2419C17.495 20.7566 18.4106 21.0207 19.3419 20.9986C20.2731 20.9766 21.1752 20.6693 21.9264 20.1184C22.6775 19.5675 23.2416 18.7994 23.5425 17.9178C23.5747 17.8238 23.5684 17.7209 23.5248 17.6316C23.4812 17.5423 23.4039 17.4739 23.31 17.4415ZM23.3598 12.4814C23.4302 12.411 23.5255 12.3715 23.625 12.3715C23.7244 12.3715 23.8198 12.411 23.8902 12.4814C23.9605 12.5517 24 12.6471 24 12.7465V15.3715C24 15.471 23.9605 15.5664 23.8902 15.6367C23.8198 15.707 23.7244 15.7465 23.625 15.7465H21C20.9005 15.7465 20.8052 15.707 20.7348 15.6367C20.6645 15.5664 20.625 15.471 20.625 15.3715C20.625 15.2721 20.6645 15.1767 20.7348 15.1064C20.8052 15.036 20.9005 14.9965 21 14.9965H22.7287C22.5551 14.183 22.1194 13.449 21.4883 12.9072C20.8572 12.3653 20.0657 12.0456 19.2353 11.9971C18.405 11.9485 17.5816 12.1739 16.8917 12.6385C16.2018 13.1031 15.6834 13.7813 15.4162 14.569C15.3813 14.6596 15.3126 14.7331 15.2246 14.7741C15.1366 14.815 15.0362 14.8203 14.9444 14.7887C14.8526 14.7572 14.7766 14.6912 14.7324 14.6048C14.6883 14.5184 14.6793 14.4182 14.7075 14.3253C15.0084 13.4437 15.5724 12.6756 16.3236 12.1247C17.0748 11.5737 17.9768 11.2665 18.9081 11.2444C19.8394 11.2224 20.755 11.4865 21.5314 12.0012C22.3078 12.5159 22.9077 13.2564 23.25 14.1228V12.7465C23.25 12.6471 23.2895 12.5517 23.3598 12.4814Z" fill="black"/>
</svg>
