<svg width="64" height="64" viewBox="0 0 64 64" fill="none" xmlns="http://www.w3.org/2000/svg">
<path fill-rule="evenodd" clip-rule="evenodd" d="M11.375 14.1875C11.375 13.6697 11.7947 13.25 12.3125 13.25H51.6875C52.2053 13.25 52.625 13.6697 52.625 14.1875V37.625H11.375V14.1875ZM9.5 38.5625V14.1875C9.5 12.6342 10.7592 11.375 12.3125 11.375H51.6875C53.2408 11.375 54.5 12.6342 54.5 14.1875V38.5625V42.3125C54.5 43.8658 53.2408 45.125 51.6875 45.125H35.8359C36.0993 47.1572 36.8732 49.0932 38.0889 50.75H40.4356C40.9534 50.75 41.3731 51.1697 41.3731 51.6875C41.3731 52.2053 40.9534 52.625 40.4356 52.625H37.636H37.6152H26.3848H26.364H23.5606C23.0429 52.625 22.6231 52.2053 22.6231 51.6875C22.6231 51.1697 23.0429 50.75 23.5606 50.75H25.9111C27.1268 49.0932 27.9007 47.1572 28.1641 45.125H12.3125C10.7592 45.125 9.5 43.8658 9.5 42.3125V38.5625ZM30.0527 45.125C29.8295 47.1171 29.182 49.0348 28.1584 50.75H35.8416C34.818 49.0348 34.1705 47.1171 33.9473 45.125H30.0527ZM52.625 39.5V42.3125C52.625 42.8303 52.2053 43.25 51.6875 43.25H12.3125C11.7947 43.25 11.375 42.8303 11.375 42.3125V39.5H52.625Z" fill="black"/>
</svg>
