<svg width="24" height="24" viewBox="0 0 24 24" fill="none" xmlns="http://www.w3.org/2000/svg">
<path fill-rule="evenodd" clip-rule="evenodd" d="M17.67 3.33C17.4593 3.11896 17.1733 3.00026 16.875 3H1.12503C0.826663 3 0.540509 3.11852 0.32953 3.3295C0.118552 3.54048 3.19547e-05 3.82663 3.19547e-05 4.125V6.375C-0.0016575 6.55811 0.0636964 6.7355 0.183778 6.87374C0.305024 7.01275 0.473245 7.1022 0.656282 7.125C1.20127 7.19212 1.70289 7.45623 2.06666 7.86755C2.43043 8.27887 2.63122 8.80902 2.63122 9.35812C2.63122 9.90722 2.43043 10.4374 2.06666 10.8487C1.70289 11.26 1.20127 11.5241 0.656282 11.5913C0.473245 11.614 0.305024 11.7035 0.183778 11.8425C0.0645525 11.9798 -0.00074346 12.1557 3.19547e-05 12.3375V14.6475C3.19547e-05 14.9459 0.118552 15.232 0.32953 15.443C0.540509 15.654 0.826663 15.7725 1.12503 15.7725H6.75003C6.84949 15.7725 6.94487 15.733 7.01519 15.6627C7.08552 15.5923 7.12503 15.497 7.12503 15.3975C7.12503 15.298 7.08552 15.2027 7.01519 15.1323C6.94487 15.062 6.84949 15.0225 6.75003 15.0225H1.12503C1.07542 15.0223 1.02633 15.0122 0.98063 14.9929C0.934927 14.9736 0.893504 14.9454 0.858774 14.91C0.789495 14.8402 0.750446 14.7459 0.750032 14.6475V12.3712C1.47982 12.2852 2.15264 11.9343 2.64089 11.3852C3.12914 10.836 3.39885 10.1267 3.39885 9.39187C3.39885 8.65703 3.12914 7.94775 2.64089 7.39857C2.15264 6.84939 1.47982 6.49852 0.750032 6.4125V4.14375C0.750446 4.04537 0.789495 3.9511 0.858774 3.88125C0.893504 3.84582 0.934927 3.81763 0.98063 3.79832C1.02633 3.77901 1.07542 3.76895 1.12503 3.76875H16.875C16.9745 3.76875 17.0699 3.80826 17.1402 3.87859C17.2105 3.94891 17.25 4.04429 17.25 4.14375V6.3975C16.854 6.44718 16.4717 6.57462 16.125 6.7725C15.7768 6.97466 15.4728 7.24486 15.2312 7.56699C14.9896 7.88912 14.8154 8.25659 14.7188 8.6475C14.619 9.03562 14.5974 9.43969 14.655 9.83625C14.6624 9.88503 14.6792 9.93189 14.7047 9.97413C14.7302 10.0164 14.7637 10.0532 14.8034 10.0825C14.8431 10.1117 14.8882 10.1329 14.9361 10.1447C14.984 10.1565 15.0338 10.1587 15.0825 10.1513C15.1313 10.1439 15.1782 10.127 15.2204 10.1016C15.2627 10.0761 15.2995 10.0426 15.3287 10.0029C15.358 9.96315 15.3791 9.91806 15.3909 9.87016C15.4027 9.82227 15.405 9.77251 15.3975 9.72375C15.3524 9.4275 15.3677 9.12518 15.4425 8.835C15.5138 8.54552 15.6412 8.27286 15.8175 8.03249C15.9997 7.79337 16.2279 7.59319 16.4888 7.44375C16.7473 7.29137 17.0346 7.19432 17.3325 7.15875C17.5148 7.13579 17.6823 7.04675 17.8032 6.90851C17.9242 6.77027 17.9902 6.59244 17.9888 6.40875V4.1325C17.9911 3.98433 17.9642 3.83717 17.9095 3.69945C17.8548 3.56173 17.7734 3.43618 17.67 3.33ZM10.4166 12.0716C11.2183 11.5359 12.1609 11.25 13.1251 11.25C14.418 11.25 15.658 11.7636 16.5722 12.6779C17.4864 13.5921 18.0001 14.8321 18.0001 16.125C18.0001 17.0892 17.7141 18.0317 17.1785 18.8334C16.6428 19.6351 15.8814 20.2599 14.9906 20.6289C14.0999 20.9979 13.1196 21.0944 12.174 20.9063C11.2283 20.7182 10.3597 20.2539 9.67791 19.5721C8.99613 18.8904 8.53184 18.0217 8.34373 17.0761C8.15563 16.1304 8.25217 15.1502 8.62115 14.2594C8.99013 13.3686 9.61496 12.6073 10.4166 12.0716ZM10.8333 19.5548C11.5117 20.0081 12.3092 20.25 13.1251 20.25V20.2725C13.6687 20.2725 14.2069 20.1651 14.7088 19.9564C15.2108 19.7477 15.6665 19.4418 16.0499 19.0564C16.4332 18.6709 16.7366 18.2135 16.9425 17.7105C17.1485 17.2074 17.253 16.6686 17.2501 16.125C17.2501 15.3092 17.0081 14.5116 16.5549 13.8333C16.1016 13.1549 15.4574 12.6262 14.7036 12.314C13.9499 12.0018 13.1205 11.9201 12.3203 12.0793C11.5201 12.2384 10.7851 12.6313 10.2082 13.2082C9.63135 13.7851 9.23848 14.5201 9.07932 15.3203C8.92015 16.1204 9.00185 16.9498 9.31406 17.7036C9.62627 18.4573 10.155 19.1015 10.8333 19.5548ZM13.5001 15.7725H14.6251C14.7245 15.7725 14.8199 15.812 14.8902 15.8824C14.9605 15.9527 15.0001 16.0481 15.0001 16.1475C15.0001 16.247 14.9605 16.3424 14.8902 16.4127C14.8199 16.483 14.7245 16.5225 14.6251 16.5225H13.1251C13.0256 16.5225 12.9302 16.483 12.8599 16.4127C12.7896 16.3424 12.7501 16.247 12.7501 16.1475V13.8975C12.7501 13.7981 12.7896 13.7027 12.8599 13.6324C12.9302 13.562 13.0256 13.5225 13.1251 13.5225C13.2245 13.5225 13.3199 13.562 13.3902 13.6324C13.4605 13.7027 13.5001 13.7981 13.5001 13.8975V15.7725ZM12.5626 5.25C12.5626 5.56066 12.3107 5.8125 12.0001 5.8125C11.6894 5.8125 11.4376 5.56066 11.4376 5.25C11.4376 4.93934 11.6894 4.6875 12.0001 4.6875C12.3107 4.6875 12.5626 4.93934 12.5626 5.25ZM12.0001 8.0625C12.3107 8.0625 12.5626 7.81066 12.5626 7.5C12.5626 7.18934 12.3107 6.9375 12.0001 6.9375C11.6894 6.9375 11.4376 7.18934 11.4376 7.5C11.4376 7.81066 11.6894 8.0625 12.0001 8.0625ZM12.5626 9.75C12.5626 10.0607 12.3107 10.3125 12.0001 10.3125C11.6894 10.3125 11.4376 10.0607 11.4376 9.75C11.4376 9.43934 11.6894 9.1875 12.0001 9.1875C12.3107 9.1875 12.5626 9.43934 12.5626 9.75Z" fill="black"/>
</svg>
