<svg width="64" height="64" viewBox="0 0 64 64" fill="none" xmlns="http://www.w3.org/2000/svg">
<g clip-path="url(#clip0_498_1471)">
<path d="M63.41 37.3048C63.8004 35.5685 63.9982 33.7945 64 32.0148C64.0009 25.8148 61.5953 19.8564 57.29 15.3948L57.17 15.2648C54.6597 12.6864 51.6017 10.7055 48.2224 9.46877C44.843 8.232 41.2288 7.77102 37.6472 8.1199C34.0655 8.46878 30.6082 9.61859 27.5311 11.4843C24.4539 13.35 21.8357 15.8838 19.8702 18.8981C17.9046 21.9125 16.6421 25.3303 16.1761 28.8985C15.71 32.4668 16.0523 36.0942 17.1777 39.5123C18.3031 42.9303 20.1827 46.0516 22.6774 48.645C25.1722 51.2385 28.2182 53.2378 31.59 54.4948H31.65C34.8478 55.6809 38.2617 56.1717 41.6642 55.9346C45.0666 55.6975 48.3794 54.738 51.3818 53.1199C54.3843 51.5019 57.0073 49.2624 59.0762 46.5509C61.1451 43.8393 62.6123 40.718 63.38 37.3948C63.3941 37.3663 63.4042 37.3361 63.41 37.3048ZM61.63 36.0748H60.22C59.3949 36.076 58.5823 35.873 57.8547 35.4839C57.1271 35.0948 56.5071 34.5317 56.05 33.8448L51.62 27.1848C50.9815 26.226 50.1163 25.4397 49.101 24.8954C48.0858 24.3512 46.9519 24.0658 45.8 24.0648H44.92C43.9918 24.0648 43.1015 23.6961 42.4452 23.0397C41.7888 22.3833 41.42 21.4931 41.42 20.5648C41.42 19.6366 41.7888 18.7463 42.4452 18.09C43.1015 17.4336 43.9918 17.0648 44.92 17.0648H56.09C58.4416 19.5741 60.1701 22.6012 61.136 25.9017C62.1018 29.2023 62.2779 32.6837 61.65 36.0648L61.63 36.0748ZM18 32.0748C18.0045 31.0713 18.0747 30.0692 18.21 29.0748H29.52C30.1766 29.073 30.8269 29.202 31.433 29.4544C32.0391 29.7068 32.5888 30.0775 33.05 30.5448L35.29 32.7848C36.1923 33.6869 36.7156 34.8998 36.7528 36.1751C36.79 37.4504 36.3382 38.6917 35.49 39.6448L32.77 42.7048C31.6305 43.9858 31.0007 45.6404 31 47.3548V52.0748C27.1302 50.3399 23.8443 47.5234 21.5379 43.9645C19.2315 40.4055 18.0029 36.2558 18 32.0148V32.0748ZM40 54.0748C37.6197 54.0745 35.2554 53.686 33 52.9248V47.3448C32.9997 46.1213 33.448 44.9401 34.26 44.0248L36.99 40.9648C38.1763 39.6307 38.8081 37.8937 38.756 36.1092C38.704 34.3247 37.9721 32.6275 36.71 31.3648L34.47 29.0748C33.82 28.4248 33.0482 27.9092 32.1989 27.5575C31.3496 27.2057 30.4393 27.0248 29.52 27.0248H18.58C19.4316 23.3857 21.1963 20.0235 23.7075 17.2555C26.2188 14.4874 29.3938 12.4047 32.9331 11.2039C36.4724 10.0032 40.2593 9.72385 43.9364 10.3924C47.6136 11.0609 51.0598 12.6552 53.95 15.0248H44.95C43.4913 15.0248 42.0924 15.6043 41.0609 16.6357C40.0295 17.6672 39.45 19.0661 39.45 20.5248C39.45 21.9835 40.0295 23.3825 41.0609 24.4139C42.0924 25.4454 43.4913 26.0248 44.95 26.0248H45.83C46.6517 26.0269 47.4603 26.2315 48.1841 26.6204C48.908 27.0094 49.5248 27.5707 49.98 28.2548L54.42 34.9148C55.0594 35.875 55.9263 36.6623 56.9434 37.2066C57.9605 37.7509 59.0964 38.0354 60.25 38.0348H61.19C59.8902 42.6533 57.1163 46.7203 53.2907 49.6161C49.4652 52.5118 44.7979 54.0776 40 54.0748Z" fill="black"/>
</g>
<defs>
<clipPath id="clip0_498_1471">
<rect width="64" height="64" fill="white"/>
</clipPath>
</defs>
</svg>
