<svg width="24" height="24" viewBox="0 0 24 24" fill="none" xmlns="http://www.w3.org/2000/svg">
<path fill-rule="evenodd" clip-rule="evenodd" d="M6.01334 15.75H16.4983C16.7967 15.75 17.0829 15.6315 17.2938 15.4205C17.5048 15.2095 17.6233 14.9234 17.6233 14.625C17.6233 14.3267 17.5048 14.0405 17.2938 13.8295C17.0829 13.6185 16.7967 13.5 16.4983 13.5H5.66834C5.51119 13.497 5.35894 13.4447 5.23311 13.3505C5.10728 13.2563 5.01422 13.125 4.96709 12.975L3.7971 9.22502C3.77491 9.15207 3.76354 9.07627 3.76334 9.00002C3.76319 8.80197 3.84137 8.61189 3.98084 8.47127C4.05062 8.40108 4.13359 8.3454 4.22498 8.30742C4.31637 8.26945 4.41438 8.24994 4.51334 8.25002H17.3421C17.6179 8.25212 17.8849 8.15283 18.0923 7.971C18.2997 7.78917 18.4331 7.53749 18.4671 7.26377L18.7183 5.25002H20.6271C20.7266 5.25002 20.8219 5.21051 20.8923 5.14018C20.9626 5.06985 21.0021 4.97448 21.0021 4.87502C21.0021 4.77556 20.9626 4.68017 20.8923 4.60985C20.8219 4.53952 20.7266 4.50002 20.6271 4.50002H18.7108C18.5266 4.49869 18.3483 4.56523 18.21 4.68696C18.0716 4.80869 17.983 4.97708 17.9608 5.16001L17.7096 7.17002C17.6985 7.26148 17.6542 7.34568 17.585 7.40654C17.5159 7.46741 17.4267 7.50069 17.3346 7.50002H4.4946C4.25969 7.50054 4.0282 7.55622 3.81875 7.66258C3.60931 7.76894 3.42777 7.923 3.28876 8.11236C3.14976 8.30172 3.05716 8.52108 3.01844 8.75277C2.97972 8.98446 2.99596 9.222 3.06584 9.44627L4.23584 13.1963C4.33103 13.5017 4.52138 13.7687 4.7791 13.9583C5.03682 14.1479 5.34841 14.2501 5.66834 14.25H16.5133C16.6128 14.25 16.7082 14.2895 16.7785 14.3598C16.8488 14.4302 16.8883 14.5256 16.8883 14.625C16.8883 14.7245 16.8488 14.8199 16.7785 14.8902C16.7082 14.9605 16.6128 15 16.5133 15H6.01334C5.91389 15 5.8185 15.0395 5.74818 15.1098C5.67785 15.1802 5.63834 15.2756 5.63834 15.375C5.63834 15.4745 5.67785 15.5699 5.74818 15.6402C5.8185 15.7105 5.91389 15.75 6.01334 15.75ZM17.2521 12.735H17.2933C17.3861 12.7366 17.4762 12.7038 17.5461 12.6428C17.6161 12.5819 17.661 12.4971 17.6721 12.405L18.0021 9.40501C18.013 9.30556 17.984 9.20583 17.9214 9.12777C17.8588 9.04971 17.7678 8.99971 17.6683 8.98877C17.5689 8.97783 17.4692 9.00685 17.3911 9.06944C17.313 9.13203 17.263 9.22306 17.2521 9.32251L16.9221 12.3225C16.9116 12.4209 16.9403 12.5195 17.0021 12.5967C17.0639 12.674 17.1538 12.7237 17.2521 12.735ZM7.51335 19.5C7.21668 19.5 6.92667 19.412 6.68 19.2472C6.43332 19.0824 6.24106 18.8481 6.12753 18.574C6.014 18.3 5.9843 17.9984 6.04217 17.7074C6.10005 17.4164 6.24292 17.1491 6.45269 16.9394C6.66247 16.7296 6.92975 16.5867 7.22072 16.5288C7.51169 16.471 7.81329 16.5007 8.08738 16.6142C8.36147 16.7277 8.59574 16.92 8.76056 17.1667C8.92538 17.4133 9.01335 17.7033 9.01335 18C9.01335 18.3978 8.85532 18.7794 8.57401 19.0607C8.29271 19.342 7.91118 19.5 7.51335 19.5ZM7.51335 17.25C7.36502 17.25 7.22001 17.294 7.09668 17.3764C6.97334 17.4588 6.87721 17.576 6.82044 17.713C6.76368 17.85 6.74882 18.0008 6.77776 18.1463C6.8067 18.2918 6.87813 18.4255 6.98302 18.5303C7.08791 18.6352 7.22155 18.7067 7.36703 18.7356C7.51252 18.7645 7.66332 18.7497 7.80036 18.6929C7.93741 18.6362 8.05454 18.54 8.13696 18.4167C8.21937 18.2934 8.26335 18.1484 8.26335 18C8.26335 17.8011 8.18434 17.6103 8.04368 17.4697C7.90303 17.329 7.71227 17.25 7.51335 17.25ZM14.7027 19.0607C14.984 19.342 15.3655 19.5 15.7634 19.5C16.1612 19.5 16.5427 19.342 16.824 19.0607C17.1053 18.7794 17.2634 18.3978 17.2634 18C17.2634 17.6022 17.1053 17.2207 16.824 16.9394C16.5427 16.6581 16.1612 16.5 15.7634 16.5C15.3655 16.5 14.984 16.6581 14.7027 16.9394C14.4214 17.2207 14.2634 17.6022 14.2634 18C14.2634 18.3978 14.4214 18.7794 14.7027 19.0607ZM15.233 17.4697C15.3737 17.329 15.5644 17.25 15.7634 17.25C15.9623 17.25 16.153 17.329 16.2937 17.4697C16.4343 17.6103 16.5134 17.8011 16.5134 18C16.5134 18.1989 16.4343 18.3897 16.2937 18.5304C16.153 18.671 15.9623 18.75 15.7634 18.75C15.5644 18.75 15.3737 18.671 15.233 18.5304C15.0924 18.3897 15.0134 18.1989 15.0134 18C15.0134 17.8011 15.0924 17.6103 15.233 17.4697Z" fill="black"/>
</svg>
