<svg width="24" height="24" viewBox="0 0 24 24" fill="none" xmlns="http://www.w3.org/2000/svg">
<g clip-path="url(#clip0_1181_1298)">
<path fill-rule="evenodd" clip-rule="evenodd" d="M4.88873 2.85383C6.69767 1.64514 8.82441 1 11 1C13.9174 1 16.7153 2.15893 18.7782 4.22182C20.8411 6.28472 22 9.08262 22 12C22 14.1756 21.3549 16.3023 20.1462 18.1113C18.9375 19.9202 17.2195 21.3301 15.2095 22.1627C13.1995 22.9952 10.9878 23.2131 8.85401 22.7886C6.72022 22.3642 4.76021 21.3165 3.22183 19.7782C1.68345 18.2398 0.635804 16.2798 0.211367 14.146C-0.213071 12.0122 0.00476611 9.80047 0.83733 7.79048C1.66989 5.78049 3.07979 4.06253 4.88873 2.85383ZM5.39719 20.3852C7.05563 21.4933 9.00542 22.0848 11 22.0848C13.6739 22.0825 16.2377 21.0192 18.1285 19.1285C20.0192 17.2377 21.0825 14.6739 21.0848 12C21.0848 10.0054 20.4933 8.05562 19.3852 6.39718C18.2771 4.73875 16.702 3.44615 14.8593 2.68286C13.0165 1.91956 10.9888 1.71985 9.03256 2.10898C7.0763 2.4981 5.27936 3.45858 3.86897 4.86897C2.45859 6.27935 1.49811 8.07629 1.10898 10.0326C0.719857 11.9888 0.91957 14.0165 1.68286 15.8593C2.44616 17.702 3.73875 19.2771 5.39719 20.3852ZM10.2828 15.08L16.1304 7.16004C16.2039 7.0591 16.3145 6.99149 16.4379 6.9721C16.5612 6.95271 16.6873 6.98312 16.7882 7.05664C16.8891 7.13016 16.9567 7.24076 16.9761 7.36412C16.9955 7.48748 16.9651 7.6135 16.8916 7.71444L11.044 15.6344C10.9329 15.7845 10.7926 15.9106 10.6316 16.0051C10.4705 16.0996 10.292 16.1606 10.1068 16.1844H9.9352C9.61629 16.1882 9.3057 16.0826 9.0552 15.8852L5.214 12.8052C5.16453 12.7691 5.12314 12.7231 5.09247 12.6701C5.0618 12.6171 5.04254 12.5583 5.03591 12.4974C5.02929 12.4365 5.03544 12.3749 5.05399 12.3165C5.07253 12.2582 5.10305 12.2043 5.1436 12.1584C5.1797 12.1096 5.2255 12.0688 5.27813 12.0386C5.33076 12.0084 5.38907 11.9893 5.44941 11.9827C5.50974 11.9761 5.57079 11.9821 5.62872 12.0002C5.68665 12.0183 5.7402 12.0482 5.786 12.088L9.6272 15.168C9.72491 15.2432 9.84781 15.2779 9.9704 15.2648C10.0321 15.2562 10.0915 15.2355 10.1451 15.2038C10.1988 15.172 10.2456 15.13 10.2828 15.08Z" fill="black"/>
</g>
<defs>
<clipPath id="clip0_1181_1298">
<rect width="24" height="24" fill="white"/>
</clipPath>
</defs>
</svg>
