<svg width="64" height="64" viewBox="0 0 64 64" fill="none" xmlns="http://www.w3.org/2000/svg">
<path fill-rule="evenodd" clip-rule="evenodd" d="M14.1525 9.82794C14.6415 9.97677 14.9173 10.4938 14.7685 10.9828L1.81119 53.5568C1.66236 54.0458 1.14529 54.3216 0.65629 54.1727C0.167285 54.0239 -0.108483 53.5069 0.0403443 53.0178L12.9976 10.4439C13.1465 9.95488 13.6635 9.67911 14.1525 9.82794Z" fill="#000001"/>
<path fill-rule="evenodd" clip-rule="evenodd" d="M36.7331 37.1382C37.2221 36.9894 37.7391 37.2651 37.888 37.7541L42.5341 53.0178C42.6829 53.5068 42.4072 54.0239 41.9182 54.1727C41.4292 54.3216 40.9121 54.0458 40.7633 53.5568L36.1172 38.2931C35.9683 37.8041 36.2441 37.2871 36.7331 37.1382Z" fill="#000001"/>
<path fill-rule="evenodd" clip-rule="evenodd" d="M21.2872 44.9576C21.7984 44.9576 22.2127 45.372 22.2127 45.8832V53.2873C22.2127 53.7985 21.7984 54.2128 21.2872 54.2128C20.7761 54.2128 20.3617 53.7985 20.3617 53.2873V45.8832C20.3617 45.372 20.7761 44.9576 21.2872 44.9576Z" fill="#000001"/>
<path fill-rule="evenodd" clip-rule="evenodd" d="M21.2872 35.7024C21.7984 35.7024 22.2127 36.1168 22.2127 36.6279V40.33C22.2127 40.8412 21.7984 41.2555 21.2872 41.2555C20.7761 41.2555 20.3617 40.8412 20.3617 40.33V36.6279C20.3617 36.1168 20.7761 35.7024 21.2872 35.7024Z" fill="#000001"/>
<path fill-rule="evenodd" clip-rule="evenodd" d="M21.2872 9.78784C21.7984 9.78784 22.2127 10.2022 22.2127 10.7134V14.4154C22.2127 14.9266 21.7984 15.341 21.2872 15.341C20.7761 15.341 20.3617 14.9266 20.3617 14.4154V10.7134C20.3617 10.2022 20.7761 9.78784 21.2872 9.78784Z" fill="#000001"/>
<path fill-rule="evenodd" clip-rule="evenodd" d="M28.8567 15.341C27.7405 15.3394 26.6349 15.558 25.6032 15.9841C24.5714 16.4102 23.6338 17.0355 22.844 17.8243C22.0541 18.613 21.4275 19.5497 21 20.5809C20.5725 21.612 20.3524 22.7173 20.3524 23.8335C20.3524 24.7158 20.6939 25.9128 21.3218 27.3258C21.9402 28.7174 22.7956 30.23 23.7323 31.7156C25.605 34.6855 27.7559 37.4741 28.8514 38.8528L28.853 38.851C29.949 37.4787 32.0998 34.6902 33.9719 31.7193C34.9084 30.2332 35.7635 28.7198 36.3816 27.3274C37.0092 25.9137 37.3506 24.716 37.3506 23.8335C37.3506 22.7183 37.1309 21.6139 36.7041 20.5836C36.2773 19.5532 35.6517 18.617 34.8631 17.8284C34.0745 17.0398 33.1383 16.4142 32.108 15.9874C31.0776 15.5606 29.9732 15.341 28.858 15.341C28.8576 15.341 28.8571 15.341 28.8567 15.341ZM28.8593 13.4899C27.4997 13.4881 26.1531 13.7542 24.8966 14.2732C23.64 14.7922 22.498 15.5538 21.536 16.5145C20.574 17.4751 19.8108 18.6161 19.2901 19.8719C18.7694 21.1278 18.5014 22.474 18.5014 23.8335C18.5014 25.1105 18.9716 26.5954 19.6302 28.0775C20.2983 29.581 21.2042 31.1766 22.1666 32.7029C24.0922 35.7568 26.2912 38.6063 27.4021 40.0043M28.8593 13.4899C30.2172 13.4901 31.5618 13.7576 32.8163 14.2773C34.0713 14.7971 35.2115 15.559 36.172 16.5195C37.1325 17.48 37.8944 18.6203 38.4142 19.8752C38.9341 21.1302 39.2016 22.4752 39.2016 23.8335C39.2016 25.1104 38.7317 26.5957 38.0734 28.0785C37.4057 29.5827 36.5002 31.1792 35.538 32.7062C33.6127 35.7614 31.4135 38.6111 30.2994 40.0061C30.1263 40.2235 29.9064 40.3991 29.6562 40.5199C29.4052 40.641 29.1302 40.7039 28.8515 40.7039C28.5728 40.7039 28.2978 40.641 28.0468 40.5199C27.7959 40.3987 27.5755 40.2224 27.4021 40.0043" fill="#000001"/>
<path fill-rule="evenodd" clip-rule="evenodd" d="M29.8567 21.4253C29.5402 21.2944 29.201 21.2271 28.8585 21.2273C28.3426 21.2275 27.8385 21.3808 27.4097 21.6676C26.981 21.9544 26.6469 22.3619 26.4497 22.8386C26.2526 23.3152 26.2012 23.8397 26.3021 24.3456C26.403 24.8514 26.6516 25.316 27.0166 25.6806C27.3815 26.0451 27.8464 26.2933 28.3524 26.3937C28.8583 26.494 29.3827 26.4421 29.8592 26.2445C30.3356 26.0468 30.7428 25.7123 31.0292 25.2833C31.3155 24.8542 31.4682 24.3499 31.468 23.834C31.4678 23.4915 31.4001 23.1524 31.2689 22.836C31.1377 22.5197 30.9454 22.2323 30.7031 21.9902C30.4608 21.7482 30.1732 21.5562 29.8567 21.4253ZM28.8575 19.3762C29.4431 19.3759 30.023 19.491 30.5641 19.7148C31.1052 19.9386 31.597 20.2668 32.0113 20.6806C32.4256 21.0945 32.7543 21.5859 32.9787 22.1268C33.203 22.6677 33.3187 23.2475 33.319 23.8331C33.3195 24.715 33.0584 25.5773 32.5688 26.3108C32.0792 27.0444 31.3831 27.6163 30.5684 27.9542C29.7538 28.2922 28.8573 28.3809 27.9922 28.2093C27.1271 28.0377 26.3323 27.6134 25.7084 26.9901C25.0844 26.3669 24.6593 25.5725 24.4868 24.7076C24.3143 23.8427 24.4021 22.9461 24.7392 22.1311C25.0763 21.3161 25.6475 20.6194 26.3805 20.129C27.1136 19.6387 27.9756 19.3767 28.8575 19.3762Z" fill="#000001"/>
</svg>
