<svg width="64" height="64" viewBox="0 0 64 64" fill="none" xmlns="http://www.w3.org/2000/svg">
<path fill-rule="evenodd" clip-rule="evenodd" d="M38.5284 33.0572C38.7637 33.1536 39.0157 33.2025 39.27 33.2012V33.1912C39.6357 33.1915 39.9941 33.0883 40.3037 32.8937C40.6133 32.6991 40.8617 32.4209 41.02 32.0912L46.8 19.9412C46.9115 19.7111 46.9761 19.4611 46.9902 19.2057C47.0042 18.9504 46.9674 18.6948 46.8818 18.4538C46.7962 18.2128 46.6635 17.9912 46.4915 17.802C46.3196 17.6127 46.1117 17.4595 45.88 17.3512C45.6518 17.2413 45.4032 17.1801 45.15 17.1712L40.34 16.9112V10.1112C40.3338 9.67562 40.1812 9.25481 39.9068 8.9165C39.6323 8.5782 39.252 8.34212 38.827 8.24628C38.4021 8.15043 37.9572 8.20038 37.5641 8.38812C37.171 8.57586 36.8526 8.89045 36.66 9.28122L30.87 21.4512C30.7596 21.681 30.6955 21.9303 30.6814 22.1849C30.6674 22.4394 30.7036 22.6943 30.7882 22.9348C30.8727 23.1754 31.0038 23.3969 31.174 23.5868C31.3442 23.7766 31.5501 23.931 31.78 24.0412C32.0111 24.1545 32.2629 24.2192 32.52 24.2312L37.33 24.4812V31.2712C37.33 31.5255 37.3803 31.7773 37.4779 32.0121C37.5755 32.2469 37.7186 32.4601 37.8988 32.6395C38.0791 32.8188 38.2931 32.9608 38.5284 33.0572ZM32.67 22.2812L38.33 10.4212L38.29 17.8312C38.29 18.0964 38.3954 18.3508 38.5829 18.5383C38.7704 18.7259 39.0248 18.8312 39.29 18.8312L45 19.0512L39.33 30.9612V23.4912C39.3303 23.2344 39.2319 22.9874 39.055 22.8012C38.8782 22.615 38.6365 22.504 38.38 22.4912L32.67 22.2812ZM3.89001 30.9413H7.70001L7.72002 30.9312C8.96169 30.8747 10.1338 30.3417 10.9924 29.443C11.616 28.7904 12.0395 27.9814 12.2246 27.1113H12.46C13.2106 27.1113 13.9304 27.4094 14.4611 27.9402C14.9919 28.4709 15.29 29.1907 15.29 29.9413V47.1513C15.29 48.4296 15.7978 49.6556 16.7018 50.5595C17.6057 51.4635 18.8317 51.9713 20.11 51.9713H23.89V52.8012C23.89 53.5969 24.2061 54.36 24.7687 54.9226C25.3313 55.4852 26.0944 55.8012 26.89 55.8012H42.02C42.8139 55.7986 43.5744 55.4814 44.1349 54.919C44.6953 54.3567 45.01 53.5952 45.01 52.8012V37.1812C45.01 36.916 44.9047 36.6617 44.7171 36.4742C44.5296 36.2866 44.2752 36.1812 44.01 36.1812C43.7448 36.1812 43.4904 36.2866 43.3029 36.4742C43.1154 36.6617 43.01 36.916 43.01 37.1812V52.8012C43.01 53.0665 42.9047 53.3208 42.7171 53.5084C42.5296 53.6959 42.2752 53.8012 42.01 53.8012H26.89C26.6248 53.8012 26.3704 53.6959 26.1829 53.5084C25.9954 53.3208 25.89 53.0665 25.89 52.8012V50.9752C25.89 50.9739 25.89 50.9726 25.89 50.9713C25.89 50.97 25.89 50.9687 25.89 50.9674V16.5212C25.89 16.256 25.9954 16.0017 26.1829 15.8141C26.3704 15.6266 26.6248 15.5212 26.89 15.5212C27.1552 15.5212 27.4096 15.4159 27.5971 15.2284C27.7847 15.0408 27.89 14.7865 27.89 14.5212C27.89 14.256 27.7847 14.0017 27.5971 13.8141C27.4096 13.6266 27.1552 13.5212 26.89 13.5212C26.0944 13.5212 25.3313 13.8373 24.7687 14.3999C24.2061 14.9625 23.89 15.7256 23.89 16.5212V49.9713H20.11C19.3621 49.9713 18.6448 49.6742 18.116 49.1453C17.5871 48.6165 17.29 47.8992 17.29 47.1513V29.9413C17.2874 28.6611 16.7777 27.4341 15.8724 26.5289C14.9672 25.6236 13.7402 25.1139 12.46 25.1113H12.2267C12.0427 24.2373 11.6184 23.4246 10.9924 22.7695C10.1338 21.8708 8.96169 21.3378 7.72002 21.2812H3.89001C3.6248 21.2812 3.37044 21.3866 3.18291 21.5742C2.99538 21.7617 2.89003 22.016 2.89001 22.2812H1C0.734784 22.2812 0.480429 22.3866 0.292892 22.5741C0.105356 22.7616 0 23.016 0 23.2812C0 23.5464 0.105356 23.8007 0.292892 23.9883C0.480429 24.1758 0.734784 24.2812 1 24.2812H2.89001V27.9813H1C0.734784 27.9813 0.480429 28.0866 0.292892 28.2741C0.105356 28.4617 0 28.716 0 28.9813C0 29.2465 0.105356 29.5008 0.292892 29.6884C0.480429 29.8759 0.734784 29.9813 1 29.9813H2.89081C2.90084 30.2319 3.00482 30.4703 3.18291 30.6483C3.37044 30.8359 3.6248 30.9413 3.89001 30.9413ZM4.89001 23.2913L4.87057 28.7851C4.88082 28.8363 4.88709 28.8885 4.8892 28.9413H7.70001C8.42019 28.8984 9.09681 28.5821 9.59157 28.057C10.0863 27.5319 10.3619 26.8377 10.3619 26.1162C10.3619 25.3948 10.0863 24.7006 9.59157 24.1755C9.09681 23.6504 8.42019 23.3341 7.70001 23.2913H4.89001Z" fill="black"/>
</svg>
