<svg width="64" height="64" viewBox="0 0 64 64" fill="none" xmlns="http://www.w3.org/2000/svg">
<path fill-rule="evenodd" clip-rule="evenodd" d="M35.5 13.92C35.6375 14.1287 35.7483 14.3538 35.83 14.59C35.9413 14.9013 35.9989 15.2294 36 15.56V53.02C36 53.8156 35.6839 54.5787 35.1213 55.1413C34.5587 55.7039 33.7957 56.02 33 56.02H3C2.20435 56.02 1.44129 55.7039 0.878677 55.1413C0.316068 54.5787 0 53.8156 0 53.02V15.58C0.00186419 14.9913 0.171858 14.4153 0.48999 13.92L3.56999 9.31998C3.8429 8.90915 4.2129 8.57196 4.64722 8.33823C5.08154 8.1045 5.56678 7.98144 6.06 7.97998H29.95C30.4432 7.98144 30.9284 8.1045 31.3628 8.33823C31.7971 8.57196 32.1671 8.90915 32.44 9.31998L35.5 13.92ZM5.59294 10.0785C5.44626 10.1571 5.32151 10.271 5.23 10.41L2.86 13.96H33.13L30.77 10.41C30.6785 10.271 30.5537 10.1571 30.407 10.0785C30.2604 9.99991 30.0964 9.95919 29.93 9.95999H6.06999C5.90359 9.95919 5.73962 9.99991 5.59294 10.0785ZM16 48.02V54.02H20V48.02C20 47.4896 19.7893 46.9808 19.4142 46.6058C19.0391 46.2307 18.5304 46.02 18 46.02C17.4696 46.02 16.9609 46.2307 16.5858 46.6058C16.2107 46.9808 16 47.4896 16 48.02ZM22 54.02H33C33.2652 54.02 33.5196 53.9146 33.7071 53.7271C33.8946 53.5395 34 53.2852 34 53.02V16.02H2V53.02C2 53.2852 2.10536 53.5395 2.29289 53.7271C2.48043 53.9146 2.73478 54.02 3 54.02H14V48.02C14 46.9591 14.4214 45.9417 15.1716 45.1916C15.9217 44.4414 16.9391 44.02 18 44.02C19.0609 44.02 20.0783 44.4414 20.8284 45.1916C21.5786 45.9417 22 46.9591 22 48.02V54.02ZM8 17.96C6.93913 17.96 5.92172 18.3814 5.17157 19.1315C4.42142 19.8817 4 20.8991 4 21.96V27.96C4 28.2252 4.10536 28.4795 4.29289 28.6671C4.48043 28.8546 4.73478 28.96 5 28.96H11C11.2652 28.96 11.5196 28.8546 11.7071 28.6671C11.8946 28.4795 12 28.2252 12 27.96V21.96C12 20.8991 11.5786 19.8817 10.8284 19.1315C10.0783 18.3814 9.06087 17.96 8 17.96ZM6 26.96V21.96C6 21.4295 6.21071 20.9208 6.58578 20.5457C6.96086 20.1707 7.46957 19.96 8 19.96C8.53043 19.96 9.03914 20.1707 9.41422 20.5457C9.78929 20.9208 10 21.4295 10 21.96V26.96H6ZM8 30.96C6.93913 30.96 5.92172 31.3814 5.17157 32.1315C4.42142 32.8817 4 33.8991 4 34.96V40.96C4 41.2252 4.10536 41.4795 4.29289 41.6671C4.48043 41.8546 4.73478 41.96 5 41.96H11C11.2652 41.96 11.5196 41.8546 11.7071 41.6671C11.8946 41.4795 12 41.2252 12 40.96V34.96C12 33.8991 11.5786 32.8817 10.8284 32.1315C10.0783 31.3814 9.06087 30.96 8 30.96ZM6 39.96V34.96C6 34.4295 6.21071 33.9208 6.58578 33.5457C6.96086 33.1707 7.46957 32.96 8 32.96C8.53043 32.96 9.03914 33.1707 9.41422 33.5457C9.78929 33.9208 10 34.4295 10 34.96V39.96H6ZM15.1716 32.1315C15.9217 31.3814 16.9391 30.96 18 30.96C19.0609 30.96 20.0783 31.3814 20.8284 32.1315C21.5786 32.8817 22 33.8991 22 34.96V40.96C22 41.2252 21.8946 41.4795 21.7071 41.6671C21.5196 41.8546 21.2652 41.96 21 41.96H15C14.7348 41.96 14.4804 41.8546 14.2929 41.6671C14.1054 41.4795 14 41.2252 14 40.96V34.96C14 33.8991 14.4214 32.8817 15.1716 32.1315ZM16 34.96V39.96H20V34.96C20 34.4295 19.7893 33.9208 19.4142 33.5457C19.0391 33.1707 18.5304 32.96 18 32.96C17.4696 32.96 16.9609 33.1707 16.5858 33.5457C16.2107 33.9208 16 34.4295 16 34.96ZM18 17.96C16.9391 17.96 15.9217 18.3814 15.1716 19.1315C14.4214 19.8817 14 20.8991 14 21.96V27.96C14 28.2252 14.1054 28.4795 14.2929 28.6671C14.4804 28.8546 14.7348 28.96 15 28.96H21C21.2652 28.96 21.5196 28.8546 21.7071 28.6671C21.8946 28.4795 22 28.2252 22 27.96V21.96C22 20.8991 21.5786 19.8817 20.8284 19.1315C20.0783 18.3814 19.0609 17.96 18 17.96ZM20 26.96H16V21.96C16 21.4295 16.2107 20.9208 16.5858 20.5457C16.9609 20.1707 17.4696 19.96 18 19.96C18.5304 19.96 19.0391 20.1707 19.4142 20.5457C19.7893 20.9208 20 21.4295 20 21.96V26.96ZM25.1716 32.1315C25.9217 31.3814 26.9391 30.96 28 30.96C29.0609 30.96 30.0783 31.3814 30.8284 32.1315C31.5786 32.8817 32 33.8991 32 34.96V40.96C32 41.2252 31.8946 41.4795 31.7071 41.6671C31.5196 41.8546 31.2652 41.96 31 41.96H25C24.7348 41.96 24.4804 41.8546 24.2929 41.6671C24.1053 41.4795 24 41.2252 24 40.96V34.96C24 33.8991 24.4214 32.8817 25.1716 32.1315ZM26 34.96V39.96H30V34.96C30 34.4295 29.7893 33.9208 29.4142 33.5457C29.0391 33.1707 28.5304 32.96 28 32.96C27.4696 32.96 26.9609 33.1707 26.5858 33.5457C26.2107 33.9208 26 34.4295 26 34.96ZM28 17.96C26.9391 17.96 25.9217 18.3814 25.1716 19.1315C24.4214 19.8817 24 20.8991 24 21.96V27.96C24 28.2252 24.1053 28.4795 24.2929 28.6671C24.4804 28.8546 24.7348 28.96 25 28.96H31C31.2652 28.96 31.5196 28.8546 31.7071 28.6671C31.8946 28.4795 32 28.2252 32 27.96V21.96C32 20.8991 31.5786 19.8817 30.8284 19.1315C30.0783 18.3814 29.0609 17.96 28 17.96ZM30 26.96H26V21.96C26 21.4295 26.2107 20.9208 26.5858 20.5457C26.9609 20.1707 27.4696 19.96 28 19.96C28.5304 19.96 29.0391 20.1707 29.4142 20.5457C29.7893 20.9208 30 21.4295 30 21.96V26.96Z" fill="black"/>
</svg>
