<svg width="64" height="64" viewBox="0 0 64 64" fill="none" xmlns="http://www.w3.org/2000/svg">
<path fill-rule="evenodd" clip-rule="evenodd" d="M9.51001 41.5097H9.25C9.11423 41.4654 8.98953 41.3924 8.88431 41.2958C8.77909 41.1992 8.6958 41.0812 8.64002 40.9497C7.86002 39.6097 7.53003 37.2797 10.4 33.8197C12.1421 31.784 14.2061 30.0476 16.51 28.6797C17.3623 28.2252 18.3533 28.104 19.29 28.3397C19.2888 27.6095 19.4322 26.8862 19.7119 26.2117C19.9917 25.5372 20.4023 24.9247 20.92 24.4097C21.2698 24.072 21.6633 23.7827 22.09 23.5497C21.4111 22.8592 21.0183 21.9377 20.99 20.9697V8.96973C20.99 8.70451 21.0954 8.45014 21.2829 8.2626C21.4704 8.07507 21.7248 7.96973 21.99 7.96973C22.5781 7.97787 23.1582 8.10628 23.6948 8.34705C24.2314 8.58781 24.713 8.93584 25.11 9.36972C27.75 12.0097 28.69 17.7297 28.69 20.9397C28.664 21.9091 28.275 22.8335 27.6 23.5297C28.0288 23.7722 28.4253 24.0679 28.78 24.4097C29.805 25.4344 30.3867 26.8205 30.4 28.2697C31.3564 28.0496 32.3608 28.211 33.2 28.7197L43.54 34.7197C43.7659 34.8518 43.9311 35.0672 44 35.3197C44.072 35.575 44.0396 35.8483 43.91 36.0797C42.95 37.7397 41.15 38.3497 39.09 38.3497C35.6474 38.1235 32.3053 37.0962 29.33 35.3497H29.24C28.4408 34.8642 27.8467 34.103 27.57 33.2097C26.739 33.675 25.8025 33.9195 24.85 33.9197C23.8635 33.916 22.8963 33.6465 22.05 33.1397C21.8066 34.0699 21.2162 34.8715 20.4 35.3797L10.01 41.3797C9.85761 41.4661 9.68519 41.5109 9.51001 41.5097ZM32.25 30.4997C31.949 30.3169 31.6022 30.2232 31.25 30.2297H31.23C30.9622 30.2404 30.6999 30.3095 30.4615 30.4321C30.2231 30.5547 30.0144 30.728 29.85 30.9397C29.7602 31.1239 29.6565 31.3011 29.54 31.4697C29.4018 31.8711 29.4059 32.3078 29.5516 32.7066C29.6973 33.1054 29.9756 33.4419 30.34 33.6597C33.8 35.6597 39.26 37.1797 41.51 35.8397L32.25 30.4997ZM23.73 10.8397C23.5205 10.6265 23.2814 10.4447 23.02 10.2997L23.03 20.9897C23.0511 21.4723 23.2591 21.9278 23.61 22.2597C23.7828 22.4315 23.9893 22.5654 24.2165 22.6532C24.4437 22.741 24.6867 22.7807 24.93 22.7697C25.4027 22.7547 25.8518 22.5603 26.1862 22.2259C26.5205 21.8915 26.715 21.4424 26.73 20.9697C26.73 18.0297 25.8 12.9097 23.73 10.8397ZM21.5912 27.0289C21.4122 27.4602 21.32 27.9227 21.32 28.3897L21.33 28.3997C21.33 28.8659 21.4218 29.3275 21.6003 29.7582C21.7787 30.1889 22.0401 30.5803 22.3698 30.9099C22.6994 31.2396 23.0908 31.5011 23.5215 31.6795C23.9522 31.8579 24.4138 31.9497 24.88 31.9497C25.454 31.949 26.0193 31.8095 26.5278 31.5431C27.0362 31.2767 27.4727 30.8913 27.8 30.4197C27.844 30.3103 27.894 30.2035 27.95 30.0997C27.9868 30.044 28.0268 29.9906 28.07 29.9397C28.3017 29.4591 28.4247 28.9333 28.43 28.3997C28.4313 27.9327 28.3405 27.47 28.1627 27.0381C27.9848 26.6063 27.7235 26.2137 27.3938 25.883C27.064 25.5523 26.6722 25.2899 26.2408 25.1109C25.8095 24.9319 25.347 24.8397 24.88 24.8397C24.413 24.8384 23.9503 24.9293 23.5184 25.1071C23.0865 25.2849 22.694 25.5462 22.3633 25.8759C22.0326 26.2057 21.7702 26.5975 21.5912 27.0289ZM17.51 30.5197C15.4237 31.7636 13.5528 33.3373 11.97 35.1797H11.95C11.18 36.1097 10.09 37.6797 10.11 39.0297L19.37 33.6997C19.7034 33.4825 19.9578 33.1636 20.0956 32.7904C20.2334 32.4171 20.2472 32.0094 20.1349 31.6277C20.0227 31.246 19.7903 30.9106 19.4724 30.6714C19.1545 30.4322 18.7679 30.3018 18.37 30.2997C18.0695 30.3001 17.7738 30.3757 17.51 30.5197ZM30.86 54.0295H47C47.2652 54.0295 47.5196 54.1349 47.7071 54.3225C47.8947 54.51 48 54.7643 48 55.0295C48 55.2948 47.8947 55.5491 47.7071 55.7366C47.5196 55.9242 47.2652 56.0295 47 56.0295H1C0.734784 56.0295 0.480444 55.9242 0.292908 55.7366C0.105371 55.5491 0 55.2948 0 55.0295C0 54.7643 0.105371 54.51 0.292908 54.3225C0.480444 54.1349 0.734784 54.0295 1 54.0295H19.14L21.71 36.8895C21.7296 36.7595 21.7746 36.6345 21.8425 36.5219C21.9104 36.4092 21.9998 36.311 22.1057 36.233C22.2116 36.155 22.3319 36.0986 22.4596 36.0671C22.5873 36.0356 22.72 36.0297 22.85 36.0495C22.9801 36.0691 23.1051 36.1141 23.2177 36.182C23.3304 36.2499 23.4285 36.3394 23.5065 36.4453C23.5846 36.5512 23.6409 36.6714 23.6724 36.7991C23.7039 36.9269 23.7099 37.0595 23.69 37.1896L21.16 54.0295H28.84L26.31 37.1696C26.2901 37.0395 26.2961 36.9068 26.3276 36.7791C26.3591 36.6514 26.4154 36.5312 26.4935 36.4253C26.5715 36.3194 26.6697 36.2299 26.7823 36.162C26.895 36.0941 27.0199 36.0491 27.15 36.0295C27.2801 36.0097 27.4127 36.0156 27.5404 36.0471C27.6682 36.0786 27.7884 36.135 27.8943 36.213C28.0002 36.291 28.0897 36.3892 28.1576 36.5019C28.2255 36.6145 28.2705 36.7395 28.29 36.8695L30.86 54.0295Z" fill="black"/>
</svg>
