<svg width="64" height="64" viewBox="0 0 64 64" fill="none" xmlns="http://www.w3.org/2000/svg">
<path fill-rule="evenodd" clip-rule="evenodd" d="M38.9281 36.3553C38.493 36.3602 38.0617 36.2737 37.662 36.1015C37.2624 35.9292 36.9034 35.675 36.6081 35.3553L35.6081 34.2253C35.5094 34.115 35.3898 34.0253 35.2562 33.9615C35.1226 33.8977 34.9777 33.861 34.8298 33.8536C34.682 33.8462 34.5341 33.8681 34.3948 33.9182C34.2555 33.9682 34.1274 34.0454 34.0181 34.1453L33.9381 34.2253L32.9381 35.3553C32.3811 35.9704 31.6025 36.3391 30.7737 36.3804C29.9448 36.4217 29.1335 36.1321 28.5181 35.5753C28.1777 35.2643 27.9112 34.881 27.7382 34.4536C27.5652 34.0262 27.49 33.5655 27.5181 33.1053L27.5881 31.5753C27.5973 31.4277 27.5763 31.2797 27.5264 31.1405C27.4766 31.0012 27.3989 30.8736 27.2981 30.7653C27.0998 30.5459 26.8233 30.4131 26.5281 30.3953H26.4181L24.8881 30.4753C24.2429 30.5103 23.6027 30.3441 23.056 29.9996C22.5093 29.6551 22.083 29.1495 21.8361 28.5523C21.5891 27.9552 21.5336 27.2961 21.6773 26.6661C21.821 26.0361 22.1567 25.4663 22.6381 25.0353L23.7681 24.0353C23.8785 23.9365 23.9681 23.8169 24.0319 23.6833C24.0957 23.5498 24.1324 23.4048 24.1398 23.257C24.1473 23.1091 24.1253 22.9612 24.0753 22.8219C24.0252 22.6826 23.948 22.5546 23.8481 22.4453C23.8241 22.4161 23.7973 22.3894 23.7681 22.3653L22.6381 21.3653C22.1567 20.9343 21.821 20.3644 21.6773 19.7344C21.5336 19.1044 21.5891 18.4453 21.8361 17.8482C22.083 17.2511 22.5093 16.7454 23.056 16.401C23.6027 16.0565 24.2429 15.8903 24.8881 15.9253L26.4081 16.0053C26.5567 16.0162 26.7059 15.9967 26.8467 15.9482C26.9875 15.8997 27.117 15.8231 27.2274 15.7231C27.3377 15.623 27.4266 15.5016 27.4886 15.3662C27.5506 15.2308 27.5845 15.0842 27.5881 14.9353V14.8153L27.5181 13.3053C27.4869 12.6616 27.655 12.024 27.9996 11.4795C28.3442 10.9349 28.8485 10.51 29.4436 10.2628C30.0387 10.0156 30.6956 9.95806 31.3247 10.0981C31.9537 10.2382 32.5241 10.5689 32.9581 11.0453L33.9581 12.1753C34.0534 12.2875 34.1712 12.3784 34.3038 12.4421C34.4365 12.5059 34.581 12.541 34.7281 12.5453C35.0246 12.563 35.3159 12.4623 35.5381 12.2653L35.6281 12.1753L36.6281 11.0453C37.0621 10.5689 37.6326 10.2382 38.2616 10.0981C38.8906 9.95806 39.5476 10.0156 40.1427 10.2628C40.7378 10.51 41.2421 10.9349 41.5867 11.4795C41.9313 12.024 42.0994 12.6616 42.0681 13.3053L41.9881 14.8253C41.9745 15.1234 42.0794 15.4148 42.2799 15.6359C42.4803 15.8569 42.7601 15.9897 43.0581 16.0053H43.1681L44.6881 15.9253C45.3334 15.8903 45.9736 16.0565 46.5203 16.401C47.067 16.7454 47.4933 17.2511 47.7402 17.8482C47.9872 18.4453 48.0427 19.1044 47.899 19.7344C47.7553 20.3644 47.4196 20.9343 46.9381 21.3653L45.8181 22.3653C45.7061 22.4635 45.6148 22.583 45.5495 22.717C45.4843 22.8509 45.4464 22.9965 45.4381 23.1453C45.4274 23.4425 45.5312 23.7324 45.7281 23.9553L45.8081 24.0353L46.9381 25.0353C47.4196 25.4663 47.7553 26.0361 47.899 26.6661C48.0427 27.2961 47.9872 27.9552 47.7402 28.5523C47.4933 29.1495 47.067 29.6551 46.5203 29.9996C45.9736 30.3441 45.3334 30.5103 44.6881 30.4753L43.1681 30.3953C42.8706 30.3825 42.5799 30.4865 42.3581 30.6853C42.1399 30.8886 42.0075 31.1676 41.9881 31.4653V31.5853L42.0681 33.0953C42.0896 33.5088 42.0289 33.9226 41.8893 34.3125C41.7498 34.7024 41.5342 35.0608 41.2552 35.3668C40.9762 35.6728 40.6392 35.9204 40.2637 36.0952C39.8883 36.27 39.4819 36.3686 39.0681 36.3853L38.9281 36.3553ZM37.0681 32.8553L38.0681 33.9853C38.2209 34.1717 38.4293 34.3043 38.6628 34.3639C38.8964 34.4234 39.1428 34.4067 39.3662 34.3162C39.5896 34.2258 39.7782 34.0663 39.9045 33.861C40.0308 33.6557 40.0881 33.4155 40.0681 33.1753L39.9881 31.6553V31.3553C40.0251 30.5319 40.3843 29.7561 40.9881 29.1953C41.2907 28.9184 41.6457 28.705 42.0322 28.5676C42.4186 28.4302 42.8287 28.3716 43.2381 28.3953L44.7581 28.4653C44.9244 28.4803 45.0919 28.4556 45.2467 28.393C45.4015 28.3304 45.5391 28.2317 45.6481 28.1053C45.748 27.996 45.8252 27.868 45.8753 27.7286C45.9253 27.5893 45.9473 27.4415 45.9398 27.2936C45.9324 27.1457 45.8957 27.0008 45.8319 26.8672C45.7681 26.7336 45.6785 26.614 45.5681 26.5153L44.4481 25.5153C44.3666 25.4437 44.2897 25.3669 44.2181 25.2853C43.6626 24.6686 43.3747 23.8565 43.4179 23.0276C43.461 22.1988 43.8316 21.421 44.4481 20.8653L45.5681 19.8653C45.6916 19.7534 45.7888 19.6156 45.8528 19.4617C45.9168 19.3078 45.9459 19.1417 45.9381 18.9753C45.9226 18.6772 45.7898 18.3975 45.5687 18.197C45.3477 17.9966 45.0563 17.8917 44.7581 17.9053L43.2381 17.9753H42.9181C42.5061 17.9586 42.1014 17.8606 41.7274 17.687C41.3533 17.5135 41.0173 17.2677 40.7385 16.9638C40.4597 16.66 40.2437 16.304 40.1029 15.9164C39.9622 15.5288 39.8994 15.1172 39.9181 14.7053L39.9981 13.1753C40.0065 13.0102 39.9776 12.8454 39.9136 12.693C39.8495 12.5407 39.752 12.4047 39.6281 12.2953C39.5195 12.1948 39.392 12.1169 39.253 12.066C39.1141 12.0151 38.9664 11.9922 38.8185 11.9987C38.6707 12.0053 38.5256 12.041 38.3917 12.1039C38.2577 12.1668 38.1376 12.2557 38.0381 12.3653L37.0381 13.4953L36.8081 13.7253C36.5036 14.0001 36.1479 14.2121 35.7614 14.3493C35.3748 14.4864 34.9651 14.546 34.5555 14.5247C34.1459 14.5033 33.7445 14.4014 33.3743 14.2248C33.0041 14.0481 32.6724 13.8003 32.3981 13.4953L31.3981 12.3653C31.2838 12.245 31.1456 12.1499 30.9923 12.0861C30.839 12.0224 30.6741 11.9915 30.5081 11.9953C30.2092 12.0134 29.9295 12.1483 29.7292 12.371C29.529 12.5936 29.4245 12.8861 29.4381 13.1853L29.5181 14.6953C29.5281 14.8017 29.5281 14.9089 29.5181 15.0153C29.5002 15.4278 29.401 15.8327 29.2264 16.2068C29.0517 16.5809 28.805 16.9169 28.5003 17.1956C28.1957 17.4742 27.839 17.69 27.4509 17.8307C27.0627 17.9713 26.6506 18.0341 26.2381 18.0153L24.7181 17.9453C24.5514 17.9353 24.3847 17.9635 24.2305 18.0276C24.0763 18.0917 23.9387 18.1901 23.8281 18.3153C23.7283 18.4246 23.6511 18.5526 23.601 18.6919C23.551 18.8312 23.529 18.9791 23.5365 19.127C23.5439 19.2748 23.5806 19.4197 23.6444 19.5533C23.7082 19.6869 23.7978 19.8065 23.9081 19.9053L25.0381 20.9053L25.2681 21.1253C25.8237 21.7419 26.1115 22.554 26.0684 23.3829C26.0253 24.2118 25.6547 24.9896 25.0381 25.5453L23.9081 26.5453C23.7144 26.6946 23.5748 26.9033 23.5108 27.1394C23.4468 27.3755 23.4619 27.6261 23.5537 27.8529C23.6455 28.0796 23.8091 28.2701 24.0194 28.3951C24.2296 28.5201 24.4751 28.5729 24.7181 28.5453L26.2381 28.4753H26.5581C26.9719 28.4893 27.3787 28.5858 27.7547 28.7591C28.1307 28.9324 28.4683 29.179 28.7478 29.4845C29.0272 29.79 29.2428 30.1482 29.382 30.5382C29.5211 30.9281 29.581 31.3419 29.5581 31.7553L29.4781 33.2753C29.4718 33.4416 29.5015 33.6073 29.5654 33.7609C29.6293 33.9146 29.7257 34.0525 29.8481 34.1653C29.9574 34.2651 30.0855 34.3423 30.2248 34.3924C30.3641 34.4425 30.512 34.4644 30.6598 34.457C30.8077 34.4495 30.9526 34.4129 31.0862 34.3491C31.2198 34.2853 31.3394 34.1956 31.4381 34.0853L32.4381 32.9553L32.6681 32.7253C33.2843 32.1728 34.0942 31.8869 34.9206 31.93C35.7471 31.9731 36.5228 32.3417 37.0781 32.9553L37.0681 32.8553ZM16.0667 53.7012C16.4647 53.8734 16.8945 53.96 17.3281 53.9553H17.4181C17.8306 53.9373 18.2355 53.8382 18.6096 53.6635C18.9837 53.4888 19.3197 53.2421 19.5984 52.9375C19.8771 52.6328 20.0929 52.2762 20.2336 51.888C20.3742 51.4998 20.4369 51.0877 20.4181 50.6753L20.3381 49.1453V49.0353C20.3562 48.739 20.4901 48.4618 20.7109 48.2634C20.9317 48.0651 21.2217 47.9616 21.5181 47.9753L23.0381 48.0453C23.6925 48.0911 24.3447 47.9296 24.9019 47.5836C25.4592 47.2376 25.8933 46.7247 26.1424 46.1179C26.3916 45.5111 26.4431 44.8413 26.2897 44.2035C26.1364 43.5657 25.7859 42.9925 25.2881 42.5653L24.1581 41.5653L24.0781 41.4853C23.879 41.2633 23.7756 40.9716 23.7906 40.6738C23.8056 40.3759 23.9377 40.0961 24.1581 39.8953L25.2881 38.8953C25.6135 38.6027 25.8737 38.2449 26.0518 37.8452C26.2299 37.4455 26.322 37.0129 26.322 36.5753C26.322 36.1377 26.2299 35.705 26.0518 35.3053C25.8737 34.9056 25.6135 34.5479 25.2881 34.2553C24.9856 33.9784 24.6306 33.765 24.2441 33.6276C23.8577 33.4901 23.4476 33.4316 23.0381 33.4553L21.5581 33.5353H21.4481C21.15 33.5179 20.8702 33.3852 20.6681 33.1653C20.5679 33.0567 20.4905 32.929 20.4407 32.7898C20.3908 32.6506 20.3696 32.5028 20.3781 32.3553L20.4281 30.8353C20.4529 30.3739 20.3762 29.9128 20.2034 29.4843C20.0306 29.0558 19.766 28.6704 19.4281 28.3553C18.812 27.8028 18.0021 27.5169 17.1757 27.56C16.3492 27.6031 15.5735 27.9717 15.0181 28.5853L14.0181 29.7053L13.9281 29.7953C13.7049 29.9932 13.4125 30.0948 13.1146 30.078C12.8167 30.0611 12.5376 29.9271 12.3381 29.7053L11.3381 28.5753C11.0245 28.2382 10.6408 27.974 10.2141 27.8012C9.78734 27.6285 9.32791 27.5513 8.86814 27.5753C8.45987 27.5909 8.05875 27.6873 7.68799 27.8589C7.31723 28.0306 6.98418 28.2741 6.70814 28.5753C6.43103 28.8801 6.21684 29.2367 6.07784 29.6245C5.93884 30.0124 5.87778 30.4238 5.89814 30.8353L5.97814 32.3553V32.5753C5.97175 32.7233 5.93605 32.8686 5.87312 33.0027C5.81019 33.1368 5.72128 33.2571 5.61153 33.3566C5.50178 33.4561 5.37338 33.5329 5.23376 33.5824C5.09414 33.632 4.94607 33.6534 4.79814 33.6453L3.27814 33.5653C2.81721 33.5304 2.35447 33.6025 1.92602 33.776C1.49756 33.9495 1.11498 34.2196 0.808136 34.5653C0.532745 34.8691 0.319963 35.2243 0.181961 35.6105C0.0439581 35.9967 -0.0165577 36.4063 0.00387524 36.8159C0.0243082 37.2255 0.125296 37.627 0.301048 37.9975C0.4768 38.3681 0.72387 38.7003 1.02814 38.9753L2.15814 39.9753L2.23814 40.0553C2.33738 40.1652 2.41384 40.2937 2.46307 40.4334C2.51231 40.5731 2.53336 40.7212 2.52499 40.8691C2.51662 41.0169 2.479 41.1617 2.41431 41.2949C2.34963 41.4281 2.25916 41.5472 2.14814 41.6453L1.01814 42.6453C0.545662 43.0801 0.21834 43.6497 0.0805659 44.2768C-0.057208 44.904 0.001232 45.5583 0.247962 46.1511C0.494693 46.7439 0.917768 47.2465 1.45982 47.5907C2.00188 47.9349 2.63668 48.1041 3.27814 48.0753L4.79814 48.0053H4.90814C5.20617 48.0208 5.48594 48.1536 5.68641 48.3747C5.88687 48.5958 5.99175 48.8871 5.97814 49.1853L5.89814 50.7053C5.86906 51.3481 6.0388 51.9842 6.38425 52.5271C6.72969 53.07 7.23405 53.4932 7.82865 53.7391C8.42325 53.985 9.0792 54.0417 9.70718 53.9014C10.3352 53.7612 10.9047 53.4308 11.3381 52.9553L12.3381 51.8253L12.4281 51.7453C12.6499 51.5465 12.9406 51.4424 13.2381 51.4553C13.5358 51.4747 13.8148 51.607 14.0181 51.8253L15.0181 52.9553C15.3114 53.2747 15.6687 53.5289 16.0667 53.7012ZM13.3181 49.4253H13.1581C12.4103 49.4395 11.6929 49.7237 11.1381 50.2253L10.9081 50.4553L9.90814 51.5853C9.75535 51.7717 9.54697 51.9043 9.31344 51.9639C9.07991 52.0234 8.83346 52.0067 8.61008 51.9162C8.3867 51.8258 8.19809 51.6663 8.07181 51.461C7.94552 51.2557 7.88818 51.0155 7.90814 50.7753L7.98814 49.2553C8.00694 48.8428 7.94421 48.4307 7.80355 48.0425C7.66289 47.6544 7.44706 47.2978 7.1684 46.9931C6.88975 46.6884 6.55375 46.4417 6.17963 46.267C5.80552 46.0924 5.40062 45.9932 4.98814 45.9753H4.67814L3.15814 46.0553C2.86002 46.0689 2.56862 45.964 2.34755 45.7635C2.12647 45.5631 1.99368 45.2833 1.97814 44.9853C1.97175 44.819 2.00152 44.6533 2.0654 44.4996C2.12928 44.346 2.22574 44.208 2.34814 44.0953L3.47814 43.0953C4.09027 42.5385 4.45705 41.7621 4.49828 40.9357C4.5395 40.1093 4.25182 39.3001 3.69814 38.6853C3.63 38.6038 3.5565 38.527 3.47814 38.4553L2.34814 37.4553C2.23749 37.3566 2.14775 37.2367 2.0842 37.1027C2.02065 36.9687 1.98459 36.8234 1.97814 36.6753C1.96957 36.5277 1.99084 36.3799 2.04066 36.2407C2.09049 36.1016 2.16786 35.9739 2.26814 35.8653C2.37959 35.7412 2.51733 35.6437 2.6713 35.5796C2.82528 35.5156 2.99161 35.4868 3.15814 35.4953L4.67814 35.5753C5.08802 35.5949 5.49774 35.5334 5.88383 35.3944C6.26992 35.2554 6.62479 35.0416 6.92814 34.7653C7.22978 34.4896 7.47354 34.1566 7.64523 33.7858C7.81691 33.4149 7.91308 33.0136 7.92814 32.6053V32.2953L7.84814 30.7753C7.8353 30.4778 7.93939 30.187 8.13814 29.9653C8.23532 29.8528 8.35487 29.7618 8.48917 29.6981C8.62346 29.6344 8.76955 29.5994 8.91814 29.5953C9.08467 29.5868 9.251 29.6156 9.40497 29.6796C9.55895 29.7437 9.69669 29.8412 9.80814 29.9653L10.8081 31.0853C11.0824 31.3902 11.4141 31.6381 11.7843 31.8148C12.1545 31.9914 12.5558 32.0933 12.9654 32.1147C13.375 32.136 13.7848 32.0764 14.1714 31.9393C14.5579 31.8021 14.9136 31.59 15.2181 31.3153C15.2997 31.2437 15.3765 31.1669 15.4481 31.0853L16.4481 29.9653C16.5469 29.8549 16.6665 29.7653 16.8001 29.7015C16.9337 29.6377 17.0786 29.601 17.2264 29.5936C17.3743 29.5861 17.5222 29.6081 17.6615 29.6582C17.8008 29.7082 17.9288 29.7854 18.0381 29.8853C18.1633 29.9958 18.2617 30.1334 18.3258 30.2876C18.3899 30.4418 18.4181 30.6086 18.4081 30.7753L18.3281 32.2953C18.3067 32.7045 18.3663 33.114 18.5036 33.5001C18.6409 33.8862 18.8531 34.2414 19.1281 34.5453C19.6921 35.1507 20.4716 35.5099 21.2981 35.5453H21.6081L23.1281 35.4653C23.2757 35.4567 23.4235 35.478 23.5627 35.5278C23.7018 35.5776 23.8295 35.655 23.9381 35.7553C24.0506 35.8525 24.1416 35.972 24.2053 36.1063C24.269 36.2406 24.304 36.3867 24.3081 36.5353C24.3159 36.7017 24.2868 36.8678 24.2228 37.0217C24.1588 37.1756 24.0616 37.3134 23.9381 37.4253L22.8081 38.4253C22.1946 38.9806 21.826 39.7564 21.7829 40.5828C21.7397 41.4092 22.0257 42.2191 22.5781 42.8353L22.8081 43.0653L23.9381 44.0653C24.0506 44.1624 24.1416 44.282 24.2053 44.4163C24.269 44.5506 24.304 44.6967 24.3081 44.8453C24.3161 44.9928 24.2946 45.1404 24.2448 45.2795C24.195 45.4186 24.118 45.5463 24.0181 45.6553C23.905 45.7771 23.7669 45.8733 23.6134 45.9371C23.4598 46.0009 23.2943 46.031 23.1281 46.0253L21.6081 45.9453C21.1987 45.9216 20.7886 45.9801 20.4022 46.1175C20.0157 46.2549 19.6607 46.4684 19.3581 46.7453C19.0574 47.0217 18.8142 47.3548 18.6426 47.7255C18.471 48.0962 18.3743 48.4971 18.3581 48.9053V49.2253L18.4381 50.7453C18.4517 51.0434 18.3469 51.3348 18.1464 51.5559C17.9459 51.7769 17.6662 51.9097 17.3681 51.9253C17.202 51.9304 17.0367 51.9 16.8833 51.8362C16.7298 51.7724 16.5917 51.6766 16.4781 51.5553L15.4781 50.4253C14.9179 49.8205 14.1417 49.4612 13.3181 49.4253ZM9.89139 45.6443C10.8583 46.2904 11.9952 46.6353 13.1581 46.6353C14.7168 46.6326 16.2109 46.0123 17.313 44.9101C18.4151 43.808 19.0355 42.3139 19.0381 40.7553C19.0381 39.5923 18.6933 38.4555 18.0472 37.4885C17.4011 36.5216 16.4827 35.7679 15.4083 35.3229C14.3339 34.8778 13.1516 34.7614 12.011 34.9883C10.8704 35.2152 9.82268 35.7752 9.00035 36.5975C8.17802 37.4198 7.618 38.4675 7.39112 39.6081C7.16424 40.7488 7.28069 41.931 7.72573 43.0055C8.17077 44.0799 8.92443 44.9982 9.89139 45.6443ZM11.0025 37.5292C11.6406 37.1028 12.3908 36.8753 13.1581 36.8753C14.1872 36.8753 15.1741 37.2841 15.9017 38.0117C16.6294 38.7393 17.0381 39.7262 17.0381 40.7553C17.0381 41.5227 16.8106 42.2728 16.3842 42.9109C15.9579 43.5489 15.3519 44.0463 14.643 44.3399C13.934 44.6336 13.1538 44.7104 12.4012 44.5607C11.6485 44.411 10.9572 44.0415 10.4146 43.4989C9.87194 42.9562 9.5024 42.2649 9.35269 41.5122C9.20298 40.7596 9.27982 39.9794 9.57349 39.2705C9.86716 38.5615 10.3645 37.9555 11.0025 37.5292ZM31.4721 28.0568C32.4422 28.7032 33.5824 29.0472 34.7481 29.0453C36.3068 29.0426 37.8009 28.4223 38.903 27.3201C40.0051 26.218 40.6255 24.7239 40.6281 23.1653C40.6301 21.9995 40.2861 20.8593 39.6397 19.8892C38.9932 18.9191 38.0734 18.1626 36.9968 17.7155C35.9201 17.2685 34.735 17.151 33.5915 17.378C32.448 17.6049 31.3976 18.1661 30.5733 18.9904C29.749 19.8148 29.1878 20.8652 28.9608 22.0086C28.7339 23.1521 28.8514 24.3372 29.2984 25.4139C29.7454 26.4906 30.5019 27.4104 31.4721 28.0568ZM32.5843 19.926C33.2253 19.4997 33.9783 19.2733 34.7481 19.2753C35.7781 19.2779 36.765 19.6889 37.4923 20.4182C38.2197 21.1474 38.6281 22.1353 38.6281 23.1653C38.6281 23.9351 38.3997 24.6875 37.9719 25.3275C37.544 25.9674 36.9358 26.466 36.2245 26.7601C35.5131 27.0542 34.7304 27.1307 33.9756 26.9798C33.2207 26.8289 32.5276 26.4574 31.984 25.9124C31.4403 25.3673 31.0706 24.6733 30.9217 23.918C30.7727 23.1628 30.8512 22.3803 31.1471 21.6697C31.4431 20.9591 31.9432 20.3522 32.5843 19.926Z" fill="black"/>
</svg>
