<svg width="24" height="24" viewBox="0 0 24 24" fill="none" xmlns="http://www.w3.org/2000/svg">
<path fill-rule="evenodd" clip-rule="evenodd" d="M12.0039 13.1717C11.3378 13.1717 10.8196 12.8996 10.4164 12.4749L9.82892 12.7705C9.52113 12.9343 9.23932 13.1428 8.99267 13.3893C8.83718 13.5515 8.62473 13.647 8.40017 13.6555L8.37017 13.6443C8.15148 13.6446 7.94091 13.5614 7.78142 13.4118C7.69845 13.3356 7.63151 13.2436 7.58451 13.1412C7.5375 13.0388 7.51138 12.9281 7.50767 12.8155C7.44221 12.1778 7.58275 11.5359 7.90871 10.9838C8.21929 10.4578 8.68265 10.0398 9.23611 9.78468C9.00988 8.64908 9.00393 7.64272 9.00393 7.54671C9.00393 4.72296 11.7189 3.33171 11.8352 3.27546C11.8875 3.24909 11.9453 3.23535 12.0039 3.23535C12.0625 3.23535 12.1203 3.24909 12.1727 3.27546C12.2852 3.33171 15.0039 4.72296 15.0039 7.54671C15.0039 8.17318 14.9391 8.97915 14.7719 9.78417C15.3273 10.0405 15.7919 10.461 16.1022 10.99C16.4293 11.5474 16.5675 12.1956 16.4964 12.838C16.4829 13.0564 16.3847 13.2609 16.2227 13.408C16.0638 13.559 15.8532 13.6435 15.6339 13.6442H15.6039C15.3741 13.6344 15.1573 13.5348 15.0002 13.3667C14.7536 13.1239 14.4732 12.918 14.1677 12.7555L13.5786 12.4609C13.1685 12.8982 12.6512 13.1717 12.0039 13.1717ZM14.0294 11.85L14.5127 12.0917C14.8901 12.29 15.2363 12.5427 15.5402 12.8417C15.5507 12.856 15.5642 12.8677 15.5797 12.8762C15.5953 12.8846 15.6125 12.8895 15.6302 12.8905C15.66 12.8885 15.6886 12.8781 15.7127 12.8605C15.7234 12.8503 15.7318 12.8381 15.7377 12.8246C15.7435 12.811 15.7464 12.7964 15.7464 12.7817C15.8065 12.2965 15.7069 11.8049 15.4626 11.3813C15.2542 11.0199 14.9501 10.7248 14.5858 10.5273C14.4445 11.0021 14.2618 11.4563 14.0294 11.85ZM9.41612 10.5322C9.55064 11.0007 9.72903 11.4627 9.9656 11.8659L9.48392 12.1068C9.10473 12.304 8.75714 12.5568 8.45267 12.8568C8.44317 12.8685 8.43117 12.8779 8.41754 12.8844C8.40392 12.8909 8.38901 12.8943 8.37392 12.8943C8.35625 12.8952 8.33861 12.892 8.32234 12.8851C8.30606 12.8782 8.29159 12.8676 8.28002 12.8542C8.26844 12.8408 8.26008 12.825 8.25556 12.8079C8.25103 12.7908 8.25047 12.7729 8.25392 12.7555C8.20096 12.2746 8.30442 11.7895 8.54895 11.372C8.75681 11.0172 9.05718 10.7273 9.41612 10.5322ZM12.0039 4.04045C11.4564 4.3742 9.75393 5.56296 9.75393 7.54671C9.75393 8.90421 10.1589 12.4217 12.0039 12.4217C13.8489 12.4217 14.2539 8.81046 14.2539 7.54671C14.2539 5.56296 12.5514 4.3742 12.0039 4.04045ZM3.37055 16.5466C3.36901 16.5575 3.36796 16.5685 3.3674 16.5795C3.36563 16.6053 3.36652 16.6312 3.37009 16.6569C3.37216 16.6718 3.37511 16.6865 3.37893 16.701V20.0155C3.37893 20.1149 3.41844 20.2103 3.48877 20.2806C3.55909 20.351 3.65448 20.3905 3.75393 20.3905C3.85339 20.3905 3.94877 20.351 4.0191 20.2806C4.08942 20.2103 4.12893 20.1149 4.12893 20.0155V17.0993L11.6289 19.1448V20.3905C11.6289 20.4899 11.6684 20.5853 11.7388 20.6556C11.8091 20.726 11.9045 20.7655 12.0039 20.7655C12.1034 20.7655 12.1988 20.726 12.2691 20.6556C12.3394 20.5853 12.3789 20.4899 12.3789 20.3905V19.1305L19.8789 17.0851V20.0155C19.8789 20.1149 19.9184 20.2103 19.9888 20.2806C20.0591 20.351 20.1545 20.3905 20.2539 20.3905C20.3534 20.3905 20.4488 20.351 20.5191 20.2806C20.5894 20.2103 20.6289 20.1149 20.6289 20.0155V16.6892C20.6289 16.685 20.6289 16.6807 20.6287 16.6765C20.6287 16.6746 20.6286 16.6728 20.6285 16.6709C20.6346 16.6336 20.6351 16.5954 20.6298 16.5578C20.6229 16.509 20.6065 16.4619 20.5814 16.4194C20.5563 16.3769 20.5231 16.3398 20.4836 16.3102C20.4773 16.3054 20.4709 16.3009 20.4644 16.2966C20.4527 16.288 20.4406 16.28 20.4279 16.2728C20.3771 16.2436 20.3207 16.2271 20.2634 16.2237L16.2264 15.1667C16.1778 15.1507 16.1265 15.1447 16.0755 15.1492C16.0245 15.1537 15.975 15.1686 15.93 15.193C15.885 15.2174 15.8455 15.2507 15.8138 15.2909C15.7822 15.3312 15.7591 15.3775 15.7461 15.4269C15.733 15.4764 15.7302 15.5281 15.7378 15.5787C15.7454 15.6293 15.7633 15.6778 15.7904 15.7212C15.8175 15.7646 15.8532 15.8021 15.8953 15.8312C15.9374 15.8603 15.985 15.8805 16.0352 15.8905L18.7776 16.6085L11.9778 18.463L5.17881 16.6087L7.96518 15.8792C8.01537 15.8692 8.06298 15.849 8.10507 15.8199C8.14716 15.7908 8.18285 15.7534 8.20994 15.7099C8.23702 15.6665 8.25493 15.618 8.26257 15.5674C8.2702 15.5168 8.26739 15.4652 8.25431 15.4157C8.24124 15.3662 8.21817 15.3199 8.18654 15.2797C8.1549 15.2395 8.11536 15.2061 8.07036 15.1817C8.02536 15.1574 7.97584 15.1425 7.92486 15.1379C7.87388 15.1334 7.82252 15.1394 7.77393 15.1555L3.64893 16.2355C3.60112 16.2477 3.55619 16.2693 3.51673 16.2989C3.47726 16.3285 3.44404 16.3657 3.41895 16.4082C3.39387 16.4507 3.37742 16.4977 3.37055 16.5466ZM11.2216 8.62408C11.4534 8.77815 11.7256 8.85999 12.0039 8.85924C12.3762 8.85825 12.733 8.70966 12.9959 8.44604C13.2588 8.18243 13.4064 7.82531 13.4064 7.45299C13.4064 7.1747 13.3239 6.90268 13.1692 6.67134C13.0145 6.44 12.7946 6.25976 12.5375 6.15344C12.2803 6.04711 11.9973 6.01948 11.7245 6.07405C11.4516 6.12862 11.201 6.26292 11.0045 6.45997C10.808 6.65701 10.6743 6.90792 10.6205 7.18096C10.5667 7.45399 10.595 7.73686 10.7021 7.99375C10.8091 8.25064 10.9899 8.47001 11.2216 8.62408ZM11.6379 6.90954C11.7464 6.83771 11.8738 6.79976 12.0039 6.8005C12.1767 6.80148 12.3421 6.87055 12.4642 6.9927C12.5864 7.11486 12.6554 7.28024 12.6564 7.45299C12.6572 7.5831 12.6192 7.71051 12.5474 7.819C12.4756 7.92749 12.3731 8.01218 12.2531 8.06231C12.133 8.11245 12.0007 8.12576 11.8731 8.10056C11.7454 8.07536 11.6282 8.01277 11.5362 7.92077C11.4442 7.82877 11.3816 7.71149 11.3564 7.58385C11.3312 7.4562 11.3445 7.32395 11.3946 7.20388C11.4447 7.08381 11.5294 6.98136 11.6379 6.90954ZM10.5789 15.0055C10.5789 15.613 11.0702 17.3643 12.0039 17.3643C12.9377 17.3643 13.4289 15.613 13.4289 15.0055C13.4289 14.6276 13.2788 14.2652 13.0116 13.9979C12.7443 13.7307 12.3819 13.5805 12.0039 13.5805C11.626 13.5805 11.2636 13.7307 10.9963 13.9979C10.7291 14.2652 10.5789 14.6276 10.5789 15.0055ZM11.5277 14.5293C11.6541 14.403 11.8252 14.3315 12.0039 14.3305C12.1827 14.3315 12.3538 14.403 12.4801 14.5293C12.6065 14.6557 12.678 14.8268 12.6789 15.0055C12.6789 15.583 12.2252 16.5805 12.0039 16.6143C11.7827 16.5805 11.3289 15.583 11.3289 15.0055C11.3299 14.8268 11.4014 14.6557 11.5277 14.5293Z" fill="black"/>
</svg>
