<svg width="64" height="64" viewBox="0 0 64 64" fill="none" xmlns="http://www.w3.org/2000/svg">
<path fill-rule="evenodd" clip-rule="evenodd" d="M11.8248 12.0371C12.294 12.0371 12.6743 12.4174 12.6743 12.8866V16.5205C13.6062 15.6869 14.8153 15.2227 16.0722 15.2227H47.9277C49.1847 15.2227 50.3937 15.6869 51.3257 16.5205V12.8866C51.3257 12.4174 51.706 12.0371 52.1751 12.0371C52.6443 12.0371 53.0246 12.4174 53.0246 12.8866V30.2125C53.4936 30.3523 53.9252 30.6071 54.2775 30.9594C54.8351 31.517 55.1483 32.2732 55.1483 33.0617V40.7071H56.4225C56.8917 40.7071 57.272 41.0874 57.272 41.5565V44.7421C57.272 45.5306 56.9588 46.2869 56.4012 46.8444C56.0489 47.1967 55.6173 47.4515 55.1483 47.5913V51.1132C55.1483 51.5823 54.768 51.9627 54.2988 51.9627C53.8297 51.9627 53.4494 51.5823 53.4494 51.1132V47.7153H10.5506V51.1132C10.5506 51.5823 10.1703 51.9627 9.70115 51.9627C9.23199 51.9627 8.85167 51.5823 8.85167 51.1132V47.5913C8.38271 47.4515 7.95109 47.1967 7.59879 46.8444C7.04121 46.2869 6.72797 45.5306 6.72797 44.7421V41.5565C6.72797 41.0874 7.10829 40.7071 7.57745 40.7071H8.85167V33.0617C8.85167 32.2732 9.16491 31.517 9.72249 30.9594C10.0748 30.6071 10.5064 30.3523 10.9754 30.2125V12.8866C10.9754 12.4174 11.3557 12.0371 11.8248 12.0371ZM12.6743 30.0886H15.5097C15.3225 29.694 15.2228 29.2593 15.2228 28.8143V27.0517C15.2228 25.9708 15.8227 25.1612 16.5698 24.5937C17.3053 24.0349 18.258 23.6466 19.194 23.3722C21.0718 22.8217 23.1459 22.6556 24.0361 22.6556C24.5988 22.6556 26.6674 22.8299 28.6144 23.3775C29.5865 23.6509 30.5954 24.0353 31.3792 24.5825C31.5868 24.7273 31.7874 24.8904 31.9703 25.0726C32.1355 24.8961 32.3176 24.736 32.5091 24.5917C33.2493 24.0339 34.2072 23.646 35.1466 23.3719C37.031 22.8219 39.1045 22.6556 39.9639 22.6556C40.5265 22.6556 42.5951 22.8299 44.5421 23.3775C45.5142 23.6509 46.5231 24.0353 47.307 24.5825C48.091 25.1297 48.7772 25.9373 48.7772 27.0517V28.8143C48.7772 29.2593 48.6775 29.694 48.4903 30.0886H51.3257V20.3195C51.3257 19.4184 50.9677 18.5541 50.3304 17.9168C49.6932 17.2796 48.8289 16.9216 47.9277 16.9216H16.0722C15.1711 16.9216 14.3068 17.2796 13.6696 17.9168C13.0323 18.5541 12.6743 19.4184 12.6743 20.3195V30.0886ZM45.804 30.0886C46.142 30.0886 46.4661 29.9543 46.7051 29.7153C46.944 29.4764 47.0783 29.1523 47.0783 28.8143V27.0517C47.0783 26.7219 46.8911 26.3641 46.3345 25.9756C45.7778 25.587 44.9789 25.2653 44.0821 25.013C42.2915 24.5094 40.3781 24.3546 39.9639 24.3546C39.2305 24.3546 37.322 24.5068 35.6226 25.0028C34.7702 25.2516 34.0358 25.5685 33.5316 25.9485C33.0382 26.3204 32.8495 26.6813 32.8495 27.0517V28.8143C32.8495 29.1523 32.9837 29.4764 33.2227 29.7153C33.4616 29.9543 33.7857 30.0886 34.1237 30.0886H45.804ZM11.8248 31.7875C11.4869 31.7875 11.1628 31.9218 10.9238 32.1607C10.6849 32.3997 10.5506 32.7238 10.5506 33.0617V40.7071H53.4494V33.0617C53.4494 32.7238 53.3151 32.3997 53.0762 32.1607C52.8372 31.9218 52.5131 31.7875 52.1751 31.7875H11.8248ZM29.8763 30.0886C30.2142 30.0886 30.5383 29.9543 30.7773 29.7153C31.0163 29.4764 31.1505 29.1523 31.1505 28.8143V27.0517C31.1505 26.7219 30.9634 26.3641 30.4068 25.9756C29.8501 25.587 29.0512 25.2653 28.1544 25.013C26.3637 24.5094 24.4503 24.3546 24.0361 24.3546C23.2699 24.3546 21.362 24.5071 19.672 25.0025C18.8241 25.2511 18.0964 25.5675 17.5975 25.9465C17.1102 26.3167 16.9217 26.6778 16.9217 27.0517V28.8143C16.9217 29.1523 17.056 29.4764 17.2949 29.7153C17.5339 29.9543 17.858 30.0886 18.1959 30.0886H29.8763ZM8.42693 42.406V44.7421C8.42693 45.08 8.56117 45.4041 8.80014 45.6431C9.0391 45.8821 9.3632 46.0163 9.70115 46.0163H54.2988C54.6368 46.0163 54.9609 45.8821 55.1999 45.6431C55.4388 45.4041 55.5731 45.08 55.5731 44.7421V42.406H8.42693Z" fill="#000001"/>
</svg>
