<svg width="64" height="64" viewBox="0 0 64 64" fill="none" xmlns="http://www.w3.org/2000/svg">
<path d="M45 41H38V39H45C45.2652 39 45.5196 38.8946 45.7071 38.7071C45.8946 38.5196 46 38.2652 46 38C46 37.7348 45.8946 37.4804 45.7071 37.2929C45.5196 37.1054 45.2652 37 45 37H38V36C38 35.2044 37.6839 34.4413 37.1213 33.8787C36.5587 33.3161 35.7956 33 35 33H31C30.7348 33 30.4804 32.8946 30.2929 32.7071C30.1053 32.5196 30 32.2652 30 32V28C30 27.2044 29.6839 26.4413 29.1213 25.8787C28.5587 25.3161 27.7956 25 27 25H26V18C26 17.7348 25.8946 17.4804 25.7071 17.2929C25.5196 17.1054 25.2652 17 25 17C24.7348 17 24.4804 17.1054 24.2929 17.2929C24.1053 17.4804 24 17.7348 24 18V25H22V18C22 17.7348 21.8946 17.4804 21.7071 17.2929C21.5196 17.1054 21.2652 17 21 17C20.7348 17 20.4804 17.1054 20.2929 17.2929C20.1053 17.4804 20 17.7348 20 18V25H19C18.2044 25 17.4413 25.3161 16.8787 25.8787C16.3161 26.4413 16 27.2044 16 28V32C16 32.2652 15.8946 32.5196 15.7071 32.7071C15.5196 32.8946 15.2652 33 15 33H11C10.2044 33 9.44127 33.3161 8.87866 33.8787C8.31605 34.4413 8 35.2044 8 36V37H1C0.734784 37 0.480414 37.1054 0.292877 37.2929C0.105341 37.4804 0 37.7348 0 38C0 38.2652 0.105341 38.5196 0.292877 38.7071C0.480414 38.8946 0.734784 39 1 39H8V41H1C0.734784 41 0.480414 41.1054 0.292877 41.2929C0.105341 41.4804 0 41.7348 0 42C0 42.2652 0.105341 42.5196 0.292877 42.7071C0.480414 42.8946 0.734784 43 1 43H8V44C8 44.7956 8.31605 45.5587 8.87866 46.1213C9.44127 46.6839 10.2044 47 11 47H35C35.7956 47 36.5587 46.6839 37.1213 46.1213C37.6839 45.5587 38 44.7956 38 44V43H45C45.2652 43 45.5196 42.8946 45.7071 42.7071C45.8946 42.5196 46 42.2652 46 42C46 41.7348 45.8946 41.4804 45.7071 41.2929C45.5196 41.1054 45.2652 41 45 41ZM36 44C36 44.2652 35.8946 44.5196 35.7071 44.7071C35.5196 44.8946 35.2652 45 35 45H11C10.7348 45 10.4804 44.8946 10.2929 44.7071C10.1053 44.5196 10 44.2652 10 44V36C10 35.7348 10.1053 35.4804 10.2929 35.2929C10.4804 35.1054 10.7348 35 11 35H15C15.7956 35 16.5587 34.6839 17.1213 34.1213C17.6839 33.5587 18 32.7956 18 32V28C18 27.7348 18.1053 27.4804 18.2929 27.2929C18.4804 27.1054 18.7348 27 19 27H27C27.2652 27 27.5196 27.1054 27.7071 27.2929C27.8946 27.4804 28 27.7348 28 28V32C28 32.7956 28.3161 33.5587 28.8787 34.1213C29.4413 34.6839 30.2044 35 31 35H35C35.2652 35 35.5196 35.1054 35.7071 35.2929C35.8946 35.4804 36 35.7348 36 36V44Z" fill="black"/>
</svg>
