<svg width="64" height="64" viewBox="0 0 64 64" fill="none" xmlns="http://www.w3.org/2000/svg">
<path fill-rule="evenodd" clip-rule="evenodd" d="M47.2516 12.7317L43.2016 8.73173C43.1298 8.65659 43.053 8.58644 42.9716 8.52174C42.439 8.11425 41.7669 7.93392 41.1018 8.02009C40.4368 8.10627 39.8328 8.45195 39.4216 8.98173L34.5716 15.1517C34.0333 15.8461 33.7354 16.6966 33.7228 17.5751C33.7102 18.4535 33.9835 19.3122 34.5016 20.0217L21.8216 32.7017L20.3416 31.2218C19.6126 30.4957 18.6256 30.088 17.5966 30.088C16.5677 30.088 15.5807 30.4957 14.8516 31.2218L1.98163 44.1517C0.712689 45.4229 0 47.1456 0 48.9418C0 50.7379 0.712689 52.4606 1.98163 53.7317L2.26164 54.0117C2.88973 54.6424 3.63619 55.1429 4.45819 55.4844C5.28019 55.8259 6.16153 56.0017 7.05164 56.0017C7.94174 56.0017 8.82308 55.8259 9.64508 55.4844C10.4671 55.1429 11.2135 54.6424 11.8416 54.0117L24.7116 41.1417C25.0736 40.7821 25.3608 40.3544 25.5568 39.8833C25.7528 39.4122 25.8537 38.907 25.8537 38.3967C25.8537 37.8865 25.7528 37.3813 25.5568 36.9102C25.3608 36.4391 25.0736 36.0114 24.7116 35.6517L23.2316 34.1517L35.9116 21.4718C36.6179 21.9978 37.478 22.2761 38.3585 22.2634C39.2391 22.2508 40.0908 21.9479 40.7816 21.4017L47.0016 16.5517L47.2416 16.3417C47.4808 16.1062 47.671 15.8256 47.8011 15.5162C47.9312 15.2067 47.9987 14.8745 47.9996 14.5388C48.0005 14.2031 47.9349 13.8706 47.8065 13.5604C47.6781 13.2502 47.4895 12.9686 47.2516 12.7317ZM23.8516 38.3417C23.8518 38.5911 23.8024 38.838 23.7063 39.068C23.6101 39.2981 23.4692 39.5067 23.2916 39.6817L10.4416 52.5517C9.99862 52.9953 9.47251 53.3472 8.8934 53.5873C8.31429 53.8274 7.69354 53.9509 7.06664 53.9509C6.43973 53.9509 5.81898 53.8274 5.23987 53.5873C4.66076 53.3472 4.13465 52.9953 3.69164 52.5517L3.41164 52.2617C2.51886 51.3674 2.01743 50.1554 2.01743 48.8917C2.01743 47.6281 2.51886 46.416 3.41164 45.5217L16.2816 32.6517C16.6372 32.3006 17.1169 32.1037 17.6166 32.1037C18.1164 32.1037 18.596 32.3006 18.9516 32.6517L21.1316 34.8317L23.3116 37.0117C23.4848 37.1869 23.6217 37.3946 23.7143 37.6229C23.807 37.8511 23.8537 38.0954 23.8516 38.3417ZM45.7716 14.9418L39.5516 19.7918C39.1545 20.0975 38.6599 20.2488 38.1597 20.2175C37.6595 20.1862 37.1876 19.9746 36.8316 19.6217L36.3216 19.1117C35.9669 18.7568 35.7539 18.2847 35.7226 17.7839C35.6913 17.2831 35.8438 16.788 36.1516 16.3917L41.0016 10.1618C41.0498 10.0989 41.1119 10.0481 41.183 10.0133C41.2542 9.97863 41.3325 9.96096 41.4116 9.96174C41.5521 9.96489 41.6869 10.0181 41.7916 10.1117L45.7916 14.1117C45.8513 14.1639 45.8988 14.2285 45.9307 14.301C45.9626 14.3736 45.9781 14.4522 45.9762 14.5314C45.9743 14.6107 45.955 14.6885 45.9196 14.7594C45.8843 14.8303 45.8337 14.8926 45.7716 14.9418ZM16.8316 36.0218C16.6443 35.8355 16.3908 35.731 16.1266 35.731C15.8624 35.731 15.609 35.8355 15.4216 36.0218L5.52164 45.9218C5.42791 46.0147 5.35352 46.1253 5.30275 46.2472C5.25198 46.3691 5.22583 46.4998 5.22583 46.6318C5.22583 46.7638 5.25198 46.8945 5.30275 47.0163C5.35352 47.1382 5.42791 47.2488 5.52164 47.3418C5.61508 47.4344 5.72589 47.5078 5.84773 47.5575C5.96957 47.6073 6.10002 47.6325 6.23163 47.6318C6.49397 47.6307 6.74538 47.5265 6.93164 47.3418L16.8316 37.4418C16.9254 37.3488 16.9998 37.2382 17.0505 37.1163C17.1013 36.9945 17.1274 36.8638 17.1274 36.7318C17.1274 36.5997 17.1013 36.4691 17.0505 36.3472C16.9998 36.2253 16.9254 36.1147 16.8316 36.0218ZM8.35166 48.752L18.2517 38.852C18.3413 38.7473 18.4516 38.6623 18.5757 38.6023C18.6998 38.5423 18.8349 38.5085 18.9726 38.5032C19.1103 38.4979 19.2477 38.5211 19.376 38.5714C19.5043 38.6216 19.6209 38.6979 19.7183 38.7953C19.8158 38.8928 19.892 39.0094 19.9423 39.1377C19.9926 39.266 20.0158 39.4033 20.0105 39.541C20.0051 39.6787 19.9714 39.8139 19.9114 39.938C19.8514 40.062 19.7663 40.1723 19.6617 40.262L9.76167 50.162C9.57703 50.3504 9.32542 50.4582 9.06165 50.462C8.86303 50.4631 8.66856 50.4051 8.50304 50.2953C8.33752 50.1855 8.20845 50.0289 8.13229 49.8455C8.05612 49.662 8.03632 49.46 8.07539 49.2653C8.11446 49.0706 8.21063 48.8919 8.35166 48.752Z" fill="black"/>
</svg>
