<svg width="64" height="64" viewBox="0 0 64 64" fill="none" xmlns="http://www.w3.org/2000/svg">
<path fill-rule="evenodd" clip-rule="evenodd" d="M18.2929 19.7071C18.4804 19.8947 18.7348 20 19 20C19.2652 20 19.5196 19.8947 19.7071 19.7071C19.8946 19.5196 20 19.2652 20 19V14H44V19C44 19.2652 44.1054 19.5196 44.2929 19.7071C44.4804 19.8947 44.7348 20 45 20C45.2652 20 45.5196 19.8947 45.7071 19.7071C45.8946 19.5196 46 19.2652 46 19V14H53C53.2652 14 53.5196 14.1054 53.7071 14.2929C53.8946 14.4804 54 14.7348 54 15V22H10V15C10 14.7348 10.1054 14.4804 10.2929 14.2929C10.4804 14.1054 10.7348 14 11 14H18V19C18 19.2652 18.1054 19.5196 18.2929 19.7071ZM10 24H54V53C54 53.2652 53.8946 53.5196 53.7071 53.7071C53.5196 53.8947 53.2652 54 53 54H11C10.7348 54 10.4804 53.8947 10.2929 53.7071C10.1054 53.5196 10 53.2652 10 53V24ZM56 23V15C56 14.2044 55.6839 13.4413 55.1213 12.8787C54.5587 12.3161 53.7957 12 53 12H46V9C46 8.73478 45.8946 8.48044 45.7071 8.29291C45.5196 8.10537 45.2652 8 45 8C44.7348 8 44.4804 8.10537 44.2929 8.29291C44.1054 8.48044 44 8.73478 44 9V12H20V9C20 8.73478 19.8946 8.48044 19.7071 8.29291C19.5196 8.10537 19.2652 8 19 8C18.7348 8 18.4804 8.10537 18.2929 8.29291C18.1054 8.48044 18 8.73478 18 9V12H11C10.2044 12 9.44129 12.3161 8.87868 12.8787C8.31607 13.4413 8 14.2044 8 15V23V53C8 53.7957 8.31607 54.5587 8.87868 55.1213C9.44129 55.6839 10.2044 56 11 56H53C53.7957 56 54.5587 55.6839 55.1213 55.1213C55.6839 54.5587 56 53.7957 56 53V23Z" fill="black"/>
</svg>
