<svg width="24" height="24" viewBox="0 0 24 24" fill="none" xmlns="http://www.w3.org/2000/svg">
<path fill-rule="evenodd" clip-rule="evenodd" d="M4.26562 5.32031C4.26562 5.12615 4.42302 4.96875 4.61719 4.96875H19.3828C19.577 4.96875 19.7344 5.12615 19.7344 5.32031V14.1094H4.26562V5.32031ZM3.5625 14.4609V5.32031C3.5625 4.73782 4.0347 4.26562 4.61719 4.26562H19.3828C19.9653 4.26562 20.4375 4.73782 20.4375 5.32031V14.4609V15.8672C20.4375 16.4497 19.9653 16.9219 19.3828 16.9219H13.4385C13.5372 17.684 13.8274 18.4099 14.2833 19.0312H15.1634C15.3575 19.0312 15.5149 19.1887 15.5149 19.3828C15.5149 19.577 15.3575 19.7344 15.1634 19.7344H14.1135H14.1057H9.89425H9.88654H8.83524C8.64108 19.7344 8.48368 19.577 8.48368 19.3828C8.48368 19.1887 8.64108 19.0312 8.83524 19.0312H9.71667C10.1726 18.4099 10.4628 17.684 10.5615 16.9219H4.61719C4.0347 16.9219 3.5625 16.4497 3.5625 15.8672V14.4609ZM10.9446 16.2188H4.61719C4.42302 16.2188 4.26562 16.0613 4.26562 15.8672V14.8125H19.7344V15.8672C19.7344 16.0613 19.577 16.2188 19.3828 16.2188H13.0554C13.0551 16.2188 13.0548 16.2188 13.0545 16.2188H10.9455C10.9452 16.2188 10.9449 16.2188 10.9446 16.2188ZM11.2698 16.9219C11.186 17.6689 10.9433 18.3881 10.5594 19.0312H13.4406C13.0567 18.3881 12.8139 17.6689 12.7302 16.9219H11.2698Z" fill="black"/>
</svg>
