<svg width="64" height="64" viewBox="0 0 64 64" fill="none" xmlns="http://www.w3.org/2000/svg">
<g clip-path="url(#clip0_482_2091)">
<path fill-rule="evenodd" clip-rule="evenodd" d="M43.5299 55.879C43.6743 55.957 43.8357 55.9982 43.9999 55.999C44.1584 56.0088 44.3167 55.9778 44.4599 55.909C50.3686 52.8147 55.3151 48.1584 58.7605 42.4472C62.2059 36.736 64.0181 30.1889 63.9999 23.519V10.999C63.9999 10.2034 63.6838 9.44033 63.1212 8.87772C62.5586 8.31511 61.7955 7.99902 60.9999 7.99902H26.9999C26.2042 7.99902 25.4412 8.31511 24.8785 8.87772C24.3159 9.44033 23.9999 10.2034 23.9999 10.999V23.519C23.9861 30.1828 25.7995 36.7229 29.2428 42.4282C32.6861 48.1335 37.6275 52.7857 43.5299 55.879ZM26.2928 10.2919C26.4803 10.1044 26.7346 9.99902 26.9999 9.99902H60.9999C61.2651 9.99902 61.5194 10.1044 61.707 10.2919C61.8945 10.4795 61.9999 10.7338 61.9999 10.999V23.519C62.0116 29.7288 60.3452 35.8264 57.1767 41.167C54.0082 46.5077 49.4555 50.8929 43.9999 53.859C38.5428 50.8946 33.9889 46.5097 30.8202 41.1687C27.6515 35.8277 25.986 29.7292 25.9999 23.519V10.999C25.9999 10.7338 26.1052 10.4795 26.2928 10.2919ZM37.9399 35.3989C38.4994 35.9434 39.2491 36.2484 40.0299 36.249C40.8023 36.2459 41.5437 35.945 42.0999 35.409L55.6799 22.749C55.853 22.564 55.9494 22.3202 55.9497 22.0668C55.95 21.8135 55.8541 21.5695 55.6814 21.3841C55.5088 21.1987 55.2721 21.0858 55.0194 21.0681C54.7667 21.0504 54.5167 21.1294 54.3199 21.289L40.7199 33.979C40.5344 34.1533 40.2894 34.2504 40.0349 34.2504C39.7803 34.2504 39.5353 34.1533 39.3499 33.979L35.7099 30.299C35.5198 30.1337 35.2743 30.0463 35.0225 30.0542C34.7707 30.0621 34.5311 30.1647 34.3517 30.3415C34.1723 30.5184 34.0663 30.7565 34.0548 31.0081C34.0434 31.2598 34.1273 31.5065 34.2899 31.699L37.9399 35.3989Z" fill="black"/>
</g>
<defs>
<clipPath id="clip0_482_2091">
<rect width="64" height="64" fill="white"/>
</clipPath>
</defs>
</svg>
