<svg width="24" height="24" viewBox="0 0 24 24" fill="none" xmlns="http://www.w3.org/2000/svg">
<path fill-rule="evenodd" clip-rule="evenodd" d="M20.3054 3.08525C20.4425 3.14188 20.5671 3.22506 20.6719 3.33001C20.8784 3.53617 20.9967 3.8145 21.0019 4.10626V6.37876C21.0035 6.56186 20.9382 6.73927 20.8181 6.87751C20.6978 7.01571 20.5311 7.10508 20.3494 7.12876C19.9012 7.18453 19.4802 7.37388 19.1411 7.67217C18.802 7.97045 18.5606 8.36388 18.4481 8.80127C18.3736 9.09276 18.3583 9.39625 18.4031 9.69377C18.4175 9.79322 18.3918 9.89433 18.3317 9.97486C18.2716 10.0554 18.1819 10.1087 18.0825 10.1231C17.983 10.1375 17.8819 10.1119 17.8014 10.0517C17.7209 9.99161 17.6675 9.90197 17.6531 9.80251C17.595 9.40791 17.6161 9.00569 17.7153 8.61935C17.8144 8.23301 17.9896 7.87033 18.2306 7.55251C18.4721 7.23337 18.775 6.96577 19.1215 6.76548C19.468 6.56518 19.851 6.43626 20.2481 6.38626V4.11001C20.2481 4.01056 20.2086 3.91517 20.1383 3.84484C20.0679 3.77451 19.9726 3.73501 19.8731 3.73501H4.12311C4.02366 3.73501 3.92827 3.77451 3.85794 3.84484C3.78762 3.91517 3.74811 4.01056 3.74811 4.11001V6.37876C4.47476 6.46826 5.14359 6.8204 5.62862 7.36883C6.11364 7.91726 6.38138 8.62412 6.38138 9.35626C6.38138 10.0884 6.11364 10.7953 5.62862 11.3437C5.14359 11.8921 4.47476 12.2443 3.74811 12.3338V14.61C3.74811 14.7095 3.78762 14.8048 3.85794 14.8752C3.92827 14.9455 4.02366 14.985 4.12311 14.985H9.74811C9.84757 14.985 9.94295 15.0245 10.0133 15.0949C10.0836 15.1652 10.1231 15.2606 10.1231 15.36C10.1231 15.4595 10.0836 15.5548 10.0133 15.6252C9.94295 15.6955 9.84757 15.735 9.74811 15.735H4.12311C3.82474 15.735 3.53859 15.6165 3.32761 15.4055C3.11663 15.1945 2.99811 14.9084 2.99811 14.61V12.3375C2.99916 12.1542 3.06565 11.9773 3.18561 11.8388C3.30653 11.7019 3.4732 11.614 3.65436 11.5913C4.19935 11.5241 4.70097 11.26 5.06474 10.8487C5.42851 10.4374 5.6293 9.90724 5.6293 9.35814C5.6293 8.80903 5.42851 8.27889 5.06474 7.86756C4.70097 7.45624 4.19935 7.19213 3.65436 7.125C3.47267 7.10133 3.30593 7.01196 3.18561 6.87376C3.06417 6.73606 2.99746 6.5586 2.99811 6.375V4.125C2.99838 3.82674 3.11708 3.54078 3.32811 3.33001C3.53889 3.11897 3.82484 3.00027 4.12311 3H19.8731C20.0214 2.99964 20.1684 3.02862 20.3054 3.08525ZM13.4147 12.0716C14.2164 11.5359 15.1589 11.25 16.1231 11.25C17.416 11.25 18.656 11.7636 19.5703 12.6779C20.4845 13.5921 20.9981 14.8321 20.9981 16.125C20.9981 17.0892 20.7122 18.0317 20.1765 18.8334C19.6408 19.6351 18.8795 20.2599 17.9887 20.6289C17.0979 20.9979 16.1177 21.0944 15.172 20.9063C14.2264 20.7182 13.3577 20.2539 12.676 19.5721C11.9942 18.8904 11.5299 18.0217 11.3418 17.0761C11.1537 16.1304 11.2502 15.1502 11.6192 14.2594C11.9882 13.3686 12.613 12.6073 13.4147 12.0716ZM13.8314 19.5548C14.5097 20.0081 15.3073 20.25 16.1231 20.25C17.2171 20.25 18.2663 19.8154 19.0399 19.0418C19.8135 18.2682 20.2481 17.219 20.2481 16.125C20.2481 15.3092 20.0062 14.5116 19.5529 13.8333C19.0997 13.1549 18.4554 12.6262 17.7017 12.314C16.9479 12.0018 16.1185 11.9201 15.3184 12.0793C14.5182 12.2384 13.7832 12.6313 13.2063 13.2082C12.6294 13.7851 12.2365 14.5201 12.0774 15.3203C11.9182 16.1204 11.9999 16.9498 12.3121 17.7036C12.6243 18.4573 13.153 19.1016 13.8314 19.5548ZM17.8294 14.5912L15.6506 17.4974C15.6342 17.5186 15.6138 17.5364 15.5906 17.5499C15.5658 17.5618 15.5392 17.5694 15.5119 17.5724C15.487 17.5761 15.4617 17.5761 15.4369 17.5724C15.4117 17.5619 15.3888 17.5466 15.3694 17.5274L14.2444 16.4024C14.1738 16.3318 14.078 16.2921 13.9781 16.2921C13.8783 16.2921 13.7825 16.3318 13.7119 16.4024C13.6412 16.473 13.6016 16.5688 13.6016 16.6687C13.6016 16.7685 13.6412 16.8643 13.7119 16.9349L14.8369 18.0599C14.9328 18.1545 15.0479 18.2274 15.1744 18.2737C15.2784 18.3138 15.3891 18.3342 15.5006 18.3337H15.5681C15.7 18.3252 15.8283 18.2867 15.9431 18.2212C16.0603 18.1572 16.1626 18.069 16.2431 17.9624L18.4219 15.0562C18.4514 15.0168 18.4729 14.972 18.4851 14.9243C18.4974 14.8765 18.5001 14.8269 18.4931 14.7781C18.4861 14.7294 18.4696 14.6825 18.4445 14.6401C18.4195 14.5977 18.3863 14.5607 18.3469 14.5312C18.3075 14.5016 18.2626 14.4801 18.2149 14.4679C18.1672 14.4557 18.1176 14.453 18.0688 14.4599C18.0201 14.4669 17.9732 14.4834 17.9308 14.5085C17.8884 14.5336 17.8514 14.5668 17.8219 14.6062L17.8294 14.5912ZM15.5606 5.25C15.5606 5.56066 15.3088 5.8125 14.9981 5.8125C14.6874 5.8125 14.4356 5.56066 14.4356 5.25C14.4356 4.93934 14.6874 4.6875 14.9981 4.6875C15.3088 4.6875 15.5606 4.93934 15.5606 5.25ZM14.9981 8.0625C15.3088 8.0625 15.5606 7.81066 15.5606 7.5C15.5606 7.18934 15.3088 6.9375 14.9981 6.9375C14.6874 6.9375 14.4356 7.18934 14.4356 7.5C14.4356 7.81066 14.6874 8.0625 14.9981 8.0625ZM15.5606 9.75C15.5606 10.0607 15.3088 10.3125 14.9981 10.3125C14.6874 10.3125 14.4356 10.0607 14.4356 9.75C14.4356 9.43934 14.6874 9.1875 14.9981 9.1875C15.3088 9.1875 15.5606 9.43934 15.5606 9.75Z" fill="black"/>
</svg>
