<svg width="24" height="24" viewBox="0 0 24 24" fill="none" xmlns="http://www.w3.org/2000/svg">
<path fill-rule="evenodd" clip-rule="evenodd" d="M8.625 3H15.375C15.8723 3 16.3492 3.19755 16.7008 3.54918C17.0525 3.90081 17.25 4.37772 17.25 4.875V19.125C17.25 19.6223 17.0525 20.0992 16.7008 20.4508C16.3492 20.8025 15.8723 21 15.375 21H8.625C8.12772 21 7.6508 20.8025 7.29917 20.4508C6.94754 20.0992 6.75 19.6223 6.75 19.125V4.875C6.75 4.37772 6.94754 3.90081 7.29917 3.54918C7.6508 3.19755 8.12772 3 8.625 3ZM15.375 3.75H8.625C8.32663 3.75 8.04048 3.86853 7.8295 4.07951C7.61853 4.29049 7.5 4.57663 7.5 4.875V17.25H16.5V4.875C16.5 4.57663 16.3815 4.29049 16.1705 4.07951C15.9595 3.86853 15.6734 3.75 15.375 3.75ZM7.8295 19.9205C8.04048 20.1315 8.32663 20.25 8.625 20.25H15.375C15.6734 20.25 15.9595 20.1315 16.1705 19.9205C16.3815 19.7095 16.5 19.4234 16.5 19.125V18H7.5V19.125C7.5 19.4234 7.61853 19.7095 7.8295 19.9205ZM12.5625 19.125C12.5625 19.4357 12.3107 19.6875 12 19.6875C11.6893 19.6875 11.4375 19.4357 11.4375 19.125C11.4375 18.8143 11.6893 18.5625 12 18.5625C12.3107 18.5625 12.5625 18.8143 12.5625 19.125Z" fill="black"/>
</svg>
