<svg width="64" height="64" viewBox="0 0 64 64" fill="none" xmlns="http://www.w3.org/2000/svg">
<path fill-rule="evenodd" clip-rule="evenodd" d="M35.3279 7.89355H44.9752C45.9301 7.90404 46.8611 8.19376 47.6535 8.7269C48.4441 9.25891 49.0622 10.0102 49.4319 10.8884L51.557 15.7783L55.8941 18.2982C56.4522 18.6298 56.9135 19.1021 57.2319 19.6679C57.5495 20.2322 57.7138 20.8699 57.7085 21.5174V24.0264C57.7265 24.9856 57.3645 25.9133 56.7011 26.6069C56.0353 27.303 55.1204 27.7065 54.1573 27.7285L54.1361 27.7287H52.7786C52.5654 28.5002 52.1425 29.2041 51.5492 29.7579C50.7404 30.513 49.6752 30.9329 48.5687 30.9329C47.4623 30.9329 46.397 30.513 45.5882 29.7579C44.7794 29.0028 44.2874 27.9689 44.2114 26.8651C44.1763 26.3541 44.5619 25.9115 45.0729 25.8763C45.5838 25.8411 46.0265 26.2268 46.0617 26.7378C46.1054 27.3729 46.3885 27.9678 46.8538 28.4022C47.3192 28.8367 47.9321 29.0783 48.5687 29.0783C49.2054 29.0783 49.8183 28.8367 50.2836 28.4022C50.749 27.9678 51.0321 27.3729 51.0758 26.7378C51.1093 26.2515 51.5135 25.8741 52.0009 25.8741H54.1244C54.5926 25.8609 55.0369 25.6637 55.3608 25.325C55.6869 24.984 55.8644 24.5275 55.8541 24.0558L55.8539 24.0357V21.5047C55.857 21.1801 55.7749 20.8604 55.6157 20.5775C55.4571 20.2958 55.2277 20.0605 54.9502 19.8948L50.362 17.2289C50.191 17.1296 50.0563 16.9781 49.9774 16.7967L47.724 11.6115C47.4946 11.0646 47.1102 10.5967 46.6181 10.2656C46.1274 9.93541 45.5509 9.7556 44.9596 9.74818H35.3352C34.656 9.75957 33.9996 9.99561 33.4687 10.4195C32.9361 10.8448 32.5599 11.4349 32.3993 12.0972L32.3955 12.1129L31.2084 16.6613C31.1615 16.8412 31.0615 17.0028 30.9215 17.1252L27.9187 19.7506L27.917 19.7522C27.7157 19.9307 27.5547 20.1499 27.4447 20.3954C27.3343 20.6416 27.2778 20.9085 27.2788 21.1783C27.2808 21.6905 26.8672 22.1072 26.3551 22.1092C25.843 22.1112 25.4262 21.6976 25.4242 21.1855C25.4222 20.6518 25.534 20.1239 25.7523 19.6369C25.9705 19.1499 26.2902 18.7151 26.6899 18.3615L26.694 18.3579L29.4859 15.9169L30.5989 11.6519C30.8576 10.5933 31.4598 9.65022 32.3115 8.97019C33.1654 8.28841 34.2217 7.90972 35.3143 7.89365L35.3279 7.89355Z" fill="#000001"/>
<path fill-rule="evenodd" clip-rule="evenodd" d="M11.3748 28.0445C10.8857 28.0414 10.4008 28.135 9.94797 28.3199C9.49515 28.5049 9.0834 28.7776 8.73641 29.1224C8.38942 29.4671 8.11404 29.8771 7.92612 30.3287C7.73821 30.7803 7.64148 31.2646 7.64149 31.7538V47.0753C7.64149 47.43 7.71135 47.7812 7.84707 48.1088C7.9828 48.4365 8.18174 48.7343 8.43253 48.985C8.68332 49.2358 8.98106 49.4348 9.30873 49.5705C9.63641 49.7062 9.98761 49.7761 10.3423 49.7761H11.2534C11.7655 49.7761 12.1807 50.1913 12.1807 50.7034V50.7341C12.2045 51.6734 12.5937 52.5666 13.2657 53.2236C13.9402 53.883 14.8459 54.2521 15.7891 54.2521C16.7323 54.2521 17.638 53.883 18.3124 53.2236C18.9845 52.5666 19.3737 51.6734 19.3975 50.7341V50.7034C19.3975 50.1913 19.8126 49.7761 20.3248 49.7761H33.9423C34.4545 49.7761 34.8697 50.1913 34.8697 50.7034V50.734C34.8935 51.6734 35.2826 52.5666 35.9547 53.2236C36.6292 53.883 37.5349 54.2521 38.4781 54.2521C39.4212 54.2521 40.327 53.883 41.0014 53.2236C41.6735 52.5666 42.0627 51.6734 42.0865 50.734V50.7034C42.0865 50.1913 42.5016 49.7761 43.0138 49.7761H44.8313C45.5479 49.7761 46.2352 49.4915 46.7421 48.985C47.249 48.4784 47.5339 47.7913 47.5344 47.0747V43.7659C47.5351 43.285 47.4074 42.8127 47.1647 42.3976C46.9222 41.983 46.5737 41.6405 46.1549 41.4053L46.1535 41.4045L39.8579 37.9057C39.6845 37.8093 39.5465 37.6598 39.4643 37.4793L36.3787 30.7006L36.3779 30.6988C36.02 29.908 35.4418 29.237 34.7126 28.7663C33.9834 28.2957 33.1341 28.0451 32.2662 28.0446L11.3748 28.0445ZM43.8522 51.6307C43.6493 52.734 43.11 53.7558 42.2979 54.5498C41.2769 55.5479 39.9059 56.1068 38.4781 56.1068C37.0503 56.1068 35.6792 55.5479 34.6582 54.5498C33.8461 53.7558 33.3068 52.734 33.1039 51.6307H21.1632C20.9603 52.734 20.4211 53.7558 19.6089 54.5498C18.588 55.5479 17.2169 56.1068 15.7891 56.1068C14.3613 56.1068 12.9902 55.5479 11.9692 54.5498C11.1571 53.7558 10.6178 52.734 10.415 51.6307H10.3423C9.74406 51.6307 9.15169 51.5129 8.599 51.2839C8.04631 51.055 7.54412 50.7195 7.12112 50.2965C6.6981 49.8734 6.36256 49.3713 6.13363 48.8186C5.9047 48.2659 5.78687 47.6735 5.78687 47.0753V31.7538V31.7538C5.78685 31.0201 5.93196 30.2936 6.21382 29.6162C6.49569 28.9388 6.90875 28.3239 7.42925 27.8067C7.94974 27.2896 8.56738 26.8805 9.24659 26.6031C9.92484 26.326 10.6511 26.1856 11.3837 26.1899H32.2662C33.4907 26.1905 34.6895 26.544 35.7183 27.2081C36.7468 27.8719 37.5622 28.8179 38.067 29.933L38.0675 29.9342L41.0258 36.4329L47.0607 39.7869C47.7678 40.1835 48.3564 40.7615 48.7657 41.4614C49.1749 42.1612 49.3901 42.9576 49.389 43.7684L48.4617 43.7671H49.389V43.7684V47.0753C49.3883 48.2836 48.9077 49.4427 48.0531 50.2968C47.1984 51.1509 46.0396 51.6307 44.8313 51.6307H43.8522Z" fill="#000001"/>
</svg>
