<svg width="64" height="64" viewBox="0 0 64 64" fill="none" xmlns="http://www.w3.org/2000/svg">
<path fill-rule="evenodd" clip-rule="evenodd" d="M14.92 55.2699C15.2401 55.4725 15.6112 55.58 15.99 55.5799C16.3263 55.581 16.6575 55.4973 16.9529 55.3365C17.2483 55.1757 17.4984 54.943 17.68 54.6599C22 47.9299 32 31.5099 32 24.4199C32 20.1765 30.3143 16.1068 27.3137 13.1062C24.3131 10.1056 20.2435 8.41992 16 8.41992C11.7565 8.41992 7.68688 10.1056 4.68629 13.1062C1.68571 16.1068 0 20.1765 0 24.4199C0 31.5199 10.01 47.9399 14.31 54.6599C14.4713 54.9013 14.6786 55.1086 14.92 55.2699ZM6.09051 14.5204C8.71602 11.8949 12.277 10.4199 15.99 10.4199H16C19.7113 10.4226 23.2697 11.8987 25.893 14.524C28.5164 17.1492 29.99 20.7086 29.99 24.4199C29.99 31.1699 19.27 48.4499 15.99 53.5799C9.22 43.0099 1.99 29.7899 1.99 24.4199C1.99 20.7069 3.465 17.1459 6.09051 14.5204ZM12.111 30.2402C13.2622 31.0094 14.6155 31.4199 16 31.4199C17.8565 31.4199 19.637 30.6824 20.9497 29.3697C22.2625 28.0569 23 26.2765 23 24.4199C23 23.0355 22.5895 21.6821 21.8203 20.5309C21.0511 19.3798 19.9579 18.4826 18.6788 17.9528C17.3997 17.423 15.9922 17.2843 14.6344 17.5544C13.2765 17.8245 12.0292 18.4912 11.0503 19.4702C10.0713 20.4491 9.4046 21.6964 9.13451 23.0543C8.86441 24.4121 9.00303 25.8196 9.53284 27.0987C10.0627 28.3778 10.9599 29.471 12.111 30.2402ZM13.2221 20.2626C14.0444 19.7132 15.0111 19.4199 16 19.4199C17.3261 19.4199 18.5978 19.9467 19.5355 20.8844C20.4732 21.8221 21 23.0939 21 24.4199C21 25.4088 20.7068 26.3755 20.1573 27.1978C19.6079 28.02 18.827 28.6609 17.9134 29.0393C16.9998 29.4178 15.9945 29.5168 15.0246 29.3238C14.0546 29.1309 13.1637 28.6547 12.4645 27.9555C11.7652 27.2562 11.289 26.3653 11.0961 25.3954C10.9031 24.4255 11.0022 23.4201 11.3806 22.5065C11.759 21.5929 12.3999 20.812 13.2221 20.2626Z" fill="black"/>
</svg>
