<svg width="64" height="64" viewBox="0 0 64 64" fill="none" xmlns="http://www.w3.org/2000/svg">
<path fill-rule="evenodd" clip-rule="evenodd" d="M13.135 16.8022C16.6953 17.6473 20.3461 18.0503 24.005 18.0022C29.3951 18.0022 35.0687 17.2398 37.995 15.6055V19.0022C37.995 19.9022 33.225 22.0022 23.995 22.0022C14.765 22.0022 9.995 19.9022 9.995 19.0022V15.6119C10.8002 16.0602 11.8479 16.4577 13.135 16.8022ZM23.995 24.0022C29.3913 24.0022 35.0717 23.238 37.995 21.5999V25.0022C37.995 25.9022 33.225 28.0022 23.995 28.0022C14.765 28.0022 9.995 25.9022 9.995 25.0022V21.5988C12.9201 23.2377 18.6046 24.0022 23.995 24.0022ZM23.995 30.0022C29.3913 30.0022 35.0717 29.238 37.995 27.5999V31.0022C37.995 31.9022 33.225 34.0022 23.995 34.0022C14.765 34.0022 9.995 31.9022 9.995 31.0022V27.5988C12.9201 29.2377 18.6046 30.0022 23.995 30.0022ZM7.995 31.0022V25.0022V19.0022V13.0022C7.995 12.9368 8.0014 12.872 8.01388 12.8088C8.31918 9.50368 16.4508 8.00221 24.005 8.00221C27.6646 7.95189 31.3161 8.35835 34.875 9.2122C38.275 10.1122 40.005 11.3922 40.005 13.0022C40.005 13.0715 40.0016 13.14 39.995 13.2078V19.0022V25.0022V30.861C40.0016 30.9075 40.005 30.9547 40.005 31.0022V34.0022C47.715 34.0022 56.005 35.5722 56.005 39.0022C56.005 39.0713 56.0016 39.1396 55.995 39.2071V45.0022V51.0022C55.995 54.4422 47.705 56.0022 39.995 56.0022C32.295 56.0022 23.995 54.4422 23.995 51.0022V48.0022C16.295 48.0022 7.995 46.4422 7.995 43.0022V37.0022V31.0022ZM38.005 34.0371V33.5943C37.6992 33.7662 37.3631 33.9285 37.0002 34.0814C37.3343 34.0636 37.6695 34.0489 38.005 34.0371ZM23.995 45.0022V46.0022C14.765 46.0022 9.995 43.9022 9.995 43.0022V39.5988C12.9201 41.2377 18.6046 42.0022 23.995 42.0022V45.0022ZM23.995 40.0022C14.765 40.0022 9.995 37.9022 9.995 37.0022V33.5988C12.9201 35.2377 18.6046 36.0022 23.995 36.0022C24.9933 36.0022 26.0013 35.976 26.9998 35.923C25.2499 36.6599 24.1237 37.6172 24.0139 38.8089C24.0014 38.8721 23.995 38.9368 23.995 39.0022V40.0022ZM37.9961 12.9552C37.911 12.6971 37.1818 11.8979 34.355 11.1422C30.9662 10.3313 27.4891 9.94828 24.005 10.0022C14.775 10.0022 10.005 12.1022 10.005 13.0022C10.005 13.1922 10.625 14.0522 13.655 14.8622C17.0439 15.6725 20.521 16.0555 24.005 16.0022C33.0002 16.0022 37.7497 14.012 37.995 13.0762V13.0022C37.995 12.9865 37.9954 12.9708 37.9961 12.9552ZM25.995 47.5988V51.0022C25.995 51.9022 30.765 54.0022 39.995 54.0022C49.225 54.0022 53.995 51.9022 53.995 51.0022V47.5999C51.0717 49.238 45.3913 50.0022 39.995 50.0022C34.6046 50.0022 28.9201 49.2377 25.995 47.5988ZM53.995 45.0022C53.995 45.9022 49.225 48.0022 39.995 48.0022C30.765 48.0022 25.995 45.9022 25.995 45.0022V41.5943C28.9154 43.2363 34.6026 44.0022 40.005 44.0022C45.3951 44.0022 51.0687 43.2349 53.995 41.6011V45.0022ZM53.995 39.0022C53.995 38.9803 53.9957 38.9585 53.9971 38.9369C53.779 38.0047 49.028 36.0022 40.005 36.0022C30.765 36.0022 26.005 38.1022 26.005 39.0022C26.005 39.9022 30.765 42.0022 40.005 42.0022C49.0003 42.0022 53.7497 40.012 53.995 39.0762V39.0022Z" fill="black"/>
</svg>
