<svg width="64" height="64" viewBox="0 0 64 64" fill="none" xmlns="http://www.w3.org/2000/svg">
<path fill-rule="evenodd" clip-rule="evenodd" d="M38.5625 9.5C39.0803 9.5 39.5 9.91973 39.5 10.4375V12.3125H47V10.4375C47 9.91973 47.4197 9.5 47.9375 9.5C48.4553 9.5 48.875 9.91973 48.875 10.4375V12.3125H51.6875C53.2408 12.3125 54.5 13.5717 54.5 15.125V19.8125V29.1875C54.5 30.7408 53.2408 32 51.6875 32H34.8125C33.2592 32 32 30.7408 32 29.1875V19.8125V15.125C32 13.5717 33.2592 12.3125 34.8125 12.3125H37.625V10.4375C37.625 9.91973 38.0447 9.5 38.5625 9.5ZM47 14.1875V15.125C47 15.6428 47.4197 16.0625 47.9375 16.0625C48.4553 16.0625 48.875 15.6428 48.875 15.125V14.1875H51.6875C52.2053 14.1875 52.625 14.6072 52.625 15.125V18.875H33.875V15.125C33.875 14.6072 34.2947 14.1875 34.8125 14.1875H37.625V15.125C37.625 15.6428 38.0447 16.0625 38.5625 16.0625C39.0803 16.0625 39.5 15.6428 39.5 15.125V14.1875H47ZM52.625 20.75H33.875V29.1875C33.875 29.7053 34.2947 30.125 34.8125 30.125H51.6875C52.2053 30.125 52.625 29.7053 52.625 29.1875V20.75ZM11.6496 33.2121C11.8254 33.0363 12.0639 32.9375 12.3125 32.9375H27.3125C27.8303 32.9375 28.25 32.5178 28.25 32C28.25 31.4822 27.8303 31.0625 27.3125 31.0625H12.3125C11.5666 31.0625 10.8512 31.3588 10.3238 31.8863C9.79632 32.4137 9.5 33.1291 9.5 33.875V51.6875C9.5 52.4334 9.79632 53.1488 10.3238 53.6762C10.8512 54.2037 11.5666 54.5 12.3125 54.5H49.8125C50.5584 54.5 51.2738 54.2037 51.8012 53.6762C52.3287 53.1488 52.625 52.4334 52.625 51.6875V36.6875C52.625 36.1697 52.2053 35.75 51.6875 35.75C51.1697 35.75 50.75 36.1697 50.75 36.6875V51.6875C50.75 51.9361 50.6512 52.1746 50.4754 52.3504C50.2996 52.5262 50.0611 52.625 49.8125 52.625H12.3125C12.0639 52.625 11.8254 52.5262 11.6496 52.3504C11.4738 52.1746 11.375 51.9361 11.375 51.6875V33.875C11.375 33.6264 11.4738 33.3879 11.6496 33.2121ZM16.9148 38.2999C17.2837 38.2921 17.6504 38.359 17.9928 38.4966C18.3352 38.6342 18.6462 38.8396 18.9071 39.1006C19.168 39.3615 19.3734 39.6725 19.511 40.0149C19.6486 40.3572 19.7155 40.7239 19.7077 41.0928C19.7067 41.1395 19.7092 41.1854 19.7148 41.2303C19.7077 41.3501 19.7052 41.4704 19.7075 41.5907V44.3839C19.7065 44.4382 19.7064 44.4925 19.7073 44.5467C19.6984 44.8705 19.6321 45.1905 19.511 45.4917C19.3734 45.834 19.168 46.1451 18.9071 46.406C18.6462 46.6669 18.3352 46.8723 17.9928 47.0099C17.6504 47.1475 17.2837 47.2144 16.9148 47.2066C16.3972 47.1956 15.9687 47.6064 15.9577 48.1241C15.9468 48.6417 16.3575 49.0702 16.8752 49.0812C17.4969 49.0943 18.1149 48.9816 18.6919 48.7497C19.269 48.5178 19.7931 48.1715 20.2329 47.7318C20.3812 47.5835 20.5189 47.4256 20.6451 47.2593C20.7713 47.4254 20.9089 47.5832 21.0571 47.7315C21.4968 48.1712 22.021 48.5174 22.598 48.7493C23.1751 48.9812 23.7931 49.094 24.4148 49.0808C24.9325 49.0699 25.3432 48.6414 25.3323 48.1237C25.3213 47.6061 24.8928 47.1953 24.3752 47.2063C24.0063 47.2141 23.6396 47.1472 23.2972 47.0096C22.9548 46.872 22.6438 46.6665 22.3829 46.4056C22.122 46.1447 21.9166 45.8337 21.779 45.4913C21.658 45.1902 21.5916 44.8703 21.5827 44.5466C21.5836 44.4926 21.5835 44.4386 21.5825 44.3845V41.5814L21.5823 41.5616C21.5745 41.1927 21.6414 40.826 21.779 40.4836C21.9166 40.1412 22.122 39.8302 22.3829 39.5693C22.6438 39.3084 22.9548 39.103 23.2972 38.9654C23.6396 38.8278 24.0063 38.7609 24.3752 38.7687C24.8928 38.7796 25.3213 38.3689 25.3323 37.8512C25.3432 37.3336 24.9325 36.9051 24.4148 36.8941C23.7931 36.8809 23.1751 36.9937 22.598 37.2256C22.021 37.4575 21.4968 37.8037 21.0571 38.2435C20.9754 38.3251 20.897 38.4097 20.8219 38.497C20.6509 38.2376 20.4537 37.9955 20.2329 37.7747C19.7931 37.335 19.269 36.9888 18.6919 36.7569C18.1149 36.525 17.4969 36.4122 16.8752 36.4253C16.3575 36.4363 15.9468 36.8648 15.9577 37.3825C15.9687 37.9001 16.3972 38.3109 16.9148 38.2999Z" fill="black"/>
</svg>
