<svg width="24" height="24" viewBox="0 0 24 24" fill="none" xmlns="http://www.w3.org/2000/svg">
<path fill-rule="evenodd" clip-rule="evenodd" d="M18.2025 6.44407C18.4132 6.58904 18.6555 6.68167 18.9092 6.71428C19.1629 6.74688 19.4207 6.71853 19.6613 6.63157C19.9849 7.03053 20.4256 7.31779 20.9213 7.45282C21.1304 7.50909 21.3459 7.53807 21.5625 7.53906C22.209 7.53906 22.829 7.28227 23.2861 6.82515C23.7432 6.36803 24 5.74803 24 5.10156C24 4.4551 23.7432 3.83511 23.2861 3.37799C22.829 2.92087 22.209 2.66406 21.5625 2.66406C21.2023 2.66687 20.8471 2.74977 20.5228 2.90672C20.1986 3.06368 19.9132 3.29077 19.6875 3.57157C19.3154 3.43838 18.9074 3.44549 18.5402 3.59158C18.1729 3.73768 17.8716 4.01271 17.6926 4.36512C17.5136 4.71754 17.4693 5.12313 17.568 5.50586C17.6668 5.88859 17.9017 6.22217 18.2288 6.44407H18.2025ZM18.4388 4.64407C18.5597 4.4668 18.7458 4.34448 18.9565 4.30375C19.1672 4.26301 19.3855 4.30715 19.5638 4.42657C19.6106 4.45809 19.6633 4.47968 19.7188 4.49C19.7743 4.50032 19.8313 4.49916 19.8863 4.48657C19.9412 4.4741 19.9929 4.45031 20.0381 4.41674C20.0833 4.38316 20.121 4.34054 20.1488 4.29157C20.2896 4.04452 20.4931 3.83891 20.7386 3.6954C20.9841 3.5519 21.2631 3.47556 21.5475 3.47406C21.8337 3.4734 22.115 3.54824 22.3631 3.69101C22.6112 3.83378 22.8172 4.03944 22.9604 4.28725C23.1036 4.53506 23.1789 4.81624 23.1788 5.10246C23.1786 5.38867 23.103 5.66977 22.9595 5.91742C22.816 6.16507 22.6098 6.37051 22.3616 6.51301C22.1133 6.65551 21.8319 6.73002 21.5457 6.72905C21.2595 6.72808 20.9786 6.65164 20.7314 6.50746C20.4841 6.36327 20.2793 6.15644 20.1375 5.90782C20.1098 5.85954 20.0726 5.81736 20.0281 5.78385C19.9836 5.75033 19.9328 5.72617 19.8788 5.71281C19.8476 5.70889 19.8161 5.70889 19.785 5.71281C19.7036 5.71448 19.6243 5.73919 19.5563 5.78407C19.3999 5.88496 19.2138 5.92925 19.0288 5.90955C18.8438 5.88985 18.6711 5.80734 18.5396 5.67578C18.408 5.54422 18.3255 5.37156 18.3058 5.18656C18.2861 5.00155 18.3304 4.81538 18.4313 4.65907L18.4388 4.64407ZM22.7025 10.3928C22.5937 10.3933 22.4854 10.4072 22.38 10.434L13.2825 12.789L12.6375 5.99402C12.6299 5.89189 12.5839 5.79643 12.5088 5.72685C12.4336 5.65727 12.3349 5.61874 12.2325 5.61902H8.46001C8.3576 5.61874 8.25889 5.65727 8.18374 5.72685C8.1086 5.79643 8.06261 5.89189 8.05502 5.99402L7.26002 14.349L6.20252 14.6228C5.94413 14.6886 5.71504 14.8386 5.55138 15.0491C5.38773 15.2596 5.29885 15.5186 5.29877 15.7853V20.9303C5.29876 20.9838 5.30936 21.0368 5.32995 21.0861C5.35054 21.1355 5.38071 21.1803 5.41871 21.218C5.45672 21.2556 5.50181 21.2854 5.55138 21.3055C5.60095 21.3257 5.65402 21.3358 5.70752 21.3353H23.58C23.6335 21.3358 23.6866 21.3257 23.7362 21.3055C23.7857 21.2854 23.8308 21.2556 23.8688 21.218C23.9068 21.1803 23.937 21.1355 23.9576 21.0861C23.9782 21.0368 23.9888 20.9838 23.9888 20.9303V11.679C23.9878 11.3382 23.8519 11.0116 23.6109 10.7706C23.3699 10.5296 23.0433 10.3938 22.7025 10.3928ZM11.865 6.44027L12.1238 9.16277H8.58002L8.83877 6.44027H11.865ZM8.49002 9.97652H12.1988L12.4875 12.9953L8.09626 14.1203L8.49002 9.97652ZM17.235 20.5215V17.3715C17.235 17.2641 17.2777 17.1611 17.3536 17.0851C17.4296 17.0092 17.5326 16.9665 17.64 16.9665H19.9875C20.041 16.966 20.0941 16.9761 20.1437 16.9963C20.1932 17.0164 20.2383 17.0462 20.2763 17.0838C20.3143 17.1215 20.3445 17.1663 20.3651 17.2157C20.3857 17.265 20.3963 17.318 20.3963 17.3715V20.5215H17.235ZM23.175 20.5215H21.2063V17.3715C21.2063 17.0483 21.0779 16.7383 20.8493 16.5097C20.6207 16.2812 20.3108 16.1528 19.9875 16.1528H17.64C17.3174 16.1538 17.0084 16.2826 16.7807 16.5111C16.5529 16.7395 16.425 17.0489 16.425 17.3715V20.5215H6.11252V15.7853C6.1104 15.6986 6.13838 15.6138 6.19172 15.5455C6.24505 15.4771 6.32043 15.4293 6.40502 15.4103L22.5825 11.2253C22.6523 11.2091 22.7248 11.2087 22.7948 11.224C22.8647 11.2393 22.9304 11.2699 22.9871 11.3137C23.0438 11.3575 23.0901 11.4133 23.1226 11.4771C23.1551 11.5409 23.173 11.6112 23.175 11.6828V20.5215ZM15.9544 6.45273C15.6862 6.63128 15.371 6.7262 15.0488 6.72545C14.6184 6.72446 14.206 6.55307 13.9017 6.24877C13.5974 5.94448 13.426 5.53204 13.425 5.1017C13.4243 4.77949 13.5192 4.46432 13.6978 4.1961C13.8763 3.92789 14.1304 3.71871 14.428 3.59506C14.7255 3.47141 15.0531 3.43887 15.3691 3.50155C15.6852 3.56423 15.9755 3.7193 16.2033 3.94714C16.4312 4.17497 16.5863 4.46531 16.6489 4.78137C16.7116 5.09742 16.6791 5.42497 16.5554 5.72251C16.4318 6.02004 16.2226 6.27418 15.9544 6.45273ZM15.5019 4.42327C15.3676 4.33431 15.2099 4.28721 15.0488 4.28795C14.8336 4.28895 14.6276 4.37512 14.4758 4.52762C14.324 4.68012 14.2388 4.88653 14.2388 5.1017C14.2388 5.2628 14.2866 5.42028 14.3762 5.55419C14.4658 5.68809 14.5931 5.79238 14.742 5.85386C14.8909 5.91534 15.0547 5.93124 15.2127 5.89953C15.3706 5.86783 15.5156 5.78995 15.6293 5.67577C15.7429 5.56159 15.8201 5.41625 15.8511 5.25815C15.8821 5.10005 15.8654 4.93631 15.8033 4.78768C15.7411 4.63906 15.6362 4.51223 15.5019 4.42327ZM9.76877 16.4753H8.95502C8.85385 16.4851 8.75993 16.5321 8.69159 16.6074C8.62324 16.6826 8.58537 16.7806 8.58537 16.8822C8.58537 16.9839 8.62324 17.0819 8.69159 17.1571C8.75993 17.2323 8.85385 17.2794 8.95502 17.2891H9.76877C9.86994 17.2794 9.96386 17.2323 10.0322 17.1571C10.1005 17.0819 10.1384 16.9839 10.1384 16.8822C10.1384 16.7806 10.1005 16.6826 10.0322 16.6074C9.96386 16.5321 9.86994 16.4851 9.76877 16.4753ZM8.95502 18.0991H9.76877C9.86994 18.1088 9.96386 18.1559 10.0322 18.2311C10.1005 18.3064 10.1384 18.4044 10.1384 18.506C10.1384 18.6076 10.1005 18.7056 10.0322 18.7809C9.96386 18.8561 9.86994 18.9032 9.76877 18.9129H8.95502C8.85385 18.9032 8.75993 18.8561 8.69159 18.7809C8.62324 18.7056 8.58537 18.6076 8.58537 18.506C8.58537 18.4044 8.62324 18.3064 8.69159 18.2311C8.75993 18.1559 8.85385 18.1088 8.95502 18.0991ZM13.83 16.4754H13.02C12.9633 16.4699 12.9061 16.4764 12.852 16.4944C12.7979 16.5123 12.7482 16.5414 12.7061 16.5797C12.6639 16.618 12.6302 16.6647 12.6071 16.7168C12.5841 16.7689 12.5722 16.8253 12.5722 16.8823C12.5722 16.9392 12.5841 16.9956 12.6071 17.0477C12.6302 17.0998 12.6639 17.1465 12.7061 17.1848C12.7482 17.2231 12.7979 17.2522 12.852 17.2702C12.9061 17.2881 12.9633 17.2946 13.02 17.2891H13.83C13.8867 17.2946 13.944 17.2881 13.998 17.2702C14.0521 17.2522 14.1018 17.2231 14.144 17.1848C14.1862 17.1465 14.2199 17.0998 14.2429 17.0477C14.266 16.9956 14.2779 16.9392 14.2779 16.8823C14.2779 16.8253 14.266 16.7689 14.2429 16.7168C14.2199 16.6647 14.1862 16.618 14.144 16.5797C14.1018 16.5414 14.0521 16.5123 13.998 16.4944C13.944 16.4764 13.8867 16.4699 13.83 16.4754ZM13.02 18.0992H13.83C13.8867 18.0937 13.944 18.1002 13.998 18.1182C14.0521 18.1361 14.1018 18.1652 14.144 18.2035C14.1862 18.2418 14.2199 18.2885 14.2429 18.3406C14.266 18.3927 14.2779 18.4491 14.2779 18.506C14.2779 18.563 14.266 18.6194 14.2429 18.6715C14.2199 18.7236 14.1862 18.7703 14.144 18.8086C14.1018 18.8469 14.0521 18.876 13.998 18.8939C13.944 18.9119 13.8867 18.9184 13.83 18.9129H13.02C12.9633 18.9184 12.9061 18.9119 12.852 18.8939C12.7979 18.876 12.7482 18.8469 12.7061 18.8086C12.6639 18.7703 12.6302 18.7236 12.6071 18.6715C12.5841 18.6194 12.5722 18.563 12.5722 18.506C12.5722 18.4491 12.5841 18.3927 12.6071 18.3406C12.6302 18.2885 12.6639 18.2418 12.7061 18.2035C12.7482 18.1652 12.7979 18.1361 12.852 18.1182C12.9061 18.1002 12.9633 18.0937 13.02 18.0992Z" fill="black"/>
</svg>
