<svg width="64" height="64" viewBox="0 0 64 64" fill="none" xmlns="http://www.w3.org/2000/svg">
<path fill-rule="evenodd" clip-rule="evenodd" d="M46 54H47C47.2652 54 47.5196 54.1054 47.7071 54.2929C47.8946 54.4804 48 54.7348 48 55C48 55.2652 47.8946 55.5196 47.7071 55.7071C47.5196 55.8947 47.2652 56 47 56H1C0.734784 56 0.480414 55.8947 0.292877 55.7071C0.105341 55.5196 0 55.2652 0 55C0 54.7348 0.105341 54.4804 0.292877 54.2929C0.480414 54.1054 0.734784 54 1 54H2V36C2 35.4696 2.21071 34.9609 2.58578 34.5858C2.96086 34.2107 3.46957 34 4 34H8V33C8 32.7348 8.10534 32.4804 8.29288 32.2929C8.48041 32.1054 8.73478 32 9 32C9.26522 32 9.51956 32.1054 9.70709 32.2929C9.89463 32.4804 10 32.7348 10 33V34C10.5304 34 11.0391 34.2107 11.4142 34.5858C11.7893 34.9609 12 35.4696 12 36V54H14V19C14 18.2044 14.3161 17.4413 14.8787 16.8787C15.4413 16.3161 16.2044 16 17 16H20V14C20 13.4696 20.2107 12.9609 20.5858 12.5858C20.9609 12.2107 21.4696 12 22 12H24V9C24 8.73478 24.1053 8.48044 24.2929 8.29291C24.4804 8.10537 24.7348 8 25 8C25.2652 8 25.5196 8.10537 25.7071 8.29291C25.8946 8.48044 26 8.73478 26 9V12C26.5304 12 27.0391 12.2107 27.4142 12.5858C27.7893 12.9609 28 13.4696 28 14V16H31C31.7956 16 32.5587 16.3161 33.1213 16.8787C33.6839 17.4413 34 18.2044 34 19V54H36V36C36 35.4696 36.2107 34.9609 36.5858 34.5858C36.9609 34.2107 37.4696 34 38 34V33C38 32.7348 38.1053 32.4804 38.2929 32.2929C38.4804 32.1054 38.7348 32 39 32C39.2652 32 39.5196 32.1054 39.7071 32.2929C39.8946 32.4804 40 32.7348 40 33V34H44C44.5304 34 45.0391 34.2107 45.4142 34.5858C45.7893 34.9609 46 35.4696 46 36V54ZM44 36H38V54H44V36ZM26 16V14H22V16H26ZM16.2929 18.2929C16.1053 18.4804 16 18.7348 16 19V54H32V19C32 18.7348 31.8946 18.4804 31.7071 18.2929C31.5196 18.1054 31.2652 18 31 18H17C16.7348 18 16.4804 18.1054 16.2929 18.2929ZM10 36H4V54H10V36ZM18.2929 22.2929C18.4804 22.1054 18.7348 22 19 22H29C29.2652 22 29.5196 22.1054 29.7071 22.2929C29.8946 22.4804 30 22.7348 30 23C30 23.2652 29.8946 23.5196 29.7071 23.7071C29.5196 23.8947 29.2652 24 29 24H19C18.7348 24 18.4804 23.8947 18.2929 23.7071C18.1053 23.5196 18 23.2652 18 23C18 22.7348 18.1053 22.4804 18.2929 22.2929ZM19 28C18.7348 28 18.4804 28.1054 18.2929 28.2929C18.1053 28.4804 18 28.7348 18 29C18 29.2652 18.1053 29.5196 18.2929 29.7071C18.4804 29.8947 18.7348 30 19 30H29C29.2652 30 29.5196 29.8947 29.7071 29.7071C29.8946 29.5196 30 29.2652 30 29C30 28.7348 29.8946 28.4804 29.7071 28.2929C29.5196 28.1054 29.2652 28 29 28H19ZM18.2929 34.2929C18.4804 34.1054 18.7348 34 19 34H29C29.2652 34 29.5196 34.1054 29.7071 34.2929C29.8946 34.4804 30 34.7348 30 35C30 35.2652 29.8946 35.5196 29.7071 35.7071C29.5196 35.8947 29.2652 36 29 36H19C18.7348 36 18.4804 35.8947 18.2929 35.7071C18.1053 35.5196 18 35.2652 18 35C18 34.7348 18.1053 34.4804 18.2929 34.2929ZM19 40C18.7348 40 18.4804 40.1054 18.2929 40.2929C18.1053 40.4804 18 40.7348 18 41C18 41.2652 18.1053 41.5196 18.2929 41.7071C18.4804 41.8947 18.7348 42 19 42H29C29.2652 42 29.5196 41.8947 29.7071 41.7071C29.8946 41.5196 30 41.2652 30 41C30 40.7348 29.8946 40.4804 29.7071 40.2929C29.5196 40.1054 29.2652 40 29 40H19ZM18.2929 46.2929C18.4804 46.1054 18.7348 46 19 46H29C29.2652 46 29.5196 46.1054 29.7071 46.2929C29.8946 46.4804 30 46.7348 30 47C30 47.2652 29.8946 47.5196 29.7071 47.7071C29.5196 47.8947 29.2652 48 29 48H19C18.7348 48 18.4804 47.8947 18.2929 47.7071C18.1053 47.5196 18 47.2652 18 47C18 46.7348 18.1053 46.4804 18.2929 46.2929Z" fill="black"/>
</svg>
