<svg width="24" height="24" viewBox="0 0 24 24" fill="none" xmlns="http://www.w3.org/2000/svg">
<path d="M23.8012 5.49602C23.7833 5.37722 23.7363 5.2647 23.6643 5.16851C23.5923 5.07232 23.4976 4.99545 23.3887 4.94477C23.2769 4.88237 23.1511 4.84961 23.0231 4.84961C22.8951 4.84961 22.7692 4.88237 22.6574 4.94477C20.9439 5.99438 18.9531 6.50156 16.9462 6.39977C12.5549 6.39977 10.6049 8.11352 10.3649 8.34227C9.28747 9.14657 8.51138 10.2895 8.16117 11.5876C7.81096 12.8858 7.90693 14.2639 8.43369 15.501L6.60744 17.0573C6.57001 17.0893 6.53926 17.1283 6.51693 17.1722C6.4946 17.2161 6.48113 17.264 6.4773 17.3131C6.47347 17.3622 6.47935 17.4116 6.4946 17.4584C6.50985 17.5052 6.53418 17.5486 6.56619 17.586C6.6014 17.6272 6.64511 17.6602 6.6943 17.6829C6.7435 17.7055 6.79703 17.7173 6.85119 17.7173C6.9401 17.7183 7.02648 17.6878 7.09494 17.631L8.78245 16.1873C9.03822 16.6245 9.34817 17.0277 9.70494 17.3873C10.26 17.9472 10.9208 18.3913 11.6488 18.6939C12.3769 18.9964 13.1578 19.1514 13.9462 19.1498C15.4553 19.1258 16.9342 18.7235 18.2474 17.9798C24.7837 14.3798 24.1499 7.52477 23.8012 5.49602ZM17.8799 17.3235C16.6789 18.0046 15.3267 18.3746 13.9462 18.3998C13.0097 18.3985 12.0907 18.1468 11.2843 17.6707C10.4778 17.1947 9.81345 16.5116 9.35994 15.6923L9.99744 15.1523C11.8737 13.7069 14.0136 12.6408 16.2974 12.0135C16.3934 11.9867 16.4748 11.9228 16.5237 11.8359C16.5726 11.7491 16.5849 11.6464 16.5581 11.5504C16.5312 11.4544 16.4673 11.373 16.3805 11.3242C16.2936 11.2753 16.1909 11.2629 16.0949 11.2898C13.7138 11.9477 11.4827 13.0607 9.52494 14.5673L9.03744 14.9873C8.63899 13.9196 8.59874 12.7513 8.92278 11.6588C9.24683 10.5662 9.91756 9.60877 10.8337 8.93102L10.8749 8.89352C10.8749 8.89352 12.6712 7.14977 16.9162 7.14977C19.0711 7.25817 21.2098 6.72578 23.0624 5.61977C23.3887 7.52477 23.9887 13.9635 17.8799 17.3235V17.3235Z" fill="black"/>
</svg>
