<svg width="64" height="64" viewBox="0 0 64 64" fill="none" xmlns="http://www.w3.org/2000/svg">
<path fill-rule="evenodd" clip-rule="evenodd" d="M33.299 6.56478C33.5304 6.73426 33.7261 6.94775 33.8749 7.19299C38.5649 14.813 49.3949 33.373 49.3349 40.933C49.2262 45.4584 47.3521 49.7619 44.113 52.9242C40.8739 56.0864 36.5266 57.8566 31.9999 57.8566C27.4731 57.8566 23.1258 56.0864 19.8867 52.9242C16.6477 49.7619 14.7736 45.4584 14.6649 40.933C14.6649 33.373 25.4949 14.813 30.1449 7.19299C30.3247 6.89347 30.5754 6.64277 30.8749 6.46298C31.1197 6.3135 31.3916 6.21382 31.675 6.16961C31.9584 6.1254 32.2477 6.13753 32.5264 6.20535C32.8051 6.27316 33.0676 6.39531 33.299 6.56478ZM21.3104 51.6463C24.1482 54.4898 27.9976 56.0924 32.0149 56.103H32.0549C36.0731 56.0898 39.9224 54.4849 42.76 51.6398C45.5976 48.7947 47.1923 44.9412 47.1949 40.923C47.1949 33.713 35.5849 14.133 32.0349 8.31298C28.4849 14.153 16.8749 33.723 16.8749 40.933C16.8775 44.9503 18.4725 48.8028 21.3104 51.6463ZM25.9649 47.033C27.5836 48.6401 29.7739 49.5392 32.0549 49.533C32.1992 49.529 32.3429 49.5539 32.4774 49.6064C32.6119 49.6589 32.7345 49.7378 32.838 49.8385C32.9415 49.9392 33.0238 50.0596 33.0799 50.1926C33.136 50.3256 33.1649 50.4686 33.1649 50.613C33.1571 50.903 33.0371 51.1788 32.83 51.3821C32.623 51.5854 32.3451 51.7005 32.0549 51.703C29.2005 51.7106 26.4597 50.5849 24.4349 48.573C24.318 48.4765 24.2226 48.3566 24.1547 48.2211C24.0867 48.0857 24.0478 47.9375 24.0403 47.7861C24.0329 47.6347 24.0571 47.4835 24.1114 47.342C24.1657 47.2005 24.249 47.0719 24.3558 46.9643C24.4626 46.8568 24.5907 46.7728 24.7318 46.7175C24.873 46.6623 25.0241 46.6371 25.1755 46.6436C25.3269 46.65 25.4753 46.688 25.6112 46.755C25.7472 46.8221 25.8676 46.9167 25.9649 47.033Z" fill="black"/>
</svg>
