<svg width="64" height="64" viewBox="0 0 64 64" fill="none" xmlns="http://www.w3.org/2000/svg">
<path fill-rule="evenodd" clip-rule="evenodd" d="M5.14001 16.8022C8.70027 17.6473 12.3511 18.0503 16.01 18.0022C21.4001 18.0022 27.0737 17.2398 30 15.6055V19.0022C30 19.9022 25.23 22.0022 16 22.0022C6.77 22.0022 2 19.9022 2 19.0022V15.6119C2.80519 16.0602 3.85294 16.4577 5.14001 16.8022ZM16 24.0022C21.3963 24.0022 27.0767 23.238 30 21.5999V25.0022C30 25.9022 25.23 28.0022 16 28.0022C6.77 28.0022 2 25.9022 2 25.0022V21.5988C4.92509 23.2377 10.6096 24.0022 16 24.0022ZM16 30.0022C21.3963 30.0022 27.0767 29.238 30 27.5999V31.0022C30 31.9022 25.23 34.0022 16 34.0022C6.77 34.0022 2 31.9022 2 31.0022V27.5988C4.92509 29.2377 10.6096 30.0022 16 30.0022ZM0 31.0022V25.0022V19.0022V13.0022C0 12.9368 0.00640949 12.872 0.0188805 12.8088C0.324181 9.50368 8.45585 8.00221 16.01 8.00221C19.6696 7.95189 23.3211 8.35835 26.88 9.2122C30.28 10.1122 32.01 11.3922 32.01 13.0022C32.01 13.0715 32.0067 13.14 32 13.2078V19.0022V25.0022V30.861C32.0066 30.9075 32.01 30.9547 32.01 31.0022V34.0022C39.72 34.0022 48.01 35.5722 48.01 39.0022C48.01 39.0713 48.0066 39.1396 48 39.2071V45.0022V51.0022C48 54.4422 39.71 56.0022 32 56.0022C24.3 56.0022 16 54.4422 16 51.0022V48.0022C8.3 48.0022 0 46.4422 0 43.0022V37.0022V31.0022ZM30.01 34.0371V33.5943C29.7042 33.7662 29.3681 33.9285 29.0052 34.0814C29.3393 34.0636 29.6745 34.0489 30.01 34.0371ZM16 45.0022V46.0022C6.77 46.0022 2 43.9022 2 43.0022V39.5988C4.92509 41.2377 10.6096 42.0022 16 42.0022V45.0022ZM16 40.0022C6.77 40.0022 2 37.9022 2 37.0022V33.5988C4.92509 35.2377 10.6096 36.0022 16 36.0022C16.9983 36.0022 18.0063 35.976 19.0048 35.923C17.2549 36.6599 16.1287 37.6172 16.0189 38.8089C16.0064 38.8721 16 38.9368 16 39.0022V40.0022ZM30.0011 12.9552C29.916 12.6971 29.1868 11.8979 26.36 11.1422C22.9712 10.3313 19.4941 9.94828 16.01 10.0022C6.78002 10.0022 2.01001 12.1022 2.01001 13.0022C2.01001 13.1922 2.63001 14.0522 5.66001 14.8622C9.04894 15.6725 12.526 16.0555 16.01 16.0022C25.0052 16.0022 29.7547 14.012 30 13.0762V13.0022C30 12.9865 30.0004 12.9708 30.0011 12.9552ZM18 47.5988V51.0022C18 51.9022 22.77 54.0022 32 54.0022C41.23 54.0022 46 51.9022 46 51.0022V47.5999C43.0767 49.238 37.3963 50.0022 32 50.0022C26.6096 50.0022 20.9251 49.2377 18 47.5988ZM46 45.0022C46 45.9022 41.23 48.0022 32 48.0022C22.77 48.0022 18 45.9022 18 45.0022V41.5943C20.9204 43.2363 26.6076 44.0022 32.01 44.0022C37.4001 44.0022 43.0737 43.2349 46 41.6011V45.0022ZM46 39.0022C46 38.9803 46.0007 38.9585 46.0021 38.9369C45.784 38.0047 41.033 36.0022 32.01 36.0022C22.77 36.0022 18.01 38.1022 18.01 39.0022C18.01 39.9022 22.77 42.0022 32.01 42.0022C41.0053 42.0022 45.7548 40.012 46 39.0762V39.0022Z" fill="black"/>
</svg>
