<svg width="24" height="24" viewBox="0 0 24 24" fill="none" xmlns="http://www.w3.org/2000/svg">
<path fill-rule="evenodd" clip-rule="evenodd" d="M8.00387 3.75805C7.92792 3.83401 7.82491 3.87667 7.7175 3.87667C7.66253 3.87671 7.60813 3.86565 7.55753 3.84418C7.50693 3.82271 7.46119 3.79126 7.42303 3.7517C7.38487 3.71214 7.35508 3.66529 7.33545 3.61395C7.31581 3.56261 7.30673 3.50785 7.30875 3.45292V2.63918C7.31847 2.538 7.36554 2.44408 7.44077 2.37573C7.51599 2.30739 7.61398 2.26953 7.71562 2.26953C7.81726 2.26953 7.91526 2.30739 7.99048 2.37573C8.06571 2.44408 8.11278 2.538 8.1225 2.63918V3.47168C8.1225 3.57909 8.07983 3.6821 8.00387 3.75805ZM3.06306 5.41555C2.99673 5.46028 2.91874 5.48457 2.83874 5.4854C2.73169 5.48427 2.62936 5.44118 2.55374 5.3654L1.73998 4.55164C1.66464 4.47517 1.62241 4.37213 1.62241 4.26477C1.62241 4.15742 1.66464 4.05437 1.73998 3.97789C1.81709 3.90231 1.92077 3.85999 2.02874 3.85999C2.13671 3.85999 2.24038 3.90231 2.31749 3.97789L3.12749 4.79165C3.18327 4.84899 3.221 4.92145 3.236 5.00003C3.251 5.07862 3.24262 5.15987 3.21188 5.23373C3.18113 5.3076 3.12938 5.37081 3.06306 5.41555ZM12.5925 5.48151C12.6458 5.48292 12.6988 5.47295 12.7479 5.45226C12.7971 5.43157 12.8412 5.40062 12.8775 5.36151L13.6912 4.55151C13.7666 4.47503 13.8088 4.37199 13.8088 4.26464C13.8088 4.15728 13.7666 4.05423 13.6912 3.97776C13.6539 3.93954 13.6092 3.90919 13.56 3.88846C13.5107 3.86773 13.4578 3.85706 13.4044 3.85706C13.3509 3.85706 13.298 3.86773 13.2487 3.88846C13.1995 3.90919 13.1549 3.93954 13.1175 3.97776L12.3037 4.78776C12.2284 4.86423 12.1861 4.96728 12.1861 5.07464C12.1861 5.18199 12.2284 5.28503 12.3037 5.36151C12.3411 5.40017 12.386 5.43076 12.4357 5.4514C12.4853 5.47204 12.5387 5.48229 12.5925 5.48151ZM0.404995 9.54651H1.215C1.32241 9.54651 1.42542 9.58917 1.50137 9.66513C1.57733 9.74108 1.62 9.8441 1.62 9.95152C1.62 10.0589 1.57733 10.1619 1.50137 10.2379C1.42542 10.3138 1.32241 10.3565 1.215 10.3565H0.404995C0.297582 10.3565 0.19457 10.3138 0.118618 10.2379C0.0426658 10.1619 0 10.0589 0 9.95152C0 9.8441 0.0426658 9.74108 0.118618 9.66513C0.19457 9.58917 0.297582 9.54651 0.404995 9.54651ZM2.72999 11.6764C2.75689 11.755 2.80729 11.8234 2.87437 11.8724C2.94144 11.9213 3.02196 11.9485 3.10499 11.9502C3.15091 11.95 3.1965 11.9424 3.23998 11.9277C3.2907 11.91 3.33741 11.8825 3.37738 11.8466C3.41735 11.8108 3.4498 11.7673 3.47284 11.7188C3.49587 11.6703 3.50902 11.6177 3.51154 11.5641C3.51405 11.5105 3.50587 11.4569 3.48748 11.4064C3.32292 10.939 3.23922 10.447 3.23998 9.95141C3.24137 9.04549 3.51798 8.16136 4.03317 7.41619C4.54836 6.67102 5.2778 6.09998 6.12486 5.77873C6.97191 5.45747 7.89658 5.40118 8.77635 5.6173C9.65612 5.83341 10.4495 6.31174 11.0512 6.98891C11.0866 7.02896 11.1295 7.06162 11.1775 7.08501C11.2256 7.1084 11.2778 7.12206 11.3311 7.12519C11.3844 7.12833 11.4378 7.12089 11.4883 7.10329C11.5387 7.08569 11.5852 7.0583 11.625 7.02267C11.7041 6.95021 11.7519 6.84975 11.7582 6.74263C11.7645 6.63551 11.7288 6.53014 11.6587 6.4489C10.9473 5.6487 10.0095 5.08353 8.96967 4.82826C7.92982 4.57299 6.83695 4.63967 5.83583 5.01946C4.83472 5.39925 3.97262 6.07422 3.36373 6.95497C2.75484 7.83572 2.42791 8.88068 2.42624 9.95141C2.42918 10.5395 2.53188 11.1227 2.72999 11.6764ZM15.4987 9.96277L19.11 16.4615C19.2138 16.6502 19.2389 16.8723 19.18 17.0794C19.121 17.2866 18.9826 17.4621 18.795 17.5678C18.6747 17.6349 18.539 17.6698 18.4013 17.669H12.1837V21.3253C12.1837 21.4327 12.1411 21.5357 12.0651 21.6116C11.9892 21.6876 11.8862 21.7303 11.7788 21.7303C11.6713 21.7303 11.5683 21.6876 11.4924 21.6116C11.4164 21.5357 11.3737 21.4327 11.3737 21.3253V17.669H9.74625V21.3253C9.74625 21.4327 9.70358 21.5357 9.62763 21.6116C9.55168 21.6876 9.44867 21.7303 9.34125 21.7303C9.23384 21.7303 9.13083 21.6876 9.05488 21.6116C8.97892 21.5357 8.93625 21.4327 8.93625 21.3253V17.669H2.71875C2.50393 17.669 2.2979 17.5837 2.146 17.4318C1.99409 17.2799 1.90875 17.0738 1.90875 16.859C1.90797 16.7212 1.94285 16.5856 2.01 16.4653L5.62125 9.96277C5.6915 9.83647 5.79428 9.73125 5.91891 9.65806C6.04353 9.58487 6.18547 9.54636 6.33 9.54651H14.79C14.9346 9.54596 15.0767 9.58431 15.2014 9.65755C15.3261 9.73078 15.4288 9.8362 15.4987 9.96277ZM8.19 15.2315L7.815 16.859H13.3275L12.9525 15.2315H8.19ZM8.73374 12.794L8.35874 14.4215H12.7912L12.4162 12.794H8.73374ZM7.89375 12.794H4.98374L4.065 14.4215H7.51875L7.89375 12.794ZM12.24 11.984L11.865 10.3565H9.27374L8.89874 11.984H12.24ZM16.1513 12.794H13.2413L13.6012 14.4215H17.055L16.1513 12.794ZM13.0763 11.984H15.7013L14.7862 10.3565H12.7013L13.0763 11.984ZM8.42625 10.3565H6.32625L5.42625 11.984H8.05125L8.42625 10.3565ZM7.3425 15.2315H3.61875L2.71875 16.859H6.9675L7.3425 15.2315ZM13.7437 15.2315L14.1187 16.859H18.3712L17.4675 15.2315H13.7437Z" fill="black"/>
</svg>
