<svg width="24" height="24" viewBox="0 0 24 24" fill="none" xmlns="http://www.w3.org/2000/svg">
<path fill-rule="evenodd" clip-rule="evenodd" d="M14.5981 13.6333C14.4349 13.6351 14.2731 13.6027 14.1233 13.5381C13.9734 13.4735 13.8388 13.3782 13.7281 13.2583L13.3531 12.8345C13.316 12.7932 13.2712 12.7595 13.2211 12.7356C13.171 12.7117 13.1166 12.6979 13.0612 12.6952C13.0057 12.6924 12.9503 12.7006 12.898 12.7194C12.8458 12.7381 12.7978 12.7671 12.7568 12.8045L12.7268 12.8345L12.3518 13.2583C12.1429 13.489 11.851 13.6272 11.5401 13.6427C11.2293 13.6582 10.9251 13.5496 10.6943 13.3408C10.5666 13.2242 10.4667 13.0804 10.4018 12.9202C10.3369 12.7599 10.3087 12.5871 10.3193 12.4145L10.3456 11.8408C10.349 11.7854 10.3411 11.7299 10.3224 11.6777C10.3037 11.6255 10.2746 11.5776 10.2368 11.537C10.1624 11.4548 10.0588 11.405 9.94805 11.3983H9.9068L9.33305 11.4283C9.09109 11.4414 8.85102 11.3791 8.64601 11.2499C8.44099 11.1207 8.28113 10.9311 8.18852 10.7072C8.09591 10.4833 8.0751 10.2361 8.12898 9.99985C8.18286 9.7636 8.30876 9.5499 8.4893 9.38828L8.91305 9.01328C8.95442 8.97626 8.98804 8.9314 9.01197 8.88131C9.03589 8.83121 9.04965 8.77687 9.05243 8.72142C9.05522 8.66597 9.04699 8.61052 9.02822 8.55827C9.00944 8.50603 8.9805 8.45802 8.94305 8.41703C8.93402 8.40611 8.92398 8.39607 8.91305 8.38704L8.4893 8.01204C8.30876 7.85041 8.18286 7.63671 8.12898 7.40046C8.0751 7.16421 8.09591 6.91706 8.18852 6.69314C8.28113 6.46922 8.44099 6.27958 8.64601 6.15041C8.85102 6.02124 9.09109 5.95891 9.33305 5.97203L9.90305 6.00203C9.95876 6.00611 10.0147 5.99883 10.0675 5.98064C10.1203 5.96245 10.1689 5.93372 10.2103 5.89621C10.2516 5.85869 10.285 5.81316 10.3082 5.76238C10.3315 5.7116 10.3442 5.65661 10.3456 5.60078V5.55578L10.3193 4.98954C10.3076 4.74816 10.3706 4.50905 10.4999 4.30485C10.6291 4.10065 10.8182 3.94132 11.0414 3.84861C11.2645 3.75589 11.5109 3.73433 11.7467 3.78684C11.9826 3.83936 12.1965 3.9634 12.3593 4.14203L12.7343 4.56578C12.77 4.60786 12.8142 4.64195 12.8639 4.66585C12.9137 4.68975 12.9679 4.70293 13.0231 4.70453C13.1342 4.71119 13.2435 4.67342 13.3268 4.59953L13.3606 4.56578L13.7356 4.14203C13.8983 3.9634 14.1122 3.83936 14.3481 3.78684C14.584 3.73433 14.8303 3.75589 15.0535 3.84861C15.2767 3.94132 15.4658 4.10065 15.595 4.30485C15.7242 4.50905 15.7873 4.74816 15.7756 4.98954L15.7456 5.55953C15.7404 5.67133 15.7798 5.7806 15.855 5.8635C15.9301 5.9464 16.035 5.9962 16.1468 6.00203H16.1881L16.7581 5.97203C17 5.95891 17.2401 6.02124 17.4451 6.15041C17.6501 6.27958 17.81 6.46922 17.9026 6.69314C17.9952 6.91706 18.016 7.16421 17.9621 7.40046C17.9082 7.63671 17.7823 7.85041 17.6018 8.01204L17.1818 8.38704C17.1398 8.42386 17.1055 8.46869 17.0811 8.51892C17.0566 8.56914 17.0424 8.62375 17.0393 8.67953C17.0353 8.79098 17.0742 8.89972 17.1481 8.98328L17.1781 9.01328L17.6018 9.38828C17.7823 9.5499 17.9082 9.7636 17.9621 9.99985C18.016 10.2361 17.9952 10.4833 17.9026 10.7072C17.81 10.9311 17.6501 11.1207 17.4451 11.2499C17.2401 11.3791 17 11.4414 16.7581 11.4283L16.1881 11.3983C16.0765 11.3935 15.9675 11.4325 15.8843 11.507C15.8025 11.5833 15.7528 11.6879 15.7456 11.7995V11.8445L15.7756 12.4108C15.7836 12.5659 15.7608 12.721 15.7085 12.8672C15.6562 13.0135 15.5753 13.1478 15.4707 13.2626C15.3661 13.3774 15.2397 13.4702 15.0989 13.5358C14.9581 13.6013 14.8057 13.6383 14.6506 13.6445L14.5981 13.6333ZM13.9006 12.3208L14.2756 12.7445C14.3328 12.8144 14.411 12.8642 14.4986 12.8865C14.5861 12.9088 14.6786 12.9026 14.7623 12.8686C14.8461 12.8347 14.9168 12.7749 14.9642 12.6979C15.0115 12.6209 15.033 12.5308 15.0256 12.4408L14.9956 11.8708V11.7583C15.0094 11.4495 15.1441 11.1586 15.3706 10.9483C15.484 10.8444 15.6171 10.7644 15.7621 10.7129C15.907 10.6614 16.0608 10.6394 16.2143 10.6483L16.7843 10.6745C16.8467 10.6802 16.9095 10.6709 16.9675 10.6474C17.0256 10.6239 17.0772 10.5869 17.1181 10.5395C17.1555 10.4985 17.1844 10.4505 17.2032 10.3983C17.222 10.346 17.2302 10.2906 17.2274 10.2352C17.2246 10.1797 17.2109 10.1254 17.187 10.0753C17.163 10.0252 17.1294 9.98031 17.0881 9.94328L16.6681 9.56828C16.6375 9.54144 16.6087 9.51262 16.5818 9.48203C16.3735 9.25078 16.2655 8.94625 16.2817 8.63542C16.2979 8.32459 16.4369 8.03292 16.6681 7.82454L17.0881 7.44954C17.1344 7.40758 17.1708 7.35589 17.1948 7.29819C17.2188 7.24049 17.2297 7.1782 17.2268 7.11578C17.221 7.00402 17.1712 6.89911 17.0883 6.82393C17.0054 6.74876 16.8961 6.70942 16.7843 6.71453L16.2143 6.74078H16.0943C15.9398 6.73452 15.788 6.69778 15.6478 6.63269C15.5075 6.5676 15.3815 6.47544 15.2769 6.36149C15.1724 6.24754 15.0914 6.11405 15.0386 5.9687C14.9858 5.82336 14.9623 5.66901 14.9693 5.51453L14.9993 4.94078C15.0025 4.87889 14.9916 4.81708 14.9676 4.75994C14.9436 4.70281 14.907 4.65183 14.8606 4.61078C14.8198 4.57311 14.772 4.54388 14.7199 4.52479C14.6678 4.5057 14.6124 4.49714 14.557 4.49958C14.5015 4.50202 14.4471 4.51542 14.3969 4.53902C14.3466 4.56261 14.3016 4.59593 14.2643 4.63703L13.8893 5.06079L13.8031 5.14703C13.6889 5.25007 13.5555 5.32959 13.4105 5.38103C13.2656 5.43247 13.1119 5.45482 12.9583 5.44681C12.8047 5.4388 12.6542 5.40059 12.5154 5.33435C12.3766 5.26811 12.2522 5.17515 12.1493 5.06079L11.7743 4.63703C11.7314 4.59191 11.6796 4.55625 11.6221 4.53236C11.5646 4.50846 11.5028 4.49686 11.4406 4.49829C11.3285 4.50506 11.2235 4.55566 11.1485 4.63916C11.0734 4.72266 11.0342 4.83235 11.0393 4.94453L11.0693 5.51078C11.0731 5.55069 11.0731 5.59087 11.0693 5.63078C11.0626 5.78546 11.0254 5.9373 10.9599 6.07759C10.8944 6.21789 10.8019 6.34389 10.6876 6.44838C10.5734 6.55288 10.4396 6.63381 10.2941 6.68656C10.1485 6.73931 9.99397 6.76283 9.8393 6.75578L9.2693 6.72953C9.20679 6.72581 9.14425 6.73637 9.08642 6.76041C9.02859 6.78445 8.977 6.82133 8.93555 6.86828C8.89811 6.90927 8.86916 6.95728 8.85039 7.00952C8.83161 7.06177 8.82338 7.11722 8.82617 7.17267C8.82896 7.22812 8.84272 7.28246 8.86664 7.33255C8.89056 7.38265 8.92418 7.4275 8.96555 7.46453L9.3893 7.83953L9.47555 7.92203C9.68388 8.15328 9.79183 8.45781 9.77565 8.76864C9.75948 9.07947 9.62051 9.37115 9.3893 9.57953L8.96555 9.95453C8.89289 10.0105 8.84055 10.0888 8.81655 10.1773C8.79255 10.2659 8.7982 10.3598 8.83263 10.4449C8.86707 10.5299 8.9284 10.6013 9.00726 10.6482C9.08611 10.6951 9.17815 10.7149 9.2693 10.7045L9.8393 10.6783H9.9593C10.1145 10.6835 10.267 10.7197 10.408 10.7847C10.549 10.8497 10.6756 10.9422 10.7804 11.0567C10.8852 11.1713 10.966 11.3056 11.0182 11.4519C11.0704 11.5981 11.0929 11.7533 11.0843 11.9083L11.0543 12.4783C11.0519 12.5406 11.0631 12.6028 11.087 12.6604C11.111 12.718 11.1472 12.7698 11.1931 12.812C11.234 12.8495 11.282 12.8784 11.3343 12.8972C11.3865 12.916 11.442 12.9242 11.4974 12.9214C11.5529 12.9186 11.6072 12.9049 11.6573 12.8809C11.7074 12.857 11.7523 12.8234 11.7893 12.782L12.1643 12.3583L12.2506 12.272C12.4816 12.0649 12.7853 11.9576 13.0952 11.9738C13.4051 11.99 13.696 12.1282 13.9043 12.3583L13.9006 12.3208ZM6.02501 20.138C6.17426 20.2026 6.33543 20.2351 6.49805 20.2333H6.5318C6.68648 20.2265 6.83832 20.1894 6.97861 20.1239C7.1189 20.0584 7.24491 19.9658 7.3494 19.8516C7.4539 19.7373 7.53483 19.6036 7.58758 19.4581C7.64033 19.3125 7.66385 19.1579 7.6568 19.0033L7.6268 18.4295V18.3883C7.63358 18.2772 7.68379 18.1732 7.76659 18.0988C7.84938 18.0245 7.95812 17.9856 8.0693 17.9908L8.6393 18.017C8.88468 18.0342 9.12924 17.9736 9.33822 17.8439C9.5472 17.7141 9.70998 17.5218 9.8034 17.2943C9.89683 17.0667 9.91616 16.8155 9.85865 16.5764C9.80114 16.3372 9.66972 16.1222 9.48305 15.962L9.0593 15.587L9.0293 15.557C8.95461 15.4738 8.91585 15.3644 8.92147 15.2527C8.92709 15.141 8.97664 15.0361 9.0593 14.9608L9.48305 14.5858C9.60507 14.4761 9.70265 14.3419 9.76944 14.192C9.83623 14.0421 9.87075 13.8799 9.87075 13.7158C9.87075 13.5517 9.83623 13.3894 9.76944 13.2395C9.70265 13.0897 9.60507 12.9555 9.48305 12.8458C9.36958 12.7419 9.23646 12.6619 9.09154 12.6104C8.94662 12.5589 8.79285 12.5369 8.6393 12.5458L8.0843 12.5758H8.04305C7.93123 12.5693 7.82633 12.5195 7.75055 12.437C7.71294 12.3963 7.68393 12.3484 7.66525 12.2962C7.64656 12.244 7.63859 12.1886 7.6418 12.1333L7.66055 11.5633C7.66983 11.3903 7.64106 11.2173 7.57627 11.0567C7.51148 10.896 7.41224 10.7515 7.28555 10.6333C7.05449 10.4261 6.75079 10.3189 6.44088 10.335C6.13096 10.3512 5.84006 10.4895 5.6318 10.7195L5.2568 11.1395L5.22305 11.1733C5.13934 11.2475 5.02967 11.2856 4.91797 11.2793C4.80627 11.273 4.7016 11.2227 4.6268 11.1395L4.2518 10.7158C4.1342 10.5894 3.99031 10.4903 3.83028 10.4255C3.67025 10.3607 3.49797 10.3318 3.32555 10.3408C3.17245 10.3466 3.02203 10.3828 2.883 10.4472C2.74396 10.5115 2.61907 10.6028 2.51555 10.7158C2.41164 10.8301 2.33132 10.9638 2.27919 11.1093C2.22707 11.2547 2.20417 11.409 2.2118 11.5633L2.2418 12.1333V12.2158C2.23941 12.2713 2.22602 12.3258 2.20242 12.3761C2.17882 12.4263 2.14548 12.4715 2.10432 12.5088C2.06317 12.5461 2.01502 12.5749 1.96266 12.5935C1.9103 12.612 1.85478 12.6201 1.7993 12.617L1.2293 12.587C1.05646 12.5739 0.882928 12.601 0.722256 12.666C0.561585 12.7311 0.418117 12.8324 0.303051 12.962C0.199779 13.076 0.119986 13.2092 0.0682352 13.354C0.0164843 13.4988 -0.00620916 13.6524 0.00145321 13.806C0.00911558 13.9596 0.0469859 14.1102 0.112893 14.2491C0.1788 14.3881 0.271451 14.5127 0.385551 14.6158L0.809303 14.9908L0.839301 15.0208C0.876518 15.062 0.905189 15.1102 0.923652 15.1626C0.942116 15.215 0.950009 15.2705 0.94687 15.326C0.943731 15.3814 0.929625 15.4357 0.905368 15.4856C0.881111 15.5356 0.847184 15.5803 0.805552 15.617L0.381803 15.992C0.204623 16.1551 0.0818774 16.3687 0.0302122 16.6039C-0.021453 16.839 0.000461999 17.0844 0.0929859 17.3067C0.18551 17.529 0.344163 17.7175 0.547434 17.8466C0.750704 17.9756 0.988755 18.0391 1.2293 18.0283L1.7993 18.002H1.84055C1.95231 18.0079 2.05723 18.0577 2.1324 18.1406C2.20758 18.2235 2.24691 18.3327 2.2418 18.4445L2.2118 19.0145C2.2009 19.2556 2.26455 19.4941 2.39409 19.6977C2.52363 19.9013 2.71277 20.06 2.93574 20.1522C3.15872 20.2444 3.4047 20.2657 3.64019 20.2131C3.87569 20.1605 4.08925 20.0366 4.2518 19.8583L4.6268 19.4345L4.66055 19.4045C4.74371 19.33 4.85273 19.291 4.9643 19.2958C5.07592 19.3031 5.18055 19.3527 5.2568 19.4345L5.6318 19.8583C5.74179 19.9781 5.87577 20.0734 6.02501 20.138ZM4.9943 18.5345H4.9343C4.65388 18.5399 4.38484 18.6464 4.1768 18.8345L4.09055 18.9208L3.71555 19.3445C3.65826 19.4144 3.58011 19.4642 3.49254 19.4865C3.40496 19.5088 3.31255 19.5026 3.22878 19.4686C3.14501 19.4347 3.07428 19.3749 3.02693 19.2979C2.97957 19.2209 2.95807 19.1308 2.96555 19.0408L2.99555 18.4708C3.0026 18.3161 2.97908 18.1616 2.92633 18.016C2.87358 17.8704 2.79265 17.7367 2.68815 17.6225C2.58366 17.5082 2.45766 17.4157 2.31736 17.3502C2.17707 17.2847 2.02523 17.2475 1.87055 17.2408H1.7543L1.1843 17.2708C1.07251 17.2759 0.963234 17.2366 0.880331 17.1614C0.797428 17.0862 0.747629 16.9813 0.741803 16.8695C0.739406 16.8072 0.750569 16.745 0.774525 16.6874C0.79848 16.6298 0.834654 16.5781 0.880551 16.5358L1.3043 16.1608C1.53385 15.952 1.67139 15.6608 1.68685 15.3509C1.70231 15.041 1.59443 14.7376 1.3868 14.507C1.36125 14.4765 1.33369 14.4477 1.3043 14.4208L0.880551 14.0458C0.83906 14.0088 0.805405 13.9638 0.781574 13.9136C0.757743 13.8633 0.744222 13.8088 0.741803 13.7533C0.73859 13.6979 0.746564 13.6425 0.765249 13.5903C0.783934 13.5381 0.812947 13.4903 0.850553 13.4495C0.892347 13.403 0.943998 13.3664 1.00174 13.3424C1.05948 13.3184 1.12185 13.3076 1.1843 13.3108L1.7543 13.3408C1.90801 13.3481 2.06165 13.3251 2.20643 13.273C2.35122 13.2208 2.4843 13.1407 2.59805 13.037C2.71117 12.9336 2.80258 12.8088 2.86696 12.6697C2.93134 12.5307 2.96741 12.3802 2.97305 12.227V12.1108L2.94305 11.5408C2.93824 11.4292 2.97727 11.3202 3.0518 11.237C3.08825 11.1948 3.13308 11.1607 3.18344 11.1368C3.2338 11.113 3.28858 11.0998 3.3443 11.0983C3.40675 11.0951 3.46912 11.1059 3.52687 11.1299C3.58461 11.1539 3.63626 11.1905 3.67805 11.237L4.05305 11.657C4.1559 11.7714 4.2803 11.8644 4.41911 11.9306C4.55793 11.9968 4.70844 12.035 4.86204 12.0431C5.01564 12.0511 5.16932 12.0287 5.31427 11.9773C5.45922 11.9258 5.59261 11.8463 5.7068 11.7433C5.73739 11.7164 5.76621 11.6876 5.79305 11.657L6.16805 11.237C6.20508 11.1957 6.24993 11.162 6.30003 11.1381C6.35013 11.1142 6.40447 11.1004 6.45992 11.0976C6.51537 11.0949 6.57082 11.1031 6.62306 11.1219C6.67531 11.1406 6.72331 11.1696 6.7643 11.207C6.81125 11.2485 6.84814 11.3001 6.87218 11.3579C6.89622 11.4157 6.90678 11.4783 6.90305 11.5408L6.87305 12.1108C6.865 12.2642 6.88736 12.4178 6.93884 12.5626C6.99033 12.7074 7.06992 12.8406 7.17305 12.9545C7.38453 13.1815 7.67683 13.3162 7.9868 13.3295H8.10305L8.67305 13.2995C8.72839 13.2963 8.78381 13.3043 8.836 13.323C8.88819 13.3417 8.93608 13.3707 8.9768 13.4083C9.01898 13.4447 9.0531 13.4896 9.07699 13.5399C9.10088 13.5903 9.11401 13.6451 9.11555 13.7008C9.11846 13.7632 9.10754 13.8255 9.08355 13.8832C9.05956 13.9409 9.02311 13.9926 8.9768 14.0345L8.55305 14.4095C8.32297 14.6178 8.18473 14.9087 8.16857 15.2186C8.15241 15.5285 8.25964 15.8322 8.4668 16.0633L8.55305 16.1495L8.9768 16.5245C9.01898 16.561 9.0531 16.6058 9.07699 16.6562C9.10088 16.7065 9.11401 16.7613 9.11555 16.817C9.11855 16.8723 9.11048 16.9277 9.0918 16.9799C9.07313 17.032 9.04423 17.0799 9.0068 17.1208C8.96437 17.1665 8.91261 17.2025 8.85502 17.2265C8.79744 17.2504 8.73538 17.2617 8.67305 17.2595L8.10305 17.2295C7.9495 17.2206 7.79573 17.2426 7.65081 17.2941C7.5059 17.3457 7.37277 17.4257 7.2593 17.5295C7.14651 17.6332 7.05532 17.7581 6.99096 17.8971C6.92661 18.0361 6.89036 18.1865 6.8843 18.3395V18.4595L6.9143 19.0295C6.91941 19.1413 6.88008 19.2506 6.8049 19.3335C6.72973 19.4164 6.62481 19.4662 6.51305 19.472C6.45076 19.4739 6.38877 19.4625 6.33123 19.4386C6.27368 19.4147 6.22189 19.3788 6.1793 19.3333L5.8043 18.9095C5.59422 18.6827 5.30315 18.548 4.9943 18.5345ZM3.70927 17.1167C4.07188 17.359 4.4982 17.4883 4.9343 17.4883C5.5188 17.4873 6.07907 17.2547 6.49238 16.8414C6.90568 16.4281 7.13831 15.8678 7.1393 15.2833C7.1393 14.8472 7.00998 14.4209 6.76769 14.0582C6.5254 13.6956 6.18103 13.413 5.77812 13.2461C5.37521 13.0792 4.93186 13.0356 4.50413 13.1207C4.0764 13.2057 3.68351 13.4157 3.37513 13.7241C3.06676 14.0325 2.85675 14.4254 2.77167 14.8531C2.68659 15.2808 2.73026 15.7242 2.89715 16.1271C3.06404 16.53 3.34666 16.8744 3.70927 17.1167ZM4.12595 14.0735C4.36522 13.9136 4.64653 13.8283 4.9343 13.8283C5.32019 13.8283 5.69028 13.9816 5.96314 14.2544C6.23601 14.5273 6.3893 14.8974 6.3893 15.2833C6.3893 15.571 6.30397 15.8524 6.14409 16.0916C5.98421 16.3309 5.75697 16.5174 5.49111 16.6275C5.22524 16.7376 4.93269 16.7665 4.65045 16.7103C4.3682 16.6542 4.10895 16.5156 3.90546 16.3121C3.70198 16.1086 3.5634 15.8494 3.50726 15.5671C3.45112 15.2849 3.47993 14.9923 3.59006 14.7265C3.70018 14.4606 3.88667 14.2334 4.12595 14.0735ZM11.802 10.5214C12.1658 10.7638 12.5934 10.8928 13.0306 10.892C13.615 10.891 14.1753 10.6584 14.5886 10.2451C15.0019 9.8318 15.2346 9.27152 15.2356 8.68703C15.2363 8.24986 15.1073 7.8223 14.8649 7.4585C14.6225 7.0947 14.2775 6.81101 13.8738 6.64337C13.47 6.47573 13.0256 6.43168 12.5968 6.51679C12.168 6.6019 11.7741 6.81234 11.465 7.12146C11.1559 7.43059 10.9454 7.82449 10.8603 8.25329C10.7752 8.6821 10.8193 9.12651 10.9869 9.53026C11.1545 9.93401 11.4382 10.2789 11.802 10.5214ZM12.2191 7.47229C12.4595 7.31245 12.7419 7.22754 13.0306 7.22828C13.4168 7.22927 13.7869 7.3834 14.0596 7.65686C14.3324 7.93032 14.4856 8.30079 14.4856 8.68703C14.4855 8.9757 14.3999 9.25788 14.2394 9.49785C14.079 9.73782 13.8509 9.92479 13.5842 10.0351C13.3174 10.1454 13.0239 10.1741 12.7408 10.1175C12.4578 10.0609 12.1978 9.92157 11.994 9.71719C11.7901 9.5128 11.6515 9.25252 11.5956 8.96931C11.5398 8.68609 11.5692 8.39267 11.6802 8.12618C11.7912 7.8597 11.9787 7.63213 12.2191 7.47229Z" fill="black"/>
</svg>
