<svg width="24" height="24" viewBox="0 0 24 24" fill="none" xmlns="http://www.w3.org/2000/svg">
<path fill-rule="evenodd" clip-rule="evenodd" d="M7.125 5.24609H16.875C17.1734 5.24609 17.4595 5.36463 17.6705 5.5756C17.8815 5.78658 18 6.07273 18 6.37109V16.1211C18 16.2206 17.9605 16.3159 17.8902 16.3863C17.8198 16.4566 17.7245 16.4961 17.625 16.4961H16.5C16.5018 17.0598 16.292 17.6036 15.9121 18.02C15.5321 18.4363 15.0098 18.6949 14.4483 18.7446C13.8868 18.7943 13.3271 18.6314 12.88 18.2882C12.4329 17.945 12.1309 17.4464 12.0337 16.8912C11.9365 16.336 12.0513 15.7645 12.3553 15.2899C12.6593 14.8152 13.1304 14.4719 13.6754 14.328C14.2203 14.184 14.7995 14.2499 15.2983 14.5125C15.797 14.7751 16.179 15.2153 16.3688 15.7461H17.25V6.37109C17.25 6.27164 17.2105 6.17626 17.1402 6.10593C17.0698 6.03561 16.9745 5.99609 16.875 5.99609H7.125C7.02554 5.99609 6.93016 6.03561 6.85983 6.10593C6.78951 6.17626 6.75 6.27164 6.75 6.37109V13.1211C6.75 13.2206 6.71049 13.3159 6.64017 13.3863C6.56984 13.4566 6.47446 13.4961 6.375 13.4961C6.27554 13.4961 6.18016 13.4566 6.10983 13.3863C6.03951 13.3159 6 13.2206 6 13.1211V8.99609H4.5V11.2461C4.5 11.5445 4.38147 11.8306 4.1705 12.0416C3.95952 12.2526 3.67337 12.3711 3.375 12.3711H0.75V14.9961H3C3.09946 14.9961 3.19484 15.0356 3.26517 15.1059C3.33549 15.1763 3.375 15.2716 3.375 15.3711C3.375 15.4706 3.33549 15.5659 3.26517 15.6363C3.19484 15.7066 3.09946 15.7461 3 15.7461H0.75V16.1211C0.75 16.2206 0.789509 16.3159 0.859835 16.3863C0.930161 16.4566 1.02554 16.4961 1.125 16.4961H2.625C2.72446 16.4961 2.81984 16.5356 2.89017 16.6059C2.96049 16.6763 3 16.7716 3 16.8711C3 16.9706 2.96049 17.0659 2.89017 17.1363C2.81984 17.2066 2.72446 17.2461 2.625 17.2461H1.125C0.826631 17.2461 0.540482 17.1276 0.329504 16.9166C0.118526 16.7056 0 16.4195 0 16.1211V11.6211C0 10.726 0.355577 9.86755 0.988512 9.23461C1.62145 8.60168 2.47989 8.24609 3.375 8.24609H6V6.37109C6 6.07273 6.11853 5.78658 6.3295 5.5756C6.54048 5.36463 6.82663 5.24609 7.125 5.24609ZM3.64017 11.5113C3.71049 11.4409 3.75 11.3456 3.75 11.2461V8.99609H3.375C2.67881 8.99609 2.01113 9.27266 1.51884 9.76494C1.02656 10.2572 0.75 10.9249 0.75 11.6211H3.375C3.47446 11.6211 3.56984 11.5816 3.64017 11.5113ZM13.4166 17.7433C13.6633 17.9081 13.9533 17.9961 14.25 17.9961C14.6478 17.9961 15.0294 17.8381 15.3107 17.5568C15.592 17.2755 15.75 16.8939 15.75 16.4961C15.75 16.1994 15.662 15.9094 15.4972 15.6627C15.3324 15.4161 15.0981 15.2238 14.824 15.1103C14.5499 14.9968 14.2483 14.967 13.9574 15.0249C13.6664 15.0828 13.3991 15.2257 13.1893 15.4354C12.9796 15.6452 12.8367 15.9125 12.7788 16.2035C12.7209 16.4944 12.7506 16.796 12.8642 17.0701C12.9777 17.3442 13.17 17.5785 13.4166 17.7433ZM8.11874 15.7462H10.875C10.9745 15.7462 11.0698 15.7857 11.1402 15.856C11.2105 15.9263 11.25 16.0217 11.25 16.1212C11.25 16.2206 11.2105 16.316 11.1402 16.3863C11.0698 16.4567 10.9745 16.4962 10.875 16.4962H8.25C8.25182 17.0598 8.042 17.6036 7.66207 18.02C7.28213 18.4364 6.75976 18.695 6.19828 18.7447C5.63681 18.7943 5.07715 18.6315 4.63001 18.2883C4.18288 17.945 3.88085 17.4465 3.78369 16.8913C3.68652 16.336 3.8013 15.7646 4.1053 15.2899C4.40931 14.8153 4.8804 14.472 5.42537 14.328C5.97035 14.1841 6.5495 14.2499 7.04826 14.5125C7.54701 14.7751 7.92904 15.2154 8.11874 15.7462ZM5.16664 17.7434C5.41331 17.9082 5.70332 17.9962 6 17.9962C6.39782 17.9962 6.77935 17.8381 7.06066 17.5568C7.34196 17.2755 7.5 16.894 7.5 16.4962C7.5 16.1995 7.41202 15.9095 7.2472 15.6628C7.08238 15.4161 6.84811 15.2239 6.57402 15.1103C6.29993 14.9968 5.99833 14.9671 5.70736 15.025C5.41639 15.0829 5.14911 15.2257 4.93934 15.4355C4.72956 15.6453 4.5867 15.9126 4.52882 16.2035C4.47094 16.4945 4.50064 16.7961 4.61417 17.0702C4.72771 17.3443 4.91996 17.5785 5.16664 17.7434Z" fill="black"/>
</svg>
