<svg width="24" height="24" viewBox="0 0 24 24" fill="none" xmlns="http://www.w3.org/2000/svg">
<path fill-rule="evenodd" clip-rule="evenodd" d="M18.0234 3.5625C18.2176 3.5625 18.375 3.7199 18.375 3.91406V4.61719H21.1875V3.91406C21.1875 3.7199 21.3449 3.5625 21.5391 3.5625C21.7332 3.5625 21.8906 3.7199 21.8906 3.91406V4.61719H22.9453C23.5278 4.61719 24 5.08939 24 5.67188V7.42969V10.9453C24 11.5278 23.5278 12 22.9453 12H16.6172C16.0347 12 15.5625 11.5278 15.5625 10.9453V7.42969V5.67188C15.5625 5.08939 16.0347 4.61719 16.6172 4.61719H17.6719V3.91406C17.6719 3.7199 17.8293 3.5625 18.0234 3.5625ZM21.1875 5.32031V5.67188C21.1875 5.86604 21.3449 6.02344 21.5391 6.02344C21.7332 6.02344 21.8906 5.86604 21.8906 5.67188V5.32031H22.9453C23.1395 5.32031 23.2969 5.47771 23.2969 5.67188V7.07812H16.2656V5.67188C16.2656 5.47771 16.423 5.32031 16.6172 5.32031H17.6719V5.67188C17.6719 5.86604 17.8293 6.02344 18.0234 6.02344C18.2176 6.02344 18.375 5.86604 18.375 5.67188V5.32031H21.1875ZM23.2969 7.78125H16.2656V10.9453C16.2656 11.1395 16.423 11.2969 16.6172 11.2969H22.9453C23.1395 11.2969 23.2969 11.1395 23.2969 10.9453V7.78125ZM7.9311 12.4545C7.99703 12.3886 8.08645 12.3516 8.17969 12.3516H13.8047C13.9988 12.3516 14.1562 12.1942 14.1562 12C14.1562 11.8058 13.9988 11.6484 13.8047 11.6484H8.17969C7.89997 11.6484 7.6317 11.7596 7.43391 11.9573C7.23612 12.1551 7.125 12.4234 7.125 12.7031V19.3828C7.125 19.6625 7.23612 19.9308 7.43391 20.1286C7.6317 20.3264 7.89997 20.4375 8.17969 20.4375H22.2422C22.5219 20.4375 22.7902 20.3264 22.988 20.1286C23.1858 19.9308 23.2969 19.6625 23.2969 19.3828V13.7578C23.2969 13.5637 23.1395 13.4062 22.9453 13.4062C22.7511 13.4062 22.5938 13.5637 22.5938 13.7578V19.3828C22.5938 19.4761 22.5567 19.5655 22.4908 19.6314C22.4248 19.6973 22.3354 19.7344 22.2422 19.7344H8.17969C8.08645 19.7344 7.99703 19.6973 7.9311 19.6314C7.86516 19.5655 7.82812 19.4761 7.82812 19.3828V12.7031C7.82812 12.6099 7.86516 12.5205 7.9311 12.4545ZM9.90556 14.3625C10.0439 14.3595 10.1814 14.3846 10.3098 14.4362C10.4382 14.4878 10.5548 14.5649 10.6527 14.6627C10.7505 14.7606 10.8275 14.8772 10.8791 15.0056C10.9307 15.134 10.9558 15.2715 10.9529 15.4098C10.9525 15.4273 10.9534 15.4445 10.9555 15.4614C10.9529 15.5063 10.952 15.5514 10.9528 15.5965V16.644C10.9524 16.6643 10.9524 16.6847 10.9527 16.705C10.9494 16.8264 10.9245 16.9464 10.8791 17.0594C10.8275 17.1878 10.7505 17.3044 10.6527 17.4022C10.5548 17.5001 10.4382 17.5771 10.3098 17.6287C10.1814 17.6803 10.0439 17.7054 9.90556 17.7025C9.71144 17.6984 9.55075 17.8524 9.54664 18.0465C9.54253 18.2406 9.69657 18.4013 9.89069 18.4054C10.1238 18.4104 10.3556 18.3681 10.572 18.2811C10.7884 18.1942 10.9849 18.0643 11.1498 17.8994C11.2055 17.8438 11.2571 17.7846 11.3044 17.7222C11.3517 17.7845 11.4033 17.8437 11.4589 17.8993C11.6238 18.0642 11.8204 18.194 12.0368 18.281C12.2532 18.368 12.4849 18.4103 12.7181 18.4053C12.9122 18.4012 13.0662 18.2405 13.0621 18.0464C13.058 17.8523 12.8973 17.6982 12.7032 17.7024C12.5648 17.7053 12.4273 17.6802 12.299 17.6286C12.1706 17.577 12.0539 17.5 11.9561 17.4021C11.8582 17.3043 11.7812 17.1876 11.7296 17.0593C11.6842 16.9463 11.6594 16.8264 11.656 16.705C11.6563 16.6847 11.6563 16.6645 11.6559 16.6442V15.593L11.6559 15.5856C11.6529 15.4472 11.678 15.3097 11.7296 15.1814C11.7812 15.053 11.8583 14.9363 11.9561 14.8385C12.0539 14.7406 12.1706 14.6636 12.299 14.612C12.4273 14.5604 12.5648 14.5353 12.7032 14.5383C12.8973 14.5424 13.058 14.3883 13.0621 14.1942C13.0662 14.0001 12.9122 13.8394 12.7181 13.8353C12.4849 13.8304 12.2532 13.8726 12.0368 13.9596C11.8204 14.0466 11.6238 14.1764 11.4589 14.3413C11.4283 14.3719 11.3989 14.4036 11.3707 14.4364C11.3066 14.3391 11.2326 14.2483 11.1498 14.1655C10.9849 14.0006 10.7884 13.8708 10.572 13.7838C10.3556 13.6969 10.1238 13.6546 9.89069 13.6595C9.69657 13.6636 9.54253 13.8243 9.54664 14.0184C9.55075 14.2125 9.71144 14.3666 9.90556 14.3625Z" fill="black"/>
</svg>
