<svg width="24" height="24" viewBox="0 0 24 24" fill="none" xmlns="http://www.w3.org/2000/svg">
<path fill-rule="evenodd" clip-rule="evenodd" d="M16.5095 6.46949C16.4638 6.45018 16.4223 6.42198 16.3876 6.38655C14.6944 4.69908 12.4013 3.75156 10.0107 3.75156C7.6202 3.75156 5.32712 4.69908 3.63386 6.38655C3.56375 6.45717 3.46845 6.49704 3.36894 6.49739C3.26943 6.49774 3.17385 6.45854 3.10324 6.38843C3.03262 6.31831 2.99276 6.22302 2.9924 6.12351C2.99205 6.024 3.03125 5.92841 3.10136 5.8578C4.93545 4.02836 7.42023 3.00098 10.0107 3.00098C12.6013 3.00098 15.086 4.02836 16.9201 5.8578C16.973 5.91025 17.0091 5.97727 17.0237 6.0503C17.0384 6.12333 17.0309 6.19907 17.0024 6.26786C16.9738 6.33666 16.9254 6.39538 16.8633 6.43655C16.8013 6.47773 16.7284 6.49949 16.6539 6.49906C16.6043 6.49885 16.5552 6.4888 16.5095 6.46949ZM5.63638 8.88035C5.60528 8.90649 5.57438 8.93246 5.54638 8.9628C5.52273 8.9759 5.49754 8.98599 5.47138 8.9928L5.42638 9.0228C5.37988 9.04169 5.33031 9.05187 5.28013 9.0528C5.23642 9.05155 5.19327 9.04267 5.15263 9.02655L5.11138 9.00781C5.09188 8.99929 5.07307 8.98925 5.05513 8.9778C5.05513 8.96842 5.06076 8.96374 5.06357 8.9614C5.06457 8.96056 5.06521 8.96003 5.06512 8.95968C5.06496 8.95905 5.06238 8.95905 5.05515 8.95905H5.05513C5.04388 8.95905 5.04575 8.96187 5.04669 8.96327C5.04691 8.96361 5.04708 8.96386 5.04701 8.96398C5.0468 8.96437 5.04409 8.96335 5.03263 8.95905C5.00263 8.9478 5.00263 8.9178 5.00263 8.9178C4.98664 8.8988 4.97396 8.87726 4.96513 8.85406C4.95415 8.83379 4.94535 8.81242 4.93888 8.7903C4.93735 8.76657 4.93735 8.74277 4.93888 8.71905C4.93516 8.69545 4.93516 8.6714 4.93888 8.6478C4.9353 8.62544 4.9353 8.60266 4.93888 8.5803C4.94625 8.5549 4.95764 8.53084 4.97263 8.50905C4.97328 8.49531 4.97328 8.48155 4.97263 8.46781L5.00638 8.4303L5.05513 8.38531C5.20824 8.23151 5.36974 8.08628 5.53888 7.9503C5.55913 7.9323 5.57938 7.91835 5.59963 7.9044L5.59964 7.9044L5.59964 7.90439L5.59965 7.90439L5.59965 7.90438L5.59966 7.90438C5.61315 7.89509 5.62664 7.88579 5.64013 7.8753C5.79233 7.75036 5.95132 7.63393 6.11638 7.52655L6.14638 7.50405C7.29534 6.75203 8.63945 6.3531 10.0126 6.35655C11.4043 6.34567 12.768 6.74759 13.9314 7.51155C13.9758 7.54515 14.0201 7.57823 14.0639 7.61106L14.064 7.6111C14.1866 7.70284 14.3066 7.79266 14.4226 7.88655L14.5051 7.9503C14.6914 8.10024 14.8692 8.26049 15.0376 8.4303C15.0726 8.46527 15.1003 8.50677 15.1193 8.55246C15.1382 8.59814 15.1479 8.6471 15.1479 8.69655C15.1479 8.746 15.1382 8.79496 15.1193 8.84064C15.1003 8.88633 15.0726 8.92783 15.0376 8.9628C15.0027 8.99776 14.9612 9.02551 14.9155 9.04443C14.8698 9.06335 14.8208 9.07308 14.7714 9.07308C14.7219 9.07308 14.673 9.06335 14.6273 9.04443C14.5816 9.02551 14.5401 8.99776 14.5051 8.9628C14.3537 8.81119 14.1947 8.66726 14.0289 8.53155C13.9992 8.50695 13.9679 8.4844 13.9351 8.46405C13.8008 8.35287 13.6606 8.24896 13.5151 8.1528L13.4851 8.13405C12.4624 7.47358 11.272 7.11978 10.0545 7.11446C8.83708 7.10915 7.64358 7.45254 6.61513 8.10406L6.54013 8.14905C6.41263 8.2353 6.28888 8.32905 6.16513 8.42655C6.14775 8.43958 6.12981 8.45206 6.11175 8.46462L6.11174 8.46463L6.11173 8.46463L6.11173 8.46464C6.08302 8.4846 6.054 8.50478 6.02638 8.5278C5.9102 8.62149 5.80151 8.72643 5.69282 8.83137L5.69263 8.83156C5.67423 8.84854 5.65529 8.86446 5.63643 8.88031L5.63642 8.88032L5.63641 8.88033L5.6364 8.88034L5.63638 8.88035ZM12.0639 11.0778C12.1464 11.1335 12.2477 11.1541 12.3455 11.1351C12.4432 11.1161 12.5294 11.0591 12.5851 10.9765C12.6408 10.894 12.6614 10.7927 12.6424 10.6949C12.6235 10.5972 12.5664 10.511 12.4839 10.4553C11.6356 9.8877 10.617 9.63134 9.60115 9.72979C8.58529 9.82823 7.63485 10.2754 6.91137 10.9953C6.87622 11.0301 6.84832 11.0716 6.82928 11.1173C6.81025 11.163 6.80045 11.212 6.80045 11.2615C6.80045 11.311 6.81025 11.3601 6.82928 11.4057C6.84832 11.4514 6.87622 11.4929 6.91137 11.5278C6.94641 11.5625 6.98796 11.59 7.03365 11.6087C7.07934 11.6274 7.12827 11.6368 7.17762 11.6365C7.22697 11.6368 7.27589 11.6274 7.32158 11.6087C7.36727 11.59 7.40883 11.5625 7.44387 11.5278C8.0428 10.9295 8.83076 10.5577 9.6733 10.4756C10.5158 10.3935 11.3608 10.6064 12.0639 11.0778ZM10.3003 13.7017C10.23 13.772 10.1346 13.8115 10.0351 13.8115C9.77854 13.8115 9.53245 13.9134 9.35101 14.0949C9.16957 14.2763 9.06763 14.5224 9.06763 14.779C9.06763 15.0356 9.16957 15.2817 9.35101 15.4631C9.53245 15.6446 9.77854 15.7465 10.0351 15.7465C10.1346 15.7465 10.23 15.786 10.3003 15.8564C10.3706 15.9267 10.4101 16.0221 10.4101 16.1215C10.4101 16.221 10.3706 16.3164 10.3003 16.3867C10.23 16.457 10.1346 16.4965 10.0351 16.4965C9.57962 16.4965 9.14277 16.3156 8.82068 15.9935C8.49858 15.6714 8.31763 15.2345 8.31763 14.779C8.31763 14.3235 8.49858 13.8867 8.82068 13.5646C9.14277 13.2425 9.57962 13.0615 10.0351 13.0615C10.1346 13.0615 10.23 13.101 10.3003 13.1714C10.3706 13.2417 10.4101 13.3371 10.4101 13.4365C10.4101 13.536 10.3706 13.6314 10.3003 13.7017ZM20.3176 17.4415C20.2236 17.4093 20.1207 17.4157 20.0314 17.4592C19.9421 17.5028 19.8738 17.5801 19.8414 17.674C19.5742 18.4617 19.0558 19.14 18.3659 19.6046C17.676 20.0692 16.8526 20.2945 16.0223 20.246C15.1919 20.1975 14.4004 19.8777 13.7693 19.3359C13.1383 18.794 12.7025 18.06 12.5289 17.2465H14.2576C14.3571 17.2465 14.4525 17.207 14.5228 17.1367C14.5931 17.0664 14.6326 16.971 14.6326 16.8715C14.6326 16.7721 14.5931 16.6767 14.5228 16.6064C14.4525 16.5361 14.3571 16.4965 14.2576 16.4965H11.6326C11.5332 16.4965 11.4378 16.5361 11.3675 16.6064C11.2971 16.6767 11.2576 16.7721 11.2576 16.8715V19.4965C11.2576 19.596 11.2971 19.6914 11.3675 19.7617C11.4378 19.832 11.5332 19.8715 11.6326 19.8715C11.7321 19.8715 11.8275 19.832 11.8978 19.7617C11.9681 19.6914 12.0076 19.596 12.0076 19.4965V18.1203C12.3499 18.9867 12.9498 19.7271 13.7262 20.2419C14.5026 20.7566 15.4182 21.0207 16.3495 20.9986C17.2808 20.9766 18.1829 20.6693 18.934 20.1184C19.6852 19.5675 20.2493 18.7994 20.5501 17.9178C20.5824 17.8238 20.576 17.7209 20.5324 17.6316C20.4888 17.5423 20.4116 17.4739 20.3176 17.4415ZM20.3675 12.4814C20.4378 12.411 20.5332 12.3715 20.6326 12.3715C20.7321 12.3715 20.8275 12.411 20.8978 12.4814C20.9681 12.5517 21.0076 12.6471 21.0076 12.7465V15.3715C21.0076 15.471 20.9681 15.5664 20.8978 15.6367C20.8275 15.707 20.7321 15.7465 20.6326 15.7465H18.0076C17.9082 15.7465 17.8128 15.707 17.7425 15.6367C17.6721 15.5664 17.6326 15.471 17.6326 15.3715C17.6326 15.2721 17.6721 15.1767 17.7425 15.1064C17.8128 15.036 17.9082 14.9965 18.0076 14.9965H19.7364C19.5628 14.183 19.127 13.449 18.4959 12.9072C17.8648 12.3653 17.0733 12.0456 16.243 11.9971C15.4126 11.9485 14.5893 12.1739 13.8993 12.6385C13.2094 13.1031 12.6911 13.7813 12.4239 14.569C12.3889 14.6596 12.3203 14.7331 12.2323 14.7741C12.1443 14.815 12.0438 14.8203 11.952 14.7887C11.8602 14.7572 11.7842 14.6912 11.7401 14.6048C11.6959 14.5184 11.6869 14.4182 11.7151 14.3253C12.016 13.4437 12.5801 12.6756 13.3312 12.1247C14.0824 11.5737 14.9845 11.2665 15.9157 11.2444C16.847 11.2224 17.7626 11.4865 18.5391 12.0012C19.3155 12.5159 19.9153 13.2564 20.2576 14.1228V12.7465C20.2576 12.6471 20.2971 12.5517 20.3675 12.4814Z" fill="black"/>
</svg>
