<svg width="64" height="64" viewBox="0 0 64 64" fill="none" xmlns="http://www.w3.org/2000/svg">
<path fill-rule="evenodd" clip-rule="evenodd" d="M2.875 14.1875C2.875 13.6697 3.29473 13.25 3.8125 13.25H43.1875C43.7053 13.25 44.125 13.6697 44.125 14.1875V37.625H2.875V14.1875ZM1 38.5625V14.1875C1 12.6342 2.2592 11.375 3.8125 11.375H43.1875C44.7408 11.375 46 12.6342 46 14.1875V38.5625V42.3125C46 43.8658 44.7408 45.125 43.1875 45.125H27.3359C27.5993 47.1572 28.3732 49.0932 29.5889 50.75H31.9356C32.4534 50.75 32.8731 51.1697 32.8731 51.6875C32.8731 52.2053 32.4534 52.625 31.9356 52.625H29.136H29.1152H17.8848H17.864H15.0606C14.5429 52.625 14.1231 52.2053 14.1231 51.6875C14.1231 51.1697 14.5429 50.75 15.0606 50.75H17.4111C18.6268 49.0932 19.4007 47.1572 19.6641 45.125H3.8125C2.2592 45.125 1 43.8658 1 42.3125V38.5625ZM21.5527 45.125C21.3295 47.1171 20.682 49.0348 19.6584 50.75H27.3416C26.318 49.0348 25.6705 47.1171 25.4473 45.125H21.5527ZM44.125 39.5V42.3125C44.125 42.8303 43.7053 43.25 43.1875 43.25H3.8125C3.29473 43.25 2.875 42.8303 2.875 42.3125V39.5H44.125Z" fill="black"/>
</svg>
