<svg width="24" height="24" viewBox="0 0 24 24" fill="none" xmlns="http://www.w3.org/2000/svg">
<path fill-rule="evenodd" clip-rule="evenodd" d="M23.8125 5.21969C23.8641 5.29796 23.9056 5.38237 23.9362 5.47094C23.978 5.58769 23.9996 5.7107 24 5.83469V19.8822C24 20.1806 23.8815 20.4667 23.6705 20.6777C23.4595 20.8887 23.1734 21.0072 22.875 21.0072H11.625C11.3266 21.0072 11.0405 20.8887 10.8295 20.6777C10.6185 20.4667 10.5 20.1806 10.5 19.8822V5.84219C10.5007 5.62142 10.5644 5.40545 10.6837 5.21969L11.8387 3.49469C11.9411 3.34062 12.0798 3.21418 12.2427 3.12653C12.4056 3.03888 12.5875 2.99274 12.7725 2.99219H21.7312C21.9162 2.99274 22.0982 3.03888 22.261 3.12653C22.4239 3.21418 22.5627 3.34062 22.665 3.49469L23.8125 5.21969ZM12.5974 3.77913C12.5423 3.8086 12.4956 3.85133 12.4612 3.90345L11.5725 5.23469H22.9238L22.0387 3.90345C22.0044 3.85133 21.9576 3.8086 21.9026 3.77913C21.8476 3.74966 21.7861 3.73439 21.7237 3.73469H12.7762C12.7138 3.73439 12.6524 3.74966 12.5974 3.77913ZM16.5 18.0072V20.2572H18V18.0072C18 17.8083 17.921 17.6175 17.7803 17.4769C17.6397 17.3362 17.4489 17.2572 17.25 17.2572C17.0511 17.2572 16.8603 17.3362 16.7197 17.4769C16.579 17.6175 16.5 17.8083 16.5 18.0072ZM18.75 20.2572H22.875C22.9745 20.2572 23.0698 20.2177 23.1402 20.1474C23.2105 20.077 23.25 19.9816 23.25 19.8822V6.00719H11.25V19.8822C11.25 19.9816 11.2895 20.077 11.3598 20.1474C11.4302 20.2177 11.5255 20.2572 11.625 20.2572H15.75V18.0072C15.75 17.6094 15.908 17.2278 16.1893 16.9465C16.4706 16.6652 16.8522 16.5072 17.25 16.5072C17.6478 16.5072 18.0294 16.6652 18.3107 16.9465C18.592 17.2278 18.75 17.6094 18.75 18.0072V20.2572ZM13.5 6.73468C13.1022 6.73468 12.7206 6.89271 12.4393 7.17402C12.158 7.45532 12 7.83686 12 8.23468V10.4847C12 10.5841 12.0395 10.6795 12.1098 10.7498C12.1802 10.8202 12.2755 10.8597 12.375 10.8597H14.625C14.7245 10.8597 14.8198 10.8202 14.8902 10.7498C14.9605 10.6795 15 10.5841 15 10.4847V8.23468C15 7.83686 14.842 7.45532 14.5607 7.17402C14.2794 6.89271 13.8978 6.73468 13.5 6.73468ZM12.75 10.1097V8.23468C12.75 8.03577 12.829 7.845 12.9697 7.70435C13.1103 7.5637 13.3011 7.48468 13.5 7.48468C13.6989 7.48468 13.8897 7.5637 14.0303 7.70435C14.171 7.845 14.25 8.03577 14.25 8.23468V10.1097H12.75ZM13.5 11.6097C13.1022 11.6097 12.7206 11.7677 12.4393 12.049C12.158 12.3303 12 12.7119 12 13.1097V15.3597C12 15.4591 12.0395 15.5545 12.1098 15.6248C12.1802 15.6952 12.2755 15.7347 12.375 15.7347H14.625C14.7245 15.7347 14.8198 15.6952 14.8902 15.6248C14.9605 15.5545 15 15.4591 15 15.3597V13.1097C15 12.7119 14.842 12.3303 14.5607 12.049C14.2794 11.7677 13.8978 11.6097 13.5 11.6097ZM12.75 14.9847V13.1097C12.75 12.9108 12.829 12.72 12.9697 12.5793C13.1103 12.4387 13.3011 12.3597 13.5 12.3597C13.6989 12.3597 13.8897 12.4387 14.0303 12.5793C14.171 12.72 14.25 12.9108 14.25 13.1097V14.9847H12.75ZM16.1893 12.049C16.4706 11.7677 16.8522 11.6097 17.25 11.6097C17.6478 11.6097 18.0294 11.7677 18.3107 12.049C18.592 12.3303 18.75 12.7119 18.75 13.1097V15.3597C18.75 15.4591 18.7105 15.5545 18.6402 15.6248C18.5698 15.6952 18.4745 15.7347 18.375 15.7347H16.125C16.0255 15.7347 15.9302 15.6952 15.8598 15.6248C15.7895 15.5545 15.75 15.4591 15.75 15.3597V13.1097C15.75 12.7119 15.908 12.3303 16.1893 12.049ZM16.5 13.1097V14.9847H18V13.1097C18 12.9108 17.921 12.72 17.7803 12.5793C17.6397 12.4387 17.4489 12.3597 17.25 12.3597C17.0511 12.3597 16.8603 12.4387 16.7197 12.5793C16.579 12.72 16.5 12.9108 16.5 13.1097ZM17.25 6.73468C16.8522 6.73468 16.4706 6.89271 16.1893 7.17402C15.908 7.45532 15.75 7.83686 15.75 8.23468V10.4847C15.75 10.5841 15.7895 10.6795 15.8598 10.7498C15.9302 10.8202 16.0255 10.8597 16.125 10.8597H18.375C18.4745 10.8597 18.5698 10.8202 18.6402 10.7498C18.7105 10.6795 18.75 10.5841 18.75 10.4847V8.23468C18.75 7.83686 18.592 7.45532 18.3107 7.17402C18.0294 6.89271 17.6478 6.73468 17.25 6.73468ZM18 10.1097H16.5V8.23468C16.5 8.03577 16.579 7.845 16.7197 7.70435C16.8603 7.5637 17.0511 7.48468 17.25 7.48468C17.4489 7.48468 17.6397 7.5637 17.7803 7.70435C17.921 7.845 18 8.03577 18 8.23468V10.1097ZM19.9393 12.049C20.2206 11.7677 20.6022 11.6097 21 11.6097C21.3978 11.6097 21.7794 11.7677 22.0607 12.049C22.342 12.3303 22.5 12.7119 22.5 13.1097V15.3597C22.5 15.4591 22.4605 15.5545 22.3902 15.6248C22.3198 15.6952 22.2245 15.7347 22.125 15.7347H19.875C19.7755 15.7347 19.6802 15.6952 19.6098 15.6248C19.5395 15.5545 19.5 15.4591 19.5 15.3597V13.1097C19.5 12.7119 19.658 12.3303 19.9393 12.049ZM20.25 13.1097V14.9847H21.75V13.1097C21.75 12.9108 21.671 12.72 21.5303 12.5793C21.3897 12.4387 21.1989 12.3597 21 12.3597C20.8011 12.3597 20.6103 12.4387 20.4697 12.5793C20.329 12.72 20.25 12.9108 20.25 13.1097ZM21 6.73468C20.6022 6.73468 20.2206 6.89271 19.9393 7.17402C19.658 7.45532 19.5 7.83686 19.5 8.23468V10.4847C19.5 10.5841 19.5395 10.6795 19.6098 10.7498C19.6802 10.8202 19.7755 10.8597 19.875 10.8597H22.125C22.2245 10.8597 22.3198 10.8202 22.3902 10.7498C22.4605 10.6795 22.5 10.5841 22.5 10.4847V8.23468C22.5 7.83686 22.342 7.45532 22.0607 7.17402C21.7794 6.89271 21.3978 6.73468 21 6.73468ZM21.75 10.1097H20.25V8.23468C20.25 8.03577 20.329 7.845 20.4697 7.70435C20.6103 7.5637 20.8011 7.48468 21 7.48468C21.1989 7.48468 21.3897 7.5637 21.5303 7.70435C21.671 7.845 21.75 8.03577 21.75 8.23468V10.1097Z" fill="black"/>
</svg>
