<svg width="64" height="64" viewBox="0 0 64 64" fill="none" xmlns="http://www.w3.org/2000/svg">
<path fill-rule="evenodd" clip-rule="evenodd" d="M41.475 17.1855C42.037 17.5721 42.683 17.8191 43.3595 17.906C44.036 17.993 44.7235 17.9174 45.365 17.6855C46.228 18.7494 47.4033 19.5154 48.725 19.8755C49.2827 20.0255 49.8575 20.1028 50.435 20.1055C52.1589 20.1055 53.8122 19.4207 55.0312 18.2017C56.2502 16.9827 56.935 15.3294 56.935 13.6055C56.935 11.8816 56.2502 10.2283 55.0312 9.00928C53.8122 7.79029 52.1589 7.10547 50.435 7.10547C49.4743 7.11297 48.5273 7.33402 47.6625 7.75256C46.7978 8.17111 46.0369 8.77668 45.435 9.52548C44.4426 9.17031 43.3548 9.18928 42.3754 9.57886C41.3961 9.96844 40.5924 10.7019 40.1152 11.6416C39.638 12.5814 39.5199 13.663 39.7831 14.6836C40.0463 15.7042 40.6728 16.5938 41.545 17.1855H41.475ZM42.105 12.3855C42.4275 11.9128 42.9238 11.5866 43.4856 11.478C44.0475 11.3693 44.6295 11.487 45.105 11.8055C45.2298 11.8895 45.3705 11.9471 45.5184 11.9746C45.6663 12.0022 45.8183 11.999 45.965 11.9655C46.1114 11.9322 46.2493 11.8688 46.3698 11.7793C46.4903 11.6897 46.5909 11.5761 46.665 11.4455C47.0407 10.7867 47.5832 10.2384 48.2379 9.85571C48.8927 9.47304 49.6366 9.26946 50.395 9.26547C51.1582 9.26371 51.9084 9.46328 52.5699 9.84399C53.2314 10.2247 53.7808 10.7731 54.1627 11.434C54.5446 12.0948 54.7454 12.8446 54.745 13.6078C54.7446 14.3711 54.5429 15.1207 54.1603 15.7811C53.7777 16.4415 53.2277 16.9893 52.5658 17.3693C51.9039 17.7493 51.1535 17.948 50.3902 17.9454C49.627 17.9428 48.878 17.739 48.2187 17.3545C47.5593 16.97 47.0131 16.4185 46.635 15.7555C46.561 15.6267 46.4618 15.5143 46.3432 15.4249C46.2246 15.3355 46.0892 15.2711 45.945 15.2355C45.862 15.225 45.778 15.225 45.695 15.2355C45.4778 15.2399 45.2663 15.3058 45.085 15.4255C44.6681 15.6945 44.1717 15.8126 43.6784 15.7601C43.185 15.7076 42.7246 15.4875 42.3738 15.1367C42.023 14.7859 41.8029 14.3255 41.7504 13.8321C41.6978 13.3388 41.8159 12.8423 42.085 12.4255L42.105 12.3855ZM53.475 27.7154C53.1849 27.7169 52.8961 27.7538 52.615 27.8254L28.355 34.1054L26.635 15.9854C26.6148 15.713 26.4921 15.4584 26.2917 15.2729C26.0913 15.0873 25.8281 14.9846 25.555 14.9854H15.495C15.2219 14.9846 14.9587 15.0873 14.7583 15.2729C14.5579 15.4584 14.4352 15.713 14.415 15.9854L12.295 38.2654L9.47501 38.9954C8.78598 39.1709 8.17505 39.5709 7.73865 40.1323C7.30224 40.6936 7.06521 41.3843 7.065 42.0954V55.8154C7.065 55.958 7.09326 56.0993 7.14816 56.231C7.20306 56.3627 7.28351 56.4822 7.38486 56.5826C7.48621 56.683 7.60646 56.7624 7.73865 56.816C7.87084 56.8697 8.01233 56.8967 8.155 56.8954H55.815C55.9577 56.8967 56.0992 56.8697 56.2314 56.816C56.3636 56.7624 56.4838 56.683 56.5851 56.5826C56.6865 56.4822 56.7669 56.3627 56.8218 56.231C56.8767 56.0993 56.905 55.958 56.905 55.8154V31.1454C56.9024 30.2365 56.5401 29.3656 55.8975 28.7229C55.2548 28.0802 54.3839 27.718 53.475 27.7154ZM24.575 17.1754L25.265 24.4354H15.815L16.505 17.1754H24.575ZM15.575 26.6054H25.465L26.235 34.6554L14.525 37.6554L15.575 26.6054ZM38.895 54.7254V46.3254C38.895 46.0389 39.0088 45.7642 39.2113 45.5617C39.4139 45.3591 39.6886 45.2454 39.975 45.2454H46.235C46.3777 45.244 46.5192 45.271 46.6514 45.3247C46.7836 45.3784 46.9038 45.4577 47.0052 45.5581C47.1065 45.6586 47.187 45.778 47.2419 45.9097C47.2968 46.0414 47.325 46.1827 47.325 46.3254V54.7254H38.895ZM54.735 54.7254H49.485V46.3254C49.485 45.4634 49.1426 44.6367 48.5331 44.0273C47.9236 43.4178 47.097 43.0754 46.235 43.0754H39.975C39.1148 43.078 38.2907 43.4216 37.6834 44.0308C37.076 44.64 36.735 45.4651 36.735 46.3254V54.7254H9.23502V42.0954C9.22937 41.8642 9.30398 41.6382 9.4462 41.4559C9.58841 41.2736 9.78943 41.1462 10.015 41.0954L53.155 29.9354C53.3411 29.8924 53.5344 29.8912 53.721 29.932C53.9076 29.9728 54.0827 30.0545 54.2339 30.1712C54.3851 30.2879 54.5085 30.4367 54.5951 30.6069C54.6818 30.7771 54.7296 30.9645 54.735 31.1554V54.7254ZM35.48 17.2086C34.7647 17.6847 33.9243 17.9378 33.065 17.9358C31.9175 17.9332 30.8176 17.4762 30.0062 16.6647C29.1947 15.8532 28.7377 14.7534 28.7351 13.6058C28.7331 12.7466 28.9862 11.9062 29.4623 11.1909C29.9384 10.4757 30.6161 9.91785 31.4096 9.58813C32.203 9.25841 33.0765 9.17163 33.9193 9.33877C34.7621 9.50591 35.5363 9.91944 36.1439 10.527C36.7514 11.1346 37.165 11.9088 37.3321 12.7516C37.4993 13.5944 37.4125 14.4679 37.0827 15.2613C36.753 16.0548 36.1952 16.7325 35.48 17.2086ZM34.2734 11.7967C33.9152 11.5595 33.4946 11.4339 33.065 11.4358C32.4913 11.4385 31.9419 11.6683 31.5371 12.0749C31.1323 12.4816 30.905 13.032 30.905 13.6058C30.905 14.0354 31.0326 14.4554 31.2715 14.8125C31.5104 15.1695 31.8499 15.4477 32.247 15.6116C32.6441 15.7755 33.0809 15.8179 33.5021 15.7334C33.9233 15.6488 34.3099 15.4412 34.613 15.1367C34.9161 14.8322 35.122 14.4446 35.2046 14.023C35.2872 13.6014 35.2428 13.1648 35.077 12.7685C34.9112 12.3721 34.6315 12.0339 34.2734 11.7967ZM18.985 43.9355H16.815C16.5452 43.9615 16.2948 44.087 16.1125 44.2876C15.9303 44.4882 15.8293 44.7495 15.8293 45.0205C15.8293 45.2916 15.9303 45.5529 16.1125 45.7535C16.2948 45.9541 16.5452 46.0796 16.815 46.1055H18.985C19.2548 46.0796 19.5052 45.9541 19.6875 45.7535C19.8698 45.5529 19.9707 45.2916 19.9707 45.0205C19.9707 44.7495 19.8698 44.4882 19.6875 44.2876C19.5052 44.087 19.2548 43.9615 18.985 43.9355ZM16.815 48.2656H18.985C19.2548 48.2916 19.5052 48.4171 19.6875 48.6177C19.8698 48.8183 19.9707 49.0796 19.9707 49.3506C19.9707 49.6217 19.8698 49.883 19.6875 50.0836C19.5052 50.2842 19.2548 50.4097 18.985 50.4356H16.815C16.5452 50.4097 16.2948 50.2842 16.1125 50.0836C15.9303 49.883 15.8293 49.6217 15.8293 49.3506C15.8293 49.0796 15.9303 48.8183 16.1125 48.6177C16.2948 48.4171 16.5452 48.2916 16.815 48.2656ZM29.815 43.9357H27.655C27.5038 43.9211 27.3512 43.9384 27.207 43.9863C27.0628 44.0342 26.9303 44.1117 26.8178 44.2139C26.7054 44.3161 26.6155 44.4406 26.554 44.5795C26.4925 44.7185 26.4608 44.8687 26.4608 45.0207C26.4608 45.1726 26.4925 45.3228 26.554 45.4618C26.6155 45.6007 26.7054 45.7253 26.8178 45.8274C26.9303 45.9296 27.0628 46.0071 27.207 46.055C27.3512 46.103 27.5038 46.1202 27.655 46.1056H29.815C29.9663 46.1202 30.1189 46.103 30.2631 46.055C30.4072 46.0071 30.5398 45.9296 30.6523 45.8274C30.7647 45.7253 30.8546 45.6007 30.9161 45.4618C30.9776 45.3228 31.0093 45.1726 31.0093 45.0207C31.0093 44.8687 30.9776 44.7185 30.9161 44.5795C30.8546 44.4406 30.7647 44.3161 30.6523 44.2139C30.5398 44.1117 30.4072 44.0342 30.2631 43.9863C30.1189 43.9384 29.9663 43.9211 29.815 43.9357ZM27.655 48.2657H29.815C29.9663 48.2512 30.1189 48.2685 30.2631 48.3164C30.4072 48.3643 30.5398 48.4418 30.6523 48.544C30.7647 48.6461 30.8546 48.7707 30.9161 48.9096C30.9776 49.0486 31.0093 49.1988 31.0093 49.3508C31.0093 49.5027 30.9776 49.6529 30.9161 49.7919C30.8546 49.9308 30.7647 50.0554 30.6523 50.1575C30.5398 50.2597 30.4072 50.3372 30.2631 50.3851C30.1189 50.433 29.9663 50.4503 29.815 50.4358H27.655C27.5038 50.4503 27.3512 50.433 27.207 50.3851C27.0628 50.3372 26.9303 50.2597 26.8178 50.1575C26.7054 50.0554 26.6155 49.9308 26.554 49.7919C26.4925 49.6529 26.4608 49.5027 26.4608 49.3508C26.4608 49.1988 26.4925 49.0486 26.554 48.9096C26.6155 48.7707 26.7054 48.6461 26.8178 48.544C26.9303 48.4418 27.0628 48.3643 27.207 48.3164C27.3512 48.2685 27.5038 48.2512 27.655 48.2657Z" fill="black"/>
</svg>
