<svg width="24" height="24" viewBox="0 0 24 24" fill="none" xmlns="http://www.w3.org/2000/svg">
<path fill-rule="evenodd" clip-rule="evenodd" d="M7.92375 6.30058C9.25885 6.61749 10.6279 6.76863 12 6.75058C14.0213 6.75058 16.1489 6.46466 17.2462 5.85182V7.12558C17.2462 7.46308 15.4575 8.25058 11.9962 8.25058C8.535 8.25058 6.74625 7.46308 6.74625 7.12558V5.85421C7.04819 6.02234 7.4411 6.1714 7.92375 6.30058ZM11.9962 9.00058C14.0198 9.00058 16.15 8.71401 17.2462 8.09972V9.37558C17.2462 9.71308 15.4575 10.5006 11.9962 10.5006C8.535 10.5006 6.74625 9.71308 6.74625 9.37558V8.09932C7.84316 8.71388 9.97484 9.00058 11.9962 9.00058ZM11.9962 11.2506C14.0198 11.2506 16.15 10.964 17.2462 10.3497V11.6256C17.2462 11.9631 15.4575 12.7506 11.9962 12.7506C8.535 12.7506 6.74625 11.9631 6.74625 11.6256V10.3493C7.84316 10.9639 9.97484 11.2506 11.9962 11.2506ZM5.99625 11.6256V9.37558V7.12558V4.87558C5.99625 4.85105 5.99865 4.82677 6.00333 4.80305C6.11781 3.56363 9.16719 3.00058 12 3.00058C13.3723 2.98171 14.7417 3.13414 16.0763 3.45433C17.3513 3.79183 18 4.27183 18 4.87558C18 4.90157 17.9987 4.92727 17.9962 4.95269V7.12558V9.37558V11.5726C17.9987 11.5901 18 11.6078 18 11.6256V12.7506C20.8912 12.7506 24 13.3393 24 14.6256C24 14.6515 23.9987 14.6771 23.9962 14.7024V16.8756V19.1256C23.9962 20.4156 20.8875 21.0006 17.9962 21.0006C15.1087 21.0006 11.9962 20.4156 11.9962 19.1256V18.0006C9.10875 18.0006 5.99625 17.4156 5.99625 16.1256V13.8756V11.6256ZM17.25 12.7637V12.5976C17.1353 12.6621 17.0093 12.7229 16.8732 12.7803C16.9985 12.7736 17.1242 12.7681 17.25 12.7637ZM11.9962 16.8756V17.2506C8.535 17.2506 6.74625 16.4631 6.74625 16.1256V14.8493C7.84316 15.4639 9.97484 15.7506 11.9962 15.7506V16.8756ZM11.9962 15.0006C8.535 15.0006 6.74625 14.2131 6.74625 13.8756V12.5993C7.84316 13.2139 9.97484 13.5006 11.9962 13.5006C12.3706 13.5006 12.7486 13.4908 13.123 13.4709C12.4668 13.7472 12.0445 14.1062 12.0033 14.5531C11.9986 14.5768 11.9962 14.6011 11.9962 14.6256V15.0006ZM17.2467 4.85793C17.2147 4.76114 16.9413 4.46145 15.8813 4.17808C14.6104 3.87398 13.3065 3.73036 12 3.75058C8.53875 3.75058 6.75 4.53808 6.75 4.87558C6.75 4.94683 6.9825 5.26933 8.11875 5.57308C9.3896 5.87695 10.6935 6.02057 12 6.00058C15.3732 6.00058 17.1542 5.25426 17.2462 4.90333V4.87558C17.2462 4.86968 17.2464 4.8638 17.2467 4.85793ZM12.7462 17.8493V19.1256C12.7462 19.4631 14.535 20.2506 17.9962 20.2506C21.4575 20.2506 23.2462 19.4631 23.2462 19.1256V17.8497C22.15 18.464 20.0198 18.7506 17.9962 18.7506C15.9748 18.7506 13.8432 18.4639 12.7462 17.8493ZM23.2462 16.8756C23.2462 17.2131 21.4575 18.0006 17.9962 18.0006C14.535 18.0006 12.7462 17.2131 12.7462 16.8756V15.5976C13.8414 16.2134 15.9741 16.5006 18 16.5006C20.0213 16.5006 22.1489 16.2128 23.2462 15.6002V16.8756ZM23.2464 14.6133L23.247 14.6011C23.1652 14.2515 21.3836 13.5006 18 13.5006C14.535 13.5006 12.75 14.2881 12.75 14.6256C12.75 14.9631 14.535 15.7506 18 15.7506C21.3732 15.7506 23.1543 15.0042 23.2462 14.6533V14.6256L23.2464 14.6133Z" fill="black"/>
</svg>
