<svg width="64" height="64" viewBox="0 0 64 64" fill="none" xmlns="http://www.w3.org/2000/svg">
<g clip-path="url(#clip0_482_1999)">
<path fill-rule="evenodd" clip-rule="evenodd" d="M55.5353 33.0572C55.7706 33.1536 56.0227 33.2025 56.2769 33.2012V33.1912C56.6427 33.1915 57.001 33.0883 57.3106 32.8937C57.6203 32.6991 57.8686 32.4209 58.0269 32.0912L63.8069 19.9412C63.9184 19.7111 63.9831 19.4611 63.9971 19.2057C64.0111 18.9504 63.9743 18.6948 63.8887 18.4538C63.8031 18.2128 63.6704 17.9912 63.4985 17.802C63.3265 17.6127 63.1186 17.4595 62.8869 17.3512C62.6587 17.2413 62.4101 17.1801 62.1569 17.1712L57.3469 16.9112V10.1112C57.3408 9.67562 57.1882 9.25481 56.9137 8.9165C56.6393 8.5782 56.2589 8.34212 55.834 8.24628C55.409 8.15043 54.9642 8.20038 54.5711 8.38812C54.178 8.57586 53.8595 8.89045 53.6669 9.28122L47.8769 21.4512C47.7665 21.681 47.7024 21.9303 47.6883 22.1849C47.6743 22.4394 47.7106 22.6943 47.7951 22.9348C47.8796 23.1754 48.0107 23.3969 48.1809 23.5868C48.3511 23.7766 48.557 23.931 48.7869 24.0412C49.018 24.1545 49.2699 24.2192 49.5269 24.2312L54.3369 24.4812V31.2712C54.3369 31.5255 54.3872 31.7773 54.4848 32.0121C54.5824 32.2469 54.7255 32.4601 54.9058 32.6395C55.086 32.8188 55.3 32.9608 55.5353 33.0572ZM49.6769 22.2812L55.3369 10.4212L55.2969 17.8312C55.2969 18.0964 55.4023 18.3508 55.5898 18.5383C55.7774 18.7259 56.0317 18.8312 56.2969 18.8312L62.0069 19.0512L56.3369 30.9612V23.4912C56.3373 23.2344 56.2388 22.9874 56.0619 22.8012C55.8851 22.615 55.6434 22.504 55.3869 22.4912L49.6769 22.2812ZM20.8969 30.9413H24.7069L24.7269 30.9312C25.9686 30.8747 27.1407 30.3417 27.9994 29.443C28.623 28.7904 29.0464 27.9814 29.2315 27.1113H29.4669C30.2175 27.1113 30.9373 27.4094 31.4681 27.9402C31.9988 28.4709 32.297 29.1907 32.297 29.9413V47.1513C32.297 48.4296 32.8048 49.6556 33.7087 50.5595C34.6126 51.4635 35.8386 51.9713 37.117 51.9713H40.8969V52.8012C40.8969 53.5969 41.213 54.36 41.7756 54.9226C42.3382 55.4852 43.1013 55.8012 43.8969 55.8012H59.0269C59.8209 55.7986 60.5814 55.4814 61.1418 54.919C61.7022 54.3567 62.0169 53.5952 62.0169 52.8012V37.1812C62.0169 36.916 61.9116 36.6617 61.724 36.4742C61.5365 36.2866 61.2822 36.1812 61.0169 36.1812C60.7517 36.1812 60.4974 36.2866 60.3098 36.4742C60.1223 36.6617 60.0169 36.916 60.0169 37.1812V52.8012C60.0169 53.0665 59.9116 53.3208 59.724 53.5084C59.5365 53.6959 59.2822 53.8012 59.0169 53.8012H43.8969C43.6317 53.8012 43.3774 53.6959 43.1898 53.5084C43.0023 53.3208 42.8969 53.0665 42.8969 52.8012V50.9752C42.8969 50.9739 42.8969 50.9726 42.8969 50.9713C42.8969 50.97 42.8969 50.9687 42.8969 50.9674V16.5212C42.8969 16.256 43.0023 16.0017 43.1898 15.8141C43.3774 15.6266 43.6317 15.5212 43.8969 15.5212C44.1622 15.5212 44.4165 15.4159 44.604 15.2284C44.7916 15.0408 44.8969 14.7865 44.8969 14.5212C44.8969 14.256 44.7916 14.0017 44.604 13.8141C44.4165 13.6266 44.1622 13.5212 43.8969 13.5212C43.1013 13.5212 42.3382 13.8373 41.7756 14.3999C41.213 14.9625 40.8969 15.7256 40.8969 16.5212V49.9713H37.117C36.369 49.9713 35.6518 49.6742 35.1229 49.1453C34.5941 48.6165 34.297 47.8992 34.297 47.1513V29.9413C34.2943 28.6611 33.7846 27.4341 32.8794 26.5289C31.9741 25.6236 30.7471 25.1139 29.4669 25.1113H29.2336C29.0497 24.2373 28.6254 23.4246 27.9994 22.7695C27.1407 21.8708 25.9686 21.3378 24.7269 21.2812H20.8969C20.6317 21.2812 20.3774 21.3866 20.1898 21.5742C20.0023 21.7617 19.897 22.016 19.8969 22.2812H18.0069C17.7417 22.2812 17.4874 22.3866 17.2998 22.5741C17.1123 22.7616 17.0069 23.016 17.0069 23.2812C17.0069 23.5464 17.1123 23.8007 17.2998 23.9883C17.4874 24.1758 17.7417 24.2812 18.0069 24.2812H19.8969V27.9813H18.0069C17.7417 27.9813 17.4874 28.0866 17.2998 28.2741C17.1123 28.4617 17.0069 28.716 17.0069 28.9813C17.0069 29.2465 17.1123 29.5008 17.2998 29.6884C17.4874 29.8759 17.7417 29.9813 18.0069 29.9813H19.8977C19.9078 30.2319 20.0117 30.4703 20.1898 30.6483C20.3774 30.8359 20.6317 30.9413 20.8969 30.9413ZM21.8969 23.2913L21.8775 28.7851C21.8877 28.8363 21.894 28.8885 21.8961 28.9413H24.7069C25.4271 28.8984 26.1037 28.5821 26.5985 28.057C27.0933 27.5319 27.3688 26.8377 27.3688 26.1162C27.3688 25.3948 27.0933 24.7006 26.5985 24.1755C26.1037 23.6504 25.4271 23.3341 24.7069 23.2913H21.8969Z" fill="black"/>
</g>
<defs>
<clipPath id="clip0_482_1999">
<rect width="64" height="64" fill="white"/>
</clipPath>
</defs>
</svg>
