<svg width="64" height="64" viewBox="0 0 64 64" fill="none" xmlns="http://www.w3.org/2000/svg">
<g clip-path="url(#clip0_488_1109)">
<path fill-rule="evenodd" clip-rule="evenodd" d="M63.2521 12.7315L59.2021 8.73149C59.1303 8.65635 59.0534 8.58619 58.9721 8.5215C58.4395 8.114 57.7673 7.93367 57.1023 8.01985C56.4372 8.10602 55.8332 8.45171 55.4221 8.98149L50.5721 15.1515C50.0338 15.8458 49.7358 16.6964 49.7232 17.5748C49.7106 18.4533 49.9839 19.312 50.5021 20.0215L37.8221 32.7015L36.3421 31.2215C35.613 30.4954 34.626 30.0878 33.5971 30.0878C32.5681 30.0878 31.5811 30.4954 30.8521 31.2215L17.9821 44.1515C16.7131 45.4227 16.0004 47.1454 16.0004 48.9415C16.0004 50.7376 16.7131 52.4603 17.9821 53.7315L18.2621 54.0115C18.8902 54.6422 19.6366 55.1427 20.4586 55.4842C21.2806 55.8257 22.162 56.0014 23.0521 56.0014C23.9422 56.0014 24.8235 55.8257 25.6455 55.4842C26.4675 55.1427 27.214 54.6422 27.8421 54.0115L40.7121 41.1415C41.074 40.7818 41.3612 40.3541 41.5572 39.883C41.7532 39.4119 41.8541 38.9067 41.8541 38.3965C41.8541 37.8863 41.7532 37.3811 41.5572 36.91C41.3612 36.4389 41.074 36.0112 40.7121 35.6515L39.2321 34.1515L51.9121 21.4715C52.6183 21.9975 53.4784 22.2758 54.3589 22.2632C55.2395 22.2505 56.0912 21.9476 56.7821 21.4015L63.0021 16.5515L63.2421 16.3415C63.4813 16.106 63.6714 15.8254 63.8015 15.5159C63.9316 15.2065 63.9991 14.8743 64 14.5386C64.0009 14.2029 63.9353 13.8703 63.8069 13.5602C63.6786 13.25 63.49 12.9683 63.2521 12.7315ZM39.8521 38.3415C39.8522 38.5908 39.8028 38.8377 39.7067 39.0678C39.6105 39.2978 39.4696 39.5064 39.2921 39.6815L26.4421 52.5515C25.999 52.9951 25.4729 53.347 24.8938 53.587C24.3147 53.8271 23.694 53.9507 23.0671 53.9507C22.4402 53.9507 21.8194 53.8271 21.2403 53.587C20.6612 53.347 20.1351 52.9951 19.6921 52.5515L19.4121 52.2615C18.5193 51.3672 18.0179 50.1552 18.0179 48.8915C18.0179 47.6278 18.5193 46.4158 19.4121 45.5215L32.2821 32.6515C32.6377 32.3004 33.1173 32.1035 33.6171 32.1035C34.1168 32.1035 34.5965 32.3004 34.9521 32.6515L37.1321 34.8315L39.3121 37.0115C39.4852 37.1867 39.6221 37.3944 39.7148 37.6226C39.8074 37.8509 39.8541 38.0952 39.8521 38.3415ZM61.772 14.9415L55.5521 19.7915C55.1549 20.0973 54.6604 20.2485 54.1601 20.2173C53.6599 20.186 53.188 19.9743 52.8321 19.6215L52.3221 19.1115C51.9673 18.7566 51.7543 18.2845 51.723 17.7836C51.6917 17.2828 51.8443 16.7878 52.1521 16.3915L57.0021 10.1615C57.0502 10.0986 57.1123 10.0478 57.1835 10.0131C57.2546 9.97839 57.3329 9.96072 57.4121 9.9615C57.5526 9.96465 57.6873 10.0178 57.7921 10.1115L61.7921 14.1115C61.8517 14.1636 61.8992 14.2283 61.9311 14.3008C61.963 14.3733 61.9785 14.452 61.9766 14.5312C61.9747 14.6104 61.9554 14.6882 61.9201 14.7591C61.8847 14.83 61.8342 14.8923 61.772 14.9415ZM32.8321 36.0215C32.6447 35.8353 32.3912 35.7307 32.1271 35.7307C31.8629 35.7307 31.6094 35.8353 31.4221 36.0215L21.5221 45.9215C21.4283 46.0145 21.3539 46.1251 21.3032 46.2469C21.2524 46.3688 21.2263 46.4995 21.2263 46.6315C21.2263 46.7635 21.2524 46.8942 21.3032 47.0161C21.3539 47.1379 21.4283 47.2486 21.5221 47.3415C21.6155 47.4342 21.7263 47.5075 21.8482 47.5573C21.97 47.607 22.1004 47.6323 22.2321 47.6315C22.4944 47.6304 22.7458 47.5263 22.9321 47.3415L32.8321 37.4415C32.9258 37.3486 33.0002 37.2379 33.0509 37.1161C33.1017 36.9942 33.1279 36.8635 33.1279 36.7315C33.1279 36.5995 33.1017 36.4688 33.0509 36.347C33.0002 36.2251 32.9258 36.1145 32.8321 36.0215ZM24.3521 48.7518L34.2521 38.8518C34.3417 38.7471 34.4521 38.6621 34.5761 38.602C34.7002 38.542 34.8353 38.5083 34.973 38.5029C35.1107 38.4976 35.2481 38.5208 35.3764 38.5711C35.5047 38.6214 35.6213 38.6976 35.7187 38.7951C35.8162 38.8925 35.8925 39.0091 35.9427 39.1374C35.993 39.2658 36.0162 39.4031 36.0109 39.5408C36.0056 39.6785 35.9718 39.8137 35.9118 39.9377C35.8518 40.0618 35.7668 40.1721 35.6621 40.2617L25.7621 50.1618C25.5775 50.3502 25.3258 50.458 25.0621 50.4617C24.8635 50.4629 24.669 50.4049 24.5035 50.2951C24.338 50.1853 24.2089 50.0287 24.1327 49.8452C24.0565 49.6618 24.0367 49.4598 24.0758 49.2651C24.1149 49.0703 24.2111 48.8916 24.3521 48.7518Z" fill="black"/>
</g>
<defs>
<clipPath id="clip0_488_1109">
<rect width="64" height="64" fill="white"/>
</clipPath>
</defs>
</svg>
