<svg width="24" height="24" viewBox="0 0 24 24" fill="none" xmlns="http://www.w3.org/2000/svg">
<path fill-rule="evenodd" clip-rule="evenodd" d="M7.45312 5.32031C7.45312 5.12615 7.61052 4.96875 7.80469 4.96875H22.5703C22.7645 4.96875 22.9219 5.12615 22.9219 5.32031V14.1094H7.45312V5.32031ZM6.75 14.4609V5.32031C6.75 4.73782 7.2222 4.26562 7.80469 4.26562H22.5703C23.1528 4.26562 23.625 4.73782 23.625 5.32031V14.4609V15.8672C23.625 16.4497 23.1528 16.9219 22.5703 16.9219H16.626C16.7247 17.684 17.0149 18.4099 17.4708 19.0312H18.3509C18.545 19.0312 18.7024 19.1887 18.7024 19.3828C18.7024 19.577 18.545 19.7344 18.3509 19.7344H17.301H17.2932H13.0818H13.074H12.0227C11.8286 19.7344 11.6712 19.577 11.6712 19.3828C11.6712 19.1887 11.8286 19.0312 12.0227 19.0312H12.9042C13.3601 18.4099 13.6503 17.684 13.749 16.9219H7.80469C7.2222 16.9219 6.75 16.4497 6.75 15.8672V14.4609ZM14.1321 16.2188H7.80469C7.61052 16.2188 7.45312 16.0613 7.45312 15.8672V14.8125H22.9219V15.8672C22.9219 16.0613 22.7645 16.2188 22.5703 16.2188H16.2429C16.2426 16.2188 16.2423 16.2188 16.242 16.2188H14.133C14.1327 16.2188 14.1324 16.2188 14.1321 16.2188ZM14.4573 16.9219C14.3735 17.6689 14.1308 18.3881 13.7469 19.0312H16.6281C16.2442 18.3881 16.0014 17.6689 15.9177 16.9219H14.4573Z" fill="black"/>
</svg>
