<svg width="64" height="64" viewBox="0 0 64 64" fill="none" xmlns="http://www.w3.org/2000/svg">
<path fill-rule="evenodd" clip-rule="evenodd" d="M26.59 44.9133C26.7206 44.9691 26.8596 44.9985 27 45C27.2465 45.0023 27.4851 44.9058 27.67 44.7292L36.39 36.3333H45C47.3869 36.3333 49.6761 35.3061 51.364 33.4776C53.0518 31.6491 54 29.1692 54 26.5833V15.75C54 13.1641 53.0518 10.6842 51.364 8.85572C49.6761 7.02724 47.3869 6 45 6H25C22.6131 6 20.3239 7.02724 18.636 8.85572C16.9482 10.6842 16 13.1641 16 15.75V26.5833C16 29.1692 16.9482 31.6491 18.636 33.4776C20.3239 35.3061 22.6131 36.3333 25 36.3333H26V43.9167C25.9985 44.1269 26.0534 44.3331 26.1582 44.51C26.263 44.687 26.413 44.8272 26.59 44.9133ZM20.0503 10.3878C21.363 8.96563 23.1435 8.16667 25 8.16667H45C46.8565 8.16667 48.637 8.96563 49.9497 10.3878C51.2625 11.8099 52 13.7388 52 15.75V26.5833C52 28.5946 51.2625 30.5234 49.9497 31.9455C48.637 33.3677 46.8565 34.1667 45 34.1667H36C35.7522 34.1674 35.5134 34.2678 35.33 34.4483L28 41.5117V35.25C28 34.9627 27.8946 34.6871 27.7071 34.484C27.5196 34.2808 27.2652 34.1667 27 34.1667H25C23.1435 34.1667 21.363 33.3677 20.0503 31.9455C18.7375 30.5234 18 28.5946 18 26.5833V15.75C18 13.7388 18.7375 11.8099 20.0503 10.3878ZM54.6161 57.9196C54.7379 57.9735 54.8684 58.0008 55 58C55.1299 58.0002 55.2587 57.9744 55.38 57.9242C55.5642 57.8422 55.7216 57.7025 55.8321 57.523C55.9425 57.3435 56.001 57.1324 56 56.9167V51.5H58C59.5913 51.5 61.1174 50.8152 62.2426 49.5962C63.3679 48.3772 64 46.7239 64 45V38.5C64 36.7761 63.3679 35.1228 62.2426 33.9038C61.1174 32.6848 59.5913 32 58 32H57C56.7348 32 56.4804 32.1141 56.2929 32.3173C56.1054 32.5204 56 32.796 56 33.0833C56 33.3707 56.1054 33.6462 56.2929 33.8493C56.4804 34.0525 56.7348 34.1667 57 34.1667H58C59.0609 34.1667 60.0783 34.6232 60.8284 35.4359C61.5786 36.2485 62 37.3507 62 38.5V45C62 46.1493 61.5786 47.2515 60.8284 48.0641C60.0783 48.8768 59.0609 49.3333 58 49.3333H55C54.7348 49.3333 54.4804 49.4475 54.2929 49.6506C54.1054 49.8538 54 50.1293 54 50.4167V54.3058L49.7 49.6583C49.5154 49.4542 49.2638 49.3374 49 49.3333H44C42.9391 49.3333 41.9217 48.8768 41.1716 48.0641C40.4214 47.2515 40 46.1493 40 45V41.75C40 41.4627 39.8946 41.1871 39.7071 40.984C39.5196 40.7808 39.2652 40.6667 39 40.6667C38.7348 40.6667 38.4804 40.7808 38.2929 40.984C38.1054 41.1871 38 41.4627 38 41.75V45C38 46.7239 38.6321 48.3772 39.7574 49.5962C40.8826 50.8152 42.4087 51.5 44 51.5H48.58L54.29 57.6858C54.3834 57.7862 54.4943 57.8657 54.6161 57.9196Z" fill="black"/>
</svg>
