<svg width="24" height="24" viewBox="0 0 24 24" fill="none" xmlns="http://www.w3.org/2000/svg">
<g clip-path="url(#clip0_937_1125)">
<path fill-rule="evenodd" clip-rule="evenodd" d="M6.95732 4.51367C7.13325 4.51367 7.27587 4.65629 7.27587 4.83223V6.19496C7.62534 5.88236 8.07874 5.70825 8.55009 5.70825H20.4959C20.9673 5.70825 21.4207 5.88236 21.7701 6.19496V4.83223C21.7701 4.65629 21.9127 4.51367 22.0887 4.51367C22.2646 4.51367 22.4072 4.65629 22.4072 4.83223V11.3294C22.5831 11.3819 22.745 11.4774 22.8771 11.6095C23.0862 11.8186 23.2036 12.1022 23.2036 12.3979V15.2649H23.6815C23.8574 15.2649 24 15.4075 24 15.5835V16.778C24 17.0737 23.8825 17.3573 23.6735 17.5664C23.5413 17.6985 23.3795 17.7941 23.2036 17.8465V19.1672C23.2036 19.3431 23.061 19.4858 22.8851 19.4858C22.7091 19.4858 22.5665 19.3431 22.5665 19.1672V17.893H6.47949V19.1672C6.47949 19.3431 6.33687 19.4858 6.16093 19.4858C5.985 19.4858 5.84238 19.3431 5.84238 19.1672V17.8465C5.66652 17.7941 5.50466 17.6985 5.37255 17.5664C5.16346 17.3573 5.04599 17.0737 5.04599 16.778V15.5835C5.04599 15.4075 5.18861 15.2649 5.36454 15.2649H5.84238V12.3979C5.84238 12.1022 5.95984 11.8186 6.16894 11.6095C6.30105 11.4774 6.46291 11.3819 6.63876 11.3294V4.83223C6.63876 4.65629 6.78139 4.51367 6.95732 4.51367ZM7.27587 11.283H8.33912C8.26895 11.135 8.23154 10.972 8.23154 10.8051V10.1441C8.23154 9.73882 8.4565 9.43522 8.73667 9.22238C9.01251 9.01283 9.36975 8.86722 9.72076 8.76431C10.4249 8.55788 11.2027 8.49561 11.5365 8.49561C11.7476 8.49561 12.5233 8.56098 13.2534 8.76633C13.6179 8.86886 13.9963 9.01301 14.2902 9.21818C14.368 9.2725 14.4433 9.33367 14.5119 9.40199C14.5738 9.3358 14.6421 9.27574 14.7139 9.22163C14.9915 9.01246 15.3507 8.86702 15.703 8.76421C16.4096 8.55797 17.1872 8.49561 17.5095 8.49561C17.7205 8.49561 18.4962 8.56098 19.2263 8.76633C19.5908 8.86886 19.9692 9.01301 20.2631 9.21818C20.5571 9.4234 20.8145 9.72624 20.8145 10.1441V10.8051C20.8145 10.972 20.7771 11.135 20.7069 11.283H21.7701V7.61958C21.7701 7.28164 21.6359 6.95754 21.3969 6.71857C21.158 6.47961 20.8338 6.34536 20.4959 6.34536H8.55009C8.21215 6.34536 7.88805 6.47961 7.64908 6.71857C7.41012 6.95754 7.27587 7.28164 7.27587 7.61958V11.283ZM19.6995 11.283C19.8262 11.283 19.9478 11.2326 20.0374 11.143C20.127 11.0534 20.1773 10.9319 20.1773 10.8051V10.1441C20.1773 10.0205 20.1072 9.8863 19.8985 9.74061C19.6897 9.59488 19.3901 9.47423 19.0538 9.37965C18.3823 9.19079 17.6648 9.13272 17.5095 9.13272C17.2344 9.13272 16.5187 9.18982 15.8815 9.3758C15.5618 9.4691 15.2864 9.58795 15.0974 9.73044C14.9123 9.86989 14.8416 10.0052 14.8416 10.1441V10.8051C14.8416 10.9319 14.8919 11.0534 14.9815 11.143C15.0711 11.2326 15.1927 11.283 15.3194 11.283H19.6995ZM6.95732 11.9201C6.83059 11.9201 6.70905 11.9704 6.61944 12.06C6.52983 12.1496 6.47949 12.2712 6.47949 12.3979V15.2649H22.5665V12.3979C22.5665 12.2712 22.5162 12.1496 22.4266 12.06C22.3369 11.9704 22.2154 11.9201 22.0887 11.9201H6.95732ZM13.7266 11.283C13.8533 11.283 13.9749 11.2326 14.0645 11.143C14.1541 11.0534 14.2044 10.9319 14.2044 10.8051V10.1441C14.2044 10.0205 14.1343 9.8863 13.9256 9.74061C13.7168 9.59488 13.4172 9.47423 13.0809 9.37965C12.4094 9.19079 11.6919 9.13272 11.5365 9.13272C11.2492 9.13272 10.5338 9.1899 9.89999 9.37569C9.58204 9.4689 9.30914 9.58759 9.12207 9.7297C8.93934 9.86851 8.86865 10.0039 8.86865 10.1441V10.8051C8.86865 10.9319 8.91899 11.0534 9.0086 11.143C9.09821 11.2326 9.21975 11.283 9.34648 11.283H13.7266ZM5.6831 15.902V16.778C5.6831 16.9048 5.73344 17.0263 5.82305 17.1159C5.91266 17.2055 6.0342 17.2559 6.16093 17.2559H22.8851C23.0118 17.2559 23.1333 17.2055 23.2229 17.1159C23.3126 17.0263 23.3629 16.9048 23.3629 16.778V15.902H5.6831Z" fill="#000001"/>
</g>
<defs>
<clipPath id="clip0_937_1125">
<rect width="24" height="24" fill="white"/>
</clipPath>
</defs>
</svg>
