<svg width="24" height="24" viewBox="0 0 24 24" fill="none" xmlns="http://www.w3.org/2000/svg">
<path fill-rule="evenodd" clip-rule="evenodd" d="M5.88873 2.85383C7.69767 1.64514 9.82441 1 12 1C14.9174 1 17.7153 2.15893 19.7782 4.22182C21.8411 6.28472 23 9.08262 23 12C23 14.1756 22.3549 16.3023 21.1462 18.1113C19.9375 19.9202 18.2195 21.3301 16.2095 22.1627C14.1995 22.9952 11.9878 23.2131 9.85401 22.7886C7.72022 22.3642 5.76021 21.3165 4.22183 19.7782C2.68345 18.2398 1.6358 16.2798 1.21137 14.146C0.786929 12.0122 1.00477 9.80047 1.83733 7.79048C2.66989 5.78049 4.07979 4.06253 5.88873 2.85383ZM6.39719 20.3852C8.05563 21.4933 10.0054 22.0848 12 22.0848C14.6739 22.0825 17.2377 21.0192 19.1285 19.1285C21.0192 17.2377 22.0825 14.6739 22.0848 12C22.0848 10.0054 21.4933 8.05562 20.3852 6.39718C19.2771 4.73875 17.702 3.44615 15.8593 2.68286C14.0165 1.91956 11.9888 1.71985 10.0326 2.10898C8.0763 2.4981 6.27936 3.45858 4.86897 4.86897C3.45859 6.27935 2.49811 8.07629 2.10898 10.0326C1.71986 11.9888 1.91957 14.0165 2.68286 15.8593C3.44616 17.702 4.73875 19.2771 6.39719 20.3852ZM11.2828 15.08L17.1304 7.16004C17.2039 7.0591 17.3145 6.99149 17.4379 6.9721C17.5612 6.95271 17.6873 6.98312 17.7882 7.05664C17.8891 7.13016 17.9567 7.24076 17.9761 7.36412C17.9955 7.48748 17.9651 7.6135 17.8916 7.71444L12.044 15.6344C11.9329 15.7845 11.7926 15.9106 11.6316 16.0051C11.4705 16.0996 11.292 16.1606 11.1068 16.1844H10.9352C10.6163 16.1882 10.3057 16.0826 10.0552 15.8852L6.214 12.8052C6.16453 12.7691 6.12314 12.7231 6.09247 12.6701C6.0618 12.6171 6.04254 12.5583 6.03591 12.4974C6.02929 12.4365 6.03544 12.3749 6.05399 12.3165C6.07253 12.2582 6.10305 12.2043 6.1436 12.1584C6.1797 12.1096 6.2255 12.0688 6.27813 12.0386C6.33076 12.0084 6.38907 11.9893 6.44941 11.9827C6.50974 11.9761 6.57079 11.9821 6.62872 12.0002C6.68665 12.0183 6.7402 12.0482 6.786 12.088L10.6272 15.168C10.7249 15.2432 10.8478 15.2779 10.9704 15.2648C11.0321 15.2562 11.0915 15.2355 11.1451 15.2038C11.1988 15.172 11.2456 15.13 11.2828 15.08Z" fill="black"/>
</svg>
