<svg width="64" height="64" viewBox="0 0 64 64" fill="none" xmlns="http://www.w3.org/2000/svg">
<path d="M63 24.0601H56V22.0601H63C63.2652 22.0601 63.5196 21.9547 63.7071 21.7672C63.8946 21.5796 64 21.3253 64 21.0601C64 20.7948 63.8946 20.5405 63.7071 20.353C63.5196 20.1654 63.2652 20.0601 63 20.0601H56V19.0601C56 18.2644 55.6839 17.5014 55.1213 16.9388C54.5587 16.3761 53.7956 16.0601 53 16.0601H49C48.7348 16.0601 48.4804 15.9547 48.2929 15.7672C48.1053 15.5796 48 15.3253 48 15.0601V11.0601C48 10.2644 47.6839 9.50136 47.1213 8.93875C46.5587 8.37614 45.7956 8.06006 45 8.06006H44V1.06006C44 0.794842 43.8946 0.540503 43.7071 0.352966C43.5196 0.16543 43.2652 0.0600586 43 0.0600586C42.7348 0.0600586 42.4804 0.16543 42.2929 0.352966C42.1053 0.540503 42 0.794842 42 1.06006V8.06006H40V1.06006C40 0.794842 39.8946 0.540503 39.7071 0.352966C39.5196 0.16543 39.2652 0.0600586 39 0.0600586C38.7348 0.0600586 38.4804 0.16543 38.2929 0.352966C38.1053 0.540503 38 0.794842 38 1.06006V8.06006H37C36.2044 8.06006 35.4413 8.37614 34.8787 8.93875C34.3161 9.50136 34 10.2644 34 11.0601V15.0601C34 15.3253 33.8946 15.5796 33.7071 15.7672C33.5196 15.9547 33.2652 16.0601 33 16.0601H29C28.2044 16.0601 27.4413 16.3761 26.8787 16.9388C26.3161 17.5014 26 18.2644 26 19.0601V20.0601H19C18.7348 20.0601 18.4804 20.1654 18.2929 20.353C18.1053 20.5405 18 20.7948 18 21.0601C18 21.3253 18.1053 21.5796 18.2929 21.7672C18.4804 21.9547 18.7348 22.0601 19 22.0601H26V24.0601H19C18.7348 24.0601 18.4804 24.1654 18.2929 24.353C18.1053 24.5405 18 24.7948 18 25.0601C18 25.3253 18.1053 25.5796 18.2929 25.7672C18.4804 25.9547 18.7348 26.0601 19 26.0601H26V27.0601C26 27.8557 26.3161 28.6188 26.8787 29.1814C27.4413 29.744 28.2044 30.0601 29 30.0601H53C53.7956 30.0601 54.5587 29.744 55.1213 29.1814C55.6839 28.6188 56 27.8557 56 27.0601V26.0601H63C63.2652 26.0601 63.5196 25.9547 63.7071 25.7672C63.8946 25.5796 64 25.3253 64 25.0601C64 24.7948 63.8946 24.5405 63.7071 24.353C63.5196 24.1654 63.2652 24.0601 63 24.0601ZM54 27.0601C54 27.3253 53.8946 27.5796 53.7071 27.7672C53.5196 27.9547 53.2652 28.0601 53 28.0601H29C28.7348 28.0601 28.4804 27.9547 28.2929 27.7672C28.1053 27.5796 28 27.3253 28 27.0601V19.0601C28 18.7948 28.1053 18.5405 28.2929 18.353C28.4804 18.1654 28.7348 18.0601 29 18.0601H33C33.7956 18.0601 34.5587 17.744 35.1213 17.1814C35.6839 16.6188 36 15.8557 36 15.0601V11.0601C36 10.7948 36.1053 10.5405 36.2929 10.353C36.4804 10.1654 36.7348 10.0601 37 10.0601H45C45.2652 10.0601 45.5196 10.1654 45.7071 10.353C45.8946 10.5405 46 10.7948 46 11.0601V15.0601C46 15.8557 46.3161 16.6188 46.8787 17.1814C47.4413 17.744 48.2044 18.0601 49 18.0601H53C53.2652 18.0601 53.5196 18.1654 53.7071 18.353C53.8946 18.5405 54 18.7948 54 19.0601V27.0601Z" fill="black"/>
</svg>
