<svg width="24" height="24" viewBox="0 0 24 24" fill="none" xmlns="http://www.w3.org/2000/svg">
<path fill-rule="evenodd" clip-rule="evenodd" d="M10.125 5.24609H19.875C20.1734 5.24609 20.4595 5.36463 20.6705 5.5756C20.8815 5.78658 21 6.07273 21 6.37109V16.1211C21 16.2206 20.9605 16.3159 20.8902 16.3863C20.8198 16.4566 20.7245 16.4961 20.625 16.4961H19.5C19.5018 17.0598 19.292 17.6036 18.9121 18.02C18.5321 18.4363 18.0098 18.6949 17.4483 18.7446C16.8868 18.7943 16.3271 18.6314 15.88 18.2882C15.4329 17.945 15.1309 17.4464 15.0337 16.8912C14.9365 16.336 15.0513 15.7645 15.3553 15.2899C15.6593 14.8152 16.1304 14.4719 16.6754 14.328C17.2203 14.184 17.7995 14.2499 18.2983 14.5125C18.797 14.7751 19.179 15.2153 19.3688 15.7461H20.25V6.37109C20.25 6.27164 20.2105 6.17626 20.1402 6.10593C20.0698 6.03561 19.9745 5.99609 19.875 5.99609H10.125C10.0255 5.99609 9.93016 6.03561 9.85983 6.10593C9.78951 6.17626 9.75 6.27164 9.75 6.37109V13.1211C9.75 13.2206 9.71049 13.3159 9.64017 13.3863C9.56984 13.4566 9.47446 13.4961 9.375 13.4961C9.27554 13.4961 9.18016 13.4566 9.10983 13.3863C9.03951 13.3159 9 13.2206 9 13.1211V8.99609H7.5V11.2461C7.5 11.5445 7.38147 11.8306 7.1705 12.0416C6.95952 12.2526 6.67337 12.3711 6.375 12.3711H3.75V14.9961H6C6.09946 14.9961 6.19484 15.0356 6.26517 15.1059C6.33549 15.1763 6.375 15.2716 6.375 15.3711C6.375 15.4706 6.33549 15.5659 6.26517 15.6363C6.19484 15.7066 6.09946 15.7461 6 15.7461H3.75V16.1211C3.75 16.2206 3.78951 16.3159 3.85983 16.3863C3.93016 16.4566 4.02554 16.4961 4.125 16.4961H5.625C5.72446 16.4961 5.81984 16.5356 5.89017 16.6059C5.96049 16.6763 6 16.7716 6 16.8711C6 16.9706 5.96049 17.0659 5.89017 17.1363C5.81984 17.2066 5.72446 17.2461 5.625 17.2461H4.125C3.82663 17.2461 3.54048 17.1276 3.3295 16.9166C3.11853 16.7056 3 16.4195 3 16.1211V11.6211C3 10.726 3.35558 9.86755 3.98851 9.23461C4.62145 8.60168 5.47989 8.24609 6.375 8.24609H9V6.37109C9 6.07273 9.11853 5.78658 9.3295 5.5756C9.54048 5.36463 9.82663 5.24609 10.125 5.24609ZM6.64017 11.5113C6.71049 11.4409 6.75 11.3456 6.75 11.2461V8.99609H6.375C5.67881 8.99609 5.01113 9.27266 4.51884 9.76494C4.02656 10.2572 3.75 10.9249 3.75 11.6211H6.375C6.47446 11.6211 6.56984 11.5816 6.64017 11.5113ZM16.4166 17.7433C16.6633 17.9081 16.9533 17.9961 17.25 17.9961C17.6478 17.9961 18.0294 17.8381 18.3107 17.5568C18.592 17.2755 18.75 16.8939 18.75 16.4961C18.75 16.1994 18.662 15.9094 18.4972 15.6627C18.3324 15.4161 18.0981 15.2238 17.824 15.1103C17.5499 14.9968 17.2483 14.967 16.9574 15.0249C16.6664 15.0828 16.3991 15.2257 16.1893 15.4354C15.9796 15.6452 15.8367 15.9125 15.7788 16.2035C15.7209 16.4944 15.7506 16.796 15.8642 17.0701C15.9777 17.3442 16.17 17.5785 16.4166 17.7433ZM11.1187 15.7462H13.875C13.9745 15.7462 14.0698 15.7857 14.1402 15.856C14.2105 15.9263 14.25 16.0217 14.25 16.1212C14.25 16.2206 14.2105 16.316 14.1402 16.3863C14.0698 16.4567 13.9745 16.4962 13.875 16.4962H11.25C11.2518 17.0598 11.042 17.6036 10.6621 18.02C10.2821 18.4364 9.75976 18.695 9.19828 18.7447C8.63681 18.7943 8.07715 18.6315 7.63001 18.2883C7.18288 17.945 6.88085 17.4465 6.78369 16.8913C6.68652 16.336 6.8013 15.7646 7.1053 15.2899C7.40931 14.8153 7.8804 14.472 8.42537 14.328C8.97035 14.1841 9.5495 14.2499 10.0483 14.5125C10.547 14.7751 10.929 15.2154 11.1187 15.7462ZM8.16664 17.7434C8.41331 17.9082 8.70332 17.9962 9 17.9962C9.39782 17.9962 9.77935 17.8381 10.0607 17.5568C10.342 17.2755 10.5 16.894 10.5 16.4962C10.5 16.1995 10.412 15.9095 10.2472 15.6628C10.0824 15.4161 9.84811 15.2239 9.57402 15.1103C9.29993 14.9968 8.99833 14.9671 8.70736 15.025C8.41639 15.0829 8.14911 15.2257 7.93934 15.4355C7.72956 15.6453 7.5867 15.9126 7.52882 16.2035C7.47094 16.4945 7.50064 16.7961 7.61417 17.0702C7.72771 17.3443 7.91996 17.5785 8.16664 17.7434Z" fill="black"/>
</svg>
