<svg width="24" height="24" viewBox="0 0 24 24" fill="none" xmlns="http://www.w3.org/2000/svg">
<path d="M16.875 15.375H14.25V14.625H16.875C16.9745 14.625 17.0698 14.5855 17.1402 14.5152C17.2105 14.4448 17.25 14.3495 17.25 14.25C17.25 14.1505 17.2105 14.0552 17.1402 13.9848C17.0698 13.9145 16.9745 13.875 16.875 13.875H14.25V13.5C14.25 13.2016 14.1315 12.9155 13.9205 12.7045C13.7095 12.4935 13.4234 12.375 13.125 12.375H11.625C11.5255 12.375 11.4302 12.3355 11.3598 12.2652C11.2895 12.1948 11.25 12.0995 11.25 12V10.5C11.25 10.2016 11.1315 9.91549 10.9205 9.70451C10.7095 9.49353 10.4234 9.375 10.125 9.375H9.75V6.75C9.75 6.65054 9.71049 6.55517 9.64016 6.48484C9.56983 6.41451 9.47446 6.375 9.375 6.375C9.27554 6.375 9.18016 6.41451 9.10983 6.48484C9.0395 6.55517 9 6.65054 9 6.75V9.375H8.25V6.75C8.25 6.65054 8.21049 6.55517 8.14016 6.48484C8.06983 6.41451 7.97446 6.375 7.875 6.375C7.77554 6.375 7.68016 6.41451 7.60983 6.48484C7.5395 6.55517 7.5 6.65054 7.5 6.75V9.375H7.125C6.82663 9.375 6.54048 9.49353 6.3295 9.70451C6.11852 9.91549 6 10.2016 6 10.5V12C6 12.0995 5.96049 12.1948 5.89016 12.2652C5.81983 12.3355 5.72446 12.375 5.625 12.375H4.125C3.82663 12.375 3.54048 12.4935 3.3295 12.7045C3.11852 12.9155 3 13.2016 3 13.5V13.875H0.375C0.275544 13.875 0.180155 13.9145 0.109829 13.9848C0.0395028 14.0552 0 14.1505 0 14.25C0 14.3495 0.0395028 14.4448 0.109829 14.5152C0.180155 14.5855 0.275544 14.625 0.375 14.625H3V15.375H0.375C0.275544 15.375 0.180155 15.4145 0.109829 15.4848C0.0395028 15.5552 0 15.6505 0 15.75C0 15.8495 0.0395028 15.9448 0.109829 16.0152C0.180155 16.0855 0.275544 16.125 0.375 16.125H3V16.5C3 16.7984 3.11852 17.0845 3.3295 17.2955C3.54048 17.5065 3.82663 17.625 4.125 17.625H13.125C13.4234 17.625 13.7095 17.5065 13.9205 17.2955C14.1315 17.0845 14.25 16.7984 14.25 16.5V16.125H16.875C16.9745 16.125 17.0698 16.0855 17.1402 16.0152C17.2105 15.9448 17.25 15.8495 17.25 15.75C17.25 15.6505 17.2105 15.5552 17.1402 15.4848C17.0698 15.4145 16.9745 15.375 16.875 15.375ZM13.5 16.5C13.5 16.5995 13.4605 16.6948 13.3902 16.7652C13.3198 16.8355 13.2245 16.875 13.125 16.875H4.125C4.02554 16.875 3.93016 16.8355 3.85983 16.7652C3.7895 16.6948 3.75 16.5995 3.75 16.5V13.5C3.75 13.4005 3.7895 13.3052 3.85983 13.2348C3.93016 13.1645 4.02554 13.125 4.125 13.125H5.625C5.92337 13.125 6.20951 13.0065 6.42049 12.7955C6.63147 12.5845 6.75 12.2984 6.75 12V10.5C6.75 10.4005 6.7895 10.3052 6.85983 10.2348C6.93016 10.1645 7.02554 10.125 7.125 10.125H10.125C10.2245 10.125 10.3198 10.1645 10.3902 10.2348C10.4605 10.3052 10.5 10.4005 10.5 10.5V12C10.5 12.2984 10.6185 12.5845 10.8295 12.7955C11.0405 13.0065 11.3266 13.125 11.625 13.125H13.125C13.2245 13.125 13.3198 13.1645 13.3902 13.2348C13.4605 13.3052 13.5 13.4005 13.5 13.5V16.5Z" fill="black"/>
</svg>
