<svg width="64" height="64" viewBox="0 0 64 64" fill="none" xmlns="http://www.w3.org/2000/svg">
<path fill-rule="evenodd" clip-rule="evenodd" d="M18.59 44.9133C18.7206 44.9691 18.8596 44.9985 19 45C19.2465 45.0023 19.4851 44.9058 19.67 44.7292L28.39 36.3333H37C39.3869 36.3333 41.6761 35.3061 43.364 33.4776C45.0518 31.6491 46 29.1692 46 26.5833V15.75C46 13.1641 45.0518 10.6842 43.364 8.85572C41.6761 7.02724 39.3869 6 37 6H17C14.6131 6 12.3239 7.02724 10.636 8.85572C8.94821 10.6842 8 13.1641 8 15.75V26.5833C8 29.1692 8.94821 31.6491 10.636 33.4776C12.3239 35.3061 14.6131 36.3333 17 36.3333H18V43.9167C17.9985 44.1269 18.0534 44.3331 18.1582 44.51C18.263 44.687 18.413 44.8272 18.59 44.9133ZM12.0503 10.3878C13.363 8.96563 15.1435 8.16667 17 8.16667H37C38.8565 8.16667 40.637 8.96563 41.9497 10.3878C43.2625 11.8099 44 13.7388 44 15.75V26.5833C44 28.5946 43.2625 30.5234 41.9497 31.9455C40.637 33.3677 38.8565 34.1667 37 34.1667H28C27.7522 34.1674 27.5134 34.2678 27.33 34.4483L20 41.5117V35.25C20 34.9627 19.8946 34.6871 19.7071 34.484C19.5196 34.2808 19.2652 34.1667 19 34.1667H17C15.1435 34.1667 13.363 33.3677 12.0503 31.9455C10.7375 30.5234 10 28.5946 10 26.5833V15.75C10 13.7388 10.7375 11.8099 12.0503 10.3878ZM46.6161 57.9196C46.7379 57.9735 46.8684 58.0008 47 58C47.1299 58.0002 47.2587 57.9744 47.38 57.9242C47.5642 57.8422 47.7216 57.7025 47.8321 57.523C47.9425 57.3435 48.001 57.1324 48 56.9167V51.5H50C51.5913 51.5 53.1174 50.8152 54.2426 49.5962C55.3679 48.3772 56 46.7239 56 45V38.5C56 36.7761 55.3679 35.1228 54.2426 33.9038C53.1174 32.6848 51.5913 32 50 32H49C48.7348 32 48.4804 32.1141 48.2929 32.3173C48.1054 32.5204 48 32.796 48 33.0833C48 33.3707 48.1054 33.6462 48.2929 33.8493C48.4804 34.0525 48.7348 34.1667 49 34.1667H50C51.0609 34.1667 52.0783 34.6232 52.8284 35.4359C53.5786 36.2485 54 37.3507 54 38.5V45C54 46.1493 53.5786 47.2515 52.8284 48.0641C52.0783 48.8768 51.0609 49.3333 50 49.3333H47C46.7348 49.3333 46.4804 49.4475 46.2929 49.6506C46.1054 49.8538 46 50.1293 46 50.4167V54.3058L41.7 49.6583C41.5154 49.4542 41.2638 49.3374 41 49.3333H36C34.9391 49.3333 33.9217 48.8768 33.1716 48.0641C32.4214 47.2515 32 46.1493 32 45V41.75C32 41.4627 31.8946 41.1871 31.7071 40.984C31.5196 40.7808 31.2652 40.6667 31 40.6667C30.7348 40.6667 30.4804 40.7808 30.2929 40.984C30.1054 41.1871 30 41.4627 30 41.75V45C30 46.7239 30.6321 48.3772 31.7574 49.5962C32.8826 50.8152 34.4087 51.5 36 51.5H40.58L46.29 57.6858C46.3834 57.7862 46.4943 57.8657 46.6161 57.9196Z" fill="black"/>
</svg>
