<svg width="64" height="64" viewBox="0 0 64 64" fill="none" xmlns="http://www.w3.org/2000/svg">
<path fill-rule="evenodd" clip-rule="evenodd" d="M10.59 44.9133C10.7206 44.9691 10.8596 44.9985 11 45C11.2465 45.0023 11.4851 44.9058 11.67 44.7292L20.39 36.3333H29C31.3869 36.3333 33.6761 35.3061 35.364 33.4776C37.0518 31.6491 38 29.1692 38 26.5833V15.75C38 13.1641 37.0518 10.6842 35.364 8.85572C33.6761 7.02724 31.3869 6 29 6H9C6.61305 6 4.32387 7.02724 2.63604 8.85572C0.948212 10.6842 0 13.1641 0 15.75V26.5833C0 29.1692 0.948212 31.6491 2.63604 33.4776C4.32387 35.3061 6.61305 36.3333 9 36.3333H10V43.9167C9.99847 44.1269 10.0534 44.3331 10.1582 44.51C10.263 44.687 10.413 44.8272 10.59 44.9133ZM4.05025 10.3878C5.36301 8.96563 7.14348 8.16667 9 8.16667H29C30.8565 8.16667 32.637 8.96563 33.9497 10.3878C35.2625 11.8099 36 13.7388 36 15.75V26.5833C36 28.5946 35.2625 30.5234 33.9497 31.9455C32.637 33.3677 30.8565 34.1667 29 34.1667H20C19.7522 34.1674 19.5134 34.2678 19.33 34.4483L12 41.5117V35.25C12 34.9627 11.8946 34.6871 11.7071 34.484C11.5196 34.2808 11.2652 34.1667 11 34.1667H9C7.14348 34.1667 5.36301 33.3677 4.05025 31.9455C2.7375 30.5234 2 28.5946 2 26.5833V15.75C2 13.7388 2.7375 11.8099 4.05025 10.3878ZM38.6161 57.9196C38.7379 57.9735 38.8684 58.0008 39 58C39.1299 58.0002 39.2587 57.9744 39.38 57.9242C39.5642 57.8422 39.7216 57.7025 39.8321 57.523C39.9425 57.3435 40.001 57.1324 40 56.9167V51.5H42C43.5913 51.5 45.1174 50.8152 46.2426 49.5962C47.3679 48.3772 48 46.7239 48 45V38.5C48 36.7761 47.3679 35.1228 46.2426 33.9038C45.1174 32.6848 43.5913 32 42 32H41C40.7348 32 40.4804 32.1141 40.2929 32.3173C40.1054 32.5204 40 32.796 40 33.0833C40 33.3707 40.1054 33.6462 40.2929 33.8493C40.4804 34.0525 40.7348 34.1667 41 34.1667H42C43.0609 34.1667 44.0783 34.6232 44.8284 35.4359C45.5786 36.2485 46 37.3507 46 38.5V45C46 46.1493 45.5786 47.2515 44.8284 48.0641C44.0783 48.8768 43.0609 49.3333 42 49.3333H39C38.7348 49.3333 38.4804 49.4475 38.2929 49.6506C38.1054 49.8538 38 50.1293 38 50.4167V54.3058L33.7 49.6583C33.5154 49.4542 33.2638 49.3374 33 49.3333H28C26.9391 49.3333 25.9217 48.8768 25.1716 48.0641C24.4214 47.2515 24 46.1493 24 45V41.75C24 41.4627 23.8946 41.1871 23.7071 40.984C23.5196 40.7808 23.2652 40.6667 23 40.6667C22.7348 40.6667 22.4804 40.7808 22.2929 40.984C22.1054 41.1871 22 41.4627 22 41.75V45C22 46.7239 22.6321 48.3772 23.7574 49.5962C24.8826 50.8152 26.4087 51.5 28 51.5H32.58L38.29 57.6858C38.3834 57.7862 38.4943 57.8657 38.6161 57.9196Z" fill="black"/>
</svg>
