<svg width="24" height="24" viewBox="0 0 24 24" fill="none" xmlns="http://www.w3.org/2000/svg">
<path fill-rule="evenodd" clip-rule="evenodd" d="M17.7194 4.77477L16.2006 3.27477C16.1737 3.24659 16.1449 3.22028 16.1144 3.19602C15.9146 3.04321 15.6626 2.97558 15.4132 3.0079C15.1638 3.04022 14.9373 3.16985 14.7831 3.36852L12.9644 5.68227C12.7625 5.94264 12.6508 6.26159 12.646 6.59101C12.6413 6.92043 12.7438 7.24246 12.9381 7.50852L8.18312 12.2635L7.62811 11.7085C7.35472 11.4362 6.98459 11.2834 6.59874 11.2834C6.21289 11.2834 5.84276 11.4362 5.56936 11.7085L0.743111 16.5573C0.267258 17.034 0 17.68 0 18.3535C0 19.0271 0.267258 19.6731 0.743111 20.1498L0.848116 20.2548C1.08365 20.4913 1.36357 20.679 1.67182 20.807C1.98007 20.9351 2.31057 21.001 2.64436 21.001C2.97815 21.001 3.30866 20.9351 3.61691 20.807C3.92515 20.679 4.20508 20.4913 4.44061 20.2548L9.26686 15.4285C9.40258 15.2936 9.51029 15.1333 9.58379 14.9566C9.65728 14.7799 9.69512 14.5905 9.69512 14.3991C9.69512 14.2078 9.65728 14.0184 9.58379 13.8417C9.51029 13.665 9.40258 13.5046 9.26686 13.3698L8.71186 12.8073L13.4669 8.05227C13.7317 8.24954 14.0542 8.35389 14.3844 8.34914C14.7146 8.3444 15.034 8.23082 15.2931 8.02602L17.6256 6.20727L17.7156 6.12852C17.8053 6.0402 17.8766 5.93497 17.9254 5.81892C17.9742 5.70288 17.9995 5.57831 17.9998 5.45243C18.0002 5.32654 17.9756 5.20183 17.9274 5.08552C17.8793 4.9692 17.8086 4.86358 17.7194 4.77477ZM8.94436 14.3785C8.94443 14.472 8.9259 14.5646 8.88984 14.6509C8.85379 14.7371 8.80094 14.8154 8.73437 14.881L3.91561 19.7073C3.74948 19.8736 3.55219 20.0056 3.33503 20.0956C3.11786 20.1856 2.88508 20.232 2.64999 20.232C2.4149 20.232 2.18212 20.1856 1.96495 20.0956C1.74778 20.0056 1.55049 19.8736 1.38436 19.7073L1.27936 19.5985C0.944573 19.2631 0.756535 18.8086 0.756535 18.3348C0.756535 17.8609 0.944573 17.4064 1.27936 17.071L6.10561 12.2448C6.23896 12.1131 6.41883 12.0393 6.60624 12.0393C6.79365 12.0393 6.97351 12.1131 7.10686 12.2448L7.92436 13.0623L8.74186 13.8798C8.8068 13.9455 8.85813 14.0234 8.89288 14.1089C8.92763 14.1945 8.94513 14.2861 8.94436 14.3785ZM17.1644 5.60352L14.8319 7.42228C14.6829 7.53693 14.4975 7.59366 14.3099 7.58193C14.1223 7.57021 13.9454 7.49083 13.8119 7.35852L13.6206 7.16727C13.4876 7.03418 13.4077 6.85713 13.396 6.66932C13.3842 6.48152 13.4414 6.29588 13.5569 6.14727L15.3756 3.81102C15.3937 3.78745 15.4169 3.76839 15.4436 3.75537C15.4703 3.74235 15.4997 3.73573 15.5294 3.73602C15.582 3.7372 15.6326 3.75715 15.6719 3.79227L17.1719 5.29227C17.1942 5.31182 17.212 5.33606 17.224 5.36325C17.236 5.39045 17.2418 5.41995 17.2411 5.44966C17.2404 5.47936 17.2331 5.50854 17.2199 5.53513C17.2066 5.56173 17.1877 5.58508 17.1644 5.60352ZM6.31186 13.5085C6.2416 13.4387 6.14656 13.3995 6.04749 13.3995C5.94842 13.3995 5.85337 13.4387 5.78311 13.5085L2.07061 17.221C2.03547 17.2559 2.00757 17.2974 1.98853 17.3431C1.96949 17.3888 1.95969 17.4378 1.95969 17.4873C1.95969 17.5368 1.96949 17.5858 1.98853 17.6315C2.00757 17.6772 2.03547 17.7187 2.07061 17.7535C2.10565 17.7883 2.14721 17.8158 2.1929 17.8344C2.23859 17.8531 2.28751 17.8626 2.33686 17.8623C2.43524 17.8619 2.52952 17.8228 2.59937 17.7535L6.31186 14.041C6.34701 14.0062 6.37491 13.9647 6.39395 13.919C6.41298 13.8733 6.42278 13.8243 6.42278 13.7748C6.42278 13.7253 6.41298 13.6763 6.39395 13.6306C6.37491 13.5849 6.34701 13.5434 6.31186 13.5085ZM3.13187 18.2824L6.84437 14.5699C6.87799 14.5306 6.91936 14.4987 6.96588 14.4762C7.01241 14.4537 7.06308 14.4411 7.11473 14.4391C7.16637 14.4371 7.21787 14.4458 7.26599 14.4646C7.31412 14.4835 7.35782 14.5121 7.39437 14.5486C7.43091 14.5852 7.45951 14.6289 7.47836 14.677C7.49722 14.7251 7.50592 14.7766 7.50392 14.8283C7.50193 14.8799 7.48928 14.9306 7.46677 14.9771C7.44426 15.0236 7.41238 15.065 7.37312 15.0986L3.66062 18.8111C3.59139 18.8818 3.49703 18.9222 3.39812 18.9236C3.32364 18.924 3.25071 18.9023 3.18864 18.8611C3.12657 18.8199 3.07817 18.7612 3.04961 18.6924C3.02104 18.6236 3.01362 18.5479 3.02827 18.4749C3.04292 18.4018 3.07899 18.3348 3.13187 18.2824Z" fill="black"/>
</svg>
