<svg width="24" height="24" viewBox="0 0 24 24" fill="none" xmlns="http://www.w3.org/2000/svg">
<path fill-rule="evenodd" clip-rule="evenodd" d="M13.248 2.95996H16.8657C17.2238 2.96389 17.5729 3.07254 17.87 3.27246C18.1665 3.47197 18.3983 3.75369 18.537 4.08303L19.3339 5.91674L20.9603 6.86171C21.1696 6.98606 21.3426 7.16318 21.462 7.37533C21.5811 7.58697 21.6427 7.82608 21.6407 8.0689V9.00977C21.6474 9.36949 21.5117 9.71736 21.2629 9.97745C21.0132 10.2385 20.6701 10.3898 20.309 10.3981L20.301 10.3982H19.792C19.712 10.6874 19.5534 10.9514 19.331 11.1591C19.0277 11.4422 18.6282 11.5997 18.2133 11.5997C17.7983 11.5997 17.3989 11.4422 17.0956 11.1591C16.7923 10.8759 16.6078 10.4882 16.5793 10.0743C16.5661 9.88268 16.7107 9.71667 16.9023 9.70349C17.0939 9.69031 17.2599 9.83494 17.2731 10.0265C17.2895 10.2647 17.3957 10.4878 17.5702 10.6507C17.7447 10.8136 17.9745 10.9042 18.2133 10.9042C18.452 10.9042 18.6819 10.8136 18.8564 10.6507C19.0309 10.4878 19.137 10.2647 19.1534 10.0265C19.166 9.84419 19.3176 9.70267 19.5004 9.70267H20.2966C20.4722 9.69772 20.6388 9.62376 20.7603 9.49675C20.8826 9.36888 20.9491 9.1977 20.9453 9.02081L20.9452 9.01327V8.06413C20.9464 7.94241 20.9156 7.82252 20.8559 7.71644C20.7964 7.6108 20.7104 7.52255 20.6063 7.46041L18.8858 6.46073C18.8216 6.42347 18.7711 6.36668 18.7415 6.29865L17.8965 4.35419C17.8105 4.1491 17.6663 3.97365 17.4818 3.84949C17.2978 3.72566 17.0816 3.65823 16.8598 3.65544H13.2507C12.996 3.65972 12.7499 3.74823 12.5508 3.9072C12.351 4.06666 12.21 4.28797 12.1497 4.53634L12.1483 4.5422L11.7032 6.24786C11.6855 6.31533 11.6481 6.37595 11.5956 6.42184L10.4695 7.40636L10.4689 7.40694C10.3934 7.47387 10.333 7.5561 10.2918 7.64816C10.2504 7.74049 10.2292 7.84058 10.2296 7.94176C10.2303 8.13381 10.0752 8.2901 9.88316 8.29084C9.69111 8.29158 9.53482 8.13649 9.53408 7.94444C9.53331 7.74432 9.57525 7.54633 9.6571 7.36371C9.73895 7.18109 9.85883 7.01803 10.0087 6.88544L10.0102 6.88411L11.0572 5.9687L11.4746 4.36934C11.5716 3.97237 11.7974 3.61871 12.1168 3.3637C12.437 3.10803 12.8331 2.96602 13.2428 2.96L13.248 2.95996Z" fill="#000001"/>
<path fill-rule="evenodd" clip-rule="evenodd" d="M4.26557 10.5166C4.08214 10.5154 3.90029 10.5505 3.73049 10.6199C3.56068 10.6892 3.40627 10.7915 3.27615 10.9208C3.14603 11.0501 3.04276 11.2038 2.9723 11.3731C2.90183 11.5425 2.86555 11.7241 2.86556 11.9075V17.6531C2.86556 17.7861 2.89175 17.9178 2.94265 18.0407C2.99355 18.1636 3.06815 18.2752 3.1622 18.3693C3.25625 18.4633 3.3679 18.5379 3.49077 18.5888C3.61365 18.6397 3.74535 18.6659 3.87836 18.6659H4.22001C4.41206 18.6659 4.56775 18.8216 4.56775 19.0137V19.0251C4.57668 19.3774 4.72263 19.7123 4.97465 19.9587C5.22756 20.206 5.56721 20.3444 5.9209 20.3444C6.2746 20.3444 6.61424 20.206 6.86715 19.9587C7.11918 19.7123 7.26512 19.3774 7.27405 19.0251V19.0137C7.27405 18.8216 7.42974 18.6659 7.62179 18.6659H12.7284C12.9204 18.6659 13.0761 18.8216 13.0761 19.0137V19.0251C13.085 19.3774 13.231 19.7123 13.483 19.9587C13.7359 20.206 14.0756 20.3444 14.4293 20.3444C14.783 20.3444 15.1226 20.206 15.3755 19.9587C15.6276 19.7123 15.7735 19.3774 15.7824 19.0251V19.0137C15.7824 18.8216 15.9381 18.6659 16.1302 18.6659H16.8117C17.0805 18.6659 17.3382 18.5592 17.5283 18.3692C17.7184 18.1793 17.8252 17.9216 17.8254 17.6529V16.4121C17.8256 16.2318 17.7778 16.0546 17.6868 15.899C17.5958 15.7435 17.4651 15.6151 17.3081 15.5269L17.3076 15.5266L14.9467 14.2145C14.8817 14.1784 14.83 14.1223 14.7991 14.0546L13.642 11.5126L13.6417 11.5119C13.5075 11.2154 13.2907 10.9638 13.0172 10.7872C12.7438 10.6107 12.4253 10.5168 12.0998 10.5166L4.26557 10.5166ZM16.4446 19.3614C16.3685 19.7751 16.1663 20.1583 15.8617 20.456C15.4789 20.8303 14.9647 21.0399 14.4293 21.0399C13.8938 21.0399 13.3797 20.8303 12.9968 20.456C12.6923 20.1583 12.49 19.7751 12.414 19.3614H7.9362C7.86012 19.7751 7.6579 20.1583 7.35334 20.456C6.97049 20.8303 6.45633 21.0399 5.9209 21.0399C5.38548 21.0399 4.87132 20.8303 4.48846 20.456C4.18391 20.1583 3.98168 19.7751 3.90561 19.3614H3.87836C3.65402 19.3614 3.43188 19.3172 3.22462 19.2314C3.01737 19.1455 2.82905 19.0197 2.67042 18.8611C2.51179 18.7024 2.38596 18.5141 2.30011 18.3068C2.21426 18.0996 2.17007 17.8774 2.17007 17.6531V11.9076V11.9076C2.17007 11.6324 2.22448 11.36 2.33018 11.106C2.43588 10.8519 2.59078 10.6213 2.78597 10.4274C2.98115 10.2335 3.21277 10.0801 3.46747 9.97602C3.72181 9.87212 3.99417 9.81947 4.2689 9.8211H12.0998C12.559 9.82133 13.0086 9.95389 13.3944 10.2029C13.78 10.4518 14.0858 10.8066 14.2751 11.2248L14.2753 11.2252L15.3847 13.6622L17.6478 14.92C17.9129 15.0687 18.1336 15.2854 18.2871 15.5479C18.4406 15.8103 18.5213 16.109 18.5209 16.413L18.1731 16.4125H18.5209V16.413V17.6531C18.5206 18.1062 18.3404 18.5409 18.0199 18.8612C17.6994 19.1815 17.2648 19.3614 16.8117 19.3614H16.4446Z" fill="#000001"/>
</svg>
