<svg width="64" height="64" viewBox="0 0 64 64" fill="none" xmlns="http://www.w3.org/2000/svg">
<path fill-rule="evenodd" clip-rule="evenodd" d="M47.1201 8.88C46.558 8.31723 45.7955 8.0007 45.0001 8H3.00009C2.20444 8 1.44136 8.31605 0.878747 8.87866C0.316138 9.44127 8.52125e-05 10.2044 8.52125e-05 11V17C-0.00442 17.4883 0.169857 17.9613 0.490075 18.33C0.813398 18.7007 1.26199 18.9392 1.75009 19C3.20338 19.179 4.54105 19.8833 5.5111 20.9801C6.48115 22.077 7.0166 23.4907 7.0166 24.955C7.0166 26.4193 6.48115 27.833 5.5111 28.9299C4.54105 30.0267 3.20338 30.731 1.75009 30.91C1.26199 30.9708 0.813398 31.2093 0.490075 31.58C0.17214 31.946 -0.00198256 32.4151 8.52125e-05 32.9V39.06C8.52125e-05 39.8556 0.316138 40.6187 0.878747 41.1813C1.44136 41.7439 2.20444 42.06 3.00009 42.06H18.0001C18.2653 42.06 18.5196 41.9546 18.7072 41.7671C18.8947 41.5796 19.0001 41.3252 19.0001 41.06C19.0001 40.7948 18.8947 40.5404 18.7072 40.3529C18.5196 40.1654 18.2653 40.06 18.0001 40.06H3.00009C2.86778 40.0594 2.73689 40.0326 2.61501 39.9811C2.49314 39.9296 2.38268 39.8545 2.29006 39.76C2.10532 39.5737 2.00119 39.3223 2.00009 39.06V32.99C3.94618 32.7606 5.74038 31.8249 7.04238 30.3604C8.34438 28.896 9.06359 27.0045 9.06359 25.045C9.06359 23.0854 8.34438 21.194 7.04238 19.7295C5.74038 18.265 3.94618 17.3294 2.00009 17.1V11.05C2.00119 10.7876 2.10532 10.5363 2.29006 10.35C2.38268 10.2555 2.49314 10.1803 2.61501 10.1288C2.73689 10.0773 2.86778 10.0505 3.00009 10.05H45.0001C45.2653 10.05 45.5196 10.1554 45.7072 10.3429C45.8947 10.5304 46.0001 10.7848 46.0001 11.05V17.06C44.944 17.1925 43.9245 17.5323 43.0001 18.06C42.0715 18.5991 41.2609 19.3196 40.6166 20.1786C39.9723 21.0377 39.5076 22.0176 39.2501 23.06C38.9841 24.095 38.9263 25.1725 39.0801 26.23C39.0996 26.3601 39.1446 26.485 39.2125 26.5977C39.2804 26.7103 39.3699 26.8085 39.4758 26.8865C39.5817 26.9646 39.7019 27.0209 39.8296 27.0524C39.9574 27.0839 40.09 27.0899 40.2201 27.07C40.3501 27.0505 40.4751 27.0055 40.5878 26.9376C40.7004 26.8697 40.7986 26.7802 40.8766 26.6743C40.9546 26.5684 41.011 26.4482 41.0425 26.3204C41.074 26.1927 41.08 26.06 41.0601 25.93C40.9397 25.14 40.9805 24.3338 41.1801 23.56C41.3701 22.7881 41.7098 22.061 42.1801 21.42C42.6659 20.7823 43.2745 20.2485 43.9701 19.85C44.6594 19.4437 45.4255 19.1849 46.2201 19.09C46.7061 19.0288 47.1527 18.7913 47.4753 18.4227C47.7978 18.0541 47.9739 17.5798 47.9701 17.09V11.02C47.9763 10.6249 47.9044 10.2325 47.7586 9.8652C47.6127 9.49796 47.3957 9.16315 47.1201 8.88ZM27.7776 32.1909C29.9155 30.7624 32.4289 30 35.0001 30C38.4479 30 41.7545 31.3696 44.1925 33.8076C46.6304 36.2456 48.0001 39.5522 48.0001 43C48.0001 45.5712 47.2376 48.0846 45.8092 50.2224C44.3807 52.3603 42.3504 54.0265 39.975 55.0104C37.5995 55.9944 34.9856 56.2518 32.4639 55.7502C29.9421 55.2486 27.6257 54.0105 25.8077 52.1924C23.9896 50.3743 22.7515 48.0579 22.2499 45.5362C21.7482 43.0144 22.0057 40.4006 22.9896 38.0251C23.9736 35.6497 25.6398 33.6193 27.7776 32.1909ZM28.8888 52.1461C30.6977 53.3548 32.8245 54 35.0001 54V54.06C36.4497 54.06 37.885 53.7735 39.2235 53.217C40.562 52.6604 41.7773 51.8448 42.7995 50.817C43.8217 49.7892 44.6307 48.5695 45.18 47.2279C45.7293 45.8864 46.008 44.4496 46.0001 43C46.0001 40.8244 45.3549 38.6977 44.1462 36.8887C42.9375 35.0798 41.2196 33.6699 39.2096 32.8373C37.1996 32.0047 34.9879 31.7869 32.8541 32.2114C30.7203 32.6358 28.7603 33.6835 27.2219 35.2218C25.6835 36.7602 24.6358 38.7202 24.2114 40.854C23.787 42.9878 24.0048 45.1995 24.8374 47.2095C25.6699 49.2195 27.0798 50.9375 28.8888 52.1461ZM36.0001 42.0601H39.0001C39.2653 42.0601 39.5196 42.1654 39.7072 42.353C39.8947 42.5405 40.0001 42.7948 40.0001 43.0601C40.0001 43.3253 39.8947 43.5796 39.7072 43.7672C39.5196 43.9547 39.2653 44.0601 39.0001 44.0601H35.0001C34.7348 44.0601 34.4805 43.9547 34.2929 43.7672C34.1054 43.5796 34.0001 43.3253 34.0001 43.0601V37.0601C34.0001 36.7948 34.1054 36.5405 34.2929 36.353C34.4805 36.1654 34.7348 36.0601 35.0001 36.0601C35.2653 36.0601 35.5196 36.1654 35.7072 36.353C35.8947 36.5405 36.0001 36.7948 36.0001 37.0601V42.0601ZM33.5001 14C33.5001 14.8284 32.8285 15.5 32.0001 15.5C31.1716 15.5 30.5001 14.8284 30.5001 14C30.5001 13.1716 31.1716 12.5 32.0001 12.5C32.8285 12.5 33.5001 13.1716 33.5001 14ZM32.0001 21.5C32.8285 21.5 33.5001 20.8284 33.5001 20C33.5001 19.1716 32.8285 18.5 32.0001 18.5C31.1716 18.5 30.5001 19.1716 30.5001 20C30.5001 20.8284 31.1716 21.5 32.0001 21.5ZM33.5001 26C33.5001 26.8284 32.8285 27.5 32.0001 27.5C31.1716 27.5 30.5001 26.8284 30.5001 26C30.5001 25.1716 31.1716 24.5 32.0001 24.5C32.8285 24.5 33.5001 25.1716 33.5001 26Z" fill="black"/>
</svg>
