<svg width="24" height="24" viewBox="0 0 24 24" fill="none" xmlns="http://www.w3.org/2000/svg">
<g clip-path="url(#clip0_914_2799)">
<path fill-rule="evenodd" clip-rule="evenodd" d="M9.85983 7.39017C9.93016 7.4605 10.0255 7.5 10.125 7.5C10.2245 7.5 10.3198 7.4605 10.3902 7.39017C10.4605 7.31984 10.5 7.22446 10.5 7.125V5.25H19.5V7.125C19.5 7.22446 19.5395 7.31984 19.6098 7.39017C19.6802 7.4605 19.7755 7.5 19.875 7.5C19.9745 7.5 20.0698 7.4605 20.1402 7.39017C20.2105 7.31984 20.25 7.22446 20.25 7.125V5.25H22.875C22.9745 5.25 23.0698 5.28951 23.1402 5.35984C23.2105 5.43017 23.25 5.52554 23.25 5.625V8.25H6.75V5.625C6.75 5.52554 6.78951 5.43017 6.85983 5.35984C6.93016 5.28951 7.02554 5.25 7.125 5.25H9.75V7.125C9.75 7.22446 9.78951 7.31984 9.85983 7.39017ZM6.75 9H23.25V19.875C23.25 19.9745 23.2105 20.0698 23.1402 20.1402C23.0698 20.2105 22.9745 20.25 22.875 20.25H7.125C7.02554 20.25 6.93016 20.2105 6.85983 20.1402C6.78951 20.0698 6.75 19.9745 6.75 19.875V9ZM24 8.625V5.625C24 5.32663 23.8815 5.04049 23.6705 4.82951C23.4595 4.61853 23.1734 4.5 22.875 4.5H20.25V3.375C20.25 3.27554 20.2105 3.18017 20.1402 3.10984C20.0698 3.03951 19.9745 3 19.875 3C19.7755 3 19.6802 3.03951 19.6098 3.10984C19.5395 3.18017 19.5 3.27554 19.5 3.375V4.5H10.5V3.375C10.5 3.27554 10.4605 3.18017 10.3902 3.10984C10.3198 3.03951 10.2245 3 10.125 3C10.0255 3 9.93016 3.03951 9.85983 3.10984C9.78951 3.18017 9.75 3.27554 9.75 3.375V4.5H7.125C6.82663 4.5 6.54048 4.61853 6.3295 4.82951C6.11853 5.04049 6 5.32663 6 5.625V8.625V19.875C6 20.1734 6.11853 20.4595 6.3295 20.6705C6.54048 20.8815 6.82663 21 7.125 21H22.875C23.1734 21 23.4595 20.8815 23.6705 20.6705C23.8815 20.4595 24 20.1734 24 19.875V8.625Z" fill="black"/>
</g>
<defs>
<clipPath id="clip0_914_2799">
<rect width="24" height="24" fill="white"/>
</clipPath>
</defs>
</svg>
