<svg width="24" height="24" viewBox="0 0 24 24" fill="none" xmlns="http://www.w3.org/2000/svg">
<path d="M20.25 15.375H17.625V14.625H20.25C20.3495 14.625 20.4448 14.5855 20.5152 14.5152C20.5855 14.4448 20.625 14.3495 20.625 14.25C20.625 14.1505 20.5855 14.0552 20.5152 13.9848C20.4448 13.9145 20.3495 13.875 20.25 13.875H17.625V13.5C17.625 13.2016 17.5065 12.9155 17.2955 12.7045C17.0845 12.4935 16.7984 12.375 16.5 12.375H15C14.9005 12.375 14.8052 12.3355 14.7348 12.2652C14.6645 12.1948 14.625 12.0995 14.625 12V10.5C14.625 10.2016 14.5065 9.91549 14.2955 9.70451C14.0845 9.49353 13.7984 9.375 13.5 9.375H13.125V6.75C13.125 6.65054 13.0855 6.55517 13.0152 6.48484C12.9448 6.41451 12.8495 6.375 12.75 6.375C12.6505 6.375 12.5552 6.41451 12.4848 6.48484C12.4145 6.55517 12.375 6.65054 12.375 6.75V9.375H11.625V6.75C11.625 6.65054 11.5855 6.55517 11.5152 6.48484C11.4448 6.41451 11.3495 6.375 11.25 6.375C11.1505 6.375 11.0552 6.41451 10.9848 6.48484C10.9145 6.55517 10.875 6.65054 10.875 6.75V9.375H10.5C10.2016 9.375 9.91548 9.49353 9.7045 9.70451C9.49352 9.91549 9.375 10.2016 9.375 10.5V12C9.375 12.0995 9.33549 12.1948 9.26516 12.2652C9.19483 12.3355 9.09946 12.375 9 12.375H7.5C7.20163 12.375 6.91548 12.4935 6.7045 12.7045C6.49352 12.9155 6.375 13.2016 6.375 13.5V13.875H3.75C3.65054 13.875 3.55516 13.9145 3.48483 13.9848C3.4145 14.0552 3.375 14.1505 3.375 14.25C3.375 14.3495 3.4145 14.4448 3.48483 14.5152C3.55516 14.5855 3.65054 14.625 3.75 14.625H6.375V15.375H3.75C3.65054 15.375 3.55516 15.4145 3.48483 15.4848C3.4145 15.5552 3.375 15.6505 3.375 15.75C3.375 15.8495 3.4145 15.9448 3.48483 16.0152C3.55516 16.0855 3.65054 16.125 3.75 16.125H6.375V16.5C6.375 16.7984 6.49352 17.0845 6.7045 17.2955C6.91548 17.5065 7.20163 17.625 7.5 17.625H16.5C16.7984 17.625 17.0845 17.5065 17.2955 17.2955C17.5065 17.0845 17.625 16.7984 17.625 16.5V16.125H20.25C20.3495 16.125 20.4448 16.0855 20.5152 16.0152C20.5855 15.9448 20.625 15.8495 20.625 15.75C20.625 15.6505 20.5855 15.5552 20.5152 15.4848C20.4448 15.4145 20.3495 15.375 20.25 15.375ZM16.875 16.5C16.875 16.5995 16.8355 16.6948 16.7652 16.7652C16.6948 16.8355 16.5995 16.875 16.5 16.875H7.5C7.40054 16.875 7.30516 16.8355 7.23483 16.7652C7.1645 16.6948 7.125 16.5995 7.125 16.5V13.5C7.125 13.4005 7.1645 13.3052 7.23483 13.2348C7.30516 13.1645 7.40054 13.125 7.5 13.125H9C9.29837 13.125 9.58451 13.0065 9.79549 12.7955C10.0065 12.5845 10.125 12.2984 10.125 12V10.5C10.125 10.4005 10.1645 10.3052 10.2348 10.2348C10.3052 10.1645 10.4005 10.125 10.5 10.125H13.5C13.5995 10.125 13.6948 10.1645 13.7652 10.2348C13.8355 10.3052 13.875 10.4005 13.875 10.5V12C13.875 12.2984 13.9935 12.5845 14.2045 12.7955C14.4155 13.0065 14.7016 13.125 15 13.125H16.5C16.5995 13.125 16.6948 13.1645 16.7652 13.2348C16.8355 13.3052 16.875 13.4005 16.875 13.5V16.5Z" fill="black"/>
</svg>
