<svg width="24" height="24" viewBox="0 0 24 24" fill="none" xmlns="http://www.w3.org/2000/svg">
<path d="M20.919 20.3871L16.7228 16.1908C18.111 14.6636 18.8469 12.6539 18.7731 10.5913C18.6994 8.5287 17.8219 6.57673 16.3281 5.1525C14.8343 3.72827 12.8428 2.94473 10.779 2.96931C8.71523 2.9939 6.7429 3.82466 5.28349 5.28407C3.82407 6.74349 2.99332 8.71581 2.96873 10.7796C2.94415 12.8434 3.72768 14.8349 5.15192 16.3287C6.57615 17.8225 8.52811 18.7 10.5907 18.7737C12.6533 18.8475 14.663 18.1116 16.1903 16.7233L20.3865 20.9233C20.4215 20.9581 20.4631 20.9856 20.5088 21.0043C20.5545 21.0229 20.6034 21.0324 20.6528 21.0321C20.7021 21.0324 20.751 21.0229 20.7967 21.0043C20.8424 20.9856 20.884 20.9581 20.919 20.9233C20.9547 20.8884 20.9831 20.8467 21.0025 20.8007C21.0219 20.7546 21.0318 20.7052 21.0318 20.6552C21.0318 20.6053 21.0219 20.5558 21.0025 20.5098C20.9831 20.4637 20.9547 20.422 20.919 20.3871V20.3871ZM3.77775 10.9033C3.77775 9.49415 4.19563 8.1166 4.97853 6.9449C5.76144 5.7732 6.87421 4.85997 8.17614 4.3207C9.47806 3.78142 10.9107 3.64033 12.2928 3.91525C13.6749 4.19017 14.9444 4.86876 15.9409 5.8652C16.9373 6.86165 17.6159 8.1312 17.8908 9.51332C18.1658 10.8954 18.0247 12.328 17.4854 13.63C16.9461 14.9319 16.0329 16.0447 14.8612 16.8276C13.6895 17.6105 12.3119 18.0283 10.9028 18.0283C9.01309 18.0283 7.20082 17.2777 5.86462 15.9415C4.52842 14.6053 3.77775 12.793 3.77775 10.9033V10.9033Z" fill="black"/>
</svg>
