<svg width="24" height="24" viewBox="0 0 24 24" fill="none" xmlns="http://www.w3.org/2000/svg">
<path d="M23.625 9.02246H21V8.27246H23.625C23.7245 8.27246 23.8198 8.23295 23.8902 8.16262C23.9605 8.09229 24 7.99692 24 7.89746C24 7.798 23.9605 7.70263 23.8902 7.6323C23.8198 7.56198 23.7245 7.52246 23.625 7.52246H21V7.14746C21 6.84909 20.8815 6.56295 20.6705 6.35197C20.4595 6.14099 20.1734 6.02246 19.875 6.02246H18.375C18.2755 6.02246 18.1802 5.98295 18.1098 5.91262C18.0395 5.84229 18 5.74692 18 5.64746V4.14746C18 3.84909 17.8815 3.56295 17.6705 3.35197C17.4595 3.14099 17.1734 3.02246 16.875 3.02246H16.5V0.397461C16.5 0.298005 16.4605 0.202627 16.3902 0.132301C16.3198 0.0619752 16.2245 0.0224609 16.125 0.0224609C16.0255 0.0224609 15.9302 0.0619752 15.8598 0.132301C15.7895 0.202627 15.75 0.298005 15.75 0.397461V3.02246H15V0.397461C15 0.298005 14.9605 0.202627 14.8902 0.132301C14.8198 0.0619752 14.7245 0.0224609 14.625 0.0224609C14.5255 0.0224609 14.4302 0.0619752 14.3598 0.132301C14.2895 0.202627 14.25 0.298005 14.25 0.397461V3.02246H13.875C13.5766 3.02246 13.2905 3.14099 13.0795 3.35197C12.8685 3.56295 12.75 3.84909 12.75 4.14746V5.64746C12.75 5.74692 12.7105 5.84229 12.6402 5.91262C12.5698 5.98295 12.4745 6.02246 12.375 6.02246H10.875C10.5766 6.02246 10.2905 6.14099 10.0795 6.35197C9.86852 6.56295 9.75 6.84909 9.75 7.14746V7.52246H7.125C7.02554 7.52246 6.93016 7.56198 6.85983 7.6323C6.7895 7.70263 6.75 7.798 6.75 7.89746C6.75 7.99692 6.7895 8.09229 6.85983 8.16262C6.93016 8.23295 7.02554 8.27246 7.125 8.27246H9.75V9.02246H7.125C7.02554 9.02246 6.93016 9.06198 6.85983 9.1323C6.7895 9.20263 6.75 9.298 6.75 9.39746C6.75 9.49692 6.7895 9.59229 6.85983 9.66262C6.93016 9.73295 7.02554 9.77246 7.125 9.77246H9.75V10.1475C9.75 10.4458 9.86852 10.732 10.0795 10.943C10.2905 11.1539 10.5766 11.2725 10.875 11.2725H19.875C20.1734 11.2725 20.4595 11.1539 20.6705 10.943C20.8815 10.732 21 10.4458 21 10.1475V9.77246H23.625C23.7245 9.77246 23.8198 9.73295 23.8902 9.66262C23.9605 9.59229 24 9.49692 24 9.39746C24 9.298 23.9605 9.20263 23.8902 9.1323C23.8198 9.06198 23.7245 9.02246 23.625 9.02246ZM20.25 10.1475C20.25 10.2469 20.2105 10.3423 20.1402 10.4126C20.0698 10.4829 19.9745 10.5225 19.875 10.5225H10.875C10.7755 10.5225 10.6802 10.4829 10.6098 10.4126C10.5395 10.3423 10.5 10.2469 10.5 10.1475V7.14746C10.5 7.048 10.5395 6.95263 10.6098 6.8823C10.6802 6.81198 10.7755 6.77246 10.875 6.77246H12.375C12.6734 6.77246 12.9595 6.65393 13.1705 6.44295C13.3815 6.23197 13.5 5.94583 13.5 5.64746V4.14746C13.5 4.048 13.5395 3.95263 13.6098 3.8823C13.6802 3.81198 13.7755 3.77246 13.875 3.77246H16.875C16.9745 3.77246 17.0698 3.81198 17.1402 3.8823C17.2105 3.95263 17.25 4.048 17.25 4.14746V5.64746C17.25 5.94583 17.3685 6.23197 17.5795 6.44295C17.7905 6.65393 18.0766 6.77246 18.375 6.77246H19.875C19.9745 6.77246 20.0698 6.81198 20.1402 6.8823C20.2105 6.95263 20.25 7.048 20.25 7.14746V10.1475Z" fill="black"/>
</svg>
