<svg width="24" height="24" viewBox="0 0 24 24" fill="none" xmlns="http://www.w3.org/2000/svg">
<path fill-rule="evenodd" clip-rule="evenodd" d="M12.8737 7.38762H3.57C3.47054 7.38762 3.37516 7.34811 3.30483 7.27778C3.2345 7.20746 3.195 7.11208 3.195 7.01262C3.195 6.91317 3.2345 6.81778 3.30483 6.74745C3.37516 6.67713 3.47054 6.63762 3.57 6.63762H12.8737C13.0727 6.63762 13.2634 6.55861 13.4041 6.41795C13.5447 6.2773 13.6237 6.08653 13.6237 5.88762C13.6237 5.75037 13.5692 5.61874 13.4722 5.52169C13.3751 5.42464 13.2435 5.37012 13.1062 5.37012C13.035 5.37058 12.9657 5.39282 12.9075 5.43386C12.8268 5.48728 12.7285 5.50742 12.6333 5.49005C12.5381 5.47269 12.4532 5.41917 12.3966 5.3407C12.3399 5.26222 12.3157 5.16487 12.3292 5.06902C12.3427 4.97316 12.3927 4.8862 12.4687 4.82637C12.6526 4.69182 12.8747 4.61956 13.1025 4.62012C13.4387 4.62012 13.7611 4.75366 13.9988 4.99137C14.2365 5.22907 14.37 5.55146 14.37 5.88762C14.37 6.2848 14.2125 6.66576 13.932 6.94696C13.6515 7.22815 13.2709 7.38663 12.8737 7.38762ZM18.57 10.7664H3.57C3.47054 10.7664 3.37516 10.7269 3.30483 10.6565C3.2345 10.5862 3.195 10.4908 3.195 10.3914C3.195 10.2919 3.2345 10.1965 3.30483 10.1262C3.37516 10.0559 3.47054 10.0164 3.57 10.0164H18.57C18.9678 10.0164 19.3494 9.85833 19.6307 9.57702C19.912 9.29572 20.07 8.91419 20.07 8.51636C20.07 8.21799 19.9515 7.93185 19.7405 7.72087C19.5295 7.50989 19.2434 7.39136 18.945 7.39136C18.7262 7.39136 18.5164 7.47829 18.3616 7.633C18.2069 7.78772 18.12 7.99756 18.12 8.21637C18.12 8.31582 18.0805 8.4112 18.0102 8.48153C17.9398 8.55185 17.8445 8.59137 17.745 8.59137C17.6455 8.59137 17.5502 8.55185 17.4798 8.48153C17.4095 8.4112 17.37 8.31582 17.37 8.21637C17.371 7.79895 17.5372 7.39893 17.8324 7.10377C18.1276 6.80862 18.5276 6.64235 18.945 6.64136C19.4423 6.64136 19.9192 6.83891 20.2708 7.19054C20.6225 7.54217 20.82 8.01908 20.82 8.51636C20.82 9.1131 20.5829 9.6854 20.161 10.1074C19.739 10.5293 19.1667 10.7664 18.57 10.7664ZM11.5453 18.7211C11.9672 19.1431 12.5395 19.3801 13.1362 19.3801C13.8527 19.3801 14.5398 19.0958 15.0468 18.5895C15.5537 18.0833 15.839 17.3965 15.84 16.6801C15.84 15.8085 15.494 14.9726 14.8781 14.3559C14.2621 13.7393 13.4266 13.3924 12.555 13.3914H3.55499C3.45554 13.3914 3.36015 13.4309 3.28983 13.5012C3.2195 13.5715 3.17999 13.6669 3.17999 13.7664C3.17999 13.8658 3.2195 13.9612 3.28983 14.0315C3.36015 14.1019 3.45554 14.1414 3.55499 14.1414H12.555C13.2277 14.1424 13.8724 14.4103 14.3477 14.8863C14.823 15.3623 15.09 16.0074 15.09 16.6801C15.089 17.1976 14.8827 17.6936 14.5164 18.0592C14.1501 18.4248 13.6538 18.6301 13.1362 18.6301C12.7384 18.6301 12.3569 18.4721 12.0756 18.1908C11.7943 17.9095 11.6362 17.5279 11.6362 17.1301C11.6362 17.0307 11.5967 16.9353 11.5264 16.865C11.4561 16.7946 11.3607 16.7551 11.2612 16.7551C11.1618 16.7551 11.0664 16.7946 10.9961 16.865C10.9258 16.9353 10.8862 17.0307 10.8862 17.1301C10.8862 17.7268 11.1233 18.2991 11.5453 18.7211Z" fill="black"/>
</svg>
