<svg width="64" height="64" viewBox="0 0 64 64" fill="none" xmlns="http://www.w3.org/2000/svg">
<path fill-rule="evenodd" clip-rule="evenodd" d="M17.51 41.5097H17.25C17.1142 41.4654 16.9895 41.3924 16.8843 41.2958C16.7791 41.1992 16.6958 41.0812 16.64 40.9497C15.86 39.6097 15.53 37.2797 18.4 33.8197C20.1421 31.784 22.2061 30.0476 24.51 28.6797C25.3623 28.2252 26.3533 28.104 27.29 28.3397C27.2888 27.6095 27.4322 26.8862 27.7119 26.2117C27.9917 25.5372 28.4023 24.9247 28.92 24.4097C29.2698 24.072 29.6633 23.7827 30.09 23.5497C29.4111 22.8592 29.0183 21.9377 28.99 20.9697V8.96973C28.99 8.70451 29.0954 8.45014 29.2829 8.2626C29.4704 8.07507 29.7248 7.96973 29.99 7.96973C30.5781 7.97787 31.1582 8.10628 31.6948 8.34705C32.2314 8.58781 32.713 8.93584 33.11 9.36972C35.75 12.0097 36.69 17.7297 36.69 20.9397C36.664 21.9091 36.275 22.8335 35.6 23.5297C36.0288 23.7722 36.4253 24.0679 36.78 24.4097C37.805 25.4344 38.3867 26.8205 38.4 28.2697C39.3564 28.0496 40.3608 28.211 41.2 28.7197L51.54 34.7197C51.7659 34.8518 51.9311 35.0672 52 35.3197C52.072 35.575 52.0396 35.8483 51.91 36.0797C50.95 37.7397 49.15 38.3497 47.09 38.3497C43.6474 38.1235 40.3053 37.0962 37.33 35.3497H37.24C36.4408 34.8642 35.8467 34.103 35.57 33.2097C34.739 33.675 33.8025 33.9195 32.85 33.9197C31.8635 33.916 30.8963 33.6465 30.05 33.1397C29.8066 34.0699 29.2162 34.8715 28.4 35.3797L18.01 41.3797C17.8576 41.4661 17.6852 41.5109 17.51 41.5097ZM40.25 30.4997C39.949 30.3169 39.6022 30.2232 39.25 30.2297H39.23C38.9622 30.2404 38.6999 30.3095 38.4615 30.4321C38.2231 30.5547 38.0144 30.728 37.85 30.9397C37.7602 31.1239 37.6565 31.3011 37.54 31.4697C37.4018 31.8711 37.4059 32.3078 37.5516 32.7066C37.6973 33.1054 37.9756 33.4419 38.34 33.6597C41.8 35.6597 47.26 37.1797 49.51 35.8397L40.25 30.4997ZM31.73 10.8397C31.5205 10.6265 31.2814 10.4447 31.02 10.2997L31.03 20.9897C31.0511 21.4723 31.2591 21.9278 31.61 22.2597C31.7828 22.4315 31.9893 22.5654 32.2165 22.6532C32.4437 22.741 32.6867 22.7807 32.93 22.7697C33.4027 22.7547 33.8518 22.5603 34.1862 22.2259C34.5205 21.8915 34.715 21.4424 34.73 20.9697C34.73 18.0297 33.8 12.9097 31.73 10.8397ZM29.5912 27.0289C29.4122 27.4602 29.32 27.9227 29.32 28.3897L29.33 28.3997C29.33 28.8659 29.4218 29.3275 29.6003 29.7582C29.7787 30.1889 30.0401 30.5803 30.3698 30.9099C30.6994 31.2396 31.0908 31.5011 31.5215 31.6795C31.9522 31.8579 32.4138 31.9497 32.88 31.9497C33.454 31.949 34.0193 31.8095 34.5278 31.5431C35.0362 31.2767 35.4727 30.8913 35.8 30.4197C35.844 30.3103 35.894 30.2035 35.95 30.0997C35.9868 30.044 36.0268 29.9906 36.07 29.9397C36.3017 29.4591 36.4247 28.9333 36.43 28.3997C36.4313 27.9327 36.3405 27.47 36.1627 27.0381C35.9848 26.6063 35.7235 26.2137 35.3938 25.883C35.064 25.5523 34.6722 25.2899 34.2408 25.1109C33.8095 24.9319 33.347 24.8397 32.88 24.8397C32.413 24.8384 31.9503 24.9293 31.5184 25.1071C31.0865 25.2849 30.694 25.5462 30.3633 25.8759C30.0326 26.2057 29.7702 26.5975 29.5912 27.0289ZM25.51 30.5197C23.4237 31.7636 21.5528 33.3373 19.97 35.1797H19.95C19.18 36.1097 18.09 37.6797 18.11 39.0297L27.37 33.6997C27.7034 33.4825 27.9578 33.1636 28.0956 32.7904C28.2334 32.4171 28.2472 32.0094 28.1349 31.6277C28.0227 31.246 27.7903 30.9106 27.4724 30.6714C27.1545 30.4322 26.7679 30.3018 26.37 30.2997C26.0695 30.3001 25.7738 30.3757 25.51 30.5197ZM38.86 54.0295H55C55.2652 54.0295 55.5196 54.1349 55.7071 54.3225C55.8947 54.51 56 54.7643 56 55.0295C56 55.2948 55.8947 55.5491 55.7071 55.7366C55.5196 55.9242 55.2652 56.0295 55 56.0295H9C8.73478 56.0295 8.48044 55.9242 8.29291 55.7366C8.10537 55.5491 8 55.2948 8 55.0295C8 54.7643 8.10537 54.51 8.29291 54.3225C8.48044 54.1349 8.73478 54.0295 9 54.0295H27.14L29.71 36.8895C29.7296 36.7595 29.7746 36.6345 29.8425 36.5219C29.9104 36.4092 29.9998 36.311 30.1057 36.233C30.2116 36.155 30.3319 36.0986 30.4596 36.0671C30.5873 36.0356 30.72 36.0297 30.85 36.0495C30.9801 36.0691 31.1051 36.1141 31.2177 36.182C31.3304 36.2499 31.4285 36.3394 31.5065 36.4453C31.5846 36.5512 31.6409 36.6714 31.6724 36.7991C31.7039 36.9269 31.7099 37.0595 31.69 37.1896L29.16 54.0295H36.84L34.31 37.1696C34.2901 37.0395 34.2961 36.9068 34.3276 36.7791C34.3591 36.6514 34.4154 36.5312 34.4935 36.4253C34.5715 36.3194 34.6697 36.2299 34.7823 36.162C34.895 36.0941 35.0199 36.0491 35.15 36.0295C35.2801 36.0097 35.4127 36.0156 35.5404 36.0471C35.6682 36.0786 35.7884 36.135 35.8943 36.213C36.0002 36.291 36.0897 36.3892 36.1576 36.5019C36.2255 36.6145 36.2705 36.7395 36.29 36.8695L38.86 54.0295Z" fill="black"/>
</svg>
