<svg width="24" height="24" viewBox="0 0 24 24" fill="none" xmlns="http://www.w3.org/2000/svg">
<path d="M18.3249 9.96022C18.2932 9.89907 18.2453 9.84784 18.1864 9.81212C18.1276 9.7764 18.06 9.75758 17.9911 9.75773H12.4711L13.8699 3.46521C13.8889 3.38073 13.8781 3.29226 13.8393 3.21483C13.8005 3.1374 13.7361 3.07578 13.6571 3.04044C13.578 3.00511 13.4891 2.99823 13.4056 3.02098C13.322 3.04372 13.2489 3.09468 13.1986 3.16522L5.69864 13.6652C5.66105 13.7195 5.63848 13.7828 5.63321 13.8487C5.62795 13.9145 5.64017 13.9806 5.66864 14.0402C5.70032 14.1014 5.74822 14.1526 5.80709 14.1883C5.86597 14.224 5.93354 14.2429 6.0024 14.2427H11.5374L10.1386 20.539C10.1199 20.6234 10.131 20.7117 10.1699 20.789C10.2089 20.8662 10.2734 20.9276 10.3524 20.9627C10.4002 20.9817 10.451 20.9918 10.5024 20.9927C10.5625 20.993 10.6218 20.9789 10.6754 20.9515C10.7289 20.9241 10.775 20.8842 10.8099 20.8352L18.3099 10.3352C18.3451 10.2795 18.3651 10.2156 18.3677 10.1497C18.3703 10.0839 18.3556 10.0185 18.3249 9.96022ZM11.2599 18.9152L12.3586 13.9652C12.3705 13.9104 12.3699 13.8537 12.3569 13.7992C12.3439 13.7447 12.3189 13.6938 12.2836 13.6502C12.2487 13.606 12.2043 13.5703 12.1537 13.5456C12.103 13.5209 12.0475 13.508 11.9911 13.5077H6.73364L12.7336 5.10022L11.6349 10.054C11.6226 10.1085 11.6225 10.165 11.6349 10.2195C11.6472 10.274 11.6716 10.3251 11.7061 10.369C11.7414 10.4125 11.786 10.4475 11.8367 10.4715C11.8873 10.4956 11.9426 10.5079 11.9986 10.5077H17.2749L11.2599 18.9152Z" fill="black"/>
</svg>
