<svg width="24" height="24" viewBox="0 0 24 24" fill="none" xmlns="http://www.w3.org/2000/svg">
<g clip-path="url(#clip0_914_3216)">
<path fill-rule="evenodd" clip-rule="evenodd" d="M17.9865 2.46167C18.0732 2.52522 18.1466 2.60528 18.2024 2.69725C19.9612 5.55475 24.0224 12.5147 23.9999 15.3497C23.9591 17.0468 23.2564 18.6606 22.0417 19.8464C20.827 21.0323 19.1968 21.6961 17.4993 21.6961C15.8017 21.6961 14.1715 21.0323 12.9569 19.8464C11.7422 18.6606 11.0394 17.0468 10.9987 15.3497C10.9987 12.5147 15.0599 5.55475 16.8037 2.69725C16.8711 2.58493 16.9651 2.49092 17.0774 2.42349C17.1692 2.36744 17.2712 2.33006 17.3774 2.31348C17.4837 2.2969 17.5922 2.30145 17.6967 2.32688C17.8012 2.35231 17.8997 2.39812 17.9865 2.46167ZM13.4907 19.3672C14.5549 20.4335 15.9984 21.0345 17.5049 21.0385H17.5199C19.0267 21.0335 20.4702 20.4317 21.5343 19.3648C22.5984 18.2979 23.1964 16.8528 23.1974 15.346C23.1974 12.6422 18.8437 5.29975 17.5124 3.11725C16.1812 5.30725 11.8274 12.646 11.8274 15.3497C11.8284 16.8562 12.4265 18.3009 13.4907 19.3672ZM15.2362 17.6372C15.8432 18.2399 16.6645 18.5771 17.5199 18.5747C17.574 18.5732 17.6279 18.5826 17.6783 18.6023C17.7288 18.622 17.7748 18.6516 17.8136 18.6893C17.8524 18.7271 17.8832 18.7722 17.9043 18.8221C17.9253 18.872 17.9362 18.9256 17.9362 18.9797C17.9332 19.0885 17.8882 19.1919 17.8106 19.2682C17.7329 19.3444 17.6287 19.3876 17.5199 19.3885C16.4495 19.3914 15.4217 18.9692 14.6624 18.2147C14.6186 18.1786 14.5828 18.1336 14.5573 18.0828C14.5318 18.032 14.5172 17.9764 14.5145 17.9197C14.5117 17.8629 14.5207 17.8062 14.5411 17.7531C14.5615 17.7001 14.5927 17.6518 14.6327 17.6115C14.6728 17.5712 14.7208 17.5397 14.7738 17.519C14.8267 17.4982 14.8833 17.4888 14.9401 17.4912C14.9969 17.4936 15.0526 17.5079 15.1035 17.533C15.1545 17.5582 15.1997 17.5937 15.2362 17.6372Z" fill="black"/>
</g>
<defs>
<clipPath id="clip0_914_3216">
<rect width="24" height="24" fill="white"/>
</clipPath>
</defs>
</svg>
