<svg width="64" height="64" viewBox="0 0 64 64" fill="none" xmlns="http://www.w3.org/2000/svg">
<path fill-rule="evenodd" clip-rule="evenodd" d="M27.7287 10.0216C27.5262 10.2242 27.2515 10.338 26.965 10.338C26.8185 10.3381 26.6734 10.3086 26.5385 10.2513C26.4035 10.1941 26.2815 10.1102 26.1798 10.0047C26.078 9.89921 25.9986 9.77426 25.9462 9.63736C25.8939 9.50046 25.8697 9.35442 25.875 9.20795V7.03796C25.901 6.76817 26.0265 6.5177 26.2271 6.33545C26.4277 6.1532 26.689 6.05225 26.96 6.05225C27.2311 6.05225 27.4924 6.1532 27.693 6.33545C27.8936 6.5177 28.0191 6.76817 28.045 7.03796V9.25797C28.045 9.5444 27.9312 9.8191 27.7287 10.0216ZM14.5532 14.4416C14.3763 14.5609 14.1683 14.6257 13.955 14.6279C13.6696 14.6249 13.3967 14.51 13.195 14.3079L11.025 12.1379C10.8241 11.9339 10.7115 11.6592 10.7115 11.3729C10.7115 11.0866 10.8241 10.8118 11.025 10.6079C11.2306 10.4063 11.5071 10.2935 11.795 10.2935C12.0829 10.2935 12.3594 10.4063 12.565 10.6079L14.725 12.7779C14.8738 12.9308 14.9744 13.124 15.0144 13.3336C15.0544 13.5431 15.032 13.7598 14.95 13.9568C14.8681 14.1537 14.7301 14.3223 14.5532 14.4416ZM39.965 14.6175C40.1071 14.6213 40.2485 14.5947 40.3795 14.5395C40.5106 14.4843 40.6284 14.4018 40.725 14.2975L42.895 12.1375C43.0959 11.9336 43.2086 11.6588 43.2086 11.3725C43.2086 11.0862 43.0959 10.8114 42.895 10.6075C42.7953 10.5056 42.6764 10.4247 42.545 10.3694C42.4136 10.3141 42.2725 10.2856 42.13 10.2856C41.9875 10.2856 41.8464 10.3141 41.715 10.3694C41.5837 10.4247 41.4646 10.5056 41.365 10.6075L39.195 12.7675C38.9941 12.9714 38.8814 13.2463 38.8814 13.5325C38.8814 13.8188 38.9941 14.0936 39.195 14.2975C39.2947 14.4006 39.4144 14.4822 39.5469 14.5372C39.6793 14.5923 39.8216 14.6196 39.965 14.6175ZM7.46503 25.4575H9.62503C9.91146 25.4575 10.1862 25.5713 10.3887 25.7738C10.5912 25.9764 10.705 26.2511 10.705 26.5375C10.705 26.824 10.5912 27.0987 10.3887 27.3012C10.1862 27.5037 9.91146 27.6175 9.62503 27.6175H7.46503C7.17859 27.6175 6.90389 27.5037 6.70135 27.3012C6.49882 27.0987 6.38504 26.824 6.38504 26.5375C6.38504 26.2511 6.49882 25.9764 6.70135 25.7738C6.90389 25.5713 7.17859 25.4575 7.46503 25.4575ZM13.665 31.1372C13.7367 31.3468 13.8711 31.5292 14.05 31.6598C14.2289 31.7903 14.4436 31.8628 14.665 31.8673C14.7875 31.8669 14.909 31.8466 15.025 31.8073C15.1602 31.7602 15.2848 31.6868 15.3914 31.5912C15.498 31.4956 15.5845 31.3797 15.6459 31.2504C15.7074 31.1211 15.7424 30.9808 15.7491 30.8377C15.7559 30.6947 15.734 30.5518 15.685 30.4172C15.2462 29.1708 15.023 27.8587 15.025 26.5373C15.0287 24.1215 15.7663 21.7638 17.1402 19.7767C18.514 17.7896 20.4592 16.2668 22.718 15.4101C24.9768 14.5534 27.4426 14.4033 29.7886 14.9796C32.1347 15.5559 34.2502 16.8315 35.855 18.6372C35.9493 18.744 36.0638 18.8312 36.1918 18.8935C36.3199 18.9559 36.459 18.9923 36.6013 19.0007C36.7435 19.009 36.8859 18.9892 37.0204 18.9423C37.155 18.8953 37.2789 18.8223 37.385 18.7273C37.5961 18.534 37.7235 18.2662 37.7403 17.9805C37.7571 17.6948 37.662 17.4139 37.475 17.1972C35.5778 15.0634 33.0771 13.5563 30.3042 12.8755C27.5312 12.1948 24.6169 12.3726 21.9473 13.3854C19.2776 14.3982 16.9787 16.1981 15.355 18.5468C13.7313 20.8954 12.8595 23.682 12.855 26.5373C12.8628 28.1054 13.1367 29.6608 13.665 31.1372ZM47.715 26.5676L57.345 43.8975C57.6218 44.4008 57.6889 44.9929 57.5316 45.5453C57.3743 46.0976 57.0054 46.5656 56.505 46.8475C56.1842 47.0266 55.8225 47.1196 55.4551 47.1175H38.875V56.8675C38.875 57.154 38.7613 57.4287 38.5587 57.6312C38.3562 57.8337 38.0815 57.9475 37.795 57.9475C37.5086 57.9475 37.2339 57.8337 37.0314 57.6312C36.8288 57.4287 36.715 57.154 36.715 56.8675V47.1175H32.375V56.8675C32.375 57.154 32.2613 57.4287 32.0587 57.6312C31.8562 57.8337 31.5815 57.9475 31.295 57.9475C31.0086 57.9475 30.7339 57.8337 30.5314 57.6312C30.3288 57.4287 30.215 57.154 30.215 56.8675V47.1175H13.635C13.0622 47.1175 12.5128 46.89 12.1077 46.4849C11.7026 46.0798 11.475 45.5304 11.475 44.9575C11.473 44.5901 11.566 44.2284 11.745 43.9075L21.375 26.5676C21.5624 26.2307 21.8365 25.9502 22.1688 25.755C22.5011 25.5598 22.8796 25.4571 23.265 25.4575H45.825C46.2107 25.4561 46.5896 25.5583 46.9221 25.7536C47.2546 25.9489 47.5285 26.23 47.715 26.5676ZM28.225 40.6175L27.225 44.9575H41.925L40.925 40.6175H28.225ZM29.675 34.1175L28.675 38.4575H40.495L39.495 34.1175H29.675ZM27.435 34.1175H19.675L17.225 38.4575H26.435L27.435 34.1175ZM39.025 31.9575L38.025 27.6175H31.115L30.115 31.9575H39.025ZM49.4551 34.1175H41.695L42.655 38.4575H51.865L49.4551 34.1175ZM41.255 31.9575H48.255L45.815 27.6175H40.255L41.255 31.9575ZM28.855 27.6175H23.255L20.855 31.9575H27.855L28.855 27.6175ZM25.965 40.6175H16.035L13.635 44.9575H24.965L25.965 40.6175ZM43.035 40.6175L44.035 44.9575H55.375L52.965 40.6175H43.035Z" fill="black"/>
</svg>
