<svg width="24" height="24" viewBox="0 0 24 24" fill="none" xmlns="http://www.w3.org/2000/svg">
<path fill-rule="evenodd" clip-rule="evenodd" d="M14.25 11.0625V10.6875C14.25 8.89729 13.5388 7.18041 12.273 5.91454C11.0071 4.64866 9.29021 3.9375 7.5 3.9375C5.70979 3.9375 3.9929 4.64866 2.72703 5.91454C1.46116 7.18041 0.75 8.89729 0.75 10.6875V11.0625C1.07265 10.8205 1.46697 10.6875 1.875 10.6875H3.375C3.47446 10.6875 3.56984 10.727 3.64017 10.7973C3.71049 10.8677 3.75 10.963 3.75 11.0625V16.3125C3.75 16.412 3.71049 16.5073 3.64017 16.5777C3.56984 16.648 3.47446 16.6875 3.375 16.6875H1.875C1.37772 16.6875 0.900807 16.49 0.549176 16.1383C0.197545 15.7867 0 15.3098 0 14.8125V12.5625V10.6875C0 8.69838 0.790176 6.79073 2.1967 5.3842C3.60322 3.97768 5.51088 3.1875 7.5 3.1875C9.48912 3.1875 11.3968 3.97768 12.8033 5.3842C14.2098 6.79073 15 8.69838 15 10.6875V12.5625C15 12.563 15 12.5635 15 12.564V14.8125V17.0625C15 18.6337 13.7925 19.6875 12 19.6875H10.8274C10.7609 19.9448 10.6267 20.1821 10.4357 20.3732C10.1544 20.6545 9.77283 20.8125 9.375 20.8125C9.07833 20.8125 8.78832 20.7245 8.54164 20.5597C8.29497 20.3949 8.10271 20.1606 7.98918 19.8865C7.87565 19.6124 7.84595 19.3108 7.90382 19.0199C7.9617 18.7289 8.10456 18.4616 8.31434 18.2518C8.52412 18.0421 8.79139 17.8992 9.08237 17.8413C9.37334 17.7834 9.67494 17.8131 9.94903 17.9267C10.2231 18.0402 10.4574 18.2325 10.6222 18.4791C10.7164 18.6201 10.7854 18.7751 10.8274 18.9375H12C13.0387 18.9375 14.25 18.4462 14.25 17.0625V16.3125C13.9274 16.5545 13.533 16.6875 13.125 16.6875H11.625C11.5255 16.6875 11.4302 16.648 11.3598 16.5777C11.2895 16.5073 11.25 16.412 11.25 16.3125V11.0625C11.25 10.963 11.2895 10.8677 11.3598 10.7973C11.4302 10.727 11.5255 10.6875 11.625 10.6875H13.125C13.533 10.6875 13.9274 10.8205 14.25 11.0625ZM0.75 12.5625V14.8125C0.75 15.1109 0.868526 15.397 1.0795 15.608C1.29048 15.819 1.57663 15.9375 1.875 15.9375H3V11.4375H1.875C1.57663 11.4375 1.29048 11.556 1.0795 11.767C0.868526 11.978 0.75 12.2641 0.75 12.5625ZM14.25 12.5625V14.8125C14.25 15.1109 14.1315 15.397 13.9205 15.608C13.7095 15.819 13.4234 15.9375 13.125 15.9375H12V11.4375H13.125C13.4234 11.4375 13.7095 11.556 13.9205 11.767C14.1315 11.978 14.25 12.2641 14.25 12.5625ZM9.90533 18.7822C10.0457 18.9226 10.1247 19.113 10.125 19.3115L10.125 19.3125C10.125 19.4608 10.081 19.6058 9.9986 19.7292C9.91619 19.8525 9.79906 19.9486 9.66201 20.0054C9.52497 20.0622 9.37417 20.077 9.22868 20.0481C9.0832 20.0191 8.94956 19.9477 8.84467 19.8428C8.73978 19.7379 8.66835 19.6043 8.63941 19.4588C8.61047 19.3133 8.62533 19.1625 8.68209 19.0255C8.73886 18.8884 8.83499 18.7713 8.95832 18.6889C9.08166 18.6065 9.22667 18.5625 9.375 18.5625C9.57391 18.5625 9.76467 18.6415 9.90533 18.7822Z" fill="black"/>
</svg>
