<svg width="64" height="64" viewBox="0 0 64 64" fill="none" xmlns="http://www.w3.org/2000/svg">
<g clip-path="url(#clip0_482_2125)">
<path fill-rule="evenodd" clip-rule="evenodd" d="M62 29.5V28.5C62 23.7261 60.1036 19.1477 56.7279 15.7721C53.3523 12.3964 48.7739 10.5 44 10.5C39.2261 10.5 34.6477 12.3964 31.2721 15.7721C27.8964 19.1477 26 23.7261 26 28.5V29.5C26.8604 28.8547 27.9119 28.5 29 28.5H33C33.2652 28.5 33.5196 28.6054 33.7071 28.7929C33.8946 28.9804 34 29.2348 34 29.5V43.5C34 43.7652 33.8946 44.0196 33.7071 44.2071C33.5196 44.3947 33.2652 44.5 33 44.5H29C27.6739 44.5 26.4022 43.9732 25.4645 43.0355C24.5268 42.0978 24 40.8261 24 39.5V33.5V28.5C24 23.1957 26.1071 18.1086 29.8579 14.3579C33.6086 10.6072 38.6957 8.5 44 8.5C49.3043 8.5 54.3914 10.6072 58.1421 14.3579C61.8929 18.1086 64 23.1957 64 28.5V33.5C64 33.5013 64 33.5026 64 33.5039V39.5V45.5C64 49.69 60.78 52.5 56 52.5H52.873C52.6958 53.186 52.338 53.8189 51.8284 54.3284C51.0783 55.0786 50.0609 55.5 49 55.5C48.2089 55.5 47.4355 55.2654 46.7777 54.8259C46.1199 54.3864 45.6072 53.7616 45.3045 53.0307C45.0017 52.2998 44.9225 51.4956 45.0769 50.7196C45.2312 49.9437 45.6122 49.231 46.1716 48.6716C46.731 48.1122 47.4437 47.7312 48.2196 47.5769C48.9956 47.4225 49.7998 47.5017 50.5307 47.8045C51.2616 48.1072 51.8863 48.6199 52.3259 49.2777C52.577 49.6535 52.7612 50.067 52.873 50.5H56C58.77 50.5 62 49.19 62 45.5V43.5C61.1396 44.1453 60.0881 44.5 59 44.5H55C54.7348 44.5 54.4804 44.3947 54.2929 44.2071C54.1054 44.0196 54 43.7652 54 43.5V29.5C54 29.2348 54.1054 28.9804 54.2929 28.7929C54.4804 28.6054 54.7348 28.5 55 28.5H59C60.0881 28.5 61.1396 28.8547 62 29.5ZM26 33.5V39.5C26 40.2956 26.3161 41.0587 26.8787 41.6213C27.4413 42.1839 28.2044 42.5 29 42.5H32V30.5H29C28.2044 30.5 27.4413 30.8161 26.8787 31.3787C26.3161 31.9413 26 32.7044 26 33.5ZM62 33.5V39.5C62 40.2956 61.6839 41.0587 61.1213 41.6213C60.5587 42.1839 59.7957 42.5 59 42.5H56V30.5H59C59.7957 30.5 60.5587 30.8161 61.1213 31.3787C61.6839 31.9413 62 32.7044 62 33.5ZM50.4142 50.0858C50.7887 50.4603 50.9994 50.9681 51 51.4977L51 51.5C51 51.8956 50.8827 52.2822 50.6629 52.6111C50.4432 52.94 50.1308 53.1964 49.7654 53.3477C49.3999 53.4991 48.9978 53.5387 48.6098 53.4616C48.2219 53.3844 47.8655 53.1939 47.5858 52.9142C47.3061 52.6345 47.1156 52.2782 47.0384 51.8902C46.9613 51.5022 47.0009 51.1001 47.1522 50.7346C47.3036 50.3692 47.56 50.0568 47.8889 49.8371C48.2178 49.6173 48.6044 49.5 49 49.5C49.5304 49.5 50.0391 49.7107 50.4142 50.0858Z" fill="black"/>
</g>
<defs>
<clipPath id="clip0_482_2125">
<rect width="64" height="64" fill="white"/>
</clipPath>
</defs>
</svg>
