<svg width="24" height="24" viewBox="0 0 24 24" fill="none" xmlns="http://www.w3.org/2000/svg">
<path fill-rule="evenodd" clip-rule="evenodd" d="M17.595 20.726C17.715 20.8019 17.8542 20.8422 17.9962 20.8422C18.1224 20.8426 18.2466 20.8113 18.3573 20.7509C18.4681 20.6906 18.5619 20.6034 18.63 20.4972C20.25 17.9735 24 11.816 24 9.15723C24 7.56593 23.3679 6.0398 22.2426 4.91458C21.1174 3.78936 19.5913 3.15723 18 3.15723C16.4087 3.15723 14.8826 3.78936 13.7574 4.91458C12.6321 6.0398 12 7.56593 12 9.15723C12 11.8197 15.7537 17.9772 17.3662 20.4972C17.4267 20.5878 17.5045 20.6655 17.595 20.726ZM14.2839 5.44491C15.2685 4.46035 16.6039 3.90723 17.9962 3.90723H18C19.3917 3.90822 20.7261 4.46178 21.7099 5.44624C22.6936 6.4307 23.2462 7.76549 23.2462 9.15723C23.2462 11.6885 19.2262 18.1685 17.9962 20.0922C15.4575 16.1285 12.7462 11.171 12.7462 9.15723C12.7462 7.76484 13.2994 6.42948 14.2839 5.44491ZM16.5416 11.3398C16.9733 11.6283 17.4808 11.7822 18 11.7822C18.6962 11.7822 19.3639 11.5057 19.8562 11.0134C20.3484 10.5211 20.625 9.85342 20.625 9.15723C20.625 8.63806 20.471 8.13053 20.1826 7.69885C19.8942 7.26717 19.4842 6.93073 19.0045 6.73205C18.5249 6.53337 17.9971 6.48138 17.4879 6.58267C16.9787 6.68395 16.511 6.93396 16.1438 7.30107C15.7767 7.66818 15.5267 8.13591 15.4254 8.64511C15.3242 9.15431 15.3761 9.68211 15.5748 10.1618C15.7735 10.6414 16.1099 11.0514 16.5416 11.3398ZM16.9583 7.59823C17.2666 7.3922 17.6292 7.28223 18 7.28223C18.4973 7.28223 18.9742 7.47977 19.3258 7.8314C19.6775 8.18303 19.875 8.65995 19.875 9.15723C19.875 9.52807 19.765 9.89058 19.559 10.1989C19.353 10.5073 19.0601 10.7476 18.7175 10.8895C18.3749 11.0314 17.9979 11.0685 17.6342 10.9962C17.2705 10.9238 16.9364 10.7453 16.6742 10.4831C16.412 10.2208 16.2334 9.88673 16.161 9.52302C16.0887 9.1593 16.1258 8.78231 16.2677 8.4397C16.4096 8.09709 16.65 7.80425 16.9583 7.59823Z" fill="black"/>
</svg>
