<svg width="64" height="64" viewBox="0 0 64 64" fill="none" xmlns="http://www.w3.org/2000/svg">
<path fill-rule="evenodd" clip-rule="evenodd" d="M51.12 16.29L43.71 8.88C43.1479 8.31723 42.3854 8.0007 41.59 8H15C14.2044 8 13.4413 8.31608 12.8787 8.87869C12.3161 9.4413 12 10.2044 12 11V53C12 53.7957 12.3161 54.5587 12.8787 55.1213C13.4413 55.6839 14.2044 56 15 56H49C49.7957 56 50.5587 55.6839 51.1213 55.1213C51.6839 54.5587 52 53.7957 52 53V18.41C51.9993 17.6146 51.6828 16.8521 51.12 16.29ZM50 53C50 53.2652 49.8946 53.5196 49.7071 53.7071C49.5196 53.8947 49.2652 54 49 54H15C14.7348 54 14.4804 53.8947 14.2929 53.7071C14.1054 53.5196 14 53.2652 14 53V11C14 10.7348 14.1054 10.4804 14.2929 10.2929C14.4804 10.1054 14.7348 10 15 10H41.59C41.8523 10.0011 42.1037 10.1053 42.29 10.29L49.71 17.71C49.8948 17.8963 49.9989 18.1477 50 18.41V53ZM27.19 18.9599L22.87 24.9599L20.71 22.7899C20.5217 22.6016 20.2663 22.4958 20 22.4958C19.7337 22.4958 19.4783 22.6016 19.29 22.7899C19.1017 22.9782 18.9959 23.2336 18.9959 23.4999C18.9959 23.7662 19.1017 24.0216 19.29 24.2099L21.46 26.3699C21.8333 26.7455 22.3404 26.9577 22.87 26.9599C23.1339 26.9601 23.3952 26.9081 23.639 26.8069C23.8827 26.7056 24.1039 26.5571 24.29 26.3699C24.3677 26.2934 24.438 26.2097 24.5 26.1199L28.81 20.1199C28.9375 19.9046 28.9797 19.6494 28.9282 19.4045C28.8767 19.1596 28.7352 18.943 28.5318 18.7973C28.3283 18.6516 28.0776 18.5875 27.8292 18.6176C27.5808 18.6477 27.3528 18.7699 27.19 18.9599ZM35 22H43C43.2652 22 43.5196 22.1054 43.7071 22.2929C43.8946 22.4804 44 22.7348 44 23C44 23.2652 43.8946 23.5196 43.7071 23.7071C43.5196 23.8947 43.2652 24 43 24H35C34.7348 24 34.4804 23.8947 34.2929 23.7071C34.1054 23.5196 34 23.2652 34 23C34 22.7348 34.1054 22.4804 34.2929 22.2929C34.4804 22.1054 34.7348 22 35 22ZM27.19 28.9599L22.87 34.9599L20.71 32.7899C20.5217 32.6016 20.2663 32.4958 20 32.4958C19.7337 32.4958 19.4783 32.6016 19.29 32.7899C19.1017 32.9782 18.9959 33.2336 18.9959 33.4999C18.9959 33.7662 19.1017 34.0216 19.29 34.2099L21.46 36.3699C21.8333 36.7455 22.3404 36.9577 22.87 36.9599C23.1339 36.9601 23.3952 36.9081 23.639 36.8069C23.8827 36.7056 24.1039 36.5571 24.29 36.3699C24.3677 36.2934 24.438 36.2097 24.5 36.1199L28.81 30.1199C28.9375 29.9046 28.9797 29.6494 28.9282 29.4045C28.8767 29.1596 28.7352 28.943 28.5318 28.7973C28.3283 28.6516 28.0776 28.5875 27.8292 28.6176C27.5808 28.6477 27.3528 28.7699 27.19 28.9599ZM35 32H43C43.2652 32 43.5196 32.1054 43.7071 32.2929C43.8946 32.4804 44 32.7348 44 33C44 33.2652 43.8946 33.5196 43.7071 33.7071C43.5196 33.8947 43.2652 34 43 34H35C34.7348 34 34.4804 33.8947 34.2929 33.7071C34.1054 33.5196 34 33.2652 34 33C34 32.7348 34.1054 32.4804 34.2929 32.2929C34.4804 32.1054 34.7348 32 35 32ZM27.19 38.9599L22.87 44.9599L20.71 42.7899C20.5217 42.6016 20.2663 42.4958 20 42.4958C19.7337 42.4958 19.4783 42.6016 19.29 42.7899C19.1017 42.9782 18.9959 43.2336 18.9959 43.4999C18.9959 43.7662 19.1017 44.0216 19.29 44.2099L21.46 46.3699C21.8333 46.7455 22.3404 46.9577 22.87 46.9599C23.1339 46.9601 23.3952 46.9081 23.639 46.8069C23.8827 46.7056 24.1039 46.5571 24.29 46.3699C24.3677 46.2934 24.438 46.2097 24.5 46.1199L28.81 40.1199C28.9375 39.9046 28.9797 39.6494 28.9282 39.4045C28.8767 39.1596 28.7352 38.943 28.5318 38.7973C28.3283 38.6516 28.0776 38.5875 27.8292 38.6176C27.5808 38.6477 27.3528 38.7699 27.19 38.9599ZM35 42H43C43.2652 42 43.5196 42.1054 43.7071 42.2929C43.8946 42.4804 44 42.7348 44 43C44 43.2652 43.8946 43.5196 43.7071 43.7071C43.5196 43.8947 43.2652 44 43 44H35C34.7348 44 34.4804 43.8947 34.2929 43.7071C34.1054 43.5196 34 43.2652 34 43C34 42.7348 34.1054 42.4804 34.2929 42.2929C34.4804 42.1054 34.7348 42 35 42Z" fill="black"/>
</svg>
