<svg width="24" height="24" viewBox="0 0 24 24" fill="none" xmlns="http://www.w3.org/2000/svg">
<path fill-rule="evenodd" clip-rule="evenodd" d="M15.5531 6.44407C15.7639 6.58904 16.0061 6.68167 16.2598 6.71428C16.5135 6.74688 16.7713 6.71853 17.0119 6.63157C17.3355 7.03053 17.7762 7.31779 18.2719 7.45282C18.481 7.50909 18.6966 7.53807 18.9131 7.53906C19.5596 7.53906 20.1796 7.28227 20.6367 6.82515C21.0938 6.36803 21.3506 5.74803 21.3506 5.10156C21.3506 4.4551 21.0938 3.83511 20.6367 3.37799C20.1796 2.92087 19.5596 2.66406 18.9131 2.66406C18.5529 2.66687 18.1977 2.74977 17.8735 2.90672C17.5492 3.06368 17.2638 3.29077 17.0381 3.57157C16.666 3.43838 16.2581 3.44549 15.8908 3.59158C15.5235 3.73768 15.2222 4.01271 15.0432 4.36512C14.8642 4.71754 14.82 5.12313 14.9187 5.50586C15.0174 5.88859 15.2523 6.22217 15.5794 6.44407H15.5531ZM15.7894 4.64407C15.9103 4.4668 16.0964 4.34448 16.3071 4.30375C16.5178 4.26301 16.7361 4.30715 16.9144 4.42657C16.9612 4.45809 17.0139 4.47968 17.0694 4.49C17.1249 4.50032 17.1819 4.49916 17.2369 4.48657C17.2918 4.4741 17.3435 4.45031 17.3887 4.41674C17.4339 4.38316 17.4716 4.34054 17.4994 4.29157C17.6403 4.04452 17.8437 3.83891 18.0892 3.6954C18.3348 3.5519 18.6137 3.47556 18.8981 3.47406C19.1843 3.4734 19.4657 3.54824 19.7137 3.69101C19.9618 3.83378 20.1678 4.03944 20.311 4.28725C20.4542 4.53506 20.5295 4.81624 20.5294 5.10246C20.5292 5.38867 20.4536 5.66977 20.3101 5.91742C20.1666 6.16507 19.9604 6.37051 19.7122 6.51301C19.464 6.65551 19.1826 6.73002 18.8963 6.72905C18.6101 6.72808 18.3292 6.65164 18.082 6.50746C17.8348 6.36327 17.6299 6.15644 17.4881 5.90782C17.4604 5.85954 17.4232 5.81736 17.3787 5.78385C17.3342 5.75033 17.2834 5.72617 17.2294 5.71281C17.1983 5.70889 17.1668 5.70889 17.1356 5.71281C17.0542 5.71448 16.9749 5.73919 16.9069 5.78407C16.7506 5.88496 16.5644 5.92925 16.3794 5.90955C16.1944 5.88985 16.0217 5.80734 15.8902 5.67578C15.7586 5.54422 15.6761 5.37156 15.6564 5.18656C15.6367 5.00155 15.681 4.81538 15.7819 4.65907L15.7894 4.64407ZM20.0531 10.3928C19.9444 10.3933 19.836 10.4072 19.7306 10.434L10.6331 12.789L9.98814 5.99402C9.98055 5.89189 9.93455 5.79643 9.8594 5.72685C9.78426 5.65727 9.68554 5.61874 9.58313 5.61902H5.81063C5.70822 5.61874 5.6095 5.65727 5.53436 5.72685C5.45921 5.79643 5.41322 5.89189 5.40564 5.99402L4.61064 14.349L3.55313 14.6228C3.29475 14.6886 3.06565 14.8386 2.902 15.0491C2.73835 15.2596 2.64946 15.5186 2.64938 15.7853V20.9303C2.64938 20.9838 2.65998 21.0368 2.68057 21.0861C2.70116 21.1355 2.73132 21.1803 2.76933 21.218C2.80733 21.2556 2.85243 21.2854 2.902 21.3055C2.95157 21.3257 3.00463 21.3358 3.05813 21.3353H20.9306C20.9841 21.3358 21.0372 21.3257 21.0868 21.3055C21.1363 21.2854 21.1814 21.2556 21.2194 21.218C21.2574 21.1803 21.2876 21.1355 21.3082 21.0861C21.3288 21.0368 21.3394 20.9838 21.3394 20.9303V11.679C21.3384 11.3382 21.2026 11.0116 20.9616 10.7706C20.7206 10.5296 20.394 10.3938 20.0531 10.3928ZM9.21564 6.44027L9.47439 9.16277H5.93063L6.18938 6.44027H9.21564ZM5.84064 9.97652H9.54938L9.83814 12.9953L5.44688 14.1203L5.84064 9.97652ZM14.5856 20.5215V17.3715C14.5856 17.2641 14.6283 17.1611 14.7043 17.0851C14.7802 17.0092 14.8832 16.9665 14.9906 16.9665H17.3381C17.3916 16.966 17.4447 16.9761 17.4943 16.9963C17.5438 17.0164 17.5889 17.0462 17.6269 17.0838C17.6649 17.1215 17.6951 17.1663 17.7157 17.2157C17.7363 17.265 17.7469 17.318 17.7469 17.3715V20.5215H14.5856ZM20.5256 20.5215H18.5569V17.3715C18.5569 17.0483 18.4285 16.7383 18.1999 16.5097C17.9714 16.2812 17.6614 16.1528 17.3381 16.1528H14.9906C14.6681 16.1538 14.359 16.2826 14.1313 16.5111C13.9035 16.7395 13.7756 17.0489 13.7756 17.3715V20.5215H3.46314V15.7853C3.46102 15.6986 3.489 15.6138 3.54233 15.5455C3.59566 15.4771 3.67105 15.4293 3.75564 15.4103L19.9331 11.2253C20.0029 11.2091 20.0754 11.2087 20.1454 11.224C20.2153 11.2393 20.281 11.2699 20.3377 11.3137C20.3944 11.3575 20.4407 11.4133 20.4732 11.4771C20.5057 11.5409 20.5236 11.6112 20.5256 11.6828V20.5215ZM13.305 6.45273C13.0368 6.63128 12.7216 6.7262 12.3994 6.72545C11.9691 6.72446 11.5566 6.55307 11.2523 6.24877C10.948 5.94448 10.7766 5.53204 10.7757 5.1017C10.7749 4.77949 10.8698 4.46432 11.0484 4.1961C11.2269 3.92789 11.4811 3.71871 11.7786 3.59506C12.0761 3.47141 12.4037 3.43887 12.7197 3.50155C13.0358 3.56423 13.3261 3.7193 13.554 3.94714C13.7818 4.17497 13.9369 4.46531 13.9996 4.78137C14.0622 5.09742 14.0297 5.42497 13.906 5.72251C13.7824 6.02004 13.5732 6.27418 13.305 6.45273ZM12.8525 4.42327C12.7182 4.33431 12.5605 4.28721 12.3994 4.28795C12.1842 4.28895 11.9782 4.37512 11.8264 4.52762C11.6746 4.68012 11.5894 4.88653 11.5894 5.1017C11.5894 5.2628 11.6372 5.42028 11.7268 5.55419C11.8164 5.68809 11.9437 5.79238 12.0926 5.85386C12.2415 5.91534 12.4053 5.93124 12.5633 5.89953C12.7212 5.86783 12.8662 5.78995 12.9799 5.67577C13.0935 5.56159 13.1707 5.41625 13.2017 5.25815C13.2327 5.10005 13.216 4.93631 13.1539 4.78768C13.0917 4.63906 12.9868 4.51223 12.8525 4.42327ZM7.11939 16.4753H6.30563C6.20446 16.4851 6.11055 16.5321 6.0422 16.6074C5.97386 16.6826 5.93599 16.7806 5.93599 16.8822C5.93599 16.9839 5.97386 17.0819 6.0422 17.1571C6.11055 17.2323 6.20446 17.2794 6.30563 17.2891H7.11939C7.22056 17.2794 7.31448 17.2323 7.38282 17.1571C7.45116 17.0819 7.48903 16.9839 7.48903 16.8822C7.48903 16.7806 7.45116 16.6826 7.38282 16.6074C7.31448 16.5321 7.22056 16.4851 7.11939 16.4753ZM6.30563 18.0991H7.11939C7.22056 18.1088 7.31448 18.1559 7.38282 18.2311C7.45116 18.3064 7.48903 18.4044 7.48903 18.506C7.48903 18.6076 7.45116 18.7056 7.38282 18.7809C7.31448 18.8561 7.22056 18.9032 7.11939 18.9129H6.30563C6.20446 18.9032 6.11055 18.8561 6.0422 18.7809C5.97386 18.7056 5.93599 18.6076 5.93599 18.506C5.93599 18.4044 5.97386 18.3064 6.0422 18.2311C6.11055 18.1559 6.20446 18.1088 6.30563 18.0991ZM11.1806 16.4754H10.3706C10.3139 16.4699 10.2567 16.4764 10.2026 16.4944C10.1486 16.5123 10.0989 16.5414 10.0567 16.5797C10.0145 16.618 9.98082 16.6647 9.95776 16.7168C9.93471 16.7689 9.92279 16.8253 9.92279 16.8823C9.92279 16.9392 9.93471 16.9956 9.95776 17.0477C9.98082 17.0998 10.0145 17.1465 10.0567 17.1848C10.0989 17.2231 10.1486 17.2522 10.2026 17.2702C10.2567 17.2881 10.3139 17.2946 10.3706 17.2891H11.1806C11.2374 17.2946 11.2946 17.2881 11.3487 17.2702C11.4027 17.2522 11.4524 17.2231 11.4946 17.1848C11.5368 17.1465 11.5705 17.0998 11.5935 17.0477C11.6166 16.9956 11.6285 16.9392 11.6285 16.8823C11.6285 16.8253 11.6166 16.7689 11.5935 16.7168C11.5705 16.6647 11.5368 16.618 11.4946 16.5797C11.4524 16.5414 11.4027 16.5123 11.3487 16.4944C11.2946 16.4764 11.2374 16.4699 11.1806 16.4754ZM10.3706 18.0992H11.1806C11.2374 18.0937 11.2946 18.1002 11.3487 18.1182C11.4027 18.1361 11.4524 18.1652 11.4946 18.2035C11.5368 18.2418 11.5705 18.2885 11.5935 18.3406C11.6166 18.3927 11.6285 18.4491 11.6285 18.506C11.6285 18.563 11.6166 18.6194 11.5935 18.6715C11.5705 18.7236 11.5368 18.7703 11.4946 18.8086C11.4524 18.8469 11.4027 18.876 11.3487 18.8939C11.2946 18.9119 11.2374 18.9184 11.1806 18.9129H10.3706C10.3139 18.9184 10.2567 18.9119 10.2026 18.8939C10.1486 18.876 10.0989 18.8469 10.0567 18.8086C10.0145 18.7703 9.98082 18.7236 9.95776 18.6715C9.93471 18.6194 9.92279 18.563 9.92279 18.506C9.92279 18.4491 9.93471 18.3927 9.95776 18.3406C9.98082 18.2885 10.0145 18.2418 10.0567 18.2035C10.0989 18.1652 10.1486 18.1361 10.2026 18.1182C10.2567 18.1002 10.3139 18.0937 10.3706 18.0992Z" fill="black"/>
</svg>
