<svg width="24" height="24" viewBox="0 0 24 24" fill="none" xmlns="http://www.w3.org/2000/svg">
<path fill-rule="evenodd" clip-rule="evenodd" d="M1.125 20.25H7.875C7.97446 20.25 8.06984 20.2895 8.14017 20.3598C8.21049 20.4302 8.25 20.5255 8.25 20.625C8.25 20.7245 8.21049 20.8198 8.14017 20.8902C8.06984 20.9605 7.97446 21 7.875 21H1.125C0.826631 21 0.540482 20.8815 0.329504 20.6705C0.118526 20.4595 0 20.1734 0 19.875V4.125C0 3.82663 0.118526 3.54049 0.329504 3.32951C0.540482 3.11853 0.826631 3 1.125 3H11.0962C11.3945 3.00026 11.6805 3.11896 11.8912 3.33L14.67 6.10875C14.881 6.31953 14.9997 6.60548 15 6.90375V9.375C15 9.47446 14.9605 9.56984 14.8902 9.64017C14.8198 9.7105 14.7245 9.75 14.625 9.75C14.5255 9.75 14.4302 9.7105 14.3598 9.64017C14.2895 9.56984 14.25 9.47446 14.25 9.375V6.90375C14.2496 6.80537 14.2105 6.71109 14.1412 6.64125L11.3588 3.85875C11.2889 3.78947 11.1946 3.75041 11.0962 3.75H1.125C1.02554 3.75 0.930161 3.78951 0.859835 3.85984C0.789509 3.93017 0.75 4.02554 0.75 4.125V19.875C0.75 19.9745 0.789509 20.0698 0.859835 20.1402C0.930161 20.2105 1.02554 20.25 1.125 20.25ZM3.375 7.5H8.625C8.72446 7.5 8.81984 7.4605 8.89017 7.39017C8.96049 7.31984 9 7.22446 9 7.125C9 7.02554 8.96049 6.93017 8.89017 6.85984C8.81984 6.78951 8.72446 6.75 8.625 6.75H3.375C3.27554 6.75 3.18016 6.78951 3.10983 6.85984C3.03951 6.93017 3 7.02554 3 7.125C3 7.22446 3.03951 7.31984 3.10983 7.39017C3.18016 7.4605 3.27554 7.5 3.375 7.5ZM10.7652 9.10984C10.8355 9.18017 10.875 9.27554 10.875 9.375C10.875 9.47446 10.8355 9.56984 10.7652 9.64017C10.6948 9.7105 10.5995 9.75 10.5 9.75H3.375C3.27554 9.75 3.18016 9.7105 3.10983 9.64017C3.03951 9.56984 3 9.47446 3 9.375C3 9.27554 3.03951 9.18017 3.10983 9.10984C3.18016 9.03951 3.27554 9 3.375 9H10.5C10.5995 9 10.6948 9.03951 10.7652 9.10984ZM8.14017 11.3598C8.21049 11.4302 8.25 11.5255 8.25 11.625C8.25 11.7245 8.21049 11.8198 8.14017 11.8902C8.06984 11.9605 7.97446 12 7.875 12H3.375C3.27554 12 3.18016 11.9605 3.10983 11.8902C3.03951 11.8198 3 11.7245 3 11.625C3 11.5255 3.03951 11.4302 3.10983 11.3598C3.18016 11.2895 3.27554 11.25 3.375 11.25H7.875C7.97446 11.25 8.06984 11.2895 8.14017 11.3598ZM3.375 13.5H6.375C6.47446 13.5 6.56984 13.5395 6.64017 13.6098C6.71049 13.6802 6.75 13.7755 6.75 13.875C6.75 13.9745 6.71049 14.0698 6.64017 14.1402C6.56984 14.2105 6.47446 14.25 6.375 14.25H3.375C3.27554 14.25 3.18016 14.2105 3.10983 14.1402C3.03951 14.0698 3 13.9745 3 13.875C3 13.7755 3.03951 13.6802 3.10983 13.6098C3.18016 13.5395 3.27554 13.5 3.375 13.5ZM6.375 15.75H3.375C3.27554 15.75 3.18016 15.7895 3.10983 15.8598C3.03951 15.9302 3 16.0255 3 16.125C3 16.2245 3.03951 16.3198 3.10983 16.3902C3.18016 16.4605 3.27554 16.5 3.375 16.5H6.375C6.47446 16.5 6.56984 16.4605 6.64017 16.3902C6.71049 16.3198 6.75 16.2245 6.75 16.125C6.75 16.0255 6.71049 15.9302 6.64017 15.8598C6.56984 15.7895 6.47446 15.75 6.375 15.75ZM13.125 11.25C12.1608 11.25 11.2183 11.5359 10.4166 12.0716C9.61491 12.6073 8.99007 13.3686 8.62109 14.2594C8.25211 15.1502 8.15557 16.1304 8.34367 17.0761C8.53178 18.0217 8.99608 18.8904 9.67786 19.5721C10.3596 20.2539 11.2283 20.7182 12.1739 20.9063C13.1196 21.0944 14.0998 20.9979 14.9906 20.6289C15.8814 20.2599 16.6427 19.6351 17.1784 18.8334C17.7141 18.0317 18 17.0892 18 16.125C18 14.8321 17.4864 13.5921 16.5721 12.6779C15.6579 11.7636 14.4179 11.25 13.125 11.25ZM13.125 20.25C12.3092 20.25 11.5116 20.0081 10.8333 19.5548C10.1549 19.1016 9.62621 18.4573 9.314 17.7036C9.00179 16.9498 8.9201 16.1204 9.07927 15.3203C9.23843 14.5201 9.63129 13.7851 10.2082 13.2082C10.7851 12.6313 11.5201 12.2384 12.3203 12.0793C13.1204 11.9201 13.9498 12.0018 14.7036 12.314C15.4573 12.6262 16.1016 13.1549 16.5548 13.8333C17.0081 14.5116 17.25 15.3092 17.25 16.125C17.25 17.219 16.8154 18.2682 16.0418 19.0418C15.2682 19.8154 14.219 20.25 13.125 20.25ZM13.2675 13.53C13.3139 13.5471 13.356 13.574 13.3912 13.6087L15.0787 15.2962C15.1139 15.3311 15.1418 15.3726 15.1608 15.4182C15.1799 15.4639 15.1897 15.513 15.1897 15.5625C15.1897 15.612 15.1799 15.661 15.1608 15.7067C15.1418 15.7524 15.1139 15.7939 15.0787 15.8287C15.0437 15.8635 15.0022 15.891 14.9565 15.9096C14.9108 15.9283 14.8619 15.9378 14.8125 15.9375C14.7631 15.9378 14.7142 15.9283 14.6685 15.9096C14.6228 15.891 14.5813 15.8635 14.5463 15.8287L13.5 14.7787V18.375C13.5 18.4744 13.4605 18.5698 13.3902 18.6401C13.3198 18.7105 13.2245 18.75 13.125 18.75C13.0255 18.75 12.9302 18.7105 12.8598 18.6401C12.7895 18.5698 12.75 18.4744 12.75 18.375V14.7787L11.7037 15.8287C11.6687 15.8635 11.6272 15.891 11.5815 15.9096C11.5358 15.9283 11.4869 15.9378 11.4375 15.9375C11.3881 15.9378 11.3392 15.9283 11.2935 15.9096C11.2478 15.891 11.2063 15.8635 11.1713 15.8287C11.1361 15.7939 11.1082 15.7524 11.0892 15.7067C11.0701 15.661 11.0603 15.612 11.0603 15.5625C11.0603 15.513 11.0701 15.4639 11.0892 15.4182C11.1082 15.3726 11.1361 15.3311 11.1713 15.2962L12.8588 13.6087C12.8952 13.5756 12.9371 13.549 12.9825 13.53C13.0738 13.4925 13.1762 13.4925 13.2675 13.53Z" fill="black"/>
</svg>
