<svg width="24" height="24" viewBox="0 0 24 24" fill="none" xmlns="http://www.w3.org/2000/svg">
<g clip-path="url(#clip0_914_3099)">
<path fill-rule="evenodd" clip-rule="evenodd" d="M23.67 3.33C23.4592 3.11896 23.1733 3.00026 22.875 3H7.125C6.82663 3 6.54048 3.11852 6.3295 3.3295C6.11852 3.54048 6 3.82663 6 4.125V6.375C5.99831 6.55811 6.06367 6.7355 6.18375 6.87374C6.30499 7.01275 6.47321 7.1022 6.65625 7.125C7.20124 7.19212 7.70286 7.45623 8.06663 7.86755C8.4304 8.27887 8.63119 8.80902 8.63119 9.35812C8.63119 9.90722 8.4304 10.4374 8.06663 10.8487C7.70286 11.26 7.20124 11.5241 6.65625 11.5913C6.47321 11.614 6.30499 11.7035 6.18375 11.8425C6.06452 11.9798 5.99923 12.1557 6 12.3375V14.6475C6 14.9459 6.11852 15.232 6.3295 15.443C6.54048 15.654 6.82663 15.7725 7.125 15.7725H12.75C12.8495 15.7725 12.9448 15.733 13.0152 15.6627C13.0855 15.5923 13.125 15.497 13.125 15.3975C13.125 15.298 13.0855 15.2027 13.0152 15.1323C12.9448 15.062 12.8495 15.0225 12.75 15.0225H7.125C7.07539 15.0223 7.0263 15.0122 6.9806 14.9929C6.9349 14.9736 6.89347 14.9454 6.85874 14.91C6.78946 14.8402 6.75042 14.7459 6.75 14.6475V12.3712C7.47979 12.2852 8.15261 11.9343 8.64086 11.3852C9.12911 10.836 9.39882 10.1267 9.39882 9.39187C9.39882 8.65703 9.12911 7.94775 8.64086 7.39857C8.15261 6.84939 7.47979 6.49852 6.75 6.4125V4.14375C6.75042 4.04537 6.78946 3.9511 6.85874 3.88125C6.89347 3.84582 6.9349 3.81763 6.9806 3.79832C7.0263 3.77901 7.07539 3.76895 7.125 3.76875H22.875C22.9745 3.76875 23.0698 3.80826 23.1402 3.87859C23.2105 3.94891 23.25 4.04429 23.25 4.14375V6.3975C22.854 6.44718 22.4716 6.57462 22.125 6.7725C21.7768 6.97466 21.4728 7.24486 21.2312 7.56699C20.9896 7.88912 20.8153 8.25659 20.7188 8.6475C20.619 9.03562 20.5973 9.43969 20.655 9.83625C20.6623 9.88503 20.6792 9.93189 20.7047 9.97413C20.7301 10.0164 20.7637 10.0532 20.8034 10.0825C20.8431 10.1117 20.8882 10.1329 20.9361 10.1447C20.984 10.1565 21.0337 10.1587 21.0825 10.1513C21.1313 10.1439 21.1781 10.127 21.2204 10.1016C21.2626 10.0761 21.2994 10.0426 21.3287 10.0029C21.358 9.96315 21.3791 9.91806 21.3909 9.87016C21.4027 9.82227 21.405 9.77251 21.3975 9.72375C21.3524 9.4275 21.3677 9.12518 21.4425 8.835C21.5137 8.54552 21.6412 8.27286 21.8175 8.03249C21.9997 7.79337 22.2279 7.59319 22.4887 7.44375C22.7472 7.29137 23.0345 7.19432 23.3325 7.15875C23.5147 7.13579 23.6822 7.04675 23.8032 6.90851C23.9242 6.77027 23.9902 6.59244 23.9887 6.40875V4.1325C23.9911 3.98433 23.9641 3.83717 23.9094 3.69945C23.8547 3.56173 23.7734 3.43618 23.67 3.33ZM16.4166 12.0716C17.2183 11.5359 18.1609 11.25 19.125 11.25C20.418 11.25 21.6579 11.7636 22.5722 12.6779C23.4864 13.5921 24 14.8321 24 16.125C24 17.0892 23.7141 18.0317 23.1784 18.8334C22.6428 19.6351 21.8814 20.2599 20.9906 20.6289C20.0998 20.9979 19.1196 21.0944 18.174 20.9063C17.2283 20.7182 16.3597 20.2539 15.6779 19.5721C14.9961 18.8904 14.5318 18.0217 14.3437 17.0761C14.1556 16.1304 14.2521 15.1502 14.6211 14.2594C14.9901 13.3686 15.6149 12.6073 16.4166 12.0716ZM16.8333 19.5548C17.5117 20.0081 18.3092 20.25 19.125 20.25V20.2725C19.6686 20.2725 20.2069 20.1651 20.7088 19.9564C21.2108 19.7477 21.6665 19.4418 22.0498 19.0564C22.4332 18.6709 22.7365 18.2135 22.9425 17.7105C23.1485 17.2074 23.253 16.6686 23.25 16.125C23.25 15.3092 23.0081 14.5116 22.5548 13.8333C22.1016 13.1549 21.4573 12.6262 20.7036 12.314C19.9499 12.0018 19.1205 11.9201 18.3203 12.0793C17.5201 12.2384 16.7851 12.6313 16.2082 13.2082C15.6313 13.7851 15.2384 14.5201 15.0793 15.3203C14.9201 16.1204 15.0018 16.9498 15.314 17.7036C15.6262 18.4573 16.1549 19.1015 16.8333 19.5548ZM19.5 15.7725H20.625C20.7245 15.7725 20.8199 15.812 20.8902 15.8824C20.9605 15.9527 21 16.0481 21 16.1475C21 16.247 20.9605 16.3424 20.8902 16.4127C20.8199 16.483 20.7245 16.5225 20.625 16.5225H19.125C19.0256 16.5225 18.9302 16.483 18.8599 16.4127C18.7895 16.3424 18.75 16.247 18.75 16.1475V13.8975C18.75 13.7981 18.7895 13.7027 18.8599 13.6324C18.9302 13.562 19.0256 13.5225 19.125 13.5225C19.2245 13.5225 19.3199 13.562 19.3902 13.6324C19.4605 13.7027 19.5 13.7981 19.5 13.8975V15.7725ZM18.5625 5.25C18.5625 5.56066 18.3107 5.8125 18 5.8125C17.6894 5.8125 17.4375 5.56066 17.4375 5.25C17.4375 4.93934 17.6894 4.6875 18 4.6875C18.3107 4.6875 18.5625 4.93934 18.5625 5.25ZM18 8.0625C18.3107 8.0625 18.5625 7.81066 18.5625 7.5C18.5625 7.18934 18.3107 6.9375 18 6.9375C17.6894 6.9375 17.4375 7.18934 17.4375 7.5C17.4375 7.81066 17.6894 8.0625 18 8.0625ZM18.5625 9.75C18.5625 10.0607 18.3107 10.3125 18 10.3125C17.6894 10.3125 17.4375 10.0607 17.4375 9.75C17.4375 9.43934 17.6894 9.1875 18 9.1875C18.3107 9.1875 18.5625 9.43934 18.5625 9.75Z" fill="black"/>
</g>
<defs>
<clipPath id="clip0_914_3099">
<rect width="24" height="24" fill="white"/>
</clipPath>
</defs>
</svg>
