<svg width="64" height="64" viewBox="0 0 64 64" fill="none" xmlns="http://www.w3.org/2000/svg">
<path fill-rule="evenodd" clip-rule="evenodd" d="M48.0625 9.5C48.5803 9.5 49 9.91973 49 10.4375V12.3125H56.5V10.4375C56.5 9.91973 56.9197 9.5 57.4375 9.5C57.9553 9.5 58.375 9.91973 58.375 10.4375V12.3125H61.1875C62.7408 12.3125 64 13.5717 64 15.125V19.8125V29.1875C64 30.7408 62.7408 32 61.1875 32H44.3125C42.7592 32 41.5 30.7408 41.5 29.1875V19.8125V15.125C41.5 13.5717 42.7592 12.3125 44.3125 12.3125H47.125V10.4375C47.125 9.91973 47.5447 9.5 48.0625 9.5ZM56.5 14.1875V15.125C56.5 15.6428 56.9197 16.0625 57.4375 16.0625C57.9553 16.0625 58.375 15.6428 58.375 15.125V14.1875H61.1875C61.7053 14.1875 62.125 14.6072 62.125 15.125V18.875H43.375V15.125C43.375 14.6072 43.7947 14.1875 44.3125 14.1875H47.125V15.125C47.125 15.6428 47.5447 16.0625 48.0625 16.0625C48.5803 16.0625 49 15.6428 49 15.125V14.1875H56.5ZM62.125 20.75H43.375V29.1875C43.375 29.7053 43.7947 30.125 44.3125 30.125H61.1875C61.7053 30.125 62.125 29.7053 62.125 29.1875V20.75ZM21.1496 33.2121C21.3254 33.0363 21.5639 32.9375 21.8125 32.9375H36.8125C37.3303 32.9375 37.75 32.5178 37.75 32C37.75 31.4822 37.3303 31.0625 36.8125 31.0625H21.8125C21.0666 31.0625 20.3512 31.3588 19.8238 31.8863C19.2963 32.4137 19 33.1291 19 33.875V51.6875C19 52.4334 19.2963 53.1488 19.8238 53.6762C20.3512 54.2037 21.0666 54.5 21.8125 54.5H59.3125C60.0584 54.5 60.7738 54.2037 61.3012 53.6762C61.8287 53.1488 62.125 52.4334 62.125 51.6875V36.6875C62.125 36.1697 61.7053 35.75 61.1875 35.75C60.6697 35.75 60.25 36.1697 60.25 36.6875V51.6875C60.25 51.9361 60.1512 52.1746 59.9754 52.3504C59.7996 52.5262 59.5611 52.625 59.3125 52.625H21.8125C21.5639 52.625 21.3254 52.5262 21.1496 52.3504C20.9738 52.1746 20.875 51.9361 20.875 51.6875V33.875C20.875 33.6264 20.9738 33.3879 21.1496 33.2121ZM26.4148 38.2999C26.7837 38.2921 27.1504 38.359 27.4928 38.4966C27.8352 38.6342 28.1462 38.8396 28.4071 39.1006C28.668 39.3615 28.8734 39.6725 29.011 40.0149C29.1486 40.3572 29.2155 40.7239 29.2077 41.0928C29.2067 41.1395 29.2092 41.1854 29.2148 41.2303C29.2077 41.3501 29.2052 41.4704 29.2075 41.5907V44.3839C29.2065 44.4382 29.2064 44.4925 29.2073 44.5467C29.1984 44.8705 29.1321 45.1905 29.011 45.4917C28.8734 45.834 28.668 46.1451 28.4071 46.406C28.1462 46.6669 27.8352 46.8723 27.4928 47.0099C27.1504 47.1475 26.7837 47.2144 26.4148 47.2066C25.8972 47.1956 25.4687 47.6064 25.4577 48.1241C25.4468 48.6417 25.8575 49.0702 26.3752 49.0812C26.9969 49.0943 27.6149 48.9816 28.1919 48.7497C28.769 48.5178 29.2931 48.1715 29.7329 47.7318C29.8812 47.5835 30.0189 47.4256 30.1451 47.2593C30.2713 47.4254 30.4089 47.5832 30.5571 47.7315C30.9968 48.1712 31.521 48.5174 32.098 48.7493C32.6751 48.9812 33.2931 49.094 33.9148 49.0808C34.4325 49.0699 34.8432 48.6414 34.8323 48.1237C34.8213 47.6061 34.3928 47.1953 33.8752 47.2063C33.5063 47.2141 33.1396 47.1472 32.7972 47.0096C32.4548 46.872 32.1438 46.6665 31.8829 46.4056C31.622 46.1447 31.4166 45.8337 31.279 45.4913C31.158 45.1902 31.0916 44.8703 31.0827 44.5466C31.0836 44.4926 31.0835 44.4386 31.0825 44.3845V41.5814L31.0823 41.5616C31.0745 41.1927 31.1414 40.826 31.279 40.4836C31.4166 40.1412 31.622 39.8302 31.8829 39.5693C32.1438 39.3084 32.4548 39.103 32.7972 38.9654C33.1396 38.8278 33.5063 38.7609 33.8752 38.7687C34.3928 38.7796 34.8213 38.3689 34.8323 37.8512C34.8432 37.3336 34.4325 36.9051 33.9148 36.8941C33.2931 36.8809 32.6751 36.9937 32.098 37.2256C31.521 37.4575 30.9968 37.8037 30.5571 38.2435C30.4754 38.3251 30.397 38.4097 30.3219 38.497C30.1509 38.2376 29.9537 37.9955 29.7329 37.7747C29.2931 37.335 28.769 36.9888 28.1919 36.7569C27.6149 36.525 26.9969 36.4122 26.3752 36.4253C25.8575 36.4363 25.4468 36.8648 25.4577 37.3825C25.4687 37.9001 25.8972 38.3109 26.4148 38.2999Z" fill="black"/>
</svg>
