<svg width="64" height="64" viewBox="0 0 64 64" fill="none" xmlns="http://www.w3.org/2000/svg">
<path fill-rule="evenodd" clip-rule="evenodd" d="M13 16H11C10.7348 16 10.4804 16.1053 10.2929 16.2929C10.1054 16.4804 10 16.7348 10 17V23C10 25.9174 11.1589 28.7153 13.2218 30.7782C14.3329 31.8893 15.6572 32.7381 17.0986 33.2849C17.2604 33.3009 17.4154 33.3562 17.5503 33.4451C18.6532 33.8094 19.8168 34 21 34C22.1832 34 23.3468 33.8094 24.4497 33.4451C24.5846 33.3562 24.7396 33.3009 24.9014 33.2849C26.3428 32.7381 27.6671 31.8893 28.7782 30.7782C30.8411 28.7153 32 25.9174 32 23V17C32 16.7348 31.8946 16.4804 31.7071 16.2929C31.5196 16.1053 31.2652 16 31 16H29H13ZM30 14V9C30 8.73478 29.8946 8.48041 29.7071 8.29288C29.5196 8.10534 29.2652 8 29 8C28.7348 8 28.4804 8.10534 28.2929 8.29288C28.1054 8.48041 28 8.73478 28 9V14H14V9C14 8.73478 13.8946 8.48041 13.7071 8.29288C13.5196 8.10534 13.2652 8 13 8C12.7348 8 12.4804 8.10534 12.2929 8.29288C12.1054 8.48041 12 8.73478 12 9V14H11C10.2044 14 9.44129 14.3161 8.87868 14.8787C8.31607 15.4413 8 16.2044 8 17V23C8 26.4478 9.36964 29.7544 11.8076 32.1924C13.0201 33.4048 14.4473 34.3531 16 35V39C16 39.7957 16.3161 40.5587 16.8787 41.1213C17.4413 41.6839 18.2044 42 19 42H20V47C20 49.3869 20.9482 51.6761 22.636 53.364C24.3239 55.0518 26.6131 56 29 56C31.3869 56 33.6761 55.0518 35.364 53.364C37.0518 51.6761 38 49.3869 38 47V45.5C38.0053 42.9821 39.0079 40.5688 40.7883 38.7883C42.5688 37.0079 44.9821 36.0053 47.5 36H55C55.2652 36 55.5196 35.8946 55.7071 35.7071C55.8946 35.5196 56 35.2652 56 35C56 34.7348 55.8946 34.4804 55.7071 34.2929C55.5196 34.1053 55.2652 34 55 34H47.5C44.4516 34.0053 41.5296 35.2186 39.3741 37.3741C37.2186 39.5296 36.0053 42.4516 36 45.5V47C36 48.8565 35.2625 50.637 33.9497 51.9497C32.637 53.2625 30.8565 54 29 54C27.1435 54 25.363 53.2625 24.0503 51.9497C22.7375 50.637 22 48.8565 22 47V42H23C23.3974 42.0001 23.7908 41.9212 24.1574 41.7679C24.524 41.6147 24.8565 41.3901 25.1356 41.1073C25.4147 40.8244 25.6348 40.489 25.7832 40.1204C25.9316 39.7518 26.0053 39.3573 26 38.96V35C27.5673 34.3469 28.9916 33.3931 30.1924 32.1924C31.3996 30.9852 32.3571 29.5521 33.0104 27.9749C33.6637 26.3977 34 24.7072 34 23V17C34 16.2044 33.6839 15.4413 33.1213 14.8787C32.5587 14.3161 31.7956 14 31 14H30ZM24 35.6491C23.0193 35.8817 22.0126 36 21 36C19.9814 36 18.9752 35.8805 18 35.6492V38.96C18 39.2252 18.1054 39.4796 18.2929 39.6671C18.4804 39.8547 18.7348 39.96 19 39.96H23C23.2652 39.96 23.5196 39.8547 23.7071 39.6671C23.8946 39.4796 24 39.2252 24 38.96V35.6491ZM25 22H17C16.7348 22 16.4804 21.8946 16.2929 21.7071C16.1054 21.5196 16 21.2652 16 21C16 20.7348 16.1054 20.4804 16.2929 20.2929C16.4804 20.1053 16.7348 20 17 20H25C25.2652 20 25.5196 20.1053 25.7071 20.2929C25.8946 20.4804 26 20.7348 26 21C26 21.2652 25.8946 21.5196 25.7071 21.7071C25.5196 21.8946 25.2652 22 25 22Z" fill="black"/>
</svg>
