<svg width="24" height="24" viewBox="0 0 24 24" fill="none" xmlns="http://www.w3.org/2000/svg">
<path fill-rule="evenodd" clip-rule="evenodd" d="M6.97125 16.8425C7.02024 16.8634 7.07235 16.8744 7.125 16.875C7.21744 16.8759 7.30692 16.8397 7.37625 16.7734L10.6462 13.625H13.875C14.7701 13.625 15.6285 13.2398 16.2615 12.5541C16.8944 11.8684 17.25 10.9384 17.25 9.96875V5.90625C17.25 4.93655 16.8944 4.00657 16.2615 3.32089C15.6285 2.63521 14.7701 2.25 13.875 2.25H6.375C5.47989 2.25 4.62145 2.63521 3.98851 3.32089C3.35558 4.00657 3 4.93655 3 5.90625V9.96875C3 10.9384 3.35558 11.8684 3.98851 12.5541C4.62145 13.2398 5.47989 13.625 6.375 13.625H6.75V16.4688C6.74942 16.5476 6.77004 16.6249 6.80932 16.6913C6.84861 16.7576 6.90487 16.8102 6.97125 16.8425ZM4.51885 3.89542C5.01113 3.36211 5.67881 3.0625 6.375 3.0625H13.875C14.5712 3.0625 15.2389 3.36211 15.7312 3.89542C16.2234 4.42873 16.5 5.15204 16.5 5.90625V9.96875C16.5 10.723 16.2234 11.4463 15.7312 11.9796C15.2389 12.5129 14.5712 12.8125 13.875 12.8125H10.5C10.4071 12.8128 10.3175 12.8504 10.2488 12.9181L7.5 15.5669V13.2188C7.5 13.111 7.46049 13.0077 7.39017 12.9315C7.31984 12.8553 7.22446 12.8125 7.125 12.8125H6.375C5.67881 12.8125 5.01113 12.5129 4.51885 11.9796C4.02656 11.4463 3.75 10.723 3.75 9.96875V5.90625C3.75 5.15204 4.02656 4.42873 4.51885 3.89542ZM17.481 21.7198C17.5267 21.7401 17.5756 21.7503 17.625 21.75C17.6737 21.7501 17.722 21.7404 17.7675 21.7216C17.8366 21.6908 17.8956 21.6384 17.937 21.5711C17.9784 21.5038 18.0004 21.4246 18 21.3438V19.3125H18.75C19.3467 19.3125 19.919 19.0557 20.341 18.5986C20.7629 18.1415 21 17.5215 21 16.875V14.4375C21 13.791 20.7629 13.171 20.341 12.7139C19.919 12.2568 19.3467 12 18.75 12H18.375C18.2755 12 18.1802 12.0428 18.1098 12.119C18.0395 12.1952 18 12.2985 18 12.4062C18 12.514 18.0395 12.6173 18.1098 12.6935C18.1802 12.7697 18.2755 12.8125 18.375 12.8125H18.75C19.1478 12.8125 19.5294 12.9837 19.8107 13.2885C20.092 13.5932 20.25 14.0065 20.25 14.4375V16.875C20.25 17.306 20.092 17.7193 19.8107 18.024C19.5294 18.3288 19.1478 18.5 18.75 18.5H17.625C17.5255 18.5 17.4302 18.5428 17.3598 18.619C17.2895 18.6952 17.25 18.7985 17.25 18.9063V20.3647L15.6375 18.6219C15.5683 18.5453 15.4739 18.5015 15.375 18.5H13.5C13.1022 18.5 12.7206 18.3288 12.4393 18.024C12.158 17.7193 12 17.306 12 16.875V15.6562C12 15.5485 11.9605 15.4452 11.8902 15.369C11.8198 15.2928 11.7245 15.25 11.625 15.25C11.5255 15.25 11.4302 15.2928 11.3598 15.369C11.2895 15.4452 11.25 15.5485 11.25 15.6562V16.875C11.25 17.5215 11.4871 18.1415 11.909 18.5986C12.331 19.0557 12.9033 19.3125 13.5 19.3125H15.2175L17.3588 21.6322C17.3938 21.6698 17.4353 21.6996 17.481 21.7198Z" fill="black"/>
</svg>
