<svg width="24" height="24" viewBox="0 0 24 24" fill="none" xmlns="http://www.w3.org/2000/svg">
<g clip-path="url(#clip0_937_1129)">
<path fill-rule="evenodd" clip-rule="evenodd" d="M13.3418 3.68505C13.5252 3.74086 13.6286 3.93476 13.5728 4.11814L8.7138 20.0834C8.65799 20.2667 8.46409 20.3702 8.28072 20.3144C8.09734 20.2585 7.99393 20.0646 8.04974 19.8813L12.9087 3.91603C12.9645 3.73265 13.1584 3.62924 13.3418 3.68505Z" fill="#000001"/>
<path fill-rule="evenodd" clip-rule="evenodd" d="M21.8095 13.9264C21.9929 13.8706 22.1868 13.974 22.2426 14.1574L23.9849 19.8813C24.0407 20.0646 23.9373 20.2585 23.7539 20.3143C23.5706 20.3702 23.3766 20.2668 23.3208 20.0834L21.5785 14.3595C21.5227 14.1761 21.6261 13.9822 21.8095 13.9264Z" fill="#000001"/>
<path fill-rule="evenodd" clip-rule="evenodd" d="M16.0173 16.8587C16.209 16.8587 16.3644 17.0141 16.3644 17.2058V19.9823C16.3644 20.174 16.209 20.3294 16.0173 20.3294C15.8256 20.3294 15.6702 20.174 15.6702 19.9823V17.2058C15.6702 17.0141 15.8256 16.8587 16.0173 16.8587Z" fill="#000001"/>
<path fill-rule="evenodd" clip-rule="evenodd" d="M16.0173 13.388C16.209 13.388 16.3644 13.5434 16.3644 13.7351V15.1233C16.3644 15.315 16.209 15.4704 16.0173 15.4704C15.8256 15.4704 15.6702 15.315 15.6702 15.1233V13.7351C15.6702 13.5434 15.8256 13.388 16.0173 13.388Z" fill="#000001"/>
<path fill-rule="evenodd" clip-rule="evenodd" d="M16.0173 3.67001C16.209 3.67001 16.3644 3.8254 16.3644 4.01708V5.40536C16.3644 5.59705 16.209 5.75244 16.0173 5.75244C15.8256 5.75244 15.6702 5.59705 15.6702 5.40536V4.01708C15.6702 3.8254 15.8256 3.67001 16.0173 3.67001Z" fill="#000001"/>
<path fill-rule="evenodd" clip-rule="evenodd" d="M18.8559 5.75244C18.4373 5.75186 18.0227 5.83381 17.6358 5.9936C17.2489 6.15339 16.8973 6.38788 16.6011 6.68367C16.3049 6.97945 16.0699 7.33073 15.9096 7.7174C15.7493 8.10407 15.6668 8.51856 15.6668 8.93715C15.6668 9.268 15.7948 9.71689 16.0303 10.2468C16.2622 10.7686 16.583 11.3358 16.9342 11.8929C17.6365 13.0066 18.4431 14.0524 18.8539 14.5694L18.8545 14.5687C19.2655 14.0541 20.072 13.0084 20.7741 11.8943C21.1253 11.337 21.4459 10.7695 21.6777 10.2474C21.9131 9.7172 22.0411 9.26806 22.0411 8.93715C22.0411 8.51893 21.9587 8.1048 21.7986 7.71841C21.6386 7.33203 21.404 6.98095 21.1083 6.68522C20.8126 6.38949 20.4615 6.1549 20.0751 5.99486C19.6887 5.83481 19.2746 5.75244 18.8563 5.75244C18.8562 5.75244 18.856 5.75244 18.8559 5.75244ZM18.8568 5.0583C18.347 5.05759 17.842 5.15741 17.3708 5.35202C16.8996 5.54664 16.4714 5.83224 16.1106 6.1925C15.7499 6.55275 15.4637 6.98059 15.2684 7.45154C15.0731 7.9225 14.9726 8.42732 14.9726 8.93715C14.9726 9.41602 15.149 9.97286 15.3959 10.5286C15.6465 11.0924 15.9862 11.6908 16.3471 12.2632C17.0692 13.4084 17.8938 14.4769 18.3104 15.0012M18.8568 5.0583C19.366 5.05836 19.8703 5.15869 20.3407 5.35356C20.8113 5.54849 21.2389 5.8342 21.5991 6.19439C21.9593 6.55457 22.245 6.98217 22.4399 7.45278C22.6349 7.92338 22.7352 8.42777 22.7352 8.93715C22.7352 9.41595 22.559 9.97297 22.3121 10.529C22.0617 11.0931 21.7222 11.6918 21.3613 12.2644C20.6394 13.4101 19.8147 14.4788 19.3969 15.0019C19.332 15.0834 19.2495 15.1492 19.1557 15.1945C19.0616 15.2399 18.9584 15.2635 18.8539 15.2635C18.7494 15.2635 18.6463 15.2399 18.5522 15.1945C18.4581 15.1491 18.3754 15.083 18.3104 15.0012" fill="#000001"/>
<path fill-rule="evenodd" clip-rule="evenodd" d="M19.2309 8.03405C19.1122 7.98497 18.985 7.95973 18.8565 7.9598C18.6631 7.9599 18.474 8.01736 18.3132 8.12492C18.1525 8.23247 18.0272 8.38529 17.9533 8.56404C17.8793 8.74279 17.8601 8.93945 17.8979 9.12916C17.9357 9.31886 18.029 9.49308 18.1658 9.62979C18.3027 9.7665 18.477 9.85956 18.6667 9.8972C18.8565 9.93484 19.0531 9.91536 19.2318 9.84124C19.4105 9.76712 19.5632 9.64169 19.6705 9.48079C19.7779 9.3199 19.8352 9.13077 19.8351 8.93733C19.835 8.8089 19.8097 8.68173 19.7604 8.56309C19.7112 8.44445 19.6391 8.33667 19.5483 8.2459C19.4574 8.15513 19.3495 8.08314 19.2309 8.03405ZM18.8562 7.26566C19.0758 7.26555 19.2932 7.30868 19.4962 7.39261C19.6991 7.47654 19.8835 7.59962 20.0388 7.75481C20.1942 7.91001 20.3175 8.09429 20.4016 8.29712C20.4857 8.49995 20.5291 8.71738 20.5292 8.93697C20.5294 9.2677 20.4315 9.59105 20.2479 9.86613C20.0643 10.1412 19.8033 10.3557 19.4978 10.4824C19.1923 10.6091 18.8561 10.6424 18.5317 10.5781C18.2073 10.5137 17.9092 10.3546 17.6753 10.1209C17.4413 9.88714 17.2819 9.58927 17.2172 9.26493C17.1525 8.94059 17.1854 8.60436 17.3118 8.29874C17.4382 7.99312 17.6524 7.73185 17.9273 7.54796C18.2022 7.36408 18.5254 7.26583 18.8562 7.26566Z" fill="#000001"/>
</g>
<defs>
<clipPath id="clip0_937_1129">
<rect width="24" height="24" fill="white"/>
</clipPath>
</defs>
</svg>
