<svg width="64" height="64" viewBox="0 0 64 64" fill="none" xmlns="http://www.w3.org/2000/svg">
<g clip-path="url(#clip0_904_1162)">
<path fill-rule="evenodd" clip-rule="evenodd" d="M35.8457 39.2772C37.4618 38.6316 38.7855 37.4165 39.5667 35.8615C40.3479 34.3064 40.5325 32.5191 40.0857 30.8372C41.1678 30.2135 42.0664 29.3158 42.6913 28.2344C43.3162 27.153 43.6451 25.9261 43.6451 24.6772C43.6451 23.4283 43.3162 22.2014 42.6913 21.12C42.0664 20.0386 41.1678 19.1409 40.0857 18.5172C40.4061 17.3117 40.4042 16.0431 40.0801 14.8386C39.7561 13.634 39.1212 12.5357 38.2392 11.6537C37.3572 10.7717 36.2589 10.1368 35.0543 9.81275C33.8498 9.48869 32.5812 9.48678 31.3757 9.8072C30.5136 8.33636 29.1517 7.22426 27.5383 6.67359C25.9248 6.12292 24.1671 6.17033 22.5857 6.8072C21.1112 7.38763 19.8725 8.44336 19.0657 9.8072C17.4214 9.3631 15.6724 9.52231 14.1353 10.256C12.5982 10.9897 11.3745 12.2494 10.6857 13.8072C10.056 15.2792 9.9363 16.9194 10.3457 18.4672C8.87717 19.329 7.76668 20.6891 7.21614 22.3004C6.6656 23.9116 6.71157 25.667 7.34569 27.2472C7.92423 28.7254 8.98015 29.9678 10.3457 30.7772C10.0253 31.9827 10.0272 33.2513 10.3513 34.4558C10.6753 35.6604 11.3102 36.7587 12.1922 37.6407C13.0742 38.5227 14.1725 39.1576 15.3771 39.4816C16.5816 39.8057 17.8502 39.8076 19.0557 39.4872C19.8095 40.8268 20.9832 41.881 22.3957 42.4872C23.2512 42.8629 24.1733 43.0636 25.1076 43.0773C26.0419 43.0911 26.9695 42.9176 27.8357 42.5672C29.3199 41.9731 30.5625 40.8994 31.3657 39.5172C32.8455 39.9257 34.418 39.8415 35.8457 39.2772ZM30.4057 37.1972C30.2718 37.2547 30.1508 37.3383 30.0495 37.443C29.9482 37.5477 29.8687 37.6715 29.8157 37.8072C29.448 38.7251 28.8137 39.5119 27.9947 40.0661C27.1757 40.6202 26.2095 40.9164 25.2207 40.9164C24.2318 40.9164 23.2657 40.6202 22.4467 40.0661C21.6277 39.5119 20.9934 38.7251 20.6257 37.8072C20.5726 37.6715 20.4932 37.5477 20.3919 37.443C20.2906 37.3383 20.1695 37.2547 20.0357 37.1972C19.9013 37.1466 19.7593 37.1195 19.6157 37.1172C19.4678 37.1182 19.3216 37.1488 19.1857 37.2072C18.2763 37.5971 17.271 37.7055 16.2995 37.5184C15.3279 37.3314 14.4346 36.8575 13.735 36.1578C13.0354 35.4582 12.5615 34.565 12.3745 33.5935C12.1874 32.6219 12.2958 31.6165 12.6857 30.7072C12.7426 30.5727 12.772 30.4282 12.772 30.2822C12.772 30.1362 12.7426 29.9916 12.6857 29.8572C12.6281 29.7233 12.5446 29.6023 12.4399 29.501C12.3352 29.3997 12.2114 29.3202 12.0757 29.2672C11.4513 29.0157 10.8841 28.6408 10.4081 28.1648C9.93215 27.6888 9.55719 27.1216 9.30571 26.4972C8.83684 25.2774 8.86419 23.9224 9.38191 22.7225C9.89964 21.5226 10.8666 20.573 12.0757 20.0772C12.2114 20.0241 12.3352 19.9447 12.4399 19.8434C12.5446 19.7421 12.6281 19.621 12.6857 19.4872C12.7426 19.3527 12.772 19.2082 12.772 19.0622C12.772 18.9162 12.7426 18.7716 12.6857 18.6372C12.2941 17.7268 12.1849 16.7198 12.372 15.7466C12.5592 14.7734 13.0342 13.8788 13.7355 13.1786C14.4368 12.4783 15.3321 12.0047 16.3056 11.8191C17.2791 11.6334 18.2859 11.7442 19.1957 12.1372C19.3285 12.1938 19.4713 12.2231 19.6157 12.2231C19.7601 12.2231 19.9029 12.1938 20.0357 12.1372C20.1692 12.0817 20.2902 12.0001 20.3915 11.897C20.4929 11.7939 20.5725 11.6716 20.6257 11.5372C20.9918 10.6161 21.6259 9.82614 22.4461 9.26957C23.2662 8.71299 24.2345 8.41544 25.2257 8.41544C26.2169 8.41544 27.1852 8.71299 28.0053 9.26957C28.8255 9.82614 29.4596 10.6161 29.8257 11.5372C29.9369 11.8063 30.1485 12.0215 30.4157 12.1372C30.5485 12.1938 30.6913 12.2231 30.8357 12.2231C30.9801 12.2231 31.1229 12.1938 31.2557 12.1372C31.8754 11.8731 32.5421 11.737 33.2157 11.737C33.8893 11.737 34.556 11.8731 35.1757 12.1372C36.3718 12.6665 37.3129 13.6436 37.7971 14.8587C38.2813 16.0738 38.27 17.4303 37.7657 18.6372C37.707 18.7701 37.6758 18.9135 37.6739 19.0588C37.6719 19.2041 37.6993 19.3483 37.7544 19.4827C37.8095 19.6171 37.8911 19.7391 37.9945 19.8412C38.0978 19.9434 38.2206 20.0236 38.3557 20.0772C39.2796 20.4389 40.0723 21.072 40.6293 21.8932C41.1862 22.7143 41.4813 23.685 41.4757 24.6772C41.4779 25.6674 41.1813 26.6352 40.6247 27.4541C40.068 28.273 39.2772 28.9049 38.3557 29.2672C38.22 29.3202 38.0962 29.3997 37.9915 29.501C37.8868 29.6023 37.8033 29.7233 37.7457 29.8572C37.6888 29.9916 37.6594 30.1362 37.6594 30.2822C37.6594 30.4282 37.6888 30.5727 37.7457 30.7072C38.0084 31.3255 38.1438 31.9904 38.1438 32.6622C38.1438 33.334 38.0084 33.9989 37.7457 34.6172C37.2164 35.8133 36.2393 36.7544 35.0242 37.2386C33.8091 37.7228 32.4526 37.7115 31.2457 37.2072C30.9772 37.0971 30.6768 37.0935 30.4057 37.1972ZM43.4158 37.4173L50.1958 49.1573L50.1658 49.1873C50.3508 49.4459 50.4507 49.7557 50.4516 50.0736C50.4524 50.3916 50.3542 50.702 50.1705 50.9615C49.9868 51.2211 49.7269 51.417 49.4267 51.5219C49.1266 51.6269 48.8012 51.6358 48.4958 51.5473L42.1257 50.4673L39.9158 56.5573C39.8323 56.8606 39.6601 57.1321 39.4214 57.3369C39.1827 57.5418 38.8882 57.6708 38.5758 57.7073H38.5158C38.2233 57.7011 37.9382 57.6148 37.6914 57.4579C37.4446 57.301 37.2455 57.0794 37.1158 56.8173L30.6158 45.8173C30.5421 45.6955 30.4935 45.5603 30.4728 45.4196C30.4521 45.2788 30.4596 45.1353 30.495 44.9975C30.5304 44.8596 30.5929 44.7303 30.6788 44.6169C30.7648 44.5036 30.8726 44.4085 30.9958 44.3373C31.243 44.1939 31.5367 44.1534 31.8135 44.2245C32.0903 44.2956 32.3281 44.4726 32.4758 44.7173L38.3658 54.6673L40.4758 48.8673C40.5614 48.6307 40.7276 48.4319 40.9452 48.3057C41.1628 48.1795 41.4179 48.134 41.6658 48.1773L47.7458 49.1773L41.5758 38.4973C41.4767 38.3767 41.405 38.236 41.3655 38.085C41.3261 37.934 41.3198 37.7762 41.3472 37.6225C41.3746 37.4689 41.4349 37.323 41.5241 37.1949C41.6133 37.0668 41.7291 36.9595 41.8638 36.8805C41.9984 36.8015 42.1485 36.7526 42.3038 36.7372C42.4591 36.7218 42.6159 36.7402 42.7634 36.7913C42.9109 36.8423 43.0456 36.9246 43.1582 37.0327C43.2709 37.1408 43.3587 37.272 43.4158 37.4173ZM18.678 44.2144C18.9548 44.1433 19.2485 44.1838 19.4958 44.3271C19.7351 44.4694 19.9109 44.6978 19.9871 44.9656C20.0633 45.2333 20.0342 45.5201 19.9057 45.7671L13.4057 56.7671C13.2735 57.0293 13.0724 57.2507 12.824 57.4074C12.5757 57.5642 12.2894 57.6505 11.9958 57.6571H11.8658C11.5533 57.6206 11.2588 57.4917 11.0201 57.2868C10.7814 57.0819 10.6092 56.8104 10.5258 56.5071L8.31573 50.4171L1.92575 51.4971C1.62261 51.5718 1.30431 51.5567 1.00958 51.4537C0.714854 51.3508 0.456414 51.1643 0.265747 50.9171C0.0923249 50.6508 0 50.3399 0 50.0221C0 49.7043 0.0923249 49.3934 0.265747 49.1271L7.03574 37.3971C7.10665 37.2737 7.20118 37.1654 7.31393 37.0785C7.42669 36.9916 7.55547 36.9277 7.6929 36.8906C7.83033 36.8534 7.97375 36.8437 8.11493 36.862C8.25611 36.8803 8.3923 36.9262 8.51575 36.9971C8.63919 37.068 8.74744 37.1625 8.83435 37.2753C8.92126 37.3881 8.98513 37.5168 9.02228 37.6543C9.05942 37.7917 9.06912 37.9351 9.05084 38.0763C9.03257 38.2174 8.98666 38.3536 8.91574 38.4771L2.74576 49.1571L8.82574 48.1571C9.07338 48.1159 9.32763 48.1622 9.5448 48.2881C9.76197 48.4141 9.9285 48.6117 10.0157 48.8471L12.1357 54.6471L18.0157 44.7071C18.1634 44.4624 18.4012 44.2854 18.678 44.2144ZM33.8907 18.1733C34.177 18.1733 34.4518 18.286 34.6557 18.4869C34.7579 18.5874 34.8391 18.7072 34.8945 18.8394C34.9499 18.9716 34.9784 19.1135 34.9784 19.2569C34.9784 19.4002 34.9499 19.5421 34.8945 19.6743C34.8391 19.8065 34.7579 19.9264 34.6557 20.0269L24.4357 30.2469C24.1845 30.5006 23.8854 30.7019 23.5558 30.8392C23.2263 30.9765 22.8727 31.0471 22.5157 31.0469C22.1604 31.0458 21.8087 30.9746 21.481 30.8373C21.1532 30.7 20.8558 30.4994 20.6057 30.2469L16.8757 26.5269C16.6742 26.3213 16.5613 26.0448 16.5613 25.7569C16.5613 25.4689 16.6742 25.1925 16.8757 24.9869C17.0796 24.786 17.3544 24.6733 17.6407 24.6733C17.927 24.6733 18.2018 24.786 18.4057 24.9869L22.1357 28.7169C22.186 28.768 22.2459 28.8086 22.312 28.8363C22.3781 28.864 22.4491 28.8782 22.5207 28.8782C22.5924 28.8782 22.6633 28.864 22.7294 28.8363C22.7955 28.8086 22.8554 28.768 22.9057 28.7169L33.1257 18.4869C33.3296 18.286 33.6044 18.1733 33.8907 18.1733Z" fill="black"/>
</g>
<defs>
<clipPath id="clip0_904_1162">
<rect width="64" height="64" fill="white"/>
</clipPath>
</defs>
</svg>
