<svg width="64" height="64" viewBox="0 0 64 64" fill="none" xmlns="http://www.w3.org/2000/svg">
<path fill-rule="evenodd" clip-rule="evenodd" d="M62 54H63C63.2652 54 63.5196 54.1054 63.7071 54.2929C63.8946 54.4804 64 54.7348 64 55C64 55.2652 63.8946 55.5196 63.7071 55.7071C63.5196 55.8947 63.2652 56 63 56H17C16.7348 56 16.4804 55.8947 16.2929 55.7071C16.1053 55.5196 16 55.2652 16 55C16 54.7348 16.1053 54.4804 16.2929 54.2929C16.4804 54.1054 16.7348 54 17 54H18V36C18 35.4696 18.2107 34.9609 18.5858 34.5858C18.9609 34.2107 19.4696 34 20 34H24V33C24 32.7348 24.1053 32.4804 24.2929 32.2929C24.4804 32.1054 24.7348 32 25 32C25.2652 32 25.5196 32.1054 25.7071 32.2929C25.8946 32.4804 26 32.7348 26 33V34C26.5304 34 27.0391 34.2107 27.4142 34.5858C27.7893 34.9609 28 35.4696 28 36V54H30V19C30 18.2044 30.3161 17.4413 30.8787 16.8787C31.4413 16.3161 32.2044 16 33 16H36V14C36 13.4696 36.2107 12.9609 36.5858 12.5858C36.9609 12.2107 37.4696 12 38 12H40V9C40 8.73478 40.1053 8.48044 40.2929 8.29291C40.4804 8.10537 40.7348 8 41 8C41.2652 8 41.5196 8.10537 41.7071 8.29291C41.8946 8.48044 42 8.73478 42 9V12C42.5304 12 43.0391 12.2107 43.4142 12.5858C43.7893 12.9609 44 13.4696 44 14V16H47C47.7956 16 48.5587 16.3161 49.1213 16.8787C49.6839 17.4413 50 18.2044 50 19V54H52V36C52 35.4696 52.2107 34.9609 52.5858 34.5858C52.9609 34.2107 53.4696 34 54 34V33C54 32.7348 54.1053 32.4804 54.2929 32.2929C54.4804 32.1054 54.7348 32 55 32C55.2652 32 55.5196 32.1054 55.7071 32.2929C55.8946 32.4804 56 32.7348 56 33V34H60C60.5304 34 61.0391 34.2107 61.4142 34.5858C61.7893 34.9609 62 35.4696 62 36V54ZM60 36H54V54H60V36ZM42 16V14H38V16H42ZM32.2929 18.2929C32.1053 18.4804 32 18.7348 32 19V54H48V19C48 18.7348 47.8946 18.4804 47.7071 18.2929C47.5196 18.1054 47.2652 18 47 18H33C32.7348 18 32.4804 18.1054 32.2929 18.2929ZM26 36H20V54H26V36ZM34.2929 22.2929C34.4804 22.1054 34.7348 22 35 22H45C45.2652 22 45.5196 22.1054 45.7071 22.2929C45.8946 22.4804 46 22.7348 46 23C46 23.2652 45.8946 23.5196 45.7071 23.7071C45.5196 23.8947 45.2652 24 45 24H35C34.7348 24 34.4804 23.8947 34.2929 23.7071C34.1053 23.5196 34 23.2652 34 23C34 22.7348 34.1053 22.4804 34.2929 22.2929ZM35 28C34.7348 28 34.4804 28.1054 34.2929 28.2929C34.1053 28.4804 34 28.7348 34 29C34 29.2652 34.1053 29.5196 34.2929 29.7071C34.4804 29.8947 34.7348 30 35 30H45C45.2652 30 45.5196 29.8947 45.7071 29.7071C45.8946 29.5196 46 29.2652 46 29C46 28.7348 45.8946 28.4804 45.7071 28.2929C45.5196 28.1054 45.2652 28 45 28H35ZM34.2929 34.2929C34.4804 34.1054 34.7348 34 35 34H45C45.2652 34 45.5196 34.1054 45.7071 34.2929C45.8946 34.4804 46 34.7348 46 35C46 35.2652 45.8946 35.5196 45.7071 35.7071C45.5196 35.8947 45.2652 36 45 36H35C34.7348 36 34.4804 35.8947 34.2929 35.7071C34.1053 35.5196 34 35.2652 34 35C34 34.7348 34.1053 34.4804 34.2929 34.2929ZM35 40C34.7348 40 34.4804 40.1054 34.2929 40.2929C34.1053 40.4804 34 40.7348 34 41C34 41.2652 34.1053 41.5196 34.2929 41.7071C34.4804 41.8947 34.7348 42 35 42H45C45.2652 42 45.5196 41.8947 45.7071 41.7071C45.8946 41.5196 46 41.2652 46 41C46 40.7348 45.8946 40.4804 45.7071 40.2929C45.5196 40.1054 45.2652 40 45 40H35ZM34.2929 46.2929C34.4804 46.1054 34.7348 46 35 46H45C45.2652 46 45.5196 46.1054 45.7071 46.2929C45.8946 46.4804 46 46.7348 46 47C46 47.2652 45.8946 47.5196 45.7071 47.7071C45.5196 47.8947 45.2652 48 45 48H35C34.7348 48 34.4804 47.8947 34.2929 47.7071C34.1053 47.5196 34 47.2652 34 47C34 46.7348 34.1053 46.4804 34.2929 46.2929Z" fill="black"/>
</svg>
