<svg width="24" height="24" viewBox="0 0 24 24" fill="none" xmlns="http://www.w3.org/2000/svg">
<g clip-path="url(#clip0_914_3091)">
<path fill-rule="evenodd" clip-rule="evenodd" d="M23.3035 3.08525C23.4406 3.14188 23.5652 3.22506 23.67 3.33001C23.8765 3.53617 23.9948 3.8145 24 4.10626V6.37876C24.0017 6.56186 23.9363 6.73927 23.8162 6.87751C23.6959 7.01571 23.5292 7.10508 23.3475 7.12876C22.8993 7.18453 22.4783 7.37388 22.1392 7.67217C21.8002 7.97045 21.5587 8.36388 21.4462 8.80127C21.3717 9.09276 21.3564 9.39625 21.4012 9.69377C21.4156 9.79322 21.39 9.89433 21.3298 9.97486C21.2697 10.0554 21.18 10.1087 21.0806 10.1231C20.9811 10.1375 20.88 10.1119 20.7995 10.0517C20.719 9.99161 20.6656 9.90197 20.6512 9.80251C20.5931 9.40791 20.6142 9.00569 20.7134 8.61935C20.8125 8.23301 20.9877 7.87033 21.2287 7.55251C21.4702 7.23337 21.7731 6.96577 22.1196 6.76548C22.4661 6.56518 22.8491 6.43626 23.2462 6.38626V4.11001C23.2462 4.01056 23.2067 3.91517 23.1364 3.84484C23.0661 3.77451 22.9707 3.73501 22.8712 3.73501H7.12122C7.02176 3.73501 6.92638 3.77451 6.85605 3.84484C6.78572 3.91517 6.74622 4.01056 6.74622 4.11001V6.37876C7.47287 6.46826 8.1417 6.8204 8.62673 7.36883C9.11175 7.91726 9.37948 8.62412 9.37948 9.35626C9.37948 10.0884 9.11175 10.7953 8.62673 11.3437C8.1417 11.8921 7.47287 12.2443 6.74622 12.3338V14.61C6.74622 14.7095 6.78572 14.8048 6.85605 14.8752C6.92638 14.9455 7.02176 14.985 7.12122 14.985H12.7462C12.8457 14.985 12.9411 15.0245 13.0114 15.0949C13.0817 15.1652 13.1212 15.2606 13.1212 15.36C13.1212 15.4595 13.0817 15.5548 13.0114 15.6252C12.9411 15.6955 12.8457 15.735 12.7462 15.735H7.12122C6.82285 15.735 6.5367 15.6165 6.32572 15.4055C6.11474 15.1945 5.99622 14.9084 5.99622 14.61V12.3375C5.99726 12.1542 6.06376 11.9773 6.18372 11.8388C6.30464 11.7019 6.4713 11.614 6.65247 11.5913C7.19746 11.5241 7.69908 11.26 8.06285 10.8487C8.42662 10.4374 8.62741 9.90724 8.62741 9.35814C8.62741 8.80903 8.42662 8.27889 8.06285 7.86756C7.69908 7.45624 7.19746 7.19213 6.65247 7.125C6.47078 7.10133 6.30403 7.01196 6.18372 6.87376C6.06228 6.73606 5.99557 6.5586 5.99622 6.375V4.125C5.99648 3.82674 6.11518 3.54078 6.32622 3.33001C6.537 3.11897 6.82295 3.00027 7.12122 3H22.8712C23.0195 2.99964 23.1665 3.02862 23.3035 3.08525ZM16.4128 12.0716C17.2145 11.5359 18.157 11.25 19.1212 11.25C20.4142 11.25 21.6541 11.7636 22.5684 12.6779C23.4826 13.5921 23.9962 14.8321 23.9962 16.125C23.9962 17.0892 23.7103 18.0317 23.1746 18.8334C22.639 19.6351 21.8776 20.2599 20.9868 20.6289C20.096 20.9979 19.1158 21.0944 18.1701 20.9063C17.2245 20.7182 16.3559 20.2539 15.6741 19.5721C14.9923 18.8904 14.528 18.0217 14.3399 17.0761C14.1518 16.1304 14.2483 15.1502 14.6173 14.2594C14.9863 13.3686 15.6111 12.6073 16.4128 12.0716ZM16.8295 19.5548C17.5078 20.0081 18.3054 20.25 19.1212 20.25C20.2152 20.25 21.2644 19.8154 22.038 19.0418C22.8116 18.2682 23.2462 17.219 23.2462 16.125C23.2462 15.3092 23.0043 14.5116 22.551 13.8333C22.0978 13.1549 21.4535 12.6262 20.6998 12.314C19.946 12.0018 19.1166 11.9201 18.3165 12.0793C17.5163 12.2384 16.7813 12.6313 16.2044 13.2082C15.6275 13.7851 15.2346 14.5201 15.0755 15.3203C14.9163 16.1204 14.998 16.9498 15.3102 17.7036C15.6224 18.4573 16.1511 19.1016 16.8295 19.5548ZM20.8275 14.5912L18.6487 17.4974C18.6323 17.5186 18.6119 17.5364 18.5887 17.5499C18.5639 17.5618 18.5373 17.5694 18.51 17.5724C18.4851 17.5761 18.4598 17.5761 18.435 17.5724C18.4098 17.5619 18.3869 17.5466 18.3675 17.5274L17.2425 16.4024C17.1719 16.3318 17.0761 16.2921 16.9762 16.2921C16.8764 16.2921 16.7806 16.3318 16.71 16.4024C16.6394 16.473 16.5997 16.5688 16.5997 16.6687C16.5997 16.7685 16.6394 16.8643 16.71 16.9349L17.835 18.0599C17.9309 18.1545 18.046 18.2274 18.1725 18.2737C18.2765 18.3138 18.3872 18.3342 18.4987 18.3337H18.5662C18.6981 18.3252 18.8264 18.2867 18.9412 18.2212C19.0584 18.1572 19.1607 18.069 19.2412 17.9624L21.42 15.0562C21.4495 15.0168 21.471 14.972 21.4832 14.9243C21.4955 14.8765 21.4982 14.8269 21.4912 14.7781C21.4842 14.7294 21.4677 14.6825 21.4427 14.6401C21.4176 14.5977 21.3844 14.5607 21.345 14.5312C21.3056 14.5016 21.2608 14.4801 21.213 14.4679C21.1653 14.4557 21.1157 14.453 21.0669 14.4599C21.0182 14.4669 20.9713 14.4834 20.9289 14.5085C20.8865 14.5336 20.8495 14.5668 20.82 14.6062L20.8275 14.5912ZM18.5587 5.25C18.5587 5.56066 18.3069 5.8125 17.9962 5.8125C17.6856 5.8125 17.4337 5.56066 17.4337 5.25C17.4337 4.93934 17.6856 4.6875 17.9962 4.6875C18.3069 4.6875 18.5587 4.93934 18.5587 5.25ZM17.9962 8.0625C18.3069 8.0625 18.5587 7.81066 18.5587 7.5C18.5587 7.18934 18.3069 6.9375 17.9962 6.9375C17.6856 6.9375 17.4337 7.18934 17.4337 7.5C17.4337 7.81066 17.6856 8.0625 17.9962 8.0625ZM18.5587 9.75C18.5587 10.0607 18.3069 10.3125 17.9962 10.3125C17.6856 10.3125 17.4337 10.0607 17.4337 9.75C17.4337 9.43934 17.6856 9.1875 17.9962 9.1875C18.3069 9.1875 18.5587 9.43934 18.5587 9.75Z" fill="black"/>
</g>
<defs>
<clipPath id="clip0_914_3091">
<rect width="24" height="24" fill="white"/>
</clipPath>
</defs>
</svg>
