<svg width="24" height="24" viewBox="0 0 24 24" fill="none" xmlns="http://www.w3.org/2000/svg">
<g clip-path="url(#clip0_914_2689)">
<path fill-rule="evenodd" clip-rule="evenodd" d="M20.8257 12.3961C20.914 12.4323 21.0085 12.4507 21.1039 12.4502V12.4464C21.241 12.4465 21.3754 12.4078 21.4915 12.3348C21.6076 12.2618 21.7007 12.1575 21.7601 12.0339L23.9276 7.47765C23.9694 7.39135 23.9936 7.29759 23.9989 7.20184C24.0042 7.10608 23.9904 7.01024 23.9583 6.91987C23.9262 6.8295 23.8764 6.74641 23.8119 6.67543C23.7474 6.60445 23.6695 6.547 23.5826 6.5064C23.497 6.4652 23.4038 6.44222 23.3088 6.43891L21.5051 6.3414V3.7914C21.5028 3.62805 21.4456 3.47025 21.3426 3.34338C21.2397 3.21652 21.0971 3.12799 20.9377 3.09205C20.7784 3.05611 20.6116 3.07484 20.4641 3.14524C20.3167 3.21564 20.1973 3.33362 20.1251 3.48015L17.9539 8.04391C17.9124 8.13008 17.8884 8.22356 17.8831 8.31902C17.8779 8.41449 17.8915 8.51006 17.9232 8.60026C17.9548 8.69046 18.004 8.77354 18.0678 8.84473C18.1317 8.91592 18.2089 8.97383 18.2951 9.01515C18.3817 9.05765 18.4762 9.0819 18.5726 9.08641L20.3764 9.18016V11.7264C20.3763 11.8218 20.3952 11.9162 20.4318 12.0042C20.4684 12.0923 20.5221 12.1722 20.5897 12.2395C20.6573 12.3068 20.7375 12.36 20.8257 12.3961ZM18.6288 8.35515L20.7514 3.90766L20.7363 6.6864C20.7363 6.78585 20.7759 6.88124 20.8462 6.95157C20.9165 7.02189 21.0119 7.0614 21.1113 7.0614L23.2526 7.1439L21.1264 11.6101V8.8089C21.1265 8.71261 21.0895 8.61996 21.0232 8.55015C20.9569 8.48034 20.8663 8.43871 20.7701 8.4339L18.6288 8.35515ZM7.83635 11.6027H9.2651L9.2726 11.5989C9.73823 11.5777 10.1778 11.3778 10.4998 11.0408C10.7336 10.7961 10.8924 10.4927 10.9618 10.1664H11.0501C11.3316 10.1664 11.6015 10.2782 11.8005 10.4773C11.9995 10.6763 12.1114 10.9462 12.1114 11.2277V17.6814C12.1114 18.1608 12.3018 18.6206 12.6408 18.9595C12.9797 19.2985 13.4395 19.4889 13.9189 19.4889H15.3363V19.8002C15.3363 20.0985 15.4549 20.3847 15.6659 20.5957C15.8768 20.8066 16.163 20.9252 16.4613 20.9252H22.1351C22.4328 20.9242 22.718 20.8052 22.9282 20.5943C23.1383 20.3835 23.2563 20.0979 23.2563 19.8002V13.9427C23.2563 13.8432 23.2168 13.7478 23.1465 13.6775C23.0762 13.6072 22.9808 13.5677 22.8813 13.5677C22.7819 13.5677 22.6865 13.6072 22.6162 13.6775C22.5459 13.7478 22.5063 13.8432 22.5063 13.9427V19.8002C22.5063 19.8996 22.4668 19.995 22.3965 20.0653C22.3262 20.1357 22.2308 20.1752 22.1313 20.1752H16.4613C16.3619 20.1752 16.2665 20.1357 16.1962 20.0653C16.1259 19.995 16.0863 19.8996 16.0863 19.8002V19.1156C16.0864 19.1151 16.0864 19.1145 16.0864 19.1139C16.0864 19.1134 16.0864 19.1128 16.0863 19.1122V6.19516C16.0863 6.0957 16.1259 6.00033 16.1962 5.93C16.2665 5.85967 16.3619 5.82016 16.4613 5.82016C16.5608 5.82016 16.6562 5.78066 16.7265 5.71033C16.7968 5.64 16.8363 5.54462 16.8363 5.44516C16.8363 5.3457 16.7968 5.25033 16.7265 5.18C16.6562 5.10967 16.5608 5.07016 16.4613 5.07016C16.163 5.07016 15.8768 5.18869 15.6659 5.39967C15.4549 5.61065 15.3363 5.89679 15.3363 6.19516V18.7389H13.9189C13.6384 18.7389 13.3694 18.6275 13.1711 18.4292C12.9728 18.2309 12.8614 17.9619 12.8614 17.6814V11.2277C12.8604 10.7476 12.6692 10.2875 12.3298 9.94802C11.9903 9.60856 11.5302 9.41741 11.0501 9.41642H10.9626C10.8936 9.0887 10.7345 8.78394 10.4998 8.53826C10.1778 8.20126 9.73823 8.00137 9.2726 7.98016H7.83635C7.73689 7.98016 7.64151 8.01968 7.57118 8.09C7.50086 8.16033 7.46136 8.25569 7.46135 8.35514H6.75259C6.65314 8.35514 6.55775 8.39465 6.48743 8.46498C6.4171 8.53531 6.37759 8.63068 6.37759 8.73014C6.37759 8.8296 6.4171 8.92497 6.48743 8.9953C6.55775 9.06563 6.65314 9.10514 6.75259 9.10514H7.46135V10.4927H6.75259C6.65314 10.4927 6.55775 10.5322 6.48743 10.6025C6.4171 10.6728 6.37759 10.7682 6.37759 10.8677C6.37759 10.9671 6.4171 11.0625 6.48743 11.1328C6.55775 11.2032 6.65314 11.2427 6.75259 11.2427H7.46165C7.46541 11.3367 7.5044 11.426 7.57118 11.4928C7.64151 11.5632 7.73689 11.6027 7.83635 11.6027ZM8.21135 8.73392L8.20406 10.7941C8.2079 10.8133 8.21025 10.8329 8.21104 10.8527H9.2651C9.53517 10.8366 9.7889 10.718 9.97443 10.5211C10.16 10.3242 10.2633 10.0638 10.2633 9.79329C10.2633 9.52274 10.16 9.26242 9.97443 9.06551C9.7889 8.8686 9.53517 8.74999 9.2651 8.73392H8.21135Z" fill="black"/>
</g>
<defs>
<clipPath id="clip0_914_2689">
<rect width="24" height="24" fill="white"/>
</clipPath>
</defs>
</svg>
