<svg width="24" height="24" viewBox="0 0 24 24" fill="none" xmlns="http://www.w3.org/2000/svg">
<path fill-rule="evenodd" clip-rule="evenodd" d="M17.3073 3.08525C17.4444 3.14188 17.5689 3.22506 17.6738 3.33001C17.8803 3.53617 17.9986 3.8145 18.0037 4.10626V6.37876C18.0054 6.56186 17.9401 6.73927 17.82 6.87751C17.6997 7.01571 17.5329 7.10508 17.3513 7.12876C16.9031 7.18453 16.4821 7.37388 16.143 7.67217C15.8039 7.97045 15.5625 8.36388 15.45 8.80127C15.3755 9.09276 15.3602 9.39625 15.405 9.69377C15.4194 9.79322 15.3937 9.89433 15.3336 9.97486C15.2735 10.0554 15.1838 10.1087 15.0844 10.1231C14.9849 10.1375 14.8838 10.1119 14.8033 10.0517C14.7228 9.99161 14.6694 9.90197 14.655 9.80251C14.5969 9.40791 14.618 9.00569 14.7171 8.61935C14.8163 8.23301 14.9915 7.87033 15.2325 7.55251C15.474 7.23337 15.7769 6.96577 16.1234 6.76548C16.4699 6.56518 16.8529 6.43626 17.25 6.38626V4.11001C17.25 4.01056 17.2105 3.91517 17.1402 3.84484C17.0698 3.77451 16.9745 3.73501 16.875 3.73501H1.125C1.02555 3.73501 0.93016 3.77451 0.859834 3.84484C0.789508 3.91517 0.750005 4.01056 0.750005 4.11001V6.37876C1.47665 6.46826 2.14548 6.8204 2.63051 7.36883C3.11554 7.91726 3.38327 8.62412 3.38327 9.35626C3.38327 10.0884 3.11554 10.7953 2.63051 11.3437C2.14548 11.8921 1.47665 12.2443 0.750005 12.3338V14.61C0.750005 14.7095 0.789508 14.8048 0.859834 14.8752C0.93016 14.9455 1.02555 14.985 1.125 14.985H6.75001C6.84946 14.985 6.94484 15.0245 7.01517 15.0949C7.08549 15.1652 7.12501 15.2606 7.12501 15.36C7.12501 15.4595 7.08549 15.5548 7.01517 15.6252C6.94484 15.6955 6.84946 15.735 6.75001 15.735H1.125C0.826636 15.735 0.540482 15.6165 0.329503 15.4055C0.118525 15.1945 4.7442e-06 14.9084 4.7442e-06 14.61V12.3375C0.00104898 12.1542 0.067546 11.9773 0.187505 11.8388C0.30842 11.7019 0.475087 11.614 0.656255 11.5913C1.20124 11.5241 1.70287 11.26 2.06664 10.8487C2.43041 10.4374 2.6312 9.90724 2.6312 9.35814C2.6312 8.80903 2.43041 8.27889 2.06664 7.86756C1.70287 7.45624 1.20124 7.19213 0.656255 7.125C0.474559 7.10133 0.307818 7.01196 0.187505 6.87376C0.0660655 6.73606 -0.000647944 6.5586 4.7442e-06 6.375V4.125C0.000267322 3.82674 0.118968 3.54078 0.330007 3.33001C0.540783 3.11897 0.826737 3.00027 1.125 3H16.875C17.0233 2.99964 17.1702 3.02862 17.3073 3.08525ZM10.4166 12.0716C11.2183 11.5359 12.1608 11.25 13.125 11.25C14.4179 11.25 15.6579 11.7636 16.5721 12.6779C17.4864 13.5921 18 14.8321 18 16.125C18 17.0892 17.7141 18.0317 17.1784 18.8334C16.6427 19.6351 15.8814 20.2599 14.9906 20.6289C14.0998 20.9979 13.1196 21.0944 12.1739 20.9063C11.2283 20.7182 10.3596 20.2539 9.67786 19.5721C8.99608 18.8904 8.53178 18.0217 8.34367 17.0761C8.15557 16.1304 8.25211 15.1502 8.62109 14.2594C8.99007 13.3686 9.61491 12.6073 10.4166 12.0716ZM10.8333 19.5548C11.5116 20.0081 12.3092 20.25 13.125 20.25C14.219 20.25 15.2682 19.8154 16.0418 19.0418C16.8154 18.2682 17.25 17.219 17.25 16.125C17.25 15.3092 17.0081 14.5116 16.5548 13.8333C16.1015 13.1549 15.4573 12.6262 14.7036 12.314C13.9498 12.0018 13.1204 11.9201 12.3203 12.0793C11.5201 12.2384 10.7851 12.6313 10.2082 13.2082C9.63129 13.7851 9.23843 14.5201 9.07927 15.3203C8.9201 16.1204 9.00178 16.9498 9.314 17.7036C9.62621 18.4573 10.1549 19.1016 10.8333 19.5548ZM14.8313 14.5912L12.6525 17.4974C12.636 17.5186 12.6157 17.5364 12.5925 17.5499C12.5677 17.5618 12.5411 17.5694 12.5138 17.5724C12.4889 17.5761 12.4636 17.5761 12.4388 17.5724C12.4136 17.5619 12.3907 17.5466 12.3713 17.5274L11.2463 16.4024C11.1756 16.3318 11.0799 16.2921 10.98 16.2921C10.8801 16.2921 10.7844 16.3318 10.7138 16.4024C10.6431 16.473 10.6035 16.5688 10.6035 16.6687C10.6035 16.7685 10.6431 16.8643 10.7138 16.9349L11.8388 18.0599C11.9347 18.1545 12.0498 18.2274 12.1763 18.2737C12.2803 18.3138 12.391 18.3342 12.5025 18.3337H12.57C12.7019 18.3252 12.8302 18.2867 12.945 18.2212C13.0622 18.1572 13.1645 18.069 13.245 17.9624L15.4238 15.0562C15.4533 15.0168 15.4748 14.972 15.487 14.9243C15.4992 14.8765 15.502 14.8269 15.495 14.7781C15.488 14.7294 15.4715 14.6825 15.4464 14.6401C15.4213 14.5977 15.3882 14.5607 15.3488 14.5312C15.3094 14.5016 15.2645 14.4801 15.2168 14.4679C15.1691 14.4557 15.1195 14.453 15.0707 14.4599C15.022 14.4669 14.9751 14.4834 14.9327 14.5085C14.8903 14.5336 14.8533 14.5668 14.8238 14.6062L14.8313 14.5912ZM12.5625 5.25C12.5625 5.56066 12.3107 5.8125 12 5.8125C11.6893 5.8125 11.4375 5.56066 11.4375 5.25C11.4375 4.93934 11.6893 4.6875 12 4.6875C12.3107 4.6875 12.5625 4.93934 12.5625 5.25ZM12 8.0625C12.3107 8.0625 12.5625 7.81066 12.5625 7.5C12.5625 7.18934 12.3107 6.9375 12 6.9375C11.6893 6.9375 11.4375 7.18934 11.4375 7.5C11.4375 7.81066 11.6893 8.0625 12 8.0625ZM12.5625 9.75C12.5625 10.0607 12.3107 10.3125 12 10.3125C11.6893 10.3125 11.4375 10.0607 11.4375 9.75C11.4375 9.43934 11.6893 9.1875 12 9.1875C12.3107 9.1875 12.5625 9.43934 12.5625 9.75Z" fill="black"/>
</svg>
