<svg width="24" height="24" viewBox="0 0 24 24" fill="none" xmlns="http://www.w3.org/2000/svg">
<path fill-rule="evenodd" clip-rule="evenodd" d="M14.67 6.10875L11.8912 3.33C11.6805 3.11896 11.3945 3.00026 11.0962 3H1.125C0.826631 3 0.540482 3.11853 0.329504 3.32951C0.118526 3.54049 0 3.82663 0 4.125V19.875C0 20.1734 0.118526 20.4595 0.329504 20.6705C0.540482 20.8815 0.826631 21 1.125 21H13.875C14.1734 21 14.4595 20.8815 14.6705 20.6705C14.8815 20.4595 15 20.1734 15 19.875V6.90375C14.9997 6.60548 14.881 6.31953 14.67 6.10875ZM14.25 19.875C14.25 19.9745 14.2105 20.0698 14.1402 20.1402C14.0698 20.2105 13.9745 20.25 13.875 20.25H1.125C1.02554 20.25 0.930161 20.2105 0.859835 20.1402C0.789509 20.0698 0.75 19.9745 0.75 19.875V4.125C0.75 4.02554 0.789509 3.93017 0.859835 3.85984C0.930161 3.78951 1.02554 3.75 1.125 3.75H11.0962C11.1946 3.75041 11.2889 3.78947 11.3587 3.85875L14.1413 6.64126C14.2105 6.71111 14.2496 6.80537 14.25 6.90375V19.875ZM5.69625 7.10998L4.07625 9.35998L3.26625 8.54622C3.19563 8.47561 3.09986 8.43594 3 8.43594C2.90014 8.43594 2.80436 8.47561 2.73375 8.54622C2.66313 8.61684 2.62347 8.71261 2.62347 8.81247C2.62347 8.91233 2.66313 9.00811 2.73375 9.07873L3.5475 9.88873C3.6875 10.0296 3.87766 10.1091 4.07625 10.11C4.17522 10.1101 4.27322 10.0905 4.36461 10.0526C4.456 10.0146 4.53898 9.95892 4.60875 9.88873C4.63789 9.86003 4.66426 9.82864 4.6875 9.79498L6.30375 7.54498C6.35157 7.46424 6.36738 7.36851 6.34806 7.27668C6.32874 7.18486 6.27571 7.10361 6.19941 7.04898C6.12312 6.99435 6.02912 6.97032 5.93596 6.98161C5.84281 6.9929 5.75728 7.0387 5.69625 7.10998ZM8.625 8.25H11.625C11.7245 8.25 11.8198 8.28951 11.8902 8.35984C11.9605 8.43017 12 8.52554 12 8.625C12 8.72446 11.9605 8.81984 11.8902 8.89017C11.8198 8.9605 11.7245 9 11.625 9H8.625C8.52554 9 8.43016 8.9605 8.35983 8.89017C8.28951 8.81984 8.25 8.72446 8.25 8.625C8.25 8.52554 8.28951 8.43017 8.35983 8.35984C8.43016 8.28951 8.52554 8.25 8.625 8.25ZM5.69625 10.86L4.07625 13.11L3.26625 12.2962C3.19563 12.2256 3.09986 12.1859 3 12.1859C2.90014 12.1859 2.80436 12.2256 2.73375 12.2962C2.66313 12.3668 2.62347 12.4626 2.62347 12.5625C2.62347 12.6623 2.66313 12.7581 2.73375 12.8287L3.5475 13.6387C3.6875 13.7796 3.87766 13.8591 4.07625 13.86C4.17522 13.8601 4.27322 13.8405 4.36461 13.8026C4.456 13.7646 4.53898 13.7089 4.60875 13.6387C4.63789 13.61 4.66426 13.5786 4.6875 13.545L6.30375 11.295C6.35157 11.2142 6.36738 11.1185 6.34806 11.0267C6.32874 10.9349 6.27571 10.8536 6.19941 10.799C6.12312 10.7444 6.02912 10.7203 5.93596 10.7316C5.84281 10.7429 5.75728 10.7887 5.69625 10.86ZM8.625 12H11.625C11.7245 12 11.8198 12.0395 11.8902 12.1098C11.9605 12.1802 12 12.2755 12 12.375C12 12.4745 11.9605 12.5698 11.8902 12.6402C11.8198 12.7105 11.7245 12.75 11.625 12.75H8.625C8.52554 12.75 8.43016 12.7105 8.35983 12.6402C8.28951 12.5698 8.25 12.4745 8.25 12.375C8.25 12.2755 8.28951 12.1802 8.35983 12.1098C8.43016 12.0395 8.52554 12 8.625 12ZM5.69625 14.61L4.07625 16.86L3.26625 16.0462C3.19563 15.9756 3.09986 15.9359 3 15.9359C2.90014 15.9359 2.80436 15.9756 2.73375 16.0462C2.66313 16.1168 2.62347 16.2126 2.62347 16.3125C2.62347 16.4123 2.66313 16.5081 2.73375 16.5787L3.5475 17.3887C3.6875 17.5296 3.87766 17.6091 4.07625 17.61C4.17522 17.6101 4.27322 17.5905 4.36461 17.5526C4.456 17.5146 4.53898 17.4589 4.60875 17.3887C4.63789 17.36 4.66426 17.3286 4.6875 17.295L6.30375 15.045C6.35157 14.9642 6.36738 14.8685 6.34806 14.7767C6.32874 14.6849 6.27571 14.6036 6.19941 14.549C6.12312 14.4944 6.02912 14.4703 5.93596 14.4816C5.84281 14.4929 5.75728 14.5387 5.69625 14.61ZM8.625 15.75H11.625C11.7245 15.75 11.8198 15.7895 11.8902 15.8598C11.9605 15.9302 12 16.0255 12 16.125C12 16.2245 11.9605 16.3198 11.8902 16.3902C11.8198 16.4605 11.7245 16.5 11.625 16.5H8.625C8.52554 16.5 8.43016 16.4605 8.35983 16.3902C8.28951 16.3198 8.25 16.2245 8.25 16.125C8.25 16.0255 8.28951 15.9302 8.35983 15.8598C8.43016 15.7895 8.52554 15.75 8.625 15.75Z" fill="black"/>
</svg>
