<svg width="64" height="64" viewBox="0 0 64 64" fill="none" xmlns="http://www.w3.org/2000/svg">
<path fill-rule="evenodd" clip-rule="evenodd" d="M48.54 17.1855C49.102 17.5721 49.748 17.8191 50.4245 17.906C51.101 17.993 51.7885 17.9174 52.43 17.6855C53.293 18.7494 54.4683 19.5154 55.79 19.8755C56.3477 20.0255 56.9225 20.1028 57.5 20.1055C59.2239 20.1055 60.8772 19.4207 62.0962 18.2017C63.3152 16.9827 64 15.3294 64 13.6055C64 11.8816 63.3152 10.2283 62.0962 9.00928C60.8772 7.79029 59.2239 7.10547 57.5 7.10547C56.5393 7.11297 55.5923 7.33402 54.7275 7.75256C53.8628 8.17111 53.1019 8.77668 52.5 9.52548C51.5076 9.17031 50.4198 9.18928 49.4404 9.57886C48.4611 9.96844 47.6574 10.7019 47.1802 11.6416C46.703 12.5814 46.5849 13.663 46.8481 14.6836C47.1113 15.7042 47.7378 16.5938 48.61 17.1855H48.54ZM49.17 12.3855C49.4925 11.9128 49.9888 11.5866 50.5506 11.478C51.1125 11.3693 51.6945 11.487 52.17 11.8055C52.2948 11.8895 52.4355 11.9471 52.5834 11.9746C52.7313 12.0022 52.8833 11.999 53.03 11.9655C53.1764 11.9322 53.3143 11.8688 53.4348 11.7793C53.5553 11.6897 53.6559 11.5761 53.73 11.4455C54.1057 10.7867 54.6482 10.2384 55.3029 9.85571C55.9577 9.47304 56.7016 9.26946 57.46 9.26547C58.2232 9.26371 58.9734 9.46328 59.6349 9.84399C60.2964 10.2247 60.8458 10.7731 61.2277 11.434C61.6096 12.0948 61.8104 12.8446 61.81 13.6078C61.8096 14.3711 61.6079 15.1207 61.2253 15.7811C60.8427 16.4415 60.2927 16.9893 59.6308 17.3693C58.9689 17.7493 58.2185 17.948 57.4552 17.9454C56.692 17.9428 55.943 17.739 55.2837 17.3545C54.6243 16.97 54.0781 16.4185 53.7 15.7555C53.626 15.6267 53.5268 15.5143 53.4082 15.4249C53.2896 15.3355 53.1542 15.2711 53.01 15.2355C52.927 15.225 52.843 15.225 52.76 15.2355C52.5428 15.2399 52.3313 15.3058 52.15 15.4255C51.7331 15.6945 51.2367 15.8126 50.7434 15.7601C50.25 15.7076 49.7896 15.4875 49.4388 15.1367C49.088 14.7859 48.8679 14.3255 48.8154 13.8321C48.7628 13.3388 48.8809 12.8423 49.15 12.4255L49.17 12.3855ZM60.54 27.7154C60.2499 27.7169 59.9611 27.7538 59.68 27.8254L35.42 34.1054L33.7 15.9854C33.6798 15.713 33.5571 15.4584 33.3567 15.2729C33.1563 15.0873 32.8931 14.9846 32.62 14.9854H22.56C22.2869 14.9846 22.0237 15.0873 21.8233 15.2729C21.6229 15.4584 21.5002 15.713 21.48 15.9854L19.36 38.2654L16.54 38.9954C15.851 39.1709 15.2401 39.5709 14.8036 40.1323C14.3672 40.6936 14.1302 41.3843 14.13 42.0954V55.8154C14.13 55.958 14.1583 56.0993 14.2132 56.231C14.2681 56.3627 14.3485 56.4822 14.4499 56.5826C14.5512 56.683 14.6715 56.7624 14.8036 56.816C14.9358 56.8697 15.0773 56.8967 15.22 56.8954H62.88C63.0227 56.8967 63.1642 56.8697 63.2964 56.816C63.4286 56.7624 63.5488 56.683 63.6501 56.5826C63.7515 56.4822 63.8319 56.3627 63.8868 56.231C63.9417 56.0993 63.97 55.958 63.97 55.8154V31.1454C63.9674 30.2365 63.6051 29.3656 62.9625 28.7229C62.3198 28.0802 61.4489 27.718 60.54 27.7154ZM31.64 17.1754L32.33 24.4354H22.88L23.57 17.1754H31.64ZM22.64 26.6054H32.53L33.3 34.6554L21.59 37.6554L22.64 26.6054ZM45.96 54.7254V46.3254C45.96 46.0389 46.0738 45.7642 46.2763 45.5617C46.4789 45.3591 46.7536 45.2454 47.04 45.2454H53.3C53.4427 45.244 53.5842 45.271 53.7164 45.3247C53.8486 45.3784 53.9688 45.4577 54.0702 45.5581C54.1715 45.6586 54.252 45.778 54.3069 45.9097C54.3618 46.0414 54.39 46.1827 54.39 46.3254V54.7254H45.96ZM61.8 54.7254H56.55V46.3254C56.55 45.4634 56.2076 44.6367 55.5981 44.0273C54.9886 43.4178 54.162 43.0754 53.3 43.0754H47.04C46.1798 43.078 45.3557 43.4216 44.7484 44.0308C44.1411 44.64 43.8 45.4651 43.8 46.3254V54.7254H16.3V42.0954C16.2944 41.8642 16.369 41.6382 16.5112 41.4559C16.6534 41.2736 16.8544 41.1462 17.08 41.0954L60.22 29.9354C60.4061 29.8924 60.5994 29.8912 60.786 29.932C60.9726 29.9728 61.1478 30.0545 61.2989 30.1712C61.4501 30.2879 61.5735 30.4367 61.6601 30.6069C61.7468 30.7771 61.7946 30.9645 61.8 31.1554V54.7254ZM42.545 17.2086C41.8297 17.6847 40.9893 17.9378 40.13 17.9358C38.9825 17.9332 37.8826 17.4762 37.0712 16.6647C36.2597 15.8532 35.8027 14.7534 35.8001 13.6058C35.7981 12.7466 36.0512 11.9062 36.5273 11.1909C37.0034 10.4757 37.6812 9.91785 38.4746 9.58813C39.268 9.25841 40.1415 9.17163 40.9843 9.33877C41.8271 9.50591 42.6013 9.91944 43.2089 10.527C43.8164 11.1346 44.23 11.9088 44.3971 12.7516C44.5643 13.5944 44.4775 14.4679 44.1477 15.2613C43.818 16.0548 43.2602 16.7325 42.545 17.2086ZM41.3384 11.7967C40.9802 11.5595 40.5597 11.4339 40.13 11.4358C39.5563 11.4385 39.0069 11.6683 38.6021 12.0749C38.1973 12.4816 37.97 13.032 37.97 13.6058C37.97 14.0354 38.0976 14.4554 38.3365 14.8125C38.5754 15.1695 38.9149 15.4477 39.312 15.6116C39.7091 15.7755 40.1459 15.8179 40.5671 15.7334C40.9883 15.6488 41.3749 15.4412 41.678 15.1367C41.9811 14.8322 42.187 14.4446 42.2696 14.023C42.3522 13.6014 42.3078 13.1648 42.142 12.7685C41.9762 12.3721 41.6965 12.0339 41.3384 11.7967ZM26.05 43.9355H23.88C23.6102 43.9615 23.3598 44.087 23.1775 44.2876C22.9953 44.4882 22.8943 44.7495 22.8943 45.0205C22.8943 45.2916 22.9953 45.5529 23.1775 45.7535C23.3598 45.9541 23.6102 46.0796 23.88 46.1055H26.05C26.3198 46.0796 26.5703 45.9541 26.7525 45.7535C26.9348 45.5529 27.0357 45.2916 27.0357 45.0205C27.0357 44.7495 26.9348 44.4882 26.7525 44.2876C26.5703 44.087 26.3198 43.9615 26.05 43.9355ZM23.88 48.2656H26.05C26.3198 48.2916 26.5703 48.4171 26.7525 48.6177C26.9348 48.8183 27.0357 49.0796 27.0357 49.3506C27.0357 49.6217 26.9348 49.883 26.7525 50.0836C26.5703 50.2842 26.3198 50.4097 26.05 50.4356H23.88C23.6102 50.4097 23.3598 50.2842 23.1775 50.0836C22.9953 49.883 22.8943 49.6217 22.8943 49.3506C22.8943 49.0796 22.9953 48.8183 23.1775 48.6177C23.3598 48.4171 23.6102 48.2916 23.88 48.2656ZM36.88 43.9357H34.72C34.5688 43.9211 34.4162 43.9384 34.272 43.9863C34.1278 44.0342 33.9953 44.1117 33.8828 44.2139C33.7704 44.3161 33.6805 44.4406 33.619 44.5795C33.5575 44.7185 33.5258 44.8687 33.5258 45.0207C33.5258 45.1726 33.5575 45.3228 33.619 45.4618C33.6805 45.6007 33.7704 45.7253 33.8828 45.8274C33.9953 45.9296 34.1278 46.0071 34.272 46.055C34.4162 46.103 34.5688 46.1202 34.72 46.1056H36.88C37.0313 46.1202 37.1839 46.103 37.3281 46.055C37.4722 46.0071 37.6048 45.9296 37.7173 45.8274C37.8297 45.7253 37.9196 45.6007 37.9811 45.4618C38.0426 45.3228 38.0743 45.1726 38.0743 45.0207C38.0743 44.8687 38.0426 44.7185 37.9811 44.5795C37.9196 44.4406 37.8297 44.3161 37.7173 44.2139C37.6048 44.1117 37.4722 44.0342 37.3281 43.9863C37.1839 43.9384 37.0313 43.9211 36.88 43.9357ZM34.72 48.2657H36.88C37.0313 48.2512 37.1839 48.2685 37.3281 48.3164C37.4722 48.3643 37.6048 48.4418 37.7173 48.544C37.8297 48.6461 37.9196 48.7707 37.9811 48.9096C38.0426 49.0486 38.0743 49.1988 38.0743 49.3508C38.0743 49.5027 38.0426 49.6529 37.9811 49.7919C37.9196 49.9308 37.8297 50.0554 37.7173 50.1575C37.6048 50.2597 37.4722 50.3372 37.3281 50.3851C37.1839 50.433 37.0313 50.4503 36.88 50.4358H34.72C34.5688 50.4503 34.4162 50.433 34.272 50.3851C34.1278 50.3372 33.9953 50.2597 33.8828 50.1575C33.7704 50.0554 33.6805 49.9308 33.619 49.7919C33.5575 49.6529 33.5258 49.5027 33.5258 49.3508C33.5258 49.1988 33.5575 49.0486 33.619 48.9096C33.6805 48.7707 33.7704 48.6461 33.8828 48.544C33.9953 48.4418 34.1278 48.3643 34.272 48.3164C34.4162 48.2685 34.5688 48.2512 34.72 48.2657Z" fill="black"/>
</svg>
