<svg width="24" height="24" viewBox="0 0 24 24" fill="none" xmlns="http://www.w3.org/2000/svg">
<path fill-rule="evenodd" clip-rule="evenodd" d="M5.3072 3.68505C5.49058 3.74086 5.59399 3.93476 5.53818 4.11814L0.679195 20.0834C0.623385 20.2667 0.429485 20.3702 0.246109 20.3144C0.0627318 20.2585 -0.0406812 20.0646 0.0151291 19.8813L4.87411 3.91603C4.92992 3.73265 5.12382 3.62924 5.3072 3.68505Z" fill="#000001"/>
<path fill-rule="evenodd" clip-rule="evenodd" d="M13.7749 13.9264C13.9583 13.8706 14.1522 13.974 14.208 14.1574L15.9503 19.8813C16.0061 20.0646 15.9027 20.2585 15.7193 20.3143C15.5359 20.3702 15.342 20.2668 15.2862 20.0834L13.5439 14.3595C13.4881 14.1761 13.5915 13.9822 13.7749 13.9264Z" fill="#000001"/>
<path fill-rule="evenodd" clip-rule="evenodd" d="M7.98271 16.8587C8.17439 16.8587 8.32978 17.0141 8.32978 17.2058V19.9823C8.32978 20.174 8.17439 20.3294 7.98271 20.3294C7.79103 20.3294 7.63564 20.174 7.63564 19.9823V17.2058C7.63564 17.0141 7.79103 16.8587 7.98271 16.8587Z" fill="#000001"/>
<path fill-rule="evenodd" clip-rule="evenodd" d="M7.98271 13.388C8.17439 13.388 8.32978 13.5434 8.32978 13.7351V15.1233C8.32978 15.315 8.17439 15.4704 7.98271 15.4704C7.79103 15.4704 7.63564 15.315 7.63564 15.1233V13.7351C7.63564 13.5434 7.79103 13.388 7.98271 13.388Z" fill="#000001"/>
<path fill-rule="evenodd" clip-rule="evenodd" d="M7.98271 3.67001C8.17439 3.67001 8.32978 3.8254 8.32978 4.01708V5.40536C8.32978 5.59705 8.17439 5.75244 7.98271 5.75244C7.79103 5.75244 7.63564 5.59705 7.63564 5.40536V4.01708C7.63564 3.8254 7.79103 3.67001 7.98271 3.67001Z" fill="#000001"/>
<path fill-rule="evenodd" clip-rule="evenodd" d="M10.8213 5.75244C10.4027 5.75186 9.98807 5.83381 9.60118 5.9936C9.21429 6.15339 8.86269 6.38788 8.5665 6.68367C8.27031 6.97945 8.03533 7.33073 7.87501 7.7174C7.71469 8.10407 7.63217 8.51856 7.63217 8.93715C7.63217 9.268 7.76021 9.71689 7.99567 10.2468C8.22756 10.7686 8.54835 11.3358 8.89963 11.8929C9.60187 13.0066 10.4084 14.0524 10.8193 14.5694L10.8199 14.5687C11.2309 14.0541 12.0374 13.0084 12.7395 11.8943C13.0906 11.337 13.4113 10.7695 13.6431 10.2474C13.8785 9.7172 14.0065 9.26806 14.0065 8.93715C14.0065 8.51893 13.9241 8.1048 13.764 7.71841C13.604 7.33203 13.3694 6.98095 13.0737 6.68522C12.7779 6.38949 12.4269 6.1549 12.0405 5.99486C11.6541 5.83481 11.24 5.75244 10.8217 5.75244C10.8216 5.75244 10.8214 5.75244 10.8213 5.75244ZM10.8222 5.0583C10.3124 5.05759 9.80743 5.15741 9.33621 5.35202C8.86499 5.54664 8.43675 5.83224 8.076 6.1925C7.71525 6.55275 7.42906 6.98059 7.2338 7.45154C7.03853 7.9225 6.93803 8.42732 6.93803 8.93715C6.93803 9.41602 7.11437 9.97286 7.36134 10.5286C7.61187 11.0924 7.95156 11.6908 8.31247 12.2632C9.03458 13.4084 9.85921 14.4769 10.2758 15.0012M10.8222 5.0583C11.3314 5.05836 11.8357 5.15869 12.3061 5.35356C12.7767 5.54849 13.2043 5.8342 13.5645 6.19439C13.9247 6.55457 14.2104 6.98217 14.4053 7.45278C14.6003 7.92338 14.7006 8.42777 14.7006 8.93715C14.7006 9.41595 14.5244 9.97297 14.2775 10.529C14.0271 11.0931 13.6876 11.6918 13.3267 12.2644C12.6048 13.4101 11.7801 14.4788 11.3623 15.0019C11.2973 15.0834 11.2149 15.1492 11.1211 15.1945C11.027 15.2399 10.9238 15.2635 10.8193 15.2635C10.7148 15.2635 10.6117 15.2399 10.5176 15.1945C10.4235 15.1491 10.3408 15.083 10.2758 15.0012" fill="#000001"/>
<path fill-rule="evenodd" clip-rule="evenodd" d="M11.1962 8.03405C11.0776 7.98497 10.9504 7.95973 10.8219 7.9598C10.6285 7.9599 10.4394 8.01736 10.2786 8.12492C10.1179 8.23247 9.99258 8.38529 9.91865 8.56404C9.84471 8.74279 9.82545 8.93945 9.86329 9.12916C9.90112 9.31886 9.99436 9.49308 10.1312 9.62979C10.2681 9.7665 10.4424 9.85956 10.6321 9.8972C10.8219 9.93484 11.0185 9.91536 11.1972 9.84124C11.3759 9.76712 11.5286 9.64169 11.6359 9.48079C11.7433 9.3199 11.8006 9.13077 11.8005 8.93733C11.8004 8.8089 11.775 8.68173 11.7258 8.56309C11.6766 8.44445 11.6045 8.33667 11.5137 8.2459C11.4228 8.15513 11.3149 8.08314 11.1962 8.03405ZM10.8216 7.26566C11.0412 7.26555 11.2586 7.30868 11.4615 7.39261C11.6645 7.47654 11.8489 7.59962 12.0042 7.75481C12.1596 7.91001 12.2829 8.09429 12.367 8.29712C12.4511 8.49995 12.4945 8.71738 12.4946 8.93697C12.4948 9.2677 12.3969 9.59105 12.2133 9.86613C12.0297 10.1412 11.7686 10.3557 11.4632 10.4824C11.1577 10.6091 10.8215 10.6424 10.4971 10.5781C10.1727 10.5137 9.87463 10.3546 9.64064 10.1209C9.40666 9.88714 9.24725 9.58927 9.18255 9.26493C9.11786 8.94059 9.1508 8.60436 9.2772 8.29874C9.40361 7.99312 9.6178 7.73185 9.89269 7.54796C10.1676 7.36408 10.4908 7.26583 10.8216 7.26566Z" fill="#000001"/>
</svg>
