<svg width="64" height="64" viewBox="0 0 64 64" fill="none" xmlns="http://www.w3.org/2000/svg">
<path fill-rule="evenodd" clip-rule="evenodd" d="M42.6199 39.2772C44.236 38.6316 45.5597 37.4165 46.3409 35.8615C47.1221 34.3064 47.3067 32.5191 46.8599 30.8372C47.942 30.2135 48.8407 29.3158 49.4655 28.2344C50.0904 27.153 50.4194 25.9261 50.4194 24.6772C50.4194 23.4283 50.0904 22.2014 49.4655 21.12C48.8407 20.0386 47.942 19.1409 46.8599 18.5172C47.1804 17.3117 47.1784 16.0431 46.8544 14.8386C46.5303 13.634 45.8955 12.5357 45.0134 11.6537C44.1314 10.7717 43.0331 10.1368 41.8286 9.81275C40.624 9.48869 39.3554 9.48678 38.1499 9.8072C37.2878 8.33636 35.926 7.22426 34.3125 6.67359C32.699 6.12292 30.9414 6.17033 29.3599 6.8072C27.8855 7.38763 26.6467 8.44336 25.8399 9.8072C24.1956 9.3631 22.4466 9.52231 20.9095 10.256C19.3724 10.9897 18.1487 12.2494 17.4599 13.8072C16.8302 15.2792 16.7105 16.9194 17.1199 18.4672C15.6514 19.329 14.5409 20.6891 13.9904 22.3004C13.4398 23.9116 13.4858 25.667 14.1199 27.2472C14.6985 28.7254 15.7544 29.9678 17.1199 30.7772C16.7995 31.9827 16.8014 33.2513 17.1255 34.4558C17.4496 35.6604 18.0844 36.7587 18.9664 37.6407C19.8484 38.5227 20.9467 39.1576 22.1513 39.4816C23.3558 39.8057 24.6244 39.8076 25.8299 39.4872C26.5837 40.8268 27.7574 41.881 29.1699 42.4872C30.0255 42.8629 30.9476 43.0636 31.8819 43.0773C32.8161 43.0911 33.7437 42.9176 34.6099 42.5672C36.0941 41.9731 37.3368 40.8994 38.1399 39.5172C39.6197 39.9257 41.1922 39.8415 42.6199 39.2772ZM37.1799 37.1972C37.0461 37.2547 36.925 37.3383 36.8237 37.443C36.7225 37.5477 36.643 37.6715 36.5899 37.8072C36.2222 38.7251 35.588 39.5119 34.769 40.0661C33.95 40.6202 32.9838 40.9164 31.9949 40.9164C31.0061 40.9164 30.0399 40.6202 29.2209 40.0661C28.4019 39.5119 27.7677 38.7251 27.3999 37.8072C27.3469 37.6715 27.2674 37.5477 27.1661 37.443C27.0648 37.3383 26.9438 37.2547 26.8099 37.1972C26.6756 37.1466 26.5335 37.1195 26.3899 37.1172C26.242 37.1182 26.0958 37.1488 25.9599 37.2072C25.0506 37.5971 24.0453 37.7055 23.0737 37.5184C22.1021 37.3314 21.2089 36.8575 20.5093 36.1578C19.8096 35.4582 19.3357 34.565 19.1487 33.5935C18.9617 32.6219 19.0701 31.6165 19.4599 30.7072C19.5168 30.5727 19.5462 30.4282 19.5462 30.2822C19.5462 30.1362 19.5168 29.9916 19.4599 29.8572C19.4024 29.7233 19.3188 29.6023 19.2141 29.501C19.1094 29.3997 18.9856 29.3202 18.8499 29.2672C18.2255 29.0157 17.6583 28.6408 17.1824 28.1648C16.7064 27.6888 16.3314 27.1216 16.0799 26.4972C15.6111 25.2774 15.6384 23.9224 16.1561 22.7225C16.6739 21.5226 17.6408 20.573 18.8499 20.0772C18.9856 20.0241 19.1094 19.9447 19.2141 19.8434C19.3188 19.7421 19.4024 19.621 19.4599 19.4872C19.5168 19.3527 19.5462 19.2082 19.5462 19.0622C19.5462 18.9162 19.5168 18.7716 19.4599 18.6372C19.0684 17.7268 18.9591 16.7198 19.1463 15.7466C19.3334 14.7734 19.8084 13.8788 20.5097 13.1786C21.211 12.4783 22.1064 12.0047 23.0798 11.8191C24.0533 11.6334 25.0601 11.7442 25.9699 12.1372C26.1027 12.1938 26.2456 12.2231 26.3899 12.2231C26.5343 12.2231 26.6771 12.1938 26.8099 12.1372C26.9434 12.0817 27.0644 12.0001 27.1658 11.897C27.2671 11.7939 27.3467 11.6716 27.3999 11.5372C27.766 10.6161 28.4002 9.82614 29.2203 9.26957C30.0404 8.71299 31.0088 8.41544 31.9999 8.41544C32.9911 8.41544 33.9594 8.71299 34.7796 9.26957C35.5997 9.82614 36.2339 10.6161 36.5999 11.5372C36.7111 11.8063 36.9227 12.0215 37.1899 12.1372C37.3227 12.1938 37.4656 12.2231 37.6099 12.2231C37.7543 12.2231 37.8971 12.1938 38.0299 12.1372C38.6496 11.8731 39.3163 11.737 39.9899 11.737C40.6636 11.737 41.3302 11.8731 41.9499 12.1372C43.1461 12.6665 44.0872 13.6436 44.5713 14.8587C45.0555 16.0738 45.0442 17.4303 44.5399 18.6372C44.4813 18.7701 44.45 18.9135 44.4481 19.0588C44.4462 19.2041 44.4736 19.3483 44.5286 19.4827C44.5837 19.6171 44.6654 19.7391 44.7687 19.8412C44.872 19.9434 44.9949 20.0236 45.1299 20.0772C46.0539 20.4389 46.8465 21.072 47.4035 21.8932C47.9604 22.7143 48.2556 23.685 48.2499 24.6772C48.2522 25.6674 47.9556 26.6352 47.3989 27.4541C46.8423 28.273 46.0515 28.9049 45.1299 29.2672C44.9942 29.3202 44.8704 29.3997 44.7657 29.501C44.661 29.6023 44.5775 29.7233 44.5199 29.8572C44.463 29.9916 44.4337 30.1362 44.4337 30.2822C44.4337 30.4282 44.463 30.5727 44.5199 30.7072C44.7826 31.3255 44.918 31.9904 44.918 32.6622C44.918 33.334 44.7826 33.9989 44.5199 34.6172C43.9906 35.8133 43.0136 36.7544 41.7984 37.2386C40.5833 37.7228 39.2269 37.7115 38.0199 37.2072C37.7514 37.0971 37.451 37.0935 37.1799 37.1972ZM50.19 37.4173L56.97 49.1573L56.94 49.1873C57.125 49.4459 57.2249 49.7557 57.2258 50.0736C57.2266 50.3916 57.1284 50.702 56.9447 50.9615C56.7611 51.2211 56.5011 51.417 56.2009 51.5219C55.9008 51.6269 55.5754 51.6358 55.27 51.5473L48.9 50.4673L46.69 56.5573C46.6065 56.8606 46.4344 57.1321 46.1956 57.3369C45.9569 57.5418 45.6625 57.6708 45.35 57.7073H45.29C44.9976 57.7011 44.7124 57.6148 44.4656 57.4579C44.2188 57.301 44.0197 57.0794 43.89 56.8173L37.39 45.8173C37.3164 45.6955 37.2678 45.5603 37.247 45.4196C37.2263 45.2788 37.2338 45.1353 37.2692 44.9975C37.3046 44.8596 37.3671 44.7303 37.4531 44.6169C37.5391 44.5036 37.6468 44.4085 37.77 44.3373C38.0173 44.1939 38.3109 44.1534 38.5877 44.2245C38.8645 44.2956 39.1024 44.4726 39.25 44.7173L45.14 54.6673L47.25 48.8673C47.3356 48.6307 47.5018 48.4319 47.7194 48.3057C47.937 48.1795 48.1922 48.134 48.44 48.1773L54.52 49.1773L48.35 38.4973C48.2509 38.3767 48.1792 38.236 48.1398 38.085C48.1003 37.934 48.094 37.7762 48.1214 37.6225C48.1488 37.4689 48.2091 37.323 48.2983 37.1949C48.3875 37.0668 48.5034 36.9595 48.638 36.8805C48.7726 36.8015 48.9227 36.7526 49.078 36.7372C49.2334 36.7218 49.3902 36.7402 49.5377 36.7913C49.6852 36.8423 49.8199 36.9246 49.9325 37.0327C50.0451 37.1408 50.1329 37.272 50.19 37.4173ZM25.4522 44.2144C25.7291 44.1433 26.0227 44.1838 26.27 44.3271C26.5093 44.4694 26.6851 44.6978 26.7613 44.9656C26.8376 45.2333 26.8084 45.5201 26.68 45.7671L20.18 56.7671C20.0477 57.0293 19.8466 57.2507 19.5983 57.4074C19.3499 57.5642 19.0636 57.6505 18.77 57.6571H18.64C18.3275 57.6206 18.0331 57.4917 17.7943 57.2868C17.5556 57.0819 17.3835 56.8104 17.3 56.5071L15.09 50.4171L8.69998 51.4971C8.39685 51.5718 8.07854 51.5567 7.78381 51.4537C7.48909 51.3508 7.23064 51.1643 7.03998 50.9171C6.86656 50.6508 6.77423 50.3399 6.77423 50.0221C6.77423 49.7043 6.86656 49.3934 7.03998 49.1271L13.81 37.3971C13.8809 37.2737 13.9754 37.1654 14.0882 37.0785C14.2009 36.9916 14.3297 36.9277 14.4671 36.8906C14.6046 36.8534 14.748 36.8437 14.8892 36.862C15.0303 36.8803 15.1665 36.9262 15.29 36.9971C15.4134 37.068 15.5217 37.1625 15.6086 37.2753C15.6955 37.3881 15.7594 37.5168 15.7965 37.6543C15.8337 37.7917 15.8433 37.9351 15.8251 38.0763C15.8068 38.2174 15.7609 38.3536 15.69 38.4771L9.51999 49.1571L15.6 48.1571C15.8476 48.1159 16.1019 48.1622 16.319 48.2881C16.5362 48.4141 16.7027 48.6117 16.79 48.8471L18.91 54.6471L24.79 44.7071C24.9376 44.4624 25.1754 44.2854 25.4522 44.2144ZM40.6649 18.1733C40.9512 18.1733 41.226 18.286 41.4299 18.4869C41.5321 18.5874 41.6133 18.7072 41.6687 18.8394C41.7241 18.9716 41.7527 19.1135 41.7527 19.2569C41.7527 19.4002 41.7241 19.5421 41.6687 19.6743C41.6133 19.8065 41.5321 19.9264 41.4299 20.0269L31.2099 30.2469C30.9587 30.5006 30.6596 30.7019 30.3301 30.8392C30.0005 30.9765 29.647 31.0471 29.2899 31.0469C28.9346 31.0458 28.5829 30.9746 28.2552 30.8373C27.9274 30.7 27.63 30.4994 27.3799 30.2469L23.6499 26.5269C23.4484 26.3213 23.3355 26.0448 23.3355 25.7569C23.3355 25.4689 23.4484 25.1925 23.6499 24.9869C23.8539 24.786 24.1287 24.6733 24.4149 24.6733C24.7012 24.6733 24.976 24.786 25.1799 24.9869L28.9099 28.7169C28.9602 28.768 29.0201 28.8086 29.0862 28.8363C29.1523 28.864 29.2233 28.8782 29.295 28.8782C29.3666 28.8782 29.4376 28.864 29.5037 28.8363C29.5698 28.8086 29.6297 28.768 29.6799 28.7169L39.8999 18.4869C40.1039 18.286 40.3787 18.1733 40.6649 18.1733Z" fill="black"/>
</svg>
