<svg width="64" height="64" viewBox="0 0 64 64" fill="none" xmlns="http://www.w3.org/2000/svg">
<path fill-rule="evenodd" clip-rule="evenodd" d="M46.1529 8.22733C46.5184 8.37836 46.8505 8.60016 47.13 8.88001C47.6807 9.42978 47.9962 10.172 48.01 10.95V17.01C48.0145 17.4983 47.8402 17.9714 47.52 18.34C47.1992 18.7086 46.7545 18.9469 46.27 19.01C45.0749 19.1587 43.9523 19.6637 43.048 20.4591C42.1438 21.2545 41.4999 22.3037 41.2 23.47C41.0013 24.2474 40.9605 25.0567 41.08 25.85C41.1185 26.1153 41.05 26.3849 40.8896 26.5996C40.7293 26.8143 40.4902 26.9565 40.225 26.995C39.9598 27.0335 39.6901 26.965 39.4754 26.8046C39.2607 26.6443 39.1185 26.4052 39.08 26.14C38.9249 25.0878 38.9813 24.0152 39.2457 22.9849C39.5101 21.9547 39.9773 20.9875 40.62 20.14C41.264 19.289 42.0717 18.5754 42.9957 18.0413C43.9196 17.5072 44.9411 17.1634 46 17.03V10.96C46 10.6948 45.8946 10.4404 45.7071 10.2529C45.5196 10.0654 45.2652 9.96003 45 9.96003H3.00001C2.7348 9.96003 2.48043 10.0654 2.29289 10.2529C2.10535 10.4404 2.00001 10.6948 2.00001 10.96V17.01C3.93774 17.2487 5.72129 18.1877 7.01469 19.6502C8.30809 21.1127 9.02205 22.9977 9.02205 24.95C9.02205 26.9024 8.30809 28.7873 7.01469 30.2498C5.72129 31.7123 3.93774 32.6514 2.00001 32.89V38.96C2.00001 39.2252 2.10535 39.4796 2.29289 39.6671C2.48043 39.8547 2.7348 39.96 3.00001 39.96H18C18.2652 39.96 18.5196 40.0654 18.7071 40.2529C18.8946 40.4405 19 40.6948 19 40.96C19 41.2252 18.8946 41.4796 18.7071 41.6671C18.5196 41.8547 18.2652 41.96 18 41.96H3.00001C2.20436 41.96 1.44128 41.6439 0.878675 41.0813C0.316066 40.5187 1.26512e-05 39.7557 1.26512e-05 38.96V32.9C0.00279727 32.4113 0.180123 31.9396 0.500013 31.57C0.822453 31.2052 1.2669 30.9706 1.75001 30.91C3.20331 30.731 4.54098 30.0267 5.51103 28.9299C6.48108 27.833 7.01652 26.4193 7.01652 24.955C7.01652 23.4908 6.48108 22.077 5.51103 20.9802C4.54098 19.8833 3.20331 19.179 1.75001 19C1.26549 18.9369 0.820847 18.6986 0.500013 18.33C0.176175 17.9628 -0.00172785 17.4896 1.26512e-05 17V11C0.000712859 10.2046 0.317248 9.44208 0.880018 8.88001C1.44209 8.31724 2.20463 8.00071 3.00001 8.00001H45C45.3955 7.99904 45.7873 8.07631 46.1529 8.22733ZM27.7776 32.1909C29.9154 30.7625 32.4289 30 35 30C38.4478 30 41.7544 31.3696 44.1924 33.8076C46.6304 36.2456 48 39.5522 48 43C48 45.5712 47.2375 48.0846 45.8091 50.2224C44.3806 52.3603 42.3503 54.0265 39.9749 55.0104C37.5995 55.9944 34.9856 56.2519 32.4638 55.7502C29.9421 55.2486 27.6257 54.0105 25.8076 52.1924C23.9895 50.3743 22.7514 48.0579 22.2498 45.5362C21.7482 43.0144 22.0056 40.4006 22.9896 38.0251C23.9735 35.6497 25.6398 33.6194 27.7776 32.1909ZM28.8887 52.1462C30.6977 53.3549 32.8244 54 35 54C37.9174 54 40.7153 52.8411 42.7782 50.7782C44.8411 48.7153 46 45.9174 46 43C46 40.8244 45.3549 38.6977 44.1462 36.8887C42.9375 35.0798 41.2195 33.6699 39.2095 32.8373C37.1995 32.0048 34.9878 31.7869 32.854 32.2114C30.7202 32.6358 28.7602 33.6835 27.2218 35.2219C25.6834 36.7602 24.6358 38.7202 24.2114 40.854C23.7869 42.9878 24.0048 45.1995 24.8373 47.2095C25.6699 49.2195 27.0798 50.9375 28.8887 52.1462ZM39.55 38.9098L33.74 46.6598C33.6961 46.7163 33.6418 46.7638 33.58 46.7998C33.5139 46.8315 33.4429 46.8518 33.37 46.8598C33.3037 46.8695 33.2363 46.8695 33.17 46.8598C33.1029 46.8316 33.0418 46.7909 32.99 46.7398L29.99 43.7398C29.8017 43.5515 29.5463 43.4457 29.28 43.4457C29.0137 43.4457 28.7583 43.5515 28.57 43.7398C28.3817 43.9281 28.2759 44.1835 28.2759 44.4498C28.2759 44.7161 28.3817 44.9715 28.57 45.1598L31.57 48.1598C31.8258 48.412 32.1327 48.6064 32.47 48.7298C32.7476 48.8368 33.0426 48.8911 33.34 48.8898H33.52C33.8718 48.8671 34.2138 48.7645 34.52 48.5898C34.8326 48.4192 35.1053 48.184 35.32 47.8998L41.13 40.1498C41.2088 40.0448 41.2661 39.9252 41.2987 39.798C41.3313 39.6708 41.3385 39.5384 41.32 39.4084C41.3014 39.2784 41.2574 39.1533 41.1905 39.0403C41.1236 38.9273 41.0351 38.8286 40.93 38.7498C40.825 38.671 40.7054 38.6137 40.5782 38.5811C40.451 38.5485 40.3186 38.5413 40.1886 38.5599C40.0586 38.5784 39.9335 38.6224 39.8205 38.6893C39.7075 38.7562 39.6088 38.8447 39.53 38.9498L39.55 38.9098ZM33.5 14C33.5 14.8284 32.8284 15.5 32 15.5C31.1716 15.5 30.5 14.8284 30.5 14C30.5 13.1716 31.1716 12.5 32 12.5C32.8284 12.5 33.5 13.1716 33.5 14ZM32 21.5C32.8284 21.5 33.5 20.8284 33.5 20C33.5 19.1716 32.8284 18.5 32 18.5C31.1716 18.5 30.5 19.1716 30.5 20C30.5 20.8284 31.1716 21.5 32 21.5ZM33.5 26C33.5 26.8284 32.8284 27.5 32 27.5C31.1716 27.5 30.5 26.8284 30.5 26C30.5 25.1716 31.1716 24.5 32 24.5C32.8284 24.5 33.5 25.1716 33.5 26Z" fill="black"/>
</svg>
