<svg width="64" height="64" viewBox="0 0 64 64" fill="none" xmlns="http://www.w3.org/2000/svg">
<path fill-rule="evenodd" clip-rule="evenodd" d="M60.364 2.35C60.8611 2.35 61.264 2.75294 61.264 3.25C61.264 3.74706 60.8611 4.15 60.364 4.15H59.4191H59.419C58.4783 4.15006 57.5663 4.47358 56.8359 5.06629C56.1054 5.65901 55.601 6.48489 55.4072 7.4054L53.619 15.9002C53.6149 15.9245 53.6099 15.9485 53.6039 15.9721L47.0797 46.9654L46.3647 46.8149L47.0797 46.9654C46.8009 48.29 46.075 49.4785 45.0238 50.3314C43.9727 51.1844 42.6602 51.6499 41.3066 51.65H12.864C12.367 51.65 11.964 51.2471 11.964 50.75C11.964 50.2529 12.367 49.85 12.864 49.85H41.3065C42.2471 49.85 43.1592 49.5264 43.8897 48.9337C44.6201 48.341 45.1245 47.5151 45.3183 46.5946L45.8329 44.15H16.0915H16.0914C14.2487 44.1498 12.4572 43.5436 10.9929 42.4249C9.52866 41.3062 8.47289 39.7371 7.98824 37.9594L7.98819 37.9592L2.85574 19.1444L2.85569 19.1442C2.71819 18.6398 2.69886 18.1105 2.79922 17.5974C2.89958 17.0843 3.11691 16.6012 3.43433 16.1858C3.75175 15.7703 4.1607 15.4337 4.62938 15.202C5.09801 14.9704 5.61375 14.8499 6.13651 14.85H6.13669H52.0007L53.6458 7.03461L53.6458 7.0346C53.9247 5.70997 54.6505 4.52151 55.7017 3.66857C56.7528 2.81562 58.0653 2.35007 59.419 2.35H59.419H60.364ZM51.6217 16.65L46.2118 42.35H16.0916H16.0915C14.6437 42.3498 13.2361 41.8735 12.0857 40.9946C10.9352 40.1156 10.1056 38.8827 9.72482 37.4858L9.72478 37.4856L4.59233 18.6708L4.59229 18.6706C4.52761 18.4333 4.51854 18.1843 4.56575 17.9429C4.61298 17.7014 4.71525 17.4741 4.86462 17.2786C5.014 17.0831 5.20644 16.9247 5.427 16.8157C5.64756 16.7066 5.89029 16.65 6.13633 16.65H6.13651H51.6217ZM46.1521 53.712C45.28 52.8399 44.0973 52.35 42.864 52.35C41.6308 52.35 40.448 52.8399 39.576 53.712C38.7039 54.584 38.214 55.7667 38.214 57C38.214 58.2333 38.7039 59.416 39.576 60.288C40.448 61.1601 41.6308 61.65 42.864 61.65C44.0973 61.65 45.28 61.1601 46.1521 60.288C47.0241 59.416 47.514 58.2333 47.514 57C47.514 55.7667 47.0241 54.584 46.1521 53.712ZM42.864 54.15C43.6199 54.15 44.3448 54.4503 44.8793 54.9847C45.4137 55.5192 45.714 56.2441 45.714 57C45.714 57.7559 45.4137 58.4808 44.8793 59.0153C44.3448 59.5497 43.6199 59.85 42.864 59.85C42.1081 59.85 41.3832 59.5497 40.8488 59.0153C40.3143 58.4808 40.014 57.7559 40.014 57C40.014 56.2441 40.3143 55.5192 40.8488 54.9847C41.3832 54.4503 42.1081 54.15 42.864 54.15ZM17.864 52.35C19.0973 52.35 20.28 52.8399 21.1521 53.712C22.0241 54.584 22.514 55.7667 22.514 57C22.514 58.2333 22.0241 59.416 21.1521 60.288C20.28 61.1601 19.0973 61.65 17.864 61.65C16.6308 61.65 15.448 61.1601 14.576 60.288C13.7039 59.416 13.214 58.2333 13.214 57C13.214 55.7667 13.7039 54.584 14.576 53.712C15.448 52.8399 16.6308 52.35 17.864 52.35ZM19.8793 54.9847C19.3448 54.4503 18.6199 54.15 17.864 54.15C17.1081 54.15 16.3832 54.4503 15.8488 54.9847C15.3143 55.5192 15.014 56.2441 15.014 57C15.014 57.7559 15.3143 58.4808 15.8488 59.0153C16.3832 59.5497 17.1081 59.85 17.864 59.85C18.6199 59.85 19.3448 59.5497 19.8793 59.0153C20.4137 58.4808 20.714 57.7559 20.714 57C20.714 56.2441 20.4137 55.5192 19.8793 54.9847Z" fill="black"/>
</svg>
