<svg width="64" height="64" viewBox="0 0 64 64" fill="none" xmlns="http://www.w3.org/2000/svg">
<path d="M54 41H47V39H54C54.2652 39 54.5196 38.8946 54.7071 38.7071C54.8946 38.5196 55 38.2652 55 38C55 37.7348 54.8946 37.4804 54.7071 37.2929C54.5196 37.1054 54.2652 37 54 37H47V36C47 35.2044 46.6839 34.4413 46.1213 33.8787C45.5587 33.3161 44.7956 33 44 33H40C39.7348 33 39.4804 32.8946 39.2929 32.7071C39.1053 32.5196 39 32.2652 39 32V28C39 27.2044 38.6839 26.4413 38.1213 25.8787C37.5587 25.3161 36.7956 25 36 25H35V18C35 17.7348 34.8946 17.4804 34.7071 17.2929C34.5196 17.1054 34.2652 17 34 17C33.7348 17 33.4804 17.1054 33.2929 17.2929C33.1053 17.4804 33 17.7348 33 18V25H31V18C31 17.7348 30.8946 17.4804 30.7071 17.2929C30.5196 17.1054 30.2652 17 30 17C29.7348 17 29.4804 17.1054 29.2929 17.2929C29.1053 17.4804 29 17.7348 29 18V25H28C27.2044 25 26.4413 25.3161 25.8787 25.8787C25.3161 26.4413 25 27.2044 25 28V32C25 32.2652 24.8946 32.5196 24.7071 32.7071C24.5196 32.8946 24.2652 33 24 33H20C19.2044 33 18.4413 33.3161 17.8787 33.8787C17.3161 34.4413 17 35.2044 17 36V37H10C9.73478 37 9.48041 37.1054 9.29288 37.2929C9.10534 37.4804 9 37.7348 9 38C9 38.2652 9.10534 38.5196 9.29288 38.7071C9.48041 38.8946 9.73478 39 10 39H17V41H10C9.73478 41 9.48041 41.1054 9.29288 41.2929C9.10534 41.4804 9 41.7348 9 42C9 42.2652 9.10534 42.5196 9.29288 42.7071C9.48041 42.8946 9.73478 43 10 43H17V44C17 44.7956 17.3161 45.5587 17.8787 46.1213C18.4413 46.6839 19.2044 47 20 47H44C44.7956 47 45.5587 46.6839 46.1213 46.1213C46.6839 45.5587 47 44.7956 47 44V43H54C54.2652 43 54.5196 42.8946 54.7071 42.7071C54.8946 42.5196 55 42.2652 55 42C55 41.7348 54.8946 41.4804 54.7071 41.2929C54.5196 41.1054 54.2652 41 54 41ZM45 44C45 44.2652 44.8946 44.5196 44.7071 44.7071C44.5196 44.8946 44.2652 45 44 45H20C19.7348 45 19.4804 44.8946 19.2929 44.7071C19.1053 44.5196 19 44.2652 19 44V36C19 35.7348 19.1053 35.4804 19.2929 35.2929C19.4804 35.1054 19.7348 35 20 35H24C24.7956 35 25.5587 34.6839 26.1213 34.1213C26.6839 33.5587 27 32.7956 27 32V28C27 27.7348 27.1053 27.4804 27.2929 27.2929C27.4804 27.1054 27.7348 27 28 27H36C36.2652 27 36.5196 27.1054 36.7071 27.2929C36.8946 27.4804 37 27.7348 37 28V32C37 32.7956 37.3161 33.5587 37.8787 34.1213C38.4413 34.6839 39.2044 35 40 35H44C44.2652 35 44.5196 35.1054 44.7071 35.2929C44.8946 35.4804 45 35.7348 45 36V44Z" fill="black"/>
</svg>
