<svg width="24" height="24" viewBox="0 0 24 24" fill="none" xmlns="http://www.w3.org/2000/svg">
<g clip-path="url(#clip0_914_3200)">
<path fill-rule="evenodd" clip-rule="evenodd" d="M12.7927 3.75805C12.7167 3.83401 12.6137 3.87667 12.5063 3.87667C12.4513 3.87671 12.3969 3.86565 12.3463 3.84418C12.2957 3.82271 12.25 3.79126 12.2118 3.7517C12.1737 3.71214 12.1439 3.66529 12.1242 3.61395C12.1046 3.56261 12.0955 3.50785 12.0975 3.45292V2.63918C12.1073 2.538 12.1543 2.44408 12.2296 2.37573C12.3048 2.30739 12.4028 2.26953 12.5044 2.26953C12.606 2.26953 12.704 2.30739 12.7793 2.37573C12.8545 2.44408 12.9016 2.538 12.9113 2.63918V3.47168C12.9113 3.57909 12.8686 3.6821 12.7927 3.75805ZM7.85185 5.41555C7.78552 5.46028 7.70753 5.48457 7.62753 5.4854C7.52048 5.48427 7.41815 5.44118 7.34253 5.3654L6.52877 4.55164C6.45342 4.47517 6.41119 4.37213 6.41119 4.26477C6.41119 4.15742 6.45342 4.05437 6.52877 3.97789C6.60588 3.90231 6.70955 3.85999 6.81753 3.85999C6.9255 3.85999 7.02917 3.90231 7.10627 3.97789L7.91628 4.79165C7.97206 4.84899 8.00979 4.92145 8.02479 5.00003C8.03979 5.07862 8.03141 5.15987 8.00066 5.23373C7.96992 5.3076 7.91817 5.37081 7.85185 5.41555ZM17.3813 5.48151C17.4346 5.48292 17.4876 5.47295 17.5367 5.45226C17.5859 5.43157 17.63 5.40062 17.6663 5.36151L18.48 4.55151C18.5554 4.47503 18.5976 4.37199 18.5976 4.26464C18.5976 4.15728 18.5554 4.05423 18.48 3.97776C18.4426 3.93954 18.398 3.90919 18.3488 3.88846C18.2995 3.86773 18.2466 3.85706 18.1931 3.85706C18.1397 3.85706 18.0868 3.86773 18.0375 3.88846C17.9883 3.90919 17.9436 3.93954 17.9063 3.97776L17.0925 4.78776C17.0172 4.86423 16.9749 4.96728 16.9749 5.07464C16.9749 5.18199 17.0172 5.28503 17.0925 5.36151C17.1299 5.40017 17.1748 5.43076 17.2245 5.4514C17.2741 5.47204 17.3275 5.48229 17.3813 5.48151ZM5.19378 9.54651H6.00378C6.1112 9.54651 6.21421 9.58917 6.29016 9.66513C6.36611 9.74108 6.40879 9.8441 6.40879 9.95152C6.40879 10.0589 6.36611 10.1619 6.29016 10.2379C6.21421 10.3138 6.1112 10.3565 6.00378 10.3565H5.19378C5.08637 10.3565 4.98336 10.3138 4.90741 10.2379C4.83145 10.1619 4.78879 10.0589 4.78879 9.95152C4.78879 9.8441 4.83145 9.74108 4.90741 9.66513C4.98336 9.58917 5.08637 9.54651 5.19378 9.54651ZM7.51878 11.6764C7.54567 11.755 7.59608 11.8234 7.66315 11.8724C7.73023 11.9213 7.81074 11.9485 7.89378 11.9502C7.9397 11.95 7.98529 11.9424 8.02877 11.9277C8.07949 11.91 8.12619 11.8825 8.16617 11.8466C8.20614 11.8108 8.23859 11.7673 8.26162 11.7188C8.28465 11.6703 8.29781 11.6177 8.30033 11.5641C8.30284 11.5105 8.29466 11.4569 8.27627 11.4064C8.11171 10.939 8.02801 10.447 8.02877 9.95141C8.03015 9.04549 8.30677 8.16136 8.82196 7.41619C9.33715 6.67102 10.0666 6.09998 10.9136 5.77873C11.7607 5.45747 12.6854 5.40118 13.5651 5.6173C14.4449 5.83341 15.2382 6.31174 15.84 6.98891C15.8754 7.02896 15.9183 7.06162 15.9663 7.08501C16.0144 7.1084 16.0665 7.12206 16.1199 7.12519C16.1732 7.12833 16.2266 7.12089 16.2771 7.10329C16.3275 7.08569 16.374 7.0583 16.4138 7.02267C16.4929 6.95021 16.5407 6.84975 16.547 6.74263C16.5533 6.63551 16.5176 6.53014 16.4475 6.4489C15.7361 5.6487 14.7983 5.08353 13.7585 4.82826C12.7186 4.57299 11.6257 4.63967 10.6246 5.01946C9.62351 5.39925 8.7614 6.07422 8.15252 6.95497C7.54363 7.83572 7.2167 8.88068 7.21503 9.95141C7.21796 10.5395 7.32067 11.1227 7.51878 11.6764ZM20.2875 9.96277L23.8988 16.4615C24.0026 16.6502 24.0277 16.8723 23.9688 17.0794C23.9098 17.2866 23.7714 17.4621 23.5838 17.5678C23.4635 17.6349 23.3278 17.6698 23.19 17.669H16.9725V21.3253C16.9725 21.4327 16.9299 21.5357 16.8539 21.6116C16.778 21.6876 16.675 21.7303 16.5675 21.7303C16.4601 21.7303 16.3571 21.6876 16.2812 21.6116C16.2052 21.5357 16.1625 21.4327 16.1625 21.3253V17.669H14.535V21.3253C14.535 21.4327 14.4924 21.5357 14.4164 21.6116C14.3405 21.6876 14.2375 21.7303 14.13 21.7303C14.0226 21.7303 13.9196 21.6876 13.8437 21.6116C13.7677 21.5357 13.725 21.4327 13.725 21.3253V17.669H7.50754C7.29271 17.669 7.08669 17.5837 6.93479 17.4318C6.78288 17.2799 6.69754 17.0738 6.69754 16.859C6.69676 16.7212 6.73164 16.5856 6.79878 16.4653L10.41 9.96277C10.4803 9.83647 10.5831 9.73125 10.7077 9.65806C10.8323 9.58487 10.9743 9.54636 11.1188 9.54651H19.5788C19.7234 9.54596 19.8655 9.58431 19.9902 9.65755C20.1149 9.73078 20.2176 9.8362 20.2875 9.96277ZM12.9788 15.2315L12.6038 16.859H18.1163L17.7413 15.2315H12.9788ZM13.5225 12.794L13.1475 14.4215H17.58L17.205 12.794H13.5225ZM12.6825 12.794H9.77253L8.85379 14.4215H12.3075L12.6825 12.794ZM17.0288 11.984L16.6538 10.3565H14.0625L13.6875 11.984H17.0288ZM20.94 12.794H18.03L18.39 14.4215H21.8438L20.94 12.794ZM17.865 11.984H20.49L19.575 10.3565H17.49L17.865 11.984ZM13.215 10.3565H11.115L10.215 11.984H12.84L13.215 10.3565ZM12.1313 15.2315H8.40754L7.50754 16.859H11.7563L12.1313 15.2315ZM18.5325 15.2315L18.9075 16.859H23.16L22.2563 15.2315H18.5325Z" fill="black"/>
</g>
<defs>
<clipPath id="clip0_914_3200">
<rect width="24" height="24" fill="white"/>
</clipPath>
</defs>
</svg>
