<svg width="64" height="64" viewBox="0 0 64 64" fill="none" xmlns="http://www.w3.org/2000/svg">
<path fill-rule="evenodd" clip-rule="evenodd" d="M54.35 9.09L63.29 19.97C63.7379 20.499 63.9888 21.1669 64 21.86V53C64 53.7957 63.6839 54.5587 63.1213 55.1213C62.5587 55.6839 61.7957 56 61 56H31C30.2044 56 29.4413 55.6839 28.8787 55.1213C28.3161 54.5587 28 53.7957 28 53V11C28 10.2044 28.3161 9.44127 28.8787 8.87866C29.4413 8.31605 30.2044 8 31 8H52.04C52.4815 8.0005 52.9175 8.09845 53.3168 8.28687C53.7161 8.47528 54.0689 8.74952 54.35 9.09ZM61.6871 53.6771C61.8746 53.4896 61.98 53.2352 61.98 52.97V21.85C61.9781 21.6198 61.8969 21.3972 61.75 21.22L52.81 10.33C52.7149 10.2158 52.5956 10.1242 52.4606 10.062C52.3257 9.99968 52.1786 9.96825 52.03 9.96997H47.98V16.97C47.98 17.2352 47.8746 17.4896 47.6871 17.6771C47.4996 17.8646 47.2452 17.97 46.98 17.97C46.7148 17.97 46.4604 17.8646 46.2729 17.6771C46.0854 17.4896 45.98 17.2352 45.98 16.97V9.96997H41.98V16.97C41.98 17.2352 41.8746 17.4896 41.6871 17.6771C41.4996 17.8646 41.2452 17.97 40.98 17.97C40.7148 17.97 40.4604 17.8646 40.2729 17.6771C40.0854 17.4896 39.98 17.2352 39.98 16.97V9.96997H35.98V16.97C35.98 17.2352 35.8746 17.4896 35.6871 17.6771C35.4996 17.8646 35.2452 17.97 34.98 17.97C34.7148 17.97 34.4604 17.8646 34.2729 17.6771C34.0854 17.4896 33.98 17.2352 33.98 16.97V9.96997H30.98C30.7148 9.96997 30.4604 10.0753 30.2729 10.2629C30.0854 10.4504 29.98 10.7048 29.98 10.97V52.97C29.98 53.2352 30.0854 53.4896 30.2729 53.6771C30.4604 53.8646 30.7148 53.97 30.98 53.97H60.98C61.2452 53.97 61.4996 53.8646 61.6871 53.6771ZM39 30H53C54.3261 30 55.5979 30.5268 56.5356 31.4644C57.4732 32.4021 58 33.6739 58 35V45C58 46.3261 57.4732 47.5978 56.5356 48.5355C55.5979 49.4732 54.3261 50 53 50H39C37.6739 50 36.4022 49.4732 35.4645 48.5355C34.5268 47.5978 34 46.3261 34 45V35C34 33.6739 34.5268 32.4021 35.4645 31.4644C36.4022 30.5268 37.6739 30 39 30ZM40 38H36V42H40V38ZM50 32H42V48H50V32ZM56 38H52V42H56V38ZM56 36V35C56 34.2044 55.6839 33.4413 55.1213 32.8787C54.5587 32.3161 53.7956 32 53 32H52V36H56ZM40 32H39C38.2044 32 37.4413 32.3161 36.8787 32.8787C36.3161 33.4413 36 34.2044 36 35V36H40V32ZM36 44V45C36 45.7957 36.3161 46.5587 36.8787 47.1213C37.4413 47.6839 38.2044 48 39 48H40V44H36ZM52 48H53C53.7956 48 54.5587 47.6839 55.1213 47.1213C55.6839 46.5587 56 45.7957 56 45V44H52V48Z" fill="black"/>
</svg>
