<svg width="64" height="64" viewBox="0 0 64 64" fill="none" xmlns="http://www.w3.org/2000/svg">
<path fill-rule="evenodd" clip-rule="evenodd" d="M54 54H55C55.2652 54 55.5196 54.1054 55.7071 54.2929C55.8946 54.4804 56 54.7348 56 55C56 55.2652 55.8946 55.5196 55.7071 55.7071C55.5196 55.8947 55.2652 56 55 56H9C8.73478 56 8.48041 55.8947 8.29288 55.7071C8.10534 55.5196 8 55.2652 8 55C8 54.7348 8.10534 54.4804 8.29288 54.2929C8.48041 54.1054 8.73478 54 9 54H10V36C10 35.4696 10.2107 34.9609 10.5858 34.5858C10.9609 34.2107 11.4696 34 12 34H16V33C16 32.7348 16.1053 32.4804 16.2929 32.2929C16.4804 32.1054 16.7348 32 17 32C17.2652 32 17.5196 32.1054 17.7071 32.2929C17.8946 32.4804 18 32.7348 18 33V34C18.5304 34 19.0391 34.2107 19.4142 34.5858C19.7893 34.9609 20 35.4696 20 36V54H22V19C22 18.2044 22.3161 17.4413 22.8787 16.8787C23.4413 16.3161 24.2044 16 25 16H28V14C28 13.4696 28.2107 12.9609 28.5858 12.5858C28.9609 12.2107 29.4696 12 30 12H32V9C32 8.73478 32.1053 8.48044 32.2929 8.29291C32.4804 8.10537 32.7348 8 33 8C33.2652 8 33.5196 8.10537 33.7071 8.29291C33.8946 8.48044 34 8.73478 34 9V12C34.5304 12 35.0391 12.2107 35.4142 12.5858C35.7893 12.9609 36 13.4696 36 14V16H39C39.7956 16 40.5587 16.3161 41.1213 16.8787C41.6839 17.4413 42 18.2044 42 19V54H44V36C44 35.4696 44.2107 34.9609 44.5858 34.5858C44.9609 34.2107 45.4696 34 46 34V33C46 32.7348 46.1053 32.4804 46.2929 32.2929C46.4804 32.1054 46.7348 32 47 32C47.2652 32 47.5196 32.1054 47.7071 32.2929C47.8946 32.4804 48 32.7348 48 33V34H52C52.5304 34 53.0391 34.2107 53.4142 34.5858C53.7893 34.9609 54 35.4696 54 36V54ZM52 36H46V54H52V36ZM34 16V14H30V16H34ZM24.2929 18.2929C24.1053 18.4804 24 18.7348 24 19V54H40V19C40 18.7348 39.8946 18.4804 39.7071 18.2929C39.5196 18.1054 39.2652 18 39 18H25C24.7348 18 24.4804 18.1054 24.2929 18.2929ZM18 36H12V54H18V36ZM26.2929 22.2929C26.4804 22.1054 26.7348 22 27 22H37C37.2652 22 37.5196 22.1054 37.7071 22.2929C37.8946 22.4804 38 22.7348 38 23C38 23.2652 37.8946 23.5196 37.7071 23.7071C37.5196 23.8947 37.2652 24 37 24H27C26.7348 24 26.4804 23.8947 26.2929 23.7071C26.1053 23.5196 26 23.2652 26 23C26 22.7348 26.1053 22.4804 26.2929 22.2929ZM27 28C26.7348 28 26.4804 28.1054 26.2929 28.2929C26.1053 28.4804 26 28.7348 26 29C26 29.2652 26.1053 29.5196 26.2929 29.7071C26.4804 29.8947 26.7348 30 27 30H37C37.2652 30 37.5196 29.8947 37.7071 29.7071C37.8946 29.5196 38 29.2652 38 29C38 28.7348 37.8946 28.4804 37.7071 28.2929C37.5196 28.1054 37.2652 28 37 28H27ZM26.2929 34.2929C26.4804 34.1054 26.7348 34 27 34H37C37.2652 34 37.5196 34.1054 37.7071 34.2929C37.8946 34.4804 38 34.7348 38 35C38 35.2652 37.8946 35.5196 37.7071 35.7071C37.5196 35.8947 37.2652 36 37 36H27C26.7348 36 26.4804 35.8947 26.2929 35.7071C26.1053 35.5196 26 35.2652 26 35C26 34.7348 26.1053 34.4804 26.2929 34.2929ZM27 40C26.7348 40 26.4804 40.1054 26.2929 40.2929C26.1053 40.4804 26 40.7348 26 41C26 41.2652 26.1053 41.5196 26.2929 41.7071C26.4804 41.8947 26.7348 42 27 42H37C37.2652 42 37.5196 41.8947 37.7071 41.7071C37.8946 41.5196 38 41.2652 38 41C38 40.7348 37.8946 40.4804 37.7071 40.2929C37.5196 40.1054 37.2652 40 37 40H27ZM26.2929 46.2929C26.4804 46.1054 26.7348 46 27 46H37C37.2652 46 37.5196 46.1054 37.7071 46.2929C37.8946 46.4804 38 46.7348 38 47C38 47.2652 37.8946 47.5196 37.7071 47.7071C37.5196 47.8947 37.2652 48 37 48H27C26.7348 48 26.4804 47.8947 26.2929 47.7071C26.1053 47.5196 26 47.2652 26 47C26 46.7348 26.1053 46.4804 26.2929 46.2929Z" fill="black"/>
</svg>
