<svg width="64" height="64" viewBox="0 0 64 64" fill="none" xmlns="http://www.w3.org/2000/svg">
<path fill-rule="evenodd" clip-rule="evenodd" d="M40.9879 35.1234C39.2116 35.1234 37.8296 34.3977 36.7545 33.2654L35.1879 34.0536C34.3671 34.4904 33.6156 35.0464 32.9579 35.7036C32.5432 36.1362 31.9767 36.3908 31.3779 36.4136L31.2979 36.3836C30.7147 36.3844 30.1532 36.1626 29.7279 35.7636C29.5066 35.5604 29.3281 35.3151 29.2028 35.0421C29.0774 34.7691 29.0078 34.4738 28.9979 34.1736C28.8233 32.473 29.1981 30.7611 30.0673 29.2891C30.8955 27.8864 32.1312 26.7716 33.607 26.0913C33.0038 23.0631 32.9879 20.3794 32.9879 20.1234C32.9879 12.5934 40.2279 8.88343 40.5379 8.73343C40.6775 8.66309 40.8316 8.62646 40.9879 8.62646C41.1442 8.62646 41.2983 8.66309 41.4379 8.73343C41.7379 8.88343 48.9879 12.5934 48.9879 20.1234C48.9879 21.794 48.8149 23.9433 48.3691 26.09C49.8502 26.7736 51.0891 27.8948 51.9167 29.3054C52.7888 30.792 53.1575 32.5204 52.9679 34.2334C52.9319 34.8159 52.67 35.3612 52.238 35.7534C51.8142 36.1561 51.2525 36.3815 50.6679 36.3834H50.5879C49.975 36.3574 49.3969 36.0916 48.9779 35.6434C48.3204 34.9959 47.5727 34.4469 46.7579 34.0134L45.187 33.228C44.0934 34.3941 42.7139 35.1234 40.9879 35.1234ZM46.3891 31.599L47.6779 32.2434C48.6844 32.7721 49.6076 33.446 50.4179 34.2434C50.4459 34.2814 50.4819 34.3128 50.5234 34.3353C50.5649 34.3578 50.6108 34.3708 50.658 34.3734C50.7374 34.3681 50.8137 34.3404 50.878 34.2934C50.9064 34.2664 50.929 34.2338 50.9445 34.1977C50.96 34.1616 50.9679 34.1227 50.9679 34.0835C51.1281 32.7895 50.8624 31.4785 50.2111 30.349C49.6552 29.3852 48.8445 28.5983 47.8729 28.0716C47.4961 29.3379 47.0088 30.5489 46.3891 31.599ZM34.0871 28.0849C34.4458 29.3342 34.9215 30.566 35.5524 31.6413L34.2679 32.2836C33.2567 32.8095 32.3298 33.4836 31.5179 34.2836C31.4925 34.3148 31.4605 34.3401 31.4242 34.3574C31.3879 34.3747 31.3481 34.3836 31.3079 34.3836C31.2608 34.386 31.2137 34.3776 31.1703 34.3591C31.1269 34.3406 31.0883 34.3124 31.0575 34.2768C31.0266 34.2411 31.0043 34.1988 30.9922 34.1532C30.9802 34.1076 30.9787 34.0598 30.9879 34.0136C30.8467 32.7312 31.1226 31.4374 31.7746 30.3242C32.3289 29.3779 33.1299 28.605 34.0871 28.0849ZM40.9879 10.7734C39.5279 11.6634 34.9879 14.8334 34.9879 20.1234C34.9879 23.7434 36.0679 33.1234 40.9879 33.1234C45.9079 33.1234 46.9879 23.4934 46.9879 20.1234C46.9879 14.8334 42.4479 11.6634 40.9879 10.7734ZM17.9656 44.1231C17.9615 44.1523 17.9587 44.1816 17.9572 44.211C17.9524 44.2796 17.9548 44.3487 17.9643 44.4172C17.9698 44.4569 17.9777 44.4961 17.9879 44.5347V53.3734C17.9879 53.6386 18.0933 53.893 18.2808 54.0805C18.4683 54.2681 18.7227 54.3734 18.9879 54.3734C19.2531 54.3734 19.5075 54.2681 19.695 54.0805C19.8826 53.893 19.9879 53.6386 19.9879 53.3734V45.5971L39.9879 51.0516V54.3734C39.9879 54.6386 40.0933 54.893 40.2808 55.0805C40.4683 55.2681 40.7227 55.3734 40.9879 55.3734C41.2531 55.3734 41.5075 55.2681 41.695 55.0805C41.8826 54.893 41.9879 54.6386 41.9879 54.3734V51.0136L61.9879 45.5591V53.3734C61.9879 53.6386 62.0933 53.893 62.2808 54.0805C62.4683 54.2681 62.7227 54.3734 62.9879 54.3734C63.2531 54.3734 63.5075 54.2681 63.695 54.0805C63.8825 53.893 63.9879 53.6386 63.9879 53.3734V44.5034C63.9879 44.4871 63.9875 44.4708 63.9867 44.4546C64.0031 44.355 64.0044 44.2534 63.9903 44.1531C63.9719 44.0228 63.9281 43.8973 63.8612 43.784C63.7943 43.6707 63.7057 43.5716 63.6005 43.4926C63.5837 43.48 63.5666 43.468 63.5491 43.4565C63.5181 43.4336 63.4856 43.4123 63.4518 43.3929C63.3164 43.3152 63.1661 43.271 63.0131 43.262L52.2479 40.4435C52.1184 40.4006 51.9814 40.3847 51.8454 40.3967C51.7095 40.4088 51.5774 40.4485 51.4574 40.5135C51.3374 40.5785 51.232 40.6674 51.1476 40.7747C51.0633 40.882 51.0018 41.0054 50.9669 41.1374C50.932 41.2693 50.9245 41.407 50.9449 41.542C50.9652 41.6769 51.013 41.8063 51.0852 41.9221C51.1575 42.0379 51.2526 42.1377 51.3649 42.2153C51.4771 42.2929 51.6041 42.3467 51.7379 42.3735L59.0511 44.2882L40.9182 49.2336L22.7876 44.2888L30.2179 42.3434C30.3518 42.3167 30.4787 42.2629 30.5909 42.1853C30.7032 42.1076 30.7984 42.0078 30.8706 41.892C30.9428 41.7762 30.9906 41.6469 31.0109 41.5119C31.0313 41.377 31.0238 41.2393 30.9889 41.1073C30.9541 40.9754 30.8926 40.852 30.8082 40.7447C30.7238 40.6374 30.6184 40.5485 30.4984 40.4835C30.3784 40.4185 30.2463 40.3787 30.1104 40.3667C29.9745 40.3546 29.8375 40.3706 29.7079 40.4134L18.7079 43.2935C18.5804 43.3261 18.4606 43.3836 18.3554 43.4626C18.2501 43.5416 18.1615 43.6406 18.0946 43.754C18.0277 43.8673 17.9839 43.9927 17.9656 44.1231ZM38.9018 22.9964C39.5198 23.4073 40.2458 23.6255 40.9879 23.6235C41.9807 23.6209 42.932 23.2246 43.6331 22.5216C44.3342 21.8187 44.7279 20.8663 44.7279 19.8735C44.7279 19.1314 44.5077 18.406 44.0952 17.7891C43.6827 17.1722 43.0965 16.6916 42.4106 16.408C41.7248 16.1245 40.9703 16.0508 40.2426 16.1963C39.5149 16.3418 38.8468 16.7 38.3227 17.2254C37.7987 17.7509 37.4423 18.42 37.2987 19.1481C37.1552 19.8762 37.2309 20.6305 37.5162 21.3155C37.8016 22.0006 38.2838 22.5856 38.9018 22.9964ZM40.0119 18.4243C40.3012 18.2328 40.6409 18.1315 40.9879 18.1335C41.4486 18.1361 41.8896 18.3203 42.2154 18.6461C42.5411 18.9718 42.7253 19.4128 42.7279 19.8735C42.7299 20.2205 42.6287 20.5602 42.4372 20.8495C42.2456 21.1388 41.9724 21.3647 41.6522 21.4984C41.3321 21.6321 40.9794 21.6676 40.639 21.6003C40.2986 21.5331 39.9858 21.3663 39.7405 21.1209C39.4952 20.8756 39.3283 20.5628 39.2611 20.2225C39.1939 19.8821 39.2294 19.5294 39.3631 19.2092C39.4968 18.889 39.7226 18.6158 40.0119 18.4243ZM37.1879 40.0136C37.1879 41.6336 38.4979 46.3036 40.9879 46.3036C43.4779 46.3036 44.7879 41.6336 44.7879 40.0136C44.7879 39.0058 44.3876 38.0393 43.6749 37.3266C42.9623 36.614 41.9958 36.2136 40.9879 36.2136C39.9801 36.2136 39.0136 36.614 38.3009 37.3266C37.5883 38.0393 37.1879 39.0058 37.1879 40.0136ZM39.718 38.7437C40.055 38.4067 40.5114 38.2162 40.9879 38.2136C41.4645 38.2162 41.9208 38.4067 42.2578 38.7437C42.5948 39.0807 42.7853 39.5371 42.7879 40.0136C42.7879 41.5536 41.5779 44.2136 40.9879 44.3036C40.3979 44.2136 39.1879 41.5536 39.1879 40.0136C39.1906 39.5371 39.381 39.0807 39.718 38.7437Z" fill="black"/>
</svg>
