<svg width="64" height="64" viewBox="0 0 64 64" fill="none" xmlns="http://www.w3.org/2000/svg">
<path fill-rule="evenodd" clip-rule="evenodd" d="M19.5301 55.879C19.6745 55.957 19.8359 55.9982 20.0001 55.999C20.1586 56.0088 20.3169 55.9778 20.4601 55.909C26.3688 52.8147 31.3153 48.1584 34.7607 42.4472C38.2061 36.736 40.0183 30.1889 40.0001 23.519V10.999C40.0001 10.2034 39.684 9.44033 39.1214 8.87772C38.5588 8.31511 37.7957 7.99902 37.0001 7.99902H3.00008C2.20443 7.99902 1.44136 8.31511 0.878755 8.87772C0.316145 9.44033 7.72663e-05 10.2034 7.72663e-05 10.999V23.519C-0.0136414 30.1828 1.79971 36.7229 5.24299 42.4282C8.68627 48.1335 13.6277 52.7857 19.5301 55.879ZM2.29297 10.2919C2.48051 10.1044 2.73486 9.99902 3.00008 9.99902H37.0001C37.2653 9.99902 37.5196 10.1044 37.7072 10.2919C37.8947 10.4795 38.0001 10.7338 38.0001 10.999V23.519C38.0118 29.7288 36.3454 35.8264 33.1769 41.167C30.0084 46.5077 25.4557 50.8929 20.0001 53.859C14.5431 50.8946 9.98913 46.5097 6.82044 41.1687C3.65174 35.8277 1.98617 29.7292 2.00008 23.519V10.999C2.00008 10.7338 2.10543 10.4795 2.29297 10.2919ZM13.9401 35.3989C14.4996 35.9434 15.2494 36.2484 16.0301 36.249C16.8025 36.2459 17.544 35.945 18.1001 35.409L31.6801 22.749C31.8532 22.564 31.9496 22.3202 31.9499 22.0668C31.9502 21.8135 31.8543 21.5695 31.6816 21.3841C31.509 21.1987 31.2723 21.0858 31.0196 21.0681C30.7669 21.0504 30.5169 21.1294 30.3201 21.289L16.7201 33.979C16.5346 34.1533 16.2897 34.2504 16.0351 34.2504C15.7805 34.2504 15.5355 34.1533 15.3501 33.979L11.7101 30.299C11.52 30.1337 11.2745 30.0463 11.0227 30.0542C10.7709 30.0621 10.5313 30.1647 10.3519 30.3415C10.1726 30.5184 10.0665 30.7565 10.0551 31.0081C10.0436 31.2598 10.1275 31.5065 10.2901 31.699L13.9401 35.3989Z" fill="black"/>
</svg>
