<svg width="64" height="64" viewBox="0 0 64 64" fill="none" xmlns="http://www.w3.org/2000/svg">
<path fill-rule="evenodd" clip-rule="evenodd" d="M18.5528 12.0371C19.022 12.0371 19.4023 12.4174 19.4023 12.8866V16.5205C20.3342 15.6869 21.5433 15.2227 22.8002 15.2227H54.6557C55.9126 15.2227 57.1217 15.6869 58.0536 16.5205V12.8866C58.0536 12.4174 58.434 12.0371 58.9031 12.0371C59.3723 12.0371 59.7526 12.4174 59.7526 12.8866V30.2125C60.2216 30.3523 60.6532 30.6071 61.0055 30.9594C61.563 31.517 61.8763 32.2732 61.8763 33.0617V40.7071H63.1505C63.6197 40.7071 64 41.0874 64 41.5565V44.7421C64 45.5306 63.6868 46.2869 63.1292 46.8444C62.7769 47.1967 62.3452 47.4515 61.8763 47.5913V51.1132C61.8763 51.5823 61.496 51.9627 61.0268 51.9627C60.5577 51.9627 60.1773 51.5823 60.1773 51.1132V47.7153H17.2786V51.1132C17.2786 51.5823 16.8983 51.9627 16.4291 51.9627C15.96 51.9627 15.5796 51.5823 15.5796 51.1132V47.5913C15.1107 47.4515 14.6791 47.1967 14.3268 46.8444C13.7692 46.2869 13.4559 45.5306 13.4559 44.7421V41.5565C13.4559 41.0874 13.8363 40.7071 14.3054 40.7071H15.5796V33.0617C15.5796 32.2732 15.8929 31.517 16.4505 30.9594C16.8028 30.6071 17.2344 30.3523 17.7033 30.2125V12.8866C17.7033 12.4174 18.0837 12.0371 18.5528 12.0371ZM19.4023 30.0886H22.2376C22.0505 29.694 21.9507 29.2593 21.9507 28.8143V27.0517C21.9507 25.9708 22.5506 25.1612 23.2978 24.5937C24.0333 24.0349 24.986 23.6466 25.922 23.3722C27.7998 22.8217 29.8738 22.6556 30.7641 22.6556C31.3268 22.6556 33.3953 22.8299 35.3424 23.3775C36.3144 23.6509 37.3234 24.0353 38.1072 24.5825C38.3147 24.7273 38.5154 24.8904 38.6983 25.0726C38.8635 24.8961 39.0456 24.736 39.2371 24.5917C39.9772 24.0339 40.9352 23.646 41.8746 23.3719C43.759 22.8219 45.8325 22.6556 46.6918 22.6556C47.2545 22.6556 49.3231 22.8299 51.2701 23.3775C52.2422 23.6509 53.2511 24.0353 54.0349 24.5825C54.8189 25.1297 55.5052 25.9373 55.5052 27.0517V28.8143C55.5052 29.2593 55.4054 29.694 55.2183 30.0886H58.0536V20.3195C58.0536 19.4184 57.6956 18.5541 57.0584 17.9168C56.4212 17.2796 55.5569 16.9216 54.6557 16.9216H22.8002C21.899 16.9216 21.0348 17.2796 20.3975 17.9168C19.7603 18.5541 19.4023 19.4184 19.4023 20.3195V30.0886ZM52.532 30.0886C52.87 30.0886 53.1941 29.9543 53.433 29.7153C53.672 29.4764 53.8062 29.1523 53.8062 28.8143V27.0517C53.8062 26.7219 53.6191 26.3641 53.0625 25.9756C52.5058 25.587 51.7069 25.2653 50.8101 25.013C49.0194 24.5094 47.1061 24.3546 46.6918 24.3546C45.9584 24.3546 44.0499 24.5068 42.3506 25.0028C41.4981 25.2516 40.7638 25.5685 40.2596 25.9485C39.7661 26.3204 39.5774 26.6813 39.5774 27.0517V28.8143C39.5774 29.1523 39.7117 29.4764 39.9507 29.7153C40.1896 29.9543 40.5137 30.0886 40.8517 30.0886H52.532ZM18.5528 31.7875C18.2149 31.7875 17.8908 31.9218 17.6518 32.1607C17.4128 32.3997 17.2786 32.7238 17.2786 33.0617V40.7071H60.1773V33.0617C60.1773 32.7238 60.0431 32.3997 59.8041 32.1607C59.5652 31.9218 59.2411 31.7875 58.9031 31.7875H18.5528ZM36.6043 30.0886C36.9422 30.0886 37.2663 29.9543 37.5053 29.7153C37.7442 29.4764 37.8785 29.1523 37.8785 28.8143V27.0517C37.8785 26.7219 37.6914 26.3641 37.1348 25.9756C36.578 25.587 35.7792 25.2653 34.8824 25.013C33.0917 24.5094 31.1783 24.3546 30.7641 24.3546C29.9978 24.3546 28.09 24.5071 26.3999 25.0025C25.5521 25.2511 24.8243 25.5675 24.3255 25.9465C23.8382 26.3167 23.6497 26.6778 23.6497 27.0517V28.8143C23.6497 29.1523 23.7839 29.4764 24.0229 29.7153C24.2619 29.9543 24.586 30.0886 24.9239 30.0886H36.6043ZM15.1549 42.406V44.7421C15.1549 45.08 15.2891 45.4041 15.5281 45.6431C15.7671 45.8821 16.0912 46.0163 16.4291 46.0163H61.0268C61.3648 46.0163 61.6889 45.8821 61.9278 45.6431C62.1668 45.4041 62.301 45.08 62.301 44.7421V42.406H15.1549Z" fill="#000001"/>
</svg>
