<svg width="64" height="64" viewBox="0 0 64 64" fill="none" xmlns="http://www.w3.org/2000/svg">
<g clip-path="url(#clip0_896_1111)">
<path fill-rule="evenodd" clip-rule="evenodd" d="M41.6187 7.89355H51.266C52.2209 7.90404 53.152 8.19376 53.9443 8.7269C54.735 9.25891 55.353 10.0102 55.7228 10.8884L57.8478 15.7783L62.1849 18.2982C62.743 18.6298 63.2043 19.1021 63.5227 19.6679C63.8404 20.2322 64.0047 20.8699 63.9994 21.5174V24.0264C64.0173 24.9856 63.6553 25.9133 62.9919 26.6069C62.3261 27.303 61.4112 27.7065 60.4481 27.7285L60.4269 27.7287H59.0694C58.8562 28.5002 58.4333 29.2041 57.8401 29.7579C57.0313 30.513 55.966 30.9329 54.8596 30.9329C53.7531 30.9329 52.6879 30.513 51.8791 29.7579C51.0703 29.0028 50.5782 27.9689 50.5022 26.8651C50.4671 26.3541 50.8528 25.9115 51.3637 25.8763C51.8746 25.8411 52.3173 26.2268 52.3525 26.7378C52.3962 27.3729 52.6793 27.9678 53.1447 28.4022C53.61 28.8367 54.2229 29.0783 54.8596 29.0783C55.4962 29.0783 56.1091 28.8367 56.5745 28.4022C57.0398 27.9678 57.323 27.3729 57.3667 26.7378C57.4001 26.2515 57.8043 25.8741 58.2918 25.8741H60.4152C60.8834 25.8609 61.3277 25.6637 61.6516 25.325C61.9778 24.984 62.1552 24.5275 62.145 24.0558L62.1448 24.0357V21.5047C62.1478 21.1801 62.0657 20.8604 61.9065 20.5775C61.748 20.2958 61.5186 20.0605 61.2411 19.8948L56.6529 17.2289C56.4819 17.1296 56.3471 16.9781 56.2683 16.7967L54.0148 11.6115C53.7854 11.0646 53.401 10.5967 52.9089 10.2656C52.4182 9.93541 51.8418 9.7556 51.2504 9.74818H41.626C40.9468 9.75957 40.2905 9.99561 39.7595 10.4195C39.2269 10.8448 38.8508 11.4349 38.6901 12.0972L38.6863 12.1129L37.4992 16.6613C37.4523 16.8412 37.3523 17.0028 37.2123 17.1252L34.2096 19.7506L34.2078 19.7522C34.0066 19.9307 33.8455 20.1499 33.7355 20.3954C33.6252 20.6416 33.5686 20.9085 33.5697 21.1783C33.5716 21.6905 33.1581 22.1072 32.6459 22.1092C32.1338 22.1112 31.717 21.6976 31.7151 21.1855C31.713 20.6518 31.8248 20.1239 32.0431 19.6369C32.2614 19.1499 32.5811 18.7151 32.9808 18.3615L32.9848 18.3579L35.7768 15.9169L36.8897 11.6519C37.1484 10.5933 37.7506 9.65022 38.6023 8.97019C39.4562 8.28841 40.5125 7.90972 41.6051 7.89365L41.6187 7.89355Z" fill="#000001"/>
<path fill-rule="evenodd" clip-rule="evenodd" d="M17.6657 28.0445C17.1765 28.0414 16.6916 28.135 16.2388 28.3199C15.786 28.5049 15.3742 28.7776 15.0272 29.1224C14.6802 29.4671 14.4049 29.8771 14.217 30.3287C14.029 30.7803 13.9323 31.2646 13.9323 31.7538V47.0753C13.9323 47.43 14.0022 47.7812 14.1379 48.1088C14.2736 48.4365 14.4726 48.7343 14.7234 48.985C14.9742 49.2358 15.2719 49.4348 15.5996 49.5705C15.9272 49.7062 16.2784 49.7761 16.6331 49.7761H17.5442C18.0563 49.7761 18.4715 50.1913 18.4715 50.7034V50.7341C18.4953 51.6734 18.8845 52.5666 19.5566 53.2236C20.231 53.883 21.1367 54.2521 22.0799 54.2521C23.0231 54.2521 23.9288 53.883 24.6032 53.2236C25.2753 52.5666 25.6645 51.6734 25.6883 50.7341V50.7034C25.6883 50.1913 26.1035 49.7761 26.6156 49.7761H40.2332C40.7453 49.7761 41.1605 50.1913 41.1605 50.7034V50.734C41.1843 51.6734 41.5735 52.5666 42.2456 53.2236C42.92 53.883 43.8257 54.2521 44.7689 54.2521C45.7121 54.2521 46.6178 53.883 47.2922 53.2236C47.9643 52.5666 48.3535 51.6734 48.3773 50.734V50.7034C48.3773 50.1913 48.7925 49.7761 49.3046 49.7761H51.1221C51.8387 49.7761 52.526 49.4915 53.0329 48.985C53.5398 48.4784 53.8248 47.7913 53.8252 47.0747V43.7659C53.8259 43.285 53.6983 42.8127 53.4555 42.3976C53.2131 41.983 52.8645 41.6405 52.4457 41.4053L52.4443 41.4045L46.1487 37.9057C45.9753 37.8093 45.8374 37.6598 45.7552 37.4793L42.6696 30.7006L42.6687 30.6988C42.3109 29.908 41.7327 29.237 41.0034 28.7663C40.2742 28.2957 39.4249 28.0451 38.5571 28.0446L17.6657 28.0445ZM50.143 51.6307C49.9401 52.734 49.4009 53.7558 48.5887 54.5498C47.5678 55.5479 46.1967 56.1068 44.7689 56.1068C43.3411 56.1068 41.97 55.5479 40.949 54.5498C40.1369 53.7558 39.5976 52.734 39.3948 51.6307H27.454C27.2512 52.734 26.7119 53.7558 25.8997 54.5498C24.8788 55.5479 23.5077 56.1068 22.0799 56.1068C20.6521 56.1068 19.281 55.5479 18.2601 54.5498C17.4479 53.7558 16.9086 52.734 16.7058 51.6307H16.6331C16.0349 51.6307 15.4425 51.5129 14.8898 51.2839C14.3371 51.055 13.835 50.7195 13.4119 50.2965C12.9889 49.8734 12.6534 49.3713 12.4245 48.8186C12.1955 48.2659 12.0777 47.6735 12.0777 47.0753V31.7538V31.7538C12.0777 31.0201 12.2228 30.2936 12.5047 29.6162C12.7865 28.9388 13.1996 28.3239 13.7201 27.8067C14.2406 27.2896 14.8582 26.8805 15.5374 26.6031C16.2157 26.326 16.942 26.1856 17.6746 26.1899H38.5571C39.7815 26.1905 40.9804 26.544 42.0092 27.2081C43.0376 27.8719 43.853 28.8179 44.3579 29.933L44.3584 29.9342L47.3166 36.4329L53.3515 39.7869C54.0587 40.1835 54.6472 40.7615 55.0565 41.4614C55.4658 42.1612 55.681 42.9576 55.6799 43.7684L54.7525 43.7671H55.6799V43.7684V47.0753C55.6791 48.2836 55.1986 49.4427 54.3439 50.2968C53.4892 51.1509 52.3304 51.6307 51.1221 51.6307H50.143Z" fill="#000001"/>
</g>
<defs>
<clipPath id="clip0_896_1111">
<rect width="64" height="64" fill="white"/>
</clipPath>
</defs>
</svg>
