<svg width="24" height="24" viewBox="0 0 24 24" fill="none" xmlns="http://www.w3.org/2000/svg">
<path fill-rule="evenodd" clip-rule="evenodd" d="M11.595 20.726C11.715 20.8019 11.8542 20.8422 11.9962 20.8422C12.1224 20.8426 12.2466 20.8113 12.3573 20.7509C12.4681 20.6906 12.5619 20.6034 12.63 20.4972C14.25 17.9735 18 11.816 18 9.15723C18 7.56593 17.3679 6.0398 16.2426 4.91458C15.1174 3.78936 13.5913 3.15723 12 3.15723C10.4087 3.15723 8.88258 3.78936 7.75736 4.91458C6.63214 6.0398 6 7.56593 6 9.15723C6 11.8197 9.75375 17.9772 11.3662 20.4972C11.4267 20.5878 11.5045 20.6655 11.595 20.726ZM8.28394 5.44491C9.26851 4.46035 10.6039 3.90723 11.9962 3.90723H12C13.3917 3.90822 14.7261 4.46178 15.7099 5.44624C16.6936 6.4307 17.2462 7.76549 17.2462 9.15723C17.2462 11.6885 13.2262 18.1685 11.9962 20.0922C9.4575 16.1285 6.74625 11.171 6.74625 9.15723C6.74625 7.76484 7.29937 6.42948 8.28394 5.44491ZM10.5416 11.3398C10.9733 11.6283 11.4808 11.7822 12 11.7822C12.6962 11.7822 13.3639 11.5057 13.8562 11.0134C14.3484 10.5211 14.625 9.85342 14.625 9.15723C14.625 8.63806 14.471 8.13053 14.1826 7.69885C13.8942 7.26717 13.4842 6.93073 13.0045 6.73205C12.5249 6.53337 11.9971 6.48138 11.4879 6.58267C10.9787 6.68395 10.511 6.93396 10.1438 7.30107C9.77673 7.66818 9.52673 8.13591 9.42544 8.64511C9.32415 9.15431 9.37614 9.68211 9.57482 10.1618C9.7735 10.6414 10.1099 11.0514 10.5416 11.3398ZM10.9583 7.59823C11.2666 7.3922 11.6292 7.28223 12 7.28223C12.4973 7.28223 12.9742 7.47977 13.3258 7.8314C13.6775 8.18303 13.875 8.65995 13.875 9.15723C13.875 9.52807 13.765 9.89058 13.559 10.1989C13.353 10.5073 13.0601 10.7476 12.7175 10.8895C12.3749 11.0314 11.9979 11.0685 11.6342 10.9962C11.2705 10.9238 10.9364 10.7453 10.6742 10.4831C10.412 10.2208 10.2334 9.88673 10.161 9.52302C10.0887 9.1593 10.1258 8.78231 10.2677 8.4397C10.4096 8.09709 10.65 7.80425 10.9583 7.59823Z" fill="black"/>
</svg>
