<svg width="64" height="64" viewBox="0 0 64 64" fill="none" xmlns="http://www.w3.org/2000/svg">
<path fill-rule="evenodd" clip-rule="evenodd" d="M54.951 36.3553C54.5159 36.3602 54.0845 36.2737 53.6849 36.1015C53.2853 35.9292 52.9263 35.675 52.631 35.3553L51.631 34.2253C51.5323 34.115 51.4127 34.0253 51.2791 33.9615C51.1455 33.8977 51.0006 33.861 50.8527 33.8536C50.7049 33.8462 50.557 33.8681 50.4177 33.9182C50.2784 33.9682 50.1503 34.0454 50.041 34.1453L49.961 34.2253L48.961 35.3553C48.404 35.9704 47.6254 36.3391 46.7966 36.3804C45.9677 36.4217 45.1564 36.1321 44.541 35.5753C44.2006 35.2643 43.9341 34.881 43.7611 34.4536C43.5881 34.0262 43.5129 33.5655 43.541 33.1053L43.611 31.5753C43.6202 31.4277 43.5992 31.2797 43.5493 31.1405C43.4995 31.0012 43.4218 30.8736 43.321 30.7653C43.1227 30.5459 42.8462 30.4131 42.551 30.3953H42.441L40.911 30.4753C40.2658 30.5103 39.6256 30.3441 39.0789 29.9996C38.5322 29.6551 38.1059 29.1495 37.8589 28.5523C37.612 27.9552 37.5565 27.2961 37.7002 26.6661C37.8439 26.0361 38.1796 25.4663 38.661 25.0353L39.791 24.0353C39.9014 23.9365 39.991 23.8169 40.0548 23.6833C40.1186 23.5498 40.1553 23.4048 40.1627 23.257C40.1702 23.1091 40.1482 22.9612 40.0981 22.8219C40.0481 22.6826 39.9709 22.5546 39.871 22.4453C39.8469 22.4161 39.8202 22.3894 39.791 22.3653L38.661 21.3653C38.1796 20.9343 37.8439 20.3644 37.7002 19.7344C37.5565 19.1044 37.612 18.4453 37.8589 17.8482C38.1059 17.2511 38.5322 16.7454 39.0789 16.401C39.6256 16.0565 40.2658 15.8903 40.911 15.9253L42.431 16.0053C42.5796 16.0162 42.7288 15.9967 42.8696 15.9482C43.0104 15.8997 43.1399 15.8231 43.2503 15.7231C43.3606 15.623 43.4495 15.5016 43.5115 15.3662C43.5735 15.2308 43.6074 15.0842 43.611 14.9353V14.8153L43.541 13.3053C43.5097 12.6616 43.6779 12.024 44.0225 11.4795C44.3671 10.9349 44.8714 10.51 45.4665 10.2628C46.0616 10.0156 46.7185 9.95806 47.3475 10.0981C47.9766 10.2382 48.547 10.5689 48.981 11.0453L49.981 12.1753C50.0763 12.2875 50.194 12.3784 50.3267 12.4421C50.4594 12.5059 50.6039 12.541 50.751 12.5453C51.0475 12.563 51.3388 12.4623 51.561 12.2653L51.651 12.1753L52.651 11.0453C53.085 10.5689 53.6555 10.2382 54.2845 10.0981C54.9135 9.95806 55.5704 10.0156 56.1656 10.2628C56.7607 10.51 57.2649 10.9349 57.6096 11.4795C57.9542 12.024 58.1223 12.6616 58.091 13.3053L58.011 14.8253C57.9974 15.1234 58.1023 15.4148 58.3028 15.6359C58.5032 15.8569 58.783 15.9897 59.081 16.0053H59.191L60.711 15.9253C61.3563 15.8903 61.9964 16.0565 62.5432 16.401C63.0899 16.7454 63.5161 17.2511 63.7631 17.8482C64.0101 18.4453 64.0656 19.1044 63.9219 19.7344C63.7782 20.3644 63.4425 20.9343 62.961 21.3653L61.841 22.3653C61.729 22.4635 61.6377 22.583 61.5724 22.717C61.5072 22.8509 61.4693 22.9965 61.461 23.1453C61.4503 23.4425 61.5541 23.7324 61.751 23.9553L61.831 24.0353L62.961 25.0353C63.4425 25.4663 63.7782 26.0361 63.9219 26.6661C64.0656 27.2961 64.0101 27.9552 63.7631 28.5523C63.5161 29.1495 63.0899 29.6551 62.5432 29.9996C61.9964 30.3441 61.3563 30.5103 60.711 30.4753L59.191 30.3953C58.8935 30.3825 58.6028 30.4865 58.381 30.6853C58.1628 30.8886 58.0304 31.1676 58.011 31.4653V31.5853L58.091 33.0953C58.1125 33.5088 58.0518 33.9226 57.9122 34.3125C57.7727 34.7024 57.5571 35.0608 57.2781 35.3668C56.999 35.6728 56.662 35.9204 56.2866 36.0952C55.9112 36.27 55.5048 36.3686 55.091 36.3853L54.951 36.3553ZM53.091 32.8553L54.091 33.9853C54.2438 34.1717 54.4522 34.3043 54.6857 34.3639C54.9193 34.4234 55.1657 34.4067 55.3891 34.3162C55.6125 34.2258 55.8011 34.0663 55.9274 33.861C56.0536 33.6557 56.111 33.4155 56.091 33.1753L56.011 31.6553V31.3553C56.048 30.5319 56.4071 29.7561 57.011 29.1953C57.3136 28.9184 57.6686 28.705 58.0551 28.5676C58.4415 28.4302 58.8516 28.3716 59.261 28.3953L60.781 28.4653C60.9473 28.4803 61.1148 28.4556 61.2696 28.393C61.4244 28.3304 61.562 28.2317 61.671 28.1053C61.7709 27.996 61.8481 27.868 61.8981 27.7286C61.9482 27.5893 61.9702 27.4415 61.9627 27.2936C61.9553 27.1457 61.9186 27.0008 61.8548 26.8672C61.791 26.7336 61.7013 26.614 61.591 26.5153L60.471 25.5153C60.3895 25.4437 60.3126 25.3669 60.241 25.2853C59.6855 24.6686 59.3976 23.8565 59.4408 23.0276C59.4839 22.1988 59.8545 21.421 60.471 20.8653L61.591 19.8653C61.7145 19.7534 61.8117 19.6156 61.8757 19.4617C61.9396 19.3078 61.9688 19.1417 61.961 18.9753C61.9455 18.6772 61.8127 18.3975 61.5916 18.197C61.3705 17.9966 61.0792 17.8917 60.781 17.9053L59.261 17.9753H58.941C58.529 17.9586 58.1243 17.8606 57.7503 17.687C57.3762 17.5135 57.0401 17.2677 56.7614 16.9638C56.4826 16.66 56.2666 16.304 56.1258 15.9164C55.9851 15.5288 55.9222 15.1172 55.941 14.7053L56.021 13.1753C56.0294 13.0102 56.0005 12.8454 55.9365 12.693C55.8724 12.5407 55.7748 12.4047 55.651 12.2953C55.5424 12.1948 55.4149 12.1169 55.2759 12.066C55.137 12.0151 54.9893 11.9922 54.8414 11.9987C54.6936 12.0053 54.5485 12.041 54.4145 12.1039C54.2806 12.1668 54.1604 12.2557 54.061 12.3653L53.061 13.4953L52.831 13.7253C52.5265 14.0001 52.1708 14.2121 51.7843 14.3493C51.3977 14.4864 50.9879 14.546 50.5783 14.5247C50.1687 14.5033 49.7674 14.4014 49.3972 14.2248C49.027 14.0481 48.6953 13.8003 48.421 13.4953L47.421 12.3653C47.3067 12.245 47.1684 12.1499 47.0152 12.0861C46.8619 12.0224 46.697 11.9915 46.531 11.9953C46.2321 12.0134 45.9523 12.1483 45.7521 12.371C45.5519 12.5936 45.4474 12.8861 45.461 13.1853L45.541 14.6953C45.551 14.8017 45.551 14.9089 45.541 15.0153C45.5231 15.4278 45.4239 15.8327 45.2492 16.2068C45.0746 16.5809 44.8279 16.9169 44.5232 17.1956C44.2186 17.4742 43.8619 17.69 43.4738 17.8307C43.0856 17.9713 42.6735 18.0341 42.261 18.0153L40.741 17.9453C40.5743 17.9353 40.4075 17.9635 40.2533 18.0276C40.0991 18.0917 39.9616 18.1901 39.851 18.3153C39.7512 18.4246 39.674 18.5526 39.6239 18.6919C39.5739 18.8312 39.5519 18.9791 39.5593 19.127C39.5668 19.2748 39.6035 19.4197 39.6673 19.5533C39.7311 19.6869 39.8207 19.8065 39.931 19.9053L41.061 20.9053L41.291 21.1253C41.8466 21.7419 42.1344 22.554 42.0913 23.3829C42.0482 24.2118 41.6776 24.9896 41.061 25.5453L39.931 26.5453C39.7373 26.6946 39.5977 26.9033 39.5337 27.1394C39.4697 27.3755 39.4847 27.6261 39.5766 27.8529C39.6684 28.0796 39.832 28.2701 40.0422 28.3951C40.2525 28.5201 40.4979 28.5729 40.741 28.5453L42.261 28.4753H42.581C42.9948 28.4893 43.4016 28.5858 43.7776 28.7591C44.1536 28.9324 44.4912 29.179 44.7706 29.4845C45.0501 29.79 45.2657 30.1482 45.4048 30.5382C45.544 30.9281 45.6039 31.3419 45.581 31.7553L45.501 33.2753C45.4946 33.4416 45.5244 33.6073 45.5883 33.7609C45.6522 33.9146 45.7486 34.0525 45.871 34.1653C45.9803 34.2651 46.1083 34.3423 46.2477 34.3924C46.387 34.4425 46.5349 34.4644 46.6827 34.457C46.8306 34.4495 46.9755 34.4129 47.1091 34.3491C47.2427 34.2853 47.3623 34.1956 47.461 34.0853L48.461 32.9553L48.691 32.7253C49.3072 32.1728 50.1171 31.8869 50.9435 31.93C51.7699 31.9731 52.5457 32.3417 53.101 32.9553L53.091 32.8553ZM32.0896 53.7012C32.4876 53.8734 32.9174 53.96 33.351 53.9553H33.441C33.8535 53.9373 34.2584 53.8382 34.6325 53.6635C35.0066 53.4888 35.3426 53.2421 35.6213 52.9375C35.8999 52.6328 36.1158 52.2762 36.2564 51.888C36.3971 51.4998 36.4598 51.0877 36.441 50.6753L36.361 49.1453V49.0353C36.3791 48.739 36.513 48.4618 36.7338 48.2634C36.9546 48.0651 37.2445 47.9616 37.541 47.9753L39.061 48.0453C39.7154 48.0911 40.3675 47.9296 40.9248 47.5836C41.4821 47.2376 41.9162 46.7247 42.1653 46.1179C42.4144 45.5111 42.466 44.8413 42.3126 44.2035C42.1593 43.5657 41.8088 42.9925 41.311 42.5653L40.181 41.5653L40.101 41.4853C39.9019 41.2633 39.7985 40.9716 39.8135 40.6738C39.8285 40.3759 39.9606 40.0961 40.181 39.8953L41.311 38.8953C41.6364 38.6027 41.8966 38.2449 42.0747 37.8452C42.2528 37.4455 42.3449 37.0129 42.3449 36.5753C42.3449 36.1377 42.2528 35.705 42.0747 35.3053C41.8966 34.9056 41.6364 34.5479 41.311 34.2553C41.0084 33.9784 40.6534 33.765 40.267 33.6276C39.8806 33.4901 39.4705 33.4316 39.061 33.4553L37.581 33.5353H37.471C37.1728 33.5179 36.8931 33.3852 36.691 33.1653C36.5907 33.0567 36.5134 32.929 36.4636 32.7898C36.4137 32.6506 36.3925 32.5028 36.401 32.3553L36.451 30.8353C36.4758 30.3739 36.3991 29.9128 36.2263 29.4843C36.0535 29.0558 35.7889 28.6704 35.451 28.3553C34.8349 27.8028 34.025 27.5169 33.1986 27.56C32.3721 27.6031 31.5964 27.9717 31.041 28.5853L30.041 29.7053L29.951 29.7953C29.7278 29.9932 29.4353 30.0948 29.1375 30.078C28.8396 30.0611 28.5605 29.9271 28.361 29.7053L27.361 28.5753C27.0474 28.2382 26.6637 27.974 26.237 27.8012C25.8102 27.6285 25.3508 27.5513 24.891 27.5753C24.4828 27.5909 24.0816 27.6873 23.7109 27.8589C23.3401 28.0306 23.0071 28.2741 22.731 28.5753C22.4539 28.8801 22.2397 29.2367 22.1007 29.6245C21.9617 30.0124 21.9007 30.4238 21.921 30.8353L22.001 32.3553V32.5753C21.9946 32.7233 21.9589 32.8686 21.896 33.0027C21.8331 33.1368 21.7442 33.2571 21.6344 33.3566C21.5247 33.4561 21.3963 33.5329 21.2566 33.5824C21.117 33.632 20.969 33.6534 20.821 33.6453L19.301 33.5653C18.8401 33.5304 18.3774 33.6025 17.9489 33.776C17.5204 33.9495 17.1379 34.2196 16.831 34.5653C16.5556 34.8691 16.3429 35.2243 16.2048 35.6105C16.0668 35.9967 16.0063 36.4063 16.0268 36.8159C16.0472 37.2255 16.1482 37.627 16.3239 37.9975C16.4997 38.3681 16.7468 38.7003 17.051 38.9753L18.181 39.9753L18.261 40.0553C18.3603 40.1652 18.4367 40.2937 18.486 40.4334C18.5352 40.5731 18.5562 40.7212 18.5479 40.8691C18.5395 41.0169 18.5019 41.1617 18.4372 41.2949C18.3725 41.4281 18.282 41.5472 18.171 41.6453L17.041 42.6453C16.5685 43.0801 16.2412 43.6497 16.1035 44.2768C15.9657 44.904 16.0241 45.5583 16.2709 46.1511C16.5176 46.7439 16.9407 47.2465 17.4827 47.5907C18.0248 47.9349 18.6596 48.1041 19.301 48.0753L20.821 48.0053H20.931C21.2291 48.0208 21.5088 48.1536 21.7093 48.3747C21.9098 48.5958 22.0146 48.8871 22.001 49.1853L21.921 50.7053C21.892 51.3481 22.0617 51.9842 22.4071 52.5271C22.7526 53.07 23.2569 53.4932 23.8515 53.7391C24.4461 53.985 25.1021 54.0417 25.7301 53.9014C26.3581 53.7612 26.9276 53.4308 27.361 52.9553L28.361 51.8253L28.451 51.7453C28.6728 51.5465 28.9635 51.4424 29.261 51.4553C29.5587 51.4747 29.8377 51.607 30.041 51.8253L31.041 52.9553C31.3343 53.2747 31.6916 53.5289 32.0896 53.7012ZM29.341 49.4253H29.181C28.4332 49.4395 27.7158 49.7237 27.161 50.2253L26.931 50.4553L25.931 51.5853C25.7782 51.7717 25.5699 51.9043 25.3363 51.9639C25.1028 52.0234 24.8563 52.0067 24.633 51.9162C24.4096 51.8258 24.221 51.6663 24.0947 51.461C23.9684 51.2557 23.9111 51.0155 23.931 50.7753L24.011 49.2553C24.0298 48.8428 23.9671 48.4307 23.8264 48.0425C23.6858 47.6544 23.4699 47.2978 23.1913 46.9931C22.9126 46.6884 22.5766 46.4417 22.2025 46.267C21.8284 46.0924 21.4235 45.9932 21.011 45.9753H20.701L19.181 46.0553C18.8829 46.0689 18.5915 45.964 18.3704 45.7635C18.1494 45.5631 18.0166 45.2833 18.001 44.9853C17.9946 44.819 18.0244 44.6533 18.0883 44.4996C18.1522 44.346 18.2486 44.208 18.371 44.0953L19.501 43.0953C20.1132 42.5385 20.4799 41.7621 20.5212 40.9357C20.5624 40.1093 20.2747 39.3001 19.721 38.6853C19.6529 38.6038 19.5794 38.527 19.501 38.4553L18.371 37.4553C18.2604 37.3566 18.1706 37.2367 18.1071 37.1027C18.0435 36.9687 18.0075 36.8234 18.001 36.6753C17.9925 36.5277 18.0137 36.3799 18.0636 36.2407C18.1134 36.1016 18.1907 35.9739 18.291 35.8653C18.4025 35.7412 18.5402 35.6437 18.6942 35.5796C18.8482 35.5156 19.0145 35.4868 19.181 35.4953L20.701 35.5753C21.1109 35.5949 21.5206 35.5334 21.9067 35.3944C22.2928 35.2554 22.6477 35.0416 22.951 34.7653C23.2527 34.4896 23.4964 34.1566 23.6681 33.7858C23.8398 33.4149 23.936 33.0136 23.951 32.6053V32.2953L23.871 30.7753C23.8582 30.4778 23.9623 30.187 24.161 29.9653C24.2582 29.8528 24.3778 29.7618 24.5121 29.6981C24.6463 29.6344 24.7924 29.5994 24.941 29.5953C25.1076 29.5868 25.2739 29.6156 25.4279 29.6796C25.5818 29.7437 25.7196 29.8412 25.831 29.9653L26.831 31.0853C27.1053 31.3902 27.437 31.6381 27.8072 31.8148C28.1774 31.9914 28.5787 32.0933 28.9883 32.1147C29.3979 32.136 29.8077 32.0764 30.1943 31.9393C30.5808 31.8021 30.9365 31.59 31.241 31.3153C31.3226 31.2437 31.3994 31.1669 31.471 31.0853L32.471 29.9653C32.5698 29.8549 32.6894 29.7653 32.823 29.7015C32.9566 29.6377 33.1015 29.601 33.2493 29.5936C33.3972 29.5861 33.5451 29.6081 33.6844 29.6582C33.8237 29.7082 33.9517 29.7854 34.061 29.8853C34.1862 29.9958 34.2846 30.1334 34.3487 30.2876C34.4128 30.4418 34.441 30.6086 34.431 30.7753L34.351 32.2953C34.3296 32.7045 34.3892 33.114 34.5265 33.5001C34.6638 33.8862 34.876 34.2414 35.151 34.5453C35.715 35.1507 36.4944 35.5099 37.321 35.5453H37.631L39.151 35.4653C39.2986 35.4567 39.4464 35.478 39.5856 35.5278C39.7247 35.5776 39.8524 35.655 39.961 35.7553C40.0735 35.8525 40.1645 35.972 40.2282 36.1063C40.2919 36.2406 40.3269 36.3867 40.331 36.5353C40.3388 36.7017 40.3096 36.8678 40.2457 37.0217C40.1817 37.1756 40.0845 37.3134 39.961 37.4253L38.831 38.4253C38.2175 38.9806 37.8488 39.7564 37.8057 40.5828C37.7626 41.4092 38.0486 42.2191 38.601 42.8353L38.831 43.0653L39.961 44.0653C40.0735 44.1624 40.1645 44.282 40.2282 44.4163C40.2919 44.5506 40.3269 44.6967 40.331 44.8453C40.339 44.9928 40.3175 45.1404 40.2677 45.2795C40.2179 45.4186 40.1408 45.5463 40.041 45.6553C39.9279 45.7771 39.7898 45.8733 39.6363 45.9371C39.4827 46.0009 39.3172 46.031 39.151 46.0253L37.631 45.9453C37.2216 45.9216 36.8115 45.9801 36.4251 46.1175C36.0386 46.2549 35.6836 46.4684 35.381 46.7453C35.0803 47.0217 34.8371 47.3548 34.6655 47.7255C34.4938 48.0962 34.3972 48.4971 34.381 48.9053V49.2253L34.461 50.7453C34.4746 51.0434 34.3698 51.3348 34.1693 51.5559C33.9688 51.7769 33.6891 51.9097 33.391 51.9253C33.2249 51.9304 33.0596 51.9 32.9062 51.8362C32.7527 51.7724 32.6146 51.6766 32.501 51.5553L31.501 50.4253C30.9408 49.8205 30.1646 49.4612 29.341 49.4253ZM25.9143 45.6443C26.8812 46.2904 28.0181 46.6353 29.181 46.6353C30.7397 46.6326 32.2338 46.0123 33.3359 44.9101C34.438 43.808 35.0584 42.3139 35.061 40.7553C35.061 39.5923 34.7162 38.4555 34.0701 37.4885C33.424 36.5216 32.5056 35.7679 31.4312 35.3229C30.3568 34.8778 29.1745 34.7614 28.0339 34.9883C26.8933 35.2152 25.8456 35.7752 25.0232 36.5975C24.2009 37.4198 23.6409 38.4675 23.414 39.6081C23.1871 40.7488 23.3036 41.931 23.7486 43.0055C24.1937 44.0799 24.9473 44.9982 25.9143 45.6443ZM27.0254 37.5292C27.6635 37.1028 28.4136 36.8753 29.181 36.8753C30.2101 36.8753 31.197 37.2841 31.9246 38.0117C32.6522 38.7393 33.061 39.7262 33.061 40.7553C33.061 41.5227 32.8335 42.2728 32.4071 42.9109C31.9808 43.5489 31.3748 44.0463 30.6658 44.3399C29.9569 44.6336 29.1767 44.7104 28.4241 44.5607C27.6714 44.411 26.9801 44.0415 26.4375 43.4989C25.8948 42.9562 25.5253 42.2649 25.3756 41.5122C25.2259 40.7596 25.3027 39.9794 25.5964 39.2705C25.89 38.5615 26.3874 37.9555 27.0254 37.5292ZM47.495 28.0568C48.4651 28.7032 49.6052 29.0472 50.771 29.0453C52.3297 29.0426 53.8238 28.4223 54.9259 27.3201C56.028 26.218 56.6484 24.7239 56.651 23.1653C56.653 21.9995 56.309 20.8593 55.6626 19.8892C55.0161 18.9191 54.0963 18.1626 53.0197 17.7155C51.943 17.2685 50.7579 17.151 49.6144 17.378C48.4709 17.6049 47.4205 18.1661 46.5962 18.9904C45.7718 19.8148 45.2107 20.8652 44.9837 22.0086C44.7568 23.1521 44.8743 24.3372 45.3213 25.4139C45.7683 26.4906 46.5248 27.4104 47.495 28.0568ZM48.6071 19.926C49.2482 19.4997 50.0012 19.2733 50.771 19.2753C51.801 19.2779 52.7879 19.6889 53.5152 20.4182C54.2426 21.1474 54.651 22.1353 54.651 23.1653C54.651 23.9351 54.4226 24.6875 53.9947 25.3275C53.5669 25.9674 52.9587 26.466 52.2473 26.7601C51.536 27.0542 50.7533 27.1307 49.9984 26.9798C49.2436 26.8289 48.5505 26.4574 48.0068 25.9124C47.4632 25.3673 47.0935 24.6733 46.9446 23.918C46.7956 23.1628 46.8741 22.3803 47.17 21.6697C47.466 20.9591 47.9661 20.3522 48.6071 19.926Z" fill="black"/>
</svg>
