<svg width="64" height="64" viewBox="0 0 64 64" fill="none" xmlns="http://www.w3.org/2000/svg">
<path d="M55.423 37.3048C55.8134 35.5685 56.0112 33.7945 56.013 32.0148C56.0139 25.8148 53.6083 19.8564 49.303 15.3948L49.183 15.2648C46.6727 12.6864 43.6147 10.7055 40.2354 9.46877C36.856 8.232 33.2418 7.77102 29.6602 8.1199C26.0785 8.46878 22.6212 9.61859 19.5441 11.4843C16.4669 13.35 13.8487 15.8838 11.8832 18.8981C9.91764 21.9125 8.65513 25.3303 8.18907 28.8985C7.72301 32.4668 8.06534 36.0942 9.19071 39.5123C10.3161 42.9303 12.1957 46.0516 14.6904 48.645C17.1852 51.2385 20.2312 53.2378 23.603 54.4948H23.663C26.8608 55.6809 30.2747 56.1717 33.6772 55.9346C37.0796 55.6975 40.3924 54.738 43.3948 53.1199C46.3973 51.5019 49.0203 49.2624 51.0892 46.5509C53.1581 43.8393 54.6253 40.718 55.393 37.3948C55.4071 37.3663 55.4172 37.3361 55.423 37.3048ZM53.643 36.0748H52.233C51.4079 36.076 50.5953 35.873 49.8677 35.4839C49.1401 35.0948 48.5201 34.5317 48.063 33.8448L43.633 27.1848C42.9945 26.226 42.1293 25.4397 41.114 24.8954C40.0988 24.3512 38.9649 24.0658 37.813 24.0648H36.933C36.0048 24.0648 35.1145 23.6961 34.4582 23.0397C33.8018 22.3833 33.433 21.4931 33.433 20.5648C33.433 19.6366 33.8018 18.7463 34.4582 18.09C35.1145 17.4336 36.0048 17.0648 36.933 17.0648H48.103C50.4546 19.5741 52.1831 22.6012 53.149 25.9017C54.1148 29.2023 54.2909 32.6837 53.663 36.0648L53.643 36.0748ZM10.013 32.0748C10.0175 31.0713 10.0877 30.0692 10.223 29.0748H21.533C22.1896 29.073 22.8399 29.202 23.446 29.4544C24.0521 29.7068 24.6018 30.0775 25.063 30.5448L27.303 32.7848C28.2053 33.6869 28.7286 34.8998 28.7658 36.1751C28.803 37.4504 28.3512 38.6917 27.503 39.6448L24.783 42.7048C23.6435 43.9858 23.0137 45.6404 23.013 47.3548V52.0748C19.1432 50.3399 15.8573 47.5234 13.5509 43.9645C11.2445 40.4055 10.0159 36.2558 10.013 32.0148V32.0748ZM32.013 54.0748C29.6327 54.0745 27.2684 53.686 25.013 52.9248V47.3448C25.0127 46.1213 25.461 44.9401 26.273 44.0248L29.003 40.9648C30.1893 39.6307 30.8211 37.8937 30.769 36.1092C30.717 34.3247 29.9851 32.6275 28.723 31.3648L26.483 29.0748C25.833 28.4248 25.0612 27.9092 24.2119 27.5575C23.3626 27.2057 22.4523 27.0248 21.533 27.0248H10.593C11.4446 23.3857 13.2093 20.0235 15.7205 17.2555C18.2318 14.4874 21.4068 12.4047 24.9461 11.2039C28.4854 10.0032 32.2723 9.72385 35.9494 10.3924C39.6266 11.0609 43.0728 12.6552 45.963 15.0248H36.963C35.5043 15.0248 34.1054 15.6043 33.0739 16.6357C32.0425 17.6672 31.463 19.0661 31.463 20.5248C31.463 21.9835 32.0425 23.3825 33.0739 24.4139C34.1054 25.4454 35.5043 26.0248 36.963 26.0248H37.843C38.6647 26.0269 39.4733 26.2315 40.1971 26.6204C40.921 27.0094 41.5378 27.5707 41.993 28.2548L46.433 34.9148C47.0724 35.875 47.9393 36.6623 48.9564 37.2066C49.9735 37.7509 51.1094 38.0354 52.263 38.0348H53.203C51.9032 42.6533 49.1293 46.7203 45.3037 49.6161C41.4782 52.5118 36.8109 54.0776 32.013 54.0748Z" fill="black"/>
</svg>
