<svg width="24" height="24" viewBox="0 0 24 24" fill="none" xmlns="http://www.w3.org/2000/svg">
<path fill-rule="evenodd" clip-rule="evenodd" d="M1.91133 4.51367C2.08726 4.51367 2.22988 4.65629 2.22988 4.83223V6.19496C2.57935 5.88236 3.03275 5.70825 3.5041 5.70825H15.4499C15.9213 5.70825 16.3747 5.88236 16.7241 6.19496V4.83223C16.7241 4.65629 16.8668 4.51367 17.0427 4.51367C17.2186 4.51367 17.3612 4.65629 17.3612 4.83223V11.3294C17.5371 11.3819 17.699 11.4774 17.8311 11.6095C18.0402 11.8186 18.1576 12.1022 18.1576 12.3979V15.2649H18.6355C18.8114 15.2649 18.954 15.4075 18.954 15.5835V16.778C18.954 17.0737 18.8366 17.3573 18.6275 17.5664C18.4953 17.6985 18.3335 17.7941 18.1576 17.8465V19.1672C18.1576 19.3431 18.015 19.4858 17.8391 19.4858C17.6631 19.4858 17.5205 19.3431 17.5205 19.1672V17.893H1.4335V19.1672C1.4335 19.3431 1.29088 19.4858 1.11494 19.4858C0.939009 19.4858 0.796387 19.3431 0.796387 19.1672V17.8465C0.620528 17.7941 0.458673 17.6985 0.326559 17.5664C0.117467 17.3573 0 17.0737 0 16.778V15.5835C0 15.4075 0.142622 15.2649 0.318555 15.2649H0.796387V12.3979C0.796387 12.1022 0.913854 11.8186 1.12295 11.6095C1.25506 11.4774 1.41692 11.3819 1.59277 11.3294V4.83223C1.59277 4.65629 1.7354 4.51367 1.91133 4.51367ZM2.22988 11.283H3.29313C3.22296 11.135 3.18555 10.972 3.18555 10.8051V10.1441C3.18555 9.73882 3.41051 9.43522 3.69068 9.22238C3.96652 9.01283 4.32376 8.86722 4.67477 8.76431C5.37894 8.55788 6.15672 8.49561 6.49056 8.49561C6.70156 8.49561 7.47727 8.56098 8.20741 8.76633C8.57193 8.86886 8.95028 9.01301 9.24422 9.21818C9.32205 9.2725 9.3973 9.33367 9.46589 9.40199C9.52782 9.3358 9.59613 9.27574 9.66793 9.22163C9.94549 9.01246 10.3047 8.86702 10.657 8.76421C11.3637 8.55797 12.1412 8.49561 12.4635 8.49561C12.6745 8.49561 13.4502 8.56098 14.1803 8.76633C14.5448 8.86886 14.9232 9.01301 15.2171 9.21818C15.5111 9.4234 15.7685 9.72624 15.7685 10.1441V10.8051C15.7685 10.972 15.7311 11.135 15.6609 11.283H16.7241V7.61958C16.7241 7.28164 16.5899 6.95754 16.3509 6.71857C16.112 6.47961 15.7879 6.34536 15.4499 6.34536H3.5041C3.16616 6.34536 2.84206 6.47961 2.60309 6.71857C2.36413 6.95754 2.22988 7.28164 2.22988 7.61958V11.283ZM14.6535 11.283C14.7803 11.283 14.9018 11.2326 14.9914 11.143C15.081 11.0534 15.1314 10.9319 15.1314 10.8051V10.1441C15.1314 10.0205 15.0612 9.8863 14.8525 9.74061C14.6437 9.59488 14.3441 9.47423 14.0078 9.37965C13.3363 9.19079 12.6188 9.13272 12.4635 9.13272C12.1884 9.13272 11.4728 9.18982 10.8355 9.3758C10.5158 9.4691 10.2404 9.58795 10.0514 9.73044C9.86633 9.86989 9.79556 10.0052 9.79556 10.1441V10.8051C9.79556 10.9319 9.84591 11.0534 9.93552 11.143C10.0251 11.2326 10.1467 11.283 10.2734 11.283H14.6535ZM1.91133 11.9201C1.7846 11.9201 1.66306 11.9704 1.57345 12.06C1.48384 12.1496 1.4335 12.2712 1.4335 12.3979V15.2649H17.5205V12.3979C17.5205 12.2712 17.4702 12.1496 17.3806 12.06C17.291 11.9704 17.1694 11.9201 17.0427 11.9201H1.91133ZM8.68062 11.283C8.80735 11.283 8.92889 11.2326 9.0185 11.143C9.10811 11.0534 9.15845 10.9319 9.15845 10.8051V10.1441C9.15845 10.0205 9.08829 9.8863 8.87956 9.74061C8.67078 9.59488 8.37121 9.47423 8.03491 9.37965C7.36341 9.19079 6.64589 9.13272 6.49056 9.13272C6.20322 9.13272 5.48777 9.1899 4.854 9.37569C4.53605 9.4689 4.26315 9.58759 4.07608 9.7297C3.89335 9.86851 3.82266 10.0039 3.82266 10.1441V10.8051C3.82266 10.9319 3.873 11.0534 3.96261 11.143C4.05222 11.2326 4.17376 11.283 4.30049 11.283H8.68062ZM0.63711 15.902V16.778C0.63711 16.9048 0.687453 17.0263 0.777064 17.1159C0.866674 17.2055 0.988213 17.2559 1.11494 17.2559H17.8391C17.9658 17.2559 18.0873 17.2055 18.177 17.1159C18.2666 17.0263 18.3169 16.9048 18.3169 16.778V15.902H0.63711Z" fill="#000001"/>
</svg>
