<svg width="24" height="24" viewBox="0 0 24 24" fill="none" xmlns="http://www.w3.org/2000/svg">
<path d="M20.5631 5.49602C20.5452 5.37722 20.4982 5.2647 20.4262 5.16851C20.3542 5.07232 20.2595 4.99545 20.1506 4.94477C20.0388 4.88237 19.913 4.84961 19.785 4.84961C19.657 4.84961 19.5311 4.88237 19.4193 4.94477C17.7058 5.99438 15.715 6.50156 13.7081 6.39977C9.31684 6.39977 7.36685 8.11352 7.12685 8.34227C6.04938 9.14657 5.27328 10.2895 4.92307 11.5876C4.57286 12.8858 4.66883 14.2639 5.19559 15.501L3.36934 17.0573C3.33191 17.0893 3.30116 17.1283 3.27883 17.1722C3.2565 17.2161 3.24303 17.264 3.2392 17.3131C3.23537 17.3622 3.24125 17.4116 3.2565 17.4584C3.27175 17.5052 3.29608 17.5486 3.3281 17.586C3.3633 17.6272 3.40701 17.6602 3.45621 17.6829C3.50541 17.7055 3.55893 17.7173 3.61309 17.7173C3.702 17.7183 3.78839 17.6878 3.85684 17.631L5.54435 16.1873C5.80013 16.6245 6.11007 17.0277 6.46684 17.3873C7.02192 17.9472 7.68265 18.3913 8.41071 18.6939C9.13878 18.9964 9.91967 19.1514 10.7081 19.1498C12.2172 19.1258 13.6961 18.7235 15.0093 17.9798C21.5456 14.3798 20.9118 7.52477 20.5631 5.49602ZM14.6418 17.3235C13.4408 18.0046 12.0886 18.3746 10.7081 18.3998C9.77164 18.3985 8.85257 18.1468 8.04616 17.6707C7.23975 17.1947 6.57535 16.5116 6.12184 15.6923L6.75934 15.1523C8.63564 13.7069 10.7755 12.6408 13.0593 12.0135C13.1553 11.9867 13.2367 11.9228 13.2856 11.8359C13.3345 11.7491 13.3468 11.6464 13.32 11.5504C13.2931 11.4544 13.2292 11.373 13.1424 11.3242C13.0555 11.2753 12.9528 11.2629 12.8568 11.2898C10.4757 11.9477 8.24461 13.0607 6.28684 14.5673L5.79934 14.9873C5.40089 13.9196 5.36064 12.7513 5.68469 11.6588C6.00873 10.5662 6.67946 9.60877 7.5956 8.93102L7.63684 8.89352C7.63684 8.89352 9.4331 7.14977 13.6781 7.14977C15.833 7.25817 17.9717 6.72578 19.8243 5.61977C20.1506 7.52477 20.7506 13.9635 14.6418 17.3235V17.3235Z" fill="black"/>
</svg>
