<svg width="24" height="24" viewBox="0 0 24 24" fill="none" xmlns="http://www.w3.org/2000/svg">
<path fill-rule="evenodd" clip-rule="evenodd" d="M12.9037 6.44407C13.1145 6.58904 13.3567 6.68167 13.6104 6.71428C13.8641 6.74688 14.1219 6.71853 14.3625 6.63157C14.6861 7.03053 15.1269 7.31779 15.6225 7.45282C15.8316 7.50909 16.0472 7.53807 16.2637 7.53906C16.9102 7.53906 17.5302 7.28227 17.9873 6.82515C18.4444 6.36803 18.7012 5.74803 18.7012 5.10156C18.7012 4.4551 18.4444 3.83511 17.9873 3.37799C17.5302 2.92087 16.9102 2.66406 16.2637 2.66406C15.9035 2.66687 15.5484 2.74977 15.2241 2.90672C14.8998 3.06368 14.6145 3.29077 14.3887 3.57157C14.0166 3.43838 13.6087 3.44549 13.2414 3.59158C12.8741 3.73768 12.5728 4.01271 12.3938 4.36512C12.2149 4.71754 12.1706 5.12313 12.2693 5.50586C12.368 5.88859 12.6029 6.22217 12.93 6.44407H12.9037ZM13.14 4.64407C13.261 4.4668 13.447 4.34448 13.6577 4.30375C13.8684 4.26301 14.0867 4.30715 14.265 4.42657C14.3118 4.45809 14.3646 4.47968 14.42 4.49C14.4755 4.50032 14.5325 4.49916 14.5875 4.48657C14.6424 4.4741 14.6941 4.45031 14.7393 4.41674C14.7845 4.38316 14.8222 4.34054 14.85 4.29157C14.9909 4.04452 15.1943 3.83891 15.4398 3.6954C15.6854 3.5519 15.9644 3.47556 16.2487 3.47406C16.535 3.4734 16.8163 3.54824 17.0643 3.69101C17.3124 3.83378 17.5184 4.03944 17.6616 4.28725C17.8048 4.53506 17.8802 4.81624 17.88 5.10246C17.8799 5.38867 17.8042 5.66977 17.6607 5.91742C17.5173 6.16507 17.311 6.37051 17.0628 6.51301C16.8146 6.65551 16.5332 6.73002 16.247 6.72905C15.9607 6.72808 15.6799 6.65164 15.4326 6.50746C15.1854 6.36327 14.9805 6.15644 14.8388 5.90782C14.811 5.85954 14.7738 5.81736 14.7293 5.78385C14.6849 5.75033 14.6341 5.72617 14.58 5.71281C14.5489 5.70889 14.5174 5.70889 14.4862 5.71281C14.4048 5.71448 14.3255 5.73919 14.2575 5.78407C14.1012 5.88496 13.915 5.92925 13.73 5.90955C13.545 5.88985 13.3723 5.80734 13.2408 5.67578C13.1092 5.54422 13.0267 5.37156 13.007 5.18656C12.9873 5.00155 13.0316 4.81538 13.1325 4.65907L13.14 4.64407ZM17.4038 10.3928C17.295 10.3933 17.1867 10.4072 17.0812 10.434L7.98375 12.789L7.33875 5.99402C7.33117 5.89189 7.28516 5.79643 7.21002 5.72685C7.13487 5.65727 7.03616 5.61874 6.93375 5.61902H3.16125C3.05884 5.61874 2.96012 5.65727 2.88498 5.72685C2.80983 5.79643 2.76384 5.89189 2.75625 5.99402L1.96125 14.349L0.903751 14.6228C0.645368 14.6886 0.416269 14.8386 0.252617 15.0491C0.0889646 15.2596 7.92838e-05 15.5186 3.71983e-10 15.7853V20.9303C-2.29279e-06 20.9838 0.0105979 21.0368 0.0311852 21.0861C0.0517724 21.1355 0.0819397 21.1803 0.119946 21.218C0.157951 21.2556 0.203046 21.2854 0.252617 21.3055C0.302187 21.3257 0.355249 21.3358 0.408749 21.3353H18.2813C18.3347 21.3358 18.3878 21.3257 18.4374 21.3055C18.487 21.2854 18.532 21.2556 18.5701 21.218C18.6081 21.1803 18.6382 21.1355 18.6588 21.0861C18.6794 21.0368 18.69 20.9838 18.69 20.9303V11.679C18.689 11.3382 18.5532 11.0116 18.3122 10.7706C18.0712 10.5296 17.7446 10.3938 17.4038 10.3928ZM6.56625 6.44027L6.825 9.16277H3.28125L3.54 6.44027H6.56625ZM3.19125 9.97652H6.9L7.18876 12.9953L2.7975 14.1203L3.19125 9.97652ZM11.9362 20.5215V17.3715C11.9362 17.2641 11.9789 17.1611 12.0549 17.0851C12.1308 17.0092 12.2338 16.9665 12.3413 16.9665H14.6888C14.7423 16.966 14.7953 16.9761 14.8449 16.9963C14.8945 17.0164 14.9396 17.0462 14.9776 17.0838C15.0156 17.1215 15.0457 17.1663 15.0663 17.2157C15.0869 17.265 15.0975 17.318 15.0975 17.3715V20.5215H11.9362ZM17.8763 20.5215H15.9075V17.3715C15.9075 17.0483 15.7791 16.7383 15.5505 16.5097C15.322 16.2812 15.012 16.1528 14.6888 16.1528H12.3413C12.0187 16.1538 11.7096 16.2826 11.4819 16.5111C11.2541 16.7395 11.1263 17.0489 11.1263 17.3715V20.5215H0.813755V15.7853C0.811636 15.6986 0.839618 15.6138 0.892948 15.5455C0.946279 15.4771 1.02166 15.4293 1.10625 15.4103L17.2837 11.2253C17.3535 11.2091 17.426 11.2087 17.496 11.224C17.566 11.2393 17.6317 11.2699 17.6883 11.3137C17.745 11.3575 17.7913 11.4133 17.8238 11.4771C17.8563 11.5409 17.8742 11.6112 17.8763 11.6828V20.5215ZM10.6556 6.45273C10.3874 6.63128 10.0722 6.7262 9.75002 6.72545C9.31967 6.72446 8.90724 6.55307 8.60294 6.24877C8.29864 5.94448 8.12726 5.53204 8.12627 5.1017C8.12553 4.77949 8.22044 4.46432 8.39898 4.1961C8.57753 3.92789 8.83168 3.71871 9.12922 3.59506C9.42676 3.47141 9.75429 3.43887 10.0703 3.50155C10.3864 3.56423 10.6767 3.7193 10.9046 3.94714C11.1324 4.17497 11.2875 4.46531 11.3502 4.78137C11.4129 5.09742 11.3803 5.42497 11.2567 5.72251C11.133 6.02004 10.9238 6.27418 10.6556 6.45273ZM10.2031 4.42327C10.0688 4.33431 9.91112 4.28721 9.75002 4.28795C9.53485 4.28895 9.32883 4.37512 9.17703 4.52762C9.02524 4.68012 8.94001 4.88653 8.94001 5.1017C8.94002 5.2628 8.98784 5.42028 9.07742 5.55419C9.16701 5.68809 9.29432 5.79238 9.44323 5.85386C9.59215 5.91534 9.75595 5.93124 9.91391 5.89953C10.0719 5.86783 10.2169 5.78995 10.3305 5.67577C10.4442 5.56159 10.5214 5.41625 10.5523 5.25815C10.5833 5.10005 10.5667 4.93631 10.5045 4.78768C10.4423 4.63906 10.3374 4.51223 10.2031 4.42327ZM4.47001 16.4753H3.65625C3.55508 16.4851 3.46116 16.5321 3.39282 16.6074C3.32447 16.6826 3.28661 16.7806 3.28661 16.8822C3.28661 16.9839 3.32447 17.0819 3.39282 17.1571C3.46116 17.2323 3.55508 17.2794 3.65625 17.2891H4.47001C4.57118 17.2794 4.66509 17.2323 4.73344 17.1571C4.80178 17.0819 4.83965 16.9839 4.83965 16.8822C4.83965 16.7806 4.80178 16.6826 4.73344 16.6074C4.66509 16.5321 4.57118 16.4851 4.47001 16.4753ZM3.65625 18.0991H4.47001C4.57118 18.1088 4.66509 18.1559 4.73344 18.2311C4.80178 18.3064 4.83965 18.4044 4.83965 18.506C4.83965 18.6076 4.80178 18.7056 4.73344 18.7809C4.66509 18.8561 4.57118 18.9032 4.47001 18.9129H3.65625C3.55508 18.9032 3.46116 18.8561 3.39282 18.7809C3.32447 18.7056 3.28661 18.6076 3.28661 18.506C3.28661 18.4044 3.32447 18.3064 3.39282 18.2311C3.46116 18.1559 3.55508 18.1088 3.65625 18.0991ZM8.53126 16.4754H7.72126C7.66455 16.4699 7.60732 16.4764 7.55325 16.4944C7.49918 16.5123 7.44947 16.5414 7.4073 16.5797C7.36513 16.618 7.33144 16.6647 7.30838 16.7168C7.28532 16.7689 7.27341 16.8253 7.27341 16.8823C7.27341 16.9392 7.28532 16.9956 7.30838 17.0477C7.33144 17.0998 7.36513 17.1465 7.4073 17.1848C7.44947 17.2231 7.49918 17.2522 7.55325 17.2702C7.60732 17.2881 7.66455 17.2946 7.72126 17.2891H8.53126C8.58798 17.2946 8.6452 17.2881 8.69927 17.2702C8.75334 17.2522 8.80305 17.2231 8.84522 17.1848C8.88739 17.1465 8.92109 17.0998 8.94415 17.0477C8.96721 16.9956 8.97911 16.9392 8.97911 16.8823C8.97911 16.8253 8.96721 16.7689 8.94415 16.7168C8.92109 16.6647 8.88739 16.618 8.84522 16.5797C8.80305 16.5414 8.75334 16.5123 8.69927 16.4944C8.6452 16.4764 8.58798 16.4699 8.53126 16.4754ZM7.72126 18.0992H8.53126C8.58798 18.0937 8.6452 18.1002 8.69927 18.1182C8.75334 18.1361 8.80305 18.1652 8.84522 18.2035C8.88739 18.2418 8.92109 18.2885 8.94415 18.3406C8.96721 18.3927 8.97911 18.4491 8.97911 18.506C8.97911 18.563 8.96721 18.6194 8.94415 18.6715C8.92109 18.7236 8.88739 18.7703 8.84522 18.8086C8.80305 18.8469 8.75334 18.876 8.69927 18.8939C8.6452 18.9119 8.58798 18.9184 8.53126 18.9129H7.72126C7.66455 18.9184 7.60732 18.9119 7.55325 18.8939C7.49918 18.876 7.44947 18.8469 7.4073 18.8086C7.36513 18.7703 7.33144 18.7236 7.30838 18.6715C7.28532 18.6194 7.27341 18.563 7.27341 18.506C7.27341 18.4491 7.28532 18.3927 7.30838 18.3406C7.33144 18.2885 7.36513 18.2418 7.4073 18.2035C7.44947 18.1652 7.49918 18.1361 7.55325 18.1182C7.60732 18.1002 7.66455 18.0937 7.72126 18.0992Z" fill="black"/>
</svg>
