<svg width="24" height="24" viewBox="0 0 24 24" fill="none" xmlns="http://www.w3.org/2000/svg">
<path fill-rule="evenodd" clip-rule="evenodd" d="M9.32447 3.68505C9.50785 3.74086 9.61126 3.93476 9.55545 4.11814L4.69647 20.0834C4.64066 20.2667 4.44676 20.3702 4.26338 20.3144C4.08 20.2585 3.97659 20.0646 4.0324 19.8813L8.89139 3.91603C8.9472 3.73265 9.1411 3.62924 9.32447 3.68505Z" fill="#000001"/>
<path fill-rule="evenodd" clip-rule="evenodd" d="M17.7922 13.9264C17.9755 13.8706 18.1694 13.974 18.2253 14.1574L19.9676 19.8813C20.0234 20.0646 19.92 20.2585 19.7366 20.3143C19.5532 20.3702 19.3593 20.2668 19.3035 20.0834L17.5612 14.3595C17.5054 14.1761 17.6088 13.9822 17.7922 13.9264Z" fill="#000001"/>
<path fill-rule="evenodd" clip-rule="evenodd" d="M12 16.8587C12.1917 16.8587 12.3471 17.0141 12.3471 17.2058V19.9823C12.3471 20.174 12.1917 20.3294 12 20.3294C11.8083 20.3294 11.6529 20.174 11.6529 19.9823V17.2058C11.6529 17.0141 11.8083 16.8587 12 16.8587Z" fill="#000001"/>
<path fill-rule="evenodd" clip-rule="evenodd" d="M12 13.388C12.1917 13.388 12.3471 13.5434 12.3471 13.7351V15.1233C12.3471 15.315 12.1917 15.4704 12 15.4704C11.8083 15.4704 11.6529 15.315 11.6529 15.1233V13.7351C11.6529 13.5434 11.8083 13.388 12 13.388Z" fill="#000001"/>
<path fill-rule="evenodd" clip-rule="evenodd" d="M12 3.67001C12.1917 3.67001 12.3471 3.8254 12.3471 4.01708V5.40536C12.3471 5.59705 12.1917 5.75244 12 5.75244C11.8083 5.75244 11.6529 5.59705 11.6529 5.40536V4.01708C11.6529 3.8254 11.8083 3.67001 12 3.67001Z" fill="#000001"/>
<path fill-rule="evenodd" clip-rule="evenodd" d="M14.8385 5.75244C14.4199 5.75186 14.0053 5.83381 13.6185 5.9936C13.2316 6.15339 12.88 6.38788 12.5838 6.68367C12.2876 6.97945 12.0526 7.33073 11.8923 7.7174C11.732 8.10407 11.6494 8.51856 11.6494 8.93715C11.6494 9.268 11.7775 9.71689 12.0129 10.2468C12.2448 10.7686 12.5656 11.3358 12.9169 11.8929C13.6191 13.0066 14.4257 14.0524 14.8366 14.5694L14.8372 14.5687C15.2482 14.0541 16.0547 13.0084 16.7567 11.8943C17.1079 11.337 17.4286 10.7695 17.6604 10.2474C17.8957 9.7172 18.0237 9.26806 18.0237 8.93715C18.0237 8.51893 17.9414 8.1048 17.7813 7.71841C17.6213 7.33203 17.3867 6.98095 17.091 6.68522C16.7952 6.38949 16.4441 6.1549 16.0578 5.99486C15.6714 5.83481 15.2572 5.75244 14.839 5.75244C14.8389 5.75244 14.8387 5.75244 14.8385 5.75244ZM14.8395 5.0583C14.3297 5.05759 13.8247 5.15741 13.3535 5.35202C12.8823 5.54664 12.454 5.83224 12.0933 6.1925C11.7325 6.55275 11.4463 6.98059 11.2511 7.45154C11.0558 7.9225 10.9553 8.42732 10.9553 8.93715C10.9553 9.41602 11.1316 9.97286 11.3786 10.5286C11.6291 11.0924 11.9688 11.6908 12.3297 12.2632C13.0518 13.4084 13.8765 14.4769 14.2931 15.0012M14.8395 5.0583C15.3487 5.05836 15.8529 5.15869 16.3234 5.35356C16.794 5.54849 17.2216 5.8342 17.5818 6.19439C17.942 6.55457 18.2277 6.98217 18.4226 7.45278C18.6175 7.92338 18.7179 8.42777 18.7179 8.93715C18.7179 9.41595 18.5417 9.97297 18.2948 10.529C18.0444 11.0931 17.7048 11.6918 17.344 12.2644C16.622 13.4101 15.7973 14.4788 15.3795 15.0019C15.3146 15.0834 15.2322 15.1492 15.1383 15.1945C15.0442 15.2399 14.9411 15.2635 14.8366 15.2635C14.7321 15.2635 14.6289 15.2399 14.5348 15.1945C14.4407 15.1491 14.3581 15.083 14.2931 15.0012" fill="#000001"/>
<path fill-rule="evenodd" clip-rule="evenodd" d="M15.2135 8.03405C15.0948 7.98497 14.9676 7.95973 14.8392 7.9598C14.6458 7.9599 14.4567 8.01736 14.2959 8.12492C14.1351 8.23247 14.0099 8.38529 13.9359 8.56404C13.862 8.74279 13.8427 8.93945 13.8806 9.12916C13.9184 9.31886 14.0116 9.49308 14.1485 9.62979C14.2853 9.7665 14.4597 9.85956 14.6494 9.8972C14.8391 9.93484 15.0358 9.91536 15.2145 9.84124C15.3931 9.76712 15.5458 9.64169 15.6532 9.48079C15.7606 9.3199 15.8179 9.13077 15.8178 8.93733C15.8177 8.8089 15.7923 8.68173 15.7431 8.56309C15.6939 8.44445 15.6218 8.33667 15.5309 8.2459C15.4401 8.15513 15.3322 8.08314 15.2135 8.03405ZM14.8388 7.26566C15.0584 7.26555 15.2759 7.30868 15.4788 7.39261C15.6817 7.47654 15.8661 7.59962 16.0215 7.75481C16.1769 7.91001 16.3001 8.09429 16.3843 8.29712C16.4684 8.49995 16.5118 8.71738 16.5119 8.93697C16.5121 9.2677 16.4142 9.59105 16.2306 9.86613C16.047 10.1412 15.7859 10.3557 15.4804 10.4824C15.175 10.6091 14.8387 10.6424 14.5143 10.5781C14.1899 10.5137 13.8919 10.3546 13.6579 10.1209C13.4239 9.88714 13.2645 9.58927 13.1998 9.26493C13.1351 8.94059 13.1681 8.60436 13.2945 8.29874C13.4209 7.99312 13.6351 7.73185 13.91 7.54796C14.1849 7.36408 14.5081 7.26583 14.8388 7.26566Z" fill="#000001"/>
</svg>
