<svg width="24" height="24" viewBox="0 0 24 24" fill="none" xmlns="http://www.w3.org/2000/svg">
<path fill-rule="evenodd" clip-rule="evenodd" d="M3.56625 15.5658H3.46875C3.41784 15.5491 3.37107 15.5218 3.33162 15.4856C3.29216 15.4493 3.26093 15.4051 3.24001 15.3558C2.94751 14.8533 2.82376 13.9795 3.90001 12.682C4.55327 11.9186 5.32728 11.2675 6.19125 10.7545C6.51087 10.5841 6.88248 10.5386 7.23375 10.627C7.23329 10.3532 7.28707 10.082 7.39198 9.82902C7.49689 9.57607 7.65086 9.34641 7.84501 9.15328C7.97616 9.02662 8.12372 8.91815 8.28375 8.83078C8.02918 8.57182 7.88185 8.22626 7.87126 7.86328V3.36328C7.87126 3.26383 7.91076 3.16844 7.98109 3.09811C8.05141 3.02778 8.1468 2.98828 8.24626 2.98828C8.46678 2.99134 8.68433 3.03949 8.88555 3.12978C9.08676 3.22006 9.26737 3.35057 9.41626 3.51328C10.4063 4.50328 10.7588 6.64828 10.7588 7.85203C10.749 8.21556 10.6031 8.56218 10.35 8.82328C10.5108 8.91421 10.6595 9.02509 10.7925 9.15328C11.1769 9.53753 11.395 10.0573 11.4 10.6008C11.7586 10.5182 12.1353 10.5788 12.45 10.7695L16.3275 13.0195C16.4122 13.0691 16.4742 13.1498 16.5 13.2445C16.527 13.3403 16.5148 13.4428 16.4663 13.5295C16.1063 14.152 15.4312 14.3808 14.6587 14.3808C13.3678 14.2959 12.1145 13.9107 10.9988 13.2558H10.965C10.6653 13.0737 10.4425 12.7883 10.3388 12.4533C10.0271 12.6278 9.67593 12.7195 9.31875 12.7195C8.94883 12.7181 8.58612 12.6171 8.26876 12.427C8.17749 12.7758 7.95607 13.0764 7.65001 13.267L3.75375 15.517C3.6966 15.5494 3.63195 15.5662 3.56625 15.5658ZM12.0938 11.437C11.9809 11.3685 11.8508 11.3333 11.7188 11.3358H11.7113C11.6108 11.3398 11.5124 11.3657 11.4231 11.4117C11.3337 11.4577 11.2554 11.5226 11.1938 11.602C11.1601 11.6711 11.1212 11.7376 11.0775 11.8008C11.0257 11.9513 11.0272 12.1151 11.0819 12.2646C11.1365 12.4141 11.2409 12.5403 11.3775 12.622C12.675 13.372 14.7225 13.942 15.5663 13.4395L12.0938 11.437ZM8.89876 4.06453C8.8202 3.98459 8.73053 3.91638 8.63251 3.86203L8.63625 7.87078C8.64416 8.05175 8.72217 8.22255 8.85376 8.34703C8.91854 8.41143 8.99598 8.46167 9.08119 8.49459C9.16639 8.52751 9.25751 8.54239 9.34876 8.53828C9.52599 8.53265 9.69442 8.45973 9.81981 8.33434C9.9452 8.20896 10.0181 8.04052 10.0238 7.86328C10.0238 6.76078 9.675 4.84078 8.89876 4.06453ZM8.0967 10.1355C8.02956 10.2972 7.995 10.4706 7.995 10.6458L7.99876 10.6495C7.99876 10.8244 8.03319 10.9975 8.10009 11.159C8.167 11.3205 8.26505 11.4672 8.38867 11.5909C8.51229 11.7145 8.65904 11.8125 8.82056 11.8794C8.98207 11.9463 9.15518 11.9808 9.33 11.9808C9.54525 11.9805 9.75725 11.9282 9.94792 11.8283C10.1386 11.7284 10.3023 11.5839 10.425 11.407C10.4415 11.366 10.4603 11.3259 10.4813 11.287C10.495 11.2662 10.5101 11.2461 10.5263 11.227C10.6132 11.0468 10.6593 10.8496 10.6613 10.6495C10.6618 10.4744 10.6277 10.3009 10.561 10.1389C10.4943 9.97698 10.3963 9.82978 10.2727 9.70577C10.149 9.58175 10.0021 9.48336 9.84032 9.41622C9.67856 9.34909 9.50514 9.31453 9.33 9.31453C9.15487 9.31404 8.98135 9.34811 8.8194 9.41479C8.65745 9.48147 8.51026 9.57945 8.38624 9.70311C8.26223 9.82678 8.16383 9.9737 8.0967 10.1355ZM6.56625 11.4445C5.78389 11.911 5.0823 12.5011 4.48875 13.192H4.48126C4.1925 13.5408 3.78376 14.1295 3.79126 14.6358L7.26375 12.637C7.38876 12.5556 7.48418 12.436 7.53586 12.296C7.58753 12.1561 7.5927 12.0032 7.5506 11.86C7.50849 11.7169 7.42137 11.5911 7.30214 11.5014C7.18292 11.4117 7.03795 11.3628 6.88875 11.362C6.77605 11.3622 6.66518 11.3905 6.56625 11.4445ZM11.5725 20.2607H17.625C17.7245 20.2607 17.8198 20.3002 17.8902 20.3706C17.9605 20.4409 18 20.5363 18 20.6357C18 20.7352 17.9605 20.8305 17.8902 20.9009C17.8198 20.9712 17.7245 21.0107 17.625 21.0107H0.375C0.275544 21.0107 0.180167 20.9712 0.10984 20.9009C0.0395143 20.8305 0 20.7352 0 20.6357C0 20.5363 0.0395143 20.4409 0.10984 20.3706C0.180167 20.3002 0.275544 20.2607 0.375 20.2607H7.17751L8.14126 13.8332C8.14858 13.7844 8.16546 13.7376 8.19093 13.6953C8.21639 13.6531 8.24993 13.6163 8.28964 13.587C8.32935 13.5578 8.37445 13.5366 8.42235 13.5248C8.47024 13.513 8.51999 13.5108 8.56875 13.5182C8.61753 13.5255 8.66439 13.5424 8.70664 13.5679C8.74889 13.5933 8.78569 13.6269 8.81495 13.6666C8.84421 13.7063 8.86535 13.7514 8.87716 13.7993C8.88896 13.8472 8.8912 13.897 8.88375 13.9457L7.935 20.2607H10.815L9.86625 13.9382C9.8588 13.8895 9.86105 13.8397 9.87285 13.7918C9.88466 13.7439 9.90579 13.6988 9.93505 13.6591C9.96431 13.6194 10.0011 13.5858 10.0434 13.5604C10.0856 13.5349 10.1325 13.518 10.1813 13.5107C10.23 13.5033 10.2798 13.5055 10.3277 13.5173C10.3756 13.5291 10.4206 13.5503 10.4604 13.5795C10.5001 13.6088 10.5336 13.6456 10.5591 13.6878C10.5845 13.7301 10.6014 13.7769 10.6088 13.8257L11.5725 20.2607Z" fill="black"/>
</svg>
