<svg width="64" height="64" viewBox="0 0 64 64" fill="none" xmlns="http://www.w3.org/2000/svg">
<path fill-rule="evenodd" clip-rule="evenodd" d="M47.0318 33.0572C47.2672 33.1536 47.5192 33.2025 47.7735 33.2012V33.1912C48.1392 33.1915 48.4976 33.0883 48.8072 32.8937C49.1168 32.6991 49.3651 32.4209 49.5235 32.0912L55.3035 19.9412C55.415 19.7111 55.4796 19.4611 55.4937 19.2057C55.5077 18.9504 55.4708 18.6948 55.3852 18.4538C55.2996 18.2128 55.167 17.9912 54.995 17.802C54.8231 17.6127 54.6152 17.4595 54.3835 17.3512C54.1552 17.2413 53.9067 17.1801 53.6535 17.1712L48.8435 16.9112V10.1112C48.8373 9.67562 48.6847 9.25481 48.4103 8.9165C48.1358 8.5782 47.7555 8.34212 47.3305 8.24628C46.9056 8.15043 46.4607 8.20038 46.0676 8.38812C45.6745 8.57586 45.356 8.89045 45.1635 9.28122L39.3735 21.4512C39.263 21.681 39.1989 21.9303 39.1849 22.1849C39.1708 22.4394 39.2071 22.6943 39.2916 22.9348C39.3762 23.1754 39.5073 23.3969 39.6774 23.5868C39.8476 23.7766 40.0536 23.931 40.2835 24.0412C40.5146 24.1545 40.7664 24.2192 41.0235 24.2312L45.8335 24.4812V31.2712C45.8335 31.5255 45.8837 31.7773 45.9814 32.0121C46.079 32.2469 46.222 32.4601 46.4023 32.6395C46.5826 32.8188 46.7965 32.9608 47.0318 33.0572ZM41.1735 22.2812L46.8335 10.4212L46.7935 17.8312C46.7935 18.0964 46.8988 18.3508 47.0864 18.5383C47.2739 18.7259 47.5283 18.8312 47.7935 18.8312L53.5035 19.0512L47.8335 30.9612V23.4912C47.8338 23.2344 47.7353 22.9874 47.5585 22.8012C47.3816 22.615 47.14 22.504 46.8835 22.4912L41.1735 22.2812ZM12.3935 30.9413H16.2035L16.2235 30.9312C17.4652 30.8747 18.6372 30.3417 19.4959 29.443C20.1195 28.7904 20.543 27.9814 20.7281 27.1113H20.9635C21.7141 27.1113 22.4339 27.4094 22.9646 27.9402C23.4953 28.4709 23.7935 29.1907 23.7935 29.9413V47.1513C23.7935 48.4296 24.3013 49.6556 25.2052 50.5595C26.1092 51.4635 27.3352 51.9713 28.6135 51.9713H32.3935V52.8012C32.3935 53.5969 32.7096 54.36 33.2722 54.9226C33.8348 55.4852 34.5978 55.8012 35.3935 55.8012H50.5235C51.3174 55.7986 52.0779 55.4814 52.6384 54.919C53.1988 54.3567 53.5135 53.5952 53.5135 52.8012V37.1812C53.5135 36.916 53.4081 36.6617 53.2206 36.4742C53.0331 36.2866 52.7787 36.1812 52.5135 36.1812C52.2483 36.1812 51.9939 36.2866 51.8064 36.4742C51.6188 36.6617 51.5135 36.916 51.5135 37.1812V52.8012C51.5135 53.0665 51.4081 53.3208 51.2206 53.5084C51.0331 53.6959 50.7787 53.8012 50.5135 53.8012H35.3935C35.1283 53.8012 34.8739 53.6959 34.6864 53.5084C34.4988 53.3208 34.3935 53.0665 34.3935 52.8012V50.9752C34.3935 50.9739 34.3935 50.9726 34.3935 50.9713C34.3935 50.97 34.3935 50.9687 34.3935 50.9674V16.5212C34.3935 16.256 34.4988 16.0017 34.6864 15.8141C34.8739 15.6266 35.1283 15.5212 35.3935 15.5212C35.6587 15.5212 35.9131 15.4159 36.1006 15.2284C36.2881 15.0408 36.3935 14.7865 36.3935 14.5212C36.3935 14.256 36.2881 14.0017 36.1006 13.8141C35.9131 13.6266 35.6587 13.5212 35.3935 13.5212C34.5978 13.5212 33.8348 13.8373 33.2722 14.3999C32.7096 14.9625 32.3935 15.7256 32.3935 16.5212V49.9713H28.6135C27.8656 49.9713 27.1483 49.6742 26.6195 49.1453C26.0906 48.6165 25.7935 47.8992 25.7935 47.1513V29.9413C25.7909 28.6611 25.2811 27.4341 24.3759 26.5289C23.4707 25.6236 22.2437 25.1139 20.9635 25.1113H20.7302C20.5462 24.2373 20.1219 23.4246 19.4959 22.7695C18.6372 21.8708 17.4652 21.3378 16.2235 21.2812H12.3935C12.1283 21.2812 11.8739 21.3866 11.6864 21.5742C11.4989 21.7617 11.3935 22.016 11.3935 22.2812H9.50348C9.23826 22.2812 8.98391 22.3866 8.79637 22.5741C8.60884 22.7616 8.50348 23.016 8.50348 23.2812C8.50348 23.5464 8.60884 23.8007 8.79637 23.9883C8.98391 24.1758 9.23826 24.2812 9.50348 24.2812H11.3935V27.9813H9.50348C9.23826 27.9813 8.98391 28.0866 8.79637 28.2741C8.60884 28.4617 8.50348 28.716 8.50348 28.9813C8.50348 29.2465 8.60884 29.5008 8.79637 29.6884C8.98391 29.8759 9.23826 29.9813 9.50348 29.9813H11.3943C11.4043 30.2319 11.5083 30.4703 11.6864 30.6483C11.8739 30.8359 12.1283 30.9413 12.3935 30.9413ZM13.3935 23.2913L13.374 28.7851C13.3843 28.8363 13.3906 28.8885 13.3927 28.9413H16.2035C16.9237 28.8984 17.6003 28.5821 18.095 28.057C18.5898 27.5319 18.8653 26.8377 18.8653 26.1162C18.8653 25.3948 18.5898 24.7006 18.095 24.1755C17.6003 23.6504 16.9237 23.3341 16.2035 23.2913H13.3935Z" fill="black"/>
</svg>
