<svg width="64" height="64" viewBox="0 0 64 64" fill="none" xmlns="http://www.w3.org/2000/svg">
<path d="M54.835 14.6569C54.7872 14.3401 54.6618 14.04 54.4699 13.7835C54.2779 13.527 54.0254 13.322 53.7349 13.1869C53.4369 13.0205 53.1013 12.9331 52.7599 12.9331C52.4186 12.9331 52.083 13.0205 51.785 13.1869C47.2155 15.9858 41.9067 17.3383 36.555 17.0669C24.845 17.0669 19.645 21.6369 19.005 22.2469C16.1317 24.3917 14.0621 27.4394 13.1282 30.9012C12.1943 34.3629 12.4503 38.038 13.8549 41.3369L8.98495 45.4869C8.88514 45.5722 8.80313 45.6764 8.74358 45.7935C8.68404 45.9105 8.64813 46.0381 8.63792 46.1691C8.6277 46.3 8.64337 46.4317 8.68404 46.5565C8.72472 46.6814 8.7896 46.797 8.87496 46.8969C8.96885 47.0066 9.0854 47.0948 9.21659 47.1552C9.34779 47.2156 9.49052 47.2469 9.63496 47.2469C9.87204 47.2497 10.1024 47.1682 10.285 47.0169L14.785 43.1669C15.467 44.3328 16.2936 45.408 17.245 46.3669C18.7252 47.86 20.4871 49.0443 22.4286 49.8511C24.3701 50.6579 26.4525 51.0712 28.555 51.0669C32.5791 51.003 36.5229 49.9302 40.025 47.9469C57.455 38.3469 55.765 20.0669 54.835 14.6569ZM39.0449 46.1969C35.8423 48.0132 32.2362 48.9998 28.555 49.0669C26.0578 49.0635 23.6069 48.3923 21.4565 47.1228C19.306 45.8533 17.5343 44.0317 16.3249 41.8469L18.025 40.4069C23.0284 36.5526 28.7346 33.7097 34.8249 32.0369C35.0809 31.9653 35.2979 31.7949 35.4282 31.5633C35.5586 31.3317 35.5916 31.0578 35.52 30.8018C35.4483 30.5459 35.278 30.3289 35.0464 30.1986C34.8148 30.0682 34.5409 30.0353 34.285 30.1069C27.9353 31.8613 21.9857 34.8294 16.7649 38.8469L15.465 39.9669C14.4024 37.1198 14.2951 34.0043 15.1592 31.0908C16.0233 28.1774 17.8119 25.6242 20.255 23.8169L20.365 23.7169C20.365 23.7169 25.155 19.0669 36.475 19.0669C42.2214 19.3559 47.9247 17.9362 52.865 14.9869C53.735 20.0669 55.3349 37.2369 39.0449 46.1969V46.1969Z" fill="black"/>
</svg>
