<svg width="64" height="64" viewBox="0 0 64 64" fill="none" xmlns="http://www.w3.org/2000/svg">
<path fill-rule="evenodd" clip-rule="evenodd" d="M55.2518 12.7317L51.2018 8.73173C51.13 8.65659 51.0532 8.58644 50.9718 8.52174C50.4392 8.11425 49.7671 7.93392 49.102 8.02009C48.437 8.10627 47.833 8.45195 47.4218 8.98173L42.5718 15.1517C42.0335 15.8461 41.7356 16.6966 41.723 17.5751C41.7103 18.4535 41.9837 19.3122 42.5018 20.0217L29.8218 32.7017L28.3418 31.2218C27.6128 30.4957 26.6257 30.088 25.5968 30.088C24.5679 30.088 23.5809 30.4957 22.8518 31.2218L9.98181 44.1517C8.71287 45.4229 8.00018 47.1456 8.00018 48.9418C8.00018 50.7379 8.71287 52.4606 9.98181 53.7317L10.2618 54.0117C10.8899 54.6424 11.6364 55.1429 12.4584 55.4844C13.2804 55.8259 14.1617 56.0017 15.0518 56.0017C15.9419 56.0017 16.8233 55.8259 17.6453 55.4844C18.4673 55.1429 19.2137 54.6424 19.8418 54.0117L32.7118 41.1417C33.0737 40.7821 33.361 40.3544 33.5569 39.8833C33.7529 39.4122 33.8538 38.907 33.8538 38.3967C33.8538 37.8865 33.7529 37.3813 33.5569 36.9102C33.361 36.4391 33.0737 36.0114 32.7118 35.6517L31.2318 34.1517L43.9118 21.4718C44.6181 21.9978 45.4782 22.2761 46.3587 22.2634C47.2392 22.2508 48.091 21.9479 48.7818 21.4017L55.0018 16.5517L55.2418 16.3417C55.481 16.1062 55.6712 15.8256 55.8013 15.5162C55.9314 15.2067 55.9988 14.8745 55.9998 14.5388C56.0007 14.2031 55.9351 13.8706 55.8067 13.5604C55.6783 13.2502 55.4897 12.9686 55.2518 12.7317ZM31.8518 38.3417C31.852 38.5911 31.8026 38.838 31.7064 39.068C31.6103 39.2981 31.4694 39.5067 31.2918 39.6817L18.4418 52.5517C17.9988 52.9953 17.4727 53.3472 16.8936 53.5873C16.3145 53.8274 15.6937 53.9509 15.0668 53.9509C14.4399 53.9509 13.8192 53.8274 13.2401 53.5873C12.6609 53.3472 12.1348 52.9953 11.6918 52.5517L11.4118 52.2617C10.519 51.3674 10.0176 50.1554 10.0176 48.8917C10.0176 47.6281 10.519 46.416 11.4118 45.5217L24.2818 32.6517C24.6374 32.3006 25.1171 32.1037 25.6168 32.1037C26.1166 32.1037 26.5962 32.3006 26.9518 32.6517L29.1318 34.8317L31.3118 37.0117C31.485 37.1869 31.6219 37.3946 31.7145 37.6229C31.8072 37.8511 31.8539 38.0954 31.8518 38.3417ZM53.7718 14.9418L47.5518 19.7918C47.1547 20.0975 46.6601 20.2488 46.1599 20.2175C45.6597 20.1862 45.1878 19.9746 44.8318 19.6217L44.3218 19.1117C43.9671 18.7568 43.754 18.2847 43.7227 17.7839C43.6914 17.2831 43.844 16.788 44.1518 16.3917L49.0018 10.1618C49.0499 10.0989 49.112 10.0481 49.1832 10.0133C49.2544 9.97863 49.3326 9.96096 49.4118 9.96174C49.5523 9.96489 49.6871 10.0181 49.7918 10.1117L53.7918 14.1117C53.8515 14.1639 53.899 14.2285 53.9309 14.301C53.9628 14.3736 53.9783 14.4522 53.9764 14.5314C53.9745 14.6107 53.9552 14.6885 53.9198 14.7594C53.8845 14.8303 53.8339 14.8926 53.7718 14.9418ZM24.8318 36.0218C24.6445 35.8355 24.391 35.731 24.1268 35.731C23.8626 35.731 23.6092 35.8355 23.4218 36.0218L13.5218 45.9218C13.4281 46.0147 13.3537 46.1253 13.3029 46.2472C13.2522 46.3691 13.226 46.4998 13.226 46.6318C13.226 46.7638 13.2522 46.8945 13.3029 47.0163C13.3537 47.1382 13.4281 47.2488 13.5218 47.3418C13.6153 47.4344 13.7261 47.5078 13.8479 47.5575C13.9698 47.6073 14.1002 47.6325 14.2318 47.6318C14.4942 47.6307 14.7456 47.5265 14.9318 47.3418L24.8318 37.4418C24.9255 37.3488 24.9999 37.2382 25.0507 37.1163C25.1015 36.9945 25.1276 36.8638 25.1276 36.7318C25.1276 36.5997 25.1015 36.4691 25.0507 36.3472C24.9999 36.2253 24.9255 36.1147 24.8318 36.0218ZM16.3518 48.752L26.2518 38.852C26.3415 38.7473 26.4518 38.6623 26.5759 38.6023C26.6999 38.5423 26.8351 38.5085 26.9728 38.5032C27.1105 38.4979 27.2478 38.5211 27.3762 38.5714C27.5045 38.6216 27.621 38.6979 27.7185 38.7953C27.816 38.8928 27.8922 39.0094 27.9425 39.1377C27.9928 39.266 28.016 39.4033 28.0106 39.541C28.0053 39.6787 27.9716 39.8139 27.9116 39.938C27.8515 40.062 27.7665 40.1723 27.6618 40.262L17.7618 50.162C17.5772 50.3504 17.3256 50.4582 17.0618 50.462C16.8632 50.4631 16.6687 50.4051 16.5032 50.2953C16.3377 50.1855 16.2086 50.0289 16.1325 49.8455C16.0563 49.662 16.0365 49.46 16.0756 49.2653C16.1146 49.0706 16.2108 48.8919 16.3518 48.752Z" fill="black"/>
</svg>
