<svg width="24" height="24" viewBox="0 0 24 24" fill="none" xmlns="http://www.w3.org/2000/svg">
<path d="M23.9569 9.96022C23.9252 9.89907 23.8773 9.84784 23.8185 9.81212C23.7596 9.7764 23.692 9.75758 23.6232 9.75773H18.1032L19.5019 3.46521C19.5209 3.38073 19.5101 3.29226 19.4714 3.21483C19.4326 3.1374 19.3682 3.07578 19.2891 3.04044C19.21 3.00511 19.1212 2.99823 19.0376 3.02098C18.954 3.04372 18.8809 3.09468 18.8307 3.16522L11.3307 13.6652C11.2931 13.7195 11.2705 13.7828 11.2652 13.8487C11.26 13.9145 11.2722 13.9806 11.3007 14.0402C11.3323 14.1014 11.3802 14.1526 11.4391 14.1883C11.498 14.224 11.5656 14.2429 11.6344 14.2427H17.1694L15.7707 20.539C15.752 20.6234 15.763 20.7117 15.802 20.789C15.8409 20.8662 15.9054 20.9276 15.9844 20.9627C16.0322 20.9817 16.083 20.9918 16.1344 20.9927C16.1945 20.993 16.2539 20.9789 16.3074 20.9515C16.3609 20.9241 16.407 20.8842 16.4419 20.8352L23.9419 10.3352C23.9771 10.2795 23.9971 10.2156 23.9997 10.1497C24.0023 10.0839 23.9876 10.0185 23.9569 9.96022ZM16.8919 18.9152L17.9907 13.9652C18.0025 13.9104 18.0019 13.8537 17.9889 13.7992C17.9759 13.7447 17.9509 13.6938 17.9157 13.6502C17.8807 13.606 17.8363 13.5703 17.7857 13.5456C17.735 13.5209 17.6795 13.508 17.6232 13.5077H12.3657L18.3657 5.10022L17.2669 10.054C17.2546 10.1085 17.2546 10.165 17.2669 10.2195C17.2792 10.274 17.3036 10.3251 17.3382 10.369C17.3735 10.4125 17.4181 10.4475 17.4687 10.4715C17.5193 10.4956 17.5746 10.5079 17.6307 10.5077H22.9069L16.8919 18.9152Z" fill="black"/>
</svg>
