<svg width="64" height="64" viewBox="0 0 64 64" fill="none" xmlns="http://www.w3.org/2000/svg">
<path fill-rule="evenodd" clip-rule="evenodd" d="M32.0105 35.1234C30.2342 35.1234 28.8523 34.3977 27.7771 33.2654L26.2105 34.0536C25.3897 34.4904 24.6382 35.0464 23.9805 35.7036C23.5659 36.1362 22.9993 36.3908 22.4005 36.4136L22.3205 36.3836C21.7373 36.3844 21.1758 36.1626 20.7505 35.7636C20.5292 35.5604 20.3507 35.3151 20.2254 35.0421C20.1001 34.7691 20.0304 34.4738 20.0205 34.1736C19.8459 32.473 20.2207 30.7611 21.0899 29.2891C21.9181 27.8864 23.1538 26.7716 24.6297 26.0913C24.0264 23.0631 24.0105 20.3794 24.0105 20.1234C24.0105 12.5934 31.2505 8.88343 31.5605 8.73343C31.7001 8.66309 31.8542 8.62646 32.0105 8.62646C32.1668 8.62646 32.3209 8.66309 32.4605 8.73343C32.7605 8.88343 40.0105 12.5934 40.0105 20.1234C40.0105 21.794 39.8375 23.9433 39.3917 26.09C40.8729 26.7736 42.1117 27.8948 42.9393 29.3054C43.8114 30.792 44.1801 32.5204 43.9906 34.2334C43.9545 34.8159 43.6926 35.3612 43.2606 35.7534C42.8368 36.1561 42.2751 36.3815 41.6906 36.3834H41.6106C40.9976 36.3574 40.4195 36.0916 40.0006 35.6434C39.343 34.9959 38.5953 34.4469 37.7806 34.0134L36.2097 33.228C35.116 34.3941 33.7365 35.1234 32.0105 35.1234ZM37.4117 31.599L38.7006 32.2434C39.707 32.7721 40.6303 33.446 41.4406 34.2434C41.4685 34.2814 41.5045 34.3128 41.546 34.3353C41.5875 34.3578 41.6334 34.3708 41.6806 34.3734C41.76 34.3681 41.8363 34.3404 41.9006 34.2934C41.929 34.2664 41.9516 34.2338 41.9671 34.1977C41.9826 34.1616 41.9906 34.1227 41.9906 34.0835C42.1507 32.7895 41.885 31.4785 41.2337 30.349C40.6779 29.3852 39.8671 28.5983 38.8955 28.0716C38.5187 29.3379 38.0314 30.5489 37.4117 31.599ZM25.1097 28.0849C25.4684 29.3342 25.9441 30.566 26.575 31.6413L25.2905 32.2836C24.2793 32.8095 23.3524 33.4836 22.5405 34.2836C22.5152 34.3148 22.4831 34.3401 22.4468 34.3574C22.4105 34.3747 22.3707 34.3836 22.3305 34.3836C22.2834 34.386 22.2363 34.3776 22.1929 34.3591C22.1495 34.3406 22.1109 34.3124 22.0801 34.2768C22.0492 34.2411 22.0269 34.1988 22.0149 34.1532C22.0028 34.1076 22.0013 34.0598 22.0105 34.0136C21.8693 32.7312 22.1452 31.4374 22.7972 30.3242C23.3515 29.3779 24.1525 28.605 25.1097 28.0849ZM32.0105 10.7734C30.5505 11.6634 26.0105 14.8334 26.0105 20.1234C26.0105 23.7434 27.0905 33.1234 32.0105 33.1234C36.9305 33.1234 38.0105 23.4934 38.0105 20.1234C38.0105 14.8334 33.4705 11.6634 32.0105 10.7734ZM8.98818 44.1231C8.98408 44.1523 8.98128 44.1816 8.97977 44.211C8.97505 44.2796 8.97742 44.3487 8.98694 44.4172C8.99245 44.4569 9.00034 44.4961 9.01053 44.5347V53.3734C9.01053 53.6386 9.11588 53.893 9.30342 54.0805C9.49096 54.2681 9.74531 54.3734 10.0105 54.3734C10.2757 54.3734 10.5301 54.2681 10.7176 54.0805C10.9052 53.893 11.0105 53.6386 11.0105 53.3734V45.5971L31.0105 51.0516V54.3734C31.0105 54.6386 31.1159 54.893 31.3034 55.0805C31.491 55.2681 31.7453 55.3734 32.0105 55.3734C32.2757 55.3734 32.5301 55.2681 32.7176 55.0805C32.9052 54.893 33.0105 54.6386 33.0105 54.3734V51.0136L53.0105 45.5591V53.3734C53.0105 53.6386 53.1159 53.893 53.3034 54.0805C53.491 54.2681 53.7453 54.3734 54.0105 54.3734C54.2757 54.3734 54.5301 54.2681 54.7176 54.0805C54.9052 53.893 55.0105 53.6386 55.0105 53.3734V44.5034C55.0105 44.4871 55.0101 44.4708 55.0093 44.4546C55.0257 44.355 55.027 44.2534 55.0129 44.1531C54.9946 44.0228 54.9507 43.8973 54.8838 43.784C54.8169 43.6707 54.7283 43.5716 54.6231 43.4926C54.6063 43.48 54.5892 43.468 54.5717 43.4565C54.5407 43.4336 54.5082 43.4123 54.4744 43.3929C54.339 43.3152 54.1887 43.271 54.0357 43.262L43.2705 40.4435C43.141 40.4006 43.004 40.3847 42.868 40.3967C42.7321 40.4088 42.6001 40.4485 42.4801 40.5135C42.36 40.5785 42.2546 40.6674 42.1703 40.7747C42.0859 40.882 42.0244 41.0054 41.9895 41.1374C41.9546 41.2693 41.9472 41.407 41.9675 41.542C41.9879 41.6769 42.0356 41.8063 42.1078 41.9221C42.1801 42.0379 42.2752 42.1377 42.3875 42.2153C42.4997 42.2929 42.6267 42.3467 42.7605 42.3735L50.0738 44.2882L31.9408 49.2336L13.8102 44.2888L21.2405 42.3434C21.3744 42.3167 21.5013 42.2629 21.6136 42.1853C21.7258 42.1076 21.821 42.0078 21.8932 41.892C21.9654 41.7762 22.0132 41.6469 22.0335 41.5119C22.0539 41.377 22.0464 41.2393 22.0115 41.1073C21.9767 40.9754 21.9152 40.852 21.8308 40.7447C21.7464 40.6374 21.641 40.5485 21.521 40.4835C21.401 40.4185 21.269 40.3787 21.133 40.3667C20.9971 40.3546 20.8601 40.3706 20.7305 40.4134L9.73052 43.2935C9.60303 43.3261 9.48322 43.3836 9.37798 43.4626C9.27274 43.5416 9.18413 43.6406 9.11724 43.754C9.05035 43.8673 9.0065 43.9927 8.98818 44.1231ZM29.9244 22.9964C30.5424 23.4073 31.2684 23.6255 32.0105 23.6235C33.0034 23.6209 33.9546 23.2246 34.6557 22.5216C35.3568 21.8187 35.7505 20.8663 35.7505 19.8735C35.7505 19.1314 35.5303 18.406 35.1178 17.7891C34.7053 17.1722 34.1191 16.6916 33.4333 16.408C32.7475 16.1245 31.9929 16.0508 31.2652 16.1963C30.5375 16.3418 29.8694 16.7 29.3453 17.2254C28.8213 17.7509 28.4649 18.42 28.3214 19.1481C28.1778 19.8762 28.2535 20.6305 28.5389 21.3155C28.8242 22.0006 29.3064 22.5856 29.9244 22.9964ZM31.0345 18.4243C31.3238 18.2328 31.6636 18.1315 32.0105 18.1335C32.4712 18.1361 32.9122 18.3203 33.238 18.6461C33.5637 18.9718 33.7479 19.4128 33.7505 19.8735C33.7525 20.2205 33.6513 20.5602 33.4598 20.8495C33.2682 21.1388 32.995 21.3647 32.6749 21.4984C32.3547 21.6321 32.002 21.6676 31.6616 21.6003C31.3212 21.5331 31.0085 21.3663 30.7631 21.1209C30.5178 20.8756 30.3509 20.5628 30.2837 20.2225C30.2165 19.8821 30.252 19.5294 30.3857 19.2092C30.5194 18.889 30.7452 18.6158 31.0345 18.4243ZM28.2105 40.0136C28.2105 41.6336 29.5205 46.3036 32.0105 46.3036C34.5005 46.3036 35.8105 41.6336 35.8105 40.0136C35.8105 39.0058 35.4102 38.0393 34.6975 37.3266C33.9849 36.614 33.0184 36.2136 32.0105 36.2136C31.0027 36.2136 30.0362 36.614 29.3235 37.3266C28.6109 38.0393 28.2105 39.0058 28.2105 40.0136ZM30.7407 38.7437C31.0777 38.4067 31.534 38.2162 32.0105 38.2136C32.4871 38.2162 32.9434 38.4067 33.2804 38.7437C33.6174 39.0807 33.8079 39.5371 33.8105 40.0136C33.8105 41.5536 32.6005 44.2136 32.0105 44.3036C31.4205 44.2136 30.2105 41.5536 30.2105 40.0136C30.2132 39.5371 30.4037 39.0807 30.7407 38.7437Z" fill="black"/>
</svg>
