<svg width="64" height="64" viewBox="0 0 64 64" fill="none" xmlns="http://www.w3.org/2000/svg">
<path fill-rule="evenodd" clip-rule="evenodd" d="M46.9396 36.3553C46.5044 36.3602 46.0731 36.2737 45.6735 36.1015C45.2738 35.9292 44.9148 35.675 44.6196 35.3553L43.6196 34.2253C43.5209 34.115 43.4012 34.0253 43.2676 33.9615C43.134 33.8977 42.9891 33.861 42.8413 33.8536C42.6934 33.8462 42.5456 33.8681 42.4062 33.9182C42.2669 33.9682 42.1389 34.0454 42.0296 34.1453L41.9496 34.2253L40.9496 35.3553C40.3925 35.9704 39.614 36.3391 38.7851 36.3804C37.9563 36.4217 37.145 36.1321 36.5296 35.5753C36.1892 35.2643 35.9227 34.881 35.7496 34.4536C35.5766 34.0262 35.5014 33.5655 35.5296 33.1053L35.5996 31.5753C35.6087 31.4277 35.5877 31.2797 35.5379 31.1405C35.488 31.0012 35.4104 30.8736 35.3096 30.7653C35.1112 30.5459 34.8348 30.4131 34.5396 30.3953H34.4296L32.8996 30.4753C32.2544 30.5103 31.6142 30.3441 31.0675 29.9996C30.5207 29.6551 30.0945 29.1495 29.8475 28.5523C29.6005 27.9552 29.5451 27.2961 29.6887 26.6661C29.8324 26.0361 30.1681 25.4663 30.6496 25.0353L31.7796 24.0353C31.8899 23.9365 31.9796 23.8169 32.0434 23.6833C32.1072 23.5498 32.1438 23.4048 32.1513 23.257C32.1587 23.1091 32.1368 22.9612 32.0867 22.8219C32.0366 22.6826 31.9594 22.5546 31.8596 22.4453C31.8355 22.4161 31.8087 22.3894 31.7796 22.3653L30.6496 21.3653C30.1681 20.9343 29.8324 20.3644 29.6887 19.7344C29.5451 19.1044 29.6005 18.4453 29.8475 17.8482C30.0945 17.2511 30.5207 16.7454 31.0675 16.401C31.6142 16.0565 32.2544 15.8903 32.8996 15.9253L34.4196 16.0053C34.5681 16.0162 34.7173 15.9967 34.8582 15.9482C34.999 15.8997 35.1285 15.8231 35.2388 15.7231C35.3492 15.623 35.438 15.5016 35.5 15.3662C35.5621 15.2308 35.5959 15.0842 35.5996 14.9353V14.8153L35.5296 13.3053C35.4983 12.6616 35.6664 12.024 36.011 11.4795C36.3557 10.9349 36.86 10.51 37.4551 10.2628C38.0502 10.0156 38.7071 9.95806 39.3361 10.0981C39.9651 10.2382 40.5356 10.5689 40.9696 11.0453L41.9696 12.1753C42.0648 12.2875 42.1826 12.3784 42.3153 12.4421C42.4479 12.5059 42.5925 12.541 42.7396 12.5453C43.036 12.563 43.3274 12.4623 43.5496 12.2653L43.6396 12.1753L44.6396 11.0453C45.0736 10.5689 45.6441 10.2382 46.2731 10.0981C46.9021 9.95806 47.559 10.0156 48.1541 10.2628C48.7492 10.51 49.2535 10.9349 49.5981 11.4795C49.9427 12.024 50.1109 12.6616 50.0796 13.3053L49.9996 14.8253C49.986 15.1234 50.0909 15.4148 50.2913 15.6359C50.4918 15.8569 50.7716 15.9897 51.0696 16.0053H51.1796L52.6996 15.9253C53.3448 15.8903 53.985 16.0565 54.5317 16.401C55.0784 16.7454 55.5047 17.2511 55.7517 17.8482C55.9986 18.4453 56.0541 19.1044 55.9104 19.7344C55.7668 20.3644 55.431 20.9343 54.9496 21.3653L53.8296 22.3653C53.7175 22.4635 53.6262 22.583 53.561 22.717C53.4957 22.8509 53.4579 22.9965 53.4496 23.1453C53.4389 23.4425 53.5427 23.7324 53.7396 23.9553L53.8196 24.0353L54.9496 25.0353C55.431 25.4663 55.7668 26.0361 55.9104 26.6661C56.0541 27.2961 55.9986 27.9552 55.7517 28.5523C55.5047 29.1495 55.0784 29.6551 54.5317 29.9996C53.985 30.3441 53.3448 30.5103 52.6996 30.4753L51.1796 30.3953C50.8821 30.3825 50.5913 30.4865 50.3696 30.6853C50.1513 30.8886 50.019 31.1676 49.9996 31.4653V31.5853L50.0796 33.0953C50.1011 33.5088 50.0403 33.9226 49.9008 34.3125C49.7612 34.7024 49.5457 35.0608 49.2666 35.3668C48.9876 35.6728 48.6506 35.9204 48.2752 36.0952C47.8998 36.27 47.4934 36.3686 47.0796 36.3853L46.9396 36.3553ZM45.0796 32.8553L46.0796 33.9853C46.2324 34.1717 46.4408 34.3043 46.6743 34.3639C46.9078 34.4234 47.1543 34.4067 47.3776 34.3162C47.601 34.2258 47.7896 34.0663 47.9159 33.861C48.0422 33.6557 48.0995 33.4155 48.0796 33.1753L47.9996 31.6553V31.3553C48.0365 30.5319 48.3957 29.7561 48.9996 29.1953C49.3022 28.9184 49.6572 28.705 50.0436 28.5676C50.4301 28.4302 50.8401 28.3716 51.2496 28.3953L52.7696 28.4653C52.9359 28.4803 53.1034 28.4556 53.2581 28.393C53.4129 28.3304 53.5505 28.2317 53.6596 28.1053C53.7594 27.996 53.8366 27.868 53.8867 27.7286C53.9368 27.5893 53.9587 27.4415 53.9513 27.2936C53.9438 27.1457 53.9072 27.0008 53.8434 26.8672C53.7796 26.7336 53.6899 26.614 53.5796 26.5153L52.4596 25.5153C52.378 25.4437 52.3012 25.3669 52.2296 25.2853C51.674 24.6686 51.3862 23.8565 51.4293 23.0276C51.4725 22.1988 51.843 21.421 52.4596 20.8653L53.5796 19.8653C53.7031 19.7534 53.8003 19.6156 53.8642 19.4617C53.9282 19.3078 53.9574 19.1417 53.9496 18.9753C53.9341 18.6772 53.8013 18.3975 53.5802 18.197C53.3591 17.9966 53.0677 17.8917 52.7696 17.9053L51.2496 17.9753H50.9296C50.5176 17.9586 50.1129 17.8606 49.7388 17.687C49.3648 17.5135 49.0287 17.2677 48.7499 16.9638C48.4711 16.66 48.2552 16.304 48.1144 15.9164C47.9736 15.5288 47.9108 15.1172 47.9296 14.7053L48.0096 13.1753C48.018 13.0102 47.9891 12.8454 47.925 12.693C47.861 12.5407 47.7634 12.4047 47.6396 12.2953C47.5309 12.1948 47.4034 12.1169 47.2645 12.066C47.1255 12.0151 46.9778 11.9922 46.83 11.9987C46.6821 12.0053 46.5371 12.041 46.4031 12.1039C46.2691 12.1668 46.149 12.2557 46.0496 12.3653L45.0496 13.4953L44.8196 13.7253C44.5151 14.0001 44.1594 14.2121 43.7728 14.3493C43.3863 14.4864 42.9765 14.546 42.5669 14.5247C42.1573 14.5033 41.7559 14.4014 41.3857 14.2248C41.0156 14.0481 40.6839 13.8003 40.4096 13.4953L39.4096 12.3653C39.2952 12.245 39.157 12.1499 39.0037 12.0861C38.8504 12.0224 38.6855 11.9915 38.5196 11.9953C38.2207 12.0134 37.9409 12.1483 37.7407 12.371C37.5405 12.5936 37.4359 12.8861 37.4496 13.1853L37.5296 14.6953C37.5396 14.8017 37.5396 14.9089 37.5296 15.0153C37.5116 15.4278 37.4125 15.8327 37.2378 16.2068C37.0632 16.5809 36.8164 16.9169 36.5118 17.1956C36.2071 17.4742 35.8505 17.69 35.4623 17.8307C35.0741 17.9713 34.662 18.0341 34.2496 18.0153L32.7296 17.9453C32.5629 17.9353 32.3961 17.9635 32.2419 18.0276C32.0877 18.0917 31.9501 18.1901 31.8396 18.3153C31.7397 18.4246 31.6625 18.5526 31.6125 18.6919C31.5624 18.8312 31.5405 18.9791 31.5479 19.127C31.5553 19.2748 31.592 19.4197 31.6558 19.5533C31.7196 19.6869 31.8093 19.8065 31.9196 19.9053L33.0496 20.9053L33.2796 21.1253C33.8351 21.7419 34.123 22.554 34.0799 23.3829C34.0367 24.2118 33.6661 24.9896 33.0496 25.5453L31.9196 26.5453C31.7258 26.6946 31.5862 26.9033 31.5222 27.1394C31.4582 27.3755 31.4733 27.6261 31.5651 27.8529C31.657 28.0796 31.8205 28.2701 32.0308 28.3951C32.2411 28.5201 32.4865 28.5729 32.7296 28.5453L34.2496 28.4753H34.5696C34.9834 28.4893 35.3902 28.5858 35.7662 28.7591C36.1422 28.9324 36.4798 29.179 36.7592 29.4845C37.0386 29.79 37.2542 30.1482 37.3934 30.5382C37.5326 30.9281 37.5925 31.3419 37.5696 31.7553L37.4896 33.2753C37.4832 33.4416 37.513 33.6073 37.5768 33.7609C37.6407 33.9146 37.7372 34.0525 37.8596 34.1653C37.9689 34.2651 38.0969 34.3423 38.2362 34.3924C38.3755 34.4425 38.5234 34.4644 38.6713 34.457C38.8191 34.4495 38.964 34.4129 39.0976 34.3491C39.2312 34.2853 39.3509 34.1956 39.4496 34.0853L40.4496 32.9553L40.6796 32.7253C41.2957 32.1728 42.1056 31.8869 42.9321 31.93C43.7585 31.9731 44.5342 32.3417 45.0896 32.9553L45.0796 32.8553ZM24.0781 53.7012C24.4761 53.8734 24.9059 53.96 25.3396 53.9553H25.4296C25.8421 53.9373 26.247 53.8382 26.6211 53.6635C26.9952 53.4888 27.3312 53.2421 27.6098 52.9375C27.8885 52.6328 28.1043 52.2762 28.245 51.888C28.3857 51.4998 28.4484 51.0877 28.4296 50.6753L28.3496 49.1453V49.0353C28.3677 48.739 28.5015 48.4618 28.7223 48.2634C28.9431 48.0651 29.2331 47.9616 29.5296 47.9753L31.0496 48.0453C31.7039 48.0911 32.3561 47.9296 32.9134 47.5836C33.4707 47.2376 33.9047 46.7247 34.1539 46.1179C34.403 45.5111 34.4545 44.8413 34.3012 44.2035C34.1478 43.5657 33.7974 42.9925 33.2996 42.5653L32.1696 41.5653L32.0896 41.4853C31.8904 41.2633 31.7871 40.9716 31.802 40.6738C31.817 40.3759 31.9491 40.0961 32.1696 39.8953L33.2996 38.8953C33.625 38.6027 33.8852 38.2449 34.0633 37.8452C34.2414 37.4455 34.3334 37.0129 34.3334 36.5753C34.3334 36.1377 34.2414 35.705 34.0633 35.3053C33.8852 34.9056 33.625 34.5479 33.2996 34.2553C32.997 33.9784 32.642 33.765 32.2556 33.6276C31.8691 33.4901 31.459 33.4316 31.0496 33.4553L29.5696 33.5353H29.4596C29.1614 33.5179 28.8817 33.3852 28.6796 33.1653C28.5793 33.0567 28.5019 32.929 28.4521 32.7898C28.4023 32.6506 28.381 32.5028 28.3896 32.3553L28.4396 30.8353C28.4643 30.3739 28.3876 29.9128 28.2148 29.4843C28.0421 29.0558 27.7774 28.6704 27.4396 28.3553C26.8234 27.8028 26.0135 27.5169 25.1871 27.56C24.3607 27.6031 23.5849 27.9717 23.0296 28.5853L22.0296 29.7053L21.9396 29.7953C21.7164 29.9932 21.4239 30.0948 21.126 30.078C20.8282 30.0611 20.5491 29.9271 20.3496 29.7053L19.3496 28.5753C19.036 28.2382 18.6523 27.974 18.2255 27.8012C17.7988 27.6285 17.3394 27.5513 16.8796 27.5753C16.4713 27.5909 16.0702 27.6873 15.6994 27.8589C15.3287 28.0306 14.9956 28.2741 14.7196 28.5753C14.4425 28.8801 14.2283 29.2367 14.0893 29.6245C13.9503 30.0124 13.8892 30.4238 13.9096 30.8353L13.9896 32.3553V32.5753C13.9832 32.7233 13.9475 32.8686 13.8846 33.0027C13.8216 33.1368 13.7327 33.2571 13.623 33.3566C13.5132 33.4561 13.3848 33.5329 13.2452 33.5824C13.1056 33.632 12.9575 33.6534 12.8096 33.6453L11.2896 33.5653C10.8287 33.5304 10.3659 33.6025 9.93746 33.776C9.509 33.9495 9.12642 34.2196 8.81958 34.5653C8.54419 34.8691 8.33141 35.2243 8.1934 35.6105C8.0554 35.9967 7.99489 36.4063 8.01532 36.8159C8.03575 37.2255 8.13674 37.627 8.31249 37.9975C8.48824 38.3681 8.73531 38.7003 9.03958 38.9753L10.1696 39.9753L10.2496 40.0553C10.3488 40.1652 10.4253 40.2937 10.4745 40.4334C10.5238 40.5731 10.5448 40.7212 10.5364 40.8691C10.5281 41.0169 10.4904 41.1617 10.4258 41.2949C10.3611 41.4281 10.2706 41.5472 10.1596 41.6453L9.02959 42.6453C8.55711 43.0801 8.22978 43.6497 8.09201 44.2768C7.95424 44.904 8.01268 45.5583 8.25941 46.1511C8.50614 46.7439 8.92921 47.2465 9.47127 47.5907C10.0133 47.9349 10.6481 48.1041 11.2896 48.0753L12.8096 48.0053H12.9196C13.2176 48.0208 13.4974 48.1536 13.6979 48.3747C13.8983 48.5958 14.0032 48.8871 13.9896 49.1853L13.9096 50.7053C13.8805 51.3481 14.0502 51.9842 14.3957 52.5271C14.7411 53.07 15.2455 53.4932 15.8401 53.7391C16.4347 53.985 17.0906 54.0417 17.7186 53.9014C18.3466 53.7612 18.9161 53.4308 19.3496 52.9553L20.3496 51.8253L20.4396 51.7453C20.6613 51.5465 20.9521 51.4424 21.2496 51.4553C21.5472 51.4747 21.8263 51.607 22.0296 51.8253L23.0296 52.9553C23.3229 53.2747 23.6802 53.5289 24.0781 53.7012ZM21.3296 49.4253H21.1696C20.4218 49.4395 19.7044 49.7237 19.1496 50.2253L18.9196 50.4553L17.9196 51.5853C17.7668 51.7717 17.5584 51.9043 17.3249 51.9639C17.0913 52.0234 16.8449 52.0067 16.6215 51.9162C16.3981 51.8258 16.2095 51.6663 16.0833 51.461C15.957 51.2557 15.8996 51.0155 15.9196 50.7753L15.9996 49.2553C16.0184 48.8428 15.9557 48.4307 15.815 48.0425C15.6743 47.6544 15.4585 47.2978 15.1798 46.9931C14.9012 46.6884 14.5652 46.4417 14.1911 46.267C13.817 46.0924 13.4121 45.9932 12.9996 45.9753H12.6896L11.1696 46.0553C10.8715 46.0689 10.5801 45.964 10.359 45.7635C10.1379 45.5631 10.0051 45.2833 9.98959 44.9853C9.98319 44.819 10.013 44.6533 10.0768 44.4996C10.1407 44.346 10.2372 44.208 10.3596 44.0953L11.4896 43.0953C12.1017 42.5385 12.4685 41.7621 12.5097 40.9357C12.5509 40.1093 12.2633 39.3001 11.7096 38.6853C11.6414 38.6038 11.5679 38.527 11.4896 38.4553L10.3596 37.4553C10.2489 37.3566 10.1592 37.2367 10.0956 37.1027C10.0321 36.9687 9.99604 36.8234 9.98959 36.6753C9.98102 36.5277 10.0023 36.3799 10.0521 36.2407C10.1019 36.1016 10.1793 35.9739 10.2796 35.8653C10.391 35.7412 10.5288 35.6437 10.6827 35.5796C10.8367 35.5156 11.003 35.4868 11.1696 35.4953L12.6896 35.5753C13.0995 35.5949 13.5092 35.5334 13.8953 35.3944C14.2814 35.2554 14.6362 35.0416 14.9396 34.7653C15.2412 34.4896 15.485 34.1566 15.6567 33.7858C15.8284 33.4149 15.9245 33.0136 15.9396 32.6053V32.2953L15.8596 30.7753C15.8467 30.4778 15.9508 30.187 16.1496 29.9653C16.2468 29.8528 16.3663 29.7618 16.5006 29.6981C16.6349 29.6344 16.781 29.5994 16.9296 29.5953C17.0961 29.5868 17.2624 29.6156 17.4164 29.6796C17.5704 29.7437 17.7081 29.8412 17.8196 29.9653L18.8196 31.0853C19.0939 31.3902 19.4256 31.6381 19.7957 31.8148C20.1659 31.9914 20.5673 32.0933 20.9769 32.1147C21.3865 32.136 21.7963 32.0764 22.1828 31.9393C22.5694 31.8021 22.9251 31.59 23.2296 31.3153C23.3112 31.2437 23.388 31.1669 23.4596 31.0853L24.4596 29.9653C24.5583 29.8549 24.6779 29.7653 24.8115 29.7015C24.9451 29.6377 25.09 29.601 25.2379 29.5936C25.3858 29.5861 25.5336 29.6081 25.6729 29.6582C25.8123 29.7082 25.9403 29.7854 26.0496 29.8853C26.1748 29.9958 26.2731 30.1334 26.3372 30.2876C26.4014 30.4418 26.4295 30.6086 26.4196 30.7753L26.3396 32.2953C26.3181 32.7045 26.3777 33.114 26.515 33.5001C26.6523 33.8862 26.8646 34.2414 27.1396 34.5453C27.7035 35.1507 28.483 35.5099 29.3096 35.5453H29.6196L31.1396 35.4653C31.2872 35.4567 31.4349 35.478 31.5741 35.5278C31.7133 35.5776 31.841 35.655 31.9496 35.7553C32.0621 35.8525 32.153 35.972 32.2167 36.1063C32.2804 36.2406 32.3155 36.3867 32.3196 36.5353C32.3273 36.7017 32.2982 36.8678 32.2342 37.0217C32.1703 37.1756 32.0731 37.3134 31.9496 37.4253L30.8196 38.4253C30.206 38.9806 29.8374 39.7564 29.7943 40.5828C29.7512 41.4092 30.0371 42.2191 30.5896 42.8353L30.8196 43.0653L31.9496 44.0653C32.0621 44.1624 32.153 44.282 32.2167 44.4163C32.2804 44.5506 32.3155 44.6967 32.3196 44.8453C32.3276 44.9928 32.3061 45.1404 32.2563 45.2795C32.2065 45.4186 32.1294 45.5463 32.0296 45.6553C31.9164 45.7771 31.7784 45.8733 31.6248 45.9371C31.4713 46.0009 31.3058 46.031 31.1396 46.0253L29.6196 45.9453C29.2101 45.9216 28.8001 45.9801 28.4136 46.1175C28.0272 46.2549 27.6722 46.4684 27.3696 46.7453C27.0688 47.0217 26.8256 47.3548 26.654 47.7255C26.4824 48.0962 26.3857 48.4971 26.3696 48.9053V49.2253L26.4496 50.7453C26.4632 51.0434 26.3583 51.3348 26.1579 51.5559C25.9574 51.7769 25.6776 51.9097 25.3796 51.9253C25.2135 51.9304 25.0482 51.9 24.8947 51.8362C24.7413 51.7724 24.6031 51.6766 24.4896 51.5553L23.4896 50.4253C22.9294 49.8205 22.1532 49.4612 21.3296 49.4253ZM17.9028 45.6443C18.8698 46.2904 20.0066 46.6353 21.1696 46.6353C22.7282 46.6326 24.2223 46.0123 25.3244 44.9101C26.4266 43.808 27.0469 42.3139 27.0496 40.7553C27.0496 39.5923 26.7047 38.4555 26.0586 37.4885C25.4125 36.5216 24.4942 35.7679 23.4198 35.3229C22.3453 34.8778 21.1631 34.7614 20.0225 34.9883C18.8818 35.2152 17.8341 35.7752 17.0118 36.5975C16.1895 37.4198 15.6294 38.4675 15.4026 39.6081C15.1757 40.7488 15.2921 41.931 15.7372 43.0055C16.1822 44.0799 16.9359 44.9982 17.9028 45.6443ZM19.014 37.5292C19.652 37.1028 20.4022 36.8753 21.1696 36.8753C22.1986 36.8753 23.1855 37.2841 23.9132 38.0117C24.6408 38.7393 25.0496 39.7262 25.0496 40.7553C25.0496 41.5227 24.822 42.2728 24.3957 42.9109C23.9693 43.5489 23.3634 44.0463 22.6544 44.3399C21.9454 44.6336 21.1653 44.7104 20.4126 44.5607C19.66 44.411 18.9686 44.0415 18.426 43.4989C17.8834 42.9562 17.5138 42.2649 17.3641 41.5122C17.2144 40.7596 17.2913 39.9794 17.5849 39.2705C17.8786 38.5615 18.3759 37.9555 19.014 37.5292ZM39.4835 28.0568C40.4536 28.7032 41.5938 29.0472 42.7596 29.0453C44.3182 29.0426 45.8123 28.4223 46.9145 27.3201C48.0166 26.218 48.6369 24.7239 48.6396 23.1653C48.6416 21.9995 48.2975 20.8593 47.6511 19.8892C47.0047 18.9191 46.0849 18.1626 45.0082 17.7155C43.9315 17.2685 42.7464 17.151 41.603 17.378C40.4595 17.6049 39.4091 18.1661 38.5847 18.9904C37.7604 19.8148 37.1992 20.8652 36.9723 22.0086C36.7453 23.1521 36.8628 24.3372 37.3099 25.4139C37.7569 26.4906 38.5134 27.4104 39.4835 28.0568ZM40.5957 19.926C41.2367 19.4997 41.9898 19.2733 42.7596 19.2753C43.7895 19.2779 44.7764 19.6889 45.5038 20.4182C46.2311 21.1474 46.6396 22.1353 46.6396 23.1653C46.6396 23.9351 46.4112 24.6875 45.9833 25.3275C45.5554 25.9674 44.9473 26.466 44.2359 26.7601C43.5245 27.0542 42.7419 27.1307 41.987 26.9798C41.2321 26.8289 40.539 26.4574 39.9954 25.9124C39.4518 25.3673 39.0821 24.6733 38.9331 23.918C38.7841 23.1628 38.8626 22.3803 39.1586 21.6697C39.4545 20.9591 39.9547 20.3522 40.5957 19.926Z" fill="black"/>
</svg>
