<svg width="24" height="24" viewBox="0 0 24 24" fill="none" xmlns="http://www.w3.org/2000/svg">
<g clip-path="url(#clip0_914_3043)">
<path d="M23.7788 13.9897C23.9251 13.3386 23.9993 12.6733 24 12.0059C24.0003 9.6809 23.0982 7.44651 21.4838 5.77343L21.4388 5.72468C20.4974 4.75778 19.3507 4.01495 18.0834 3.55116C16.8161 3.08737 15.4608 2.9145 14.1177 3.04533C12.7746 3.17616 11.4781 3.60734 10.3242 4.30697C9.17022 5.0066 8.18839 5.95678 7.45132 7.08716C6.71425 8.21755 6.24081 9.49921 6.06603 10.8373C5.89126 12.1754 6.01963 13.5357 6.44165 14.8175C6.86366 16.0992 7.56852 17.2697 8.50404 18.2423C9.43957 19.2148 10.5818 19.9645 11.8463 20.4359H11.8688C13.0679 20.8807 14.3482 21.0648 15.6241 20.9759C16.9 20.8869 18.1423 20.5271 19.2682 19.9203C20.3941 19.3136 21.3778 18.4738 22.1536 17.4569C22.9294 16.4401 23.4796 15.2696 23.7675 14.0234C23.7728 14.0127 23.7766 14.0014 23.7788 13.9897ZM23.1113 13.5284H22.5825C22.2731 13.5289 21.9684 13.4528 21.6955 13.3068C21.4227 13.1609 21.1902 12.9498 21.0188 12.6922L19.3575 10.1947C19.1181 9.83513 18.7936 9.54024 18.4129 9.33615C18.0322 9.13205 17.607 9.02506 17.175 9.02467H16.845C16.4969 9.02467 16.1631 8.88639 15.9169 8.64025C15.6708 8.39411 15.5325 8.06027 15.5325 7.71217C15.5325 7.36407 15.6708 7.03024 15.9169 6.7841C16.1631 6.53796 16.4969 6.39967 16.845 6.39967H21.0338C21.9156 7.34064 22.5638 8.47581 22.926 9.71351C23.2882 10.9512 23.3542 12.2567 23.1188 13.5247L23.1113 13.5284ZM6.75002 12.0284C6.7517 11.6521 6.778 11.2763 6.82877 10.9034H11.07C11.3162 10.9027 11.5601 10.9511 11.7874 11.0458C12.0147 11.1404 12.2208 11.2794 12.3938 11.4547L13.2338 12.2947C13.5721 12.6329 13.7684 13.0878 13.7823 13.566C13.7963 14.0443 13.6268 14.5098 13.3088 14.8672L12.2888 16.0147C11.8614 16.495 11.6253 17.1155 11.625 17.7584V19.5284C10.1738 18.8778 8.94161 17.8217 8.07671 16.487C7.21181 15.1524 6.75109 13.5963 6.75002 12.0059V12.0284ZM15 20.2784C14.1074 20.2783 13.2208 20.1326 12.375 19.8472V17.7547C12.3749 17.2958 12.543 16.8529 12.8475 16.5097L13.8713 15.3622C14.3161 14.8619 14.553 14.2105 14.5335 13.5413C14.514 12.8721 14.2395 12.2357 13.7663 11.7622L12.9263 10.9034C12.6825 10.6597 12.3931 10.4663 12.0746 10.3344C11.7561 10.2025 11.4147 10.1347 11.07 10.1347H6.96752C7.28687 8.77 7.94861 7.50918 8.89033 6.47116C9.83205 5.43314 11.0227 4.65214 12.3499 4.20184C13.6772 3.75155 15.0972 3.64681 16.4762 3.8975C17.8551 4.14819 19.1474 4.74606 20.2313 5.63468H16.8563C16.3093 5.63468 15.7847 5.85197 15.3979 6.23877C15.0111 6.62556 14.7938 7.15017 14.7938 7.69718C14.7938 8.24419 15.0111 8.76879 15.3979 9.15558C15.7847 9.54237 16.3093 9.75968 16.8563 9.75968H17.1863C17.4944 9.76046 17.7976 9.83716 18.0691 9.98302C18.3405 10.1289 18.5718 10.3394 18.7425 10.5959L20.4075 13.0934C20.6473 13.4535 20.9724 13.7487 21.3538 13.9528C21.7352 14.157 22.1612 14.2637 22.5938 14.2634H22.9463C22.4588 15.9954 21.4186 17.5205 19.984 18.6064C18.5495 19.6923 16.7992 20.2795 15 20.2784Z" fill="black"/>
</g>
<defs>
<clipPath id="clip0_914_3043">
<rect width="24" height="24" fill="white"/>
</clipPath>
</defs>
</svg>
