<svg width="64" height="64" viewBox="0 0 64 64" fill="none" xmlns="http://www.w3.org/2000/svg">
<path fill-rule="evenodd" clip-rule="evenodd" d="M21.3437 10.0221C21.1411 10.2247 20.8664 10.3384 20.58 10.3384C20.4334 10.3385 20.2883 10.3091 20.1534 10.2518C20.0185 10.1945 19.8965 10.1107 19.7947 10.0052C19.693 9.8997 19.6136 9.77474 19.5612 9.63785C19.5088 9.50095 19.4846 9.35491 19.49 9.20844V7.03845C19.5159 6.76866 19.6414 6.51819 19.842 6.33594C20.0427 6.15369 20.304 6.05273 20.575 6.05273C20.846 6.05273 21.1073 6.15369 21.308 6.33594C21.5086 6.51819 21.6341 6.76866 21.66 7.03845V9.25845C21.66 9.54489 21.5462 9.81959 21.3437 10.0221ZM8.16815 14.4421C7.99128 14.5614 7.78331 14.6262 7.56998 14.6284C7.28451 14.6254 7.01162 14.5105 6.80997 14.3084L4.63995 12.1384C4.43903 11.9344 4.32642 11.6597 4.32642 11.3734C4.32642 11.0871 4.43903 10.8123 4.63995 10.6084C4.84558 10.4068 5.12205 10.2939 5.40997 10.2939C5.6979 10.2939 5.97434 10.4068 6.17996 10.6084L8.33997 12.7784C8.48873 12.9313 8.58933 13.1245 8.62933 13.3341C8.66933 13.5436 8.64698 13.7603 8.565 13.9573C8.48302 14.1542 8.34503 14.3228 8.16815 14.4421ZM33.58 14.618C33.7221 14.6218 33.8634 14.5952 33.9945 14.54C34.1255 14.4848 34.2433 14.4023 34.34 14.298L36.5099 12.138C36.7109 11.9341 36.8235 11.6593 36.8235 11.373C36.8235 11.0867 36.7109 10.8119 36.5099 10.608C36.4103 10.5061 36.2913 10.4251 36.1599 10.3699C36.0286 10.3146 35.8875 10.2861 35.745 10.2861C35.6024 10.2861 35.4614 10.3146 35.33 10.3699C35.1986 10.4251 35.0796 10.5061 34.9799 10.608L32.81 12.768C32.609 12.9719 32.4964 13.2467 32.4964 13.533C32.4964 13.8193 32.609 14.0941 32.81 14.298C32.9097 14.4011 33.0294 14.4827 33.1618 14.5377C33.2943 14.5928 33.4366 14.6201 33.58 14.618ZM1.07999 25.458H3.23999C3.52642 25.458 3.80112 25.5718 4.00366 25.7743C4.2062 25.9769 4.32001 26.2516 4.32001 26.538C4.32001 26.8245 4.2062 27.0992 4.00366 27.3017C3.80112 27.5042 3.52642 27.618 3.23999 27.618H1.07999C0.793553 27.618 0.518854 27.5042 0.316315 27.3017C0.113775 27.0992 0 26.8245 0 26.538C0 26.2516 0.113775 25.9769 0.316315 25.7743C0.518854 25.5718 0.793553 25.458 1.07999 25.458ZM7.27997 31.1377C7.35169 31.3473 7.4861 31.5297 7.66498 31.6603C7.84385 31.7908 8.05855 31.8633 8.27997 31.8677C8.40243 31.8674 8.524 31.8471 8.63995 31.8077C8.7752 31.7607 8.89975 31.6873 9.00635 31.5917C9.11295 31.4961 9.19948 31.3802 9.26089 31.2509C9.32231 31.1215 9.3574 30.9813 9.36411 30.8382C9.37081 30.6952 9.349 30.5523 9.29996 30.4177C8.86113 29.1713 8.63793 27.8592 8.63995 26.5378C8.64364 24.122 9.38129 21.7643 10.7551 19.7772C12.129 17.79 14.0741 16.2673 16.3329 15.4106C18.5917 14.5539 21.0575 14.4038 23.4036 14.9801C25.7496 15.5564 27.8652 16.832 29.47 18.6377C29.5642 18.7445 29.6787 18.8316 29.8068 18.894C29.9349 18.9564 30.074 18.9928 30.2162 19.0012C30.3584 19.0095 30.5009 18.9897 30.6354 18.9428C30.7699 18.8958 30.8938 18.8228 31 18.7278C31.211 18.5345 31.3385 18.2667 31.3553 17.981C31.3721 17.6953 31.2769 17.4144 31.09 17.1977C29.1928 15.0639 26.6921 13.5567 23.9191 12.876C21.1462 12.1953 18.2319 12.3731 15.5622 13.3859C12.8926 14.3986 10.5936 16.1986 8.96994 18.5472C7.34624 20.8959 6.47443 23.6825 6.46997 26.5378C6.4778 28.1059 6.75169 29.6613 7.27997 31.1377ZM41.33 26.568L50.96 43.898C51.2368 44.4012 51.3039 44.9934 51.1466 45.5458C50.9893 46.0981 50.6204 46.5661 50.12 46.848C49.7991 47.0271 49.4374 47.1201 49.07 47.118H32.49V56.868C32.49 57.1545 32.3762 57.4292 32.1737 57.6317C31.9711 57.8342 31.6964 57.948 31.41 57.948C31.1236 57.948 30.8489 57.8342 30.6463 57.6317C30.4438 57.4292 30.33 57.1545 30.33 56.868V47.118H25.99V56.868C25.99 57.1545 25.8762 57.4292 25.6737 57.6317C25.4711 57.8342 25.1964 57.948 24.91 57.948C24.6236 57.948 24.3489 57.8342 24.1463 57.6317C23.9438 57.4292 23.83 57.1545 23.83 56.868V47.118H7.25C6.67714 47.118 6.12774 46.8904 5.72266 46.4854C5.31758 46.0803 5.09 45.5309 5.09 44.958C5.08793 44.5906 5.18093 44.2289 5.35999 43.908L14.99 26.568C15.1773 26.2312 15.4514 25.9507 15.7838 25.7555C16.1161 25.5603 16.4946 25.4576 16.88 25.458H39.44C39.8256 25.4565 40.2045 25.5588 40.5371 25.7541C40.8696 25.9494 41.1435 26.2305 41.33 26.568ZM21.84 40.618L20.84 44.958H35.54L34.54 40.618H21.84ZM23.29 34.118L22.29 38.458H34.11L33.11 34.118H23.29ZM21.05 34.118H13.29L10.84 38.458H20.05L21.05 34.118ZM32.64 31.958L31.64 27.618H24.73L23.73 31.958H32.64ZM43.07 34.118H35.31L36.27 38.458H45.48L43.07 34.118ZM34.87 31.958H41.87L39.43 27.618H33.87L34.87 31.958ZM22.47 27.618H16.87L14.47 31.958H21.47L22.47 27.618ZM19.58 40.618H9.65L7.25 44.958H18.58L19.58 40.618ZM36.65 40.618L37.65 44.958H48.99L46.58 40.618H36.65Z" fill="black"/>
</svg>
