<svg width="24" height="24" viewBox="0 0 24 24" fill="none" xmlns="http://www.w3.org/2000/svg">
<path fill-rule="evenodd" clip-rule="evenodd" d="M14.4481 12.3961C14.5364 12.4323 14.6309 12.4507 14.7263 12.4502V12.4464C14.8634 12.4465 14.9978 12.4078 15.1139 12.3348C15.23 12.2618 15.3231 12.1575 15.3825 12.0339L17.55 7.47765C17.5918 7.39135 17.6161 7.29759 17.6213 7.20184C17.6266 7.10608 17.6128 7.01024 17.5807 6.91987C17.5486 6.8295 17.4988 6.74641 17.4343 6.67543C17.3698 6.60445 17.2919 6.547 17.205 6.5064C17.1194 6.4652 17.0262 6.44222 16.9313 6.43891L15.1275 6.3414V3.7914C15.1252 3.62805 15.068 3.47025 14.965 3.34338C14.8621 3.21652 14.7195 3.12799 14.5601 3.09205C14.4008 3.05611 14.234 3.07484 14.0866 3.14524C13.9391 3.21564 13.8197 3.33362 13.7475 3.48015L11.5763 8.04391C11.5348 8.13008 11.5108 8.22356 11.5055 8.31902C11.5003 8.41449 11.5139 8.51006 11.5456 8.60026C11.5773 8.69046 11.6264 8.77354 11.6902 8.84473C11.7541 8.91592 11.8313 8.97383 11.9175 9.01515C12.0042 9.05765 12.0986 9.0819 12.195 9.08641L13.9988 9.18016V11.7264C13.9988 11.8218 14.0176 11.9162 14.0542 12.0042C14.0908 12.0923 14.1445 12.1722 14.2121 12.2395C14.2797 12.3068 14.3599 12.36 14.4481 12.3961ZM12.2513 8.35515L14.3738 3.90766L14.3588 6.6864C14.3588 6.78585 14.3983 6.88124 14.4686 6.95157C14.5389 7.02189 14.6343 7.0614 14.7338 7.0614L16.875 7.1439L14.7488 11.6101V8.8089C14.7489 8.71261 14.7119 8.61996 14.6456 8.55015C14.5793 8.48034 14.4887 8.43871 14.3925 8.4339L12.2513 8.35515ZM1.45876 11.6027H2.8875L2.89501 11.5989C3.36063 11.5777 3.80016 11.3778 4.12216 11.0408C4.35601 10.7961 4.51481 10.4927 4.58422 10.1664H4.67251C4.95397 10.1664 5.2239 10.2782 5.42293 10.4773C5.62195 10.6763 5.73376 10.9462 5.73376 11.2277V17.6814C5.73376 18.1608 5.92419 18.6206 6.26316 18.9595C6.60213 19.2985 7.06188 19.4889 7.54126 19.4889H8.95876V19.8002C8.95876 20.0985 9.07728 20.3847 9.28826 20.5957C9.49924 20.8066 9.78539 20.9252 10.0838 20.9252H15.7575C16.0552 20.9242 16.3404 20.8052 16.5506 20.5943C16.7607 20.3835 16.8788 20.0979 16.8788 19.8002V13.9427C16.8788 13.8432 16.8392 13.7478 16.7689 13.6775C16.6986 13.6072 16.6032 13.5677 16.5038 13.5677C16.4043 13.5677 16.3089 13.6072 16.2386 13.6775C16.1683 13.7478 16.1288 13.8432 16.1288 13.9427V19.8002C16.1288 19.8996 16.0892 19.995 16.0189 20.0653C15.9486 20.1357 15.8532 20.1752 15.7538 20.1752H10.0838C9.9843 20.1752 9.88892 20.1357 9.81859 20.0653C9.74826 19.995 9.70876 19.8996 9.70876 19.8002V19.1154C9.70876 19.1149 9.70876 19.1144 9.70876 19.1139C9.70876 19.1134 9.70876 19.1129 9.70876 19.1125V6.19516C9.70876 6.0957 9.74826 6.00033 9.81859 5.93C9.88892 5.85967 9.9843 5.82016 10.0838 5.82016C10.1832 5.82016 10.2786 5.78066 10.3489 5.71033C10.4192 5.64 10.4588 5.54462 10.4588 5.44516C10.4588 5.3457 10.4192 5.25033 10.3489 5.18C10.2786 5.10967 10.1832 5.07016 10.0838 5.07016C9.78539 5.07016 9.49924 5.18869 9.28826 5.39967C9.07728 5.61065 8.95876 5.89679 8.95876 6.19516V18.7389H7.54126C7.26079 18.7389 6.99181 18.6275 6.79349 18.4292C6.59517 18.2309 6.48376 17.9619 6.48376 17.6814V11.2277C6.48277 10.7476 6.29162 10.2875 5.95216 9.94802C5.6127 9.60856 5.15258 9.41741 4.67251 9.41642H4.58502C4.51602 9.0887 4.35691 8.78394 4.12216 8.53826C3.80016 8.20126 3.36063 8.00137 2.89501 7.98016H1.45876C1.3593 7.98016 1.26392 8.01968 1.19359 8.09C1.12327 8.16033 1.08376 8.25569 1.08376 8.35514H0.375C0.275544 8.35514 0.180161 8.39465 0.109835 8.46498C0.0395085 8.53531 0 8.63068 0 8.73014C0 8.8296 0.0395085 8.92497 0.109835 8.9953C0.180161 9.06563 0.275544 9.10514 0.375 9.10514H1.08376V10.4927H0.375C0.275544 10.4927 0.180161 10.5322 0.109835 10.6025C0.0395085 10.6728 0 10.7682 0 10.8677C0 10.9671 0.0395085 11.0625 0.109835 11.1328C0.180161 11.2032 0.275544 11.2427 0.375 11.2427H1.08406C1.08782 11.3367 1.12681 11.426 1.19359 11.4928C1.26392 11.5632 1.3593 11.6027 1.45876 11.6027ZM1.83376 8.73392L1.82646 10.7941C1.83031 10.8133 1.83266 10.8329 1.83345 10.8527H2.8875C3.15757 10.8366 3.4113 10.718 3.59684 10.5211C3.78237 10.3242 3.8857 10.0638 3.8857 9.79329C3.8857 9.52274 3.78237 9.26242 3.59684 9.06551C3.4113 8.8686 3.15757 8.74999 2.8875 8.73392H1.83376Z" fill="black"/>
</svg>
