<svg width="64" height="64" viewBox="0 0 64 64" fill="none" xmlns="http://www.w3.org/2000/svg">
<path fill-rule="evenodd" clip-rule="evenodd" d="M23 8H41C42.3261 8 43.5979 8.5268 44.5355 9.46448C45.4732 10.4022 46 11.6739 46 13V51C46 52.3261 45.4732 53.5979 44.5355 54.5356C43.5979 55.4732 42.3261 56 41 56H23C21.6739 56 20.4021 55.4732 19.4645 54.5356C18.5268 53.5979 18 52.3261 18 51V13C18 11.6739 18.5268 10.4022 19.4645 9.46448C20.4021 8.5268 21.6739 8 23 8ZM41 10H23C22.2044 10 21.4413 10.3161 20.8787 10.8787C20.3161 11.4413 20 12.2044 20 13V46H44V13C44 12.2044 43.6839 11.4413 43.1213 10.8787C42.5587 10.3161 41.7956 10 41 10ZM20.8787 53.1213C21.4413 53.6839 22.2044 54 23 54H41C41.7956 54 42.5587 53.6839 43.1213 53.1213C43.6839 52.5587 44 51.7957 44 51V48H20V51C20 51.7957 20.3161 52.5587 20.8787 53.1213ZM33.5 51C33.5 51.8284 32.8284 52.5 32 52.5C31.1716 52.5 30.5 51.8284 30.5 51C30.5 50.1716 31.1716 49.5 32 49.5C32.8284 49.5 33.5 50.1716 33.5 51Z" fill="black"/>
</svg>
