<svg width="24" height="24" viewBox="0 0 24 24" fill="none" xmlns="http://www.w3.org/2000/svg">
<path fill-rule="evenodd" clip-rule="evenodd" d="M7.32378 20.955C7.37795 20.9842 7.43848 20.9997 7.50003 21C7.55947 21.0037 7.61885 20.992 7.67253 20.9662C9.88832 19.8059 11.7432 18.0598 13.0353 15.9181C14.3273 13.7764 15.0069 11.3212 15 8.82V4.125C15 3.82663 14.8815 3.54049 14.6705 3.32951C14.4595 3.11853 14.1734 3 13.875 3H1.12503C0.82666 3 0.540511 3.11853 0.329533 3.32951C0.118555 3.54049 2.89749e-05 3.82663 2.89749e-05 4.125V8.82C-0.00511554 11.3189 0.674891 13.7715 1.96612 15.9109C3.25735 18.0504 5.11039 19.795 7.32378 20.955ZM0.859864 3.85984C0.93019 3.78951 1.02557 3.75 1.12503 3.75H13.875C13.9745 3.75 14.0699 3.78951 14.1402 3.85984C14.2105 3.93017 14.25 4.02554 14.25 4.125V8.82C14.2544 11.1487 13.6295 13.4353 12.4413 15.438C11.2532 17.4407 9.54588 19.0852 7.50003 20.1975C5.45364 19.0858 3.74593 17.4415 2.55766 15.4386C1.3694 13.4357 0.744815 11.1488 0.750029 8.82V4.125C0.750029 4.02554 0.789537 3.93017 0.859864 3.85984ZM5.22759 13.275C5.43741 13.4792 5.71857 13.5935 6.01134 13.5937C6.30099 13.5926 6.57904 13.4797 6.78759 13.2787L11.8801 8.53122C11.945 8.46185 11.9812 8.37043 11.9813 8.27543C11.9814 8.18042 11.9454 8.08892 11.8807 8.0194C11.8159 7.94988 11.7272 7.90753 11.6324 7.90091C11.5376 7.89428 11.4439 7.92389 11.3701 7.98373L6.27009 12.7425C6.20054 12.8079 6.10868 12.8443 6.01322 12.8443C5.91776 12.8443 5.82589 12.8079 5.75634 12.7425L4.39134 11.3625C4.32004 11.3005 4.22798 11.2677 4.13356 11.2707C4.03914 11.2736 3.94931 11.3121 3.88204 11.3784C3.81476 11.4448 3.775 11.534 3.7707 11.6284C3.7664 11.7228 3.79788 11.8153 3.85884 11.8875L5.22759 13.275Z" fill="black"/>
</svg>
