<svg width="64" height="64" viewBox="0 0 64 64" fill="none" xmlns="http://www.w3.org/2000/svg">
<g clip-path="url(#clip0_1181_1264)">
<path fill-rule="evenodd" clip-rule="evenodd" d="M11.1108 11.2133C15.222 8.46622 20.0555 7 25 7C31.6304 7 37.9893 9.63392 42.6777 14.3223C47.3661 19.0107 50 25.3696 50 32C50 36.9445 48.5338 41.778 45.7868 45.8893C43.0397 50.0005 39.1353 53.2048 34.5671 55.097C29.9989 56.9892 24.9723 57.4843 20.1228 56.5196C15.2732 55.555 10.8187 53.174 7.32234 49.6777C3.82603 46.1814 1.44501 41.7268 0.480379 36.8773C-0.484251 32.0277 0.0108321 27.0011 1.90302 22.4329C3.79521 17.8648 6.99953 13.9603 11.1108 11.2133ZM12.2663 51.0573C16.0355 53.5758 20.4669 54.92 25 54.92C31.0771 54.9147 36.9039 52.4982 41.201 48.201C45.4982 43.9039 47.9147 38.0771 47.92 32C47.92 27.4669 46.5758 23.0355 44.0573 19.2663C41.5388 15.4972 37.9592 12.5594 33.7711 10.8247C29.583 9.08992 24.9746 8.63603 20.5285 9.5204C16.0825 10.4048 11.9985 12.5877 8.79312 15.7931C5.5877 18.9985 3.40479 23.0825 2.52041 27.5285C1.63604 31.9746 2.08993 36.583 3.82469 40.7711C5.55945 44.9592 8.49717 48.5388 12.2663 51.0573ZM23.37 38.9997L36.66 20.9997C36.8271 20.7703 37.0785 20.6166 37.3588 20.5726C37.6392 20.5285 37.9256 20.5976 38.155 20.7647C38.3844 20.9318 38.5381 21.1831 38.5821 21.4635C38.6262 21.7439 38.5571 22.0303 38.39 22.2597L25.1 40.2597C24.8475 40.6008 24.5286 40.8873 24.1626 41.1021C23.7966 41.3169 23.3909 41.4556 22.97 41.5097H22.58C21.8552 41.5183 21.1493 41.2783 20.58 40.8297L11.85 33.8297C11.7376 33.7476 11.6435 33.643 11.5738 33.5226C11.5041 33.4021 11.4603 33.2684 11.4453 33.13C11.4302 32.9917 11.4442 32.8517 11.4863 32.719C11.5285 32.5864 11.5979 32.464 11.69 32.3597C11.7721 32.2488 11.8761 32.1561 11.9958 32.0873C12.1154 32.0186 12.2479 31.9754 12.385 31.9603C12.5221 31.9453 12.6609 31.9588 12.7925 32C12.9242 32.0412 13.0459 32.1092 13.15 32.1997L21.88 39.1997C22.1021 39.3705 22.3814 39.4493 22.66 39.4197C22.8003 39.4001 22.9352 39.353 23.0571 39.2809C23.179 39.2088 23.2853 39.1132 23.37 38.9997Z" fill="black"/>
</g>
<defs>
<clipPath id="clip0_1181_1264">
<rect width="64" height="64" fill="white"/>
</clipPath>
</defs>
</svg>
