<svg width="64" height="64" viewBox="0 0 64 64" fill="none" xmlns="http://www.w3.org/2000/svg">
<path fill-rule="evenodd" clip-rule="evenodd" d="M38 29.5V28.5C38 23.7261 36.1036 19.1477 32.7279 15.7721C29.3523 12.3964 24.7739 10.5 20 10.5C15.2261 10.5 10.6477 12.3964 7.27208 15.7721C3.89642 19.1477 2 23.7261 2 28.5V29.5C2.8604 28.8547 3.91191 28.5 5 28.5H9C9.26522 28.5 9.51957 28.6054 9.70711 28.7929C9.89464 28.9804 10 29.2348 10 29.5V43.5C10 43.7652 9.89464 44.0196 9.70711 44.2071C9.51957 44.3947 9.26522 44.5 9 44.5H5C3.67392 44.5 2.40215 43.9732 1.46447 43.0355C0.526788 42.0978 0 40.8261 0 39.5V33.5V28.5C0 23.1957 2.10714 18.1086 5.85786 14.3579C9.60859 10.6072 14.6957 8.5 20 8.5C25.3043 8.5 30.3914 10.6072 34.1421 14.3579C37.8929 18.1086 40 23.1957 40 28.5V33.5C40 33.5013 40 33.5026 40 33.5039V39.5V45.5C40 49.69 36.78 52.5 32 52.5H28.873C28.6958 53.186 28.338 53.8189 27.8284 54.3284C27.0783 55.0786 26.0609 55.5 25 55.5C24.2089 55.5 23.4355 55.2654 22.7777 54.8259C22.1199 54.3864 21.6072 53.7616 21.3045 53.0307C21.0017 52.2998 20.9225 51.4956 21.0769 50.7196C21.2312 49.9437 21.6122 49.231 22.1716 48.6716C22.731 48.1122 23.4437 47.7312 24.2196 47.5769C24.9956 47.4225 25.7998 47.5017 26.5307 47.8045C27.2616 48.1072 27.8863 48.6199 28.3259 49.2777C28.577 49.6535 28.7612 50.067 28.873 50.5H32C34.77 50.5 38 49.19 38 45.5V43.5C37.1396 44.1453 36.0881 44.5 35 44.5H31C30.7348 44.5 30.4804 44.3947 30.2929 44.2071C30.1054 44.0196 30 43.7652 30 43.5V29.5C30 29.2348 30.1054 28.9804 30.2929 28.7929C30.4804 28.6054 30.7348 28.5 31 28.5H35C36.0881 28.5 37.1396 28.8547 38 29.5ZM2 33.5V39.5C2 40.2956 2.31607 41.0587 2.87868 41.6213C3.44129 42.1839 4.20435 42.5 5 42.5H8V30.5H5C4.20435 30.5 3.44129 30.8161 2.87868 31.3787C2.31607 31.9413 2 32.7044 2 33.5ZM38 33.5V39.5C38 40.2956 37.6839 41.0587 37.1213 41.6213C36.5587 42.1839 35.7957 42.5 35 42.5H32V30.5H35C35.7957 30.5 36.5587 30.8161 37.1213 31.3787C37.6839 31.9413 38 32.7044 38 33.5ZM26.4142 50.0858C26.7887 50.4603 26.9994 50.9681 27 51.4977L27 51.5C27 51.8956 26.8827 52.2822 26.6629 52.6111C26.4432 52.94 26.1308 53.1964 25.7654 53.3477C25.3999 53.4991 24.9978 53.5387 24.6098 53.4616C24.2219 53.3844 23.8655 53.1939 23.5858 52.9142C23.3061 52.6345 23.1156 52.2782 23.0384 51.8902C22.9613 51.5022 23.0009 51.1001 23.1522 50.7346C23.3036 50.3692 23.56 50.0568 23.8889 49.8371C24.2178 49.6173 24.6044 49.5 25 49.5C25.5304 49.5 26.0391 49.7107 26.4142 50.0858Z" fill="black"/>
</svg>
