<svg width="24" height="24" viewBox="0 0 24 24" fill="none" xmlns="http://www.w3.org/2000/svg">
<path fill-rule="evenodd" clip-rule="evenodd" d="M9.88125 3.40875L13.2338 7.48874C13.4017 7.68713 13.4958 7.93758 13.5 8.19749V19.875C13.5 20.1734 13.3815 20.4595 13.1705 20.6705C12.9595 20.8815 12.6734 21 12.375 21H1.125C0.826631 21 0.540488 20.8815 0.32951 20.6705C0.118531 20.4595 0 20.1734 0 19.875V4.125C0 3.82663 0.118531 3.54048 0.32951 3.3295C0.540488 3.11852 0.826631 3 1.125 3H9.015C9.18058 3.00019 9.34406 3.03692 9.4938 3.10757C9.64354 3.17823 9.77584 3.28107 9.88125 3.40875ZM12.6327 20.1289C12.703 20.0586 12.7425 19.9632 12.7425 19.8637V8.19374C12.7418 8.10741 12.7113 8.02396 12.6562 7.95749L9.30375 3.87374C9.26809 3.83092 9.22333 3.79658 9.17274 3.77323C9.12214 3.74988 9.06697 3.73809 9.01125 3.73874H7.4925V6.36374C7.4925 6.4632 7.45299 6.55858 7.38266 6.62891C7.31234 6.69924 7.21696 6.73874 7.1175 6.73874C7.01805 6.73874 6.92266 6.69924 6.85233 6.62891C6.78201 6.55858 6.7425 6.4632 6.7425 6.36374V3.73874H5.2425V6.36374C5.2425 6.4632 5.20299 6.55858 5.13266 6.62891C5.06234 6.69924 4.96696 6.73874 4.8675 6.73874C4.76805 6.73874 4.67266 6.69924 4.60233 6.62891C4.53201 6.55858 4.4925 6.4632 4.4925 6.36374V3.73874H2.9925V6.36374C2.9925 6.4632 2.95299 6.55858 2.88266 6.62891C2.81234 6.69924 2.71696 6.73874 2.6175 6.73874C2.51805 6.73874 2.42266 6.69924 2.35233 6.62891C2.28201 6.55858 2.2425 6.4632 2.2425 6.36374V3.73874H1.1175C1.01805 3.73874 0.922659 3.77825 0.852333 3.84858C0.782007 3.91891 0.742504 4.01428 0.742504 4.11374V19.8637C0.742504 19.9632 0.782007 20.0586 0.852333 20.1289C0.922659 20.1992 1.01805 20.2387 1.1175 20.2387H12.3675C12.467 20.2387 12.5623 20.1992 12.6327 20.1289ZM4.125 11.25H9.375C9.87228 11.25 10.3492 11.4475 10.7008 11.7992C11.0525 12.1508 11.25 12.6277 11.25 13.125V16.875C11.25 17.3723 11.0525 17.8492 10.7008 18.2008C10.3492 18.5525 9.87228 18.75 9.375 18.75H4.125C3.62772 18.75 3.15081 18.5525 2.79918 18.2008C2.44755 17.8492 2.25 17.3723 2.25 16.875V13.125C2.25 12.6277 2.44755 12.1508 2.79918 11.7992C3.15081 11.4475 3.62772 11.25 4.125 11.25ZM4.5 14.25H3V15.75H4.5V14.25ZM8.25 12H5.25V18H8.25V12ZM10.5 14.25H9V15.75H10.5V14.25ZM10.5 13.5V13.125C10.5 12.8266 10.3815 12.5405 10.1705 12.3295C9.95952 12.1185 9.67337 12 9.375 12H9V13.5H10.5ZM4.5 12H4.125C3.82663 12 3.54049 12.1185 3.32951 12.3295C3.11853 12.5405 3 12.8266 3 13.125V13.5H4.5V12ZM3 16.5V16.875C3 17.1734 3.11853 17.4595 3.32951 17.6705C3.54049 17.8815 3.82663 18 4.125 18H4.5V16.5H3ZM9 18H9.375C9.67337 18 9.95952 17.8815 10.1705 17.6705C10.3815 17.4595 10.5 17.1734 10.5 16.875V16.5H9V18Z" fill="black"/>
</svg>
