<svg width="24" height="24" viewBox="0 0 24 24" fill="none" xmlns="http://www.w3.org/2000/svg">
<path fill-rule="evenodd" clip-rule="evenodd" d="M15.9825 14.7286C16.5885 14.4866 17.0849 14.0309 17.3778 13.4477C17.6708 12.8646 17.74 12.1944 17.5725 11.5636C17.9783 11.3298 18.3153 10.9931 18.5496 10.5876C18.7839 10.1821 18.9073 9.72199 18.9073 9.25364C18.9073 8.78529 18.7839 8.3252 18.5496 7.91968C18.3153 7.51416 17.9783 7.17752 17.5725 6.94364C17.6926 6.49157 17.6919 6.01587 17.5704 5.56416C17.4489 5.11245 17.2108 4.70059 16.88 4.36983C16.5493 4.03907 16.1374 3.801 15.6857 3.67948C15.234 3.55795 14.7583 3.55724 14.3062 3.67739C13.9829 3.12583 13.4722 2.70879 12.8672 2.50229C12.2621 2.29579 11.603 2.31357 11.01 2.55239C10.4571 2.77006 9.99253 3.16595 9.68998 3.67739C9.07336 3.51086 8.41749 3.57056 7.84107 3.8457C7.26465 4.12084 6.80577 4.59324 6.54748 5.17739C6.31133 5.72939 6.26646 6.34447 6.41998 6.92489C5.86928 7.24806 5.45285 7.75812 5.2464 8.36234C5.03994 8.96656 5.05718 9.62481 5.29498 10.2174C5.51193 10.7717 5.9079 11.2376 6.41998 11.5411C6.29982 11.9932 6.30055 12.4689 6.42207 12.9206C6.5436 13.3723 6.78165 13.7842 7.11241 14.115C7.44318 14.4457 7.85503 14.6838 8.30674 14.8053C8.75845 14.9268 9.23416 14.9275 9.68624 14.8074C9.9689 15.3097 10.409 15.7051 10.9387 15.9324C11.2596 16.0733 11.6053 16.1485 11.9557 16.1537C12.3061 16.1588 12.6539 16.0938 12.9787 15.9624C13.5353 15.7396 14.0013 15.337 14.3025 14.8186C14.8574 14.9718 15.4471 14.9402 15.9825 14.7286ZM13.9425 13.9486C13.8923 13.9702 13.8469 14.0016 13.8089 14.0408C13.7709 14.0801 13.7411 14.1265 13.7212 14.1774C13.5833 14.5216 13.3455 14.8167 13.0384 15.0245C12.7312 15.2323 12.3689 15.3434 11.9981 15.3434C11.6273 15.3434 11.265 15.2323 10.9578 15.0245C10.6507 14.8167 10.4129 14.5216 10.275 14.1774C10.2551 14.1265 10.2253 14.0801 10.1873 14.0408C10.1493 14.0016 10.1039 13.9702 10.0537 13.9486C10.0033 13.9297 9.95007 13.9195 9.89623 13.9186C9.84077 13.919 9.78594 13.9305 9.73498 13.9524C9.39397 14.0986 9.01698 14.1392 8.65264 14.0691C8.2883 13.999 7.95334 13.8212 7.69098 13.5589C7.42862 13.2965 7.25091 12.9616 7.18077 12.5972C7.11063 12.2329 7.15128 11.8559 7.29748 11.5149C7.31883 11.4645 7.32983 11.4103 7.32983 11.3555C7.32983 11.3008 7.31883 11.2466 7.29748 11.1961C7.2759 11.1459 7.24457 11.1005 7.20531 11.0626C7.16604 11.0246 7.11961 10.9948 7.06873 10.9749C6.83458 10.8806 6.62188 10.74 6.44339 10.5615C6.2649 10.383 6.12429 10.1703 6.02999 9.93614C5.85416 9.4787 5.86442 8.97061 6.05856 8.52064C6.25271 8.07067 6.61531 7.71458 7.06873 7.52864C7.11961 7.50875 7.16604 7.47895 7.20531 7.44097C7.24457 7.40299 7.2759 7.35758 7.29748 7.30739C7.31883 7.25697 7.32983 7.20278 7.32983 7.14802C7.32983 7.09326 7.31883 7.03906 7.29748 6.98864C7.15064 6.64724 7.10967 6.26963 7.17985 5.90468C7.25004 5.53973 7.42815 5.20424 7.69114 4.94166C7.95413 4.67907 8.28989 4.50147 8.65495 4.43185C9.02001 4.36222 9.39755 4.40378 9.73873 4.55114C9.78852 4.57239 9.8421 4.58334 9.89623 4.58334C9.95037 4.58334 10.0039 4.57239 10.0537 4.55114C10.1038 4.53035 10.1492 4.49972 10.1872 4.46107C10.2252 4.42242 10.255 4.37655 10.275 4.32615C10.4123 3.98074 10.6501 3.6845 10.9576 3.47578C11.2652 3.26707 11.6283 3.15549 12 3.15549C12.3717 3.15549 12.7348 3.26707 13.0423 3.47578C13.3499 3.6845 13.5877 3.98074 13.725 4.32615C13.7667 4.42706 13.846 4.50775 13.9462 4.55114C13.996 4.57239 14.0496 4.58334 14.1037 4.58334C14.1579 4.58334 14.2114 4.57239 14.2612 4.55114C14.4936 4.45212 14.7436 4.40107 14.9962 4.40107C15.2488 4.40107 15.4988 4.45212 15.7312 4.55114C16.1798 4.74964 16.5327 5.11603 16.7143 5.5717C16.8958 6.02737 16.8916 6.53605 16.7025 6.98864C16.6805 7.03849 16.6688 7.09226 16.668 7.14674C16.6673 7.20122 16.6776 7.25529 16.6982 7.30571C16.7189 7.35613 16.7495 7.40185 16.7883 7.44015C16.827 7.47846 16.8731 7.50856 16.9237 7.52864C17.2702 7.66428 17.5675 7.90171 17.7763 8.20964C17.9852 8.51758 18.0958 8.88157 18.0937 9.25364C18.0946 9.62496 17.9833 9.98789 17.7746 10.295C17.5659 10.6021 17.2693 10.839 16.9237 10.9749C16.8729 10.9948 16.8264 11.0246 16.7872 11.0626C16.7479 11.1005 16.7166 11.1459 16.695 11.1961C16.6736 11.2466 16.6626 11.3008 16.6626 11.3555C16.6626 11.4103 16.6736 11.4645 16.695 11.5149C16.7935 11.7468 16.8443 11.9961 16.8443 12.248C16.8443 12.4999 16.7935 12.7493 16.695 12.9811C16.4965 13.4297 16.1301 13.7826 15.6744 13.9642C15.2188 14.1457 14.7101 14.1415 14.2575 13.9524C14.1568 13.9111 14.0441 13.9097 13.9425 13.9486ZM18.8213 14.0312L21.3638 18.4337L21.3525 18.4449C21.4219 18.5419 21.4594 18.6581 21.4597 18.7773C21.46 18.8965 21.4232 19.0129 21.3543 19.1103C21.2854 19.2076 21.1879 19.2811 21.0754 19.3204C20.9628 19.3598 20.8408 19.3631 20.7263 19.3299L18.3375 18.9249L17.5088 21.2087C17.4774 21.3224 17.4129 21.4242 17.3234 21.501C17.2338 21.5779 17.1234 21.6262 17.0063 21.6399H16.9838C16.8741 21.6376 16.7672 21.6052 16.6746 21.5464C16.5821 21.4876 16.5074 21.4045 16.4588 21.3062L14.0213 17.1812C13.9936 17.1355 13.9754 17.0848 13.9676 17.032C13.9599 16.9792 13.9627 16.9254 13.976 16.8737C13.9892 16.8221 14.0127 16.7736 14.0449 16.731C14.0772 16.6885 14.1176 16.6529 14.1638 16.6262C14.2565 16.5724 14.3666 16.5572 14.4704 16.5839C14.5742 16.6105 14.6634 16.6769 14.7188 16.7687L16.9275 20.4999L17.7188 18.3249C17.7509 18.2362 17.8132 18.1617 17.8948 18.1143C17.9764 18.067 18.0721 18.05 18.165 18.0662L20.445 18.4412L18.1313 14.4362C18.0941 14.3909 18.0672 14.3382 18.0524 14.2816C18.0376 14.2249 18.0353 14.1658 18.0455 14.1081C18.0558 14.0505 18.0784 13.9958 18.1119 13.9478C18.1453 13.8997 18.1888 13.8595 18.2393 13.8299C18.2897 13.8003 18.346 13.7819 18.4043 13.7761C18.4625 13.7704 18.5213 13.7773 18.5766 13.7964C18.632 13.8155 18.6825 13.8464 18.7247 13.887C18.7669 13.9275 18.7999 13.9767 18.8213 14.0312ZM9.5446 16.5801C9.6484 16.5534 9.75853 16.5686 9.85125 16.6224C9.941 16.6757 10.0069 16.7614 10.0355 16.8618C10.0641 16.9622 10.0532 17.0697 10.005 17.1624L7.56749 21.2874C7.51789 21.3857 7.44249 21.4687 7.34936 21.5275C7.25622 21.5863 7.14886 21.6186 7.03875 21.6211H6.99C6.87283 21.6074 6.76241 21.5591 6.67289 21.4822C6.58336 21.4054 6.51881 21.3036 6.4875 21.1899L5.65874 18.9061L3.2625 19.3111C3.14882 19.3391 3.02946 19.3335 2.91894 19.2948C2.80841 19.2562 2.7115 19.1863 2.64 19.0936C2.57497 18.9937 2.54034 18.8771 2.54034 18.758C2.54034 18.6388 2.57497 18.5222 2.64 18.4224L5.17875 14.0236C5.20534 13.9773 5.24079 13.9367 5.28307 13.9041C5.32535 13.8715 5.37365 13.8476 5.42518 13.8337C5.47672 13.8197 5.5305 13.8161 5.58344 13.8229C5.63639 13.8298 5.68746 13.847 5.73375 13.8736C5.78004 13.9002 5.82064 13.9356 5.85323 13.9779C5.88582 14.0202 5.90977 14.0685 5.9237 14.12C5.93763 14.1716 5.94126 14.2254 5.93441 14.2783C5.92756 14.3312 5.91034 14.3823 5.88375 14.4286L3.57 18.4336L5.85 18.0586C5.94286 18.0432 6.0382 18.0605 6.11964 18.1078C6.20108 18.155 6.26353 18.2291 6.29625 18.3174L7.09125 20.4924L9.29625 16.7649C9.35161 16.6731 9.44079 16.6067 9.5446 16.5801ZM15.2494 6.8147C15.3567 6.8147 15.4598 6.85693 15.5362 6.93227C15.5746 6.96996 15.605 7.01491 15.6258 7.06449C15.6465 7.11406 15.6573 7.16727 15.6573 7.22102C15.6573 7.27477 15.6465 7.32799 15.6258 7.37756C15.605 7.42714 15.5746 7.47209 15.5362 7.50978L11.7037 11.3423C11.6095 11.4374 11.4974 11.5129 11.3738 11.5644C11.2502 11.6159 11.1176 11.6424 10.9837 11.6423C10.8505 11.6419 10.7186 11.6152 10.5957 11.5637C10.4728 11.5122 10.3613 11.437 10.2675 11.3423L8.86873 9.94728C8.79315 9.87017 8.75082 9.76649 8.75082 9.65852C8.75082 9.55055 8.79315 9.44688 8.86873 9.36977C8.94521 9.29443 9.04826 9.2522 9.15561 9.2522C9.26297 9.2522 9.36601 9.29443 9.44248 9.36977L10.8412 10.7685C10.8601 10.7877 10.8825 10.8029 10.9073 10.8133C10.9321 10.8237 10.9587 10.829 10.9856 10.829C11.0125 10.829 11.0391 10.8237 11.0639 10.8133C11.0887 10.8029 11.1111 10.7877 11.13 10.7685L14.9625 6.93227C15.039 6.85693 15.142 6.8147 15.2494 6.8147Z" fill="black"/>
</svg>
