<svg width="64" height="64" viewBox="0 0 64 64" fill="none" xmlns="http://www.w3.org/2000/svg">
<g clip-path="url(#clip0_482_1844)">
<path fill-rule="evenodd" clip-rule="evenodd" d="M24.03 42H51.99C52.7857 42 53.5487 41.6839 54.1113 41.1213C54.6739 40.5587 54.99 39.7957 54.99 39C54.99 38.2044 54.6739 37.4413 54.1113 36.8787C53.5487 36.3161 52.7857 36 51.99 36H23.11C22.6909 35.9921 22.2849 35.8526 21.9494 35.6014C21.6138 35.3502 21.3657 34.9999 21.24 34.6L18.12 24.6C18.0608 24.4055 18.0305 24.2033 18.03 24C18.0296 23.4719 18.2381 22.965 18.61 22.59C18.7961 22.4029 19.0173 22.2544 19.261 22.1531C19.5048 22.0518 19.7661 21.9998 20.03 22H54.24C54.9755 22.0056 55.6875 21.7408 56.2406 21.256C56.7936 20.7711 57.1493 20.0999 57.24 19.37L57.91 14H63C63.2652 14 63.5196 13.8947 63.7071 13.7071C63.8947 13.5196 64 13.2652 64 13C64 12.7348 63.8947 12.4804 63.7071 12.2929C63.5196 12.1054 63.2652 12 63 12H57.89C57.3987 11.9965 56.9232 12.1739 56.5543 12.4985C56.1854 12.8231 55.949 13.2722 55.89 13.76L55.22 19.12C55.1905 19.3639 55.0723 19.5884 54.8879 19.7508C54.7034 19.9131 54.4657 20.0018 54.22 20H19.98C19.3536 20.0014 18.7363 20.1499 18.1778 20.4335C17.6192 20.7172 17.1351 21.128 16.7645 21.6329C16.3938 22.1379 16.1469 22.7229 16.0436 23.3407C15.9404 23.9585 15.9837 24.592 16.17 25.19L19.29 35.19C19.5438 36.0046 20.0514 36.7166 20.7387 37.2222C21.426 37.7277 22.2568 38.0003 23.11 38H52.03C52.2952 38 52.5496 38.1054 52.7371 38.2929C52.9247 38.4804 53.03 38.7348 53.03 39C53.03 39.2652 52.9247 39.5196 52.7371 39.7071C52.5496 39.8946 52.2952 40 52.03 40H24.03C23.7648 40 23.5104 40.1054 23.3229 40.2929C23.1354 40.4804 23.03 40.7348 23.03 41C23.03 41.2652 23.1354 41.5196 23.3229 41.7071C23.5104 41.8946 23.7648 42 24.03 42ZM54 33.96H54.11C54.3574 33.9643 54.5976 33.8767 54.7841 33.7141C54.9707 33.5516 55.0904 33.3257 55.12 33.08L56 25.08C56.0292 24.8148 55.9518 24.5489 55.7849 24.3407C55.618 24.1325 55.3752 23.9992 55.11 23.97C54.8448 23.9409 54.5789 24.0182 54.3707 24.1851C54.1625 24.352 54.0292 24.5948 54 24.86L53.12 32.86C53.0919 33.1224 53.1686 33.3852 53.3334 33.5913C53.4983 33.7973 53.7379 33.9299 54 33.96ZM28.03 52C27.2389 52 26.4655 51.7654 25.8077 51.3259C25.15 50.8864 24.6373 50.2617 24.3345 49.5307C24.0318 48.7998 23.9525 47.9956 24.1069 47.2197C24.2612 46.4437 24.6422 45.731 25.2016 45.1716C25.761 44.6122 26.4738 44.2312 27.2497 44.0769C28.0256 43.9225 28.8299 44.0017 29.5608 44.3045C30.2917 44.6072 30.9164 45.1199 31.3559 45.7777C31.7954 46.4355 32.03 47.2089 32.03 48C32.03 49.0609 31.6086 50.0783 30.8585 50.8284C30.1083 51.5786 29.0909 52 28.03 52ZM28.03 46C27.6345 46 27.2478 46.1173 26.9189 46.3371C26.59 46.5568 26.3337 46.8692 26.1823 47.2346C26.0309 47.6001 25.9913 48.0022 26.0685 48.3902C26.1456 48.7781 26.3361 49.1345 26.6158 49.4142C26.8955 49.6939 27.2519 49.8844 27.6398 49.9616C28.0278 50.0388 28.4299 49.9991 28.7954 49.8478C29.1608 49.6964 29.4732 49.4401 29.693 49.1112C29.9127 48.7823 30.03 48.3956 30.03 48C30.03 47.4696 29.8193 46.9609 29.4442 46.5858C29.0692 46.2107 28.5605 46 28.03 46ZM47.2016 50.8285C47.9518 51.5786 48.9692 52 50.03 52C51.0909 52 52.1083 51.5786 52.8585 50.8285C53.6086 50.0783 54.03 49.0609 54.03 48C54.03 46.9392 53.6086 45.9217 52.8585 45.1716C52.1083 44.4215 51.0909 44 50.03 44C48.9692 44 47.9518 44.4215 47.2016 45.1716C46.4515 45.9217 46.03 46.9392 46.03 48C46.03 49.0609 46.4515 50.0783 47.2016 50.8285ZM48.6158 46.5858C48.9909 46.2107 49.4996 46 50.03 46C50.5605 46 51.0692 46.2107 51.4442 46.5858C51.8193 46.9609 52.03 47.4696 52.03 48C52.03 48.5305 51.8193 49.0392 51.4442 49.4142C51.0692 49.7893 50.5605 50 50.03 50C49.4996 50 48.9909 49.7893 48.6158 49.4142C48.2407 49.0392 48.03 48.5305 48.03 48C48.03 47.4696 48.2407 46.9609 48.6158 46.5858Z" fill="black"/>
</g>
<defs>
<clipPath id="clip0_482_1844">
<rect width="64" height="64" fill="white"/>
</clipPath>
</defs>
</svg>
