<svg width="64" height="64" viewBox="0 0 64 64" fill="none" xmlns="http://www.w3.org/2000/svg">
<path fill-rule="evenodd" clip-rule="evenodd" d="M35 13.9902H61C61.7956 13.9902 62.5587 14.3063 63.1213 14.8689C63.6839 15.4315 64 16.1946 64 16.9902V42.9902C64 43.2555 63.8946 43.5098 63.7071 43.6974C63.5196 43.8849 63.2652 43.9902 63 43.9902H60C60.0048 45.4933 59.4454 46.9435 58.4322 48.0539C57.419 49.1642 56.026 49.8538 54.5288 49.9863C53.0315 50.1187 51.5391 49.6844 50.3467 48.7692C49.1544 47.8539 48.3489 46.5245 48.0898 45.0439C47.8307 43.5633 48.1368 42.0393 48.9475 40.7736C49.7582 39.5078 51.0144 38.5925 52.4677 38.2086C53.9209 37.8247 55.4653 38.0003 56.7954 38.7006C58.1254 39.4008 59.1441 40.5748 59.65 41.9902H62V16.9902C62 16.725 61.8946 16.4707 61.7071 16.2831C61.5196 16.0956 61.2652 15.9902 61 15.9902H35C34.7348 15.9902 34.4804 16.0956 34.2929 16.2831C34.1054 16.4707 34 16.725 34 16.9902V34.9902C34 35.2555 33.8946 35.5098 33.7071 35.6974C33.5196 35.8849 33.2652 35.9902 33 35.9902C32.7348 35.9902 32.4804 35.8849 32.2929 35.6974C32.1054 35.5098 32 35.2555 32 34.9902V23.9902H28V29.9902C28 30.7859 27.6839 31.549 27.1213 32.1116C26.5587 32.6742 25.7956 32.9902 25 32.9902H18V39.9902H24C24.2652 39.9902 24.5196 40.0956 24.7071 40.2831C24.8946 40.4707 25 40.725 25 40.9902C25 41.2555 24.8946 41.5098 24.7071 41.6974C24.5196 41.8849 24.2652 41.9902 24 41.9902H18V42.9902C18 43.2555 18.1054 43.5098 18.2929 43.6974C18.4804 43.8849 18.7348 43.9902 19 43.9902H23C23.2652 43.9902 23.5196 44.0956 23.7071 44.2831C23.8946 44.4707 24 44.725 24 44.9902C24 45.2555 23.8946 45.5098 23.7071 45.6974C23.5196 45.8849 23.2652 45.9902 23 45.9902H19C18.2044 45.9902 17.4413 45.6742 16.8787 45.1116C16.3161 44.549 16 43.7859 16 42.9902V30.9902C16 28.6033 16.9482 26.3141 18.636 24.6263C20.3239 22.9385 22.6131 21.9902 25 21.9902H32V16.9902C32 16.1946 32.3161 15.4315 32.8787 14.8689C33.4413 14.3063 34.2044 13.9902 35 13.9902ZM25.7071 30.6974C25.8946 30.5098 26 30.2555 26 29.9902V23.9902H25C23.1435 23.9902 21.363 24.7277 20.0502 26.0405C18.7375 27.3533 18 29.1337 18 30.9902H25C25.2652 30.9902 25.5196 30.8849 25.7071 30.6974ZM51.7777 47.3161C52.4355 47.7557 53.2089 47.9902 54 47.9902C55.0609 47.9902 56.0783 47.5688 56.8284 46.8187C57.5786 46.0685 58 45.0511 58 43.9902C58 43.1991 57.7654 42.4258 57.3259 41.768C56.8864 41.1102 56.2616 40.5975 55.5307 40.2947C54.7998 39.992 53.9956 39.9128 53.2196 40.0671C52.4437 40.2214 51.731 40.6024 51.1716 41.1618C50.6122 41.7212 50.2312 42.434 50.0769 43.2099C49.9225 43.9858 50.0017 44.7901 50.3045 45.521C50.6072 46.2519 51.1199 46.8766 51.7777 47.3161ZM37.65 41.9904H45C45.2652 41.9904 45.5196 42.0958 45.7071 42.2833C45.8946 42.4708 46 42.7252 46 42.9904C46 43.2556 45.8946 43.51 45.7071 43.6975C45.5196 43.8851 45.2652 43.9904 45 43.9904H38C38.0048 45.4935 37.4453 46.9437 36.4322 48.054C35.419 49.1644 34.026 49.854 32.5288 49.9864C31.0315 50.1189 29.5391 49.6846 28.3467 48.7693C27.1543 47.8541 26.3489 46.5247 26.0898 45.044C25.8307 43.5634 26.1368 42.0395 26.9475 40.7738C27.7582 39.508 29.0144 38.5926 30.4677 38.2087C31.9209 37.8249 33.4653 38.0004 34.7954 38.7007C36.1254 39.401 37.1441 40.575 37.65 41.9904ZM29.7777 47.3163C30.4355 47.7558 31.2089 47.9904 32 47.9904C33.0609 47.9904 34.0783 47.569 34.8284 46.8188C35.5786 46.0687 36 45.0513 36 43.9904C36 43.1993 35.7654 42.4259 35.3259 41.7681C34.8863 41.1103 34.2616 40.5977 33.5307 40.2949C32.7998 39.9921 31.9956 39.9129 31.2196 40.0673C30.4437 40.2216 29.731 40.6026 29.1716 41.162C28.6122 41.7214 28.2312 42.4341 28.0768 43.2101C27.9225 43.986 28.0017 44.7902 28.3045 45.5211C28.6072 46.252 29.1199 46.8768 29.7777 47.3163Z" fill="black"/>
</svg>
