<svg width="64" height="64" viewBox="0 0 64 64" fill="none" xmlns="http://www.w3.org/2000/svg">
<path d="M63.4698 14.6569C63.4221 14.3401 63.2967 14.04 63.1047 13.7835C62.9128 13.527 62.6603 13.322 62.3698 13.1869C62.0718 13.0205 61.7361 12.9331 61.3948 12.9331C61.0535 12.9331 60.7178 13.0205 60.4198 13.1869C55.8503 15.9858 50.5415 17.3383 45.1898 17.0669C33.4798 17.0669 28.2798 21.6369 27.6398 22.2469C24.7666 24.3917 22.697 27.4394 21.7631 30.9012C20.8292 34.3629 21.0851 38.038 22.4898 41.3369L17.6198 45.4869C17.52 45.5722 17.438 45.6764 17.3784 45.7935C17.3189 45.9105 17.283 46.0381 17.2728 46.1691C17.2626 46.3 17.2782 46.4317 17.3189 46.5565C17.3596 46.6814 17.4245 46.797 17.5098 46.8969C17.6037 47.0066 17.7203 47.0948 17.8514 47.1552C17.9826 47.2156 18.1254 47.2469 18.2698 47.2469C18.5069 47.2497 18.7373 47.1682 18.9198 47.0169L23.4198 43.1669C24.1019 44.3328 24.9284 45.408 25.8798 46.3669C27.36 47.86 29.122 49.0443 31.0635 49.8511C33.005 50.6579 35.0874 51.0712 37.1898 51.0669C41.214 51.003 45.1578 49.9302 48.6598 47.9469C66.0898 38.3469 64.3998 20.0669 63.4698 14.6569ZM47.6798 46.1969C44.4771 48.0132 40.8711 48.9998 37.1898 49.0669C34.6926 49.0635 32.2418 48.3923 30.0913 47.1228C27.9409 45.8533 26.1692 44.0317 24.9598 41.8469L26.6598 40.4069C31.6633 36.5526 37.3695 33.7097 43.4598 32.0369C43.7157 31.9653 43.9328 31.7949 44.0631 31.5633C44.1934 31.3317 44.2264 31.0578 44.1548 30.8018C44.0832 30.5459 43.9128 30.3289 43.6812 30.1986C43.4496 30.0682 43.1758 30.0353 42.9198 30.1069C36.5702 31.8613 30.6205 34.8294 25.3998 38.8469L24.0998 39.9669C23.0373 37.1198 22.9299 34.0043 23.7941 31.0908C24.6582 28.1774 26.4468 25.6242 28.8898 23.8169L28.9998 23.7169C28.9998 23.7169 33.7898 19.0669 45.1098 19.0669C50.8563 19.3559 56.5595 17.9362 61.4998 14.9869C62.3698 20.0669 63.9698 37.2369 47.6798 46.1969V46.1969Z" fill="black"/>
</svg>
