<svg width="64" height="64" viewBox="0 0 64 64" fill="none" xmlns="http://www.w3.org/2000/svg">
<path fill-rule="evenodd" clip-rule="evenodd" d="M31.53 55.879C31.6744 55.957 31.8358 55.9982 32 55.999C32.1585 56.0088 32.3168 55.9778 32.46 55.909C38.3687 52.8147 43.3152 48.1584 46.7606 42.4472C50.2059 36.736 52.0182 30.1889 52 23.519V10.999C52 10.2034 51.6839 9.44033 51.1213 8.87772C50.5587 8.31511 49.7956 7.99902 49 7.99902H15C14.2043 7.99902 13.4412 8.31511 12.8786 8.87772C12.316 9.44033 12 10.2034 12 10.999V23.519C11.9862 30.1828 13.7996 36.7229 17.2429 42.4282C20.6861 48.1335 25.6276 52.7857 31.53 55.879ZM14.2928 10.2919C14.4804 10.1044 14.7347 9.99902 15 9.99902H49C49.2652 9.99902 49.5195 10.1044 49.7071 10.2919C49.8946 10.4795 50 10.7338 50 10.999V23.519C50.0117 29.7288 48.3453 35.8264 45.1768 41.167C42.0083 46.5077 37.4556 50.8929 32 53.859C26.5429 50.8946 21.989 46.5097 18.8203 41.1687C15.6516 35.8277 13.9861 29.7292 14 23.519V10.999C14 10.7338 14.1053 10.4795 14.2928 10.2919ZM25.94 35.3989C26.4995 35.9434 27.2492 36.2484 28.03 36.249C28.8024 36.2459 29.5438 35.945 30.1 35.409L43.68 22.749C43.8531 22.564 43.9495 22.3202 43.9498 22.0668C43.9501 21.8135 43.8542 21.5695 43.6815 21.3841C43.5088 21.1987 43.2722 21.0858 43.0195 21.0681C42.7668 21.0504 42.5168 21.1294 42.32 21.289L28.72 33.979C28.5345 34.1533 28.2895 34.2504 28.035 34.2504C27.7804 34.2504 27.5354 34.1533 27.35 33.979L23.71 30.299C23.5198 30.1337 23.2743 30.0463 23.0226 30.0542C22.7708 30.0621 22.5312 30.1647 22.3518 30.3415C22.1724 30.5184 22.0664 30.7565 22.0549 31.0081C22.0435 31.2598 22.1274 31.5065 22.29 31.699L25.94 35.3989Z" fill="black"/>
</svg>
