<svg width="24" height="24" viewBox="0 0 24 24" fill="none" xmlns="http://www.w3.org/2000/svg">
<path fill-rule="evenodd" clip-rule="evenodd" d="M20.6066 13.6333C20.4434 13.6351 20.2817 13.6027 20.1318 13.5381C19.982 13.4735 19.8473 13.3782 19.7366 13.2583L19.3616 12.8345C19.3246 12.7932 19.2797 12.7595 19.2296 12.7356C19.1796 12.7117 19.1252 12.6979 19.0698 12.6952C19.0143 12.6924 18.9589 12.7006 18.9066 12.7194C18.8544 12.7381 18.8064 12.7671 18.7654 12.8045L18.7354 12.8345L18.3604 13.2583C18.1515 13.489 17.8595 13.6272 17.5487 13.6427C17.2379 13.6582 16.9337 13.5496 16.7029 13.3408C16.5752 13.2242 16.4753 13.0804 16.4104 12.9202C16.3455 12.7599 16.3173 12.5871 16.3279 12.4145L16.3541 11.8408C16.3576 11.7854 16.3497 11.7299 16.331 11.6777C16.3123 11.6255 16.2832 11.5776 16.2454 11.537C16.171 11.4548 16.0673 11.405 15.9566 11.3983H15.9154L15.3416 11.4283C15.0997 11.4414 14.8596 11.3791 14.6546 11.2499C14.4496 11.1207 14.2897 10.9311 14.1971 10.7072C14.1045 10.4833 14.0837 10.2361 14.1376 9.99985C14.1914 9.7636 14.3173 9.5499 14.4979 9.38828L14.9216 9.01328C14.963 8.97626 14.9966 8.9314 15.0205 8.88131C15.0445 8.83121 15.0582 8.77687 15.061 8.72142C15.0638 8.66597 15.0556 8.61052 15.0368 8.55827C15.018 8.50603 14.9891 8.45802 14.9516 8.41703C14.9426 8.40611 14.9326 8.39607 14.9216 8.38704L14.4979 8.01204C14.3173 7.85041 14.1914 7.63671 14.1376 7.40046C14.0837 7.16421 14.1045 6.91706 14.1971 6.69314C14.2897 6.46922 14.4496 6.27958 14.6546 6.15041C14.8596 6.02124 15.0997 5.95891 15.3416 5.97203L15.9116 6.00203C15.9673 6.00611 16.0233 5.99883 16.0761 5.98064C16.1289 5.96245 16.1775 5.93372 16.2188 5.89621C16.2602 5.85869 16.2935 5.81316 16.3168 5.76238C16.3401 5.7116 16.3528 5.65661 16.3541 5.60078V5.55578L16.3279 4.98954C16.3161 4.74816 16.3792 4.50905 16.5084 4.30485C16.6377 4.10065 16.8268 3.94132 17.0499 3.84861C17.2731 3.75589 17.5194 3.73433 17.7553 3.78684C17.9912 3.83936 18.2051 3.9634 18.3679 4.14203L18.7429 4.56578C18.7786 4.60786 18.8228 4.64195 18.8725 4.66585C18.9222 4.68975 18.9765 4.70293 19.0316 4.70453C19.1428 4.71119 19.2521 4.67342 19.3354 4.59953L19.3691 4.56578L19.7441 4.14203C19.9069 3.9634 20.1208 3.83936 20.3567 3.78684C20.5926 3.73433 20.8389 3.75589 21.0621 3.84861C21.2852 3.94132 21.4743 4.10065 21.6036 4.30485C21.7328 4.50905 21.7959 4.74816 21.7841 4.98954L21.7541 5.55953C21.749 5.67133 21.7884 5.7806 21.8635 5.8635C21.9387 5.9464 22.0436 5.9962 22.1554 6.00203H22.1966L22.7666 5.97203C23.0086 5.95891 23.2487 6.02124 23.4537 6.15041C23.6587 6.27958 23.8185 6.46922 23.9112 6.69314C24.0038 6.91706 24.0246 7.16421 23.9707 7.40046C23.9168 7.63671 23.7909 7.85041 23.6104 8.01204L23.1904 8.38704C23.1484 8.42386 23.1141 8.46869 23.0897 8.51892C23.0652 8.56914 23.051 8.62375 23.0479 8.67953C23.0439 8.79098 23.0828 8.89972 23.1566 8.98328L23.1866 9.01328L23.6104 9.38828C23.7909 9.5499 23.9168 9.7636 23.9707 9.99985C24.0246 10.2361 24.0038 10.4833 23.9112 10.7072C23.8185 10.9311 23.6587 11.1207 23.4537 11.2499C23.2487 11.3791 23.0086 11.4414 22.7666 11.4283L22.1966 11.3983C22.0851 11.3935 21.976 11.4325 21.8929 11.507C21.811 11.5833 21.7614 11.6879 21.7541 11.7995V11.8445L21.7841 12.4108C21.7922 12.5659 21.7694 12.721 21.7171 12.8672C21.6647 13.0135 21.5839 13.1478 21.4793 13.2626C21.3746 13.3774 21.2483 13.4702 21.1075 13.5358C20.9667 13.6013 20.8143 13.6383 20.6591 13.6445L20.6066 13.6333ZM19.9091 12.3208L20.2841 12.7445C20.3414 12.8144 20.4196 12.8642 20.5071 12.8865C20.5947 12.9088 20.6871 12.9026 20.7709 12.8686C20.8547 12.8347 20.9254 12.7749 20.9728 12.6979C21.0201 12.6209 21.0416 12.5308 21.0341 12.4408L21.0041 11.8708V11.7583C21.018 11.4495 21.1527 11.1586 21.3791 10.9483C21.4926 10.8444 21.6257 10.7644 21.7706 10.7129C21.9156 10.6614 22.0693 10.6394 22.2229 10.6483L22.7929 10.6745C22.8552 10.6802 22.918 10.6709 22.9761 10.6474C23.0341 10.6239 23.0857 10.5869 23.1266 10.5395C23.1641 10.4985 23.193 10.4505 23.2118 10.3983C23.2306 10.346 23.2388 10.2906 23.236 10.2352C23.2332 10.1797 23.2195 10.1254 23.1955 10.0753C23.1716 10.0252 23.138 9.98031 23.0966 9.94328L22.6766 9.56828C22.646 9.54144 22.6172 9.51262 22.5904 9.48203C22.3821 9.25078 22.2741 8.94625 22.2903 8.63542C22.3065 8.32459 22.4454 8.03292 22.6766 7.82454L23.0966 7.44954C23.1429 7.40758 23.1794 7.35589 23.2034 7.29819C23.2274 7.24049 23.2383 7.1782 23.2354 7.11578C23.2296 7.00402 23.1798 6.89911 23.0969 6.82393C23.0139 6.74876 22.9047 6.70942 22.7929 6.71453L22.2229 6.74078H22.1029C21.9484 6.73452 21.7966 6.69778 21.6563 6.63269C21.5161 6.5676 21.39 6.47544 21.2855 6.36149C21.181 6.24754 21.1 6.11405 21.0472 5.9687C20.9944 5.82336 20.9708 5.66901 20.9779 5.51453L21.0079 4.94078C21.011 4.87889 21.0002 4.81708 20.9762 4.75994C20.9521 4.70281 20.9156 4.65183 20.8691 4.61078C20.8284 4.57311 20.7806 4.54388 20.7285 4.52479C20.6763 4.5057 20.621 4.49714 20.5655 4.49958C20.5101 4.50202 20.4557 4.51542 20.4054 4.53902C20.3552 4.56261 20.3102 4.59593 20.2729 4.63703L19.8979 5.06079L19.8116 5.14703C19.6974 5.25007 19.564 5.32959 19.4191 5.38103C19.2741 5.43247 19.1205 5.45482 18.9669 5.44681C18.8133 5.4388 18.6628 5.40059 18.5239 5.33435C18.3851 5.26811 18.2607 5.17515 18.1579 5.06079L17.7829 4.63703C17.74 4.59191 17.6882 4.55625 17.6307 4.53236C17.5732 4.50846 17.5114 4.49686 17.4491 4.49829C17.337 4.50506 17.2321 4.55566 17.157 4.63916C17.082 4.72266 17.0427 4.83235 17.0479 4.94453L17.0779 5.51078C17.0816 5.55069 17.0816 5.59087 17.0779 5.63078C17.0711 5.78546 17.034 5.9373 16.9685 6.07759C16.903 6.21789 16.8105 6.34389 16.6962 6.44838C16.582 6.55288 16.4482 6.63381 16.3027 6.68656C16.1571 6.73931 16.0025 6.76283 15.8479 6.75578L15.2779 6.72953C15.2154 6.72581 15.1528 6.73637 15.095 6.76041C15.0372 6.78445 14.9856 6.82133 14.9441 6.86828C14.9067 6.90927 14.8777 6.95728 14.859 7.00952C14.8402 7.06177 14.832 7.11722 14.8347 7.17267C14.8375 7.22812 14.8513 7.28246 14.8752 7.33255C14.8991 7.38265 14.9328 7.4275 14.9741 7.46453L15.3979 7.83953L15.4841 7.92203C15.6925 8.15328 15.8004 8.45781 15.7842 8.76864C15.7681 9.07947 15.6291 9.37115 15.3979 9.57953L14.9741 9.95453C14.9015 10.0105 14.8491 10.0888 14.8251 10.1773C14.8011 10.2659 14.8068 10.3598 14.8412 10.4449C14.8756 10.5299 14.937 10.6013 15.0158 10.6482C15.0947 10.6951 15.1867 10.7149 15.2779 10.7045L15.8479 10.6783H15.9679C16.123 10.6835 16.2756 10.7197 16.4166 10.7847C16.5576 10.8497 16.6842 10.9422 16.789 11.0567C16.8938 11.1713 16.9746 11.3056 17.0268 11.4519C17.079 11.5981 17.1015 11.7533 17.0929 11.9083L17.0629 12.4783C17.0605 12.5406 17.0716 12.6028 17.0956 12.6604C17.1196 12.718 17.1557 12.7698 17.2016 12.812C17.2426 12.8495 17.2906 12.8784 17.3429 12.8972C17.3951 12.916 17.4506 12.9242 17.506 12.9214C17.5615 12.9186 17.6158 12.9049 17.6659 12.8809C17.716 12.857 17.7609 12.8234 17.7979 12.782L18.1729 12.3583L18.2591 12.272C18.4902 12.0649 18.7939 11.9576 19.1038 11.9738C19.4137 11.99 19.7046 12.1282 19.9129 12.3583L19.9091 12.3208ZM12.0336 20.138C12.1828 20.2026 12.344 20.2351 12.5066 20.2333H12.5404C12.6951 20.2265 12.8469 20.1894 12.9872 20.1239C13.1275 20.0584 13.2535 19.9658 13.358 19.8516C13.4625 19.7373 13.5434 19.6036 13.5962 19.4581C13.6489 19.3125 13.6724 19.1579 13.6654 19.0033L13.6354 18.4295V18.3883C13.6422 18.2772 13.6924 18.1732 13.7752 18.0988C13.858 18.0245 13.9667 17.9856 14.0779 17.9908L14.6479 18.017C14.8933 18.0342 15.1378 17.9736 15.3468 17.8439C15.5558 17.7141 15.7186 17.5218 15.812 17.2943C15.9054 17.0667 15.9247 16.8155 15.8672 16.5764C15.8097 16.3372 15.6783 16.1222 15.4916 15.962L15.0679 15.587L15.0379 15.557C14.9632 15.4738 14.9244 15.3644 14.93 15.2527C14.9357 15.141 14.9852 15.0361 15.0679 14.9608L15.4916 14.5858C15.6136 14.4761 15.7112 14.3419 15.778 14.192C15.8448 14.0421 15.8793 13.8799 15.8793 13.7158C15.8793 13.5517 15.8448 13.3894 15.778 13.2395C15.7112 13.0897 15.6136 12.9555 15.4916 12.8458C15.3782 12.7419 15.245 12.6619 15.1001 12.6104C14.9552 12.5589 14.8014 12.5369 14.6479 12.5458L14.0929 12.5758H14.0516C13.9398 12.5693 13.8349 12.5195 13.7591 12.437C13.7215 12.3963 13.6925 12.3484 13.6738 12.2962C13.6551 12.244 13.6472 12.1886 13.6504 12.1333L13.6691 11.5633C13.6784 11.3903 13.6496 11.2173 13.5848 11.0567C13.5201 10.896 13.4208 10.7515 13.2941 10.6333C13.0631 10.4261 12.7594 10.3189 12.4495 10.335C12.1395 10.3512 11.8486 10.4895 11.6404 10.7195L11.2654 11.1395L11.2316 11.1733C11.1479 11.2475 11.0382 11.2856 10.9265 11.2793C10.8148 11.273 10.7102 11.2227 10.6354 11.1395L10.2604 10.7158C10.1428 10.5894 9.99889 10.4903 9.83886 10.4255C9.67883 10.3607 9.50654 10.3318 9.33413 10.3408C9.18103 10.3466 9.03061 10.3828 8.89157 10.4472C8.75254 10.5115 8.62764 10.6028 8.52413 10.7158C8.42021 10.8301 8.33989 10.9638 8.28777 11.1093C8.23564 11.2547 8.21274 11.409 8.22038 11.5633L8.25038 12.1333V12.2158C8.24798 12.2713 8.2346 12.3258 8.211 12.3761C8.1874 12.4263 8.15405 12.4715 8.1129 12.5088C8.07174 12.5461 8.02359 12.5749 7.97123 12.5935C7.91888 12.612 7.86335 12.6201 7.80788 12.617L7.23788 12.587C7.06503 12.5739 6.8915 12.601 6.73083 12.666C6.57016 12.7311 6.42669 12.8324 6.31163 12.962C6.20835 13.076 6.12856 13.2092 6.07681 13.354C6.02506 13.4988 6.00237 13.6524 6.01003 13.806C6.01769 13.9596 6.05556 14.1102 6.12147 14.2491C6.18738 14.3881 6.28003 14.5127 6.39413 14.6158L6.81788 14.9908L6.84788 15.0208C6.88509 15.062 6.91376 15.1102 6.93223 15.1626C6.95069 15.215 6.95858 15.2705 6.95545 15.326C6.95231 15.3814 6.9382 15.4357 6.91394 15.4856C6.88969 15.5356 6.85576 15.5803 6.81413 15.617L6.39038 15.992C6.2132 16.1551 6.09045 16.3687 6.03879 16.6039C5.98712 16.839 6.00904 17.0844 6.10156 17.3067C6.19409 17.529 6.35274 17.7175 6.55601 17.8466C6.75928 17.9756 6.99733 18.0391 7.23788 18.0283L7.80788 18.002H7.84913C7.96089 18.0079 8.0658 18.0577 8.14098 18.1406C8.21615 18.2235 8.25548 18.3327 8.25038 18.4445L8.22038 19.0145C8.20947 19.2556 8.27313 19.4941 8.40267 19.6977C8.53221 19.9013 8.72134 20.06 8.94432 20.1522C9.1673 20.2444 9.41328 20.2657 9.64877 20.2131C9.88426 20.1605 10.0978 20.0366 10.2604 19.8583L10.6354 19.4345L10.6691 19.4045C10.7523 19.33 10.8613 19.291 10.9729 19.2958C11.0845 19.3031 11.1891 19.3527 11.2654 19.4345L11.6404 19.8583C11.7504 19.9781 11.8843 20.0734 12.0336 20.138ZM11.0029 18.5345H10.9429C10.6625 18.5399 10.3934 18.6464 10.1854 18.8345L10.0991 18.9208L9.72413 19.3445C9.66683 19.4144 9.58869 19.4642 9.50111 19.4865C9.41354 19.5088 9.32112 19.5026 9.23735 19.4686C9.15359 19.4347 9.08286 19.3749 9.0355 19.2979C8.98815 19.2209 8.96664 19.1308 8.97413 19.0408L9.00413 18.4708C9.01118 18.3161 8.98765 18.1616 8.93491 18.016C8.88216 17.8704 8.80122 17.7367 8.69673 17.6225C8.59223 17.5082 8.46623 17.4157 8.32594 17.3502C8.18564 17.2847 8.03381 17.2475 7.87913 17.2408H7.76288L7.19288 17.2708C7.08108 17.2759 6.97181 17.2366 6.88891 17.1614C6.806 17.0862 6.7562 16.9813 6.75038 16.8695C6.74798 16.8072 6.75914 16.745 6.7831 16.6874C6.80706 16.6298 6.84323 16.5781 6.88913 16.5358L7.31288 16.1608C7.54243 15.952 7.67997 15.6608 7.69543 15.3509C7.71089 15.041 7.60301 14.7376 7.39538 14.507C7.36983 14.4765 7.34226 14.4477 7.31288 14.4208L6.88913 14.0458C6.84764 14.0088 6.81398 13.9638 6.79015 13.9136C6.76632 13.8633 6.7528 13.8088 6.75038 13.7533C6.74717 13.6979 6.75514 13.6425 6.77382 13.5903C6.79251 13.5381 6.82152 13.4903 6.85913 13.4495C6.90092 13.403 6.95257 13.3664 7.01031 13.3424C7.06805 13.3184 7.13043 13.3076 7.19288 13.3108L7.76288 13.3408C7.91658 13.3481 8.07023 13.3251 8.21501 13.273C8.35979 13.2208 8.49287 13.1407 8.60663 13.037C8.71974 12.9336 8.81115 12.8088 8.87553 12.6697C8.93992 12.5307 8.97598 12.3802 8.98163 12.227V12.1108L8.95163 11.5408C8.94681 11.4292 8.98585 11.3202 9.06038 11.237C9.09682 11.1948 9.14165 11.1607 9.19201 11.1368C9.24237 11.113 9.29716 11.0998 9.35288 11.0983C9.41533 11.0951 9.4777 11.1059 9.53544 11.1299C9.59318 11.1539 9.64483 11.1905 9.68663 11.237L10.0616 11.657C10.1645 11.7714 10.2889 11.8644 10.4277 11.9306C10.5665 11.9968 10.717 12.035 10.8706 12.0431C11.0242 12.0511 11.1779 12.0287 11.3228 11.9773C11.4678 11.9258 11.6012 11.8463 11.7154 11.7433C11.746 11.7164 11.7748 11.6876 11.8016 11.657L12.1766 11.237C12.2137 11.1957 12.2585 11.162 12.3086 11.1381C12.3587 11.1142 12.413 11.1004 12.4685 11.0976C12.5239 11.0949 12.5794 11.1031 12.6316 11.1219C12.6839 11.1406 12.7319 11.1696 12.7729 11.207C12.8198 11.2485 12.8567 11.3001 12.8808 11.3579C12.9048 11.4157 12.9154 11.4783 12.9116 11.5408L12.8816 12.1108C12.8736 12.2642 12.8959 12.4178 12.9474 12.5626C12.9989 12.7074 13.0785 12.8406 13.1816 12.9545C13.3931 13.1815 13.6854 13.3162 13.9954 13.3295H14.1116L14.6816 13.2995C14.737 13.2963 14.7924 13.3043 14.8446 13.323C14.8968 13.3417 14.9447 13.3707 14.9854 13.4083C15.0276 13.4447 15.0617 13.4896 15.0856 13.5399C15.1095 13.5903 15.1226 13.6451 15.1241 13.7008C15.127 13.7632 15.1161 13.8255 15.0921 13.8832C15.0681 13.9409 15.0317 13.9926 14.9854 14.0345L14.5616 14.4095C14.3315 14.6178 14.1933 14.9087 14.1771 15.2186C14.161 15.5285 14.2682 15.8322 14.4754 16.0633L14.5616 16.1495L14.9854 16.5245C15.0276 16.561 15.0617 16.6058 15.0856 16.6562C15.1095 16.7065 15.1226 16.7613 15.1241 16.817C15.1271 16.8723 15.1191 16.9277 15.1004 16.9799C15.0817 17.032 15.0528 17.0799 15.0154 17.1208C14.9729 17.1665 14.9212 17.2025 14.8636 17.2265C14.806 17.2504 14.744 17.2617 14.6816 17.2595L14.1116 17.2295C13.9581 17.2206 13.8043 17.2426 13.6594 17.2941C13.5145 17.3457 13.3813 17.4257 13.2679 17.5295C13.1551 17.6332 13.0639 17.7581 12.9995 17.8971C12.9352 18.0361 12.8989 18.1865 12.8929 18.3395V18.4595L12.9229 19.0295C12.928 19.1413 12.8887 19.2506 12.8135 19.3335C12.7383 19.4164 12.6334 19.4662 12.5216 19.472C12.4593 19.4739 12.3973 19.4625 12.3398 19.4386C12.2823 19.4147 12.2305 19.3788 12.1879 19.3333L11.8129 18.9095C11.6028 18.6827 11.3117 18.548 11.0029 18.5345ZM9.71785 17.1167C10.0805 17.359 10.5068 17.4883 10.9429 17.4883C11.5274 17.4873 12.0876 17.2547 12.501 16.8414C12.9143 16.4281 13.1469 15.8678 13.1479 15.2833C13.1479 14.8472 13.0186 14.4209 12.7763 14.0582C12.534 13.6956 12.1896 13.413 11.7867 13.2461C11.3838 13.0792 10.9404 13.0356 10.5127 13.1207C10.085 13.2057 9.69208 13.4157 9.38371 13.7241C9.07533 14.0325 8.86533 14.4254 8.78025 14.8531C8.69517 15.2808 8.73883 15.7242 8.90572 16.1271C9.07262 16.53 9.35524 16.8744 9.71785 17.1167ZM10.1345 14.0735C10.3738 13.9136 10.6551 13.8283 10.9429 13.8283C11.3288 13.8283 11.6989 13.9816 11.9717 14.2544C12.2446 14.5273 12.3979 14.8974 12.3979 15.2833C12.3979 15.571 12.3125 15.8524 12.1527 16.0916C11.9928 16.3309 11.7655 16.5174 11.4997 16.6275C11.2338 16.7376 10.9413 16.7665 10.659 16.7103C10.3768 16.6542 10.1175 16.5156 9.91404 16.3121C9.71055 16.1086 9.57198 15.8494 9.51584 15.5671C9.45969 15.2849 9.48851 14.9923 9.59863 14.7265C9.70876 14.4606 9.89525 14.2334 10.1345 14.0735ZM17.8106 10.5214C18.1744 10.7638 18.602 10.8928 19.0391 10.892C19.6236 10.891 20.1839 10.6584 20.5972 10.2451C21.0105 9.8318 21.2431 9.27152 21.2441 8.68703C21.2449 8.24986 21.1159 7.8223 20.8734 7.4585C20.631 7.0947 20.2861 6.81101 19.8824 6.64337C19.4786 6.47573 19.0342 6.43168 18.6054 6.51679C18.1766 6.6019 17.7827 6.81234 17.4736 7.12146C17.1644 7.43059 16.954 7.82449 16.8689 8.25329C16.7838 8.6821 16.8278 9.12651 16.9955 9.53026C17.1631 9.93401 17.4468 10.2789 17.8106 10.5214ZM18.2277 7.47229C18.4681 7.31245 18.7505 7.22754 19.0391 7.22828C19.4254 7.22927 19.7954 7.3834 20.0682 7.65686C20.341 7.93032 20.4941 8.30079 20.4941 8.68703C20.4941 8.9757 20.4085 9.25788 20.248 9.49785C20.0876 9.73782 19.8595 9.92479 19.5927 10.0351C19.326 10.1454 19.0325 10.1741 18.7494 10.1175C18.4663 10.0609 18.2064 9.92157 18.0026 9.71719C17.7987 9.5128 17.6601 9.25252 17.6042 8.96931C17.5483 8.68609 17.5778 8.39267 17.6887 8.12618C17.7997 7.8597 17.9873 7.63213 18.2277 7.47229Z" fill="black"/>
</svg>
