<svg width="24" height="24" viewBox="0 0 24 24" fill="none" xmlns="http://www.w3.org/2000/svg">
<path fill-rule="evenodd" clip-rule="evenodd" d="M23.25 20.25H23.625C23.7245 20.25 23.8198 20.2895 23.8902 20.3598C23.9605 20.4302 24 20.5255 24 20.625C24 20.7245 23.9605 20.8198 23.8902 20.8902C23.8198 20.9605 23.7245 21 23.625 21H6.375C6.27554 21 6.18016 20.9605 6.10983 20.8902C6.0395 20.8198 6 20.7245 6 20.625C6 20.5255 6.0395 20.4302 6.10983 20.3598C6.18016 20.2895 6.27554 20.25 6.375 20.25H6.75V13.5C6.75 13.3011 6.82902 13.1103 6.96967 12.9697C7.11032 12.829 7.30109 12.75 7.5 12.75H9V12.375C9 12.2755 9.0395 12.1802 9.10983 12.1098C9.18016 12.0395 9.27554 12 9.375 12C9.47446 12 9.56983 12.0395 9.64016 12.1098C9.71049 12.1802 9.75 12.2755 9.75 12.375V12.75C9.94891 12.75 10.1397 12.829 10.2803 12.9697C10.421 13.1103 10.5 13.3011 10.5 13.5V20.25H11.25V7.125C11.25 6.82663 11.3685 6.54049 11.5795 6.32951C11.7905 6.11853 12.0766 6 12.375 6H13.5V5.25C13.5 5.05109 13.579 4.86032 13.7197 4.71967C13.8603 4.57902 14.0511 4.5 14.25 4.5H15V3.375C15 3.27554 15.0395 3.18017 15.1098 3.10984C15.1802 3.03951 15.2755 3 15.375 3C15.4745 3 15.5698 3.03951 15.6402 3.10984C15.7105 3.18017 15.75 3.27554 15.75 3.375V4.5C15.9489 4.5 16.1397 4.57902 16.2803 4.71967C16.421 4.86032 16.5 5.05109 16.5 5.25V6H17.625C17.9234 6 18.2095 6.11853 18.4205 6.32951C18.6315 6.54049 18.75 6.82663 18.75 7.125V20.25H19.5V13.5C19.5 13.3011 19.579 13.1103 19.7197 12.9697C19.8603 12.829 20.0511 12.75 20.25 12.75V12.375C20.25 12.2755 20.2895 12.1802 20.3598 12.1098C20.4302 12.0395 20.5255 12 20.625 12C20.7245 12 20.8198 12.0395 20.8902 12.1098C20.9605 12.1802 21 12.2755 21 12.375V12.75H22.5C22.6989 12.75 22.8897 12.829 23.0303 12.9697C23.171 13.1103 23.25 13.3011 23.25 13.5V20.25ZM22.5 13.5H20.25V20.25H22.5V13.5ZM15.75 6V5.25H14.25V6H15.75ZM12.1098 6.85984C12.0395 6.93017 12 7.02554 12 7.125V20.25H18V7.125C18 7.02554 17.9605 6.93017 17.8902 6.85984C17.8198 6.78951 17.7245 6.75 17.625 6.75H12.375C12.2755 6.75 12.1802 6.78951 12.1098 6.85984ZM9.75 13.5H7.5V20.25H9.75V13.5ZM12.8598 8.35984C12.9302 8.28951 13.0255 8.25 13.125 8.25H16.875C16.9745 8.25 17.0698 8.28951 17.1402 8.35984C17.2105 8.43017 17.25 8.52554 17.25 8.625C17.25 8.72446 17.2105 8.81984 17.1402 8.89017C17.0698 8.9605 16.9745 9 16.875 9H13.125C13.0255 9 12.9302 8.9605 12.8598 8.89017C12.7895 8.81984 12.75 8.72446 12.75 8.625C12.75 8.52554 12.7895 8.43017 12.8598 8.35984ZM13.125 10.5C13.0255 10.5 12.9302 10.5395 12.8598 10.6098C12.7895 10.6802 12.75 10.7755 12.75 10.875C12.75 10.9745 12.7895 11.0698 12.8598 11.1402C12.9302 11.2105 13.0255 11.25 13.125 11.25H16.875C16.9745 11.25 17.0698 11.2105 17.1402 11.1402C17.2105 11.0698 17.25 10.9745 17.25 10.875C17.25 10.7755 17.2105 10.6802 17.1402 10.6098C17.0698 10.5395 16.9745 10.5 16.875 10.5H13.125ZM12.8598 12.8598C12.9302 12.7895 13.0255 12.75 13.125 12.75H16.875C16.9745 12.75 17.0698 12.7895 17.1402 12.8598C17.2105 12.9302 17.25 13.0255 17.25 13.125C17.25 13.2245 17.2105 13.3198 17.1402 13.3902C17.0698 13.4605 16.9745 13.5 16.875 13.5H13.125C13.0255 13.5 12.9302 13.4605 12.8598 13.3902C12.7895 13.3198 12.75 13.2245 12.75 13.125C12.75 13.0255 12.7895 12.9302 12.8598 12.8598ZM13.125 15C13.0255 15 12.9302 15.0395 12.8598 15.1098C12.7895 15.1802 12.75 15.2755 12.75 15.375C12.75 15.4745 12.7895 15.5698 12.8598 15.6402C12.9302 15.7105 13.0255 15.75 13.125 15.75H16.875C16.9745 15.75 17.0698 15.7105 17.1402 15.6402C17.2105 15.5698 17.25 15.4745 17.25 15.375C17.25 15.2755 17.2105 15.1802 17.1402 15.1098C17.0698 15.0395 16.9745 15 16.875 15H13.125ZM12.8598 17.3598C12.9302 17.2895 13.0255 17.25 13.125 17.25H16.875C16.9745 17.25 17.0698 17.2895 17.1402 17.3598C17.2105 17.4302 17.25 17.5255 17.25 17.625C17.25 17.7245 17.2105 17.8198 17.1402 17.8902C17.0698 17.9605 16.9745 18 16.875 18H13.125C13.0255 18 12.9302 17.9605 12.8598 17.8902C12.7895 17.8198 12.75 17.7245 12.75 17.625C12.75 17.5255 12.7895 17.4302 12.8598 17.3598Z" fill="black"/>
</svg>
