<svg width="64" height="64" viewBox="0 0 64 64" fill="none" xmlns="http://www.w3.org/2000/svg">
<path fill-rule="evenodd" clip-rule="evenodd" d="M15.6542 32.9607C16.1852 32.9607 16.6157 33.3912 16.6157 33.9223V51.2296C16.6157 51.4846 16.717 51.7292 16.8973 51.9095C17.0776 52.0898 17.3222 52.1911 17.5772 52.1911H26.2309V44.499C26.2309 42.9689 26.8387 41.5015 27.9206 40.4196C29.0026 39.3377 30.47 38.7299 32 38.7299C33.5301 38.7299 34.9975 39.3377 36.0794 40.4196C37.1613 41.5015 37.7691 42.9689 37.7691 44.499V52.1911H46.4228C46.6778 52.1911 46.9224 52.0898 47.1027 51.9095C47.283 51.7292 47.3843 51.4846 47.3843 51.2296V34.8838C47.3843 34.3527 47.8148 33.9223 48.3458 33.9223C48.8769 33.9223 49.3074 34.3527 49.3074 34.8838V51.2296C49.3074 51.9946 49.0035 52.7283 48.4625 53.2693C47.9215 53.8103 47.1878 54.1142 46.4228 54.1142H37.7691C37.2591 54.1142 36.77 53.9116 36.4093 53.5509C36.0487 53.1903 35.8461 52.7011 35.8461 52.1911V44.499C35.8461 43.4789 35.4409 42.5007 34.7196 41.7794C33.9983 41.0581 33.0201 40.6529 32 40.6529C30.98 40.6529 30.0017 41.0581 29.2804 41.7794C28.5592 42.5007 28.1539 43.4789 28.1539 44.499V52.1911C28.1539 52.7011 27.9513 53.1903 27.5907 53.5509C27.2301 53.9116 26.7409 54.1142 26.2309 54.1142H17.5772C16.8122 54.1142 16.0785 53.8103 15.5375 53.2693C14.9966 52.7283 14.6927 51.9946 14.6927 51.2296V33.9223C14.6927 33.3912 15.1232 32.9607 15.6542 32.9607Z" fill="#000001"/>
<path fill-rule="evenodd" clip-rule="evenodd" d="M31.3201 10.1659C31.6956 9.7904 32.3044 9.7904 32.6799 10.1659L54.7949 32.2808C55.1704 32.6563 55.1704 33.2651 54.7949 33.6406C54.4194 34.0161 53.8106 34.0161 53.4351 33.6406L32 12.2056L10.565 33.6406C10.1895 34.0161 9.58067 34.0161 9.20518 33.6406C8.82968 33.2651 8.82968 32.6563 9.20518 32.2808L31.3201 10.1659Z" fill="#000001"/>
<path fill-rule="evenodd" clip-rule="evenodd" d="M38.7306 12.7688C38.7306 12.2378 39.1611 11.8073 39.6922 11.8073H45.4613C45.9713 11.8073 46.4604 12.0099 46.8211 12.3706C47.1817 12.7312 47.3843 13.2203 47.3843 13.7304V19.4995C47.3843 20.0305 46.9538 20.461 46.4228 20.461C45.8918 20.461 45.4613 20.0305 45.4613 19.4995V13.7304L39.6922 13.7304C39.1611 13.7304 38.7306 13.2999 38.7306 12.7688Z" fill="#000001"/>
</svg>
