<svg width="24" height="24" viewBox="0 0 24 24" fill="none" xmlns="http://www.w3.org/2000/svg">
<path fill-rule="evenodd" clip-rule="evenodd" d="M17.6369 12.3961C17.7252 12.4323 17.8197 12.4507 17.9151 12.4502V12.4464C18.0522 12.4465 18.1866 12.4078 18.3027 12.3348C18.4188 12.2618 18.5119 12.1575 18.5713 12.0339L20.7388 7.47765C20.7806 7.39135 20.8049 7.29759 20.8101 7.20184C20.8154 7.10608 20.8016 7.01024 20.7695 6.91987C20.7374 6.8295 20.6876 6.74641 20.6231 6.67543C20.5587 6.60445 20.4807 6.547 20.3938 6.5064C20.3082 6.4652 20.215 6.44222 20.1201 6.43891L18.3163 6.3414V3.7914C18.314 3.62805 18.2568 3.47025 18.1539 3.34338C18.0509 3.21652 17.9083 3.12799 17.749 3.09205C17.5896 3.05611 17.4228 3.07484 17.2754 3.14524C17.128 3.21564 17.0085 3.33362 16.9363 3.48015L14.7651 8.04391C14.7236 8.13008 14.6996 8.22356 14.6943 8.31902C14.6891 8.41449 14.7027 8.51006 14.7344 8.60026C14.7661 8.69046 14.8152 8.77354 14.8791 8.84473C14.9429 8.91592 15.0201 8.97383 15.1063 9.01515C15.193 9.05765 15.2874 9.0819 15.3838 9.08641L17.1876 9.18016V11.7264C17.1876 11.8218 17.2064 11.9162 17.243 12.0042C17.2796 12.0923 17.3333 12.1722 17.4009 12.2395C17.4685 12.3068 17.5487 12.36 17.6369 12.3961ZM15.4401 8.35515L17.5626 3.90766L17.5476 6.6864C17.5476 6.78585 17.5871 6.88124 17.6574 6.95157C17.7277 7.02189 17.8231 7.0614 17.9226 7.0614L20.0638 7.1439L17.9376 11.6101V8.8089C17.9377 8.71261 17.9008 8.61996 17.8344 8.55015C17.7681 8.48034 17.6775 8.43871 17.5813 8.4339L15.4401 8.35515ZM4.64757 11.6027H6.07632L6.08382 11.5989C6.54944 11.5777 6.98897 11.3778 7.31098 11.0408C7.54483 10.7961 7.70362 10.4927 7.77304 10.1664H7.86132C8.14278 10.1664 8.41272 10.2782 8.61174 10.4773C8.81076 10.6763 8.92257 10.9462 8.92257 11.2277V17.6814C8.92257 18.1608 9.113 18.6206 9.45197 18.9595C9.79095 19.2985 10.2507 19.4889 10.7301 19.4889H12.1476V19.8002C12.1476 20.0985 12.2661 20.3847 12.4771 20.5957C12.6881 20.8066 12.9742 20.9252 13.2726 20.9252H18.9463C19.244 20.9242 19.5292 20.8052 19.7394 20.5943C19.9496 20.3835 20.0676 20.0979 20.0676 19.8002V13.9427C20.0676 13.8432 20.0281 13.7478 19.9577 13.6775C19.8874 13.6072 19.792 13.5677 19.6926 13.5677C19.5931 13.5677 19.4977 13.6072 19.4274 13.6775C19.3571 13.7478 19.3176 13.8432 19.3176 13.9427V19.8002C19.3176 19.8996 19.2781 19.995 19.2077 20.0653C19.1374 20.1357 19.042 20.1752 18.9426 20.1752H13.2726C13.1731 20.1752 13.0777 20.1357 13.0074 20.0653C12.9371 19.995 12.8976 19.8996 12.8976 19.8002V19.1154C12.8976 19.1149 12.8976 19.1144 12.8976 19.1139C12.8976 19.1134 12.8976 19.1129 12.8976 19.1125V6.19516C12.8976 6.0957 12.9371 6.00033 13.0074 5.93C13.0777 5.85967 13.1731 5.82016 13.2726 5.82016C13.372 5.82016 13.4674 5.78066 13.5377 5.71033C13.6081 5.64 13.6476 5.54462 13.6476 5.44516C13.6476 5.3457 13.6081 5.25033 13.5377 5.18C13.4674 5.10967 13.372 5.07016 13.2726 5.07016C12.9742 5.07016 12.6881 5.18869 12.4771 5.39967C12.2661 5.61065 12.1476 5.89679 12.1476 6.19516V18.7389H10.7301C10.4496 18.7389 10.1806 18.6275 9.98231 18.4292C9.78399 18.2309 9.67257 17.9619 9.67257 17.6814V11.2277C9.67158 10.7476 9.48043 10.2875 9.14097 9.94802C8.80151 9.60856 8.34139 9.41741 7.86132 9.41642H7.77383C7.70483 9.0887 7.54572 8.78394 7.31098 8.53826C6.98897 8.20126 6.54944 8.00137 6.08382 7.98016H4.64757C4.54811 7.98016 4.45273 8.01968 4.3824 8.09C4.31208 8.16033 4.27257 8.25569 4.27257 8.35514H3.56381C3.46436 8.35514 3.36897 8.39465 3.29865 8.46498C3.22832 8.53531 3.18881 8.63068 3.18881 8.73014C3.18881 8.8296 3.22832 8.92497 3.29865 8.9953C3.36897 9.06563 3.46436 9.10514 3.56381 9.10514H4.27257V10.4927H3.56381C3.46436 10.4927 3.36897 10.5322 3.29865 10.6025C3.22832 10.6728 3.18881 10.7682 3.18881 10.8677C3.18881 10.9671 3.22832 11.0625 3.29865 11.1328C3.36897 11.2032 3.46436 11.2427 3.56381 11.2427H4.27287C4.27663 11.3367 4.31562 11.426 4.3824 11.4928C4.45273 11.5632 4.54811 11.6027 4.64757 11.6027ZM5.02257 8.73392L5.01528 10.7941C5.01912 10.8133 5.02147 10.8329 5.02226 10.8527H6.07632C6.34638 10.8366 6.60012 10.718 6.78565 10.5211C6.97118 10.3242 7.07451 10.0638 7.07451 9.79329C7.07451 9.52274 6.97118 9.26242 6.78565 9.06551C6.60012 8.8686 6.34638 8.74999 6.07632 8.73392H5.02257Z" fill="black"/>
</svg>
