<svg width="64" height="64" viewBox="0 0 64 64" fill="none" xmlns="http://www.w3.org/2000/svg">
<path fill-rule="evenodd" clip-rule="evenodd" d="M35.5781 9.82794C36.0671 9.97677 36.3428 10.4938 36.194 10.9828L23.2367 53.5568C23.0879 54.0458 22.5708 54.3216 22.0818 54.1727C21.5928 54.0239 21.3171 53.5069 21.4659 53.0178L34.4232 10.4439C34.572 9.95488 35.0891 9.67911 35.5781 9.82794Z" fill="#000001"/>
<path fill-rule="evenodd" clip-rule="evenodd" d="M58.1586 37.1382C58.6476 36.9894 59.1647 37.2651 59.3135 37.7541L63.9596 53.0178C64.1085 53.5068 63.8327 54.0239 63.3437 54.1727C62.8547 54.3216 62.3377 54.0458 62.1888 53.5568L57.5427 38.2931C57.3938 37.8041 57.6696 37.2871 58.1586 37.1382Z" fill="#000001"/>
<path fill-rule="evenodd" clip-rule="evenodd" d="M42.7128 44.9576C43.2239 44.9576 43.6383 45.372 43.6383 45.8832V53.2873C43.6383 53.7985 43.2239 54.2128 42.7128 54.2128C42.2016 54.2128 41.7872 53.7985 41.7872 53.2873V45.8832C41.7872 45.372 42.2016 44.9576 42.7128 44.9576Z" fill="#000001"/>
<path fill-rule="evenodd" clip-rule="evenodd" d="M42.7128 35.7024C43.2239 35.7024 43.6383 36.1168 43.6383 36.6279V40.33C43.6383 40.8412 43.2239 41.2555 42.7128 41.2555C42.2016 41.2555 41.7872 40.8412 41.7872 40.33V36.6279C41.7872 36.1168 42.2016 35.7024 42.7128 35.7024Z" fill="#000001"/>
<path fill-rule="evenodd" clip-rule="evenodd" d="M42.7128 9.78784C43.2239 9.78784 43.6383 10.2022 43.6383 10.7134V14.4154C43.6383 14.9266 43.2239 15.341 42.7128 15.341C42.2016 15.341 41.7872 14.9266 41.7872 14.4154V10.7134C41.7872 10.2022 42.2016 9.78784 42.7128 9.78784Z" fill="#000001"/>
<path fill-rule="evenodd" clip-rule="evenodd" d="M50.2822 15.341C49.166 15.3394 48.0604 15.558 47.0287 15.9841C45.997 16.4102 45.0594 17.0355 44.2695 17.8243C43.4797 18.613 42.8531 19.5497 42.4256 20.5809C41.998 21.612 41.778 22.7173 41.778 23.8335C41.778 24.7158 42.1194 25.9128 42.7473 27.3258C43.3657 28.7174 44.2211 30.23 45.1579 31.7156C47.0305 34.6855 49.1814 37.4741 50.277 38.8528L50.2785 38.851C51.3746 37.4787 53.5253 34.6902 55.3975 31.7193C56.3339 30.2332 57.189 28.7198 57.8072 27.3274C58.4348 25.9137 58.7761 24.716 58.7761 23.8335C58.7761 22.7183 58.5564 21.6139 58.1296 20.5836C57.7028 19.5532 57.0773 18.617 56.2887 17.8284C55.5001 17.0398 54.5639 16.4142 53.5335 15.9874C52.5031 15.5606 51.3988 15.341 50.2835 15.341C50.2831 15.341 50.2827 15.341 50.2822 15.341ZM50.2848 13.4899C48.9253 13.4881 47.5787 13.7542 46.3221 14.2732C45.0655 14.7922 43.9235 15.5538 42.9615 16.5145C41.9995 17.4751 41.2364 18.6161 40.7157 19.8719C40.195 21.1278 39.9269 22.474 39.9269 23.8335C39.9269 25.1105 40.3972 26.5954 41.0558 28.0775C41.7239 29.581 42.6297 31.1766 43.5921 32.7029C45.5177 35.7568 47.7168 38.6063 48.8277 40.0043M50.2848 13.4899C51.6427 13.4901 52.9873 13.7576 54.2419 14.2773C55.4968 14.7971 56.6371 15.559 57.5976 16.5195C58.5581 17.48 59.32 18.6203 59.8398 19.8752C60.3596 21.1302 60.6271 22.4752 60.6271 23.8335C60.6271 25.1104 60.1572 26.5957 59.499 28.0785C58.8312 29.5827 57.9257 31.1792 56.9635 32.7062C55.0382 35.7614 52.839 38.6111 51.7249 40.0061C51.5518 40.2235 51.332 40.3991 51.0817 40.5199C50.8308 40.641 50.5557 40.7039 50.277 40.7039C49.9984 40.7039 49.7233 40.641 49.4723 40.5199C49.2214 40.3987 49.001 40.2224 48.8277 40.0043" fill="#000001"/>
<path fill-rule="evenodd" clip-rule="evenodd" d="M51.2822 21.4253C50.9657 21.2944 50.6265 21.2271 50.284 21.2273C49.7682 21.2275 49.264 21.3808 48.8352 21.6676C48.4065 21.9544 48.0724 22.3619 47.8753 22.8386C47.6781 23.3152 47.6267 23.8397 47.7276 24.3456C47.8285 24.8514 48.0772 25.316 48.4421 25.6806C48.8071 26.0451 49.2719 26.2933 49.7779 26.3937C50.2839 26.494 50.8082 26.4421 51.2847 26.2445C51.7612 26.0468 52.1683 25.7123 52.4547 25.2833C52.7411 24.8542 52.8938 24.3499 52.8935 23.834C52.8933 23.4915 52.8257 23.1524 52.6944 22.836C52.5632 22.5197 52.3709 22.2323 52.1286 21.9902C51.8863 21.7482 51.5987 21.5562 51.2822 21.4253ZM50.283 19.3762C50.8686 19.3759 51.4485 19.491 51.9897 19.7148C52.5308 19.9386 53.0225 20.2668 53.4368 20.6806C53.8511 21.0945 54.1798 21.5859 54.4042 22.1268C54.6286 22.6677 54.7442 23.2475 54.7445 23.8331C54.745 24.715 54.4839 25.5773 53.9943 26.3108C53.5047 27.0444 52.8086 27.6163 51.994 27.9542C51.1793 28.2922 50.2828 28.3809 49.4177 28.2093C48.5526 28.0377 47.7579 27.6134 47.1339 26.9901C46.51 26.3669 46.0849 25.5725 45.9124 24.7076C45.7398 23.8427 45.8277 22.9461 46.1648 22.1311C46.5018 21.3161 47.073 20.6194 47.8061 20.129C48.5391 19.6387 49.4011 19.3767 50.283 19.3762Z" fill="#000001"/>
</svg>
