<svg width="24" height="24" viewBox="0 0 24 24" fill="none" xmlns="http://www.w3.org/2000/svg">
<g clip-path="url(#clip0_914_2947)">
<path fill-rule="evenodd" clip-rule="evenodd" d="M23.7195 4.77477L22.2008 3.27477C22.1738 3.24659 22.145 3.22028 22.1145 3.19602C21.9148 3.04321 21.6627 2.97558 21.4133 3.0079C21.1639 3.04022 20.9374 3.16985 20.7833 3.36852L18.9645 5.68227C18.7627 5.94264 18.6509 6.26159 18.6462 6.59101C18.6415 6.92043 18.744 7.24246 18.9383 7.50852L14.1833 12.2635L13.6283 11.7085C13.3549 11.4362 12.9847 11.2834 12.5989 11.2834C12.213 11.2834 11.8429 11.4362 11.5695 11.7085L6.74326 16.5573C6.26741 17.034 6.00015 17.68 6.00015 18.3535C6.00015 19.0271 6.26741 19.6731 6.74326 20.1498L6.84827 20.2548C7.0838 20.4913 7.36373 20.679 7.67197 20.807C7.98022 20.9351 8.31073 21.001 8.64452 21.001C8.97831 21.001 9.30881 20.9351 9.61706 20.807C9.92531 20.679 10.2052 20.4913 10.4408 20.2548L15.267 15.4285C15.4027 15.2936 15.5104 15.1333 15.5839 14.9566C15.6574 14.7799 15.6953 14.5905 15.6953 14.3991C15.6953 14.2078 15.6574 14.0184 15.5839 13.8417C15.5104 13.665 15.4027 13.5046 15.267 13.3698L14.712 12.8073L19.467 8.05227C19.7319 8.24954 20.0544 8.35389 20.3846 8.34914C20.7148 8.3444 21.0342 8.23082 21.2933 8.02602L23.6258 6.20727L23.7158 6.12852C23.8055 6.0402 23.8768 5.93497 23.9256 5.81892C23.9744 5.70288 23.9996 5.57831 24 5.45243C24.0003 5.32654 23.9757 5.20183 23.9276 5.08552C23.8794 4.9692 23.8087 4.86358 23.7195 4.77477ZM14.9445 14.3785C14.9446 14.472 14.9261 14.5646 14.89 14.6509C14.8539 14.7371 14.8011 14.8154 14.7345 14.881L9.91577 19.7073C9.74964 19.8736 9.55234 20.0056 9.33518 20.0956C9.11801 20.1856 8.88523 20.232 8.65014 20.232C8.41505 20.232 8.18227 20.1856 7.9651 20.0956C7.74794 20.0056 7.55065 19.8736 7.38452 19.7073L7.27952 19.5985C6.94473 19.2631 6.75669 18.8086 6.75669 18.3348C6.75669 17.8609 6.94473 17.4064 7.27952 17.071L12.1058 12.2448C12.2391 12.1131 12.419 12.0393 12.6064 12.0393C12.7938 12.0393 12.9737 12.1131 13.107 12.2448L13.9245 13.0623L14.742 13.8798C14.807 13.9455 14.8583 14.0234 14.893 14.1089C14.9278 14.1945 14.9453 14.2861 14.9445 14.3785ZM23.1645 5.60352L20.832 7.42228C20.6831 7.53693 20.4976 7.59366 20.31 7.58193C20.1225 7.57021 19.9455 7.49083 19.812 7.35852L19.6208 7.16727C19.4877 7.03418 19.4079 6.85713 19.3961 6.66932C19.3844 6.48152 19.4416 6.29588 19.557 6.14727L21.3758 3.81102C21.3938 3.78745 21.4171 3.76839 21.4438 3.75537C21.4705 3.74235 21.4998 3.73573 21.5295 3.73602C21.5822 3.7372 21.6327 3.75715 21.672 3.79227L23.172 5.29227C23.1944 5.31182 23.2122 5.33606 23.2242 5.36325C23.2361 5.39045 23.2419 5.41995 23.2412 5.44966C23.2405 5.47936 23.2333 5.50854 23.22 5.53513C23.2068 5.56173 23.1878 5.58508 23.1645 5.60352ZM12.312 13.5085C12.2418 13.4387 12.1467 13.3995 12.0476 13.3995C11.9486 13.3995 11.8535 13.4387 11.7833 13.5085L8.07077 17.221C8.03562 17.2559 8.00772 17.2974 7.98868 17.3431C7.96965 17.3888 7.95984 17.4378 7.95984 17.4873C7.95984 17.5368 7.96965 17.5858 7.98868 17.6315C8.00772 17.6772 8.03562 17.7187 8.07077 17.7535C8.10581 17.7883 8.14736 17.8158 8.19305 17.8344C8.23874 17.8531 8.28766 17.8626 8.33701 17.8623C8.43539 17.8619 8.52967 17.8228 8.59952 17.7535L12.312 14.041C12.3472 14.0062 12.3751 13.9647 12.3941 13.919C12.4131 13.8733 12.4229 13.8243 12.4229 13.7748C12.4229 13.7253 12.4131 13.6763 12.3941 13.6306C12.3751 13.5849 12.3472 13.5434 12.312 13.5085ZM9.13203 18.2824L12.8445 14.5699C12.8781 14.5306 12.9195 14.4987 12.966 14.4762C13.0126 14.4537 13.0632 14.4411 13.1149 14.4391C13.1665 14.4371 13.218 14.4458 13.2661 14.4646C13.3143 14.4835 13.358 14.5121 13.3945 14.5486C13.4311 14.5852 13.4597 14.6289 13.4785 14.677C13.4974 14.7251 13.5061 14.7766 13.5041 14.8283C13.5021 14.8799 13.4894 14.9306 13.4669 14.9771C13.4444 15.0236 13.4125 15.065 13.3733 15.0986L9.66078 18.8111C9.59154 18.8818 9.49719 18.9222 9.39827 18.9236C9.32379 18.924 9.25086 18.9023 9.18879 18.8611C9.12672 18.8199 9.07832 18.7612 9.04976 18.6924C9.0212 18.6236 9.01377 18.5479 9.02842 18.4749C9.04307 18.4018 9.07914 18.3348 9.13203 18.2824Z" fill="black"/>
</g>
<defs>
<clipPath id="clip0_914_2947">
<rect width="24" height="24" fill="white"/>
</clipPath>
</defs>
</svg>
