<svg width="64" height="64" viewBox="0 0 64 64" fill="none" xmlns="http://www.w3.org/2000/svg">
<g clip-path="url(#clip0_562_1354)">
<path fill-rule="evenodd" clip-rule="evenodd" d="M62.1428 8.22733C62.5084 8.37836 62.8404 8.60016 63.1199 8.88001C63.6706 9.42978 63.9861 10.172 63.9999 10.95V17.01C64.0044 17.4983 63.8301 17.9714 63.5099 18.34C63.1891 18.7086 62.7444 18.9469 62.2599 19.01C61.0649 19.1587 59.9422 19.6637 59.038 20.4591C58.1338 21.2545 57.4898 22.3037 57.1899 23.47C56.9912 24.2474 56.9504 25.0567 57.0699 25.85C57.1084 26.1153 57.0399 26.3849 56.8796 26.5996C56.7192 26.8143 56.4801 26.9565 56.2149 26.995C55.9497 27.0335 55.6801 26.965 55.4653 26.8046C55.2506 26.6443 55.1084 26.4052 55.0699 26.14C54.9149 25.0878 54.9712 24.0152 55.2356 22.9849C55.5001 21.9547 55.9673 20.9875 56.6099 20.14C57.2539 19.289 58.0616 18.5754 58.9856 18.0413C59.9096 17.5072 60.9311 17.1634 61.9899 17.03V10.96C61.9899 10.6948 61.8846 10.4404 61.697 10.2529C61.5095 10.0654 61.2552 9.96003 60.9899 9.96003H18.9899C18.7247 9.96003 18.4704 10.0654 18.2828 10.2529C18.0953 10.4404 17.9899 10.6948 17.9899 10.96V17.01C19.9277 17.2487 21.7112 18.1877 23.0046 19.6502C24.298 21.1127 25.012 22.9977 25.012 24.95C25.012 26.9024 24.298 28.7873 23.0046 30.2498C21.7112 31.7123 19.9277 32.6514 17.9899 32.89V38.96C17.9899 39.2252 18.0953 39.4796 18.2828 39.6671C18.4704 39.8547 18.7247 39.96 18.9899 39.96H33.9899C34.2552 39.96 34.5095 40.0654 34.697 40.2529C34.8846 40.4405 34.9899 40.6948 34.9899 40.96C34.9899 41.2252 34.8846 41.4796 34.697 41.6671C34.5095 41.8547 34.2552 41.96 33.9899 41.96H18.9899C18.1943 41.96 17.4312 41.6439 16.8686 41.0813C16.306 40.5187 15.9899 39.7557 15.9899 38.96V32.9C15.9927 32.4113 16.1701 31.9396 16.4899 31.57C16.8124 31.2052 17.2568 30.9706 17.7399 30.91C19.1932 30.731 20.5309 30.0267 21.501 28.9299C22.471 27.833 23.0065 26.4193 23.0065 24.955C23.0065 23.4908 22.471 22.077 21.501 20.9802C20.5309 19.8833 19.1932 19.179 17.7399 19C17.2554 18.9369 16.8108 18.6986 16.4899 18.33C16.1661 17.9628 15.9882 17.4896 15.9899 17V11C15.9906 10.2046 16.3072 9.44208 16.8699 8.88001C17.432 8.31724 18.1946 8.00071 18.9899 8.00001H60.9899C61.3855 7.99904 61.7773 8.07631 62.1428 8.22733ZM43.7675 32.1909C45.9054 30.7625 48.4188 30 50.9899 30C54.4378 30 57.7443 31.3696 60.1823 33.8076C62.6203 36.2456 63.9899 39.5522 63.9899 43C63.9899 45.5712 63.2275 48.0846 61.799 50.2224C60.3706 52.3603 58.3403 54.0265 55.9648 55.0104C53.5894 55.9944 50.9755 56.2519 48.4537 55.7502C45.932 55.2486 43.6156 54.0105 41.7976 52.1924C39.9795 50.3743 38.7413 48.0579 38.2397 45.5362C37.7381 43.0144 37.9956 40.4006 38.9795 38.0251C39.9634 35.6497 41.6297 33.6194 43.7675 32.1909ZM44.8787 52.1462C46.6876 53.3549 48.8143 54 50.9899 54C53.9073 54 56.7052 52.8411 58.7681 50.7782C60.831 48.7153 61.9899 45.9174 61.9899 43C61.9899 40.8244 61.3448 38.6977 60.1361 36.8887C58.9274 35.0798 57.2094 33.6699 55.1994 32.8373C53.1895 32.0048 50.9777 31.7869 48.8439 32.2114C46.7102 32.6358 44.7501 33.6835 43.2117 35.2219C41.6734 36.7602 40.6257 38.7202 40.2013 40.854C39.7769 42.9878 39.9947 45.1995 40.8272 47.2095C41.6598 49.2195 43.0697 50.9375 44.8787 52.1462ZM55.5399 38.9098L49.7299 46.6598C49.686 46.7163 49.6317 46.7638 49.5699 46.7998C49.5038 46.8315 49.4328 46.8518 49.36 46.8598C49.2936 46.8695 49.2263 46.8695 49.1599 46.8598C49.0928 46.8316 49.0317 46.7909 48.9799 46.7398L45.9799 43.7398C45.7916 43.5515 45.5363 43.4457 45.27 43.4457C45.0037 43.4457 44.7482 43.5515 44.5599 43.7398C44.3716 43.9281 44.2659 44.1835 44.2659 44.4498C44.2659 44.7161 44.3716 44.9715 44.5599 45.1598L47.5599 48.1598C47.8157 48.412 48.1226 48.6064 48.46 48.7298C48.7375 48.8368 49.0325 48.8911 49.33 48.8898H49.5099C49.8617 48.8671 50.2037 48.7645 50.5099 48.5898C50.8225 48.4192 51.0952 48.184 51.3099 47.8998L57.12 40.1498C57.1988 40.0448 57.2561 39.9252 57.2887 39.798C57.3213 39.6708 57.3285 39.5384 57.3099 39.4084C57.2913 39.2784 57.2473 39.1533 57.1804 39.0403C57.1135 38.9273 57.025 38.8286 56.92 38.7498C56.8149 38.671 56.6954 38.6137 56.5681 38.5811C56.4409 38.5485 56.3085 38.5413 56.1785 38.5599C56.0485 38.5784 55.9235 38.6224 55.8105 38.6893C55.6975 38.7562 55.5988 38.8447 55.52 38.9498L55.5399 38.9098ZM49.4899 14C49.4899 14.8284 48.8184 15.5 47.9899 15.5C47.1615 15.5 46.4899 14.8284 46.4899 14C46.4899 13.1716 47.1615 12.5 47.9899 12.5C48.8184 12.5 49.4899 13.1716 49.4899 14ZM47.9899 21.5C48.8184 21.5 49.4899 20.8284 49.4899 20C49.4899 19.1716 48.8184 18.5 47.9899 18.5C47.1615 18.5 46.4899 19.1716 46.4899 20C46.4899 20.8284 47.1615 21.5 47.9899 21.5ZM49.4899 26C49.4899 26.8284 48.8184 27.5 47.9899 27.5C47.1615 27.5 46.4899 26.8284 46.4899 26C46.4899 25.1716 47.1615 24.5 47.9899 24.5C48.8184 24.5 49.4899 25.1716 49.4899 26Z" fill="black"/>
</g>
<defs>
<clipPath id="clip0_562_1354">
<rect width="64" height="64" fill="white"/>
</clipPath>
</defs>
</svg>
