<svg width="64" height="64" viewBox="0 0 64 64" fill="none" xmlns="http://www.w3.org/2000/svg">
<path d="M63.8851 26.5598C63.8006 26.3967 63.6729 26.2601 63.5159 26.1648C63.3589 26.0696 63.1787 26.0194 62.9951 26.0198H48.2751L52.0051 9.23976C52.0558 9.01446 52.027 8.77855 51.9236 8.57207C51.8201 8.36558 51.6484 8.20127 51.4376 8.10704C51.2267 8.01281 50.9898 7.99448 50.7669 8.05513C50.5441 8.11578 50.3491 8.25168 50.2151 8.43977L30.2151 36.4398C30.1148 36.5846 30.0546 36.7534 30.0406 36.929C30.0266 37.1046 30.0592 37.2808 30.1351 37.4398C30.2195 37.6028 30.3473 37.7395 30.5043 37.8347C30.6613 37.93 30.8415 37.9802 31.0251 37.9798H45.7851L42.0551 54.7698C42.0052 54.995 42.0347 55.2305 42.1386 55.4364C42.2424 55.6424 42.4143 55.8061 42.6251 55.8998C42.7525 55.9503 42.888 55.9774 43.0251 55.9798C43.1854 55.9806 43.3436 55.9429 43.4863 55.8698C43.6291 55.7967 43.7521 55.6904 43.8451 55.5598L63.8451 27.5598C63.939 27.4113 63.9922 27.2407 63.9992 27.0651C64.0062 26.8896 63.9668 26.7153 63.8851 26.5598ZM45.0451 50.4398L47.9751 37.2398C48.0066 37.0937 48.005 36.9424 47.9704 36.7971C47.9358 36.6517 47.8691 36.5159 47.7751 36.3998C47.682 36.2819 47.5635 36.1866 47.4284 36.1208C47.2934 36.055 47.1453 36.0205 46.9951 36.0198H32.9751L48.9751 13.5998L46.0451 26.8098C46.0122 26.9551 46.0121 27.1059 46.045 27.2513C46.0779 27.3966 46.1428 27.5327 46.2351 27.6498C46.3292 27.7658 46.4481 27.8593 46.5831 27.9233C46.7181 27.9873 46.8657 28.0203 47.0151 28.0198H61.0851L45.0451 50.4398Z" fill="black"/>
</svg>
