<svg width="24" height="24" viewBox="0 0 24 24" fill="none" xmlns="http://www.w3.org/2000/svg">
<path fill-rule="evenodd" clip-rule="evenodd" d="M12.4871 2.46167C12.5739 2.52522 12.6473 2.60528 12.7031 2.69725C14.4618 5.55475 18.5231 12.5147 18.5006 15.3497C18.4598 17.0468 17.757 18.6606 16.5424 19.8464C15.3277 21.0323 13.6975 21.6961 12 21.6961C10.3024 21.6961 8.67219 21.0323 7.45753 19.8464C6.24287 18.6606 5.54009 17.0468 5.49933 15.3497C5.49933 12.5147 9.56057 5.55475 11.3043 2.69725C11.3717 2.58493 11.4658 2.49092 11.5781 2.42349C11.6699 2.36744 11.7718 2.33006 11.8781 2.31348C11.9844 2.2969 12.0929 2.30145 12.1974 2.32688C12.3019 2.35231 12.4004 2.39812 12.4871 2.46167ZM7.99138 19.3672C9.05558 20.4335 10.4991 21.0345 12.0056 21.0385H12.0206C13.5274 21.0335 14.9709 20.4317 16.035 19.3648C17.0991 18.2979 17.6971 16.8528 17.6981 15.346C17.6981 12.6422 13.3443 5.29975 12.0131 3.11725C10.6818 5.30725 6.32808 12.646 6.32808 15.3497C6.32906 16.8562 6.92718 18.3009 7.99138 19.3672ZM9.73683 17.6372C10.3438 18.2399 11.1652 18.5771 12.0206 18.5747C12.0747 18.5732 12.1286 18.5826 12.179 18.6023C12.2295 18.622 12.2754 18.6516 12.3143 18.6893C12.3531 18.7271 12.3839 18.7722 12.405 18.8221C12.426 18.872 12.4369 18.9256 12.4368 18.9797C12.4339 19.0885 12.3889 19.1919 12.3113 19.2682C12.2336 19.3444 12.1294 19.3876 12.0206 19.3885C10.9502 19.3914 9.9224 18.9692 9.16308 18.2147C9.11926 18.1786 9.08347 18.1336 9.058 18.0828C9.03252 18.032 9.01792 17.9764 9.01513 17.9197C9.01233 17.8629 9.02141 17.8062 9.04178 17.7531C9.06215 17.7001 9.09336 17.6518 9.13341 17.6115C9.17347 17.5712 9.2215 17.5397 9.27443 17.519C9.32735 17.4982 9.38402 17.4888 9.4408 17.4912C9.49758 17.4936 9.55324 17.5079 9.60421 17.533C9.65518 17.5582 9.70035 17.5937 9.73683 17.6372Z" fill="black"/>
</svg>
