<svg width="64" height="64" viewBox="0 0 64 64" fill="none" xmlns="http://www.w3.org/2000/svg">
<path fill-rule="evenodd" clip-rule="evenodd" d="M18.6342 6.56478C18.8656 6.73426 19.0612 6.94775 19.21 7.19299C23.9 14.813 34.73 33.373 34.67 40.933C34.5613 45.4584 32.6872 49.7619 29.4481 52.9242C26.209 56.0864 21.8617 57.8566 17.335 57.8566C12.8082 57.8566 8.46096 56.0864 5.22186 52.9242C1.98277 49.7619 0.1087 45.4584 0 40.933C0 33.373 10.83 14.813 15.48 7.19299C15.6598 6.89347 15.9105 6.64277 16.21 6.46298C16.4548 6.3135 16.7267 6.21382 17.0101 6.16961C17.2935 6.1254 17.5828 6.13753 17.8615 6.20535C18.1402 6.27316 18.4028 6.39531 18.6342 6.56478ZM6.64548 51.6463C9.48335 54.4898 13.3327 56.0924 17.35 56.103H17.39C21.4082 56.0898 25.2575 54.4849 28.0951 51.6398C30.9327 48.7947 32.5274 44.9412 32.53 40.923C32.53 33.713 20.92 14.133 17.37 8.31298C13.82 14.153 2.20999 33.723 2.20999 40.933C2.21262 44.9503 3.80761 48.8028 6.64548 51.6463ZM11.3 47.033C12.9187 48.6401 15.109 49.5392 17.39 49.533C17.5343 49.529 17.678 49.5539 17.8125 49.6064C17.947 49.6589 18.0696 49.7378 18.1731 49.8385C18.2766 49.9392 18.3589 50.0596 18.415 50.1926C18.4712 50.3256 18.5001 50.4686 18.5 50.613C18.4922 50.903 18.3722 51.1788 18.1651 51.3821C17.9581 51.5854 17.6802 51.7005 17.39 51.703C14.5356 51.7106 11.7949 50.5849 9.76999 48.573C9.65314 48.4765 9.55771 48.3566 9.48978 48.2211C9.42185 48.0857 9.38291 47.9375 9.37546 47.7861C9.36802 47.6347 9.39222 47.4835 9.44654 47.342C9.50085 47.2005 9.58407 47.0719 9.69089 46.9643C9.79771 46.8568 9.92579 46.7728 10.0669 46.7175C10.2081 46.6623 10.3592 46.6371 10.5106 46.6436C10.662 46.65 10.8104 46.688 10.9464 46.755C11.0823 46.8221 11.2027 46.9167 11.3 47.033Z" fill="black"/>
</svg>
