<svg width="64" height="64" viewBox="0 0 64 64" fill="none" xmlns="http://www.w3.org/2000/svg">
<g clip-path="url(#clip0_904_1195)">
<path fill-rule="evenodd" clip-rule="evenodd" d="M34.41 17.1855C34.972 17.5721 35.618 17.8191 36.2945 17.906C36.971 17.993 37.6585 17.9174 38.3 17.6855C39.163 18.7494 40.3383 19.5154 41.66 19.8755C42.2177 20.0255 42.7925 20.1028 43.37 20.1055C45.0939 20.1055 46.7472 19.4207 47.9662 18.2017C49.1852 16.9827 49.87 15.3294 49.87 13.6055C49.87 11.8816 49.1852 10.2283 47.9662 9.00928C46.7472 7.79029 45.0939 7.10547 43.37 7.10547C42.4093 7.11297 41.4623 7.33402 40.5975 7.75256C39.7328 8.17111 38.9719 8.77668 38.37 9.52548C37.3776 9.17031 36.2898 9.18928 35.3104 9.57886C34.3311 9.96844 33.5274 10.7019 33.0502 11.6416C32.573 12.5814 32.4548 13.663 32.7181 14.6836C32.9813 15.7042 33.6078 16.5938 34.48 17.1855H34.41ZM35.04 12.3855C35.3625 11.9128 35.8588 11.5866 36.4206 11.478C36.9825 11.3693 37.5645 11.487 38.04 11.8055C38.1648 11.8895 38.3055 11.9471 38.4534 11.9746C38.6013 12.0022 38.7533 11.999 38.9 11.9655C39.0464 11.9322 39.1843 11.8688 39.3048 11.7793C39.4253 11.6897 39.5259 11.5761 39.6 11.4455C39.9757 10.7867 40.5182 10.2384 41.1729 9.85571C41.8277 9.47304 42.5716 9.26946 43.33 9.26547C44.0932 9.26371 44.8434 9.46328 45.5049 9.84399C46.1664 10.2247 46.7158 10.7731 47.0977 11.434C47.4796 12.0948 47.6804 12.8446 47.68 13.6078C47.6796 14.3711 47.4779 15.1207 47.0953 15.7811C46.7127 16.4415 46.1627 16.9893 45.5008 17.3693C44.8389 17.7493 44.0884 17.948 43.3252 17.9454C42.562 17.9428 41.813 17.739 41.1536 17.3545C40.4943 16.97 39.9481 16.4185 39.57 15.7555C39.496 15.6267 39.3968 15.5143 39.2782 15.4249C39.1596 15.3355 39.0242 15.2711 38.88 15.2355C38.797 15.225 38.713 15.225 38.63 15.2355C38.4128 15.2399 38.2013 15.3058 38.02 15.4255C37.6031 15.6945 37.1067 15.8126 36.6134 15.7601C36.12 15.7076 35.6596 15.4875 35.3088 15.1367C34.958 14.7859 34.7379 14.3255 34.6854 13.8321C34.6328 13.3388 34.7509 12.8423 35.02 12.4255L35.04 12.3855ZM46.41 27.7154C46.1199 27.7169 45.8311 27.7538 45.55 27.8254L21.29 34.1054L19.57 15.9854C19.5498 15.713 19.4271 15.4584 19.2267 15.2729C19.0263 15.0873 18.7631 14.9846 18.49 14.9854H8.42999C8.1569 14.9846 7.89366 15.0873 7.69327 15.2729C7.49288 15.4584 7.37023 15.713 7.35001 15.9854L5.23001 38.2654L2.41 38.9954C1.72098 39.1709 1.11005 39.5709 0.673645 40.1323C0.237239 40.6936 0.000211424 41.3843 9.91956e-10 42.0954V55.8154C-6.1141e-06 55.958 0.0282611 56.0993 0.0831604 56.231C0.13806 56.3627 0.218506 56.4822 0.319855 56.5826C0.421204 56.683 0.541457 56.7624 0.673645 56.816C0.805833 56.8697 0.947329 56.8967 1.09 56.8954H48.75C48.8927 56.8967 49.0342 56.8697 49.1664 56.816C49.2986 56.7624 49.4188 56.683 49.5201 56.5826C49.6215 56.4822 49.7019 56.3627 49.7568 56.231C49.8117 56.0993 49.84 55.958 49.84 55.8154V31.1454C49.8374 30.2365 49.4751 29.3656 48.8325 28.7229C48.1898 28.0802 47.3189 27.718 46.41 27.7154ZM17.51 17.1754L18.2 24.4354H8.75L9.44 17.1754H17.51ZM8.51001 26.6054H18.4L19.17 34.6554L7.45999 37.6554L8.51001 26.6054ZM31.83 54.7254V46.3254C31.83 46.0389 31.9438 45.7642 32.1463 45.5617C32.3489 45.3591 32.6236 45.2454 32.91 45.2454H39.17C39.3127 45.244 39.4542 45.271 39.5864 45.3247C39.7186 45.3784 39.8388 45.4577 39.9402 45.5581C40.0415 45.6586 40.1219 45.778 40.1768 45.9097C40.2318 46.0414 40.26 46.1827 40.26 46.3254V54.7254H31.83ZM47.67 54.7254H42.42V46.3254C42.42 45.4634 42.0776 44.6367 41.4681 44.0273C40.8586 43.4178 40.032 43.0754 39.17 43.0754H32.91C32.0498 43.078 31.2257 43.4216 30.6184 44.0308C30.011 44.64 29.67 45.4651 29.67 46.3254V54.7254H2.17001V42.0954C2.16436 41.8642 2.23898 41.6382 2.3812 41.4559C2.52341 41.2736 2.72443 41.1462 2.95001 41.0954L46.09 29.9354C46.2761 29.8924 46.4694 29.8912 46.656 29.932C46.8426 29.9728 47.0177 30.0545 47.1689 30.1712C47.3201 30.2879 47.4435 30.4367 47.5301 30.6069C47.6168 30.7771 47.6646 30.9645 47.67 31.1554V54.7254ZM28.415 17.2086C27.6997 17.6847 26.8593 17.9378 26 17.9358C24.8525 17.9332 23.7526 17.4762 22.9412 16.6647C22.1297 15.8532 21.6727 14.7534 21.6701 13.6058C21.6681 12.7466 21.9212 11.9062 22.3973 11.1909C22.8734 10.4757 23.5511 9.91785 24.3446 9.58813C25.138 9.25841 26.0115 9.17163 26.8543 9.33877C27.6971 9.50591 28.4713 9.91944 29.0789 10.527C29.6864 11.1346 30.1 11.9088 30.2671 12.7516C30.4343 13.5944 30.3475 14.4679 30.0177 15.2613C29.688 16.0548 29.1302 16.7325 28.415 17.2086ZM27.2084 11.7967C26.8502 11.5595 26.4296 11.4339 26 11.4358C25.4263 11.4385 24.8769 11.6683 24.4721 12.0749C24.0673 12.4816 23.84 13.032 23.84 13.6058C23.84 14.0354 23.9676 14.4554 24.2065 14.8125C24.4454 15.1695 24.7849 15.4477 25.182 15.6116C25.5791 15.7755 26.0159 15.8179 26.4371 15.7334C26.8583 15.6488 27.2449 15.4412 27.548 15.1367C27.8511 14.8322 28.057 14.4446 28.1396 14.023C28.2222 13.6014 28.1778 13.1648 28.012 12.7685C27.8462 12.3721 27.5665 12.0339 27.2084 11.7967ZM11.92 43.9355H9.75C9.48021 43.9615 9.22977 44.087 9.04752 44.2876C8.86526 44.4882 8.76428 44.7495 8.76428 45.0205C8.76428 45.2916 8.86526 45.5529 9.04752 45.7535C9.22977 45.9541 9.48021 46.0796 9.75 46.1055H11.92C12.1898 46.0796 12.4402 45.9541 12.6225 45.7535C12.8047 45.5529 12.9057 45.2916 12.9057 45.0205C12.9057 44.7495 12.8047 44.4882 12.6225 44.2876C12.4402 44.087 12.1898 43.9615 11.92 43.9355ZM9.75 48.2656H11.92C12.1898 48.2916 12.4402 48.4171 12.6225 48.6177C12.8047 48.8183 12.9057 49.0796 12.9057 49.3506C12.9057 49.6217 12.8047 49.883 12.6225 50.0836C12.4402 50.2842 12.1898 50.4097 11.92 50.4356H9.75C9.48021 50.4097 9.22977 50.2842 9.04752 50.0836C8.86526 49.883 8.76428 49.6217 8.76428 49.3506C8.76428 49.0796 8.86526 48.8183 9.04752 48.6177C9.22977 48.4171 9.48021 48.2916 9.75 48.2656ZM22.75 43.9357H20.59C20.4388 43.9211 20.2862 43.9384 20.142 43.9863C19.9978 44.0342 19.8653 44.1117 19.7528 44.2139C19.6404 44.3161 19.5505 44.4406 19.489 44.5795C19.4275 44.7185 19.3958 44.8687 19.3958 45.0207C19.3958 45.1726 19.4275 45.3228 19.489 45.4618C19.5505 45.6007 19.6404 45.7253 19.7528 45.8274C19.8653 45.9296 19.9978 46.0071 20.142 46.055C20.2862 46.103 20.4388 46.1202 20.59 46.1056H22.75C22.9013 46.1202 23.0539 46.103 23.1981 46.055C23.3422 46.0071 23.4748 45.9296 23.5872 45.8274C23.6997 45.7253 23.7896 45.6007 23.8511 45.4618C23.9126 45.3228 23.9443 45.1726 23.9443 45.0207C23.9443 44.8687 23.9126 44.7185 23.8511 44.5795C23.7896 44.4406 23.6997 44.3161 23.5872 44.2139C23.4748 44.1117 23.3422 44.0342 23.1981 43.9863C23.0539 43.9384 22.9013 43.9211 22.75 43.9357ZM20.59 48.2657H22.75C22.9013 48.2512 23.0539 48.2685 23.1981 48.3164C23.3422 48.3643 23.4748 48.4418 23.5872 48.544C23.6997 48.6461 23.7896 48.7707 23.8511 48.9096C23.9126 49.0486 23.9443 49.1988 23.9443 49.3508C23.9443 49.5027 23.9126 49.6529 23.8511 49.7919C23.7896 49.9308 23.6997 50.0554 23.5872 50.1575C23.4748 50.2597 23.3422 50.3372 23.1981 50.3851C23.0539 50.433 22.9013 50.4503 22.75 50.4358H20.59C20.4388 50.4503 20.2862 50.433 20.142 50.3851C19.9978 50.3372 19.8653 50.2597 19.7528 50.1575C19.6404 50.0554 19.5505 49.9308 19.489 49.7919C19.4275 49.6529 19.3958 49.5027 19.3958 49.3508C19.3958 49.1988 19.4275 49.0486 19.489 48.9096C19.5505 48.7707 19.6404 48.6461 19.7528 48.544C19.8653 48.4418 19.9978 48.3643 20.142 48.3164C20.2862 48.2685 20.4388 48.2512 20.59 48.2657Z" fill="black"/>
</g>
<defs>
<clipPath id="clip0_904_1195">
<rect width="64" height="64" fill="white"/>
</clipPath>
</defs>
</svg>
