<svg width="24" height="24" viewBox="0 0 24 24" fill="none" xmlns="http://www.w3.org/2000/svg">
<path fill-rule="evenodd" clip-rule="evenodd" d="M11.1197 20.662C11.1984 20.7408 11.2997 20.7783 11.4009 20.7783L11.4047 20.7745C11.5059 20.7745 11.6072 20.737 11.6859 20.6583C11.8434 20.5045 11.8434 20.2533 11.6859 20.0958L3.99093 12.4008H20.9784C21.1959 12.4008 21.3759 12.2208 21.3759 12.0033C21.3759 11.7858 21.1997 11.6058 20.9784 11.6058H3.98325L11.6822 3.90328C11.8397 3.74953 11.8397 3.49828 11.6822 3.34078C11.5284 3.18328 11.2772 3.18328 11.1197 3.34078L2.74218 11.722C2.58468 11.8758 2.58468 12.127 2.74218 12.2845L11.1197 20.662Z" fill="black"/>
</svg>
