<svg width="64" height="64" viewBox="0 0 64 64" fill="none" xmlns="http://www.w3.org/2000/svg">
<g clip-path="url(#clip0_1530_4862)">
<path fill-rule="evenodd" clip-rule="evenodd" d="M63.69 29.6521C63.9 29.8621 64 30.1321 64 30.4021L63.99 30.4121C63.99 30.6821 63.89 30.9521 63.68 31.1621C63.27 31.5821 62.6 31.5821 62.18 31.1621L41.66 10.6421L41.66 55.9421C41.66 56.5221 41.18 57.0021 40.6 57.0021C40.02 57.0021 39.54 56.5321 39.54 55.9421L39.54 10.6216L19 31.1521C18.59 31.5721 17.92 31.5721 17.5 31.1521C17.08 30.7421 17.08 30.0721 17.5 29.6521L39.85 7.31207C40.26 6.89207 40.93 6.89207 41.35 7.31207L63.69 29.6521Z" fill="black"/>
</g>
<defs>
<clipPath id="clip0_1530_4862">
<rect width="64" height="64" fill="white"/>
</clipPath>
</defs>
</svg>
