<svg width="64" height="64" viewBox="0 0 64 64" fill="none" xmlns="http://www.w3.org/2000/svg">
<path fill-rule="evenodd" clip-rule="evenodd" d="M27.35 55.0968C27.14 55.3068 26.87 55.4068 26.6 55.4068L26.59 55.3968C26.32 55.3968 26.05 55.2968 25.84 55.0868C25.42 54.6768 25.42 54.0068 25.84 53.5868L46.36 33.0668H1.06001C0.480007 33.0668 3.94695e-06 32.5868 3.94695e-06 32.0068C3.94695e-06 31.4268 0.470005 30.9468 1.06001 30.9468H46.3805L25.85 10.4068C25.43 9.9968 25.43 9.3268 25.85 8.9068C26.26 8.4868 26.93 8.4868 27.35 8.9068L49.69 31.2568C50.11 31.6668 50.11 32.3368 49.69 32.7568L27.35 55.0968Z" fill="black"/>
</svg>
