<svg width="24" height="24" viewBox="0 0 24 24" fill="none" xmlns="http://www.w3.org/2000/svg">
<g clip-path="url(#clip0_1530_5858)">
<path fill-rule="evenodd" clip-rule="evenodd" d="M23.8837 11.1187C23.9625 11.1974 24 11.2987 24 11.3999L23.9962 11.4037C23.9962 11.5049 23.9587 11.6062 23.88 11.6849C23.7262 11.8424 23.475 11.8424 23.3175 11.6849L15.6225 3.98992L15.6225 20.9774C15.6225 21.1949 15.4425 21.3749 15.225 21.3749C15.0075 21.3749 14.8275 21.1987 14.8275 20.9774L14.8275 3.98224L7.12499 11.6812C6.97124 11.8387 6.71999 11.8387 6.56249 11.6812C6.40499 11.5274 6.40499 11.2762 6.56249 11.1187L14.9437 2.74117C15.0975 2.58367 15.3487 2.58367 15.5062 2.74117L23.8837 11.1187Z" fill="black"/>
</g>
<defs>
<clipPath id="clip0_1530_5858">
<rect width="24" height="24" fill="white"/>
</clipPath>
</defs>
</svg>
