<svg width="64" height="64" viewBox="0 0 64 64" fill="none" xmlns="http://www.w3.org/2000/svg">
<g clip-path="url(#clip0_1530_4877)">
<path fill-rule="evenodd" clip-rule="evenodd" d="M63.69 34.347C63.9 34.137 64 33.867 64 33.597L63.99 33.587C63.99 33.317 63.89 33.047 63.68 32.837C63.27 32.417 62.6 32.417 62.18 32.837L41.66 53.357L41.66 8.05695C41.66 7.47695 41.18 6.99695 40.6 6.99695C40.02 6.99695 39.54 7.46695 39.54 8.05695L39.54 53.3774L19 32.847C18.59 32.427 17.92 32.427 17.5 32.847C17.08 33.257 17.08 33.927 17.5 34.347L39.85 56.687C40.26 57.107 40.93 57.107 41.35 56.687L63.69 34.347Z" fill="black"/>
</g>
<defs>
<clipPath id="clip0_1530_4877">
<rect width="64" height="64" fill="white"/>
</clipPath>
</defs>
</svg>
