<svg width="24" height="24" viewBox="0 0 24 24" fill="none" xmlns="http://www.w3.org/2000/svg">
<path fill-rule="evenodd" clip-rule="evenodd" d="M13.7438 20.662C13.8225 20.7408 13.9238 20.7783 14.025 20.7783L14.0288 20.7745C14.13 20.7745 14.2313 20.737 14.31 20.6583C14.4675 20.5045 14.4675 20.2533 14.31 20.0958L6.61501 12.4008H23.6025C23.82 12.4008 24 12.2208 24 12.0033C24 11.7858 23.8238 11.6058 23.6025 11.6058H6.60733L14.3063 3.90328C14.4638 3.74953 14.4638 3.49828 14.3063 3.34078C14.1525 3.18328 13.9013 3.18328 13.7438 3.34078L5.36626 11.722C5.20876 11.8758 5.20876 12.127 5.36626 12.2845L13.7438 20.662Z" fill="black"/>
</svg>
