<svg width="64" height="64" viewBox="0 0 64 64" fill="none" xmlns="http://www.w3.org/2000/svg">
<g clip-path="url(#clip0_1530_4847)">
<path fill-rule="evenodd" clip-rule="evenodd" d="M41.345 55.0968C41.135 55.3068 40.865 55.4068 40.595 55.4068L40.585 55.3968C40.315 55.3968 40.045 55.2968 39.835 55.0868C39.415 54.6768 39.415 54.0068 39.835 53.5868L60.355 33.0668H15.055C14.475 33.0668 13.995 32.5868 13.995 32.0068C13.995 31.4268 14.465 30.9468 15.055 30.9468H60.3755L39.845 10.4068C39.425 9.9968 39.425 9.3268 39.845 8.9068C40.255 8.4868 40.925 8.4868 41.345 8.9068L63.685 31.2568C64.105 31.6668 64.105 32.3368 63.685 32.7568L41.345 55.0968Z" fill="black"/>
</g>
<defs>
<clipPath id="clip0_1530_4847">
<rect width="64" height="64" fill="white"/>
</clipPath>
</defs>
</svg>
