<svg width="24" height="24" viewBox="0 0 24 24" fill="none" xmlns="http://www.w3.org/2000/svg">
<path fill-rule="evenodd" clip-rule="evenodd" d="M12.8803 20.662C12.8016 20.7408 12.7003 20.7783 12.5991 20.7783L12.5953 20.7745C12.4941 20.7745 12.3928 20.737 12.3141 20.6583C12.1566 20.5045 12.1566 20.2533 12.3141 20.0958L20.0091 12.4008H3.02157C2.80407 12.4008 2.62407 12.2208 2.62407 12.0033C2.62407 11.7858 2.80032 11.6058 3.02157 11.6058H20.0168L12.3178 3.90328C12.1603 3.74953 12.1603 3.49828 12.3178 3.34078C12.4716 3.18328 12.7228 3.18328 12.8803 3.34078L21.2578 11.722C21.4153 11.8758 21.4153 12.127 21.2578 12.2845L12.8803 20.662Z" fill="black"/>
</svg>
