<svg width="24" height="24" viewBox="0 0 24 24" fill="none" xmlns="http://www.w3.org/2000/svg">
<g clip-path="url(#clip0_1530_5868)">
<path fill-rule="evenodd" clip-rule="evenodd" d="M17.4394 12.8794C17.5181 12.8006 17.5556 12.6994 17.5556 12.5981L17.5519 12.5944C17.5519 12.4931 17.5144 12.3919 17.4356 12.3131C17.2819 12.1556 17.0306 12.1556 16.8731 12.3131L9.17812 20.0081L9.17813 3.02063C9.17813 2.80313 8.99813 2.62313 8.78063 2.62313C8.56313 2.62313 8.38313 2.79938 8.38313 3.02063L8.38313 20.0158L0.680626 12.3169C0.526876 12.1594 0.275626 12.1594 0.118126 12.3169C-0.0393738 12.4706 -0.0393738 12.7219 0.118126 12.8794L8.49937 21.2569C8.65312 21.4144 8.90437 21.4144 9.06187 21.2569L17.4394 12.8794Z" fill="black"/>
</g>
<defs>
<clipPath id="clip0_1530_5868">
<rect width="24" height="24" fill="white"/>
</clipPath>
</defs>
</svg>
