<svg width="64" height="64" viewBox="0 0 64 64" fill="none" xmlns="http://www.w3.org/2000/svg">
<path fill-rule="evenodd" clip-rule="evenodd" d="M29.6525 55.0968C29.8625 55.3068 30.1325 55.4068 30.4025 55.4068L30.4125 55.3968C30.6825 55.3968 30.9525 55.2968 31.1625 55.0868C31.5825 54.6768 31.5825 54.0068 31.1625 53.5868L10.6425 33.0668H55.9425C56.5225 33.0668 57.0025 32.5868 57.0025 32.0068C57.0025 31.4268 56.5325 30.9468 55.9425 30.9468H10.622L31.1525 10.4068C31.5725 9.9968 31.5725 9.3268 31.1525 8.9068C30.7425 8.4868 30.0725 8.4868 29.6525 8.9068L7.3125 31.2568C6.8925 31.6668 6.8925 32.3368 7.3125 32.7568L29.6525 55.0968Z" fill="black"/>
</svg>
