<svg width="64" height="64" viewBox="0 0 64 64" fill="none" xmlns="http://www.w3.org/2000/svg">
<path fill-rule="evenodd" clip-rule="evenodd" d="M55.0975 34.347C55.3075 34.137 55.4075 33.867 55.4075 33.597L55.3975 33.587C55.3975 33.317 55.2975 33.047 55.0875 32.837C54.6775 32.417 54.0075 32.417 53.5875 32.837L33.0675 53.357L33.0675 8.05695C33.0675 7.47695 32.5875 6.99695 32.0075 6.99695C31.4275 6.99695 30.9475 7.46695 30.9475 8.05695L30.9475 53.3774L10.4075 32.847C9.9975 32.427 9.3275 32.427 8.9075 32.847C8.4875 33.257 8.4875 33.927 8.9075 34.347L31.2575 56.687C31.6675 57.107 32.3375 57.107 32.7575 56.687L55.0975 34.347Z" fill="black"/>
</svg>
