<svg width="64" height="64" viewBox="0 0 64 64" fill="none" xmlns="http://www.w3.org/2000/svg">
<path fill-rule="evenodd" clip-rule="evenodd" d="M55.0975 29.6521C55.3075 29.8621 55.4075 30.1321 55.4075 30.4021L55.3975 30.4121C55.3975 30.6821 55.2975 30.9521 55.0875 31.1621C54.6775 31.5821 54.0075 31.5821 53.5875 31.1621L33.0675 10.6421L33.0675 55.9421C33.0675 56.5221 32.5875 57.0021 32.0075 57.0021C31.4275 57.0021 30.9475 56.5321 30.9475 55.9421L30.9475 10.6216L10.4075 31.1521C9.9975 31.5721 9.3275 31.5721 8.9075 31.1521C8.4875 30.7421 8.4875 30.0721 8.9075 29.6521L31.2575 7.31207C31.6675 6.89207 32.3375 6.89207 32.7575 7.31207L55.0975 29.6521Z" fill="black"/>
</svg>
