<svg width="24" height="24" viewBox="0 0 24 24" fill="none" xmlns="http://www.w3.org/2000/svg">
<g clip-path="url(#clip0_1530_5843)">
<path fill-rule="evenodd" clip-rule="evenodd" d="M15.5044 20.662C15.4256 20.7408 15.3244 20.7783 15.2231 20.7783L15.2194 20.7745C15.1181 20.7745 15.0169 20.737 14.9381 20.6583C14.7806 20.5045 14.7806 20.2533 14.9381 20.0958L22.6331 12.4008H5.64563C5.42813 12.4008 5.24813 12.2208 5.24813 12.0033C5.24813 11.7858 5.42438 11.6058 5.64563 11.6058H22.6408L14.9419 3.90328C14.7844 3.74953 14.7844 3.49828 14.9419 3.34078C15.0956 3.18328 15.3469 3.18328 15.5044 3.34078L23.8819 11.722C24.0394 11.8758 24.0394 12.127 23.8819 12.2845L15.5044 20.662Z" fill="black"/>
</g>
<defs>
<clipPath id="clip0_1530_5843">
<rect width="24" height="24" fill="white"/>
</clipPath>
</defs>
</svg>
