<svg width="64" height="64" viewBox="0 0 64 64" fill="none" xmlns="http://www.w3.org/2000/svg">
<path fill-rule="evenodd" clip-rule="evenodd" d="M22.655 55.0968C22.865 55.3068 23.135 55.4068 23.405 55.4068L23.415 55.3968C23.685 55.3968 23.955 55.2968 24.165 55.0868C24.585 54.6768 24.585 54.0068 24.165 53.5868L3.645 33.0668H48.945C49.525 33.0668 50.005 32.5868 50.005 32.0068C50.005 31.4268 49.535 30.9468 48.945 30.9468H3.62451L24.155 10.4068C24.575 9.9968 24.575 9.3268 24.155 8.9068C23.745 8.4868 23.075 8.4868 22.655 8.9068L0.315 31.2568C-0.105 31.6668 -0.105 32.3368 0.315 32.7568L22.655 55.0968Z" fill="black"/>
</svg>
