<svg width="24" height="24" viewBox="0 0 24 24" fill="none" xmlns="http://www.w3.org/2000/svg">
<g clip-path="url(#clip0_1530_5873)">
<path fill-rule="evenodd" clip-rule="evenodd" d="M23.8837 12.8794C23.9625 12.8006 24 12.6994 24 12.5981L23.9962 12.5944C23.9962 12.4931 23.9587 12.3919 23.88 12.3131C23.7262 12.1556 23.475 12.1556 23.3175 12.3131L15.6225 20.0081L15.6225 3.02062C15.6225 2.80313 15.4425 2.62313 15.225 2.62313C15.0075 2.62313 14.8275 2.79938 14.8275 3.02062L14.8275 20.0158L7.12499 12.3169C6.97124 12.1594 6.71999 12.1594 6.56249 12.3169C6.40499 12.4706 6.40499 12.7219 6.56249 12.8794L14.9437 21.2569C15.0975 21.4144 15.3487 21.4144 15.5062 21.2569L23.8837 12.8794Z" fill="black"/>
</g>
<defs>
<clipPath id="clip0_1530_5873">
<rect width="24" height="24" fill="white"/>
</clipPath>
</defs>
</svg>
