<svg width="24" height="24" viewBox="0 0 24 24" fill="none" xmlns="http://www.w3.org/2000/svg">
<path fill-rule="evenodd" clip-rule="evenodd" d="M8.49563 20.662C8.57438 20.7408 8.67562 20.7783 8.77688 20.7783L8.78063 20.7745C8.88188 20.7745 8.98313 20.737 9.06188 20.6583C9.21938 20.5045 9.21938 20.2533 9.06188 20.0958L1.36688 12.4008H18.3544C18.5719 12.4008 18.7519 12.2208 18.7519 12.0033C18.7519 11.7858 18.5756 11.6058 18.3544 11.6058H1.35919L9.05813 3.90328C9.21562 3.74953 9.21562 3.49828 9.05813 3.34078C8.90438 3.18328 8.65312 3.18328 8.49563 3.34078L0.118125 11.722C-0.039375 11.8758 -0.039375 12.127 0.118125 12.2845L8.49563 20.662Z" fill="black"/>
</svg>
