<svg width="64" height="64" viewBox="0 0 64 64" fill="none" xmlns="http://www.w3.org/2000/svg">
<g clip-path="url(#clip0_1530_4857)">
<path fill-rule="evenodd" clip-rule="evenodd" d="M46.505 29.6521C46.715 29.8621 46.815 30.1321 46.815 30.4021L46.805 30.4121C46.805 30.6821 46.705 30.9521 46.495 31.1621C46.085 31.5821 45.415 31.5821 44.995 31.1621L24.475 10.6421L24.475 55.9421C24.475 56.5221 23.995 57.0021 23.415 57.0021C22.835 57.0021 22.355 56.5321 22.355 55.9421L22.355 10.6216L1.815 31.1521C1.405 31.5721 0.735003 31.5721 0.315003 31.1521C-0.104997 30.7421 -0.104997 30.0721 0.315003 29.6521L22.665 7.31207C23.075 6.89207 23.745 6.89207 24.165 7.31207L46.505 29.6521Z" fill="black"/>
</g>
<defs>
<clipPath id="clip0_1530_4857">
<rect width="64" height="64" fill="white"/>
</clipPath>
</defs>
</svg>
