<svg width="64" height="64" viewBox="0 0 64 64" fill="none" xmlns="http://www.w3.org/2000/svg">
<g clip-path="url(#clip0_1530_4832)">
<path fill-rule="evenodd" clip-rule="evenodd" d="M36.65 55.0968C36.86 55.3068 37.13 55.4068 37.4 55.4068L37.41 55.3968C37.68 55.3968 37.95 55.2968 38.16 55.0868C38.58 54.6768 38.58 54.0068 38.16 53.5868L17.64 33.0668H62.94C63.52 33.0668 64 32.5868 64 32.0068C64 31.4268 63.53 30.9468 62.94 30.9468H17.6195L38.15 10.4068C38.57 9.9968 38.57 9.3268 38.15 8.9068C37.74 8.4868 37.07 8.4868 36.65 8.9068L14.31 31.2568C13.89 31.6668 13.89 32.3368 14.31 32.7568L36.65 55.0968Z" fill="black"/>
</g>
<defs>
<clipPath id="clip0_1530_4832">
<rect width="64" height="64" fill="white"/>
</clipPath>
</defs>
</svg>
