<svg width="64" height="64" viewBox="0 0 64 64" fill="none" xmlns="http://www.w3.org/2000/svg">
<g clip-path="url(#clip0_1530_4872)">
<path fill-rule="evenodd" clip-rule="evenodd" d="M46.505 34.347C46.715 34.137 46.815 33.867 46.815 33.597L46.805 33.587C46.805 33.317 46.705 33.047 46.495 32.837C46.085 32.417 45.415 32.417 44.995 32.837L24.475 53.357L24.475 8.05696C24.475 7.47696 23.995 6.99696 23.415 6.99696C22.835 6.99696 22.355 7.46696 22.355 8.05696L22.355 53.3774L1.815 32.847C1.405 32.427 0.735003 32.427 0.315003 32.847C-0.104997 33.257 -0.104997 33.927 0.315003 34.347L22.665 56.687C23.075 57.107 23.745 57.107 24.165 56.687L46.505 34.347Z" fill="black"/>
</g>
<defs>
<clipPath id="clip0_1530_4872">
<rect width="64" height="64" fill="white"/>
</clipPath>
</defs>
</svg>
