<svg width="24" height="24" viewBox="0 0 24 24" fill="none" xmlns="http://www.w3.org/2000/svg">
<path fill-rule="evenodd" clip-rule="evenodd" d="M20.6615 11.1187C20.7403 11.1974 20.7778 11.2987 20.7778 11.3999L20.774 11.4037C20.774 11.5049 20.7365 11.6062 20.6578 11.6849C20.504 11.8424 20.2528 11.8424 20.0953 11.6849L12.4003 3.98992L12.4003 20.9774C12.4003 21.1949 12.2203 21.3749 12.0028 21.3749C11.7853 21.3749 11.6053 21.1987 11.6053 20.9774L11.6053 3.98224L3.90279 11.6812C3.74904 11.8387 3.49779 11.8387 3.34029 11.6812C3.18279 11.5274 3.18279 11.2762 3.34029 11.1187L11.7215 2.74117C11.8753 2.58367 12.1265 2.58367 12.284 2.74117L20.6615 11.1187Z" fill="black"/>
</svg>
