<svg width="24" height="24" viewBox="0 0 24 24" fill="none" xmlns="http://www.w3.org/2000/svg">
<g clip-path="url(#clip0_1530_5914)">
<path fill-rule="evenodd" clip-rule="evenodd" d="M17.4394 11.1187C17.5181 11.1974 17.5556 11.2987 17.5556 11.3999L17.5519 11.4037C17.5519 11.5049 17.5144 11.6062 17.4356 11.6849C17.2819 11.8424 17.0306 11.8424 16.8731 11.6849L9.17813 3.98992L9.17813 20.9774C9.17813 21.1949 8.99813 21.3749 8.78063 21.3749C8.56313 21.3749 8.38313 21.1987 8.38313 20.9774L8.38313 3.98224L0.680626 11.6812C0.526876 11.8387 0.275626 11.8387 0.118126 11.6812C-0.0393738 11.5274 -0.0393738 11.2762 0.118126 11.1187L8.49937 2.74117C8.65312 2.58367 8.90438 2.58367 9.06187 2.74117L17.4394 11.1187Z" fill="black"/>
</g>
<defs>
<clipPath id="clip0_1530_5914">
<rect width="24" height="24" fill="white"/>
</clipPath>
</defs>
</svg>
