<svg width="24" height="24" viewBox="0 0 24 24" fill="none" xmlns="http://www.w3.org/2000/svg">
<path fill-rule="evenodd" clip-rule="evenodd" d="M20.6616 12.8794C20.7403 12.8006 20.7778 12.6994 20.7778 12.5981L20.7741 12.5944C20.7741 12.4931 20.7366 12.3919 20.6578 12.3131C20.5041 12.1556 20.2528 12.1556 20.0953 12.3131L12.4003 20.0081L12.4003 3.02062C12.4003 2.80313 12.2203 2.62313 12.0028 2.62313C11.7853 2.62313 11.6053 2.79938 11.6053 3.02062L11.6053 20.0158L3.90282 12.3169C3.74907 12.1594 3.49782 12.1594 3.34032 12.3169C3.18282 12.4706 3.18282 12.7219 3.34032 12.8794L11.7216 21.2569C11.8753 21.4144 12.1266 21.4144 12.2841 21.2569L20.6616 12.8794Z" fill="black"/>
</svg>
