<svg width="24" height="24" viewBox="0 0 24 24" fill="none" xmlns="http://www.w3.org/2000/svg">
<path fill-rule="evenodd" clip-rule="evenodd" d="M10.2563 20.662C10.1775 20.7408 10.0763 20.7783 9.97502 20.7783L9.97127 20.7745C9.87002 20.7745 9.76877 20.737 9.69002 20.6583C9.53252 20.5045 9.53252 20.2533 9.69002 20.0958L17.385 12.4008H0.397519C0.180018 12.4008 1.7575e-05 12.2208 1.7575e-05 12.0033C1.7575e-05 11.7858 0.176268 11.6058 0.397519 11.6058H17.3927L9.69377 3.90328C9.53627 3.74953 9.53627 3.49828 9.69377 3.34078C9.84752 3.18328 10.0988 3.18328 10.2563 3.34078L18.6338 11.722C18.7913 11.8758 18.7913 12.127 18.6338 12.2845L10.2563 20.662Z" fill="black"/>
</svg>
