<svg width="64" height="64" viewBox="0 0 64 64" fill="none" xmlns="http://www.w3.org/2000/svg">
<path fill-rule="evenodd" clip-rule="evenodd" d="M34.3475 55.0968C34.1375 55.3068 33.8675 55.4068 33.5975 55.4068L33.5875 55.3968C33.3175 55.3968 33.0475 55.2968 32.8375 55.0868C32.4175 54.6768 32.4175 54.0068 32.8375 53.5868L53.3575 33.0668H8.0575C7.4775 33.0668 6.9975 32.5868 6.9975 32.0068C6.9975 31.4268 7.4675 30.9468 8.0575 30.9468H53.378L32.8475 10.4068C32.4275 9.9968 32.4275 9.3268 32.8475 8.9068C33.2575 8.4868 33.9275 8.4868 34.3475 8.9068L56.6875 31.2568C57.1075 31.6668 57.1075 32.3368 56.6875 32.7568L34.3475 55.0968Z" fill="black"/>
</svg>
