<svg width="64" height="64" viewBox="0 0 64 64" fill="none" xmlns="http://www.w3.org/2000/svg">
<g clip-path="url(#clip0_1530_3179)">
<path fill-rule="evenodd" clip-rule="evenodd" d="M21.45 20.13H62.94V20.12C63.52 20.12 64 19.64 64 19.06C64 18.48 63.53 18 62.94 18H21.45C20.87 18 20.39 18.49 20.39 19.07C20.39 19.65 20.86 20.13 21.45 20.13ZM62.94 32.89H21.45C20.86 32.89 20.39 32.41 20.39 31.83C20.39 31.25 20.87 30.77 21.45 30.77H62.94C63.53 30.77 64 31.25 64 31.83C64 32.41 63.52 32.89 62.94 32.89ZM62.94 45.66H21.45C20.86 45.66 20.39 45.18 20.39 44.6C20.39 44.02 20.87 43.54 21.45 43.54H62.94C63.53 43.54 64 44.02 64 44.6C64 45.18 63.52 45.66 62.94 45.66Z" fill="black"/>
</g>
<defs>
<clipPath id="clip0_1530_3179">
<rect width="64" height="64" fill="white"/>
</clipPath>
</defs>
</svg>
