<svg width="24" height="24" viewBox="0 0 24 24" fill="none" xmlns="http://www.w3.org/2000/svg">
<g clip-path="url(#clip0_1530_5773)">
<path fill-rule="evenodd" clip-rule="evenodd" d="M8.04374 7.54875H23.6025V7.545C23.82 7.545 24 7.365 24 7.1475C24 6.93 23.8237 6.75 23.6025 6.75H8.04374C7.82624 6.75 7.64624 6.93375 7.64624 7.15125C7.64624 7.36875 7.82249 7.54875 8.04374 7.54875ZM23.6025 12.3338H8.04374C7.82249 12.3338 7.64624 12.1537 7.64624 11.9362C7.64624 11.7188 7.82624 11.5388 8.04374 11.5388H23.6025C23.8237 11.5388 24 11.7188 24 11.9362C24 12.1537 23.82 12.3338 23.6025 12.3338ZM23.6025 17.1225H8.04374C7.82249 17.1225 7.64624 16.9425 7.64624 16.725C7.64624 16.5075 7.82624 16.3275 8.04374 16.3275H23.6025C23.8237 16.3275 24 16.5075 24 16.725C24 16.9425 23.82 17.1225 23.6025 17.1225Z" fill="black"/>
</g>
<defs>
<clipPath id="clip0_1530_5773">
<rect width="24" height="24" fill="white"/>
</clipPath>
</defs>
</svg>
