<svg width="64" height="64" viewBox="0 0 64 64" fill="none" xmlns="http://www.w3.org/2000/svg">
<path fill-rule="evenodd" clip-rule="evenodd" d="M11.06 20.13H52.55V20.12C53.13 20.12 53.61 19.64 53.61 19.06C53.61 18.48 53.14 18 52.55 18H11.06C10.48 18 10 18.49 10 19.07C10 19.65 10.47 20.13 11.06 20.13ZM52.55 32.89H11.06C10.47 32.89 10 32.41 10 31.83C10 31.25 10.48 30.77 11.06 30.77H52.55C53.14 30.77 53.61 31.25 53.61 31.83C53.61 32.41 53.13 32.89 52.55 32.89ZM52.55 45.66H11.06C10.47 45.66 10 45.18 10 44.6C10 44.02 10.48 43.54 11.06 43.54H52.55C53.14 43.54 53.61 44.02 53.61 44.6C53.61 45.18 53.13 45.66 52.55 45.66Z" fill="black"/>
</svg>
