<svg width="64" height="64" viewBox="0 0 64 64" fill="none" xmlns="http://www.w3.org/2000/svg">
<path fill-rule="evenodd" clip-rule="evenodd" d="M1.06 20.13H42.55V20.12C43.13 20.12 43.61 19.64 43.61 19.06C43.61 18.48 43.14 18 42.55 18H1.06C0.48 18 0 18.49 0 19.07C0 19.65 0.47 20.13 1.06 20.13ZM42.55 32.89H1.06C0.47 32.89 0 32.41 0 31.83C0 31.25 0.48 30.77 1.06 30.77H42.55C43.14 30.77 43.61 31.25 43.61 31.83C43.61 32.41 43.13 32.89 42.55 32.89ZM42.55 45.66H1.06C0.47 45.66 0 45.18 0 44.6C0 44.02 0.48 43.54 1.06 43.54H42.55C43.14 43.54 43.61 44.02 43.61 44.6C43.61 45.18 43.13 45.66 42.55 45.66Z" fill="black"/>
</svg>
