<svg width="24" height="24" viewBox="0 0 24 24" fill="none" xmlns="http://www.w3.org/2000/svg">
<path fill-rule="evenodd" clip-rule="evenodd" d="M0.3975 7.54875H15.9562V7.545C16.1737 7.545 16.3538 7.365 16.3538 7.1475C16.3538 6.93 16.1775 6.75 15.9562 6.75H0.3975C0.18 6.75 0 6.93375 0 7.15125C0 7.36875 0.17625 7.54875 0.3975 7.54875ZM15.9562 12.3338H0.3975C0.17625 12.3338 0 12.1537 0 11.9362C0 11.7188 0.18 11.5388 0.3975 11.5388H15.9562C16.1775 11.5388 16.3538 11.7188 16.3538 11.9362C16.3538 12.1537 16.1737 12.3338 15.9562 12.3338ZM15.9562 17.1225H0.3975C0.17625 17.1225 0 16.9425 0 16.725C0 16.5075 0.18 16.3275 0.3975 16.3275H15.9562C16.1775 16.3275 16.3538 16.5075 16.3538 16.725C16.3538 16.9425 16.1737 17.1225 15.9562 17.1225Z" fill="black"/>
</svg>
