<svg width="24" height="24" viewBox="0 0 24 24" fill="none" xmlns="http://www.w3.org/2000/svg">
<path fill-rule="evenodd" clip-rule="evenodd" d="M4.1475 7.54875H19.7062V7.545C19.9237 7.545 20.1038 7.365 20.1038 7.1475C20.1038 6.93 19.9275 6.75 19.7062 6.75H4.1475C3.93 6.75 3.75 6.93375 3.75 7.15125C3.75 7.36875 3.92625 7.54875 4.1475 7.54875ZM19.7062 12.3338H4.1475C3.92625 12.3338 3.75 12.1537 3.75 11.9362C3.75 11.7188 3.93 11.5388 4.1475 11.5388H19.7062C19.9275 11.5388 20.1038 11.7188 20.1038 11.9362C20.1038 12.1537 19.9237 12.3338 19.7062 12.3338ZM19.7062 17.1225H4.1475C3.92625 17.1225 3.75 16.9425 3.75 16.725C3.75 16.5075 3.93 16.3275 4.1475 16.3275H19.7062C19.9275 16.3275 20.1038 16.5075 20.1038 16.725C20.1038 16.9425 19.9237 17.1225 19.7062 17.1225Z" fill="black"/>
</svg>
