<svg width="24" height="24" viewBox="0 0 24 24" fill="none" xmlns="http://www.w3.org/2000/svg">
<g clip-path="url(#clip0_1530_5810)">
<path d="M24 16.3628C24 16.2616 23.9625 16.1603 23.8838 16.0816L15.33 7.52785C15.1425 7.34035 14.8913 7.23535 14.625 7.23535C14.3588 7.23535 14.1075 7.34035 13.92 7.52785L5.36626 16.0816C5.20876 16.2391 5.20876 16.4904 5.36626 16.6441C5.52376 16.8016 5.77501 16.8016 5.92876 16.6441L14.4825 8.09035C14.535 8.03785 14.5913 8.03035 14.625 8.03035C14.6588 8.03035 14.715 8.03785 14.7638 8.09035L23.3175 16.6441C23.475 16.8016 23.7263 16.8016 23.88 16.6441C23.9588 16.5653 23.9963 16.4641 23.9963 16.3628L24 16.3628Z" fill="black"/>
</g>
<defs>
<clipPath id="clip0_1530_5810">
<rect width="24" height="24" fill="white"/>
</clipPath>
</defs>
</svg>
