<svg width="24" height="24" viewBox="0 0 24 24" fill="none" xmlns="http://www.w3.org/2000/svg">
<path d="M16.365 21.3749C16.2637 21.3749 16.1625 21.3374 16.0837 21.2587L7.52999 12.7049C7.34249 12.5174 7.23749 12.2662 7.23749 11.9999C7.23749 11.7337 7.34249 11.4824 7.52999 11.2949L16.0837 2.74117C16.2412 2.58367 16.4925 2.58367 16.6462 2.74117C16.8037 2.89867 16.8037 3.14992 16.6462 3.30367L8.09249 11.8574C8.03999 11.9099 8.03249 11.9662 8.03249 11.9999C8.03249 12.0337 8.03999 12.0899 8.09249 12.1387L16.6462 20.6924C16.8037 20.8499 16.8037 21.1012 16.6462 21.2549C16.5675 21.3337 16.4662 21.3712 16.365 21.3712V21.3749Z" fill="black"/>
</svg>
