<svg width="64" height="64" viewBox="0 0 64 64" fill="none" xmlns="http://www.w3.org/2000/svg">
<path fill-rule="evenodd" clip-rule="evenodd" d="M0.315 56.6901C0.525 56.9001 0.795 57.0001 1.065 57.0001H1.075C1.345 57.0001 1.615 56.9001 1.825 56.6901L25.0027 33.5027L48.195 56.6901C48.405 56.9001 48.675 57.0001 48.945 57.0001V56.9901C49.215 56.9901 49.485 56.8901 49.695 56.6801C50.115 56.2701 50.115 55.6001 49.695 55.1801L26.5098 31.995L49.685 8.81012C50.105 8.40012 50.105 7.73012 49.685 7.31012C49.275 6.89012 48.605 6.89012 48.185 7.31012L25.0074 30.4925L1.825 7.31012C1.405 6.90012 0.735 6.90012 0.315 7.31012C-0.095 7.73012 -0.095 8.40012 0.315 8.82012L23.5 32.0003L0.315 55.1901C-0.105 55.6001 -0.105 56.2701 0.315 56.6901Z" fill="black"/>
</svg>
