<svg width="24" height="24" viewBox="0 0 24 24" fill="none" xmlns="http://www.w3.org/2000/svg">
<g clip-path="url(#clip0_1530_5798)">
<path d="M23.6006 21.3749C23.4994 21.3749 23.3981 21.3374 23.3194 21.2587L14.7656 12.7049C14.5781 12.5174 14.4731 12.2662 14.4731 11.9999C14.4731 11.7337 14.5781 11.4824 14.7656 11.2949L23.3194 2.74117C23.4769 2.58367 23.7281 2.58367 23.8819 2.74117C24.0394 2.89867 24.0394 3.14992 23.8819 3.30367L15.3281 11.8574C15.2756 11.9099 15.2681 11.9662 15.2681 11.9999C15.2681 12.0337 15.2756 12.0899 15.3281 12.1387L23.8819 20.6924C24.0394 20.8499 24.0394 21.1012 23.8819 21.2549C23.8031 21.3337 23.7019 21.3712 23.6006 21.3712V21.3749Z" fill="black"/>
</g>
<defs>
<clipPath id="clip0_1530_5798">
<rect width="24" height="24" fill="white"/>
</clipPath>
</defs>
</svg>
