<svg width="64" height="64" viewBox="0 0 64 64" fill="none" xmlns="http://www.w3.org/2000/svg">
<path d="M13.995 20.3602C13.995 20.6302 14.095 20.9002 14.305 21.1102L37.115 43.9202C37.615 44.4202 38.285 44.7002 38.995 44.7002C39.705 44.7002 40.375 44.4202 40.875 43.9202L63.685 21.1102C64.105 20.6902 64.105 20.0202 63.685 19.6102C63.265 19.1902 62.595 19.1902 62.185 19.6102L39.375 42.4202C39.235 42.5602 39.085 42.5802 38.995 42.5802C38.905 42.5802 38.755 42.5602 38.625 42.4202L15.815 19.6102C15.395 19.1902 14.725 19.1902 14.315 19.6102C14.105 19.8202 14.005 20.0902 14.005 20.3602L13.995 20.3602Z" fill="black"/>
</svg>
