<svg width="24" height="24" viewBox="0 0 24 24" fill="none" xmlns="http://www.w3.org/2000/svg">
<path fill-rule="evenodd" clip-rule="evenodd" d="M0.118125 21.2587C0.196875 21.3374 0.298125 21.3749 0.399375 21.3749H0.403125C0.504375 21.3749 0.605625 21.3374 0.684375 21.2587L9.37603 12.5634L18.0731 21.2587C18.1519 21.3374 18.2531 21.3749 18.3544 21.3749V21.3712C18.4556 21.3712 18.5569 21.3337 18.6356 21.2549C18.7931 21.1012 18.7931 20.8499 18.6356 20.6924L9.94119 11.998L18.6319 3.30367C18.7894 3.14992 18.7894 2.89867 18.6319 2.74117C18.4781 2.58367 18.2269 2.58367 18.0694 2.74117L9.37778 11.4346L0.684375 2.74117C0.526875 2.58742 0.275625 2.58742 0.118125 2.74117C-0.035625 2.89867 -0.035625 3.14992 0.118125 3.30742L8.8125 12L0.118125 20.6962C-0.039375 20.8499 -0.039375 21.1012 0.118125 21.2587Z" fill="black"/>
</svg>
