<svg width="64" height="64" viewBox="0 0 64 64" fill="none" xmlns="http://www.w3.org/2000/svg">
<path d="M6.99997 20.3602C6.99997 20.6302 7.09997 20.9002 7.30997 21.1102L30.12 43.9202C30.62 44.4202 31.29 44.7002 32 44.7002C32.71 44.7002 33.38 44.4202 33.88 43.9202L56.69 21.1102C57.11 20.6902 57.11 20.0202 56.69 19.6102C56.27 19.1902 55.6 19.1902 55.19 19.6102L32.38 42.4202C32.24 42.5602 32.09 42.5802 32 42.5802C31.91 42.5802 31.76 42.5602 31.63 42.4202L8.81997 19.6102C8.39997 19.1902 7.72997 19.1902 7.31997 19.6102C7.10997 19.8202 7.00997 20.0902 7.00997 20.3602L6.99997 20.3602Z" fill="black"/>
</svg>
