<svg width="64" height="64" viewBox="0 0 64 64" fill="none" xmlns="http://www.w3.org/2000/svg">
<path d="M20.365 6.995C20.635 6.995 20.905 7.095 21.115 7.305L43.925 30.115C44.425 30.615 44.705 31.285 44.705 31.995C44.705 32.705 44.425 33.375 43.925 33.875L21.115 56.685C20.695 57.105 20.025 57.105 19.615 56.685C19.195 56.265 19.195 55.595 19.615 55.185L42.425 32.375C42.565 32.235 42.585 32.085 42.585 31.995C42.585 31.905 42.565 31.755 42.425 31.625L19.615 8.815C19.195 8.395 19.195 7.725 19.615 7.315C19.825 7.105 20.095 7.005 20.365 7.005L20.365 6.995Z" fill="black"/>
</svg>
