<svg width="24" height="24" viewBox="0 0 24 24" fill="none" xmlns="http://www.w3.org/2000/svg">
<path d="M7.63687 2.62313C7.73812 2.62313 7.83937 2.66063 7.91812 2.73938L16.4719 11.2931C16.6594 11.4806 16.7644 11.7319 16.7644 11.9981C16.7644 12.2644 16.6594 12.5156 16.4719 12.7031L7.91812 21.2569C7.76062 21.4144 7.50937 21.4144 7.35562 21.2569C7.19812 21.0994 7.19812 20.8481 7.35562 20.6944L15.9094 12.1406C15.9619 12.0881 15.9694 12.0319 15.9694 11.9981C15.9694 11.9644 15.9619 11.9081 15.9094 11.8594L7.35562 3.30563C7.19812 3.14813 7.19812 2.89688 7.35562 2.74313C7.43437 2.66438 7.53562 2.62687 7.63687 2.62687L7.63687 2.62313Z" fill="black"/>
</svg>
