<svg width="24" height="24" viewBox="0 0 24 24" fill="none" xmlns="http://www.w3.org/2000/svg">
<path d="M18.7519 16.3629C18.7519 16.2616 18.7144 16.1604 18.6356 16.0816L10.0819 7.52785C9.89437 7.34035 9.64312 7.23535 9.37687 7.23535C9.11062 7.23535 8.85938 7.34035 8.67188 7.52785L0.118128 16.0816C-0.0393717 16.2391 -0.0393716 16.4904 0.118128 16.6441C0.275629 16.8016 0.526879 16.8016 0.680628 16.6441L9.23438 8.09035C9.28688 8.03785 9.34312 8.03035 9.37687 8.03035C9.41062 8.03035 9.46688 8.03785 9.51563 8.09035L18.0694 16.6441C18.2269 16.8016 18.4781 16.8016 18.6319 16.6441C18.7106 16.5654 18.7481 16.4641 18.7481 16.3629L18.7519 16.3629Z" fill="black"/>
</svg>
