<svg width="64" height="64" viewBox="0 0 64 64" fill="none" xmlns="http://www.w3.org/2000/svg">
<path d="M39.66 57.0001C39.93 57.0001 40.2 56.9001 40.41 56.6901L63.22 33.8801C63.72 33.3801 64 32.7101 64 32.0001C64 31.2901 63.72 30.6201 63.22 30.1201L40.41 7.31012C39.99 6.89012 39.32 6.89012 38.91 7.31012C38.49 7.73012 38.49 8.40012 38.91 8.81012L61.72 31.6201C61.86 31.7601 61.88 31.9101 61.88 32.0001C61.88 32.0901 61.86 32.2401 61.72 32.3701L38.91 55.1801C38.49 55.6001 38.49 56.2701 38.91 56.6801C39.12 56.8901 39.39 56.9901 39.66 56.9901V57.0001Z" fill="black"/>
</svg>
