<svg width="24" height="24" viewBox="0 0 24 24" fill="none" xmlns="http://www.w3.org/2000/svg">
<path d="M5.24812 7.63422C5.24812 7.73547 5.28563 7.83672 5.36438 7.91547L13.9181 16.4692C14.1056 16.6567 14.3569 16.7617 14.6231 16.7617C14.8894 16.7617 15.1406 16.6567 15.3281 16.4692L23.8819 7.91547C24.0394 7.75797 24.0394 7.50672 23.8819 7.35297C23.7244 7.19547 23.4731 7.19547 23.3194 7.35297L14.7656 15.9067C14.7131 15.9592 14.6569 15.9667 14.6231 15.9667C14.5894 15.9667 14.5331 15.9592 14.4844 15.9067L5.93062 7.35297C5.77312 7.19547 5.52187 7.19547 5.36812 7.35297C5.28937 7.43172 5.25187 7.53297 5.25187 7.63422L5.24812 7.63422Z" fill="black"/>
</svg>
