<svg width="24" height="24" viewBox="0 0 24 24" fill="none" xmlns="http://www.w3.org/2000/svg">
<path d="M2.62499 16.3629C2.62499 16.2616 2.66249 16.1604 2.74124 16.0816L11.295 7.52785C11.4825 7.34035 11.7337 7.23535 12 7.23535C12.2662 7.23535 12.5175 7.34035 12.705 7.52785L21.2587 16.0816C21.4162 16.2391 21.4162 16.4904 21.2587 16.6441C21.1012 16.8016 20.85 16.8016 20.6962 16.6441L12.1425 8.09035C12.09 8.03785 12.0337 8.03035 12 8.03035C11.9662 8.03035 11.91 8.03785 11.8612 8.09035L3.30749 16.6441C3.14999 16.8016 2.89874 16.8016 2.74499 16.6441C2.66624 16.5654 2.62874 16.4641 2.62874 16.3629L2.62499 16.3629Z" fill="black"/>
</svg>
