<svg width="64" height="64" viewBox="0 0 64 64" fill="none" xmlns="http://www.w3.org/2000/svg">
<g clip-path="url(#clip0_1530_4811)">
<path d="M64 43.6349C64 43.3649 63.9 43.0949 63.69 42.8849L40.88 20.0749C40.38 19.5749 39.71 19.2949 39 19.2949C38.29 19.2949 37.62 19.5749 37.12 20.0749L14.31 42.8849C13.89 43.3049 13.89 43.9749 14.31 44.3849C14.73 44.8049 15.4 44.8049 15.81 44.3849L38.62 21.5749C38.76 21.4349 38.91 21.4149 39 21.4149C39.09 21.4149 39.24 21.4349 39.37 21.5749L62.18 44.3849C62.6 44.8049 63.27 44.8049 63.68 44.3849C63.89 44.1749 63.99 43.9049 63.99 43.6349L64 43.6349Z" fill="black"/>
</g>
<defs>
<clipPath id="clip0_1530_4811">
<rect width="64" height="64" fill="white"/>
</clipPath>
</defs>
</svg>
