<svg width="24" height="24" viewBox="0 0 24 24" fill="none" xmlns="http://www.w3.org/2000/svg">
<path fill-rule="evenodd" clip-rule="evenodd" d="M2.74126 21.2587C2.82001 21.3374 2.92126 21.3749 3.02251 21.3749H3.02626C3.12751 21.3749 3.22876 21.3374 3.30751 21.2587L11.9992 12.5634L20.6963 21.2587C20.775 21.3374 20.8763 21.3749 20.9775 21.3749V21.3712C21.0788 21.3712 21.18 21.3337 21.2588 21.2549C21.4163 21.1012 21.4163 20.8499 21.2588 20.6924L12.5643 11.998L21.255 3.30367C21.4125 3.14992 21.4125 2.89867 21.255 2.74117C21.1013 2.58367 20.85 2.58367 20.6925 2.74117L12.0009 11.4346L3.30751 2.74117C3.15001 2.58742 2.89876 2.58742 2.74126 2.74117C2.58751 2.89867 2.58751 3.14992 2.74126 3.30742L11.4356 12L2.74126 20.6962C2.58376 20.8499 2.58376 21.1012 2.74126 21.2587Z" fill="black"/>
</svg>
