<svg width="24" height="24" viewBox="0 0 24 24" fill="none" xmlns="http://www.w3.org/2000/svg">
<path d="M14.8725 21.3749C14.9737 21.3749 15.075 21.3374 15.1537 21.2587L23.7075 12.7049C23.895 12.5174 24 12.2662 24 11.9999C24 11.7337 23.895 11.4824 23.7075 11.2949L15.1537 2.74117C14.9962 2.58367 14.745 2.58367 14.5912 2.74117C14.4337 2.89867 14.4337 3.14992 14.5912 3.30367L23.145 11.8574C23.1975 11.9099 23.205 11.9662 23.205 11.9999C23.205 12.0337 23.1975 12.0899 23.145 12.1387L14.5912 20.6924C14.4337 20.8499 14.4337 21.1012 14.5912 21.2549C14.67 21.3337 14.7712 21.3712 14.8725 21.3712V21.3749Z" fill="black"/>
</svg>
