<svg width="24" height="24" viewBox="0 0 24 24" fill="none" xmlns="http://www.w3.org/2000/svg">
<path d="M9.1275 21.3749C9.02625 21.3749 8.925 21.3374 8.84625 21.2587L0.2925 12.7049C0.105 12.5174 0 12.2662 0 11.9999C0 11.7337 0.105 11.4824 0.2925 11.2949L8.84625 2.74117C9.00375 2.58367 9.255 2.58367 9.40875 2.74117C9.56625 2.89867 9.56625 3.14992 9.40875 3.30367L0.855 11.8574C0.8025 11.9099 0.795 11.9662 0.795 11.9999C0.795 12.0337 0.8025 12.0899 0.855 12.1387L9.40875 20.6924C9.56625 20.8499 9.56625 21.1012 9.40875 21.2549C9.33 21.3337 9.22875 21.3712 9.1275 21.3712V21.3749Z" fill="black"/>
</svg>
