<svg width="24" height="24" viewBox="0 0 24 24" fill="none" xmlns="http://www.w3.org/2000/svg">
<g clip-path="url(#clip0_1530_5802)">
<path d="M0.399386 21.3749C0.500636 21.3749 0.601886 21.3374 0.680636 21.2587L9.23439 12.7049C9.42189 12.5174 9.52689 12.2662 9.52689 11.9999C9.52689 11.7337 9.42189 11.4824 9.23439 11.2949L0.680636 2.74117C0.523136 2.58367 0.271886 2.58367 0.118136 2.74117C-0.0393641 2.89867 -0.0393641 3.14992 0.118136 3.30367L8.67189 11.8574C8.72439 11.9099 8.73189 11.9662 8.73189 11.9999C8.73189 12.0337 8.72439 12.0899 8.67189 12.1387L0.118136 20.6924C-0.0393641 20.8499 -0.0393641 21.1012 0.118136 21.2549C0.196886 21.3337 0.298136 21.3712 0.399386 21.3712V21.3749Z" fill="black"/>
</g>
<defs>
<clipPath id="clip0_1530_5802">
<rect width="24" height="24" fill="white"/>
</clipPath>
</defs>
</svg>
