<svg width="64" height="64" viewBox="0 0 64 64" fill="none" xmlns="http://www.w3.org/2000/svg">
<path fill-rule="evenodd" clip-rule="evenodd" d="M14.305 56.6901C14.515 56.9001 14.785 57.0001 15.055 57.0001H15.065C15.335 57.0001 15.605 56.9001 15.815 56.6901L38.9927 33.5027L62.185 56.6901C62.395 56.9001 62.665 57.0001 62.935 57.0001V56.9901C63.205 56.9901 63.475 56.8901 63.685 56.6801C64.105 56.2701 64.105 55.6001 63.685 55.1801L40.4998 31.995L63.675 8.81012C64.095 8.40012 64.095 7.73012 63.675 7.31012C63.265 6.89012 62.595 6.89012 62.175 7.31012L38.9974 30.4925L15.815 7.31012C15.395 6.90012 14.725 6.90012 14.305 7.31012C13.895 7.73012 13.895 8.40012 14.305 8.82012L37.49 32.0003L14.305 55.1901C13.885 55.6001 13.885 56.2701 14.305 56.6901Z" fill="black"/>
</svg>
