<svg width="64" height="64" viewBox="0 0 64 64" fill="none" xmlns="http://www.w3.org/2000/svg">
<g clip-path="url(#clip0_1530_4799)">
<path d="M62.935 57.0001C62.665 57.0001 62.395 56.9001 62.185 56.6901L39.375 33.8801C38.875 33.3801 38.595 32.7101 38.595 32.0001C38.595 31.2901 38.875 30.6201 39.375 30.1201L62.185 7.31012C62.605 6.89012 63.275 6.89012 63.685 7.31012C64.105 7.73012 64.105 8.40012 63.685 8.81012L40.875 31.6201C40.735 31.7601 40.715 31.9101 40.715 32.0001C40.715 32.0901 40.735 32.2401 40.875 32.3701L63.685 55.1801C64.105 55.6001 64.105 56.2701 63.685 56.6801C63.475 56.8901 63.205 56.9901 62.935 56.9901V57.0001Z" fill="black"/>
</g>
<defs>
<clipPath id="clip0_1530_4799">
<rect width="64" height="64" fill="white"/>
</clipPath>
</defs>
</svg>
