<svg width="64" height="64" viewBox="0 0 64 64" fill="none" xmlns="http://www.w3.org/2000/svg">
<path d="M6.99997 43.6349C6.99997 43.3649 7.09997 43.0949 7.30997 42.8849L30.12 20.0749C30.62 19.5749 31.29 19.2949 32 19.2949C32.71 19.2949 33.38 19.5749 33.88 20.0749L56.69 42.8849C57.11 43.3049 57.11 43.9749 56.69 44.3849C56.27 44.8049 55.6 44.8049 55.19 44.3849L32.38 21.5749C32.24 21.4349 32.09 21.4149 32 21.4149C31.91 21.4149 31.76 21.4349 31.63 21.5749L8.81997 44.3849C8.39997 44.8049 7.72997 44.8049 7.31997 44.3849C7.10997 44.1749 7.00997 43.9049 7.00997 43.6349L6.99997 43.6349Z" fill="black"/>
</svg>
