<svg width="64" height="64" viewBox="0 0 64 64" fill="none" xmlns="http://www.w3.org/2000/svg">
<g clip-path="url(#clip0_1530_4803)">
<path d="M1.065 57.0001C1.335 57.0001 1.605 56.9001 1.815 56.6901L24.625 33.8801C25.125 33.3801 25.405 32.7101 25.405 32.0001C25.405 31.2901 25.125 30.6201 24.625 30.1201L1.815 7.31012C1.395 6.89012 0.724999 6.89012 0.314999 7.31012C-0.105001 7.73012 -0.105001 8.40012 0.314999 8.81012L23.125 31.6201C23.265 31.7601 23.285 31.9101 23.285 32.0001C23.285 32.0901 23.265 32.2401 23.125 32.3701L0.314999 55.1801C-0.105001 55.6001 -0.105001 56.2701 0.314999 56.6801C0.524999 56.8901 0.794999 56.9901 1.065 56.9901V57.0001Z" fill="black"/>
</g>
<defs>
<clipPath id="clip0_1530_4803">
<rect width="64" height="64" fill="white"/>
</clipPath>
</defs>
</svg>
