<svg width="24" height="24" viewBox="0 0 24 24" fill="none" xmlns="http://www.w3.org/2000/svg">
<path d="M1.54199e-05 7.6352C1.5434e-05 7.73645 0.037516 7.8377 0.116266 7.91645L8.67002 16.4702C8.85752 16.6577 9.10877 16.7627 9.37502 16.7627C9.64127 16.7627 9.89252 16.6577 10.08 16.4702L18.6338 7.91645C18.7913 7.75895 18.7913 7.5077 18.6338 7.35395C18.4763 7.19645 18.225 7.19645 18.0713 7.35395L9.51752 15.9077C9.46502 15.9602 9.40877 15.9677 9.37502 15.9677C9.34127 15.9677 9.28502 15.9602 9.23627 15.9077L0.682515 7.35395C0.525015 7.19645 0.273765 7.19645 0.120015 7.35395C0.0412653 7.4327 0.00376478 7.53395 0.00376479 7.6352L1.54199e-05 7.6352Z" fill="black"/>
</svg>
