<svg width="24" height="24" viewBox="0 0 24 24" fill="none" xmlns="http://www.w3.org/2000/svg">
<path d="M2.62499 7.6352C2.62499 7.73645 2.66249 7.8377 2.74124 7.91645L11.295 16.4702C11.4825 16.6577 11.7337 16.7627 12 16.7627C12.2662 16.7627 12.5175 16.6577 12.705 16.4702L21.2587 7.91645C21.4162 7.75895 21.4162 7.5077 21.2587 7.35395C21.1012 7.19645 20.85 7.19645 20.6962 7.35395L12.1425 15.9077C12.09 15.9602 12.0337 15.9677 12 15.9677C11.9662 15.9677 11.91 15.9602 11.8612 15.9077L3.30749 7.35395C3.14999 7.19645 2.89874 7.19645 2.74499 7.35395C2.66624 7.4327 2.62874 7.53395 2.62874 7.6352L2.62499 7.6352Z" fill="black"/>
</svg>
