<svg width="64" height="64" viewBox="0 0 64 64" fill="none" xmlns="http://www.w3.org/2000/svg">
<path fill-rule="evenodd" clip-rule="evenodd" d="M7.31 56.6901C7.52 56.9001 7.79 57.0001 8.06 57.0001H8.06999C8.34 57.0001 8.60999 56.9001 8.81999 56.6901L31.9977 33.5027L55.19 56.6901C55.4 56.9001 55.67 57.0001 55.94 57.0001V56.9901C56.21 56.9901 56.48 56.8901 56.69 56.6801C57.11 56.2701 57.11 55.6001 56.69 55.1801L33.5048 31.995L56.68 8.81012C57.1 8.40012 57.1 7.73012 56.68 7.31012C56.27 6.89012 55.6 6.89012 55.18 7.31012L32.0024 30.4925L8.81999 7.31012C8.39999 6.90012 7.73 6.90012 7.31 7.31012C6.9 7.73012 6.9 8.40012 7.31 8.82012L30.495 32.0003L7.31 55.1901C6.89 55.6001 6.89 56.2701 7.31 56.6901Z" fill="black"/>
</svg>
