<svg width="24" height="24" viewBox="0 0 24 24" fill="none" xmlns="http://www.w3.org/2000/svg">
<path fill-rule="evenodd" clip-rule="evenodd" d="M5.36437 21.2587C5.44312 21.3374 5.54437 21.3749 5.64562 21.3749H5.64937C5.75062 21.3749 5.85187 21.3374 5.93062 21.2587L14.6223 12.5634L23.3194 21.2587C23.3981 21.3374 23.4994 21.3749 23.6006 21.3749V21.3712C23.7019 21.3712 23.8031 21.3337 23.8819 21.2549C24.0394 21.1012 24.0394 20.8499 23.8819 20.6924L15.1874 11.998L23.8781 3.30367C24.0356 3.14992 24.0356 2.89867 23.8781 2.74117C23.7244 2.58367 23.4731 2.58367 23.3156 2.74117L14.624 11.4346L5.93062 2.74117C5.77312 2.58742 5.52187 2.58742 5.36437 2.74117C5.21062 2.89867 5.21062 3.14992 5.36437 3.30742L14.0587 12L5.36437 20.6962C5.20687 20.8499 5.20687 21.1012 5.36437 21.2587Z" fill="black"/>
</svg>
