<svg width="64" height="64" viewBox="0 0 64 64" fill="none" xmlns="http://www.w3.org/2000/svg">
<path d="M50.005 43.6349C50.005 43.3649 49.905 43.0949 49.695 42.8849L26.885 20.0749C26.385 19.5749 25.715 19.2949 25.005 19.2949C24.295 19.2949 23.625 19.5749 23.125 20.0749L0.315003 42.8849C-0.104997 43.3049 -0.104997 43.9749 0.315003 44.3849C0.735004 44.8049 1.405 44.8049 1.815 44.3849L24.625 21.5749C24.765 21.4349 24.915 21.4149 25.005 21.4149C25.095 21.4149 25.245 21.4349 25.375 21.5749L48.185 44.3849C48.605 44.8049 49.275 44.8049 49.685 44.3849C49.895 44.1749 49.995 43.9049 49.995 43.6349L50.005 43.6349Z" fill="black"/>
</svg>
