<svg width="64" height="64" viewBox="0 0 64 64" fill="none" xmlns="http://www.w3.org/2000/svg">
<path d="M43.64 57.0001C43.37 57.0001 43.1 56.9001 42.89 56.6901L20.08 33.8801C19.58 33.3801 19.3 32.7101 19.3 32.0001C19.3 31.2901 19.58 30.6201 20.08 30.1201L42.89 7.31012C43.31 6.89012 43.98 6.89012 44.39 7.31012C44.81 7.73012 44.81 8.40012 44.39 8.81012L21.58 31.6201C21.44 31.7601 21.42 31.9101 21.42 32.0001C21.42 32.0901 21.44 32.2401 21.58 32.3701L44.39 55.1801C44.81 55.6001 44.81 56.2701 44.39 56.6801C44.18 56.8901 43.91 56.9901 43.64 56.9901V57.0001Z" fill="black"/>
</svg>
