<svg width="64" height="64" viewBox="0 0 64 64" fill="none" xmlns="http://www.w3.org/2000/svg">
<path d="M4.29711e-07 20.3602C4.6726e-07 20.6302 0.100002 20.9002 0.310002 21.1102L23.12 43.9202C23.62 44.4202 24.29 44.7002 25 44.7002C25.71 44.7002 26.38 44.4202 26.88 43.9202L49.69 21.1102C50.11 20.6902 50.11 20.0202 49.69 19.6102C49.27 19.1902 48.6 19.1902 48.19 19.6102L25.38 42.4202C25.24 42.5602 25.09 42.5802 25 42.5802C24.91 42.5802 24.76 42.5602 24.63 42.4202L1.82 19.6102C1.4 19.1902 0.73 19.1902 0.32 19.6102C0.11 19.8202 0.00999871 20.0902 0.00999875 20.3602L4.29711e-07 20.3602Z" fill="black"/>
</svg>
