<svg width="64" height="64" viewBox="0 0 64 64" fill="none" xmlns="http://www.w3.org/2000/svg">
<path d="M24.34 57.0001C24.07 57.0001 23.8 56.9001 23.59 56.6901L0.78 33.8801C0.28 33.3801 0 32.7101 0 32.0001C0 31.2901 0.28 30.6201 0.78 30.1201L23.59 7.31012C24.01 6.89012 24.68 6.89012 25.09 7.31012C25.51 7.73012 25.51 8.40012 25.09 8.81012L2.28 31.6201C2.14 31.7601 2.12 31.9101 2.12 32.0001C2.12 32.0901 2.14 32.2401 2.28 32.3701L25.09 55.1801C25.51 55.6001 25.51 56.2701 25.09 56.6801C24.88 56.8901 24.61 56.9901 24.34 56.9901V57.0001Z" fill="black"/>
</svg>
