<svg width="24" height="24" viewBox="0 0 24 24" fill="none" xmlns="http://www.w3.org/2000/svg">
<path fill-rule="evenodd" clip-rule="evenodd" d="M11.9962 13.0908C11.5837 13.0908 11.175 12.9371 10.86 12.6258L6.61499 8.29832C5.57999 7.30082 5.32124 5.75957 5.97749 4.46957C6.86249 2.77457 8.96249 2.11832 10.6537 3.00332C10.9575 3.16082 11.235 3.36707 11.4787 3.60707L11.9962 4.12457L12.5137 3.60707C13.1812 2.96207 14.0625 2.60957 14.9812 2.63207C15.9075 2.64707 16.77 3.02207 17.415 3.68582C17.64 3.91832 17.8312 4.18082 17.985 4.46582C18.6525 5.75207 18.4087 7.29332 17.3775 8.30582L13.14 12.6258H13.1362C12.825 12.9408 12.4125 13.0946 12 13.0946L11.9962 13.0908ZM9.04874 3.40832C8.08874 3.40832 7.15874 3.92957 6.68249 4.83707C6.18749 5.80832 6.38249 6.97457 7.17374 7.73207L11.4262 12.0633C11.7375 12.3708 12.2512 12.3746 12.5662 12.0633L16.8075 7.73957C17.5912 6.97082 17.7787 5.80457 17.2725 4.83707C17.1562 4.61957 17.01 4.42082 16.8375 4.24082C16.3425 3.73082 15.6787 3.44207 14.9662 3.43082C14.2537 3.42332 13.5825 3.68582 13.0687 4.18082L12.2737 4.97582C12.1162 5.13332 11.865 5.13332 11.7112 4.97582L10.9125 4.17707C10.725 3.99332 10.5112 3.83582 10.2787 3.71582C9.88499 3.50957 9.46124 3.41207 9.04499 3.41207L9.04874 3.40832ZM5.415 21.3823C5.3025 21.3823 5.19 21.3336 5.11125 21.2398L3.51375 19.3423C2.94 18.6336 2.62125 17.7486 2.62125 16.8448V12.7198C2.62125 11.8386 3.3375 11.1223 4.21875 11.1223C5.1 11.1223 5.81625 11.8386 5.81625 12.7198V14.4272C6.15457 14.2454 6.54166 14.1981 6.915 14.2986C7.305 14.4036 7.63125 14.6511 7.83375 14.9999L8.73375 16.3799C9.1725 17.0324 9.405 17.8011 9.405 18.5924V20.9849C9.405 21.2061 9.225 21.3824 9.0075 21.3824H9.00375C8.7825 21.3824 8.60625 21.2024 8.60625 20.9849V18.5924C8.60625 17.9586 8.4225 17.3474 8.06625 16.8186L7.155 15.4161C7.05 15.2361 6.89625 15.1161 6.7125 15.0674C6.52875 15.0186 6.3375 15.0449 6.1725 15.1386C6.15751 15.1499 6.13877 15.1611 6.12003 15.1724L6.12 15.1724C5.96105 15.279 5.85721 15.4357 5.81625 15.6068V15.7986C5.81625 15.8298 5.81265 15.8602 5.80586 15.8893C5.81732 15.9593 5.83937 16.0286 5.8725 16.0949L6.93375 17.8649C7.04625 18.0524 6.98625 18.2999 6.79875 18.4124C6.61125 18.5249 6.36375 18.4649 6.25125 18.2774L5.175 16.4811C5.02173 16.1778 4.97466 15.8502 5.02125 15.5416V12.7198C5.02125 12.2811 4.665 11.9211 4.2225 11.9211C3.78 11.9211 3.42375 12.2773 3.42375 12.7198V16.8448C3.42375 17.5648 3.67875 18.2736 4.1325 18.8361L5.7225 20.7298C5.865 20.8986 5.8425 21.1498 5.67375 21.2923C5.59875 21.3561 5.50875 21.3861 5.41875 21.3861L5.415 21.3823ZM18.5775 21.3824C18.4875 21.3824 18.3975 21.3524 18.3225 21.2887C18.1537 21.1462 18.1312 20.8949 18.2737 20.7262L19.8712 18.8287C20.3212 18.2737 20.5725 17.5649 20.5762 16.8412V12.7162C20.5762 12.2774 20.22 11.9174 19.7775 11.9174C19.335 11.9174 18.9787 12.2737 18.9787 12.7162V15.5453C19.0262 15.8489 18.9827 16.1694 18.8363 16.4623L17.745 18.2848C17.6325 18.4723 17.385 18.536 17.1975 18.4198C17.01 18.3073 16.9463 18.0598 17.0625 17.8723L18.1388 16.076C18.1673 16.0183 18.1864 15.9568 18.1964 15.8938C18.1882 15.8621 18.1837 15.829 18.1837 15.7949V15.6143C18.1421 15.4461 18.0398 15.2889 17.8838 15.1835C17.8613 15.1685 17.8425 15.1573 17.8238 15.146C17.6588 15.0523 17.4675 15.026 17.2875 15.0748C17.1038 15.1235 16.95 15.2398 16.8563 15.4048L15.9375 16.8185C15.5813 17.351 15.3938 17.9623 15.3975 18.596V20.9923C15.3975 21.2135 15.2175 21.3898 15 21.3898L14.9888 21.3823C14.7675 21.3823 14.5913 21.2023 14.5913 20.9848V18.5923C14.5913 17.801 14.8238 17.0323 15.2663 16.376L16.1738 14.9848C16.365 14.6548 16.6913 14.4035 17.0813 14.3023C17.456 14.2014 17.8445 14.2494 18.1837 14.4329V12.7162C18.1837 11.8349 18.9 11.1187 19.7812 11.1187C20.6625 11.1187 21.3787 11.8349 21.3787 12.7162V16.8412C21.3787 17.7449 21.06 18.6299 20.4937 19.3349L18.8925 21.2399C18.8137 21.3337 18.7012 21.3824 18.5887 21.3824H18.5775Z" fill="black"/>
</svg>
