<svg width="24" height="24" viewBox="0 0 24 24" fill="none" xmlns="http://www.w3.org/2000/svg">
<path fill-rule="evenodd" clip-rule="evenodd" d="M14.6175 13.0908C14.205 13.0908 13.7962 12.9371 13.4812 12.6258L9.23624 8.29832C8.20124 7.30082 7.94249 5.75957 8.59874 4.46957C9.48374 2.77457 11.5837 2.11832 13.275 3.00332C13.5787 3.16082 13.8562 3.36707 14.1 3.60707L14.6175 4.12457L15.135 3.60707C15.8025 2.96207 16.6837 2.60957 17.6025 2.63207C18.5287 2.64707 19.3912 3.02207 20.0362 3.68582C20.2612 3.91832 20.4525 4.18082 20.6062 4.46582C21.2737 5.75207 21.03 7.29332 19.9987 8.30582L15.7612 12.6258H15.7575C15.4462 12.9408 15.0337 13.0946 14.6212 13.0946L14.6175 13.0908ZM11.67 3.40832C10.71 3.40832 9.77999 3.92957 9.30374 4.83707C8.80874 5.80832 9.00374 6.97457 9.79499 7.73207L14.0475 12.0633C14.3587 12.3708 14.8725 12.3746 15.1875 12.0633L19.4287 7.73957C20.2125 6.97082 20.4 5.80457 19.8937 4.83707C19.7775 4.61957 19.6312 4.42082 19.4587 4.24082C18.9637 3.73082 18.3 3.44207 17.5875 3.43082C16.875 3.42332 16.2037 3.68582 15.69 4.18082L14.895 4.97582C14.7375 5.13332 14.4862 5.13332 14.3325 4.97582L13.5337 4.17707C13.3462 3.99332 13.1325 3.83582 12.9 3.71582C12.5062 3.50957 12.0825 3.41207 11.6662 3.41207L11.67 3.40832ZM8.03624 21.3823C7.92374 21.3823 7.81124 21.3336 7.73249 21.2398L6.13499 19.3423C5.56124 18.6336 5.24249 17.7486 5.24249 16.8448V12.7198C5.24249 11.8386 5.95874 11.1223 6.83999 11.1223C7.72124 11.1223 8.43749 11.8386 8.43749 12.7198V14.4272C8.77582 14.2454 9.16291 14.1981 9.53624 14.2986C9.92624 14.4036 10.2525 14.6511 10.455 14.9999L11.355 16.3799C11.7937 17.0324 12.0262 17.8011 12.0262 18.5924V20.9849C12.0262 21.2061 11.8462 21.3824 11.6287 21.3824H11.625C11.4037 21.3824 11.2275 21.2024 11.2275 20.9849V18.5924C11.2275 17.9586 11.0437 17.3474 10.6875 16.8186L9.77625 15.4161C9.67125 15.2361 9.5175 15.1161 9.33375 15.0674C9.14999 15.0186 8.95875 15.0449 8.79375 15.1386C8.77875 15.1499 8.76001 15.1611 8.74127 15.1724L8.74124 15.1724C8.5823 15.279 8.47846 15.4357 8.43749 15.6068V15.7986C8.43749 15.8298 8.4339 15.8602 8.42711 15.8893C8.43856 15.9593 8.46061 16.0286 8.49374 16.0949L9.555 17.8649C9.66749 18.0524 9.6075 18.2999 9.42 18.4124C9.2325 18.5249 8.98499 18.4649 8.87249 18.2774L7.79624 16.4811C7.64298 16.1778 7.59591 15.8502 7.64249 15.5416V12.7198C7.64249 12.2811 7.28624 11.9211 6.84374 11.9211C6.40124 11.9211 6.04499 12.2773 6.04499 12.7198V16.8448C6.04499 17.5648 6.29999 18.2736 6.75374 18.8361L8.34374 20.7298C8.48624 20.8986 8.46374 21.1498 8.29499 21.2923C8.21999 21.3561 8.12999 21.3861 8.03999 21.3861L8.03624 21.3823ZM21.1987 21.3824C21.1087 21.3824 21.0187 21.3524 20.9437 21.2887C20.775 21.1462 20.7525 20.8949 20.895 20.7262L22.4925 18.8287C22.9425 18.2737 23.1937 17.5649 23.1975 16.8412V12.7162C23.1975 12.2774 22.8412 11.9174 22.3987 11.9174C21.9562 11.9174 21.6 12.2737 21.6 12.7162V15.5453C21.6475 15.8489 21.6039 16.1694 21.4575 16.4623L20.3662 18.2848C20.2537 18.4723 20.0062 18.536 19.8187 18.4198C19.6312 18.3073 19.5675 18.0598 19.6837 17.8723L20.76 16.076C20.7885 16.0183 20.8076 15.9568 20.8177 15.8938C20.8094 15.8621 20.805 15.829 20.805 15.7949V15.6143C20.7634 15.4461 20.6611 15.2889 20.505 15.1835C20.4825 15.1685 20.4637 15.1573 20.445 15.146C20.28 15.0523 20.0887 15.026 19.9087 15.0748C19.725 15.1235 19.5712 15.2398 19.4775 15.4048L18.5587 16.8185C18.2025 17.351 18.015 17.9623 18.0187 18.596V20.9923C18.0187 21.2135 17.8387 21.3898 17.6212 21.3898L17.61 21.3823C17.3887 21.3823 17.2125 21.2023 17.2125 20.9848V18.5923C17.2125 17.801 17.445 17.0323 17.8875 16.376L18.795 14.9848C18.9862 14.6548 19.3125 14.4035 19.7025 14.3023C20.0772 14.2014 20.4658 14.2494 20.805 14.4329V12.7162C20.805 11.8349 21.5212 11.1187 22.4025 11.1187C23.2837 11.1187 24 11.8349 24 12.7162V16.8412C24 17.7449 23.6812 18.6299 23.115 19.3349L21.5137 21.2399C21.435 21.3337 21.3225 21.3824 21.21 21.3824H21.1987Z" fill="black"/>
</svg>
