<svg width="64" height="64" viewBox="0 0 64 64" fill="none" xmlns="http://www.w3.org/2000/svg">
<path fill-rule="evenodd" clip-rule="evenodd" d="M38.98 34.9095C37.88 34.9095 36.79 34.4995 35.95 33.6695L24.63 22.1295C21.87 19.4695 21.18 15.3595 22.93 11.9195C25.29 7.39951 30.89 5.64951 35.4 8.00951C36.21 8.42951 36.95 8.97951 37.6 9.61951L38.98 10.9995L40.36 9.61951C42.14 7.89951 44.49 6.95951 46.94 7.01951C49.41 7.05951 51.71 8.05951 53.43 9.82951C54.03 10.4495 54.54 11.1495 54.95 11.9095C56.73 15.3395 56.08 19.4495 53.33 22.1495L42.03 33.6695H42.02C41.19 34.5095 40.09 34.9195 38.99 34.9195L38.98 34.9095ZM31.12 9.08951C28.56 9.08951 26.08 10.4795 24.81 12.8995C23.49 15.4895 24.01 18.5995 26.12 20.6195L37.46 32.1695C38.29 32.9895 39.66 32.9995 40.5 32.1695L51.81 20.6395C53.9 18.5895 54.4 15.4795 53.05 12.8995C52.74 12.3195 52.35 11.7895 51.89 11.3095C50.57 9.94951 48.8 9.17951 46.9 9.14951C45 9.12951 43.21 9.82951 41.84 11.1495L39.72 13.2695C39.3 13.6895 38.63 13.6895 38.22 13.2695L36.09 11.1395C35.59 10.6495 35.02 10.2295 34.4 9.90951C33.35 9.35951 32.22 9.09951 31.11 9.09951L31.12 9.08951ZM21.43 57.0202C21.13 57.0202 20.83 56.8902 20.62 56.6402L16.36 51.5802C14.83 49.6902 13.98 47.3302 13.98 44.9202V33.9202C13.98 31.5702 15.89 29.6602 18.24 29.6602C20.59 29.6602 22.5 31.5702 22.5 33.9202V38.4733C23.4022 37.9883 24.4344 37.8623 25.43 38.1303C26.47 38.4103 27.34 39.0703 27.88 40.0003L30.28 43.6803C31.45 45.4203 32.07 47.4703 32.07 49.5803V55.9603C32.07 56.5503 31.59 57.0203 31.01 57.0203H31C30.41 57.0203 29.94 56.5403 29.94 55.9603V49.5803C29.94 47.8903 29.45 46.2603 28.5 44.8503L26.07 41.1103C25.79 40.6303 25.38 40.3103 24.89 40.1803C24.4 40.0503 23.89 40.1203 23.45 40.3703C23.41 40.4003 23.36 40.4303 23.3101 40.4603L23.31 40.4603C22.8861 40.7446 22.6092 41.1625 22.5 41.6187V42.1302C22.5 42.2135 22.4904 42.2945 22.4723 42.3721C22.5028 42.5589 22.5616 42.7436 22.65 42.9203L25.48 47.6403C25.78 48.1403 25.62 48.8003 25.12 49.1003C24.62 49.4003 23.96 49.2403 23.66 48.7403L20.79 43.9503C20.3813 43.1415 20.2558 42.2679 20.38 41.445V33.9202C20.38 32.7502 19.43 31.7902 18.25 31.7902C17.07 31.7902 16.12 32.7402 16.12 33.9202V44.9202C16.12 46.8402 16.8 48.7302 18.01 50.2302L22.25 55.2802C22.63 55.7302 22.57 56.4002 22.12 56.7802C21.92 56.9502 21.68 57.0302 21.44 57.0302L21.43 57.0202ZM56.53 57.0204C56.29 57.0204 56.05 56.9404 55.85 56.7704C55.4 56.3904 55.34 55.7204 55.72 55.2704L59.98 50.2104C61.18 48.7304 61.85 46.8404 61.86 44.9104V33.9104C61.86 32.7404 60.91 31.7804 59.73 31.7804C58.55 31.7804 57.6 32.7304 57.6 33.9104V41.4547C57.7266 42.2645 57.6105 43.1191 57.22 43.9001L54.31 48.7601C54.01 49.2601 53.35 49.4301 52.85 49.1201C52.35 48.8201 52.18 48.1601 52.49 47.6601L55.36 42.8701C55.436 42.7161 55.487 42.5521 55.5138 42.384C55.4917 42.2995 55.48 42.2112 55.48 42.1204V41.6388C55.369 41.1901 55.0962 40.7711 54.68 40.4901C54.62 40.4501 54.57 40.4201 54.52 40.3901C54.08 40.1401 53.57 40.0701 53.09 40.2001C52.6 40.3301 52.19 40.6401 51.94 41.0801L49.49 44.8501C48.54 46.2701 48.04 47.9001 48.05 49.5901V55.9801C48.05 56.5701 47.57 57.0401 46.99 57.0401L46.96 57.0201C46.37 57.0201 45.9 56.5401 45.9 55.9601V49.5801C45.9 47.4701 46.52 45.4201 47.7 43.6701L50.12 39.9601C50.63 39.0801 51.5 38.4101 52.54 38.1401C53.5392 37.8711 54.5754 37.999 55.48 38.4884V33.9104C55.48 31.5604 57.39 29.6504 59.74 29.6504C62.09 29.6504 64 31.5604 64 33.9104V44.9104C64 47.3204 63.15 49.6804 61.64 51.5604L57.37 56.6404C57.16 56.8904 56.86 57.0204 56.56 57.0204H56.53Z" fill="black"/>
</svg>
