<svg width="64" height="64" viewBox="0 0 64 64" fill="none" xmlns="http://www.w3.org/2000/svg">
<path fill-rule="evenodd" clip-rule="evenodd" d="M31.99 34.9095C30.89 34.9095 29.8 34.4995 28.96 33.6695L17.64 22.1295C14.88 19.4695 14.19 15.3595 15.94 11.9195C18.3 7.39951 23.9 5.64951 28.41 8.00951C29.22 8.42951 29.96 8.97951 30.61 9.61951L31.99 10.9995L33.37 9.61951C35.15 7.89951 37.5 6.95951 39.95 7.01951C42.42 7.05951 44.72 8.05951 46.44 9.82951C47.04 10.4495 47.55 11.1495 47.96 11.9095C49.74 15.3395 49.09 19.4495 46.34 22.1495L35.04 33.6695H35.03C34.2 34.5095 33.1 34.9195 32 34.9195L31.99 34.9095ZM24.13 9.08951C21.57 9.08951 19.09 10.4795 17.82 12.8995C16.5 15.4895 17.02 18.5995 19.13 20.6195L30.47 32.1695C31.3 32.9895 32.67 32.9995 33.51 32.1695L44.82 20.6395C46.91 18.5895 47.41 15.4795 46.06 12.8995C45.75 12.3195 45.36 11.7895 44.9 11.3095C43.58 9.94951 41.81 9.17951 39.91 9.14951C38.01 9.12951 36.22 9.82951 34.85 11.1495L32.73 13.2695C32.31 13.6895 31.64 13.6895 31.23 13.2695L29.1 11.1395C28.6 10.6495 28.03 10.2295 27.41 9.90951C26.36 9.35951 25.23 9.09951 24.12 9.09951L24.13 9.08951ZM14.44 57.0202C14.14 57.0202 13.84 56.8902 13.63 56.6402L9.36999 51.5802C7.83999 49.6902 6.98999 47.3302 6.98999 44.9202V33.9202C6.98999 31.5702 8.89999 29.6602 11.25 29.6602C13.6 29.6602 15.51 31.5702 15.51 33.9202V38.4733C16.4122 37.9883 17.4444 37.8623 18.44 38.1303C19.48 38.4103 20.35 39.0703 20.89 40.0003L23.29 43.6803C24.46 45.4203 25.08 47.4703 25.08 49.5803V55.9603C25.08 56.5503 24.6 57.0203 24.02 57.0203H24.01C23.42 57.0203 22.95 56.5403 22.95 55.9603V49.5803C22.95 47.8903 22.46 46.2603 21.51 44.8503L19.08 41.1103C18.8 40.6303 18.39 40.3103 17.9 40.1803C17.41 40.0503 16.9 40.1203 16.46 40.3703C16.42 40.4003 16.3701 40.4303 16.3201 40.4603L16.32 40.4603C15.8961 40.7446 15.6192 41.1625 15.51 41.6187V42.1302C15.51 42.2135 15.5004 42.2945 15.4823 42.3721C15.5128 42.5589 15.5716 42.7436 15.66 42.9203L18.49 47.6403C18.79 48.1403 18.63 48.8003 18.13 49.1003C17.63 49.4003 16.97 49.2403 16.67 48.7403L13.8 43.9503C13.3913 43.1415 13.2658 42.2679 13.39 41.445V33.9202C13.39 32.7502 12.44 31.7902 11.26 31.7902C10.08 31.7902 9.12999 32.7402 9.12999 33.9202V44.9202C9.12999 46.8402 9.80999 48.7302 11.02 50.2302L15.26 55.2802C15.64 55.7302 15.58 56.4002 15.13 56.7802C14.93 56.9502 14.69 57.0302 14.45 57.0302L14.44 57.0202ZM49.54 57.0204C49.3 57.0204 49.06 56.9404 48.86 56.7704C48.41 56.3904 48.35 55.7204 48.73 55.2704L52.99 50.2104C54.19 48.7304 54.86 46.8404 54.87 44.9104V33.9104C54.87 32.7404 53.92 31.7804 52.74 31.7804C51.56 31.7804 50.61 32.7304 50.61 33.9104V41.4547C50.7366 42.2645 50.6205 43.1191 50.23 43.9001L47.32 48.7601C47.02 49.2601 46.36 49.4301 45.86 49.1201C45.36 48.8201 45.19 48.1601 45.5 47.6601L48.37 42.8701C48.4461 42.7161 48.497 42.5521 48.5238 42.384C48.5018 42.2995 48.49 42.2112 48.49 42.1204V41.6388C48.379 41.1901 48.1063 40.7711 47.69 40.4901C47.63 40.4501 47.58 40.4201 47.53 40.3901C47.09 40.1401 46.58 40.0701 46.1 40.2001C45.61 40.3301 45.2 40.6401 44.95 41.0801L42.5 44.8501C41.55 46.2701 41.05 47.9001 41.06 49.5901V55.9801C41.06 56.5701 40.58 57.0401 40 57.0401L39.97 57.0201C39.38 57.0201 38.91 56.5401 38.91 55.9601V49.5801C38.91 47.4701 39.53 45.4201 40.71 43.6701L43.13 39.9601C43.64 39.0801 44.51 38.4101 45.55 38.1401C46.5492 37.8711 47.5854 37.999 48.49 38.4884V33.9104C48.49 31.5604 50.4 29.6504 52.75 29.6504C55.1 29.6504 57.01 31.5604 57.01 33.9104V44.9104C57.01 47.3204 56.16 49.6804 54.65 51.5604L50.38 56.6404C50.17 56.8904 49.87 57.0204 49.57 57.0204H49.54Z" fill="black"/>
</svg>
