<svg width="64" height="64" viewBox="0 0 64 64" fill="none" xmlns="http://www.w3.org/2000/svg">
<path fill-rule="evenodd" clip-rule="evenodd" d="M25 34.9095C23.9 34.9095 22.81 34.4995 21.97 33.6695L10.65 22.1295C7.88999 19.4695 7.19999 15.3595 8.94999 11.9195C11.31 7.39951 16.91 5.64951 21.42 8.00951C22.23 8.42951 22.97 8.97951 23.62 9.61951L25 10.9995L26.38 9.61951C28.16 7.89951 30.51 6.95951 32.96 7.01951C35.43 7.05951 37.73 8.05951 39.45 9.82951C40.05 10.4495 40.56 11.1495 40.97 11.9095C42.75 15.3395 42.1 19.4495 39.35 22.1495L28.05 33.6695H28.04C27.21 34.5095 26.11 34.9195 25.01 34.9195L25 34.9095ZM17.14 9.08951C14.58 9.08951 12.1 10.4795 10.83 12.8995C9.50999 15.4895 10.03 18.5995 12.14 20.6195L23.48 32.1695C24.31 32.9895 25.68 32.9995 26.52 32.1695L37.83 20.6395C39.92 18.5895 40.42 15.4795 39.07 12.8995C38.76 12.3195 38.37 11.7895 37.91 11.3095C36.59 9.94951 34.82 9.17951 32.92 9.14951C31.02 9.12951 29.23 9.82951 27.86 11.1495L25.74 13.2695C25.32 13.6895 24.65 13.6895 24.24 13.2695L22.11 11.1395C21.61 10.6495 21.04 10.2295 20.42 9.90951C19.37 9.35951 18.24 9.09951 17.13 9.09951L17.14 9.08951ZM7.45 57.0202C7.15 57.0202 6.85 56.8902 6.64 56.6402L2.38 51.5802C0.85 49.6902 0 47.3302 0 44.9202V33.9202C0 31.5702 1.91 29.6602 4.26 29.6602C6.61 29.6602 8.52 31.5702 8.52 33.9202V38.4733C9.42221 37.9883 10.4544 37.8623 11.45 38.1303C12.49 38.4103 13.36 39.0703 13.9 40.0003L16.3 43.6803C17.47 45.4203 18.09 47.4703 18.09 49.5803V55.9603C18.09 56.5503 17.61 57.0203 17.03 57.0203H17.02C16.43 57.0203 15.96 56.5403 15.96 55.9603V49.5803C15.96 47.8903 15.47 46.2603 14.52 44.8503L12.09 41.1103C11.81 40.6303 11.4 40.3103 10.91 40.1803C10.42 40.0503 9.91001 40.1203 9.47001 40.3703C9.43003 40.4003 9.38007 40.4303 9.3301 40.4603L9.33001 40.4603C8.90614 40.7446 8.62924 41.1625 8.52 41.6187V42.1302C8.52 42.2135 8.51041 42.2945 8.49231 42.3721C8.52286 42.5589 8.58165 42.7436 8.67001 42.9203L11.5 47.6403C11.8 48.1403 11.64 48.8003 11.14 49.1003C10.64 49.4003 9.98001 49.2403 9.68001 48.7403L6.81001 43.9503C6.40129 43.1415 6.27577 42.2679 6.4 41.445V33.9202C6.4 32.7502 5.45 31.7902 4.27 31.7902C3.09 31.7902 2.14 32.7402 2.14 33.9202V44.9202C2.14 46.8402 2.82 48.7302 4.03 50.2302L8.27 55.2802C8.65 55.7302 8.59 56.4002 8.14 56.7802C7.94 56.9502 7.7 57.0302 7.46 57.0302L7.45 57.0202ZM42.55 57.0204C42.31 57.0204 42.07 56.9404 41.87 56.7704C41.42 56.3904 41.36 55.7204 41.74 55.2704L46 50.2104C47.2 48.7304 47.87 46.8404 47.88 44.9104V33.9104C47.88 32.7404 46.93 31.7804 45.75 31.7804C44.57 31.7804 43.62 32.7304 43.62 33.9104V41.4547C43.7466 42.2645 43.6305 43.1191 43.24 43.9001L40.33 48.7601C40.03 49.2601 39.37 49.4301 38.87 49.1201C38.37 48.8201 38.2 48.1601 38.51 47.6601L41.38 42.8701C41.4561 42.7161 41.507 42.5521 41.5338 42.384C41.5118 42.2995 41.5 42.2112 41.5 42.1204V41.6388C41.389 41.1901 41.1163 40.7711 40.7 40.4901C40.64 40.4501 40.59 40.4201 40.54 40.3901C40.1 40.1401 39.59 40.0701 39.11 40.2001C38.62 40.3301 38.21 40.6401 37.96 41.0801L35.51 44.8501C34.56 46.2701 34.06 47.9001 34.07 49.5901V55.9801C34.07 56.5701 33.59 57.0401 33.01 57.0401L32.98 57.0201C32.39 57.0201 31.92 56.5401 31.92 55.9601V49.5801C31.92 47.4701 32.54 45.4201 33.72 43.6701L36.14 39.9601C36.65 39.0801 37.52 38.4101 38.56 38.1401C39.5593 37.8711 40.5954 37.999 41.5 38.4884V33.9104C41.5 31.5604 43.41 29.6504 45.76 29.6504C48.11 29.6504 50.02 31.5604 50.02 33.9104V44.9104C50.02 47.3204 49.17 49.6804 47.66 51.5604L43.39 56.6404C43.18 56.8904 42.88 57.0204 42.58 57.0204H42.55Z" fill="black"/>
</svg>
