<svg width="24" height="24" viewBox="0 0 24 24" fill="none" xmlns="http://www.w3.org/2000/svg">
<path fill-rule="evenodd" clip-rule="evenodd" d="M9.375 13.0908C8.96249 13.0908 8.55374 12.9371 8.23874 12.6258L3.99374 8.29832C2.95874 7.30082 2.69999 5.75957 3.35624 4.46957C4.24124 2.77457 6.34124 2.11832 8.0325 3.00332C8.33624 3.16082 8.61375 3.36707 8.8575 3.60707L9.375 4.12457L9.89249 3.60707C10.56 2.96207 11.4412 2.60957 12.36 2.63207C13.2862 2.64707 14.1487 3.02207 14.7937 3.68582C15.0187 3.91832 15.21 4.18082 15.3637 4.46582C16.0312 5.75207 15.7875 7.29332 14.7562 8.30582L10.5187 12.6258H10.515C10.2037 12.9408 9.79125 13.0946 9.37875 13.0946L9.375 13.0908ZM6.4275 3.40832C5.46749 3.40832 4.5375 3.92957 4.06124 4.83707C3.56624 5.80832 3.76125 6.97457 4.5525 7.73207L8.80499 12.0633C9.11625 12.3708 9.63 12.3746 9.94499 12.0633L14.1862 7.73957C14.97 6.97082 15.1575 5.80457 14.6512 4.83707C14.535 4.61957 14.3887 4.42082 14.2162 4.24082C13.7212 3.73082 13.0575 3.44207 12.345 3.43082C11.6325 3.42332 10.9612 3.68582 10.4475 4.18082L9.65249 4.97582C9.495 5.13332 9.24374 5.13332 9.08999 4.97582L8.29125 4.17707C8.10375 3.99332 7.89 3.83582 7.6575 3.71582C7.26374 3.50957 6.83999 3.41207 6.42374 3.41207L6.4275 3.40832ZM2.79375 21.3823C2.68125 21.3823 2.56875 21.3336 2.49 21.2398L0.8925 19.3423C0.31875 18.6336 0 17.7486 0 16.8448V12.7198C0 11.8386 0.71625 11.1223 1.5975 11.1223C2.47875 11.1223 3.195 11.8386 3.195 12.7198V14.4272C3.53333 14.2454 3.92041 14.1981 4.29375 14.2986C4.68375 14.4036 5.01 14.6511 5.2125 14.9999L6.1125 16.3799C6.55125 17.0324 6.78375 17.8011 6.78375 18.5924V20.9849C6.78375 21.2061 6.60375 21.3824 6.38625 21.3824H6.3825C6.16125 21.3824 5.985 21.2024 5.985 20.9849V18.5924C5.985 17.9586 5.80125 17.3474 5.445 16.8186L4.53375 15.4161C4.42875 15.2361 4.275 15.1161 4.09125 15.0674C3.9075 15.0186 3.71625 15.0449 3.55125 15.1386C3.53626 15.1499 3.51752 15.1611 3.49878 15.1724L3.49875 15.1724C3.3398 15.279 3.23596 15.4357 3.195 15.6068V15.7986C3.195 15.8298 3.1914 15.8602 3.18462 15.8893C3.19607 15.9593 3.21812 16.0286 3.25125 16.0949L4.3125 17.8649C4.425 18.0524 4.365 18.2999 4.1775 18.4124C3.99 18.5249 3.7425 18.4649 3.63 18.2774L2.55375 16.4811C2.40048 16.1778 2.35341 15.8502 2.4 15.5416V12.7198C2.4 12.2811 2.04375 11.9211 1.60125 11.9211C1.15875 11.9211 0.8025 12.2773 0.8025 12.7198V16.8448C0.8025 17.5648 1.0575 18.2736 1.51125 18.8361L3.10125 20.7298C3.24375 20.8986 3.22125 21.1498 3.0525 21.2923C2.9775 21.3561 2.8875 21.3861 2.7975 21.3861L2.79375 21.3823ZM15.9563 21.3824C15.8663 21.3824 15.7763 21.3524 15.7013 21.2887C15.5325 21.1462 15.51 20.8949 15.6525 20.7262L17.25 18.8287C17.7 18.2737 17.9513 17.5649 17.955 16.8412V12.7162C17.955 12.2774 17.5988 11.9174 17.1563 11.9174C16.7138 11.9174 16.3575 12.2737 16.3575 12.7162V15.5453C16.405 15.8489 16.3614 16.1694 16.215 16.4623L15.1238 18.2848C15.0113 18.4723 14.7638 18.536 14.5763 18.4198C14.3888 18.3073 14.325 18.0598 14.4413 17.8723L15.5175 16.076C15.546 16.0183 15.5651 15.9568 15.5752 15.8938C15.5669 15.8621 15.5625 15.829 15.5625 15.7949V15.6143C15.5209 15.4461 15.4186 15.2889 15.2625 15.1835C15.24 15.1685 15.2213 15.1573 15.2025 15.146C15.0375 15.0523 14.8463 15.026 14.6663 15.0748C14.4825 15.1235 14.3288 15.2398 14.235 15.4048L13.3163 16.8185C12.96 17.351 12.7725 17.9623 12.7763 18.596V20.9923C12.7763 21.2135 12.5963 21.3898 12.3788 21.3898L12.3675 21.3823C12.1463 21.3823 11.97 21.2023 11.97 20.9848V18.5923C11.97 17.801 12.2025 17.0323 12.645 16.376L13.5525 14.9848C13.7438 14.6548 14.07 14.4035 14.46 14.3023C14.8347 14.2014 15.2233 14.2494 15.5625 14.4329V12.7162C15.5625 11.8349 16.2788 11.1187 17.16 11.1187C18.0413 11.1187 18.7575 11.8349 18.7575 12.7162V16.8412C18.7575 17.7449 18.4388 18.6299 17.8725 19.3349L16.2713 21.2399C16.1925 21.3337 16.08 21.3824 15.9675 21.3824H15.9563Z" fill="black"/>
</svg>
