<svg width="64" height="64" viewBox="0 0 64 64" fill="none" xmlns="http://www.w3.org/2000/svg">
<g clip-path="url(#clip0_1530_3050)">
<path fill-rule="evenodd" clip-rule="evenodd" d="M13.26 47.9652C12.67 47.9652 12.2 47.4852 12.2 46.9052V41.9349V22.0649V17.0952C12.2 16.5152 12.68 16.0352 13.26 16.0352C13.84 16.0352 14.32 16.5152 14.32 17.0952V21.0049H30.65C36.36 21.0049 41.06 25.3749 41.6 30.9349H53C59.06 30.9349 64 35.8649 64 41.9349C64 42.5249 63.52 42.9949 62.94 42.9949H62.93H14.32V46.9052C14.32 47.4952 13.84 47.9652 13.26 47.9652ZM14.33 40.8649H61.81C61.28 36.4749 57.53 33.0549 53 33.0549H40.7273C40.6791 33.0618 40.6299 33.0653 40.58 33.0653H30.65C30.06 33.0653 29.59 32.5853 29.59 32.0053C29.59 31.4253 30.07 30.9453 30.65 30.9453H39.4582C38.9373 26.5479 35.185 23.1249 30.65 23.1249H14.33V40.8649Z" fill="black"/>
</g>
<defs>
<clipPath id="clip0_1530_3050">
<rect width="64" height="64" fill="white"/>
</clipPath>
</defs>
</svg>
