<svg width="24" height="24" viewBox="0 0 24 24" fill="none" xmlns="http://www.w3.org/2000/svg">
<path fill-rule="evenodd" clip-rule="evenodd" d="M2.68501 17.9874C2.46376 17.9874 2.28751 17.8074 2.28751 17.5899V15.7261V8.27482V6.41117C2.28751 6.19367 2.46751 6.01367 2.68501 6.01367C2.90251 6.01367 3.08251 6.19367 3.08251 6.41117V7.87732H9.20626C11.3475 7.87732 13.11 9.51607 13.3125 11.6011H17.5875C19.86 11.6011 21.7125 13.4498 21.7125 15.7261C21.7125 15.9473 21.5325 16.1236 21.315 16.1236H21.3113H3.08251V17.5899C3.08251 17.8112 2.90251 17.9874 2.68501 17.9874ZM3.08626 15.3248H20.8913C20.6925 13.6786 19.2863 12.3961 17.5875 12.3961H12.9852C12.9672 12.3986 12.9487 12.4 12.93 12.4H9.20625C8.985 12.4 8.80875 12.22 8.80875 12.0025C8.80875 11.785 8.98875 11.605 9.20625 11.605H12.5093C12.314 9.95596 10.9069 8.67232 9.20626 8.67232H3.08626V15.3248Z" fill="black"/>
</svg>
