<svg width="24" height="24" viewBox="0 0 24 24" fill="none" xmlns="http://www.w3.org/2000/svg">
<g clip-path="url(#clip0_1530_5681)">
<path fill-rule="evenodd" clip-rule="evenodd" d="M4.97251 17.9874C4.75126 17.9874 4.57501 17.8074 4.57501 17.5899V15.7261V8.27482V6.41117C4.57501 6.19367 4.75501 6.01367 4.97251 6.01367C5.19001 6.01367 5.37001 6.19367 5.37001 6.41117V7.87732H11.4938C13.635 7.87732 15.3975 9.51607 15.6 11.6011H19.875C22.1475 11.6011 24 13.4498 24 15.7261C24 15.9473 23.82 16.1236 23.6025 16.1236H23.5988H5.37001V17.5899C5.37001 17.8112 5.19001 17.9874 4.97251 17.9874ZM5.37376 15.3248H23.1788C22.98 13.6786 21.5738 12.3961 19.875 12.3961H15.2728C15.2547 12.3986 15.2362 12.4 15.2175 12.4H11.4938C11.2725 12.4 11.0963 12.22 11.0963 12.0025C11.0963 11.785 11.2763 11.605 11.4938 11.605H14.7968C14.6015 9.95596 13.1944 8.67232 11.4938 8.67232H5.37376V15.3248Z" fill="black"/>
</g>
<defs>
<clipPath id="clip0_1530_5681">
<rect width="24" height="24" fill="white"/>
</clipPath>
</defs>
</svg>
