<svg width="24" height="24" viewBox="0 0 24 24" fill="none" xmlns="http://www.w3.org/2000/svg">
<path fill-rule="evenodd" clip-rule="evenodd" d="M0.3975 17.9874C0.17625 17.9874 0 17.8074 0 17.5899V15.7261V8.27482V6.41117C0 6.19367 0.18 6.01367 0.3975 6.01367C0.615 6.01367 0.795 6.19367 0.795 6.41117V7.87732H6.91875C9.06 7.87732 10.8225 9.51607 11.025 11.6011H15.3C17.5725 11.6011 19.425 13.4498 19.425 15.7261C19.425 15.9473 19.245 16.1236 19.0275 16.1236H19.0238H0.795V17.5899C0.795 17.8112 0.615 17.9874 0.3975 17.9874ZM0.79875 15.3248H18.6038C18.405 13.6786 16.9988 12.3961 15.3 12.3961H10.6977C10.6797 12.3986 10.6612 12.4 10.6425 12.4H6.91874C6.69749 12.4 6.52124 12.22 6.52124 12.0025C6.52124 11.785 6.70124 11.605 6.91874 11.605H10.2218C10.0265 9.95596 8.61936 8.67232 6.91875 8.67232H0.79875V15.3248Z" fill="black"/>
</svg>
