<svg width="64" height="64" viewBox="0 0 64 64" fill="none" xmlns="http://www.w3.org/2000/svg">
<path fill-rule="evenodd" clip-rule="evenodd" d="M7.16001 47.9652C6.57001 47.9652 6.10001 47.4852 6.10001 46.9052V41.9349V22.0649V17.0952C6.10001 16.5152 6.58001 16.0352 7.16001 16.0352C7.74001 16.0352 8.22001 16.5152 8.22001 17.0952V21.0049H24.55C30.26 21.0049 34.96 25.3749 35.5 30.9349H46.9C52.96 30.9349 57.9 35.8649 57.9 41.9349C57.9 42.5249 57.42 42.9949 56.84 42.9949H56.83H8.22001V46.9052C8.22001 47.4952 7.74001 47.9652 7.16001 47.9652ZM8.23001 40.8649H55.71C55.18 36.4749 51.43 33.0549 46.9 33.0549H34.6273C34.5791 33.0618 34.5299 33.0653 34.48 33.0653H24.55C23.96 33.0653 23.49 32.5853 23.49 32.0053C23.49 31.4253 23.97 30.9453 24.55 30.9453H33.3582C32.8373 26.5479 29.085 23.1249 24.55 23.1249H8.23001V40.8649Z" fill="black"/>
</svg>
