<svg width="64" height="64" viewBox="0 0 64 64" fill="none" xmlns="http://www.w3.org/2000/svg">
<path fill-rule="evenodd" clip-rule="evenodd" d="M1.06 47.9652C0.47 47.9652 0 47.4852 0 46.9052V41.9349V22.0649V17.0952C0 16.5152 0.48 16.0352 1.06 16.0352C1.64 16.0352 2.12 16.5152 2.12 17.0952V21.0049H18.45C24.16 21.0049 28.86 25.3749 29.4 30.9349H40.8C46.86 30.9349 51.8 35.8649 51.8 41.9349C51.8 42.5249 51.32 42.9949 50.74 42.9949H50.73H2.12V46.9052C2.12 47.4952 1.64 47.9652 1.06 47.9652ZM2.13 40.8649H49.61C49.08 36.4749 45.33 33.0549 40.8 33.0549H28.5273C28.4791 33.0618 28.4299 33.0653 28.38 33.0653H18.45C17.86 33.0653 17.39 32.5853 17.39 32.0053C17.39 31.4253 17.87 30.9453 18.45 30.9453H27.2582C26.7373 26.5479 22.985 23.1249 18.45 23.1249H2.13V40.8649Z" fill="black"/>
</svg>
