<svg width="24" height="24" viewBox="0 0 24 24" fill="none" xmlns="http://www.w3.org/2000/svg">
<g clip-path="url(#clip0_1530_5884)">
<path d="M7.57874 13.0391C7.35749 13.0391 7.18124 12.8591 7.18124 12.6416V10.2491C7.18124 10.0278 7.36124 9.85156 7.57874 9.85156C7.79624 9.85156 7.97624 10.0316 7.97624 10.2491V12.6416C7.97624 12.8628 7.79624 13.0391 7.57874 13.0391Z" fill="black"/>
<path d="M7.57875 21.3335C7.40625 21.3335 7.23375 21.2885 7.08375 21.2023C0.51 17.4448 0 11.8648 0 10.2448C0 8.21977 0.7875 6.31852 2.22 4.88602C3.6525 3.45352 5.55375 2.66602 7.57875 2.66602C9.60375 2.66602 11.5088 3.45352 12.9375 4.88602C14.3662 6.31852 15.1575 8.21977 15.1575 10.2448C15.1575 11.8648 14.6475 17.4485 8.07 21.2023C7.92 21.2885 7.7475 21.3335 7.575 21.3335H7.57875ZM7.57875 3.46102C5.7675 3.46102 4.065 4.16602 2.7825 5.44852C1.5 6.73102 0.79875 8.43352 0.79875 10.2448C0.79875 11.756 1.2825 16.9648 7.48125 20.5085C7.54125 20.5423 7.62 20.5423 7.67625 20.5085C13.8788 16.9685 14.3588 11.756 14.3588 10.2448C14.3588 8.43352 13.6538 6.73102 12.3713 5.44852C11.0888 4.16602 9.38625 3.46102 7.575 3.46102H7.57875Z" fill="black"/>
<path d="M7.57876 8.89891C7.19251 8.89891 6.88126 8.58391 6.88126 8.20141C6.88126 7.81891 7.19626 7.50391 7.57876 7.50391V8.89891Z" fill="black"/>
<path d="M7.57874 8.89891V7.50391C7.96499 7.50391 8.27624 7.81891 8.27624 8.20141C8.27624 8.58391 7.96124 8.89891 7.57874 8.89891Z" fill="black"/>
</g>
<defs>
<clipPath id="clip0_1530_5884">
<rect width="15.1613" height="18.6675" fill="white" transform="translate(0 2.66602)"/>
</clipPath>
</defs>
</svg>
