<svg width="64" height="64" viewBox="0 0 64 64" fill="none" xmlns="http://www.w3.org/2000/svg">
<g clip-path="url(#clip0_1530_3022)">
<path fill-rule="evenodd" clip-rule="evenodd" d="M59.74 56.9951H24.64C22.29 56.9951 20.38 55.0851 20.38 52.7351V11.2551C20.38 8.90512 22.29 6.99512 24.64 6.99512H46.96H47.25C48.39 6.99512 49.45 7.43512 50.26 8.24512L62.75 20.7351C63.55 21.5351 64 22.6051 64 23.7451V52.7451C64 55.0951 62.09 57.0051 59.74 57.0051V56.9951ZM24.64 9.12512H45.9V20.8251C45.9 23.1751 47.81 25.0851 50.16 25.0851H61.87V52.7351C61.87 53.9151 60.91 54.8651 59.74 54.8651H24.64C23.46 54.8651 22.51 53.9051 22.51 52.7351V11.2551C22.51 10.0751 23.47 9.12512 24.64 9.12512ZM50.15 22.9551H61.7197C61.6146 22.6921 61.4562 22.4513 61.25 22.2451L48.75 9.74512C48.5396 9.5347 48.2904 9.37409 48.02 9.26912V20.8251C48.02 21.9951 48.97 22.9551 50.15 22.9551ZM42.18 39.4452H54.95C55.53 39.4452 56.01 38.9652 56.01 38.3852C56.01 37.8052 55.54 37.3252 54.95 37.3252H42.18C41.6 37.3252 41.12 37.8052 41.12 38.3852C41.12 38.9652 41.59 39.4452 42.18 39.4452ZM54.95 49.0155H31.02C30.43 49.0155 29.96 48.5355 29.96 47.9555C29.96 47.3755 30.44 46.8955 31.02 46.8955H54.96C55.55 46.8955 56.02 47.3755 56.02 47.9555C56.02 48.5355 55.54 49.0155 54.96 49.0155H54.95ZM28.4422 26.6455C29.6227 30.2029 32.9812 32.7755 36.93 32.7755C37.48 32.7755 37.93 32.3255 37.93 31.7755C37.93 31.2255 37.48 30.7755 36.93 30.7755C34.0999 30.7755 31.663 29.0774 30.5834 26.6455H35.63C36.18 26.6455 36.63 26.1955 36.63 25.6455C36.63 25.0955 36.18 24.6455 35.63 24.6455H30.0369C30.0059 24.3798 29.99 24.1095 29.99 23.8355L29.99 23.8154H35.63C36.18 23.8154 36.63 23.3654 36.63 22.8154C36.63 22.2654 36.18 21.8154 35.63 21.8154H30.2891C31.1551 18.9693 33.8025 16.8955 36.93 16.8955C37.48 16.8955 37.93 16.4455 37.93 15.8955C37.93 15.3455 37.48 14.8955 36.93 14.8955C32.6945 14.8955 29.138 17.8553 28.2201 21.8154H26.43C25.88 21.8154 25.43 22.2654 25.43 22.8154C25.43 23.3654 25.88 23.8154 26.43 23.8154H27.99L27.99 23.8355C27.99 24.1085 28.0023 24.3787 28.0264 24.6455H26.43C25.88 24.6455 25.43 25.0955 25.43 25.6455C25.43 26.1955 25.88 26.6455 26.43 26.6455H28.4422Z" fill="#1D1D1B"/>
</g>
<defs>
<clipPath id="clip0_1530_3022">
<rect width="64" height="64" fill="white"/>
</clipPath>
</defs>
</svg>
