<svg width="64" height="64" viewBox="0 0 64 64" fill="none" xmlns="http://www.w3.org/2000/svg">
<path fill-rule="evenodd" clip-rule="evenodd" d="M39.36 56.9951H4.26C1.91 56.9951 0 55.0851 0 52.7351V11.2551C0 8.90512 1.91 6.99512 4.26 6.99512H26.58H26.87C28.01 6.99512 29.07 7.43512 29.88 8.24512L42.37 20.7351C43.17 21.5351 43.62 22.6051 43.62 23.7451V52.7451C43.62 55.0951 41.71 57.0051 39.36 57.0051V56.9951ZM4.26 9.12512H25.52V20.8251C25.52 23.1751 27.43 25.0851 29.78 25.0851H41.49V52.7351C41.49 53.9151 40.53 54.8651 39.36 54.8651H4.26C3.08 54.8651 2.13 53.9051 2.13 52.7351V11.2551C2.13 10.0751 3.09 9.12512 4.26 9.12512ZM29.77 22.9551H41.3397C41.2346 22.6921 41.0762 22.4513 40.87 22.2451L28.37 9.74512C28.1596 9.5347 27.9104 9.37409 27.64 9.26912V20.8251C27.64 21.9951 28.59 22.9551 29.77 22.9551ZM21.8 39.4452H34.57C35.15 39.4452 35.63 38.9652 35.63 38.3852C35.63 37.8052 35.16 37.3252 34.57 37.3252H21.8C21.22 37.3252 20.74 37.8052 20.74 38.3852C20.74 38.9652 21.21 39.4452 21.8 39.4452ZM34.57 49.0155H10.64C10.05 49.0155 9.57999 48.5355 9.57999 47.9555C9.57999 47.3755 10.06 46.8955 10.64 46.8955H34.58C35.17 46.8955 35.64 47.3755 35.64 47.9555C35.64 48.5355 35.16 49.0155 34.58 49.0155H34.57ZM8.06218 26.6455C9.24267 30.2029 12.6012 32.7755 16.55 32.7755C17.1 32.7755 17.55 32.3255 17.55 31.7755C17.55 31.2255 17.1 30.7755 16.55 30.7755C13.7199 30.7755 11.2829 29.0774 10.2034 26.6455H15.25C15.8 26.6455 16.25 26.1955 16.25 25.6455C16.25 25.0955 15.8 24.6455 15.25 24.6455H9.65685C9.6259 24.3798 9.60999 24.1095 9.60999 23.8355L9.61001 23.8154H15.25C15.8 23.8154 16.25 23.3654 16.25 22.8154C16.25 22.2654 15.8 21.8154 15.25 21.8154H9.90913C10.7751 18.9693 13.4225 16.8955 16.55 16.8955C17.1 16.8955 17.55 16.4455 17.55 15.8955C17.55 15.3455 17.1 14.8955 16.55 14.8955C12.3145 14.8955 8.75803 17.8553 7.84008 21.8154H6.04999C5.49999 21.8154 5.04999 22.2654 5.04999 22.8154C5.04999 23.3654 5.49999 23.8154 6.04999 23.8154H7.61001L7.60999 23.8355C7.60999 24.1085 7.62228 24.3787 7.64635 24.6455H6.04999C5.49999 24.6455 5.04999 25.0955 5.04999 25.6455C5.04999 26.1955 5.49999 26.6455 6.04999 26.6455H8.06218Z" fill="#1D1D1B"/>
</svg>
