<svg width="64" height="64" viewBox="0 0 64 64" fill="none" xmlns="http://www.w3.org/2000/svg">
<g clip-path="url(#clip0_1530_4892)">
<path d="M20.21 34.7695C19.62 34.7695 19.15 34.2895 19.15 33.7095V27.3295C19.15 26.7395 19.63 26.2695 20.21 26.2695C20.79 26.2695 21.27 26.7495 21.27 27.3295V33.7095C21.27 34.2995 20.79 34.7695 20.21 34.7695Z" fill="black"/>
<path d="M20.21 56.8894C19.75 56.8894 19.29 56.7694 18.89 56.5394C1.36 46.5194 0 31.6394 0 27.3194C0 21.9194 2.1 16.8494 5.92 13.0294C9.74 9.20938 14.81 7.10938 20.21 7.10938C25.61 7.10938 30.69 9.20938 34.5 13.0294C38.31 16.8494 40.42 21.9194 40.42 27.3194C40.42 31.6394 39.06 46.5294 21.52 56.5394C21.12 56.7694 20.66 56.8894 20.2 56.8894H20.21ZM20.21 9.22937C15.38 9.22937 10.84 11.1094 7.42 14.5294C4 17.9494 2.13 22.4894 2.13 27.3194C2.13 31.3494 3.42 45.2394 19.95 54.6894C20.11 54.7794 20.32 54.7794 20.47 54.6894C37.01 45.2494 38.29 31.3494 38.29 27.3194C38.29 22.4894 36.41 17.9494 32.99 14.5294C29.57 11.1094 25.03 9.22937 20.2 9.22937H20.21Z" fill="black"/>
<path d="M20.21 23.7298C19.18 23.7298 18.35 22.8898 18.35 21.8698C18.35 20.8498 19.19 20.0098 20.21 20.0098V23.7298Z" fill="black"/>
<path d="M20.21 23.7298V20.0098C21.24 20.0098 22.07 20.8498 22.07 21.8698C22.07 22.8898 21.23 23.7298 20.21 23.7298Z" fill="black"/>
</g>
<defs>
<clipPath id="clip0_1530_4892">
<rect width="40.43" height="49.78" fill="white" transform="translate(0 7.10938)"/>
</clipPath>
</defs>
</svg>
