<svg width="24" height="24" viewBox="0 0 24 24" fill="none" xmlns="http://www.w3.org/2000/svg">
<g clip-path="url(#clip0_1530_5662)">
<path fill-rule="evenodd" clip-rule="evenodd" d="M22.4025 21.373H9.24002C8.35877 21.373 7.64252 20.6568 7.64252 19.7755V4.22055C7.64252 3.3393 8.35877 2.62305 9.24002 2.62305H17.61H17.7188C18.1463 2.62305 18.5438 2.78805 18.8475 3.0918L23.5313 7.77555C23.8313 8.07555 24 8.4768 24 8.9043V19.7793C24 20.6605 23.2838 21.3768 22.4025 21.3768V21.373ZM9.24002 3.4218H17.2125V7.8093C17.2125 8.69055 17.9288 9.4068 18.81 9.4068H23.2013V19.7755C23.2013 20.218 22.8413 20.5743 22.4025 20.5743H9.24002C8.79752 20.5743 8.44127 20.2143 8.44127 19.7755V4.22055C8.44127 3.77805 8.80127 3.4218 9.24002 3.4218ZM18.8063 8.60805H23.1449C23.1055 8.50942 23.0461 8.41913 22.9688 8.3418L18.2813 3.6543C18.2024 3.57539 18.1089 3.51516 18.0075 3.4758V7.8093C18.0075 8.24805 18.3638 8.60805 18.8063 8.60805ZM15.8175 14.7918H20.6063C20.8238 14.7918 21.0038 14.6118 21.0038 14.3943C21.0038 14.1768 20.8275 13.9968 20.6063 13.9968H15.8175C15.6 13.9968 15.42 14.1768 15.42 14.3943C15.42 14.6118 15.5963 14.7918 15.8175 14.7918ZM20.6063 18.3807H11.6325C11.4113 18.3807 11.235 18.2007 11.235 17.9832C11.235 17.7657 11.415 17.5857 11.6325 17.5857H20.61C20.8313 17.5857 21.0075 17.7657 21.0075 17.9832C21.0075 18.2007 20.8275 18.3807 20.61 18.3807H20.6063ZM10.6658 9.99194C11.1085 11.326 12.368 12.2907 13.8488 12.2907C14.055 12.2907 14.2238 12.1219 14.2238 11.9157C14.2238 11.7094 14.055 11.5407 13.8488 11.5407C12.7875 11.5407 11.8736 10.9039 11.4688 9.99194H13.3613C13.5675 9.99194 13.7363 9.82319 13.7363 9.61694C13.7363 9.41069 13.5675 9.24194 13.3613 9.24194H11.2638C11.2522 9.14229 11.2463 9.04093 11.2463 8.93819L11.2463 8.93066H13.3613C13.5675 8.93066 13.7363 8.76191 13.7363 8.55566C13.7363 8.34941 13.5675 8.18066 13.3613 8.18066H11.3584C11.6832 7.11335 12.6759 6.33569 13.8488 6.33569C14.055 6.33569 14.2238 6.16694 14.2238 5.96069C14.2238 5.75444 14.055 5.58569 13.8488 5.58569C12.2604 5.58569 10.9268 6.69561 10.5825 8.18066H9.91126C9.70501 8.18066 9.53626 8.34941 9.53626 8.55566C9.53626 8.76191 9.70501 8.93066 9.91126 8.93066H10.4963L10.4963 8.93819C10.4963 9.04057 10.5009 9.14188 10.5099 9.24194H9.91126C9.70501 9.24194 9.53626 9.41069 9.53626 9.61694C9.53626 9.82319 9.70501 9.99194 9.91126 9.99194H10.6658Z" fill="#1D1D1B"/>
</g>
<defs>
<clipPath id="clip0_1530_5662">
<rect width="24" height="24" fill="white"/>
</clipPath>
</defs>
</svg>
