<svg width="24" height="24" viewBox="0 0 24 24" fill="none" xmlns="http://www.w3.org/2000/svg">
<g clip-path="url(#clip0_1530_5878)">
<path d="M11.9981 13.0391C11.7769 13.0391 11.6006 12.8591 11.6006 12.6416V10.2491C11.6006 10.0278 11.7806 9.85156 11.9981 9.85156C12.2156 9.85156 12.3956 10.0316 12.3956 10.2491V12.6416C12.3956 12.8628 12.2156 13.0391 11.9981 13.0391Z" fill="black"/>
<path d="M11.9981 21.3335C11.8256 21.3335 11.6531 21.2885 11.5031 21.2023C4.92937 17.4448 4.41937 11.8648 4.41937 10.2448C4.41937 8.21977 5.20687 6.31852 6.63937 4.88602C8.07187 3.45352 9.97312 2.66602 11.9981 2.66602C14.0231 2.66602 15.9281 3.45352 17.3569 4.88602C18.7856 6.31852 19.5769 8.21977 19.5769 10.2448C19.5769 11.8648 19.0669 17.4485 12.4894 21.2023C12.3394 21.2885 12.1669 21.3335 11.9944 21.3335H11.9981ZM11.9981 3.46102C10.1869 3.46102 8.48437 4.16602 7.20187 5.44852C5.91937 6.73102 5.21812 8.43352 5.21812 10.2448C5.21812 11.756 5.70187 16.9648 11.9006 20.5085C11.9606 20.5423 12.0394 20.5423 12.0956 20.5085C18.2981 16.9685 18.7781 11.756 18.7781 10.2448C18.7781 8.43352 18.0731 6.73102 16.7906 5.44852C15.5081 4.16602 13.8056 3.46102 11.9944 3.46102H11.9981Z" fill="black"/>
<path d="M11.9981 8.89891C11.6119 8.89891 11.3006 8.58391 11.3006 8.20141C11.3006 7.81891 11.6156 7.50391 11.9981 7.50391V8.89891Z" fill="black"/>
<path d="M11.9981 8.89891V7.50391C12.3844 7.50391 12.6956 7.81891 12.6956 8.20141C12.6956 8.58391 12.3806 8.89891 11.9981 8.89891Z" fill="black"/>
</g>
<defs>
<clipPath id="clip0_1530_5878">
<rect width="15.1613" height="18.6675" fill="white" transform="translate(4.41937 2.66602)"/>
</clipPath>
</defs>
</svg>
