<svg width="64" height="64" viewBox="0 0 64 64" fill="none" xmlns="http://www.w3.org/2000/svg">
<g clip-path="url(#clip0_1530_4882)">
<path d="M31.995 34.7695C31.405 34.7695 30.935 34.2895 30.935 33.7095V27.3295C30.935 26.7395 31.415 26.2695 31.995 26.2695C32.575 26.2695 33.055 26.7495 33.055 27.3295V33.7095C33.055 34.2995 32.575 34.7695 31.995 34.7695Z" fill="black"/>
<path d="M31.995 56.8894C31.535 56.8894 31.075 56.7694 30.675 56.5394C13.145 46.5194 11.785 31.6394 11.785 27.3194C11.785 21.9194 13.885 16.8494 17.705 13.0294C21.525 9.20938 26.595 7.10938 31.995 7.10938C37.395 7.10938 42.475 9.20938 46.285 13.0294C50.095 16.8494 52.205 21.9194 52.205 27.3194C52.205 31.6394 50.845 46.5294 33.305 56.5394C32.905 56.7694 32.445 56.8894 31.985 56.8894H31.995ZM31.995 9.22937C27.165 9.22937 22.625 11.1094 19.205 14.5294C15.785 17.9494 13.915 22.4894 13.915 27.3194C13.915 31.3494 15.205 45.2394 31.735 54.6894C31.895 54.7794 32.105 54.7794 32.255 54.6894C48.795 45.2494 50.075 31.3494 50.075 27.3194C50.075 22.4894 48.195 17.9494 44.775 14.5294C41.355 11.1094 36.815 9.22937 31.985 9.22937H31.995Z" fill="black"/>
<path d="M31.995 23.7298C30.965 23.7298 30.135 22.8898 30.135 21.8698C30.135 20.8498 30.975 20.0098 31.995 20.0098V23.7298Z" fill="black"/>
<path d="M31.995 23.7298V20.0098C33.025 20.0098 33.855 20.8498 33.855 21.8698C33.855 22.8898 33.015 23.7298 31.995 23.7298Z" fill="black"/>
</g>
<defs>
<clipPath id="clip0_1530_4882">
<rect width="40.43" height="49.78" fill="white" transform="translate(11.785 7.10938)"/>
</clipPath>
</defs>
</svg>
