<svg width="64" height="64" viewBox="0 0 64 64" fill="none" xmlns="http://www.w3.org/2000/svg">
<g clip-path="url(#clip0_1530_4898)">
<g clip-path="url(#clip1_1530_4898)">
<path d="M43.78 34.7695C43.19 34.7695 42.72 34.2895 42.72 33.7095V27.3295C42.72 26.7395 43.2 26.2695 43.78 26.2695C44.36 26.2695 44.84 26.7495 44.84 27.3295V33.7095C44.84 34.2995 44.36 34.7695 43.78 34.7695Z" fill="black"/>
<path d="M43.78 56.8894C43.32 56.8894 42.86 56.7694 42.46 56.5394C24.93 46.5194 23.57 31.6394 23.57 27.3194C23.57 21.9194 25.67 16.8494 29.49 13.0294C33.31 9.20938 38.38 7.10938 43.78 7.10938C49.18 7.10938 54.26 9.20938 58.07 13.0294C61.88 16.8494 63.99 21.9194 63.99 27.3194C63.99 31.6394 62.63 46.5294 45.09 56.5394C44.69 56.7694 44.23 56.8894 43.77 56.8894H43.78ZM43.78 9.22937C38.95 9.22937 34.41 11.1094 30.99 14.5294C27.57 17.9494 25.7 22.4894 25.7 27.3194C25.7 31.3494 26.99 45.2394 43.52 54.6894C43.68 54.7794 43.89 54.7794 44.04 54.6894C60.58 45.2494 61.86 31.3494 61.86 27.3194C61.86 22.4894 59.98 17.9494 56.56 14.5294C53.14 11.1094 48.6 9.22937 43.77 9.22937H43.78Z" fill="black"/>
<path d="M43.78 23.7298C42.75 23.7298 41.92 22.8898 41.92 21.8698C41.92 20.8498 42.76 20.0098 43.78 20.0098V23.7298Z" fill="black"/>
<path d="M43.78 23.7298V20.0098C44.81 20.0098 45.64 20.8498 45.64 21.8698C45.64 22.8898 44.8 23.7298 43.78 23.7298Z" fill="black"/>
</g>
</g>
<defs>
<clipPath id="clip0_1530_4898">
<rect width="64" height="64" fill="white"/>
</clipPath>
<clipPath id="clip1_1530_4898">
<rect width="40.43" height="49.78" fill="white" transform="translate(23.57 7.10938)"/>
</clipPath>
</defs>
</svg>
