<svg width="24" height="24" viewBox="0 0 24 24" fill="none" xmlns="http://www.w3.org/2000/svg">
<path fill-rule="evenodd" clip-rule="evenodd" d="M14.76 21.373H1.5975C0.71625 21.373 0 20.6568 0 19.7755V4.22055C0 3.3393 0.71625 2.62305 1.5975 2.62305H9.9675H10.0763C10.5037 2.62305 10.9012 2.78805 11.205 3.0918L15.8888 7.77555C16.1887 8.07555 16.3575 8.4768 16.3575 8.9043V19.7793C16.3575 20.6605 15.6413 21.3768 14.76 21.3768V21.373ZM1.5975 3.4218H9.57V7.8093C9.57 8.69055 10.2862 9.4068 11.1675 9.4068H15.5588V19.7755C15.5588 20.218 15.1988 20.5743 14.76 20.5743H1.5975C1.155 20.5743 0.79875 20.2143 0.79875 19.7755V4.22055C0.79875 3.77805 1.15875 3.4218 1.5975 3.4218ZM11.1637 8.60805H15.5024C15.463 8.50942 15.4036 8.41913 15.3263 8.3418L10.6388 3.6543C10.5598 3.57539 10.4664 3.51516 10.365 3.4758V7.8093C10.365 8.24805 10.7212 8.60805 11.1637 8.60805ZM8.175 14.7918H12.9637C13.1812 14.7918 13.3612 14.6118 13.3612 14.3943C13.3612 14.1768 13.185 13.9968 12.9637 13.9968H8.175C7.9575 13.9968 7.7775 14.1768 7.7775 14.3943C7.7775 14.6118 7.95375 14.7918 8.175 14.7918ZM12.9637 18.3807H3.99C3.76875 18.3807 3.59249 18.2007 3.59249 17.9832C3.59249 17.7657 3.7725 17.5857 3.99 17.5857H12.9675C13.1887 17.5857 13.365 17.7657 13.365 17.9832C13.365 18.2007 13.185 18.3807 12.9675 18.3807H12.9637ZM3.02332 9.99194C3.466 11.326 4.72546 12.2907 6.20624 12.2907C6.41249 12.2907 6.58124 12.1219 6.58124 11.9157C6.58124 11.7094 6.41249 11.5407 6.20624 11.5407C5.14496 11.5407 4.23111 10.9039 3.82627 9.99194H5.71875C5.925 9.99194 6.09375 9.82319 6.09375 9.61694C6.09375 9.41069 5.925 9.24194 5.71875 9.24194H3.62132C3.60971 9.14229 3.60374 9.04093 3.60374 8.93819L3.60375 8.93066H5.71875C5.925 8.93066 6.09375 8.76191 6.09375 8.55566C6.09375 8.34941 5.925 8.18066 5.71875 8.18066H3.71592C4.04065 7.11335 5.03343 6.33569 6.20624 6.33569C6.41249 6.33569 6.58124 6.16694 6.58124 5.96069C6.58124 5.75444 6.41249 5.58569 6.20624 5.58569C4.61793 5.58569 3.28426 6.69561 2.94003 8.18066H2.26875C2.0625 8.18066 1.89375 8.34941 1.89375 8.55566C1.89375 8.76191 2.0625 8.93066 2.26875 8.93066H2.85375L2.85374 8.93819C2.85374 9.04057 2.85836 9.14188 2.86738 9.24194H2.26875C2.0625 9.24194 1.89375 9.41069 1.89375 9.61694C1.89375 9.82319 2.0625 9.99194 2.26875 9.99194H3.02332Z" fill="#1D1D1B"/>
</svg>
