<svg width="24" height="24" viewBox="0 0 24 24" fill="none" xmlns="http://www.w3.org/2000/svg">
<path fill-rule="evenodd" clip-rule="evenodd" d="M18.5813 21.373H5.41876C4.53751 21.373 3.82126 20.6568 3.82126 19.7755V4.22055C3.82126 3.3393 4.53751 2.62305 5.41876 2.62305H13.7888H13.8975C14.325 2.62305 14.7225 2.78805 15.0263 3.0918L19.71 7.77555C20.01 8.07555 20.1788 8.4768 20.1788 8.9043V19.7793C20.1788 20.6605 19.4625 21.3768 18.5813 21.3768V21.373ZM5.41876 3.4218H13.3913V7.8093C13.3913 8.69055 14.1075 9.4068 14.9888 9.4068H19.38V19.7755C19.38 20.218 19.02 20.5743 18.5813 20.5743H5.41876C4.97626 20.5743 4.62001 20.2143 4.62001 19.7755V4.22055C4.62001 3.77805 4.98001 3.4218 5.41876 3.4218ZM14.985 8.60805H19.3236C19.2842 8.50942 19.2248 8.41913 19.1475 8.3418L14.46 3.6543C14.3811 3.57539 14.2877 3.51516 14.1863 3.4758V7.8093C14.1863 8.24805 14.5425 8.60805 14.985 8.60805ZM11.9963 14.7918H16.785C17.0025 14.7918 17.1825 14.6118 17.1825 14.3943C17.1825 14.1768 17.0063 13.9968 16.785 13.9968H11.9963C11.7788 13.9968 11.5988 14.1768 11.5988 14.3943C11.5988 14.6118 11.775 14.7918 11.9963 14.7918ZM16.785 18.3807H7.81125C7.59 18.3807 7.41375 18.2007 7.41375 17.9832C7.41375 17.7657 7.59375 17.5857 7.81125 17.5857H16.7888C17.01 17.5857 17.1863 17.7657 17.1863 17.9832C17.1863 18.2007 17.0063 18.3807 16.7888 18.3807H16.785ZM6.84458 9.99194C7.28726 11.326 8.54671 12.2907 10.0275 12.2907C10.2338 12.2907 10.4025 12.1219 10.4025 11.9157C10.4025 11.7094 10.2338 11.5407 10.0275 11.5407C8.96622 11.5407 8.05236 10.9039 7.64753 9.99194H9.54C9.74625 9.99194 9.915 9.82319 9.915 9.61694C9.915 9.41069 9.74625 9.24194 9.54 9.24194H7.44258C7.43097 9.14229 7.425 9.04093 7.425 8.93819L7.42501 8.93066H9.54C9.74625 8.93066 9.915 8.76191 9.915 8.55566C9.915 8.34941 9.74625 8.18066 9.54 8.18066H7.53718C7.86191 7.11335 8.85469 6.33569 10.0275 6.33569C10.2338 6.33569 10.4025 6.16694 10.4025 5.96069C10.4025 5.75444 10.2338 5.58569 10.0275 5.58569C8.43919 5.58569 7.10552 6.69561 6.76129 8.18066H6.09C5.88375 8.18066 5.715 8.34941 5.715 8.55566C5.715 8.76191 5.88375 8.93066 6.09 8.93066H6.67501L6.675 8.93819C6.675 9.04057 6.67961 9.14188 6.68864 9.24194H6.09C5.88375 9.24194 5.715 9.41069 5.715 9.61694C5.715 9.82319 5.88375 9.99194 6.09 9.99194H6.84458Z" fill="#1D1D1B"/>
</svg>
