<svg width="64" height="64" viewBox="0 0 64 64" fill="none" xmlns="http://www.w3.org/2000/svg">
<path fill-rule="evenodd" clip-rule="evenodd" d="M49.55 56.9951H14.45C12.1 56.9951 10.19 55.0851 10.19 52.7351V11.2551C10.19 8.90512 12.1 6.99512 14.45 6.99512H36.77H37.06C38.2 6.99512 39.26 7.43512 40.07 8.24512L52.56 20.7351C53.36 21.5351 53.81 22.6051 53.81 23.7451V52.7451C53.81 55.0951 51.9 57.0051 49.55 57.0051V56.9951ZM14.45 9.12512H35.71V20.8251C35.71 23.1751 37.62 25.0851 39.97 25.0851H51.68V52.7351C51.68 53.9151 50.72 54.8651 49.55 54.8651H14.45C13.27 54.8651 12.32 53.9051 12.32 52.7351V11.2551C12.32 10.0751 13.28 9.12512 14.45 9.12512ZM39.96 22.9551H51.5297C51.4246 22.6921 51.2662 22.4513 51.06 22.2451L38.56 9.74512C38.3496 9.5347 38.1004 9.37409 37.83 9.26912V20.8251C37.83 21.9951 38.78 22.9551 39.96 22.9551ZM31.99 39.4452H44.76C45.34 39.4452 45.82 38.9652 45.82 38.3852C45.82 37.8052 45.35 37.3252 44.76 37.3252H31.99C31.41 37.3252 30.93 37.8052 30.93 38.3852C30.93 38.9652 31.4 39.4452 31.99 39.4452ZM44.76 49.0155H20.83C20.24 49.0155 19.77 48.5355 19.77 47.9555C19.77 47.3755 20.25 46.8955 20.83 46.8955H44.77C45.36 46.8955 45.83 47.3755 45.83 47.9555C45.83 48.5355 45.35 49.0155 44.77 49.0155H44.76ZM18.2522 26.6455C19.4327 30.2029 22.7912 32.7755 26.74 32.7755C27.29 32.7755 27.74 32.3255 27.74 31.7755C27.74 31.2255 27.29 30.7755 26.74 30.7755C23.9099 30.7755 21.473 29.0774 20.3934 26.6455H25.44C25.99 26.6455 26.44 26.1955 26.44 25.6455C26.44 25.0955 25.99 24.6455 25.44 24.6455H19.8469C19.8159 24.3798 19.8 24.1095 19.8 23.8355L19.8 23.8154H25.44C25.99 23.8154 26.44 23.3654 26.44 22.8154C26.44 22.2654 25.99 21.8154 25.44 21.8154H20.0991C20.9651 18.9693 23.6125 16.8955 26.74 16.8955C27.29 16.8955 27.74 16.4455 27.74 15.8955C27.74 15.3455 27.29 14.8955 26.74 14.8955C22.5045 14.8955 18.948 17.8553 18.0301 21.8154H16.24C15.69 21.8154 15.24 22.2654 15.24 22.8154C15.24 23.3654 15.69 23.8154 16.24 23.8154H17.8L17.8 23.8355C17.8 24.1085 17.8123 24.3787 17.8364 24.6455H16.24C15.69 24.6455 15.24 25.0955 15.24 25.6455C15.24 26.1955 15.69 26.6455 16.24 26.6455H18.2522Z" fill="#1D1D1B"/>
</svg>
