<svg width="24" height="24" viewBox="0 0 24 24" fill="none" xmlns="http://www.w3.org/2000/svg">
<path fill-rule="evenodd" clip-rule="evenodd" d="M13.1508 20.9652C13.6383 21.2164 14.167 21.3439 14.6995 21.3439L14.7033 21.3514C15.052 21.3514 15.4045 21.2952 15.7458 21.1864C16.6495 20.8939 17.3883 20.2377 17.7858 19.3864C19.3833 19.9152 21.1683 19.1839 21.9108 17.6277C22.2933 16.8252 22.3458 15.9252 22.0683 15.0964C23.2608 14.5302 24.022 13.3264 23.9995 11.9764C23.9995 10.6339 23.2233 9.4452 22.0308 8.8977C22.5595 7.3002 21.8283 5.5152 20.272 4.7727C19.4733 4.3902 18.5733 4.3377 17.7445 4.61145C17.032 3.08145 15.2695 2.2827 13.6233 2.81145C12.7195 3.1002 11.9808 3.7602 11.5833 4.6077C10.8745 4.36395 10.1095 4.3602 9.38953 4.6077C8.53078 4.9002 7.84078 5.51145 7.44328 6.3252C7.04578 7.13895 6.99328 8.0877 7.28953 8.9352C5.76328 9.65145 4.96828 11.4064 5.49703 13.0527C5.78578 13.9564 6.44578 14.6952 7.29328 15.0927C6.75328 16.6864 7.46578 18.4752 9.01453 19.2327C9.82828 19.6302 10.777 19.6827 11.6245 19.3864C11.9433 20.0652 12.472 20.6164 13.1508 20.9652ZM11.9995 18.4902C11.9508 18.4714 11.8983 18.4602 11.8458 18.4602L11.842 18.4677C11.7783 18.4677 11.7183 18.4789 11.662 18.5089C10.942 18.8689 10.0833 18.8727 9.35953 18.5202C8.07703 17.8939 7.54078 16.3339 8.17078 15.0514C8.21953 14.9502 8.22328 14.8264 8.17828 14.7214C8.13328 14.6127 8.04328 14.5302 7.93453 14.4964C7.13953 14.2414 6.50953 13.6114 6.25453 12.8164C5.81578 11.4514 6.56953 9.9852 7.93453 9.54645C8.04703 9.5127 8.13703 9.4302 8.18203 9.32145C8.22703 9.2127 8.22328 9.0927 8.17078 8.9877C7.81078 8.2677 7.80703 7.40895 8.15953 6.6852C8.46328 6.0627 8.99203 5.5977 9.64828 5.3727C10.3045 5.1477 11.0058 5.1927 11.6283 5.49645C11.7295 5.5452 11.8533 5.54895 11.9583 5.50395C12.067 5.45895 12.1495 5.36895 12.1833 5.2602C12.4383 4.4652 13.0683 3.8352 13.8633 3.5802C15.232 3.14145 16.6983 3.8952 17.137 5.2602C17.1708 5.36895 17.2533 5.45895 17.3583 5.50395C17.4633 5.54895 17.5833 5.5452 17.6883 5.49645C18.397 5.1552 19.2108 5.1552 19.9233 5.49645C21.2133 6.11145 21.7608 7.66395 21.1458 8.95395C21.0933 9.05895 21.0933 9.17895 21.1383 9.28395C21.1833 9.38895 21.2733 9.47145 21.382 9.5052C22.4658 9.84645 23.1933 10.8439 23.1933 11.9802V11.9877C23.2158 13.1277 22.4995 14.1364 21.4158 14.4964C21.307 14.5302 21.2208 14.6127 21.1758 14.7177C21.1308 14.8264 21.1345 14.9427 21.1833 15.0477C21.5208 15.7564 21.5208 16.5739 21.1833 17.2827C20.5683 18.5727 19.0158 19.1202 17.7258 18.5052C17.6208 18.4527 17.5008 18.4527 17.3958 18.4977C17.2908 18.5427 17.2083 18.6327 17.1745 18.7414C16.9195 19.5364 16.2933 20.1664 15.4945 20.4214C14.8345 20.6314 14.1295 20.5752 13.5108 20.2564C12.8958 19.9377 12.4383 19.3977 12.2245 18.7377C12.1908 18.6252 12.1083 18.5352 11.9995 18.4902ZM10.5295 9.38158C10.5295 10.3716 11.3358 11.1778 12.3258 11.1778C13.3158 11.1778 14.122 10.3716 14.122 9.38158C14.122 8.39158 13.3158 7.58533 12.3258 7.58533C11.3358 7.58533 10.5295 8.39158 10.5295 9.38158ZM11.3283 9.38158C11.3283 8.83033 11.7745 8.38408 12.3258 8.38408C12.877 8.38408 13.3233 8.83033 13.3233 9.38158C13.3233 9.93283 12.877 10.3791 12.3258 10.3791C11.7745 10.3791 11.3283 9.93283 11.3283 9.38158ZM11.4445 15.4491C11.5233 15.5278 11.6245 15.5653 11.7258 15.5653V15.5616C11.827 15.5616 11.9283 15.5241 12.007 15.4453L18.3895 9.06283C18.547 8.90908 18.547 8.65783 18.3895 8.50033C18.2358 8.34283 17.9845 8.34283 17.827 8.50033L11.4445 14.8866C11.287 15.0403 11.287 15.2916 11.4445 15.4491ZM17.512 16.3641C16.522 16.3641 15.7158 15.5579 15.7158 14.5679C15.7158 13.5779 16.522 12.7716 17.512 12.7716C18.502 12.7716 19.3083 13.5779 19.3083 14.5679C19.3083 15.5579 18.502 16.3641 17.512 16.3641ZM17.512 13.5704C16.9608 13.5704 16.5145 14.0166 16.5145 14.5679C16.5145 15.1191 16.9608 15.5654 17.512 15.5654C18.0633 15.5654 18.5095 15.1191 18.5095 14.5679C18.5095 14.0166 18.0633 13.5704 17.512 13.5704Z" fill="black"/>
</svg>
