<svg width="24" height="24" viewBox="0 0 24 24" fill="none" xmlns="http://www.w3.org/2000/svg">
<path fill-rule="evenodd" clip-rule="evenodd" d="M10.484 20.9652C10.9715 21.2164 11.5002 21.3439 12.0327 21.3439L12.0365 21.3514C12.3852 21.3514 12.7377 21.2952 13.079 21.1864C13.9827 20.8939 14.7215 20.2377 15.119 19.3864C16.7165 19.9152 18.5015 19.1839 19.244 17.6277C19.6265 16.8252 19.679 15.9252 19.4015 15.0964C20.594 14.5302 21.3552 13.3264 21.3327 11.9764C21.3327 10.6339 20.5565 9.4452 19.364 8.8977C19.8927 7.3002 19.1615 5.5152 17.6052 4.7727C16.8065 4.3902 15.9065 4.3377 15.0777 4.61145C14.3652 3.08145 12.6027 2.2827 10.9565 2.81145C10.0527 3.1002 9.314 3.7602 8.9165 4.6077C8.20775 4.36395 7.44275 4.3602 6.72275 4.6077C5.864 4.9002 5.174 5.51145 4.7765 6.3252C4.379 7.13895 4.3265 8.0877 4.62275 8.9352C3.0965 9.65145 2.3015 11.4064 2.83025 13.0527C3.119 13.9564 3.779 14.6952 4.6265 15.0927C4.0865 16.6864 4.799 18.4752 6.34775 19.2327C7.1615 19.6302 8.11025 19.6827 8.95775 19.3864C9.2765 20.0652 9.80525 20.6164 10.484 20.9652ZM9.33275 18.4902C9.284 18.4714 9.2315 18.4602 9.179 18.4602L9.17525 18.4677C9.1115 18.4677 9.0515 18.4789 8.99525 18.5089C8.27525 18.8689 7.4165 18.8727 6.69275 18.5202C5.41025 17.8939 4.874 16.3339 5.504 15.0514C5.55275 14.9502 5.5565 14.8264 5.5115 14.7214C5.4665 14.6127 5.3765 14.5302 5.26775 14.4964C4.47275 14.2414 3.84275 13.6114 3.58775 12.8164C3.149 11.4514 3.90275 9.9852 5.26775 9.54645C5.38025 9.5127 5.47025 9.4302 5.51525 9.32145C5.56025 9.2127 5.5565 9.0927 5.504 8.9877C5.144 8.2677 5.14025 7.40895 5.49275 6.6852C5.7965 6.0627 6.32525 5.5977 6.9815 5.3727C7.63775 5.1477 8.339 5.1927 8.9615 5.49645C9.06275 5.5452 9.1865 5.54895 9.2915 5.50395C9.40025 5.45895 9.48275 5.36895 9.5165 5.2602C9.7715 4.4652 10.4015 3.8352 11.1965 3.5802C12.5652 3.14145 14.0315 3.8952 14.4702 5.2602C14.504 5.36895 14.5865 5.45895 14.6915 5.50395C14.7965 5.54895 14.9165 5.5452 15.0215 5.49645C15.7302 5.1552 16.544 5.1552 17.2565 5.49645C18.5465 6.11145 19.094 7.66395 18.479 8.95395C18.4265 9.05895 18.4265 9.17895 18.4715 9.28395C18.5165 9.38895 18.6065 9.47145 18.7152 9.5052C19.799 9.84645 20.5265 10.8439 20.5265 11.9802V11.9877C20.549 13.1277 19.8327 14.1364 18.749 14.4964C18.6402 14.5302 18.554 14.6127 18.509 14.7177C18.464 14.8264 18.4677 14.9427 18.5165 15.0477C18.854 15.7564 18.854 16.5739 18.5165 17.2827C17.9015 18.5727 16.349 19.1202 15.059 18.5052C14.954 18.4527 14.834 18.4527 14.729 18.4977C14.624 18.5427 14.5415 18.6327 14.5077 18.7414C14.2527 19.5364 13.6265 20.1664 12.8277 20.4214C12.1677 20.6314 11.4627 20.5752 10.844 20.2564C10.229 19.9377 9.7715 19.3977 9.55775 18.7377C9.524 18.6252 9.4415 18.5352 9.33275 18.4902ZM7.86275 9.38158C7.86275 10.3716 8.669 11.1778 9.659 11.1778C10.649 11.1778 11.4553 10.3716 11.4553 9.38158C11.4553 8.39158 10.649 7.58533 9.659 7.58533C8.669 7.58533 7.86275 8.39158 7.86275 9.38158ZM8.6615 9.38158C8.6615 8.83033 9.10775 8.38408 9.659 8.38408C10.2103 8.38408 10.6565 8.83033 10.6565 9.38158C10.6565 9.93283 10.2103 10.3791 9.659 10.3791C9.10775 10.3791 8.6615 9.93283 8.6615 9.38158ZM8.77775 15.4491C8.8565 15.5278 8.95775 15.5653 9.059 15.5653V15.5616C9.16025 15.5616 9.2615 15.5241 9.34025 15.4453L15.7228 9.06283C15.8803 8.90908 15.8803 8.65783 15.7228 8.50033C15.569 8.34283 15.3178 8.34283 15.1603 8.50033L8.77775 14.8866C8.62025 15.0403 8.62025 15.2916 8.77775 15.4491ZM14.8452 16.3641C13.8552 16.3641 13.049 15.5579 13.049 14.5679C13.049 13.5779 13.8552 12.7716 14.8452 12.7716C15.8352 12.7716 16.6415 13.5779 16.6415 14.5679C16.6415 15.5579 15.8352 16.3641 14.8452 16.3641ZM14.8452 13.5704C14.294 13.5704 13.8477 14.0166 13.8477 14.5679C13.8477 15.1191 14.294 15.5654 14.8452 15.5654C15.3965 15.5654 15.8427 15.1191 15.8427 14.5679C15.8427 14.0166 15.3965 13.5704 14.8452 13.5704Z" fill="black"/>
</svg>
