<svg width="24" height="24" viewBox="0 0 24 24" fill="none" xmlns="http://www.w3.org/2000/svg">
<path fill-rule="evenodd" clip-rule="evenodd" d="M7.81722 20.9652C8.30472 21.2164 8.83347 21.3439 9.36597 21.3439L9.36972 21.3514C9.71847 21.3514 10.071 21.2952 10.4122 21.1864C11.316 20.8939 12.0547 20.2377 12.4522 19.3864C14.0497 19.9152 15.8347 19.1839 16.5772 17.6277C16.9597 16.8252 17.0122 15.9252 16.7347 15.0964C17.9272 14.5302 18.6885 13.3264 18.666 11.9764C18.666 10.6339 17.8897 9.4452 16.6972 8.8977C17.226 7.3002 16.4947 5.5152 14.9385 4.7727C14.1397 4.3902 13.2397 4.3377 12.411 4.61145C11.6985 3.08145 9.93597 2.2827 8.28972 2.81145C7.38597 3.1002 6.64722 3.7602 6.24972 4.6077C5.54097 4.36395 4.77597 4.3602 4.05597 4.6077C3.19722 4.9002 2.50722 5.51145 2.10972 6.3252C1.71222 7.13895 1.65972 8.0877 1.95597 8.9352C0.429718 9.65145 -0.365282 11.4064 0.163468 13.0527C0.452218 13.9564 1.11222 14.6952 1.95972 15.0927C1.41972 16.6864 2.13222 18.4752 3.68097 19.2327C4.49472 19.6302 5.44347 19.6827 6.29097 19.3864C6.60972 20.0652 7.13847 20.6164 7.81722 20.9652ZM6.66597 18.4902C6.61722 18.4714 6.56472 18.4602 6.51222 18.4602L6.50847 18.4677C6.44472 18.4677 6.38472 18.4789 6.32847 18.5089C5.60847 18.8689 4.74972 18.8727 4.02597 18.5202C2.74347 17.8939 2.20722 16.3339 2.83722 15.0514C2.88597 14.9502 2.88972 14.8264 2.84472 14.7214C2.79972 14.6127 2.70972 14.5302 2.60097 14.4964C1.80597 14.2414 1.17597 13.6114 0.920968 12.8164C0.482218 11.4514 1.23597 9.9852 2.60097 9.54645C2.71347 9.5127 2.80347 9.4302 2.84847 9.32145C2.89347 9.2127 2.88972 9.0927 2.83722 8.9877C2.47722 8.2677 2.47347 7.40895 2.82597 6.6852C3.12972 6.0627 3.65847 5.5977 4.31472 5.3727C4.97097 5.1477 5.67222 5.1927 6.29472 5.49645C6.39597 5.5452 6.51972 5.54895 6.62472 5.50395C6.73347 5.45895 6.81597 5.36895 6.84972 5.2602C7.10472 4.4652 7.73472 3.8352 8.52972 3.5802C9.89847 3.14145 11.3647 3.8952 11.8035 5.2602C11.8372 5.36895 11.9197 5.45895 12.0247 5.50395C12.1297 5.54895 12.2497 5.5452 12.3547 5.49645C13.0635 5.1552 13.8772 5.1552 14.5897 5.49645C15.8797 6.11145 16.4272 7.66395 15.8122 8.95395C15.7597 9.05895 15.7597 9.17895 15.8047 9.28395C15.8497 9.38895 15.9397 9.47145 16.0485 9.5052C17.1322 9.84645 17.8597 10.8439 17.8597 11.9802V11.9877C17.8822 13.1277 17.166 14.1364 16.0822 14.4964C15.9735 14.5302 15.8872 14.6127 15.8422 14.7177C15.7972 14.8264 15.801 14.9427 15.8497 15.0477C16.1872 15.7564 16.1872 16.5739 15.8497 17.2827C15.2347 18.5727 13.6822 19.1202 12.3922 18.5052C12.2872 18.4527 12.1672 18.4527 12.0622 18.4977C11.9572 18.5427 11.8747 18.6327 11.841 18.7414C11.586 19.5364 10.9597 20.1664 10.161 20.4214C9.50097 20.6314 8.79597 20.5752 8.17722 20.2564C7.56222 19.9377 7.10472 19.3977 6.89097 18.7377C6.85722 18.6252 6.77472 18.5352 6.66597 18.4902ZM5.19597 9.38158C5.19597 10.3716 6.00222 11.1778 6.99222 11.1778C7.98222 11.1778 8.78847 10.3716 8.78847 9.38158C8.78847 8.39158 7.98222 7.58533 6.99222 7.58533C6.00222 7.58533 5.19597 8.39158 5.19597 9.38158ZM5.99472 9.38158C5.99472 8.83033 6.44097 8.38408 6.99222 8.38408C7.54347 8.38408 7.98972 8.83033 7.98972 9.38158C7.98972 9.93283 7.54347 10.3791 6.99222 10.3791C6.44097 10.3791 5.99472 9.93283 5.99472 9.38158ZM6.11097 15.4491C6.18972 15.5278 6.29097 15.5653 6.39222 15.5653V15.5616C6.49347 15.5616 6.59472 15.5241 6.67347 15.4453L13.056 9.06283C13.2135 8.90908 13.2135 8.65783 13.056 8.50033C12.9022 8.34283 12.651 8.34283 12.4935 8.50033L6.11097 14.8866C5.95347 15.0403 5.95347 15.2916 6.11097 15.4491ZM12.1785 16.3641C11.1885 16.3641 10.3822 15.5579 10.3822 14.5679C10.3822 13.5779 11.1885 12.7716 12.1785 12.7716C13.1685 12.7716 13.9747 13.5779 13.9747 14.5679C13.9747 15.5579 13.1685 16.3641 12.1785 16.3641ZM12.1785 13.5704C11.6272 13.5704 11.181 14.0166 11.181 14.5679C11.181 15.1191 11.6272 15.5654 12.1785 15.5654C12.7297 15.5654 13.176 15.1191 13.176 14.5679C13.176 14.0166 12.7297 13.5704 12.1785 13.5704Z" fill="black"/>
</svg>
