<svg width="64" height="64" viewBox="0 0 64 64" fill="none" xmlns="http://www.w3.org/2000/svg">
<path fill-rule="evenodd" clip-rule="evenodd" d="M35.0687 55.9072C36.3687 56.5772 37.7787 56.9172 39.1987 56.9172L39.2087 56.9372C40.1387 56.9372 41.0787 56.7872 41.9887 56.4972C44.3987 55.7172 46.3687 53.9672 47.4287 51.6972C51.6887 53.1072 56.4487 51.1572 58.4287 47.0072C59.4487 44.8672 59.5887 42.4672 58.8487 40.2572C62.0287 38.7472 64.0587 35.5372 63.9987 31.9372C63.9987 28.3572 61.9287 25.1872 58.7487 23.7272C60.1587 19.4672 58.2087 14.7072 54.0587 12.7272C51.9287 11.7072 49.5287 11.5672 47.3187 12.2972C45.4187 8.21719 40.7187 6.08719 36.3287 7.49719C33.9187 8.26719 31.9487 10.0272 30.8887 12.2872C28.9987 11.6372 26.9587 11.6272 25.0387 12.2872C22.7487 13.0672 20.9087 14.6972 19.8487 16.8672C18.7887 19.0372 18.6487 21.5672 19.4387 23.8272C15.3687 25.7372 13.2487 30.4172 14.6587 34.8072C15.4287 37.2172 17.1887 39.1872 19.4487 40.2472C18.0087 44.4972 19.9087 49.2672 24.0387 51.2872C26.2087 52.3472 28.7387 52.4872 30.9987 51.6972C31.8487 53.5072 33.2587 54.9772 35.0687 55.9072ZM31.9987 49.3072C31.8687 49.2572 31.7287 49.2272 31.5887 49.2272L31.5787 49.2472C31.4087 49.2472 31.2487 49.2772 31.0987 49.3572C29.1787 50.3172 26.8887 50.3272 24.9587 49.3872C21.5387 47.7172 20.1087 43.5572 21.7887 40.1372C21.9187 39.8672 21.9287 39.5372 21.8087 39.2572C21.6887 38.9672 21.4487 38.7472 21.1587 38.6572C19.0387 37.9772 17.3587 36.2972 16.6787 34.1772C15.5087 30.5372 17.5187 26.6272 21.1587 25.4572C21.4587 25.3672 21.6987 25.1472 21.8187 24.8572C21.9387 24.5672 21.9287 24.2472 21.7887 23.9672C20.8287 22.0472 20.8187 19.7572 21.7587 17.8272C22.5687 16.1672 23.9787 14.9272 25.7287 14.3272C27.4787 13.7272 29.3487 13.8472 31.0087 14.6572C31.2787 14.7872 31.6087 14.7972 31.8887 14.6772C32.1787 14.5572 32.3987 14.3172 32.4887 14.0272C33.1687 11.9072 34.8487 10.2272 36.9687 9.54719C40.6187 8.37719 44.5287 10.3872 45.6987 14.0272C45.7887 14.3172 46.0087 14.5572 46.2887 14.6772C46.5687 14.7972 46.8887 14.7872 47.1687 14.6572C49.0587 13.7472 51.2287 13.7472 53.1287 14.6572C56.5687 16.2972 58.0287 20.4372 56.3887 23.8772C56.2487 24.1572 56.2487 24.4772 56.3687 24.7572C56.4887 25.0372 56.7287 25.2572 57.0187 25.3472C59.9087 26.2572 61.8487 28.9172 61.8487 31.9472V31.9672C61.9087 35.0072 59.9987 37.6972 57.1087 38.6572C56.8187 38.7472 56.5887 38.9672 56.4687 39.2472C56.3487 39.5372 56.3587 39.8472 56.4887 40.1272C57.3887 42.0172 57.3887 44.1972 56.4887 46.0872C54.8487 49.5272 50.7087 50.9872 47.2687 49.3472C46.9887 49.2072 46.6687 49.2072 46.3887 49.3272C46.1087 49.4472 45.8887 49.6872 45.7987 49.9772C45.1187 52.0972 43.4487 53.7772 41.3187 54.4572C39.5587 55.0172 37.6787 54.8672 36.0287 54.0172C34.3887 53.1672 33.1687 51.7272 32.5987 49.9672C32.5087 49.6672 32.2887 49.4272 31.9987 49.3072ZM28.0787 25.0175C28.0787 27.6575 30.2287 29.8075 32.8687 29.8075C35.5087 29.8075 37.6587 27.6575 37.6587 25.0175C37.6587 22.3775 35.5087 20.2275 32.8687 20.2275C30.2287 20.2275 28.0787 22.3775 28.0787 25.0175ZM30.2087 25.0175C30.2087 23.5475 31.3987 22.3575 32.8687 22.3575C34.3387 22.3575 35.5287 23.5475 35.5287 25.0175C35.5287 26.4875 34.3387 27.6775 32.8687 27.6775C31.3987 27.6775 30.2087 26.4875 30.2087 25.0175ZM30.5187 41.1975C30.7287 41.4075 30.9987 41.5075 31.2687 41.5075V41.4975C31.5387 41.4975 31.8087 41.3975 32.0187 41.1875L49.0387 24.1675C49.4587 23.7575 49.4587 23.0875 49.0387 22.6675C48.6287 22.2475 47.9587 22.2475 47.5387 22.6675L30.5187 39.6975C30.0987 40.1075 30.0987 40.7775 30.5187 41.1975ZM46.6987 43.6376C44.0587 43.6376 41.9087 41.4876 41.9087 38.8476C41.9087 36.2076 44.0587 34.0576 46.6987 34.0576C49.3387 34.0576 51.4887 36.2076 51.4887 38.8476C51.4887 41.4876 49.3387 43.6376 46.6987 43.6376ZM46.6987 36.1876C45.2287 36.1876 44.0387 37.3776 44.0387 38.8476C44.0387 40.3176 45.2287 41.5076 46.6987 41.5076C48.1687 41.5076 49.3587 40.3176 49.3587 38.8476C49.3587 37.3776 48.1687 36.1876 46.6987 36.1876Z" fill="black"/>
</svg>
