<svg width="64" height="64" viewBox="0 0 64 64" fill="none" xmlns="http://www.w3.org/2000/svg">
<path fill-rule="evenodd" clip-rule="evenodd" d="M20.8459 55.9072C22.1459 56.5772 23.5559 56.9172 24.9759 56.9172L24.9859 56.9372C25.9159 56.9372 26.8559 56.7872 27.7659 56.4972C30.1759 55.7172 32.1459 53.9672 33.2059 51.6972C37.4659 53.1072 42.2259 51.1572 44.2059 47.0072C45.2259 44.8672 45.3659 42.4672 44.6259 40.2572C47.8059 38.7472 49.8359 35.5372 49.7759 31.9372C49.7759 28.3572 47.7059 25.1872 44.5259 23.7272C45.9359 19.4672 43.9859 14.7072 39.8359 12.7272C37.7059 11.7072 35.3059 11.5672 33.0959 12.2972C31.1959 8.21719 26.4959 6.08719 22.1059 7.49719C19.6959 8.26719 17.7259 10.0272 16.6659 12.2872C14.7759 11.6372 12.7359 11.6272 10.8159 12.2872C8.52592 13.0672 6.68591 14.6972 5.62592 16.8672C4.56592 19.0372 4.42592 21.5672 5.21592 23.8272C1.14592 25.7372 -0.974085 30.4172 0.435915 34.8072C1.20592 37.2172 2.96591 39.1872 5.22591 40.2472C3.78591 44.4972 5.68592 49.2672 9.81592 51.2872C11.9859 52.3472 14.5159 52.4872 16.7759 51.6972C17.6259 53.5072 19.0359 54.9772 20.8459 55.9072ZM17.7759 49.3072C17.6459 49.2572 17.5059 49.2272 17.3659 49.2272L17.3559 49.2472C17.1859 49.2472 17.0259 49.2772 16.8759 49.3572C14.9559 50.3172 12.6659 50.3272 10.7359 49.3872C7.31592 47.7172 5.88592 43.5572 7.56592 40.1372C7.69592 39.8672 7.70591 39.5372 7.58592 39.2572C7.46592 38.9672 7.22591 38.7472 6.93591 38.6572C4.81592 37.9772 3.13592 36.2972 2.45592 34.1772C1.28592 30.5372 3.29591 26.6272 6.93591 25.4572C7.23592 25.3672 7.47592 25.1472 7.59592 24.8572C7.71592 24.5672 7.70591 24.2472 7.56592 23.9672C6.60592 22.0472 6.59592 19.7572 7.53592 17.8272C8.34592 16.1672 9.75592 14.9272 11.5059 14.3272C13.2559 13.7272 15.1259 13.8472 16.7859 14.6572C17.0559 14.7872 17.3859 14.7972 17.6659 14.6772C17.9559 14.5572 18.1759 14.3172 18.2659 14.0272C18.9459 11.9072 20.6259 10.2272 22.7459 9.54719C26.3959 8.37719 30.3059 10.3872 31.4759 14.0272C31.5659 14.3172 31.7859 14.5572 32.0659 14.6772C32.3459 14.7972 32.6659 14.7872 32.9459 14.6572C34.8359 13.7472 37.0059 13.7472 38.9059 14.6572C42.3459 16.2972 43.8059 20.4372 42.1659 23.8772C42.0259 24.1572 42.0259 24.4772 42.1459 24.7572C42.2659 25.0372 42.5059 25.2572 42.7959 25.3472C45.6859 26.2572 47.6259 28.9172 47.6259 31.9472V31.9672C47.6859 35.0072 45.7759 37.6972 42.8859 38.6572C42.5959 38.7472 42.3659 38.9672 42.2459 39.2472C42.1259 39.5372 42.1359 39.8472 42.2659 40.1272C43.1659 42.0172 43.1659 44.1972 42.2659 46.0872C40.6259 49.5272 36.4859 50.9872 33.0459 49.3472C32.7659 49.2072 32.4459 49.2072 32.1659 49.3272C31.8859 49.4472 31.6659 49.6872 31.5759 49.9772C30.8959 52.0972 29.2259 53.7772 27.0959 54.4572C25.3359 55.0172 23.4559 54.8672 21.8059 54.0172C20.1659 53.1672 18.9459 51.7272 18.3759 49.9672C18.2859 49.6672 18.0659 49.4272 17.7759 49.3072ZM13.8559 25.0175C13.8559 27.6575 16.0059 29.8075 18.6459 29.8075C21.2859 29.8075 23.4359 27.6575 23.4359 25.0175C23.4359 22.3775 21.2859 20.2275 18.6459 20.2275C16.0059 20.2275 13.8559 22.3775 13.8559 25.0175ZM15.9859 25.0175C15.9859 23.5475 17.1759 22.3575 18.6459 22.3575C20.1159 22.3575 21.3059 23.5475 21.3059 25.0175C21.3059 26.4875 20.1159 27.6775 18.6459 27.6775C17.1759 27.6775 15.9859 26.4875 15.9859 25.0175ZM16.2959 41.1975C16.5059 41.4075 16.7759 41.5075 17.0459 41.5075V41.4975C17.3159 41.4975 17.5859 41.3975 17.7959 41.1875L34.8159 24.1675C35.2359 23.7575 35.2359 23.0875 34.8159 22.6675C34.4059 22.2475 33.7359 22.2475 33.3159 22.6675L16.2959 39.6975C15.8759 40.1075 15.8759 40.7775 16.2959 41.1975ZM32.4759 43.6376C29.8359 43.6376 27.6859 41.4876 27.6859 38.8476C27.6859 36.2076 29.8359 34.0576 32.4759 34.0576C35.1159 34.0576 37.2659 36.2076 37.2659 38.8476C37.2659 41.4876 35.1159 43.6376 32.4759 43.6376ZM32.4759 36.1876C31.0059 36.1876 29.8159 37.3776 29.8159 38.8476C29.8159 40.3176 31.0059 41.5076 32.4759 41.5076C33.9459 41.5076 35.1359 40.3176 35.1359 38.8476C35.1359 37.3776 33.9459 36.1876 32.4759 36.1876Z" fill="black"/>
</svg>
