<svg width="64" height="64" viewBox="0 0 64 64" fill="none" xmlns="http://www.w3.org/2000/svg">
<path fill-rule="evenodd" clip-rule="evenodd" d="M27.9573 55.9072C29.2573 56.5772 30.6673 56.9172 32.0873 56.9172L32.0973 56.9372C33.0273 56.9372 33.9673 56.7872 34.8773 56.4972C37.2873 55.7172 39.2573 53.9672 40.3173 51.6972C44.5773 53.1072 49.3373 51.1572 51.3173 47.0072C52.3373 44.8672 52.4773 42.4672 51.7373 40.2572C54.9173 38.7472 56.9473 35.5372 56.8873 31.9372C56.8873 28.3572 54.8173 25.1872 51.6373 23.7272C53.0473 19.4672 51.0973 14.7072 46.9473 12.7272C44.8173 11.7072 42.4173 11.5672 40.2073 12.2972C38.3073 8.21719 33.6073 6.08719 29.2173 7.49719C26.8073 8.26719 24.8373 10.0272 23.7773 12.2872C21.8873 11.6372 19.8473 11.6272 17.9273 12.2872C15.6373 13.0672 13.7973 14.6972 12.7373 16.8672C11.6773 19.0372 11.5373 21.5672 12.3273 23.8272C8.2573 25.7372 6.1373 30.4172 7.5473 34.8072C8.3173 37.2172 10.0773 39.1872 12.3373 40.2472C10.8973 44.4972 12.7973 49.2672 16.9273 51.2872C19.0973 52.3472 21.6273 52.4872 23.8873 51.6972C24.7373 53.5072 26.1473 54.9772 27.9573 55.9072ZM24.8873 49.3072C24.7573 49.2572 24.6173 49.2272 24.4773 49.2272L24.4673 49.2472C24.2973 49.2472 24.1373 49.2772 23.9873 49.3572C22.0673 50.3172 19.7773 50.3272 17.8473 49.3872C14.4273 47.7172 12.9973 43.5572 14.6773 40.1372C14.8073 39.8672 14.8173 39.5372 14.6973 39.2572C14.5773 38.9672 14.3373 38.7472 14.0473 38.6572C11.9273 37.9772 10.2473 36.2972 9.5673 34.1772C8.3973 30.5372 10.4073 26.6272 14.0473 25.4572C14.3473 25.3672 14.5873 25.1472 14.7073 24.8572C14.8273 24.5672 14.8173 24.2472 14.6773 23.9672C13.7173 22.0472 13.7073 19.7572 14.6473 17.8272C15.4573 16.1672 16.8673 14.9272 18.6173 14.3272C20.3673 13.7272 22.2373 13.8472 23.8973 14.6572C24.1673 14.7872 24.4973 14.7972 24.7773 14.6772C25.0673 14.5572 25.2873 14.3172 25.3773 14.0272C26.0573 11.9072 27.7373 10.2272 29.8573 9.54719C33.5073 8.37719 37.4173 10.3872 38.5873 14.0272C38.6773 14.3172 38.8973 14.5572 39.1773 14.6772C39.4573 14.7972 39.7773 14.7872 40.0573 14.6572C41.9473 13.7472 44.1173 13.7472 46.0173 14.6572C49.4573 16.2972 50.9173 20.4372 49.2773 23.8772C49.1373 24.1572 49.1373 24.4772 49.2573 24.7572C49.3773 25.0372 49.6173 25.2572 49.9073 25.3472C52.7973 26.2572 54.7373 28.9172 54.7373 31.9472V31.9672C54.7973 35.0072 52.8873 37.6972 49.9973 38.6572C49.7073 38.7472 49.4773 38.9672 49.3573 39.2472C49.2373 39.5372 49.2473 39.8472 49.3773 40.1272C50.2773 42.0172 50.2773 44.1972 49.3773 46.0872C47.7373 49.5272 43.5973 50.9872 40.1573 49.3472C39.8773 49.2072 39.5573 49.2072 39.2773 49.3272C38.9973 49.4472 38.7773 49.6872 38.6873 49.9772C38.0073 52.0972 36.3373 53.7772 34.2073 54.4572C32.4473 55.0172 30.5673 54.8672 28.9173 54.0172C27.2773 53.1672 26.0573 51.7272 25.4873 49.9672C25.3973 49.6672 25.1773 49.4272 24.8873 49.3072ZM20.9673 25.0175C20.9673 27.6575 23.1173 29.8075 25.7573 29.8075C28.3973 29.8075 30.5473 27.6575 30.5473 25.0175C30.5473 22.3775 28.3973 20.2275 25.7573 20.2275C23.1173 20.2275 20.9673 22.3775 20.9673 25.0175ZM23.0973 25.0175C23.0973 23.5475 24.2873 22.3575 25.7573 22.3575C27.2273 22.3575 28.4173 23.5475 28.4173 25.0175C28.4173 26.4875 27.2273 27.6775 25.7573 27.6775C24.2873 27.6775 23.0973 26.4875 23.0973 25.0175ZM23.4073 41.1975C23.6173 41.4075 23.8873 41.5075 24.1573 41.5075V41.4975C24.4273 41.4975 24.6973 41.3975 24.9073 41.1875L41.9273 24.1675C42.3473 23.7575 42.3473 23.0875 41.9273 22.6675C41.5173 22.2475 40.8473 22.2475 40.4273 22.6675L23.4073 39.6975C22.9873 40.1075 22.9873 40.7775 23.4073 41.1975ZM39.5873 43.6376C36.9473 43.6376 34.7973 41.4876 34.7973 38.8476C34.7973 36.2076 36.9473 34.0576 39.5873 34.0576C42.2273 34.0576 44.3773 36.2076 44.3773 38.8476C44.3773 41.4876 42.2273 43.6376 39.5873 43.6376ZM39.5873 36.1876C38.1173 36.1876 36.9273 37.3776 36.9273 38.8476C36.9273 40.3176 38.1173 41.5076 39.5873 41.5076C41.0573 41.5076 42.2473 40.3176 42.2473 38.8476C42.2473 37.3776 41.0573 36.1876 39.5873 36.1876Z" fill="black"/>
</svg>
