<svg width="24" height="24" viewBox="0 0 24 24" fill="none" xmlns="http://www.w3.org/2000/svg">
<g clip-path="url(#clip0_1530_5593)">
<path fill-rule="evenodd" clip-rule="evenodd" d="M22.6111 7.42297L21.1613 3.885C21.0375 3.6075 20.7525 3.42375 20.4375 3.42375H15.6225V7.40991H22.4063C22.4757 7.40991 22.544 7.41435 22.6111 7.42297ZM14.8275 7.40991V3.42375H10.0163C9.70126 3.42375 9.41251 3.61125 9.28501 3.89625L7.84213 7.42266C7.90819 7.41425 7.97549 7.40991 8.04376 7.40991H14.8275ZM8.04376 8.20866H15.2165L15.225 8.20875L15.2334 8.20866H22.4063C22.845 8.20866 23.205 8.56866 23.205 9.00741V19.7774C23.205 20.2199 22.845 20.5762 22.4063 20.5762H8.04376C7.60501 20.5762 7.24501 20.2162 7.24501 19.7774V9.00741C7.24501 8.87114 7.27915 8.74305 7.33923 8.63102C7.34858 8.61703 7.35711 8.60233 7.36471 8.58693C7.50601 8.35956 7.75821 8.20866 8.04376 8.20866ZM20.4375 2.625H15.225H10.0163C9.38626 2.625 8.81626 3 8.55376 3.585L6.63939 8.25292C6.51862 8.47772 6.45001 8.73466 6.45001 9.00741V19.7774C6.45001 20.6587 7.16251 21.3749 8.04376 21.3749H22.4063C23.2838 21.3749 24 20.6587 24 19.7774V9.00741C24 8.74341 23.9361 8.49421 23.8228 8.27464C23.8208 8.26891 23.8186 8.26319 23.8163 8.2575L21.8963 3.57375C21.6375 2.99625 21.0675 2.625 20.4375 2.625ZM17.0213 17.7861H20.61C20.8275 17.7861 21.0075 17.6061 21.0075 17.3886C21.0075 17.1711 20.8313 16.9911 20.61 16.9911H17.0213C16.8038 16.9911 16.6238 17.1711 16.6238 17.3886C16.6238 17.6061 16.8 17.7861 17.0213 17.7861Z" fill="black"/>
</g>
<defs>
<clipPath id="clip0_1530_5593">
<rect width="24" height="24" fill="white"/>
</clipPath>
</defs>
</svg>
