<svg width="64" height="64" viewBox="0 0 64 64" fill="none" xmlns="http://www.w3.org/2000/svg">
<g clip-path="url(#clip0_1530_1492)">
<path fill-rule="evenodd" clip-rule="evenodd" d="M60.2962 19.7946L56.43 10.36C56.1 9.62 55.34 9.13 54.5 9.13H41.66V19.7598H59.75C59.9351 19.7598 60.1174 19.7716 60.2962 19.7946ZM39.54 19.7598V9.13H26.71C25.87 9.13 25.1 9.63 24.76 10.39L20.9123 19.7938C21.0885 19.7713 21.268 19.7598 21.45 19.7598H39.54ZM21.45 21.8898H40.5774L40.6 21.89L40.6224 21.8898H59.75C60.92 21.8898 61.88 22.8498 61.88 24.0198V52.7398C61.88 53.9198 60.92 54.8698 59.75 54.8698H21.45C20.28 54.8698 19.32 53.9098 19.32 52.7398V24.0198C19.32 23.6564 19.4111 23.3148 19.5712 23.016C19.5962 22.9788 19.6189 22.9395 19.6392 22.8985C20.016 22.2922 20.6885 21.8898 21.45 21.8898ZM54.5 7H40.6H26.71C25.03 7 23.51 8 22.81 9.56L17.705 22.0078C17.383 22.6072 17.2 23.2924 17.2 24.0198V52.7398C17.2 55.0898 19.1 56.9998 21.45 56.9998H59.75C62.09 56.9998 64 55.0898 64 52.7398V24.0198C64 23.3158 63.8295 22.6512 63.5274 22.0657C63.5238 22.0556 63.5201 22.0455 63.5161 22.0354L63.51 22.02L58.39 9.53C57.7 7.99 56.18 7 54.5 7ZM45.39 47.4296H54.96C55.54 47.4296 56.02 46.9496 56.02 46.3696C56.02 45.7896 55.55 45.3096 54.96 45.3096H45.39C44.81 45.3096 44.33 45.7896 44.33 46.3696C44.33 46.9496 44.8 47.4296 45.39 47.4296Z" fill="black"/>
</g>
<defs>
<clipPath id="clip0_1530_1492">
<rect width="64" height="64" fill="white"/>
</clipPath>
</defs>
</svg>
