<svg width="24" height="24" viewBox="0 0 24 24" fill="none" xmlns="http://www.w3.org/2000/svg">
<path fill-rule="evenodd" clip-rule="evenodd" d="M8.9775 20.9775C8.9775 21.195 9.15375 21.375 9.375 21.375C9.5925 21.375 9.7725 21.1987 9.7725 20.9775V12.3975H18.3525C18.57 12.3975 18.75 12.2175 18.75 12C18.75 11.7825 18.5737 11.6025 18.3525 11.6025H9.7725V3.0225C9.7725 2.805 9.5925 2.625 9.375 2.625C9.1575 2.625 8.9775 2.80125 8.9775 3.0225V11.6025H0.3975C0.18 11.6025 0 11.7825 0 12C0 12.2175 0.17625 12.3975 0.3975 12.3975H8.9775V20.9775Z" fill="black"/>
</svg>
