<svg width="24" height="24" viewBox="0 0 24 24" fill="none" xmlns="http://www.w3.org/2000/svg">
<path fill-rule="evenodd" clip-rule="evenodd" d="M19.3842 7.42297L17.9344 3.885C17.8106 3.6075 17.5256 3.42375 17.2106 3.42375H12.3956V7.40991H19.1794C19.2488 7.40991 19.3171 7.41435 19.3842 7.42297ZM11.6006 7.40991V3.42375H6.78937C6.47437 3.42375 6.18562 3.61125 6.05812 3.89625L4.61524 7.42266C4.6813 7.41425 4.74859 7.40991 4.81686 7.40991H11.6006ZM4.81686 8.20866H11.9896L11.9981 8.20875L12.0065 8.20866H19.1794C19.6181 8.20866 19.9781 8.56866 19.9781 9.00741V19.7774C19.9781 20.2199 19.6181 20.5762 19.1794 20.5762H4.81686C4.37811 20.5762 4.01811 20.2162 4.01811 19.7774V9.00741C4.01811 8.87114 4.05226 8.74305 4.11233 8.63102C4.12168 8.61703 4.13021 8.60233 4.13781 8.58693C4.27912 8.35956 4.53131 8.20866 4.81686 8.20866ZM17.2106 2.625H11.9981H6.78937C6.15937 2.625 5.58937 3 5.32687 3.585L3.41249 8.25292C3.29173 8.47772 3.22311 8.73466 3.22311 9.00741V19.7774C3.22311 20.6587 3.93561 21.3749 4.81686 21.3749H19.1794C20.0569 21.3749 20.7731 20.6587 20.7731 19.7774V9.00741C20.7731 8.74341 20.7092 8.49421 20.5959 8.27464C20.5939 8.26891 20.5917 8.26319 20.5894 8.2575L18.6694 3.57375C18.4106 2.99625 17.8406 2.625 17.2106 2.625ZM13.7944 17.7861H17.3831C17.6006 17.7861 17.7806 17.6061 17.7806 17.3886C17.7806 17.1711 17.6044 16.9911 17.3831 16.9911H13.7944C13.5769 16.9911 13.3969 17.1711 13.3969 17.3886C13.3969 17.6061 13.5731 17.7861 13.7944 17.7861Z" fill="black"/>
</svg>
