<svg width="24" height="24" viewBox="0 0 24 24" fill="none" xmlns="http://www.w3.org/2000/svg">
<path fill-rule="evenodd" clip-rule="evenodd" d="M16.1611 7.42297L14.7113 3.885C14.5875 3.6075 14.3025 3.42375 13.9875 3.42375H9.1725V7.40991H15.9562C16.0257 7.40991 16.094 7.41435 16.1611 7.42297ZM8.3775 7.40991V3.42375H3.56625C3.25125 3.42375 2.9625 3.61125 2.835 3.89625L1.39212 7.42266C1.45818 7.41425 1.52548 7.40991 1.59375 7.40991H8.3775ZM1.59375 8.20866H8.76653L8.775 8.20875L8.78341 8.20866H15.9562C16.395 8.20866 16.755 8.56866 16.755 9.00741V19.7774C16.755 20.2199 16.395 20.5762 15.9562 20.5762H1.59375C1.155 20.5762 0.795 20.2162 0.795 19.7774V9.00741C0.795 8.87114 0.829143 8.74305 0.889214 8.63102C0.89857 8.61703 0.907097 8.60233 0.914699 8.58693C1.056 8.35956 1.3082 8.20866 1.59375 8.20866ZM13.9875 2.625H8.775H3.56625C2.93625 2.625 2.36625 3 2.10375 3.585L0.18938 8.25292C0.0686117 8.47772 0 8.73466 0 9.00741V19.7774C0 20.6587 0.7125 21.3749 1.59375 21.3749H15.9562C16.8337 21.3749 17.55 20.6587 17.55 19.7774V9.00741C17.55 8.74341 17.4861 8.49421 17.3728 8.27464C17.3707 8.26891 17.3686 8.26319 17.3663 8.2575L15.4463 3.57375C15.1875 2.99625 14.6175 2.625 13.9875 2.625ZM10.5713 17.7861H14.16C14.3775 17.7861 14.5575 17.6061 14.5575 17.3886C14.5575 17.1711 14.3813 16.9911 14.16 16.9911H10.5713C10.3538 16.9911 10.1738 17.1711 10.1738 17.3886C10.1738 17.6061 10.35 17.7861 10.5713 17.7861Z" fill="black"/>
</svg>
