<svg width="64" height="64" viewBox="0 0 64 64" fill="none" xmlns="http://www.w3.org/2000/svg">
<path fill-rule="evenodd" clip-rule="evenodd" d="M51.6911 19.7946L47.825 10.36C47.495 9.62 46.735 9.13 45.895 9.13H33.055V19.7598H51.145C51.3301 19.7598 51.5124 19.7716 51.6911 19.7946ZM30.935 19.7598V9.13H18.105C17.265 9.13 16.495 9.63 16.155 10.39L12.3073 19.7938C12.4835 19.7713 12.6629 19.7598 12.845 19.7598H30.935ZM12.845 21.8898H31.9724L31.995 21.89L32.0174 21.8898H51.145C52.315 21.8898 53.275 22.8498 53.275 24.0198V52.7398C53.275 53.9198 52.315 54.8698 51.145 54.8698H12.845C11.675 54.8698 10.715 53.9098 10.715 52.7398V24.0198C10.715 23.6564 10.806 23.3148 10.9662 23.016C10.9912 22.9788 11.0139 22.9395 11.0342 22.8985C11.411 22.2922 12.0835 21.8898 12.845 21.8898ZM45.895 7H31.995H18.105C16.425 7 14.905 8 14.205 9.56L9.10002 22.0078C8.77797 22.6072 8.595 23.2924 8.595 24.0198V52.7398C8.595 55.0898 10.495 56.9998 12.845 56.9998H51.145C53.485 56.9998 55.395 55.0898 55.395 52.7398V24.0198C55.395 23.3158 55.2245 22.6512 54.9224 22.0657C54.9188 22.0556 54.9151 22.0455 54.9111 22.0354L54.905 22.02L49.785 9.53C49.095 7.99 47.575 7 45.895 7ZM36.785 47.4296H46.355C46.935 47.4296 47.415 46.9496 47.415 46.3696C47.415 45.7896 46.945 45.3096 46.355 45.3096H36.785C36.205 45.3096 35.725 45.7896 35.725 46.3696C35.725 46.9496 36.195 47.4296 36.785 47.4296Z" fill="black"/>
</svg>
