<svg width="24" height="24" viewBox="0 0 24 24" fill="none" xmlns="http://www.w3.org/2000/svg">
<path fill-rule="evenodd" clip-rule="evenodd" d="M11.6025 20.9775C11.6025 21.195 11.7787 21.375 12 21.375C12.2175 21.375 12.3975 21.1987 12.3975 20.9775V12.3975H20.9775C21.195 12.3975 21.375 12.2175 21.375 12C21.375 11.7825 21.1987 11.6025 20.9775 11.6025H12.3975V3.0225C12.3975 2.805 12.2175 2.625 12 2.625C11.7825 2.625 11.6025 2.80125 11.6025 3.0225V11.6025H3.0225C2.805 11.6025 2.625 11.7825 2.625 12C2.625 12.2175 2.80125 12.3975 3.0225 12.3975H11.6025V20.9775Z" fill="black"/>
</svg>
