<svg width="24" height="24" viewBox="0 0 24 24" fill="none" xmlns="http://www.w3.org/2000/svg">
<path fill-rule="evenodd" clip-rule="evenodd" d="M14.2275 20.9775C14.2275 21.195 14.4037 21.375 14.625 21.375C14.8425 21.375 15.0225 21.1987 15.0225 20.9775V12.3975H23.6025C23.82 12.3975 24 12.2175 24 12C24 11.7825 23.8237 11.6025 23.6025 11.6025H15.0225V3.0225C15.0225 2.805 14.8425 2.625 14.625 2.625C14.4075 2.625 14.2275 2.80125 14.2275 3.0225V11.6025H5.6475C5.43 11.6025 5.25 11.7825 5.25 12C5.25 12.2175 5.42625 12.3975 5.6475 12.3975H14.2275V20.9775Z" fill="black"/>
</svg>
