<svg width="64" height="64" viewBox="0 0 64 64" fill="none" xmlns="http://www.w3.org/2000/svg">
<path fill-rule="evenodd" clip-rule="evenodd" d="M43.0961 19.7946L39.23 10.36C38.9 9.62 38.14 9.13 37.3 9.13H24.46V19.7598H42.55C42.7351 19.7598 42.9174 19.7716 43.0961 19.7946ZM22.34 19.7598V9.13H9.51001C8.67001 9.13 7.90001 9.63 7.56001 10.39L3.71233 19.7938C3.88848 19.7713 4.06794 19.7598 4.25 19.7598H22.34ZM4.25 21.8898H23.3774L23.4 21.89L23.4224 21.8898H42.55C43.72 21.8898 44.68 22.8498 44.68 24.0198V52.7398C44.68 53.9198 43.72 54.8698 42.55 54.8698H4.25C3.08 54.8698 2.12 53.9098 2.12 52.7398V24.0198C2.12 23.6564 2.21105 23.3148 2.37124 23.016C2.39618 22.9788 2.41892 22.9395 2.43919 22.8985C2.816 22.2922 3.48852 21.8898 4.25 21.8898ZM37.3 7H23.4H9.51001C7.83001 7 6.31001 8 5.61001 9.56L0.505015 22.0078C0.182965 22.6072 0 23.2924 0 24.0198V52.7398C0 55.0898 1.9 56.9998 4.25 56.9998H42.55C44.89 56.9998 46.8 55.0898 46.8 52.7398V24.0198C46.8 23.3158 46.6295 22.6512 46.3274 22.0657C46.3238 22.0556 46.3201 22.0455 46.3161 22.0354L46.31 22.02L41.19 9.53C40.5 7.99 38.98 7 37.3 7ZM28.19 47.4296H37.76C38.34 47.4296 38.82 46.9496 38.82 46.3696C38.82 45.7896 38.35 45.3096 37.76 45.3096H28.19C27.61 45.3096 27.13 45.7896 27.13 46.3696C27.13 46.9496 27.6 47.4296 28.19 47.4296Z" fill="black"/>
</svg>
