<svg width="24" height="24" viewBox="0 0 24 24" fill="none" xmlns="http://www.w3.org/2000/svg">
<path fill-rule="evenodd" clip-rule="evenodd" d="M19.0406 3.92605C19.0406 3.90355 19.0406 3.8773 19.0481 3.8548C19.0893 3.6448 19.2918 3.50605 19.5019 3.5473C20.9456 3.82105 22.0706 4.92355 22.3743 6.36355C22.4156 6.57355 22.2843 6.7798 22.0744 6.82105C21.8643 6.86605 21.6581 6.73105 21.6169 6.52105C21.3806 5.3923 20.4918 4.5223 19.3594 4.30855C19.1719 4.2748 19.0443 4.1098 19.0443 3.9298L19.0406 3.92605ZM8.00061 17.1148C7.72686 17.1148 7.46436 17.021 7.25061 16.8485C7.00311 16.646 6.84561 16.361 6.81186 16.0423L6.64339 14.5331C6.13416 14.9546 5.48466 15.1985 4.7906 15.1985H4.78685C4.6781 15.1985 4.5656 15.191 4.45685 15.1797C4.23935 15.1572 4.08185 14.9585 4.10435 14.741C4.12685 14.5235 4.32935 14.366 4.5431 14.3885C5.37814 14.4813 6.16062 14.082 6.58169 13.3984C6.59002 13.382 6.59946 13.3663 6.60994 13.3512C6.70301 13.1909 6.77657 13.0158 6.82685 12.8285L6.8531 12.7347C6.8981 12.5585 7.05935 12.4385 7.23935 12.4385H8.97935C9.4106 12.4385 9.75935 12.0897 9.75935 11.6585C9.75935 11.2272 9.4106 10.8785 8.97935 10.8785H6.7154C6.70641 10.8801 6.69731 10.8813 6.68811 10.8823C6.65121 10.8861 6.61486 10.8846 6.57981 10.8785H5.6531C5.3831 10.931 5.12435 11.021 4.8806 11.1485C4.3556 11.4785 3.9506 12.0147 3.76685 12.641C3.7181 12.8097 3.5606 12.926 3.38435 12.926H2.0156C1.79435 12.926 1.6181 12.746 1.6181 12.5285C1.6181 12.311 1.7981 12.131 2.0156 12.131H3.09935C3.36935 11.4447 3.8531 10.856 4.4831 10.4585C4.8356 10.2747 5.18435 10.1547 5.54435 10.091C5.56685 10.0872 5.5931 10.0835 5.6156 10.0835H6.20408L6.13311 9.38979C6.09936 9.07479 6.19311 8.75979 6.39186 8.51229C6.59436 8.26479 6.87936 8.10729 7.19811 8.07354H7.20936L17.9531 6.97479C18.6094 6.90354 19.1981 7.38354 19.2694 8.03978L19.9481 14.666C20.0156 15.3185 19.5431 15.9035 18.8944 15.9785H18.8831L8.13186 17.1035C8.09061 17.1073 8.04561 17.111 8.00436 17.111L8.00061 17.1148ZM7.60686 15.9523L7.3517 13.6665C7.4246 13.5304 7.48752 13.387 7.53935 13.2372H8.9831C9.84935 13.2372 10.5581 12.5322 10.5581 11.6622C10.5581 10.7922 9.84935 10.0835 8.97935 10.0835H7.00752L6.92811 9.30729C6.91686 9.20229 6.94686 9.09729 7.01436 9.01479C7.08186 8.93229 7.17186 8.88354 7.27686 8.86854H7.28436L18.0356 7.76978C18.2569 7.74353 18.4519 7.90478 18.4744 8.12603L19.1531 14.7485C19.1756 14.966 19.0144 15.1648 18.7969 15.1873H18.7894L8.04561 16.3123C7.94061 16.3235 7.83561 16.2935 7.75311 16.226C7.67061 16.1585 7.61811 16.0648 7.60686 15.9523ZM12.5831 13.1246C12.3806 13.1246 12.2081 12.9709 12.1856 12.7646C12.1631 12.5471 12.3244 12.3484 12.5419 12.3259L17.2069 11.8496C17.4281 11.8271 17.6231 11.9884 17.6456 12.2059C17.6681 12.4234 17.5069 12.6221 17.2894 12.6446L12.6244 13.1209H12.5831V13.1246ZM14.6981 10.0723C14.7206 10.2785 14.8931 10.4323 15.0956 10.4323V10.4285H15.1369L16.7644 10.2635C16.9819 10.241 17.1431 10.0423 17.1206 9.82478C17.0981 9.60728 16.9069 9.44603 16.6819 9.46853L15.0544 9.63353C14.8369 9.65603 14.6756 9.85478 14.6981 10.0723ZM6.35435 20.4561H12.1931V20.4598C12.8344 20.4598 13.4569 20.2273 13.9406 19.8036C14.3306 19.4661 14.6119 19.0273 14.7544 18.5286L14.9119 17.9586C14.9719 17.7486 14.8481 17.5273 14.6344 17.4673C14.4244 17.4111 14.2031 17.5311 14.1431 17.7448L13.9856 18.3111C13.8844 18.6561 13.6894 18.9673 13.4156 19.2036C13.0781 19.4998 12.6431 19.6648 12.1931 19.6648H6.3581C5.47685 19.6573 4.65935 19.2223 4.16435 18.4948C4.08935 18.3823 3.9656 18.3186 3.83435 18.3186H2.0756C1.8581 18.3186 1.6781 18.4986 1.6781 18.7161C1.6781 18.9336 1.85435 19.1136 2.0756 19.1136H3.63185C4.2806 19.9498 5.28185 20.4486 6.35435 20.4561ZM18.5944 5.11091C18.5869 5.13341 18.5869 5.15966 18.5869 5.18216L18.5906 5.1859C18.5906 5.36591 18.7181 5.53091 18.9056 5.56466C19.6444 5.70341 20.2219 6.26965 20.3756 7.00466C20.4169 7.21466 20.6231 7.34966 20.8331 7.30466C21.0431 7.26341 21.1744 7.05716 21.1331 6.84716C20.9119 5.8009 20.0944 5.00216 19.0481 4.80341C18.8381 4.76216 18.6356 4.90091 18.5944 5.11091Z" fill="black"/>
</svg>
