<svg width="64" height="64" viewBox="0 0 64 64" fill="none" xmlns="http://www.w3.org/2000/svg">
<path fill-rule="evenodd" clip-rule="evenodd" d="M46.46 10.4698C46.46 10.4098 46.46 10.3398 46.48 10.2798C46.59 9.7198 47.13 9.3498 47.69 9.4598C51.54 10.1898 54.54 13.1298 55.35 16.9698C55.46 17.5298 55.11 18.0798 54.55 18.1898C53.99 18.3098 53.44 17.9498 53.33 17.3898C52.7 14.3798 50.33 12.0598 47.31 11.4898C46.81 11.3998 46.47 10.9598 46.47 10.4798L46.46 10.4698ZM17.02 45.6398C16.29 45.6398 15.59 45.3898 15.02 44.9298C14.36 44.3898 13.94 43.6298 13.85 42.7798L13.4008 38.7552C12.0428 39.8793 10.3108 40.5296 8.46 40.5296H8.45C8.16 40.5296 7.86 40.5096 7.57 40.4796C6.99 40.4196 6.57 39.8896 6.63 39.3096C6.69 38.7296 7.23 38.3096 7.8 38.3696C10.0268 38.6171 12.1134 37.5523 13.2362 35.7294C13.2584 35.6857 13.2836 35.6437 13.3116 35.6035C13.5598 35.1761 13.7559 34.7092 13.89 34.2096L13.96 33.9596C14.08 33.4896 14.51 33.1696 14.99 33.1696H19.63C20.78 33.1696 21.71 32.2396 21.71 31.0896C21.71 29.9396 20.78 29.0096 19.63 29.0096H13.5928C13.5688 29.0138 13.5445 29.0172 13.52 29.0198C13.4216 29.0299 13.3247 29.026 13.2312 29.0096H10.76C10.04 29.1496 9.35 29.3896 8.7 29.7296C7.3 30.6096 6.22 32.0396 5.73 33.7096C5.6 34.1596 5.18 34.4696 4.71 34.4696H1.06C0.47 34.4696 0 33.9896 0 33.4096C0 32.8296 0.48 32.3496 1.06 32.3496H3.95C4.67 30.5196 5.96 28.9496 7.64 27.8896C8.58 27.3996 9.51 27.0796 10.47 26.9096C10.53 26.8996 10.6 26.8896 10.66 26.8896H12.2293L12.04 25.0398C11.95 24.1998 12.2 23.3598 12.73 22.6998C13.27 22.0398 14.03 21.6198 14.88 21.5298H14.91L43.56 18.5998C45.31 18.4098 46.88 19.6898 47.07 21.4398L48.88 39.1098C49.06 40.8498 47.8 42.4098 46.07 42.6097H46.04L17.37 45.6097C17.26 45.6198 17.14 45.6298 17.03 45.6298L17.02 45.6398ZM15.97 42.5397L15.2896 36.4442C15.484 36.0813 15.6518 35.6991 15.79 35.2996H19.64C21.95 35.2996 23.84 33.4196 23.84 31.0996C23.84 28.7796 21.95 26.8896 19.63 26.8896H14.3718L14.16 24.8198C14.13 24.5398 14.21 24.2598 14.39 24.0398C14.57 23.8198 14.81 23.6898 15.09 23.6498H15.11L43.78 20.7198C44.37 20.6498 44.89 21.0798 44.95 21.6698L46.76 39.3298C46.82 39.9098 46.39 40.4398 45.81 40.4998H45.79L17.14 43.4998C16.86 43.5298 16.58 43.4498 16.36 43.2698C16.14 43.0898 16 42.8398 15.97 42.5397ZM29.24 34.9993C28.7 34.9993 28.24 34.5893 28.18 34.0393C28.12 33.4593 28.55 32.9293 29.13 32.8693L41.57 31.5993C42.16 31.5393 42.68 31.9693 42.74 32.5493C42.8 33.1293 42.37 33.6593 41.79 33.7193L29.35 34.9893H29.24V34.9993ZM34.88 26.8597C34.94 27.4097 35.4 27.8197 35.94 27.8197V27.8097H36.05L40.39 27.3697C40.97 27.3097 41.4 26.7797 41.34 26.1997C41.28 25.6197 40.77 25.1897 40.17 25.2497L35.83 25.6897C35.25 25.7497 34.82 26.2797 34.88 26.8597ZM12.63 54.5498H28.2V54.5598C29.91 54.5598 31.57 53.9398 32.86 52.8098C33.9 51.9098 34.65 50.7398 35.03 49.4098L35.45 47.8898C35.61 47.3298 35.28 46.7398 34.71 46.5798C34.15 46.4298 33.56 46.7498 33.4 47.3198L32.98 48.8298C32.71 49.7498 32.19 50.5798 31.46 51.2098C30.56 51.9998 29.4 52.4398 28.2 52.4398H12.64C10.29 52.4198 8.11 51.2598 6.79 49.3198C6.59 49.0198 6.26 48.8498 5.91 48.8498H1.22C0.640004 48.8498 0.160004 49.3298 0.160004 49.9098C0.160004 50.4898 0.630004 50.9698 1.22 50.9698H5.37C7.1 53.1998 9.77 54.5298 12.63 54.5498ZM45.27 13.6294C45.25 13.6894 45.25 13.7594 45.25 13.8194L45.26 13.8294C45.26 14.3094 45.6 14.7494 46.1 14.8394C48.07 15.2094 49.61 16.7194 50.02 18.6794C50.13 19.2394 50.68 19.5994 51.24 19.4794C51.8 19.3694 52.15 18.8194 52.04 18.2594C51.45 15.4694 49.27 13.3394 46.48 12.8094C45.92 12.6994 45.38 13.0694 45.27 13.6294Z" fill="black"/>
</svg>
