<svg width="24" height="24" viewBox="0 0 24 24" fill="none" xmlns="http://www.w3.org/2000/svg">
<path fill-rule="evenodd" clip-rule="evenodd" d="M20.6587 3.92605C20.6587 3.90355 20.6587 3.8773 20.6662 3.8548C20.7074 3.6448 20.9099 3.50605 21.1199 3.5473C22.5637 3.82105 23.6887 4.92355 23.9924 6.36355C24.0337 6.57355 23.9024 6.7798 23.6924 6.82105C23.4824 6.86605 23.2762 6.73105 23.2349 6.52105C22.9987 5.3923 22.1099 4.5223 20.9774 4.30855C20.7899 4.2748 20.6624 4.1098 20.6624 3.9298L20.6587 3.92605ZM9.61868 17.1148C9.34493 17.1148 9.08243 17.021 8.86868 16.8485C8.62118 16.646 8.46368 16.361 8.42993 16.0423L8.26146 14.5331C7.75223 14.9546 7.10273 15.1985 6.40868 15.1985H6.40493C6.29618 15.1985 6.18368 15.191 6.07493 15.1797C5.85743 15.1572 5.69993 14.9585 5.72243 14.741C5.74493 14.5235 5.94743 14.366 6.16118 14.3885C6.99621 14.4813 7.77869 14.082 8.19977 13.3984C8.20809 13.382 8.21753 13.3663 8.22801 13.3512C8.32109 13.1909 8.39465 13.0158 8.44493 12.8285L8.47118 12.7347C8.51618 12.5585 8.67743 12.4385 8.85743 12.4385H10.5974C11.0287 12.4385 11.3774 12.0897 11.3774 11.6585C11.3774 11.2272 11.0287 10.8785 10.5974 10.8785H8.33347C8.32448 10.8801 8.31538 10.8813 8.30618 10.8823C8.26929 10.8861 8.23293 10.8846 8.19788 10.8785H7.27118C7.00118 10.931 6.74243 11.021 6.49868 11.1485C5.97368 11.4785 5.56868 12.0147 5.38493 12.641C5.33618 12.8097 5.17868 12.926 5.00243 12.926H3.63368C3.41243 12.926 3.23618 12.746 3.23618 12.5285C3.23618 12.311 3.41618 12.131 3.63368 12.131H4.71743C4.98743 11.4447 5.47118 10.856 6.10118 10.4585C6.45368 10.2747 6.80243 10.1547 7.16243 10.091C7.18493 10.0872 7.21118 10.0835 7.23368 10.0835H7.82215L7.75118 9.38979C7.71743 9.07479 7.81118 8.75979 8.00993 8.51229C8.21243 8.26479 8.49743 8.10729 8.81618 8.07354H8.82743L19.5712 6.97479C20.2274 6.90354 20.8162 7.38354 20.8874 8.03978L21.5662 14.666C21.6337 15.3185 21.1612 15.9035 20.5124 15.9785H20.5012L9.74993 17.1035C9.70868 17.1073 9.66368 17.111 9.62243 17.111L9.61868 17.1148ZM9.22493 15.9523L8.96977 13.6665C9.04267 13.5304 9.1056 13.387 9.15743 13.2372H10.6012C11.4674 13.2372 12.1762 12.5322 12.1762 11.6622C12.1762 10.7922 11.4674 10.0835 10.5974 10.0835H8.62559L8.54618 9.30729C8.53493 9.20229 8.56493 9.09729 8.63243 9.01479C8.69993 8.93229 8.78993 8.88354 8.89493 8.86854H8.90243L19.6537 7.76978C19.8749 7.74353 20.0699 7.90478 20.0924 8.12603L20.7712 14.7485C20.7937 14.966 20.6324 15.1648 20.4149 15.1873H20.4074L9.66368 16.3123C9.55868 16.3235 9.45368 16.2935 9.37118 16.226C9.28868 16.1585 9.23618 16.0648 9.22493 15.9523ZM14.2012 13.1246C13.9987 13.1246 13.8262 12.9709 13.8037 12.7646C13.7812 12.5471 13.9424 12.3484 14.1599 12.3259L18.8249 11.8496C19.0462 11.8271 19.2412 11.9884 19.2637 12.2059C19.2862 12.4234 19.1249 12.6221 18.9074 12.6446L14.2424 13.1209H14.2012V13.1246ZM16.3162 10.0723C16.3387 10.2785 16.5112 10.4323 16.7137 10.4323V10.4285H16.7549L18.3824 10.2635C18.5999 10.241 18.7612 10.0423 18.7387 9.82478C18.7162 9.60728 18.5249 9.44603 18.2999 9.46853L16.6724 9.63353C16.4549 9.65603 16.2937 9.85478 16.3162 10.0723ZM7.97243 20.4561H13.8112V20.4598C14.4524 20.4598 15.0749 20.2273 15.5587 19.8036C15.9487 19.4661 16.2299 19.0273 16.3724 18.5286L16.5299 17.9586C16.5899 17.7486 16.4662 17.5273 16.2524 17.4673C16.0424 17.4111 15.8212 17.5311 15.7612 17.7448L15.6037 18.3111C15.5024 18.6561 15.3074 18.9673 15.0337 19.2036C14.6962 19.4998 14.2612 19.6648 13.8112 19.6648H7.97618C7.09493 19.6573 6.27743 19.2223 5.78243 18.4948C5.70743 18.3823 5.58368 18.3186 5.45243 18.3186H3.69368C3.47618 18.3186 3.29618 18.4986 3.29618 18.7161C3.29618 18.9336 3.47243 19.1136 3.69368 19.1136H5.24993C5.89868 19.9498 6.89993 20.4486 7.97243 20.4561ZM20.2124 5.11091C20.2049 5.13341 20.2049 5.15966 20.2049 5.18216L20.2087 5.1859C20.2087 5.36591 20.3362 5.53091 20.5237 5.56466C21.2624 5.70341 21.8399 6.26965 21.9937 7.00466C22.0349 7.21466 22.2412 7.34966 22.4512 7.30466C22.6612 7.26341 22.7924 7.05716 22.7512 6.84716C22.5299 5.8009 21.7124 5.00216 20.6662 4.80341C20.4562 4.76216 20.2537 4.90091 20.2124 5.11091Z" fill="black"/>
</svg>
