<svg width="24" height="24" viewBox="0 0 24 24" fill="none" xmlns="http://www.w3.org/2000/svg">
<path fill-rule="evenodd" clip-rule="evenodd" d="M17.4225 3.92605C17.4225 3.90355 17.4225 3.8773 17.43 3.8548C17.4712 3.6448 17.6737 3.50605 17.8837 3.5473C19.3275 3.82105 20.4525 4.92355 20.7562 6.36355C20.7975 6.57355 20.6662 6.7798 20.4562 6.82105C20.2462 6.86605 20.04 6.73105 19.9987 6.52105C19.7625 5.3923 18.8737 4.5223 17.7412 4.30855C17.5537 4.2748 17.4262 4.1098 17.4262 3.9298L17.4225 3.92605ZM6.3825 17.1148C6.10875 17.1148 5.84625 17.021 5.6325 16.8485C5.385 16.646 5.2275 16.361 5.19375 16.0423L5.02529 14.5331C4.51606 14.9546 3.86655 15.1985 3.1725 15.1985H3.16875C3.06 15.1985 2.9475 15.191 2.83875 15.1797C2.62125 15.1572 2.46375 14.9585 2.48625 14.741C2.50875 14.5235 2.71125 14.366 2.925 14.3885C3.76003 14.4813 4.54251 14.082 4.96359 13.3984C4.97191 13.382 4.98136 13.3663 4.99184 13.3512C5.08491 13.1909 5.15847 13.0158 5.20875 12.8285L5.235 12.7347C5.28 12.5585 5.44125 12.4385 5.62125 12.4385H7.36125C7.7925 12.4385 8.14125 12.0897 8.14125 11.6585C8.14125 11.2272 7.7925 10.8785 7.36125 10.8785H5.09729C5.0883 10.8801 5.07921 10.8813 5.07 10.8823C5.03311 10.8861 4.99676 10.8846 4.96171 10.8785H4.035C3.765 10.931 3.50625 11.021 3.2625 11.1485C2.7375 11.4785 2.3325 12.0147 2.14875 12.641C2.1 12.8097 1.9425 12.926 1.76625 12.926H0.3975C0.17625 12.926 0 12.746 0 12.5285C0 12.311 0.18 12.131 0.3975 12.131H1.48125C1.75125 11.4447 2.235 10.856 2.865 10.4585C3.2175 10.2747 3.56625 10.1547 3.92625 10.091C3.94875 10.0872 3.975 10.0835 3.9975 10.0835H4.58598L4.515 9.38979C4.48125 9.07479 4.575 8.75979 4.77375 8.51229C4.97625 8.26479 5.26125 8.10729 5.58 8.07354H5.59125L16.335 6.97479C16.9913 6.90354 17.58 7.38354 17.6513 8.03978L18.33 14.666C18.3975 15.3185 17.925 15.9035 17.2763 15.9785H17.265L6.51375 17.1035C6.47251 17.1073 6.42751 17.111 6.38625 17.111L6.3825 17.1148ZM5.98875 15.9523L5.73359 13.6665C5.8065 13.5304 5.86942 13.387 5.92125 13.2372H7.365C8.23125 13.2372 8.94 12.5322 8.94 11.6622C8.94 10.7922 8.23125 10.0835 7.36125 10.0835H5.38942L5.31 9.30729C5.29875 9.20229 5.32875 9.09729 5.39625 9.01479C5.46375 8.93229 5.55375 8.88354 5.65875 8.86854H5.66625L16.4175 7.76978C16.6388 7.74353 16.8338 7.90478 16.8563 8.12603L17.535 14.7485C17.5575 14.966 17.3963 15.1648 17.1788 15.1873H17.1713L6.4275 16.3123C6.3225 16.3235 6.2175 16.2935 6.135 16.226C6.05251 16.1585 6 16.0648 5.98875 15.9523ZM10.965 13.1246C10.7625 13.1246 10.59 12.9709 10.5675 12.7646C10.545 12.5471 10.7062 12.3484 10.9237 12.3259L15.5887 11.8496C15.81 11.8271 16.005 11.9884 16.0275 12.2059C16.05 12.4234 15.8888 12.6221 15.6712 12.6446L11.0062 13.1209H10.965V13.1246ZM13.08 10.0723C13.1025 10.2785 13.275 10.4323 13.4775 10.4323V10.4285H13.5188L15.1463 10.2635C15.3638 10.241 15.525 10.0423 15.5025 9.82478C15.48 9.60728 15.2888 9.44603 15.0638 9.46853L13.4363 9.63353C13.2188 9.65603 13.0575 9.85478 13.08 10.0723ZM4.73625 20.4561H10.575V20.4598C11.2163 20.4598 11.8388 20.2273 12.3225 19.8036C12.7125 19.4661 12.9938 19.0273 13.1363 18.5286L13.2938 17.9586C13.3538 17.7486 13.23 17.5273 13.0163 17.4673C12.8063 17.4111 12.585 17.5311 12.525 17.7448L12.3675 18.3111C12.2663 18.6561 12.0713 18.9673 11.7975 19.2036C11.46 19.4998 11.025 19.6648 10.575 19.6648H4.74C3.85875 19.6573 3.04125 19.2223 2.54625 18.4948C2.47125 18.3823 2.3475 18.3186 2.21625 18.3186H0.457501C0.240001 18.3186 0.0600014 18.4986 0.0600014 18.7161C0.0600014 18.9336 0.236251 19.1136 0.457501 19.1136H2.01375C2.6625 19.9498 3.66375 20.4486 4.73625 20.4561ZM16.9762 5.11091C16.9688 5.13341 16.9688 5.15966 16.9688 5.18216L16.9725 5.1859C16.9725 5.36591 17.1 5.53091 17.2875 5.56466C18.0262 5.70341 18.6038 6.26965 18.7575 7.00466C18.7987 7.21466 19.005 7.34966 19.215 7.30466C19.425 7.26341 19.5562 7.05716 19.515 6.84716C19.2938 5.8009 18.4762 5.00216 17.43 4.80341C17.22 4.76216 17.0175 4.90091 16.9762 5.11091Z" fill="black"/>
</svg>
