<svg width="64" height="64" viewBox="0 0 64 64" fill="none" xmlns="http://www.w3.org/2000/svg">
<path fill-rule="evenodd" clip-rule="evenodd" d="M55.0898 10.4698C55.0898 10.4098 55.0898 10.3398 55.1098 10.2798C55.2198 9.7198 55.7598 9.3498 56.3198 9.4598C60.1698 10.1898 63.1698 13.1298 63.9798 16.9698C64.0898 17.5298 63.7398 18.0798 63.1798 18.1898C62.6198 18.3098 62.0698 17.9498 61.9598 17.3898C61.3298 14.3798 58.9598 12.0598 55.9398 11.4898C55.4398 11.3998 55.0998 10.9598 55.0998 10.4798L55.0898 10.4698ZM25.6498 45.6398C24.9198 45.6398 24.2198 45.3898 23.6498 44.9298C22.9898 44.3898 22.5698 43.6298 22.4798 42.7798L22.0306 38.7552C20.6726 39.8793 18.9406 40.5296 17.0898 40.5296H17.0798C16.7898 40.5296 16.4898 40.5096 16.1998 40.4796C15.6198 40.4196 15.1998 39.8896 15.2598 39.3096C15.3198 38.7296 15.8598 38.3096 16.4298 38.3696C18.6566 38.6171 20.7432 37.5523 21.8661 35.7294C21.8883 35.6857 21.9134 35.6437 21.9414 35.6035C22.1896 35.1761 22.3857 34.7092 22.5198 34.2096L22.5898 33.9596C22.7098 33.4896 23.1398 33.1696 23.6198 33.1696H28.2598C29.4098 33.1696 30.3398 32.2396 30.3398 31.0896C30.3398 29.9396 29.4098 29.0096 28.2598 29.0096H22.2226C22.1986 29.0138 22.1744 29.0172 22.1498 29.0198C22.0514 29.0299 21.9545 29.026 21.861 29.0096H19.3898C18.6698 29.1496 17.9798 29.3896 17.3298 29.7296C15.9298 30.6096 14.8498 32.0396 14.3598 33.7096C14.2298 34.1596 13.8098 34.4696 13.3398 34.4696H9.68982C9.09982 34.4696 8.62982 33.9896 8.62982 33.4096C8.62982 32.8296 9.10982 32.3496 9.68982 32.3496H12.5798C13.2998 30.5196 14.5898 28.9496 16.2698 27.8896C17.2098 27.3996 18.1398 27.0796 19.0998 26.9096C19.1598 26.8996 19.2298 26.8896 19.2898 26.8896H20.8591L20.6698 25.0398C20.5798 24.1998 20.8298 23.3598 21.3598 22.6998C21.8998 22.0398 22.6598 21.6198 23.5098 21.5298H23.5398L52.1898 18.5998C53.9398 18.4098 55.5098 19.6898 55.6998 21.4398L57.5098 39.1098C57.6898 40.8498 56.4298 42.4098 54.6998 42.6097H54.6698L25.9998 45.6097C25.8898 45.6198 25.7698 45.6298 25.6598 45.6298L25.6498 45.6398ZM24.5998 42.5397L23.9194 36.4442C24.1138 36.0813 24.2816 35.6991 24.4198 35.2996H28.2698C30.5798 35.2996 32.4698 33.4196 32.4698 31.0996C32.4698 28.7796 30.5798 26.8896 28.2598 26.8896H23.0016L22.7898 24.8198C22.7598 24.5398 22.8398 24.2598 23.0198 24.0398C23.1998 23.8198 23.4398 23.6898 23.7198 23.6498H23.7398L52.4098 20.7198C52.9998 20.6498 53.5198 21.0798 53.5798 21.6698L55.3898 39.3298C55.4498 39.9098 55.0198 40.4398 54.4398 40.4998H54.4198L25.7698 43.4998C25.4898 43.5298 25.2098 43.4498 24.9898 43.2698C24.7698 43.0898 24.6298 42.8398 24.5998 42.5397ZM37.8698 34.9993C37.3298 34.9993 36.8698 34.5893 36.8098 34.0393C36.7498 33.4593 37.1798 32.9293 37.7598 32.8693L50.1998 31.5993C50.7898 31.5393 51.3098 31.9693 51.3698 32.5493C51.4298 33.1293 50.9998 33.6593 50.4198 33.7193L37.9798 34.9893H37.8698V34.9993ZM43.5098 26.8597C43.5698 27.4097 44.0298 27.8197 44.5698 27.8197V27.8097H44.6798L49.0198 27.3697C49.5998 27.3097 50.0298 26.7797 49.9698 26.1997C49.9098 25.6197 49.3998 25.1897 48.7998 25.2497L44.4598 25.6897C43.8798 25.7497 43.4498 26.2797 43.5098 26.8597ZM21.2598 54.5498H36.8298V54.5598C38.5398 54.5598 40.1998 53.9398 41.4898 52.8098C42.5298 51.9098 43.2798 50.7398 43.6598 49.4098L44.0798 47.8898C44.2398 47.3298 43.9098 46.7398 43.3398 46.5798C42.7798 46.4298 42.1898 46.7498 42.0298 47.3198L41.6098 48.8298C41.3398 49.7498 40.8198 50.5798 40.0898 51.2098C39.1898 51.9998 38.0298 52.4398 36.8298 52.4398H21.2698C18.9198 52.4198 16.7398 51.2598 15.4198 49.3198C15.2198 49.0198 14.8898 48.8498 14.5398 48.8498H9.84983C9.26983 48.8498 8.78983 49.3298 8.78983 49.9098C8.78983 50.4898 9.25983 50.9698 9.84983 50.9698H13.9998C15.7298 53.1998 18.3998 54.5298 21.2598 54.5498ZM53.8998 13.6294C53.8798 13.6894 53.8798 13.7594 53.8798 13.8194L53.8898 13.8294C53.8898 14.3094 54.2298 14.7494 54.7298 14.8394C56.6998 15.2094 58.2398 16.7194 58.6498 18.6794C58.7598 19.2394 59.3098 19.5994 59.8698 19.4794C60.4298 19.3694 60.7798 18.8194 60.6698 18.2594C60.0798 15.4694 57.8998 13.3394 55.1098 12.8094C54.5498 12.6994 54.0098 13.0694 53.8998 13.6294Z" fill="black"/>
</svg>
