<svg width="64" height="64" viewBox="0 0 64 64" fill="none" xmlns="http://www.w3.org/2000/svg">
<path fill-rule="evenodd" clip-rule="evenodd" d="M50.7749 10.4698C50.7749 10.4098 50.7749 10.3398 50.7949 10.2798C50.9049 9.7198 51.4449 9.3498 52.0049 9.4598C55.8549 10.1898 58.8549 13.1298 59.6649 16.9698C59.7749 17.5298 59.4249 18.0798 58.8649 18.1898C58.3049 18.3098 57.7549 17.9498 57.6449 17.3898C57.0149 14.3798 54.6449 12.0598 51.6249 11.4898C51.1249 11.3998 50.7849 10.9598 50.7849 10.4798L50.7749 10.4698ZM21.3349 45.6398C20.6049 45.6398 19.9049 45.3898 19.3349 44.9298C18.6749 44.3898 18.2549 43.6298 18.1649 42.7798L17.7157 38.7552C16.3577 39.8793 14.6257 40.5296 12.7749 40.5296H12.7649C12.4749 40.5296 12.1749 40.5096 11.8849 40.4796C11.3049 40.4196 10.8849 39.8896 10.9449 39.3096C11.0049 38.7296 11.5449 38.3096 12.1149 38.3696C14.3417 38.6171 16.4283 37.5523 17.5512 35.7294C17.5734 35.6857 17.5985 35.6437 17.6265 35.6035C17.8747 35.1761 18.0708 34.7092 18.2049 34.2096L18.2749 33.9596C18.3949 33.4896 18.8249 33.1696 19.3049 33.1696H23.9449C25.0949 33.1696 26.0249 32.2396 26.0249 31.0896C26.0249 29.9396 25.0949 29.0096 23.9449 29.0096H17.9077C17.8837 29.0138 17.8595 29.0172 17.8349 29.0198C17.7365 29.0299 17.6396 29.026 17.5461 29.0096H15.0749C14.3549 29.1496 13.6649 29.3896 13.0149 29.7296C11.6149 30.6096 10.5349 32.0396 10.0449 33.7096C9.91491 34.1596 9.49491 34.4696 9.02491 34.4696H5.37491C4.78491 34.4696 4.31491 33.9896 4.31491 33.4096C4.31491 32.8296 4.79491 32.3496 5.37491 32.3496H8.26491C8.98491 30.5196 10.2749 28.9496 11.9549 27.8896C12.8949 27.3996 13.8249 27.0796 14.7849 26.9096C14.8449 26.8996 14.9149 26.8896 14.9749 26.8896H16.5442L16.3549 25.0398C16.2649 24.1998 16.5149 23.3598 17.0449 22.6998C17.5849 22.0398 18.3449 21.6198 19.1949 21.5298H19.2249L47.8749 18.5998C49.6249 18.4098 51.1949 19.6898 51.3849 21.4398L53.1949 39.1098C53.3749 40.8498 52.1149 42.4098 50.3849 42.6097H50.3549L21.6849 45.6097C21.5749 45.6198 21.4549 45.6298 21.3449 45.6298L21.3349 45.6398ZM20.2849 42.5397L19.6045 36.4442C19.7989 36.0813 19.9667 35.6991 20.1049 35.2996H23.9549C26.2649 35.2996 28.1549 33.4196 28.1549 31.0996C28.1549 28.7796 26.2649 26.8896 23.9449 26.8896H18.6867L18.4749 24.8198C18.4449 24.5398 18.5249 24.2598 18.7049 24.0398C18.8849 23.8198 19.1249 23.6898 19.4049 23.6498H19.4249L48.0949 20.7198C48.6849 20.6498 49.2049 21.0798 49.2649 21.6698L51.0749 39.3298C51.1349 39.9098 50.7049 40.4398 50.1249 40.4998H50.1049L21.4549 43.4998C21.1749 43.5298 20.8949 43.4498 20.6749 43.2698C20.4549 43.0898 20.3149 42.8398 20.2849 42.5397ZM33.5549 34.9993C33.0149 34.9993 32.5549 34.5893 32.4949 34.0393C32.4349 33.4593 32.8649 32.9293 33.4449 32.8693L45.8849 31.5993C46.4749 31.5393 46.9949 31.9693 47.0549 32.5493C47.1149 33.1293 46.6849 33.6593 46.1049 33.7193L33.6649 34.9893H33.5549V34.9993ZM39.1949 26.8597C39.2549 27.4097 39.7149 27.8197 40.2549 27.8197V27.8097H40.3649L44.7049 27.3697C45.2849 27.3097 45.7149 26.7797 45.6549 26.1997C45.5949 25.6197 45.0849 25.1897 44.4849 25.2497L40.1449 25.6897C39.5649 25.7497 39.1349 26.2797 39.1949 26.8597ZM16.9449 54.5498H32.5149V54.5598C34.2249 54.5598 35.8849 53.9398 37.1749 52.8098C38.2149 51.9098 38.9649 50.7398 39.3449 49.4098L39.7649 47.8898C39.9249 47.3298 39.5949 46.7398 39.0249 46.5798C38.4649 46.4298 37.8749 46.7498 37.7149 47.3198L37.2949 48.8298C37.0249 49.7498 36.5049 50.5798 35.7749 51.2098C34.8749 51.9998 33.7149 52.4398 32.5149 52.4398H16.9549C14.6049 52.4198 12.4249 51.2598 11.1049 49.3198C10.9049 49.0198 10.5749 48.8498 10.2249 48.8498H5.53491C4.95491 48.8498 4.47491 49.3298 4.47491 49.9098C4.47491 50.4898 4.94491 50.9698 5.53491 50.9698H9.68491C11.4149 53.1998 14.0849 54.5298 16.9449 54.5498ZM49.5849 13.6294C49.5649 13.6894 49.5649 13.7594 49.5649 13.8194L49.5749 13.8294C49.5749 14.3094 49.9149 14.7494 50.4149 14.8394C52.3849 15.2094 53.9249 16.7194 54.3349 18.6794C54.4449 19.2394 54.9949 19.5994 55.5549 19.4794C56.1149 19.3694 56.4649 18.8194 56.3549 18.2594C55.7649 15.4694 53.5849 13.3394 50.7949 12.8094C50.2349 12.6994 49.6949 13.0694 49.5849 13.6294Z" fill="black"/>
</svg>
