<svg width="24" height="24" viewBox="0 0 24 24" fill="none" xmlns="http://www.w3.org/2000/svg">
<path d="M14.8725 21.3749C14.7112 21.3749 14.55 21.3374 14.4037 21.2624L9.375 18.7724L4.35 21.2624C4.1025 21.3861 3.8175 21.4086 3.55125 21.3186C3.285 21.2324 3.07125 21.0449 2.94375 20.7936C2.8275 20.5649 2.80125 20.3024 2.86875 20.0549L4.37625 14.5799L0.3075 10.5561C0.10875 10.3574 0 10.0986 0 9.82111C0 9.54361 0.105 9.28111 0.3 9.08236C0.47625 8.90611 0.705 8.79736 0.9525 8.77861L5.865 8.29111L8.4375 3.19861C8.565 2.94736 8.78625 2.75986 9.0525 2.67361C9.31875 2.58736 9.60375 2.60986 9.855 2.73736C10.0538 2.83861 10.2112 2.99611 10.3125 3.19486L12.885 8.29111L17.805 8.77861C18.3712 8.82736 18.7987 9.32986 18.75 9.90361C18.7275 10.1511 18.6225 10.3836 18.4462 10.5561L14.385 14.5836L15.8925 20.0549C16.0425 20.6174 15.7088 21.1911 15.15 21.3411C15.06 21.3636 14.97 21.3749 14.88 21.3749H14.8725ZM9.37125 17.9286C9.43125 17.9286 9.49125 17.9436 9.5475 17.9699L14.7562 20.5499C14.8125 20.5799 14.8763 20.5836 14.9363 20.5686C15.0675 20.5349 15.15 20.3961 15.1125 20.2649L13.545 14.5724C13.5075 14.4336 13.545 14.2836 13.65 14.1824L17.88 9.98986C17.9213 9.94861 17.9475 9.89611 17.9512 9.83611C17.9625 9.70111 17.8612 9.58486 17.73 9.57361L12.585 9.06361C12.45 9.04861 12.33 8.96986 12.27 8.84611L9.6 3.56236C9.57375 3.51361 9.53625 3.47611 9.49125 3.45361C9.43125 3.42361 9.36 3.41611 9.29625 3.43861C9.2325 3.46111 9.18 3.50611 9.14625 3.56611L6.48 8.84986C6.42 8.97361 6.3 9.05236 6.165 9.06736L1.0275 9.57736C0.96375 9.58111 0.9075 9.60736 0.87 9.64861C0.77625 9.74236 0.77625 9.89986 0.87 9.99361L5.1 14.1861C5.20125 14.2874 5.2425 14.4374 5.205 14.5761L3.6375 20.2724C3.6225 20.3286 3.63 20.3924 3.65625 20.4449C3.68625 20.5049 3.73875 20.5499 3.8025 20.5686C3.86625 20.5874 3.93375 20.5836 3.99375 20.5536L9.19875 17.9774C9.255 17.9511 9.315 17.9361 9.375 17.9361L9.37125 17.9286Z" fill="black"/>
</svg>
