<svg width="64" height="64" viewBox="0 0 64 64" fill="none" xmlns="http://www.w3.org/2000/svg">
<g clip-path="url(#clip0_1530_3104)">
<path d="M53.6499 56.9996C53.2199 56.9996 52.7899 56.8996 52.3999 56.6996L38.9899 50.0596L25.5899 56.6996C24.9299 57.0296 24.1699 57.0896 23.4599 56.8496C22.7499 56.6196 22.1799 56.1196 21.8399 55.4496C21.5299 54.8396 21.4599 54.1396 21.6399 53.4796L25.6599 38.8796L14.8099 28.1496C14.2799 27.6196 13.9899 26.9296 13.9899 26.1896C13.9899 25.4496 14.2699 24.7496 14.7899 24.2196C15.2599 23.7496 15.8699 23.4596 16.5299 23.4096L29.6299 22.1096L36.4899 8.52963C36.8299 7.85963 37.4199 7.35963 38.1299 7.12963C38.8399 6.89963 39.5999 6.95963 40.2699 7.29963C40.7999 7.56963 41.2199 7.98963 41.4899 8.51963L48.3499 22.1096L61.4699 23.4096C62.9799 23.5396 64.1199 24.8796 63.9899 26.4096C63.9299 27.0696 63.6499 27.6896 63.1799 28.1496L52.3499 38.8896L56.3699 53.4796C56.7699 54.9796 55.8799 56.5096 54.3899 56.9096C54.1499 56.9696 53.9099 56.9996 53.6699 56.9996H53.6499ZM38.9799 47.8096C39.1399 47.8096 39.2999 47.8496 39.4499 47.9196L53.3399 54.7996C53.4899 54.8796 53.6599 54.8896 53.8199 54.8496C54.1699 54.7596 54.3899 54.3896 54.2899 54.0396L50.1099 38.8596C50.0099 38.4896 50.1099 38.0896 50.3899 37.8196L61.6699 26.6396C61.7799 26.5296 61.8499 26.3896 61.8599 26.2296C61.8899 25.8696 61.6199 25.5596 61.2699 25.5296L47.5499 24.1696C47.1899 24.1296 46.8699 23.9196 46.7099 23.5896L39.5899 9.49963C39.5199 9.36963 39.4199 9.26963 39.2999 9.20963C39.1399 9.12963 38.9499 9.10963 38.7799 9.16963C38.6099 9.22963 38.4699 9.34963 38.3799 9.50963L31.2699 23.5996C31.1099 23.9296 30.7899 24.1396 30.4299 24.1796L16.7299 25.5396C16.5599 25.5496 16.4099 25.6196 16.3099 25.7296C16.0599 25.9796 16.0599 26.3996 16.3099 26.6496L27.5899 37.8296C27.8599 38.0996 27.9699 38.4996 27.8699 38.8696L23.6899 54.0596C23.6499 54.2096 23.6699 54.3796 23.7399 54.5196C23.8199 54.6796 23.9599 54.7996 24.1299 54.8496C24.2999 54.8996 24.4799 54.8896 24.6399 54.8096L38.5199 47.9396C38.6699 47.8696 38.8299 47.8296 38.9899 47.8296L38.9799 47.8096Z" fill="black"/>
</g>
<defs>
<clipPath id="clip0_1530_3104">
<rect width="64" height="64" fill="white"/>
</clipPath>
</defs>
</svg>
