<svg width="24" height="24" viewBox="0 0 24 24" fill="none" xmlns="http://www.w3.org/2000/svg">
<g clip-path="url(#clip0_1530_5711)">
<path d="M20.1187 21.3749C19.9575 21.3749 19.7962 21.3374 19.65 21.2624L14.6212 18.7724L9.59622 21.2624C9.34872 21.3861 9.06372 21.4086 8.79747 21.3186C8.53122 21.2324 8.31747 21.0449 8.18997 20.7936C8.07372 20.5649 8.04747 20.3024 8.11497 20.0549L9.62247 14.5799L5.55372 10.5561C5.35497 10.3574 5.24622 10.0986 5.24622 9.82111C5.24622 9.54361 5.35122 9.28111 5.54622 9.08236C5.72247 8.90611 5.95122 8.79736 6.19872 8.77861L11.1112 8.29111L13.6837 3.19861C13.8112 2.94736 14.0325 2.75986 14.2987 2.67361C14.565 2.58736 14.85 2.60986 15.1012 2.73736C15.3 2.83861 15.4575 2.99611 15.5587 3.19486L18.1312 8.29111L23.0512 8.77861C23.6175 8.82736 24.045 9.32986 23.9962 9.90361C23.9737 10.1511 23.8687 10.3836 23.6925 10.5561L19.6312 14.5836L21.1387 20.0549C21.2887 20.6174 20.955 21.1911 20.3962 21.3411C20.3062 21.3636 20.2162 21.3749 20.1262 21.3749H20.1187ZM14.6175 17.9286C14.6775 17.9286 14.7375 17.9436 14.7937 17.9699L20.0025 20.5499C20.0587 20.5799 20.1225 20.5836 20.1825 20.5686C20.3137 20.5349 20.3962 20.3961 20.3587 20.2649L18.7912 14.5724C18.7537 14.4336 18.7912 14.2836 18.8962 14.1824L23.1262 9.98986C23.1675 9.94861 23.1937 9.89611 23.1975 9.83611C23.2087 9.70111 23.1075 9.58486 22.9762 9.57361L17.8312 9.06361C17.6962 9.04861 17.5762 8.96986 17.5162 8.84611L14.8462 3.56236C14.82 3.51361 14.7825 3.47611 14.7375 3.45361C14.6775 3.42361 14.6062 3.41611 14.5425 3.43861C14.4787 3.46111 14.4262 3.50611 14.3925 3.56611L11.7262 8.84986C11.6662 8.97361 11.5462 9.05236 11.4112 9.06736L6.27372 9.57736C6.20997 9.58111 6.15372 9.60736 6.11622 9.64861C6.02247 9.74236 6.02247 9.89986 6.11622 9.99361L10.3462 14.1861C10.4475 14.2874 10.4887 14.4374 10.4512 14.5761L8.88372 20.2724C8.86872 20.3286 8.87622 20.3924 8.90247 20.4449C8.93247 20.5049 8.98497 20.5499 9.04872 20.5686C9.11247 20.5874 9.17997 20.5836 9.23997 20.5536L14.445 17.9774C14.5012 17.9511 14.5612 17.9361 14.6212 17.9361L14.6175 17.9286Z" fill="black"/>
</g>
<defs>
<clipPath id="clip0_1530_5711">
<rect width="24" height="24" fill="white"/>
</clipPath>
</defs>
</svg>
