<svg width="24" height="24" viewBox="0 0 24 24" fill="none" xmlns="http://www.w3.org/2000/svg">
<path d="M17.4975 21.3749C17.3362 21.3749 17.175 21.3374 17.0287 21.2624L12 18.7724L6.975 21.2624C6.7275 21.3861 6.4425 21.4086 6.17625 21.3186C5.91 21.2324 5.69625 21.0449 5.56875 20.7936C5.4525 20.5649 5.42625 20.3024 5.49375 20.0549L7.00125 14.5799L2.9325 10.5561C2.73375 10.3574 2.625 10.0986 2.625 9.82111C2.625 9.54361 2.73 9.28111 2.925 9.08236C3.10125 8.90611 3.33 8.79736 3.5775 8.77861L8.49 8.29111L11.0625 3.19861C11.19 2.94736 11.4112 2.75986 11.6775 2.67361C11.9437 2.58736 12.2288 2.60986 12.48 2.73736C12.6788 2.83861 12.8362 2.99611 12.9375 3.19486L15.51 8.29111L20.43 8.77861C20.9962 8.82736 21.4237 9.32986 21.375 9.90361C21.3525 10.1511 21.2475 10.3836 21.0712 10.5561L17.01 14.5836L18.5175 20.0549C18.6675 20.6174 18.3338 21.1911 17.775 21.3411C17.685 21.3636 17.595 21.3749 17.505 21.3749H17.4975ZM11.9962 17.9286C12.0562 17.9286 12.1162 17.9436 12.1725 17.9699L17.3812 20.5499C17.4375 20.5799 17.5013 20.5836 17.5613 20.5686C17.6925 20.5349 17.775 20.3961 17.7375 20.2649L16.17 14.5724C16.1325 14.4336 16.17 14.2836 16.275 14.1824L20.505 9.98986C20.5463 9.94861 20.5725 9.89611 20.5762 9.83611C20.5875 9.70111 20.4862 9.58486 20.355 9.57361L15.21 9.06361C15.075 9.04861 14.955 8.96986 14.895 8.84611L12.225 3.56236C12.1988 3.51361 12.1612 3.47611 12.1162 3.45361C12.0562 3.42361 11.985 3.41611 11.9213 3.43861C11.8575 3.46111 11.805 3.50611 11.7712 3.56611L9.105 8.84986C9.045 8.97361 8.925 9.05236 8.79 9.06736L3.6525 9.57736C3.58875 9.58111 3.5325 9.60736 3.495 9.64861C3.40125 9.74236 3.40125 9.89986 3.495 9.99361L7.725 14.1861C7.82625 14.2874 7.8675 14.4374 7.83 14.5761L6.2625 20.2724C6.2475 20.3286 6.255 20.3924 6.28125 20.4449C6.31125 20.5049 6.36375 20.5499 6.4275 20.5686C6.49125 20.5874 6.55875 20.5836 6.61875 20.5536L11.8238 17.9774C11.88 17.9511 11.94 17.9361 12 17.9361L11.9962 17.9286Z" fill="black"/>
</svg>
