<svg width="64" height="64" viewBox="0 0 64 64" fill="none" xmlns="http://www.w3.org/2000/svg">
<path d="M39.66 56.9996C39.23 56.9996 38.8 56.8996 38.41 56.6996L25 50.0596L11.6 56.6996C10.94 57.0296 10.18 57.0896 9.47 56.8496C8.76 56.6196 8.19 56.1196 7.85 55.4496C7.54 54.8396 7.47 54.1396 7.65 53.4796L11.67 38.8796L0.82 28.1496C0.29 27.6196 0 26.9296 0 26.1896C0 25.4496 0.28 24.7496 0.8 24.2196C1.27 23.7496 1.88 23.4596 2.54 23.4096L15.64 22.1096L22.5 8.52963C22.84 7.85963 23.43 7.35963 24.14 7.12963C24.85 6.89963 25.61 6.95963 26.28 7.29963C26.81 7.56963 27.23 7.98963 27.5 8.51963L34.36 22.1096L47.48 23.4096C48.99 23.5396 50.13 24.8796 50 26.4096C49.94 27.0696 49.66 27.6896 49.19 28.1496L38.36 38.8896L42.38 53.4796C42.78 54.9796 41.89 56.5096 40.4 56.9096C40.16 56.9696 39.92 56.9996 39.68 56.9996H39.66ZM24.99 47.8096C25.15 47.8096 25.31 47.8496 25.46 47.9196L39.35 54.7996C39.5 54.8796 39.67 54.8896 39.83 54.8496C40.18 54.7596 40.4 54.3896 40.3 54.0396L36.12 38.8596C36.02 38.4896 36.12 38.0896 36.4 37.8196L47.68 26.6396C47.79 26.5296 47.86 26.3896 47.87 26.2296C47.9 25.8696 47.63 25.5596 47.28 25.5296L33.56 24.1696C33.2 24.1296 32.88 23.9196 32.72 23.5896L25.6 9.49963C25.53 9.36963 25.43 9.26963 25.31 9.20963C25.15 9.12963 24.96 9.10963 24.79 9.16963C24.62 9.22963 24.48 9.34963 24.39 9.50963L17.28 23.5996C17.12 23.9296 16.8 24.1396 16.44 24.1796L2.74 25.5396C2.57 25.5496 2.42 25.6196 2.32 25.7296C2.07 25.9796 2.07 26.3996 2.32 26.6496L13.6 37.8296C13.87 38.0996 13.98 38.4996 13.88 38.8696L9.7 54.0596C9.66 54.2096 9.68 54.3796 9.75 54.5196C9.83 54.6796 9.97 54.7996 10.14 54.8496C10.31 54.8996 10.49 54.8896 10.65 54.8096L24.53 47.9396C24.68 47.8696 24.84 47.8296 25 47.8296L24.99 47.8096Z" fill="black"/>
</svg>
