<svg width="64" height="64" viewBox="0 0 64 64" fill="none" xmlns="http://www.w3.org/2000/svg">
<path d="M46.66 56.9996C46.23 56.9996 45.8 56.8996 45.41 56.6996L32 50.0596L18.6 56.6996C17.94 57.0296 17.18 57.0896 16.47 56.8496C15.76 56.6196 15.19 56.1196 14.85 55.4496C14.54 54.8396 14.47 54.1396 14.65 53.4796L18.67 38.8796L7.82 28.1496C7.29 27.6196 7 26.9296 7 26.1896C7 25.4496 7.28 24.7496 7.8 24.2196C8.27 23.7496 8.88 23.4596 9.54 23.4096L22.64 22.1096L29.5 8.52963C29.84 7.85963 30.43 7.35963 31.14 7.12963C31.85 6.89963 32.61 6.95963 33.28 7.29963C33.81 7.56963 34.23 7.98963 34.5 8.51963L41.36 22.1096L54.48 23.4096C55.99 23.5396 57.13 24.8796 57 26.4096C56.94 27.0696 56.66 27.6896 56.19 28.1496L45.36 38.8896L49.38 53.4796C49.78 54.9796 48.89 56.5096 47.4 56.9096C47.16 56.9696 46.92 56.9996 46.68 56.9996H46.66ZM31.99 47.8096C32.15 47.8096 32.31 47.8496 32.46 47.9196L46.35 54.7996C46.5 54.8796 46.67 54.8896 46.83 54.8496C47.18 54.7596 47.4 54.3896 47.3 54.0396L43.12 38.8596C43.02 38.4896 43.12 38.0896 43.4 37.8196L54.68 26.6396C54.79 26.5296 54.86 26.3896 54.87 26.2296C54.9 25.8696 54.63 25.5596 54.28 25.5296L40.56 24.1696C40.2 24.1296 39.88 23.9196 39.72 23.5896L32.6 9.49963C32.53 9.36963 32.43 9.26963 32.31 9.20963C32.15 9.12963 31.96 9.10963 31.79 9.16963C31.62 9.22963 31.48 9.34963 31.39 9.50963L24.28 23.5996C24.12 23.9296 23.8 24.1396 23.44 24.1796L9.74 25.5396C9.57 25.5496 9.42 25.6196 9.32 25.7296C9.07 25.9796 9.07 26.3996 9.32 26.6496L20.6 37.8296C20.87 38.0996 20.98 38.4996 20.88 38.8696L16.7 54.0596C16.66 54.2096 16.68 54.3796 16.75 54.5196C16.83 54.6796 16.97 54.7996 17.14 54.8496C17.31 54.8996 17.49 54.8896 17.65 54.8096L31.53 47.9396C31.68 47.8696 31.84 47.8296 32 47.8296L31.99 47.8096Z" fill="black"/>
</svg>
