<svg width="64" height="64" viewBox="0 0 64 64" fill="none" xmlns="http://www.w3.org/2000/svg">
<g clip-path="url(#clip0_1530_3123)">
<path fill-rule="evenodd" clip-rule="evenodd" d="M18.2586 55.3981H59.7386H59.7486C60.4886 55.3981 61.2186 55.1981 61.8586 54.8381C62.4986 54.4781 63.0286 53.9381 63.4086 53.3081C63.7886 52.6781 63.9986 51.9481 63.9986 51.2081C64.0186 50.4681 63.8286 49.7381 63.4786 49.0981L42.7286 10.7881C42.3586 10.1181 41.8186 9.56809 41.1686 9.17809C39.8586 8.40809 38.1486 8.40809 36.8386 9.17809C36.1786 9.55809 35.6386 10.1181 35.2686 10.7881L14.5286 49.0781C14.1686 49.7281 13.9886 50.4581 13.9986 51.1981C14.0086 51.9381 14.2186 52.6681 14.5986 53.3081C14.9686 53.9381 15.5086 54.4681 16.1486 54.8381C16.7886 55.2081 17.5186 55.3981 18.2586 55.3981ZM37.9186 11.0081C38.2486 10.8181 38.6186 10.7181 38.9986 10.7181C39.3786 10.7181 39.7486 10.8181 40.0786 11.0081C40.4086 11.1981 40.6786 11.4781 40.8586 11.8081L61.5986 50.1181C61.7686 50.4381 61.8586 50.8081 61.8586 51.1781C61.8586 51.5481 61.7586 51.9081 61.5686 52.2281C61.3786 52.5481 61.1086 52.8181 60.7886 52.9981C60.4686 53.1781 60.1086 53.2781 59.7386 53.2781H18.2486C17.8886 53.2781 17.5186 53.1881 17.1986 52.9981C16.8786 52.8081 16.6086 52.5481 16.4186 52.2281C16.2386 51.9081 16.1286 51.5481 16.1286 51.1781C16.1286 50.8081 16.2186 50.4381 16.3986 50.1081L37.1386 11.8081C37.3186 11.4781 37.5886 11.1981 37.9186 11.0081ZM37.9386 38.3781C37.9386 38.9581 38.4086 39.4381 38.9986 39.4381V39.4281C39.5786 39.4281 40.0586 38.9581 40.0586 38.3681V24.0081C40.0586 23.4281 39.5786 22.9481 38.9986 22.9481C38.4186 22.9481 37.9386 23.4181 37.9386 24.0081V38.3781ZM38.9986 47.4181C37.9686 47.4181 37.1386 46.5781 37.1386 45.5581C37.1386 44.5381 37.9786 43.6981 38.9986 43.6981C40.0286 43.6981 40.8586 44.5381 40.8586 45.5581C40.8586 46.5781 40.0186 47.4181 38.9986 47.4181Z" fill="black"/>
</g>
<defs>
<clipPath id="clip0_1530_3123">
<rect width="64" height="64" fill="white"/>
</clipPath>
</defs>
</svg>
