<svg width="24" height="24" viewBox="0 0 24 24" fill="none" xmlns="http://www.w3.org/2000/svg">
<g clip-path="url(#clip0_1530_5727)">
<path fill-rule="evenodd" clip-rule="evenodd" d="M6.84698 20.7746H22.402H22.4057C22.6832 20.7746 22.957 20.6996 23.197 20.5646C23.437 20.4296 23.6357 20.2271 23.7782 19.9909C23.9207 19.7546 23.9995 19.4809 23.9995 19.2034C24.007 18.9259 23.9357 18.6521 23.8045 18.4121L16.0232 4.0459C15.8845 3.79465 15.682 3.5884 15.4382 3.44215C14.947 3.1534 14.3057 3.1534 13.8145 3.44215C13.567 3.58465 13.3645 3.79465 13.2257 4.0459L5.44823 18.4046C5.31323 18.6484 5.24573 18.9221 5.24948 19.1996C5.25323 19.4771 5.33198 19.7509 5.47448 19.9909C5.61323 20.2271 5.81573 20.4259 6.05573 20.5646C6.29573 20.7034 6.56948 20.7746 6.84698 20.7746ZM14.2195 4.1284C14.3432 4.05715 14.482 4.01965 14.6245 4.01965C14.767 4.01965 14.9057 4.05715 15.0295 4.1284C15.1532 4.19965 15.2545 4.30465 15.322 4.4284L23.0995 18.7946C23.1632 18.9146 23.197 19.0534 23.197 19.1921C23.197 19.3309 23.1595 19.4659 23.0882 19.5859C23.017 19.7059 22.9157 19.8071 22.7957 19.8746C22.6757 19.9421 22.5407 19.9796 22.402 19.9796H6.84323C6.70823 19.9796 6.56948 19.9459 6.44948 19.8746C6.32948 19.8034 6.22823 19.7059 6.15698 19.5859C6.08948 19.4659 6.04823 19.3309 6.04823 19.1921C6.04823 19.0534 6.08198 18.9146 6.14948 18.7909L13.927 4.4284C13.9945 4.30465 14.0957 4.19965 14.2195 4.1284ZM14.227 14.3921C14.227 14.6096 14.4032 14.7896 14.6245 14.7896V14.7859C14.842 14.7859 15.022 14.6096 15.022 14.3884V9.0034C15.022 8.7859 14.842 8.6059 14.6245 8.6059C14.407 8.6059 14.227 8.78215 14.227 9.0034V14.3921ZM14.6245 17.7821C14.2382 17.7821 13.927 17.4671 13.927 17.0846C13.927 16.7021 14.242 16.3871 14.6245 16.3871C15.0107 16.3871 15.322 16.7021 15.322 17.0846C15.322 17.4671 15.007 17.7821 14.6245 17.7821Z" fill="black"/>
</g>
<defs>
<clipPath id="clip0_1530_5727">
<rect width="24" height="24" fill="white"/>
</clipPath>
</defs>
</svg>
