<svg width="24" height="24" viewBox="0 0 24 24" fill="none" xmlns="http://www.w3.org/2000/svg">
<g clip-path="url(#clip0_1530_5902)">
<path fill-rule="evenodd" clip-rule="evenodd" d="M11.805 21.9267H3.5625C1.5975 21.9267 0 20.3292 0 18.3642V5.63672C0 3.67172 1.5975 2.07422 3.5625 2.07422H11.805C13.77 2.07422 15.3675 3.67172 15.3675 5.63672V18.3642C15.3675 20.3292 13.77 21.9267 11.805 21.9267ZM3.5625 2.82422C2.01 2.82422 0.75 4.08797 0.75 5.63672V18.3642C0.75 19.9167 2.01375 21.1767 3.5625 21.1767H11.805C13.3575 21.1767 14.6175 19.913 14.6175 18.3642V5.63672C14.6175 4.08422 13.3538 2.82422 11.805 2.82422H3.5625ZM7.7925 18.3005H7.575C6.0375 18.3005 4.78875 17.0517 4.78875 15.5142V15.398C4.78875 13.8605 6.0375 12.6117 7.575 12.6117H7.7925C9.33 12.6117 10.5787 13.8605 10.5787 15.398V15.5142C10.5787 17.0517 9.33 18.3005 7.7925 18.3005ZM7.575 13.3617C6.45 13.3617 5.53875 14.2767 5.53875 15.398V15.5142C5.53875 16.6392 6.45375 17.5505 7.575 17.5505H7.7925C8.9175 17.5505 9.82875 16.6355 9.82875 15.5142V15.398C9.82875 14.273 8.91375 13.3617 7.7925 13.3617H7.575ZM5.16375 6.91547H10.2075C10.4138 6.91547 10.5825 6.74672 10.5825 6.54047C10.5825 6.33422 10.4138 6.16547 10.2075 6.16547H5.16375C4.9575 6.16547 4.78875 6.33422 4.78875 6.54047C4.78875 6.74672 4.9575 6.91547 5.16375 6.91547Z" fill="black"/>
</g>
<defs>
<clipPath id="clip0_1530_5902">
<rect width="24" height="24" fill="white"/>
</clipPath>
</defs>
</svg>
