<svg width="64" height="64" viewBox="0 0 64 64" fill="none" xmlns="http://www.w3.org/2000/svg">
<path fill-rule="evenodd" clip-rule="evenodd" d="M54.5 58.4693H32.52C27.28 58.4693 23.02 54.2093 23.02 48.9693V15.0293C23.02 9.7893 27.28 5.5293 32.52 5.5293H54.5C59.74 5.5293 64 9.7893 64 15.0293V48.9693C64 54.2093 59.74 58.4693 54.5 58.4693ZM32.52 7.5293C28.38 7.5293 25.02 10.8993 25.02 15.0293V48.9693C25.02 53.1093 28.39 56.4693 32.52 56.4693H54.5C58.64 56.4693 62 53.0993 62 48.9693V15.0293C62 10.8893 58.63 7.5293 54.5 7.5293H32.52ZM43.8 48.7993H43.22C39.12 48.7993 35.79 45.4693 35.79 41.3693V41.0593C35.79 36.9593 39.12 33.6293 43.22 33.6293H43.8C47.9 33.6293 51.23 36.9593 51.23 41.0593V41.3693C51.23 45.4693 47.9 48.7993 43.8 48.7993ZM43.22 35.6293C40.22 35.6293 37.79 38.0693 37.79 41.0593V41.3693C37.79 44.3693 40.23 46.7993 43.22 46.7993H43.8C46.8 46.7993 49.23 44.3593 49.23 41.3693V41.0593C49.23 38.0593 46.79 35.6293 43.8 35.6293H43.22ZM36.79 18.4393H50.24C50.79 18.4393 51.24 17.9893 51.24 17.4393C51.24 16.8893 50.79 16.4393 50.24 16.4393H36.79C36.24 16.4393 35.79 16.8893 35.79 17.4393C35.79 17.9893 36.24 18.4393 36.79 18.4393Z" fill="black"/>
</svg>
