<svg width="64" height="64" viewBox="0 0 64 64" fill="none" xmlns="http://www.w3.org/2000/svg">
<g clip-path="url(#clip0_1530_4921)">
<path fill-rule="evenodd" clip-rule="evenodd" d="M31.48 58.4693H9.5C4.26 58.4693 0 54.2093 0 48.9693V15.0293C0 9.7893 4.26 5.5293 9.5 5.5293H31.48C36.72 5.5293 40.98 9.7893 40.98 15.0293V48.9693C40.98 54.2093 36.72 58.4693 31.48 58.4693ZM9.5 7.5293C5.36 7.5293 2 10.8993 2 15.0293V48.9693C2 53.1093 5.37 56.4693 9.5 56.4693H31.48C35.62 56.4693 38.98 53.0993 38.98 48.9693V15.0293C38.98 10.8893 35.61 7.5293 31.48 7.5293H9.5ZM20.78 48.7993H20.2C16.1 48.7993 12.77 45.4693 12.77 41.3693V41.0593C12.77 36.9593 16.1 33.6293 20.2 33.6293H20.78C24.88 33.6293 28.21 36.9593 28.21 41.0593V41.3693C28.21 45.4693 24.88 48.7993 20.78 48.7993ZM20.2 35.6293C17.2 35.6293 14.77 38.0693 14.77 41.0593V41.3693C14.77 44.3693 17.21 46.7993 20.2 46.7993H20.78C23.78 46.7993 26.21 44.3593 26.21 41.3693V41.0593C26.21 38.0593 23.77 35.6293 20.78 35.6293H20.2ZM13.77 18.4393H27.22C27.77 18.4393 28.22 17.9893 28.22 17.4393C28.22 16.8893 27.77 16.4393 27.22 16.4393H13.77C13.22 16.4393 12.77 16.8893 12.77 17.4393C12.77 17.9893 13.22 18.4393 13.77 18.4393Z" fill="black"/>
</g>
<defs>
<clipPath id="clip0_1530_4921">
<rect width="64" height="64" fill="white"/>
</clipPath>
</defs>
</svg>
