<svg width="64" height="64" viewBox="0 0 64 64" fill="none" xmlns="http://www.w3.org/2000/svg">
<path fill-rule="evenodd" clip-rule="evenodd" d="M9.14948 54.8381C9.78948 55.2081 10.5195 55.3981 11.2595 55.3981H52.7395H52.7495C53.4895 55.3981 54.2195 55.1981 54.8595 54.8381C55.4995 54.4781 56.0295 53.9381 56.4095 53.3081C56.7895 52.6781 56.9995 51.9481 56.9995 51.2081C57.0195 50.4681 56.8295 49.7381 56.4795 49.0981L35.7295 10.7881C35.3595 10.1181 34.8195 9.56809 34.1695 9.17809C32.8595 8.40809 31.1495 8.40809 29.8395 9.17809C29.1795 9.55809 28.6395 10.1181 28.2695 10.7881L7.52948 49.0781C7.16948 49.7281 6.98948 50.4581 6.99948 51.1981C7.00948 51.9381 7.21948 52.6681 7.59948 53.3081C7.96948 53.9381 8.50948 54.4681 9.14948 54.8381ZM30.9195 11.0081C31.2495 10.8181 31.6195 10.7181 31.9995 10.7181C32.3795 10.7181 32.7495 10.8181 33.0795 11.0081C33.4095 11.1981 33.6795 11.4781 33.8595 11.8081L54.5995 50.1181C54.7695 50.4381 54.8595 50.8081 54.8595 51.1781C54.8595 51.5481 54.7595 51.9081 54.5695 52.2281C54.3795 52.5481 54.1095 52.8181 53.7895 52.9981C53.4695 53.1781 53.1095 53.2781 52.7395 53.2781H11.2495C10.8895 53.2781 10.5195 53.1881 10.1995 52.9981C9.87948 52.8081 9.60948 52.5481 9.41948 52.2281C9.23948 51.9081 9.12948 51.5481 9.12948 51.1781C9.12948 50.8081 9.21948 50.4381 9.39948 50.1081L30.1395 11.8081C30.3195 11.4781 30.5895 11.1981 30.9195 11.0081ZM30.9395 38.3781C30.9395 38.9581 31.4095 39.4381 31.9995 39.4381V39.4281C32.5795 39.4281 33.0595 38.9581 33.0595 38.3681V24.0081C33.0595 23.4281 32.5795 22.9481 31.9995 22.9481C31.4195 22.9481 30.9395 23.4181 30.9395 24.0081V38.3781ZM31.9995 47.4181C30.9695 47.4181 30.1395 46.5781 30.1395 45.5581C30.1395 44.5381 30.9795 43.6981 31.9995 43.6981C33.0295 43.6981 33.8595 44.5381 33.8595 45.5581C33.8595 46.5781 33.0195 47.4181 31.9995 47.4181Z" fill="black"/>
</svg>
