<svg width="64" height="64" viewBox="0 0 64 64" fill="none" xmlns="http://www.w3.org/2000/svg">
<path fill-rule="evenodd" clip-rule="evenodd" d="M42.99 58.4693H21.01C15.77 58.4693 11.51 54.2093 11.51 48.9693V15.0293C11.51 9.7893 15.77 5.5293 21.01 5.5293H42.99C48.23 5.5293 52.49 9.7893 52.49 15.0293V48.9693C52.49 54.2093 48.23 58.4693 42.99 58.4693ZM21.01 7.5293C16.87 7.5293 13.51 10.8993 13.51 15.0293V48.9693C13.51 53.1093 16.88 56.4693 21.01 56.4693H42.99C47.13 56.4693 50.49 53.0993 50.49 48.9693V15.0293C50.49 10.8893 47.12 7.5293 42.99 7.5293H21.01ZM32.29 48.7993H31.71C27.61 48.7993 24.28 45.4693 24.28 41.3693V41.0593C24.28 36.9593 27.61 33.6293 31.71 33.6293H32.29C36.39 33.6293 39.72 36.9593 39.72 41.0593V41.3693C39.72 45.4693 36.39 48.7993 32.29 48.7993ZM31.71 35.6293C28.71 35.6293 26.28 38.0693 26.28 41.0593V41.3693C26.28 44.3693 28.72 46.7993 31.71 46.7993H32.29C35.29 46.7993 37.72 44.3593 37.72 41.3693V41.0593C37.72 38.0593 35.28 35.6293 32.29 35.6293H31.71ZM25.28 18.4393H38.73C39.28 18.4393 39.73 17.9893 39.73 17.4393C39.73 16.8893 39.28 16.4393 38.73 16.4393H25.28C24.73 16.4393 24.28 16.8893 24.28 17.4393C24.28 17.9893 24.73 18.4393 25.28 18.4393Z" fill="black"/>
</svg>
