<svg width="24" height="24" viewBox="0 0 24 24" fill="none" xmlns="http://www.w3.org/2000/svg">
<path fill-rule="evenodd" clip-rule="evenodd" d="M4.22231 20.7746H19.7773H19.7811C20.0586 20.7746 20.3323 20.6996 20.5723 20.5646C20.8123 20.4296 21.0111 20.2271 21.1536 19.9909C21.2961 19.7546 21.3748 19.4809 21.3748 19.2034C21.3823 18.9259 21.3111 18.6521 21.1798 18.4121L13.3986 4.0459C13.2598 3.79465 13.0573 3.5884 12.8136 3.44215C12.3223 3.1534 11.6811 3.1534 11.1898 3.44215C10.9423 3.58465 10.7398 3.79465 10.6011 4.0459L2.82356 18.4046C2.68856 18.6484 2.62106 18.9221 2.62481 19.1996C2.62856 19.4771 2.70731 19.7509 2.84981 19.9909C2.98856 20.2271 3.19106 20.4259 3.43106 20.5646C3.67106 20.7034 3.94481 20.7746 4.22231 20.7746ZM11.5948 4.1284C11.7186 4.05715 11.8573 4.01965 11.9998 4.01965C12.1423 4.01965 12.2811 4.05715 12.4048 4.1284C12.5286 4.19965 12.6298 4.30465 12.6973 4.4284L20.4748 18.7946C20.5386 18.9146 20.5723 19.0534 20.5723 19.1921C20.5723 19.3309 20.5348 19.4659 20.4636 19.5859C20.3923 19.7059 20.2911 19.8071 20.1711 19.8746C20.0511 19.9421 19.9161 19.9796 19.7773 19.9796H4.21856C4.08356 19.9796 3.94481 19.9459 3.82481 19.8746C3.70481 19.8034 3.60356 19.7059 3.53231 19.5859C3.46481 19.4659 3.42356 19.3309 3.42356 19.1921C3.42356 19.0534 3.45731 18.9146 3.52481 18.7909L11.3023 4.4284C11.3698 4.30465 11.4711 4.19965 11.5948 4.1284ZM11.6023 14.3921C11.6023 14.6096 11.7786 14.7896 11.9998 14.7896V14.7859C12.2173 14.7859 12.3973 14.6096 12.3973 14.3884V9.0034C12.3973 8.7859 12.2173 8.6059 11.9998 8.6059C11.7823 8.6059 11.6023 8.78215 11.6023 9.0034V14.3921ZM11.9998 17.7821C11.6136 17.7821 11.3023 17.4671 11.3023 17.0846C11.3023 16.7021 11.6173 16.3871 11.9998 16.3871C12.3861 16.3871 12.6973 16.7021 12.6973 17.0846C12.6973 17.4671 12.3823 17.7821 11.9998 17.7821Z" fill="black"/>
</svg>
