<svg width="24" height="24" viewBox="0 0 24 24" fill="none" xmlns="http://www.w3.org/2000/svg">
<path fill-rule="evenodd" clip-rule="evenodd" d="M16.1213 21.9267H7.87875C5.91375 21.9267 4.31625 20.3292 4.31625 18.3642V5.63672C4.31625 3.67172 5.91375 2.07422 7.87875 2.07422H16.1213C18.0863 2.07422 19.6838 3.67172 19.6838 5.63672V18.3642C19.6838 20.3292 18.0863 21.9267 16.1213 21.9267ZM7.87875 2.82422C6.32625 2.82422 5.06625 4.08797 5.06625 5.63672V18.3642C5.06625 19.9167 6.33 21.1767 7.87875 21.1767H16.1213C17.6738 21.1767 18.9338 19.913 18.9338 18.3642V5.63672C18.9338 4.08422 17.67 2.82422 16.1213 2.82422H7.87875ZM12.1088 18.3005H11.8913C10.3538 18.3005 9.105 17.0517 9.105 15.5142V15.398C9.105 13.8605 10.3538 12.6117 11.8913 12.6117H12.1088C13.6463 12.6117 14.895 13.8605 14.895 15.398V15.5142C14.895 17.0517 13.6463 18.3005 12.1088 18.3005ZM11.8913 13.3617C10.7663 13.3617 9.855 14.2767 9.855 15.398V15.5142C9.855 16.6392 10.77 17.5505 11.8913 17.5505H12.1088C13.2338 17.5505 14.145 16.6355 14.145 15.5142V15.398C14.145 14.273 13.23 13.3617 12.1088 13.3617H11.8913ZM9.48 6.91547H14.5238C14.73 6.91547 14.8988 6.74672 14.8988 6.54047C14.8988 6.33422 14.73 6.16547 14.5238 6.16547H9.48C9.27375 6.16547 9.105 6.33422 9.105 6.54047C9.105 6.74672 9.27375 6.91547 9.48 6.91547Z" fill="black"/>
</svg>
