<svg width="64" height="64" viewBox="0 0 64 64" fill="none" xmlns="http://www.w3.org/2000/svg">
<path fill-rule="evenodd" clip-rule="evenodd" d="M4.2604 55.3981H45.7404H45.7504C46.4904 55.3981 47.2204 55.1981 47.8604 54.8381C48.5004 54.4781 49.0304 53.9381 49.4104 53.3081C49.7904 52.6781 50.0004 51.9481 50.0004 51.2081C50.0204 50.4681 49.8304 49.7381 49.4804 49.0981L28.7304 10.7881C28.3604 10.1181 27.8204 9.56809 27.1704 9.17809C25.8604 8.40809 24.1504 8.40809 22.8404 9.17809C22.1804 9.55809 21.6404 10.1181 21.2704 10.7881L0.530395 49.0781C0.170395 49.7281 -0.00960508 50.4581 0.000394919 51.1981C0.0103949 51.9381 0.220395 52.6681 0.600395 53.3081C0.970395 53.9381 1.51039 54.4681 2.15039 54.8381C2.7904 55.2081 3.5204 55.3981 4.2604 55.3981ZM23.9204 11.0081C24.2504 10.8181 24.6204 10.7181 25.0004 10.7181C25.3804 10.7181 25.7504 10.8181 26.0804 11.0081C26.4104 11.1981 26.6804 11.4781 26.8604 11.8081L47.6004 50.1181C47.7704 50.4381 47.8604 50.8081 47.8604 51.1781C47.8604 51.5481 47.7604 51.9081 47.5704 52.2281C47.3804 52.5481 47.1104 52.8181 46.7904 52.9981C46.4704 53.1781 46.1104 53.2781 45.7404 53.2781H4.25039C3.89039 53.2781 3.52039 53.1881 3.20039 52.9981C2.88039 52.8081 2.61039 52.5481 2.42039 52.2281C2.24039 51.9081 2.13039 51.5481 2.13039 51.1781C2.13039 50.8081 2.22039 50.4381 2.40039 50.1081L23.1404 11.8081C23.3204 11.4781 23.5904 11.1981 23.9204 11.0081ZM23.9404 38.3781C23.9404 38.9581 24.4104 39.4381 25.0004 39.4381V39.4281C25.5804 39.4281 26.0604 38.9581 26.0604 38.3681V24.0081C26.0604 23.4281 25.5804 22.9481 25.0004 22.9481C24.4204 22.9481 23.9404 23.4181 23.9404 24.0081V38.3781ZM25.0004 47.4181C23.9704 47.4181 23.1404 46.5781 23.1404 45.5581C23.1404 44.5381 23.9804 43.6981 25.0004 43.6981C26.0304 43.6981 26.8604 44.5381 26.8604 45.5581C26.8604 46.5781 26.0204 47.4181 25.0004 47.4181Z" fill="black"/>
</svg>
