<svg width="24" height="24" viewBox="0 0 24 24" fill="none" xmlns="http://www.w3.org/2000/svg">
<path fill-rule="evenodd" clip-rule="evenodd" d="M1.59765 20.7746H17.1527H17.1564C17.4339 20.7746 17.7076 20.6996 17.9476 20.5646C18.1876 20.4296 18.3864 20.2271 18.5289 19.9909C18.6714 19.7546 18.7501 19.4809 18.7501 19.2034C18.7576 18.9259 18.6864 18.6521 18.5551 18.4121L10.7739 4.0459C10.6351 3.79465 10.4326 3.5884 10.1889 3.44215C9.69765 3.1534 9.0564 3.1534 8.56515 3.44215C8.31765 3.58465 8.11515 3.79465 7.9764 4.0459L0.198898 18.4046C0.0638981 18.6484 -0.00360191 18.9221 0.000148095 19.1996C0.00389809 19.4771 0.0826481 19.7509 0.225148 19.9909C0.363898 20.2271 0.566398 20.4259 0.806398 20.5646C1.0464 20.7034 1.32015 20.7746 1.59765 20.7746ZM8.97015 4.1284C9.0939 4.05715 9.23265 4.01965 9.37515 4.01965C9.51765 4.01965 9.6564 4.05715 9.78015 4.1284C9.9039 4.19965 10.0051 4.30465 10.0726 4.4284L17.8501 18.7946C17.9139 18.9146 17.9476 19.0534 17.9476 19.1921C17.9476 19.3309 17.9101 19.4659 17.8389 19.5859C17.7676 19.7059 17.6664 19.8071 17.5464 19.8746C17.4264 19.9421 17.2914 19.9796 17.1527 19.9796H1.5939C1.4589 19.9796 1.32015 19.9459 1.20015 19.8746C1.08015 19.8034 0.978898 19.7059 0.907648 19.5859C0.840148 19.4659 0.798898 19.3309 0.798898 19.1921C0.798898 19.0534 0.832648 18.9146 0.900148 18.7909L8.67765 4.4284C8.74515 4.30465 8.8464 4.19965 8.97015 4.1284ZM8.97765 14.3921C8.97765 14.6096 9.1539 14.7896 9.37515 14.7896V14.7859C9.59265 14.7859 9.77265 14.6096 9.77265 14.3884V9.0034C9.77265 8.7859 9.59265 8.6059 9.37515 8.6059C9.15765 8.6059 8.97765 8.78215 8.97765 9.0034V14.3921ZM9.37515 17.7821C8.9889 17.7821 8.67765 17.4671 8.67765 17.0846C8.67765 16.7021 8.99265 16.3871 9.37515 16.3871C9.7614 16.3871 10.0726 16.7021 10.0726 17.0846C10.0726 17.4671 9.75765 17.7821 9.37515 17.7821Z" fill="black"/>
</svg>
